<?xml version="1.0" encoding="UTF-8"?>
<svg id="katman_2" data-name="katman 2" xmlns="http://www.w3.org/2000/svg" xmlns:xlink="http://www.w3.org/1999/xlink" viewBox="0 0 386.28 279.8">
  <defs>
    <style>
      .cls-1 {
        fill: #be7250;
      }

      .cls-2 {
        fill: #f24c35;
      }

      .cls-3 {
        fill: url(#Adsız_degrade_143);
      }

      .cls-4 {
        fill: url(#Adsız_degrade_147);
      }

      .cls-5 {
        fill: url(#Adsız_degrade_146);
      }

      .cls-6 {
        fill: url(#Adsız_degrade_138);
      }

      .cls-7 {
        fill: #f79536;
      }

      .cls-8 {
        fill: #3c4a59;
      }

      .cls-9 {
        fill: #9eafb2;
      }

      .cls-10 {
        fill: #f7c012;
      }

      .cls-11 {
        fill: #5f3631;
      }

      .cls-12 {
        fill: #b34e48;
      }

      .cls-13 {
        fill: #f7a53a;
      }

      .cls-14 {
        fill: #7dbcd4;
      }

      .cls-15 {
        fill: #fab693;
      }

      .cls-16 {
        fill: #836889;
      }

      .cls-17 {
        fill: #ecc39b;
      }

      .cls-18 {
        fill: #fee5af;
      }

      .cls-19 {
        fill: #e594a5;
      }

      .cls-20 {
        fill: #54484f;
      }

      .cls-21 {
        fill: #f46213;
      }

      .cls-22 {
        fill: #647136;
      }

      .cls-23 {
        fill: #b67765;
      }

      .cls-24 {
        fill: #abbb25;
      }

      .cls-25 {
        fill: #bf8f74;
      }

      .cls-26 {
        fill: #fdeb90;
      }

      .cls-27 {
        fill: #e8f5f7;
      }

      .cls-28 {
        fill: #fec963;
      }

      .cls-29 {
        fill: #a78291;
      }

      .cls-30 {
        fill: #89a2a5;
      }

      .cls-31 {
        fill: #b3c0c3;
      }

      .cls-32 {
        fill: #f3739b;
      }

      .cls-33 {
        fill: #c08527;
      }

      .cls-34 {
        fill: #fbc4b5;
      }

      .cls-35 {
        fill: #efebe2;
      }

      .cls-36 {
        fill: #6c951b;
      }

      .cls-37 {
        fill: #9086aa;
      }

      .cls-38 {
        fill: #96a7d0;
      }

      .cls-39 {
        fill: #cb4b82;
      }

      .cls-40 {
        fill: #7b8d30;
      }

      .cls-41 {
        fill: #708bae;
      }

      .cls-42 {
        fill: #dd5910;
      }

      .cls-43 {
        fill: #47679f;
      }

      .cls-44 {
        fill: #102660;
      }

      .cls-45 {
        fill: #f6bdd4;
      }

      .cls-46 {
        fill: #f6cf22;
      }

      .cls-47 {
        fill: #4aa0a3;
      }

      .cls-48 {
        fill: #4c8894;
      }

      .cls-49 {
        fill: #ad6754;
      }

      .cls-50 {
        fill: #fee25a;
      }

      .cls-51 {
        fill: #a44730;
      }

      .cls-52 {
        fill: #736f9e;
      }

      .cls-53 {
        fill: #5d8717;
      }

      .cls-54 {
        fill: #e4a9c6;
      }

      .cls-55 {
        fill: #51110b;
      }

      .cls-56 {
        fill: #bdebf3;
      }

      .cls-57 {
        fill: #b9583d;
      }

      .cls-58 {
        fill: #729dbe;
      }

      .cls-59 {
        fill: #bd9dc7;
      }

      .cls-60 {
        fill: #fedb8e;
      }

      .cls-61 {
        fill: #e13d6f;
      }

      .cls-62 {
        fill: #8c6eab;
      }

      .cls-63 {
        fill: #d4d24b;
      }

      .cls-64 {
        fill: #346e60;
      }

      .cls-65 {
        fill: #d4684e;
      }

      .cls-66 {
        fill: #f79f8a;
      }

      .cls-67 {
        fill: #476750;
      }

      .cls-68 {
        fill: #684965;
      }

      .cls-69 {
        fill: #83afd7;
      }

      .cls-70 {
        fill: #b3dbed;
      }

      .cls-71 {
        fill: #986893;
      }

      .cls-72 {
        fill: #3c677d;
      }

      .cls-73 {
        fill: #9fcfb6;
      }

      .cls-74 {
        fill: #395793;
      }

      .cls-75 {
        fill: #e8a815;
      }

      .cls-76 {
        fill: #da3d56;
      }

      .cls-77 {
        fill: #98b9bc;
      }

      .cls-78 {
        fill: #9d311a;
      }

      .cls-79 {
        fill: #77528c;
      }

      .cls-80 {
        fill: #d787ab;
      }

      .cls-81 {
        fill: #9e9fa0;
      }

      .cls-82 {
        fill: #7ba529;
      }

      .cls-83 {
        fill: #5e627a;
      }

      .cls-84 {
        fill: #cbe4ec;
      }

      .cls-85 {
        fill: #a36e4b;
      }

      .cls-86 {
        fill: #a58ac0;
      }

      .cls-87 {
        fill: #2d6671;
      }

      .cls-88 {
        fill: #887275;
      }

      .cls-89 {
        fill: #f8e2ec;
      }

      .cls-90 {
        fill: #997723;
      }

      .cls-91 {
        fill: #8bb059;
      }

      .cls-92 {
        fill: #498e82;
      }

      .cls-93 {
        fill: #899599;
      }

      .cls-94 {
        fill: #dbb668;
      }

      .cls-95 {
        fill: #e1a182;
      }

      .cls-96 {
        fill: #afd0cc;
      }

      .cls-97 {
        fill: #7b5955;
      }

      .cls-98 {
        fill: #beb7b8;
      }

      .cls-99 {
        fill: #31497d;
      }

      .cls-100 {
        fill: #285c58;
      }

      .cls-101 {
        fill: #5377b2;
      }

      .cls-102 {
        fill: #fdfdfd;
      }

      .cls-103 {
        fill: #d35f87;
      }

      .cls-104 {
        fill: #3a1a19;
      }
    </style>
    <linearGradient id="Adsız_degrade_146" data-name="Adsız degrade 146" x1="269.11" y1="63.48" x2="269.04" y2="156.65" gradientUnits="userSpaceOnUse">
      <stop offset="0" stop-color="#fbfbfb"/>
      <stop offset="1" stop-color="#bee6ec"/>
    </linearGradient>
    <linearGradient id="Adsız_degrade_138" data-name="Adsız degrade 138" x1="113.87" y1="62.46" x2="117.05" y2="201.26" gradientUnits="userSpaceOnUse">
      <stop offset="0" stop-color="#fbfbfb"/>
      <stop offset="1" stop-color="#a4dfe8"/>
    </linearGradient>
    <linearGradient id="Adsız_degrade_143" data-name="Adsız degrade 143" x1="149.59" y1="47.51" x2="149.08" y2="119.69" gradientUnits="userSpaceOnUse">
      <stop offset="0" stop-color="#4f586a"/>
      <stop offset=".78" stop-color="#3a1a18"/>
    </linearGradient>
    <linearGradient id="Adsız_degrade_147" data-name="Adsız degrade 147" x1="225.75" y1="48.38" x2="235.42" y2="118.05" gradientUnits="userSpaceOnUse">
      <stop offset="0" stop-color="#413643"/>
      <stop offset=".77" stop-color="#3a1a18"/>
    </linearGradient>
  </defs>
  <g id="katman_2-2" data-name="katman 2">
    <g id="_Üretken_Nesne" data-name="Üretken Nesne">
      <g>
        <path class="cls-57" d="M386.18,272.43l-385.92-.37c-.22-8.13-.45-17.72,0-25.78h385c.96-.43,1.07-4.74-.92-4.42l.74-.37s.9-.07,1.1.55c-.22,10.11.29,20.28,0,30.38Z"/>
        <path class="cls-51" d="M386.18,272.43c-.03,1.07.19,7.1-.18,7.36H.44c-.37-.27-.15-6.63-.18-7.73l385.92.37Z"/>
        <path class="cls-65" d="M383.61,240.39l-380.95.74.55-1.84c8.13-7.67,19.14-14.24,27.62-21.73.03,2.57-.06,5.16,0,7.73-1.65,2.39-7.67,10.19-2.76,11.42h330.32c5.38-1.26-.89-7.75-2.03-10.68.08-2.93-.03-5.9,0-8.84,8.51,8.2,18.74,15.09,27.25,23.2Z"/>
        <path class="cls-65" d="M384.34,241.87c1.99-.32,1.88,3.99.92,4.42H.26c.08-1.51-.36-3.44.37-4.79l383.72.37Z"/>
        <path class="cls-57" d="M383.61,240.39c.42.4,1.09.62,1.47,1.1l-.74.37-383.72-.37c.81-.76,1.77-1.45,2.58-2.21l-.55,1.84,380.95-.74Z"/>
      </g>
      <g>
        <path class="cls-47" d="M138.35,23.13c-.07.35-.25,1.25-.37,1.47-.01.02-.11-.06-.37.37l-75.31-.37c-.73.31-1.8,1.22-2.39,1.47-4.46,1.86-10.05,5.59-14.36,8.1s-8.32,4.79-12.34,7.36c31.12.11,62.24-.15,93.35,0-.1.65-.18,1.21-.37,1.84l-65.92.37c-.41,0-.6-1.18-.92-1.1-.38.09.1,1.1-.55,1.1h-26.51l-.37,191.86c-1.76-.71-1.06-8.37-1.1-10.31-.06-2.57.03-5.16,0-7.73-.69-58.71.51-117.48,0-176.21l30.75-18.23c25.59.01,51.19-.02,76.78,0Z"/>
        <path class="cls-70" d="M126.2,43.38c-.1.34-.25.77-.37,1.1-1.95,5.42-3.88,10.67-5.52,16.2l-60.02-.37c.13-5.51-.1-11.06,0-16.57l65.92-.37Z"/>
        <path class="cls-27" d="M137.62,24.97c-2.25,3.74-5.51,7.01-7.36,11.05-.12,0-.25,0-.37,0-23.04-.03-46.18-.47-69.23-.74l-.74-9.21c.6-.25,1.67-1.16,2.39-1.47l75.31.37Z"/>
        <path class="cls-56" d="M60.65,35.28c23.05.27,46.19.71,69.23.74l-2.95,5.52c-.12,0-.25,0-.37,0-31.11-.15-62.24.11-93.35,0,4.02-2.58,8.21-4.96,12.34-7.36,1.17.98,4.91,1.04,6.44,1.1,2.87.11,5.78-.03,8.65,0Z"/>
        <path class="cls-84" d="M59.92,26.07l.74,9.21c-2.87-.03-5.78.11-8.65,0-1.54-.06-5.28-.12-6.44-1.1,4.32-2.52,9.9-6.24,14.36-8.1Z"/>
        <path class="cls-70" d="M278.66,43.01c.24,0,.49,0,.74,0,15.52-.06,31.06.04,46.58,0,.38,5.76.13,11.55.18,17.31h-65.55c-1.59-5.15-2.94-10.4-4.79-15.47.12-.76-.45-1.41.55-1.84,1.12-.48,19.28.01,22.28,0Z"/>
        <path class="cls-27" d="M326.53,25.71c-1.73,2.97.11,6.39-.74,9.57-24.42.28-48.87.07-73.28.74-1.62-3.54-3.06-7.23-5.52-10.31,0-.12-.02-.26,0-.37.05-.22-.02-.5,0-.74h75.68c1.52.24,2.5.65,3.87,1.1Z"/>
        <path class="cls-56" d="M342.36,34.54l11.23,7c-32.59.18-65.19-.24-97.77,0-.24,0-.49,0-.74,0-.73-1.75-1.8-3.44-2.58-5.16-.05-.1.05-.27,0-.37,24.41-.66,48.86-.46,73.28-.74,5.53-.06,11.1.02,16.57-.74Z"/>
        <path class="cls-84" d="M355.25,235.61c-.28.11-1.03-.05-1.47,0-4.96-7.4-11.45-13.68-16.94-20.62-3.14-3.97-6.35-7.96-9.21-12.15-.04-.6.06-1.24,0-1.84l25.78,30.75-.74-174c.76-.92,1.3-2.12,2.21-2.95.75,60.19.16,120.54.37,180.81Z"/>
        <path class="cls-84" d="M354.88,54.8c-.91.82-1.45,2.02-2.21,2.95-8.1,9.86-16.99,19.17-25.04,29.09-.13-5.5,0-11.06,0-16.57,0-.12,0-.25,0-.37l26.88-26.88c.68.52.35,10.15.37,11.78Z"/>
        <path class="cls-70" d="M353.41,43.01c.35.06.75-.03,1.1,0l-26.88,26.88c0-8.77-.37-17.53-.37-26.33.53-1.2,24.18-.88,26.15-.55Z"/>
        <path class="cls-48" d="M353.41,43.01c-1.97-.33-25.62-.64-26.15.55,0,8.8.36,17.56.37,26.33,0,.12,0,.25,0,.37l-1.47,1.1c-.02-3.68.03-7.37,0-11.05-.05-5.76.19-11.55-.18-17.31-15.53.04-31.06-.06-46.58,0h74.02Z"/>
        <path class="cls-84" d="M342.36,34.54c-5.47.76-11.04.67-16.57.74.84-3.18-.99-6.61.74-9.57,5.1,1.71,10.83,6.54,15.83,8.84Z"/>
        <g>
          <path class="cls-84" d="M34.14,45.96v87.46c5.28-10.23,10.26-20.65,15.47-30.93,1.9-3.75,7.79-12.27,8.84-15.28l.37,58.55c-.2.4-.3.98-.37,1.1-5.68,10.4-21.41,35.1-23.94,45.11-1.38,5.46.56,11.78-.74,17.31l24.3-46.03c1.19-.56.71,1.92.74,2.39.04.61-.01,1.23,0,1.84-.86-.12-1.13.69-1.47,1.29-4.55,7.95-22.84,40.83-23.57,47.5-.17,1.58-.29,12.28,0,13.26.24.81.44.39.92.92l24.12-27.62c.04.69-.45.83-.37,1.47l-25.78,31.3c-.23-.04-.58.06-.74,0l.37-191.86c1.03.16,1.54,1.88,1.84,2.21Z"/>
          <path class="cls-14" d="M58.81,43.75c-.11,9.2.15,18.42,0,27.62-8.49-8.14-16.73-16.75-24.67-25.41-.3-.33-.81-2.05-1.84-2.21h26.51Z"/>
          <path class="cls-87" d="M60.28,43.75c-.1,5.51.13,11.06,0,16.57-.21,8.73-.3,17.41-.37,26.15h-1.1c.69-2.99-.06-11.36,0-15.1.15-9.2-.11-18.42,0-27.62.65,0,.17-1.01.55-1.1.32-.08.51,1.11.92,1.1Z"/>
          <path class="cls-70" d="M58.81,71.37c-.06,3.74.69,12.1,0,15.1,0,.04-.18.19-.37.74-1.04,3.01-6.94,11.53-8.84,15.28-5.2,10.28-10.18,20.7-15.47,30.93V45.96c7.94,8.66,16.18,17.27,24.67,25.41Z"/>
          <path class="cls-14" d="M58.81,167.48c.23,9.31-.17,18.67,0,27.99-5.82,5.86-.21,3.47,0,7.36l-24.12,27.62c-.48-.53-.68-.11-.92-.92-.29-.97-.17-11.68,0-13.26.73-6.68,19.02-39.56,23.57-47.5.34-.6.62-1.41,1.47-1.29Z"/>
          <path class="cls-14" d="M59.92,160.85c0,1.22,0,2.48,0,3.68l-1.1,1.1c-.03-.48.46-2.96-.74-2.39l-24.3,46.03c1.29-5.53-.64-11.85.74-17.31,2.52-10.01,18.26-34.71,23.94-45.11v14.91l1.47-.92Z"/>
          <path class="cls-87" d="M59.92,160.85l-1.47.92v-14.91c.07-.12.16-.71.37-1.1.28-.55.38-1.83,1.1-2.21.02,5.76-.03,11.54,0,17.31Z"/>
        </g>
        <path class="cls-14" d="M327.63,200.99c-1.26-11.84-.1-28.87,0-41.24.07-8.68-1.13-21.98,0-30.01.85-5.98,8.56-16.77,5.16-23.38-1.94-3.76-3.49.61-4.79,2.95l-.74-21.73c.06-.06.29-.64.37-.74,8.06-9.92,16.94-19.23,25.04-29.09l.74,174-25.78-30.75Z"/>
        <path class="cls-64" d="M327.63,200.99c.06.6-.04,1.24,0,1.84-1.84,0-3.69,0-5.52,0,.71-1.84,4.08-.37,4.42-1.29.46-1.22.02-14.58,0-17.12-.03-3.39-.22-6.92-.37-10.31.35-1.97,1.07-5.8-.37-7.36.69-2.09,1.35-4.5,1.84-7-.1,12.37-1.26,29.41,0,41.24Z"/>
        <path class="cls-9" d="M327.63,86.83c-.08.1-.31.67-.37.74-.03.04-.57.33-.74.37,0-5.47-.34-11.07-.37-16.57l1.47-1.1c0,5.52-.13,11.07,0,16.57Z"/>
        <path class="cls-73" d="M219.74,205.04c-.06.09-.71,1.74-.74,1.84-.59.44-1.33.96-1.84,1.47-8.43.88-16.96.22-25.41,0-1.52-.04-3.64-.71-4.97-.74-11.07-.22-21.32.41-32.22,2.21-2.1-2.04-2.48-2.74-5.52-3.31.28-.58-.42-1.34-.37-1.47.01-.02.43.06.37-.37l70.7.37Z"/>
        <path class="cls-87" d="M328,109.3c-.48.87-1.5,2.84-1.84,3.68-.4-8.33.37-16.74.37-25.04.16-.04.7-.33.74-.37l.74,21.73Z"/>
        <g>
          <path class="cls-29" d="M138.72,211.3c1.14,1.4,2.94.83,4.6,1.47,3.16,1.22,9.14,3.7,10.13,7.36.19.69.1,1.67.37,2.39-6.93,5.8-19.76,4.1-27.99,1.66-.12-.6.18-1.76,0-2.21,1.61-1.61,3.52-2.35,5.52-3.31,2.45-1.18,3.3.31,2.95-3.5-.24-2.55-2.78-4.53-2.95-4.97-.5-1.29-.43-4.33-.74-5.89,1.41-.19,1.28,1.9,1.66,2.21.74.61,2.82-.28,3.68,0,1.24.41,2.12,4,2.76,4.79Z"/>
          <path class="cls-88" d="M149.03,206.52c3.05.57,3.42,1.28,5.52,3.31,4.51,4.37,5.85,7.62-1.1,10.31-.98-3.66-6.97-6.15-10.13-7.36-1.67-.64-3.46-.07-4.6-1.47.66-.46.88-1.92,1.1-2.21,2.29-3.04,5.66-3.24,9.21-2.58Z"/>
          <path class="cls-68" d="M122.15,215.72c.29.22,3.54,5.9,3.68,6.26.18.45-.12,1.61,0,2.21-1.45-.43-2.36-1.25-3.68-1.84l-4.42-7c1.53-.36,2.53-1.12,4.42.37Z"/>
          <path class="cls-29" d="M117.73,215.35l4.42,7c-1.68-.75-4.46-.18-5.89-2.76-1.03-1.86-.4-2.76-.74-4.23.67-.1,1.61.14,2.21,0Z"/>
          <path class="cls-80" d="M137.25,199.52c-.22,1.28,1.2,2.53,1.47,3.5.16.58-.75,1.04-.74,1.1.05.23,1.07.89,1.1,1.1.19,1.22-1.2-.32.37,2.76.13.26-.29,1.08.37,1.1-.22.29-.44,1.75-1.1,2.21-.64-.79-1.52-4.38-2.76-4.79-.86-.28-2.94.61-3.68,0-.37-.31-.25-2.4-1.66-2.21-.42.06-.33-.32-.37-.37,1.67-2.83,3.21-5.67,7-4.42Z"/>
          <path class="cls-34" d="M115.15,211.67c-.11-.94-1.54-1.98-1.1-3.5.6-2.11,5.72-2.06,6.63-3.13h.37c-.31,2.45,1.11,4.68,2.21,6.81-1.94.25-2.32-1.87-4.97-.92l1.84-1.1-.37-.74c-2.5-.35-3.48.57-4.6,2.58Z"/>
          <path class="cls-18" d="M148.66,205.04c-.06.13.64.89.37,1.47-3.54-.66-6.92-.47-9.21,2.58-.66-.02-.24-.85-.37-1.1.59-.75,1.46-2.44,1.47-3.31l7.73.37Z"/>
          <path class="cls-54" d="M140.93,204.67c-.01.87-.88,2.57-1.47,3.31-1.56-3.08-.17-1.54-.37-2.76-.03-.21-1.06-.88-1.1-1.1-.01-.07.9-.53.74-1.1-.27-.97-1.7-2.21-1.47-3.5,1.93.64,3.71,3.2,3.68,5.16Z"/>
          <path class="cls-79" d="M129.88,211.3c1.24,2.4.73,4.91,1.47,7.36-2,.97-3.91,1.71-5.52,3.31-.14-.36-3.4-6.04-3.68-6.26,2.51-.52.95-2.01,1.47-3.87.43-1.52,2.31-.58.55-3.87,5.29-.47,2.62,1.45,2.76,1.66.33.48,1.78-.59,2.95,1.66Z"/>
          <path class="cls-71" d="M131.36,218.67c-.74-2.46-.24-4.97-1.47-7.36l1.47-1.1c.17.44,2.71,2.42,2.95,4.97.35,3.81-.5,2.32-2.95,3.5Z"/>
          <g>
            <path class="cls-86" d="M130.25,203.94s-.05.43.37.37c.31,1.56.24,4.6.74,5.89l-1.47,1.1c-1.16-2.25-2.62-1.17-2.95-1.66-.14-.21,2.53-2.13-2.76-1.66,1.75,3.29-.13,2.35-.55,3.87-.52,1.86,1.04,3.35-1.47,3.87-1.89-1.49-2.89-.73-4.42-.37-.6.14-1.53-.1-2.21,0-.2-.88-.25-1.35-.37-2.21-.07-.47.06-1,0-1.47,1.13-2.01,2.1-2.93,4.6-2.58l.37.74-1.84,1.1c2.65-.95,3.03,1.17,4.97.92-1.1-2.13-2.52-4.37-2.21-6.81.39-3.09,4.69-5.55,7.55-4.42.72.29.88,2.34,1.66,3.31Z"/>
            <path class="cls-62" d="M125.65,202.1c.64-.36,3.53,6.41-.74,5.16-2.77-.82.05-1.1.18-1.29.4-.54-1.09-1.03-1.1-1.1-.03-.16,2.05-1.63,1.66-2.76Z"/>
          </g>
        </g>
        <g>
          <path class="cls-2" d="M102.63,204.31c-.42.05-7.26,2.6-7.92,2.95-2.31,1.22-3.38,2.64-4.6,4.79-1.71,2.99-2.23,5.8-2.58,9.21-.09.88.24,1.77-.37,2.58-4.03.37-8.93.99-13.26.74-.73-1.38-.93-.21-1.47-2.21-1-3.66-.9-4.35-2.58-8.1-.21-.47-.39-1.93-.74-2.58,2,.41,5.11,7.07,5.52,9.02.29,1.34-2.12,2.75,2.03,3.13.1-4.78-1.72-7.86.92-12.34.52-.88.92.14,1.47-.74,1.09-1.74,2.06-3.95,3.68-5.34-.66,3.23-4.13,6.33-4.79,9.39-.09.43-.43,3.91.74,3.87-.35,2.28-.5,3.51,2.39,2.95,2.52-.49,5.22-8.54,6.44-11.05,2.33-1.06,3.01-3.31,5.34-4.79.52-.33,5.57-2.6,5.89-2.58.27.02,2.44,3.21,3.87-.37.12.34-.08,1.04,0,1.47Z"/>
          <path class="cls-2" d="M102.26,196.2c-1.63,1.56-3.59,2.49-4.79,4.6.29.38,4.3-.36,5.16,2.03-1.42,3.58-3.59.39-3.87.37-.32-.02-5.37,2.25-5.89,2.58-2.33,1.47-3.01,3.73-5.34,4.79.42-.87.74-3.29,1.1-3.87,1.34-2.14,4.94-2.94,6.81-4.6,2.21-1.96,1.65-4.29,4.79-5.89.09-.05,2.36-1.06,2.03,0Z"/>
          <path class="cls-60" d="M78.7,218.67c-1.17.05-.83-3.44-.74-3.87.65-3.06,4.12-6.16,4.79-9.39.93,4.72-3.38,8.85-4.05,13.26Z"/>
          <g>
            <path class="cls-2" d="M87.53,192.89c-4.26,1.56-4.79,9.05-2.39,9.94.24.09,4.92-.26,5.16-.37.19-.09,1.29-2.64,2.58-3.31,2.09-1.09,5.38,1.36,1.66-5.16.32-3.34-.59-7.3,4.23-7.36,1.92,2.78-1.54,2.14-1.29,4.6.45,4.51,5.99-.28,6.63,2.21.56,2.17-1.12,2.07-1.84,2.76.33-1.06-1.94-.05-2.03,0-3.14,1.6-2.58,3.93-4.79,5.89-1.88,1.66-5.48,2.47-6.81,4.6-.36.58-.68,3-1.1,3.87-1.23,2.51-3.92,10.55-6.44,11.05-2.9.57-2.74-.67-2.39-2.95.67-4.41,4.98-8.54,4.05-13.26-1.62,1.39-2.59,3.6-3.68,5.34-.55.87-.96-.14-1.47.74-2.64,4.48-.82,7.56-.92,12.34-4.15-.38-1.74-1.79-2.03-3.13-.42-1.95-3.52-8.61-5.52-9.02-.11-.02-.25,0-.37,0-1.38-3.87-7.86-3.28-10.31-7.36-.09-.64.41-.78.37-1.47-.21-3.89-5.82-1.51,0-7.36.46-.47,1.26-.74,1.47-1.47.05.06,1.08-.24,1.47.55.5,1,2.77,8.07,4.23,7.55,3.37-5.54-1.96-6.96-3.13-11.23l3.87.92c1.28-1.46,1.52-3.18.92-4.97.93-2.53,4.58,3.19,4.79,4.79.58,4.52-2.59,6.3-1.1,12.34,1.39,5.67,4.36,7.39,3.68-.37-.21-2.37-.09-.66-1.1-1.84l.37-.74c7.44,1.96,2.26-5.03,2.03-6.26-.61-3.17,4.05,2.94,4.23,3.87.09.46-2.33,11.62.74,5.52,3.23-6.42-7.42-16.99.18-20.44,3.56-1.61.36,2.85.92,4.97.96,3.65,3,.13,3.5-.18.4-.25,1.55.48,2.39-.55,1-1.23-.27-3.35-1.1-4.42,2.66-2.69,4.66,3.1,4.05,5.52-.2.78-3.01,3.14-3.68,3.87Z"/>
            <path class="cls-18" d="M75.01,203.57c.68,7.76-2.29,6.03-3.68.37l3.68-.37Z"/>
            <path class="cls-18" d="M61.57,202.83c.67.29,5.41,4.59,4.42,5.16-2.93-.28-5.26-2.26-4.42-5.16Z"/>
            <path class="cls-17" d="M60.47,203.94c.24-.03.88,1.04.37,1.1-.24.03-.88-1.04-.37-1.1Z"/>
          </g>
          <g>
            <path class="cls-69" d="M91.95,192.15l1.47,6.44c1.36-.06.94-1.32,1.1-2.03.29-1.24,0-1.05,0-1.1.02-.36-.03-.74,0-1.1.01-.12-.01-.25,0-.37,3.72,6.51.43,4.06-1.66,5.16-1.29.67-2.39,3.23-2.58,3.31-.24.11-4.91.46-5.16.37-2.4-.89-1.86-8.38,2.39-9.94.26-.09,4.2-.78,4.42-.74Z"/>
            <g>
              <path class="cls-83" d="M94.53,194.36c-.03.36.02.74,0,1.1v1.1c-.16.7.26,1.97-1.1,2.03l-1.47-6.44c1.38.26,1.62,1.57,2.58,2.21Z"/>
              <path class="cls-74" d="M90.3,196.2c1.09,1.16-.09,3.37,0,4.79-.27,0-.31-4.22,0-4.79Z"/>
              <path class="cls-102" d="M86.61,195.47c.39,0,1.32,1.44.37,1.47-.88.03-.99-1.47-.37-1.47Z"/>
              <path class="cls-44" d="M89.19,196.57c.61.76.36,1.34,0,2.21-.27-.05-.32-2.05,0-2.21Z"/>
              <path class="cls-1" d="M94.53,196.57v-1.1c0,.06.29-.14,0,1.1Z"/>
            </g>
          </g>
        </g>
        <g>
          <path class="cls-36" d="M325.79,184.42c-2.58,6.13-5.74,11.99-8.47,18.04-1.88,4.17-3.51,8.25-5.16,12.52-.42,1.1-.99,2.23-1.47,3.31-.02.01-.02.12-.37.37-.78-.09-1.49-.46-2.21-.74l15.1-32.22c.44-.52,1.94-1.13,2.58-1.29Z"/>
          <g>
            <path class="cls-37" d="M321.74,223.82c.07.2.34,1.28.37,1.47-5.19,3.13-11,1.75-16.57,1.84.09-1.72,1.62-4.16,2.58-5.52.29-.41,2.06-2.84,2.21-2.95.35-.25.35-.36.37-.37,4.73-2.72,9.56.95,11.05,5.52Z"/>
            <path class="cls-52" d="M308.11,221.61c-.95,1.37-2.49,3.8-2.58,5.52-2.9.05-5.37.05-8.1,0-.12,0-.25,0-.37,0,.52-6.2,5.71-8.16,11.05-5.52Z"/>
            <path class="cls-16" d="M322.11,225.3c.1.7-.07,1.49,0,2.21-1.69.36-3.58,1.34-5.34,1.47-5.39.41-14.91.91-19.33-1.84,2.73.05,5.21.05,8.1,0,5.57-.09,11.39,1.29,16.57-1.84Z"/>
          </g>
          <path class="cls-24" d="M309.96,186.26c-.28,3.11-.75,5.81-1.47,8.84-.8,3.37-1.98,6.77-3.68,9.76l-.37-.92c.48-2.13.63-5.48.74-7.73,1.11.16.72-.98.74-1.66.73-25.15-11.52-47.09-4.79-72.91,1.12-4.31,3.62-8.32,4.42-12.7,1.42-2.86,3.04-5.6,4.42-8.47.44-.11.89-.74,1.47-.18.19,10.42-4.28,20.2-5.89,30.2-2.85,17.67,6.17,36.08,4.42,55.79Z"/>
          <path class="cls-36" d="M305.54,108.93c-14.66,29.58-4.34,38.61-2.58,66.65.43,6.83.26,15.56,0,22.46-1.43.11-.89,3.89-1.1,4.97-.09.44-1.07.57-1.1.74-.07.29.63,1.27.37,2.21-.73,2.58-1.38,5.03-3.68,6.63.3-1.67.82-3.31,1.1-4.97.09-.5-.04-2.49,0-2.76.04-.3.66.04.74-.55,2.09-16.68-.64-32.47-5.89-48.24,2.33-2.54,2.06-4.95-1.84-5.16.09-.17-.06-.79,0-1.1,1.2-1.21,3.11-2.69,2.21-4.23-.64-1.1-1.73-.83-1.84-.92-2.38-11.07.31-26.13,7.36-35.17,1.56-2,8.46-8.46,10.68-9.02-1.38,2.87-3,5.61-4.42,8.47Z"/>
          <path class="cls-53" d="M322.48,173.37c-1.6,4.11-2.79,8.62-4.42,12.89-3.94,10.28-8.05,20.46-11.42,30.93-4.97-1.2-4.97-.4-8.65,1.84-.25.15-1.47-.14-1.66,0-.39.02-1.04-.72-1.1-.74.16-2.92.85-6.05,1.1-9.21.07-.86.33-1.57.37-2.21l1.84.74c-.28,1.66-.8,3.31-1.1,4.97,2.3-1.6,2.95-4.04,3.68-6.63.27-.94-.43-1.91-.37-2.21.04-.16,1.02-.3,1.1-.74.22-1.08-.32-4.86,1.1-4.97-.15,3.9-.96,7.7-1.1,11.6,1.3-1.28,2.17-3.9,2.58-5.71l.37.92c1.7-2.99,2.88-6.39,3.68-9.76.61.08,1.22-1.36,1.47-1.84l-4.97,14.73c7.15-10.56,12.17-23.62,12.7-36.46.67.3.41.58,1.1,0,1.41-1.17,3.36-11.33,3.68-13.63,3.11,3.95-2.19,11,0,15.47Z"/>
          <path class="cls-82" d="M332.79,106.35l-6.63,23.02c.04,10.59,1.96,23.37,0,33.14-.32,1.62-2.79,5.76-3.31,7.73-.02.07.17,1.61.74,1.29-.35.91-.93,1.4-1.1,1.84-2.19-4.47,3.11-11.52,0-15.47,2.22-15.95-2.61-29.28,3.68-44.93.34-.84,1.36-2.82,1.84-3.68,1.29-2.34,2.85-6.71,4.79-2.95Z"/>
          <path class="cls-36" d="M315.85,161.22c.48,8.46-2.01,24.47-5.89,32.04-.25.48-.86,1.93-1.47,1.84.72-3.03,1.2-5.72,1.47-8.84,1.18-4.38,2.62-10.06,2.95-14.55,1.17-16.06-6.05-33.74,3.31-48.06-4.45,11.89-1.07,25.22-.37,37.56Z"/>
          <path class="cls-82" d="M318.79,171.53c-.69.58-.43.3-1.1,0,.19-4.47-.75-8.94-.37-13.44l-1.47,3.13c-.7-12.34-4.08-25.67.37-37.56.68-1.05,1.47-3.25,2.95-3.5-4.95,16.62,1.45,34.37-.37,51.37Z"/>
          <path class="cls-36" d="M286.02,100.46c4.32,6.98,4.97,16.84,4.05,24.86-.19,1.62-2.61,12.37-3.31,13.07-.49.49-3.09.94-4.05,1.47,1.98-5.05,4.48-10.9,4.79-16.39.4-7.21-1.85-14.5-2.58-21.36-.11-1.08-.42-2.37,1.1-1.66Z"/>
          <path class="cls-36" d="M286.02,100.46c-1.52-.71-1.22.58-1.1,1.66.73,6.86,2.98,14.15,2.58,21.36-.3,5.49-2.8,11.33-4.79,16.39-.67.37-1.5.83-2.21,1.1.45-3.85,1.38-7.64,2.21-11.42.63-2.88,1.94-6.09,2.21-9.02.7-7.66-1.23-15.23-1.84-22.83.34-1.58,2.64,2.27,2.95,2.76Z"/>
          <path class="cls-36" d="M281.23,128.82l-4.05,13.63c-1.38.35-3.89.16-4.79.37.48-2.08,7.42-13.98,8.84-13.99Z"/>
          <path class="cls-84" d="M282.71,129.55c-.83,3.77-1.76,7.57-2.21,11.42-1.11.43-.85.85-3.31,1.47l4.05-13.63c.31,0,1.06.66,1.47.74Z"/>
          <path class="cls-36" d="M332.79,106.35c3.41,6.61-4.31,17.4-5.16,23.38-1.13,8.03.07,21.33,0,30.01-.49,2.5-1.15,4.9-1.84,7-.78,2.34-1.6,3.21-2.21,4.79-.57.32-.76-1.22-.74-1.29.52-1.97,2.99-6.12,3.31-7.73,1.96-9.78.04-22.56,0-33.14l6.63-23.02Z"/>
          <path class="cls-36" d="M326.53,184.42c-.24.02-.53-.05-.74,0-.63.16-2.14.77-2.58,1.29l-15.1,32.22c-.65-.25-1.17-.66-1.47-.74,3.36-10.48,7.48-20.65,11.42-30.93,3.8-3.41,7.19-6.93,8.1-12.15.14,3.39.34,6.92.37,10.31Z"/>
          <path class="cls-70" d="M326.16,174.11c-.92,5.22-4.3,8.74-8.1,12.15,1.63-4.26,2.82-8.78,4.42-12.89.17-.44.75-.93,1.1-1.84.61-1.58,1.43-2.45,2.21-4.79,1.44,1.57.71,5.39.37,7.36Z"/>
          <path class="cls-36" d="M274.6,166.38c1.92,6.66,8.93,7.17,13.07,10.31,5.34,4.05,7.02,13.41,7.55,19.7.33,3.93-1.08,9.74,1.1,12.7-.25,3.16-.95,6.28-1.1,9.21-.39-.08-2.21-.09-2.58,0l-2.58-2.21c.26-1.16.21-3.16.37-4.42.08-.59-.06-1.24,0-1.84.16-1.72.34-3.42.37-5.16.09-6.51.04-15.23-2.95-21.17s-12.87-9.53-14.36-17.12c.27-.1.8.09,1.1,0Z"/>
          <g>
            <path class="cls-49" d="M292.65,218.3c-2.91.7-5.21,7.11-2.03,8.1,4.38,1.36,2.64-5.01,5.71-7.36.19-.14,1.41.15,1.66,0,3.69-2.24,3.68-3.04,8.65-1.84.3.07.82.49,1.47.74.72.27,1.43.65,2.21.74-.15.11-1.92,2.53-2.21,2.95-5.33-2.64-10.53-.68-11.05,5.52-3.2-.06-11.59.88-13.81.37-.39-.09-1.05-.66-1.29-1.1,1.22-1.24,3.22.05,4.79-1.66,1.04-1.13,1.35-5.38,1.84-7,.1-.34.97-.7,1.1-1.29.12-.51.36-.34.37-.37l2.58,2.21Z"/>
            <path class="cls-23" d="M289.7,216.46c-.14.59-1,.95-1.1,1.29-.49,1.62-.8,5.86-1.84,7-1.57,1.71-3.57.42-4.79,1.66-1.69-3.07,2.38-8.44,5.16-9.94.84-.05,1.83-.29,2.58,0Z"/>
            <path class="cls-23" d="M295.23,218.3c.06.01.71.76,1.1.74-3.07,2.36-1.32,8.72-5.71,7.36-3.19-.99-.89-7.4,2.03-8.1.37-.09,2.18-.08,2.58,0Z"/>
          </g>
          <path class="cls-63" d="M305.17,196.2c.19-4.07.05-9.01-.37-13.07-.22-2.12-.67-5.74-1.84-7.55-1.77-28.04-12.08-37.08,2.58-66.65-.8,4.38-3.3,8.4-4.42,12.7-6.73,25.82,5.51,47.76,4.79,72.91-.02.67.37,1.82-.74,1.66Z"/>
          <path class="cls-33" d="M305.17,196.2c-.11,2.25-.26,5.6-.74,7.73-.4,1.8-1.28,4.42-2.58,5.71.14-3.9.96-7.7,1.1-11.6.26-6.9.43-15.63,0-22.46,1.17,1.81,1.62,5.43,1.84,7.55.42,4.06.56,9,.37,13.07Z"/>
          <path class="cls-82" d="M280.5,164.54c2.22,3.66,5.67,6.14,8.47,9.21,7.95,9.7,8.4,21,7.73,33.14-.04.64-.3,1.34-.37,2.21-2.19-2.96-.77-8.77-1.1-12.7-.53-6.29-2.21-15.65-7.55-19.7-4.15-3.15-11.15-3.65-13.07-10.31,2.21-.64,3.63-.78,5.89-1.84Z"/>
          <path class="cls-36" d="M299.28,204.31c-.07.59-.69.25-.74.55-.04.27.09,2.26,0,2.76l-1.84-.74c.67-12.14.22-23.44-7.73-33.14,1.64,1.8,3.75,3.29,5.16,5.34,5.48,7.96,4.41,16.05,5.16,25.23Z"/>
          <path class="cls-91" d="M317.69,171.53c-.54,12.84-5.56,25.9-12.7,36.46l4.97-14.73c3.89-7.57,6.37-23.57,5.89-32.04l1.47-3.13c-.38,4.5.55,8.98.37,13.44Z"/>
        </g>
        <g>
          <path class="cls-5" d="M326.16,60.32c.03,3.68-.02,7.37,0,11.05.03,5.5.37,11.1.37,16.57,0,8.3-.76,16.71-.37,25.04-6.29,15.65-1.46,28.98-3.68,44.93-.32,2.29-2.27,12.45-3.68,13.63,1.82-17-4.58-34.75.37-51.37-1.48.25-2.26,2.45-2.95,3.5-9.36,14.32-2.14,32-3.31,48.06-.33,4.48-1.77,10.16-2.95,14.55,1.75-19.71-7.27-38.12-4.42-55.79,1.61-9.99,6.08-19.78,5.89-30.2-.58-.56-1.03.07-1.47.18-2.21.56-9.12,7.03-10.68,9.02-7.06,9.04-9.75,24.1-7.36,35.17-.12-.09-.73.19-1.1-.18-.57-.57-.33-3.81-2.95-3.13.04-.09-.02-.24,0-.37.14-.78.06-2.63-1.1-2.58.71-.71,3.13-11.46,3.31-13.07.92-8.01.27-17.88-4.05-24.86-.3-.49-2.61-4.34-2.95-2.76.61,7.6,2.54,15.17,1.84,22.83-.27,2.93-1.58,6.14-2.21,9.02-.41-.08-1.16-.74-1.47-.74-1.42.01-8.36,11.91-8.84,13.99-7.79,1.83-4.55,12.27-8.47,15.1-2.24,1.62-12.47,2.95-15.83,3.68-.12.03-.25-.03-.37,0l-24.49-30.56c-.89-.59-3.18-.73-3.87-1.1-.42-.22-.68-.53-1.1-.74-1.09-.53-2.23-.9-3.31-1.47-.67-.36-2.54-1.69-3.31-2.21,10.76-.46,22.6-2.54,28.91-12.15l-2.58,4.42c10.94-2.71,16.43-12.82,18.41-23.2.7,7.58-2.72,14.52-6.44,20.81,23.52-10.97,16.75-35.36,10.68-55.05h65.55Z"/>
          <path class="cls-32" d="M164.5,130.29c-.9,8.67-2.49,17.74-4.42,26.33s-4.53,16.35-7,24.49h-1.47c.99-8.73-5.57-16.81-14.36-17.68,3.56-7.2,20.75-29.61,27.25-33.14Z"/>
          <path class="cls-32" d="M169.29,155.7c-4.34,9.67-8.71,19.45-15.83,27.43,6.5-17.09,8.82-35.32,12.15-53.21,1.09-.55,2.23-.94,3.31-1.47.84,8.44,1.47,18.77.37,27.25Z"/>
          <g>
            <path class="cls-32" d="M119.94,159.38c2.88,2.76,14.45,4.86,18.96,6.63,1.88.74,3.64,2.23,5.71,2.58,4.09,3.41,7.81,8.07,4.42,13.44-7.54,11.94-24.56-3.59-31.67-9.21.87-.84,7.81-10.07,6.44-10.86-2.98,4.31-4.65,8.54-9.39,11.42-1.21-1.29-2.45-2.59-3.68-3.87.36-.2.52-.66.74-.92,2.49-2.95,6.44-5.49,8.47-9.21Z"/>
            <path class="cls-103" d="M144.61,168.59c-2.32-1.93-4.7-3.98-7.92-4.42-.68-.88.53-.7.55-.74,8.79.86,15.35,8.95,14.36,17.68-.4,3.54-4.28,8.27-7.92,8.84-8.97,1.4-23.38-10.25-29.28-16.57,4.74-2.88,6.41-7.11,9.39-11.42,1.37.79-5.57,10.02-6.44,10.86,7.11,5.61,24.13,21.15,31.67,9.21,3.39-5.37-.33-10.04-4.42-13.44Z"/>
          </g>
          <path class="cls-61" d="M165.6,129.92c-3.34,17.89-5.65,36.12-12.15,53.21,7.12-7.98,11.5-17.77,15.83-27.43-1.74,13.38-9.15,21.58-16.2,32.04-.32.48-.58.55-1.1,1.47-.3-.01-.61,0-.92,0-.42-.39,1.67-6.94,2.03-8.1,2.47-8.14,5.12-16.13,7-24.49s3.52-17.66,4.42-26.33c.43-.23.93-.28,1.1-.37Z"/>
          <path class="cls-32" d="M182.54,125.5c0,.12,0,.25,0,.37.17,2.28.59,4.16,1.47,6.26.23.54.8,2.21,1.1,2.58l-7.36,4.42c-.73-.09-1.21-.43-1.84-.74,0-3.79-2.87-9.78.37-11.05,1.53.74,3.1,1.4,4.6,2.21.19-.14-.11-3.48-.18-3.68l1.84-.37Z"/>
          <path class="cls-32" d="M247.72,161.59c-2.98.66-3.99.11-7.18,1.84-5.75,3.12-10.55,10.69-7.92,17.31-.57-.67-2.39-2.38-3.31-2.58-4.43-15.83-7.85-31.91-9.94-48.24.69.37,2.97.51,3.87,1.1l24.49,30.56Z"/>
          <path class="cls-32" d="M218.26,129.18c2.72,12.6,4.15,25.54,7,38.11,1.24,5.48,3.16,10.89,4.42,16.39l-16.2-29.46c-.48-8.63.72-17.9,1.47-26.51,1.08.57,2.23.95,3.31,1.47Z"/>
          <path class="cls-103" d="M247.72,161.59c.12-.03.25.03.37,0-3.16,1.42-6.51,2.48-9.21,4.79-4.12,3.53-6.82,8.41-3.68,13.44,6.34,10.17,22.51-.68,28.54-6.44,4.19-4.01-.55-2.15-1.1-6.63l6.08,5.16c-6.27,5.99-19.22,17.76-28.54,15.47-3.73-.92-5.47-4.18-7.55-6.63-2.63-6.62,2.17-14.19,7.92-17.31,3.19-1.73,4.2-1.18,7.18-1.84Z"/>
          <path class="cls-61" d="M219.37,129.92c2.09,16.33,5.51,32.41,9.94,48.24,1.2,4.29,2.94,8.49,3.68,12.89-1.33-.77-2.1-2.68-2.95-3.68.81-1.66-.03-2.22-.37-3.68-1.26-5.5-3.18-10.91-4.42-16.39-2.84-12.57-4.28-25.51-7-38.11.43.21.69.51,1.1.74Z"/>
          <path class="cls-45" d="M263.93,158.64c-1.27.51-2.76,1.49-4.05,1.84-.21.06-.53-.05-.74,0-4.05,1.07-8.33,1.68-12.34,2.95-2.67.85-5.22,2.26-7.92,2.95,2.69-2.31,6.05-3.37,9.21-4.79,3.36-.73,13.59-2.06,15.83-3.68.03.23-.06.65,0,.74Z"/>
          <path class="cls-56" d="M326.53,184.42c.02,2.54.46,15.9,0,17.12-.34.91-3.71-.55-4.42,1.29-1.48,0-3.47.3-4.79-.37,2.73-6.06,5.89-11.91,8.47-18.04.2-.05.5.02.74,0Z"/>
          <path class="cls-56" d="M290.81,204.67c-7.7-.87-20.54,1.53-27.62-1.1h.74c3.08,0,5.41-.39,4.42-3.87-.7-2.43-1.95-2.92-4.05-2.03l2.58-2.03c-3.05-4-8.25-1.62-11.78-1.66-2.41-.02-4.63-1.36-7-.74-.34-.05-2.31.03-2.95,0-.12,0-.25,0-.37,0-.61-.02-1.23-.01-1.84,0-1.07.03-2.27-.11-3.31,0-.84.09-1.05.36-1.1.37-1.77.25-3.46.51-5.16,1.1.28-1.16-.22-2.26-.37-3.31-.02-.12.02-.25,0-.37-.74-4.39-2.48-8.6-3.68-12.89.92.2,2.75,1.91,3.31,2.58,2.08,2.45,3.82,5.71,7.55,6.63,9.32,2.3,22.27-9.47,28.54-15.47,2.18-2.08,2.68-3.63,3.68-4.79.09-.11.89-.66,1.1-.74,1.49,7.59,11.4,11.23,14.36,17.12s3.03,14.67,2.95,21.17Z"/>
          <path class="cls-61" d="M229.68,183.68c.33,1.46,1.18,2.03.37,3.68-2.25-2.68-4.67-5.17-6.63-8.1-2.75-4.63-9.16-15.98-9.94-20.99-.07-.47.05-1,0-1.47-.09-.84.05-1.73,0-2.58l16.2,29.46Z"/>
          <g>
            <path class="cls-6" d="M120.31,60.69c-4.66,15.66-13.06,38.93,2.21,51-3.54-7.68-3.89-16.79-1.66-24.86-.54,13.8,3.42,28.23,18.41,32.04l-4.42-7.73c9.27,13.11,23.36,12.46,37.38,14.73-.12,1.36-2.14,2-3.31,2.58-1.09.53-2.22.92-3.31,1.47-.17.09-.68.14-1.1.37-6.5,3.53-23.69,25.94-27.25,33.14-.02.04-1.23-.14-.55.74,3.22.44,5.6,2.49,7.92,4.42-2.06-.35-3.82-1.84-5.71-2.58-4.51-1.77-16.08-3.87-18.96-6.63s-1.85-5.84-2.95-9.39c-2.38-7.74-4.6-4.87-10.86-7.18-5.68-2.09-11.7-8.52-10.86,3.13-.23.51-4.46-2.36-4.05,3.87.08,1.15-.82.31.74,1.84.2,1.51-1.82,2.31-1.47,3.87.37,1.66,13.18,11.04,15.28,11.6,2.23.59,4.4-1.36,5.71,1.47-.22.26-.38.72-.74.92,1.23,1.28,2.47,2.57,3.68,3.87,5.9,6.32,20.3,17.97,29.28,16.57,3.64-.57,7.52-5.3,7.92-8.84h1.47c-.35,1.16-2.44,7.71-2.03,8.1.31,0,.62-.01.92,0-.35.6-1.06.68-1.47,2.03-1.05,3.46-1.08,9.68-1.47,13.44.07.43-.36.34-.37.37l-7.73-.37c.03-1.96-1.75-4.52-3.68-5.16-3.78-1.25-5.33,1.59-7,4.42-.78-.97-.93-3.03-1.66-3.31-2.86-1.13-7.16,1.33-7.55,4.42h-.37c-4.99.16-13.46-1.3-18.04-.74-.08-.44.12-1.14,0-1.47-.86-2.38-4.87-1.65-5.16-2.03,1.2-2.11,3.16-3.04,4.79-4.6.72-.69,2.4-.59,1.84-2.76-.64-2.49-6.17,2.3-6.63-2.21-.25-2.46,3.21-1.82,1.29-4.6-4.82.06-3.92,4.02-4.23,7.36-.01.12.01.25,0,.37-.96-.64-1.19-1.95-2.58-2.21-.22-.04-4.16.64-4.42.74.67-.73,3.49-3.08,3.68-3.87.61-2.42-1.39-8.21-4.05-5.52.84,1.07,2.11,3.19,1.1,4.42-.85,1.04-1.99.3-2.39.55-.5.31-2.54,3.84-3.5.18-.56-2.12,2.63-6.58-.92-4.97-7.61,3.45,3.05,14.01-.18,20.44s-.65-5.06-.74-5.52c-.18-.93-4.85-7.04-4.23-3.87.24,1.23,5.42,8.22-2.03,6.26-1.5-.4-1.45-1.43-.74-2.76-2.93,1.38-.34,2.67.37,3.5,1.02,1.18.9-.53,1.1,1.84l-3.68.37c-1.49-6.04,1.68-7.82,1.1-12.34-.2-1.6-3.86-7.32-4.79-4.79.6,1.79.36,3.51-.92,4.97l-3.87-.92c1.17,4.27,6.5,5.7,3.13,11.23-1.47.52-3.74-6.55-4.23-7.55-.4-.8-1.43-.49-1.47-.55-.85-1.2-.34-25.77-.37-29.46,0-1.21,0-2.46,0-3.68-.03-5.76.02-11.54,0-17.31-.07-19.01-.14-38.07,0-57.08.06-8.74.16-17.41.37-26.15l60.02.37Z"/>
            <g>
              <g>
                <path class="cls-9" d="M59.92,86.47c-.14,19.01-.07,38.06,0,57.08-.73.38-.82,1.66-1.1,2.21l-.37-58.55c.19-.55.36-.7.37-.74h1.1Z"/>
                <path class="cls-87" d="M60.28,194c-.21.74-1.01,1.01-1.47,1.47-.17-9.32.23-18.67,0-27.99-.01-.61.04-1.24,0-1.84l1.1-1.1c.02,3.69-.48,28.26.37,29.46Z"/>
              </g>
              <path class="cls-97" d="M74.28,200.99l-.37.74c-.71-.83-3.3-2.12-.37-3.5-.71,1.33-.76,2.37.74,2.76Z"/>
              <g>
                <path class="cls-84" d="M88.82,170.06c4.32.98-1.81,7.18-2.76,3.5-.42-1.62,1.97-3.68,2.76-3.5Z"/>
                <path class="cls-102" d="M77.41,170.8c1.19.31-.06,2.41-.37.74-.08-.45.28-.76.37-.74Z"/>
                <polygon class="cls-102" points="65.99 167.85 66.36 168.22 66.36 168.59 65.99 168.59 65.99 167.85"/>
              </g>
              <g>
                <path class="cls-21" d="M93.79,115.93c1.73.76,3.63,2.68,5.34,3.68,1.24.72,2.93.89,4.05,1.47.57.3-.12,1.91,3.13,1.84-3.73.3-10.76-.24-13.81-2.58-2.37-1.82-1.98-4.7,1.29-4.42Z"/>
                <path class="cls-21" d="M110.37,104.14c-.6.51-2.1-.32-2.58-.37-5.62-2.1-11.17-1.17-15.47,2.95-.04-.45-1.21-1.32-1.1-2.03.04-.29,3-2.85,3.5-3.13,5.52-3.03,10.96-.69,15.65,2.58Z"/>
                <g>
                  <path class="cls-7" d="M107.79,103.77c.47.04,1.98.88,2.58.37,3.98,2.77,13.78,12.67,5.16,14.91,2.94.54-2.72,2.77-3.87,3.13-1.67.52-3.6.6-5.34.74-3.25.07-2.56-1.54-3.13-1.84-1.12-.59-2.81-.75-4.05-1.47-1.71-1-3.61-2.93-5.34-3.68-4.06-1.77-4.53,3.46-8.65,4.79-.57-.16-.28-6.57-.55-7.92-.31-1.52-3.73-7.01-2.39-7.55,3.88.12,7.39,1.83,9.94,4.79.34.02.2-2.45.18-2.58,4.12-4.69,9.81-4.21,15.47-3.68Z"/>
                  <path class="cls-28" d="M107.79,103.77c-5.66-.53-11.35-1.01-15.47,3.68-.04-.23.02-.5,0-.74,4.3-4.12,9.84-5.04,15.47-2.95Z"/>
                  <path class="cls-7" d="M107.79,112.24v4.05c-1.34-.96-.58,2.62-1.66,3.31-1.26-.02-.22-7.23,1.66-7.36Z"/>
                  <path class="cls-42" d="M107.79,116.29v-4.05l1.47-2.03c-1.71,1.97-.75,3.77-.74,5.89,0,1.6-.22.56-.74.18Z"/>
                  <path class="cls-94" d="M113.86,118.5c1.21-.33,1.62.5.74.74-.05.01-1.11-.55-.74-.74Z"/>
                </g>
              </g>
            </g>
          </g>
          <path class="cls-32" d="M272.39,167.11c-1,1.16-1.51,2.71-3.68,4.79l-6.08-5.16c.55,4.47,5.3,2.62,1.1,6.63-6.03,5.77-22.2,16.61-28.54,6.44-3.14-5.03-.43-9.91,3.68-13.44,2.69-.69,5.25-2.1,7.92-2.95,4.01-1.27,8.29-1.88,12.34-2.95-.46,1.21,3.22,7.99,3.68,5.71l-2.95-5.71c1.29-.35,2.78-1.33,4.05-1.84,1.88,2.7,5.14,8.66,8.47,8.47Z"/>
          <path class="cls-84" d="M293.39,156.07c5.26,15.77,7.99,31.56,5.89,48.24-.74-9.17.33-17.26-5.16-25.23-1.41-2.05-3.52-3.54-5.16-5.34-2.79-3.06-6.25-5.55-8.47-9.21,1.41-.66,12.12-7.63,12.89-8.47Z"/>
          <path class="cls-103" d="M259.87,160.48l2.95,5.71c-.47,2.28-4.14-4.5-3.68-5.71.21-.05.53.06.74,0Z"/>
        </g>
        <g>
          <path class="cls-78" d="M30.82,225.3c.05,1.95-.65,9.6,1.1,10.31.15.06.51-.04.74,0h321.11c.44-.05,1.19.11,1.47,0,1.74-.71,1.05-7.7,1.1-9.57,1.14,2.93,7.41,9.41,2.03,10.68H28.06c-4.91-1.22,1.11-9.03,2.76-11.42Z"/>
          <path class="cls-28" d="M68.75,211.67c-2.87-.19-9.25,2.84-12.7,2.21-.25.2-.27,1.18-.18,1.29.62.8,12.24-.47,13.99-.92,1.68,3.75,1.58,4.44,2.58,8.1l-3.68,1.29c1.64.54,3.44.82,5.16.92,4.33.25,9.23-.36,13.26-.74,1.8-.17,4.72.76,6.26-1.29l-5.89-1.29c.35-3.4.87-6.22,2.58-9.21l25.04,1.1c.12.86.16,1.33.37,2.21.34,1.47-.29,2.38.74,4.23,1.43,2.58,4.21,2.01,5.89,2.76,1.32.59,2.23,1.41,3.68,1.84,8.22,2.44,21.06,4.15,27.99-1.66-.27-.72-.18-1.7-.37-2.39,6.95-2.69,5.61-5.94,1.1-10.31,10.9-1.8,21.15-2.42,32.22-2.21,1.34.03,3.46.7,4.97.74,4.65,1.72,18.84,3.97,23.2,2.58.43,2.32.87,3.32,2.21,5.16,1.65,2.27,3.81,3.36,6.26,4.42,1.86.8,2.29,1.94,4.05.74.05,1.48,4.55,2.29,5.89,2.58,3.63.78,8.06,1.24,11.78,1.47-.83,1.59.37,1.61,1.66,1.84,13.91,2.45,27.39-9.9,40.32-10.68-2.78,1.51-6.84,6.87-5.16,9.94.24.44.9,1.02,1.29,1.1,2.22.51,10.61-.43,13.81-.37.12,0,.25,0,.37,0,4.43,2.75,13.95,2.25,19.33,1.84,1.76-.13,3.65-1.12,5.34-1.47.05,0,.33.79.55.74,1.86-.43,4.19-1.16,4.97-3.13-1.76-3.26-2.95-3.14-5.89-1.29-1.49-4.58-6.32-8.25-11.05-5.52.48-1.08,1.05-2.22,1.47-3.31h24.67c5.49,6.95,11.98,13.23,16.94,20.62H32.66l25.78-31.3c2.45,4.08,8.93,3.49,10.31,7.36Z"/>
          <path class="cls-28" d="M322.11,202.83c1.84,0,3.69,0,5.52,0,2.85,4.19,6.07,8.18,9.21,12.15h-24.67c1.65-4.27,3.27-8.35,5.16-12.52,1.32.67,3.31.37,4.79.37Z"/>
          <path class="cls-60" d="M290.44,211.67c-.16,1.26-.11,3.26-.37,4.42,0,.03-.25-.14-.37.37-.74-.29-1.74-.05-2.58,0-12.93.78-26.42,13.13-40.32,10.68-1.29-.23-2.49-.25-1.66-1.84,2.17.13,9.85,1.77,8.1-2.21,1.59-.14,1.59-.12,2.95-.37,4.8-.88,6.15-1.06,6.26-6.26,9.48.72,18.9-2.33,27.99-4.79Z"/>
          <path class="cls-18" d="M120.68,205.04c-.91,1.07-6.03,1.02-6.63,3.13-.43,1.52,1,2.56,1.1,3.5.06.48-.07,1,0,1.47l-25.04-1.1c1.22-2.14,2.29-3.57,4.6-4.79.66-.35,7.5-2.89,7.92-2.95,4.59-.57,13.06.9,18.04.74Z"/>
          <path class="cls-60" d="M217.16,208.36c-.42.42-1.96,2.5-2.21,2.58-4.36,1.39-18.55-.86-23.2-2.58,8.44.22,16.98.88,25.41,0Z"/>
          <path class="cls-60" d="M69.12,211.67c.34.64.53,2.11.74,2.58-1.76.45-13.37,1.72-13.99.92-.08-.11-.07-1.09.18-1.29,3.46.63,9.84-2.4,12.7-2.21.12,0,.25-.02.37,0Z"/>
          <path class="cls-28" d="M322.11,227.51c-.07-.71.1-1.51,0-2.21-.03-.19-.3-1.27-.37-1.47,2.94-1.85,4.13-1.97,5.89,1.29-.78,1.97-3.11,2.7-4.97,3.13-.22.05-.51-.75-.55-.74Z"/>
          <path class="cls-13" d="M87.17,223.82c.61-.8.28-1.7.37-2.58l5.89,1.29c-1.54,2.05-4.46,1.12-6.26,1.29Z"/>
          <path class="cls-7" d="M73.91,224.56c-1.71-.1-3.52-.38-5.16-.92l3.68-1.29c.55,2,.74.83,1.47,2.21Z"/>
          <path class="cls-28" d="M290.44,209.83c-.06.6.08,1.25,0,1.84-9.09,2.46-18.51,5.5-27.99,4.79.03-1.17-.38-2.19-.37-2.95.99.21,1.97.46,2.95.74,3.81,1.08,5.42,1.13,5.52-3.68l19.89-.74Z"/>
          <path class="cls-18" d="M263.19,203.57c7.08,2.64,19.92.23,27.62,1.1-.02,1.74-.21,3.43-.37,5.16l-19.89.74c.07-3.62-1.43-6.52-5.52-4.42l-2.95-.37c.03-.95.33-1.52.37-2.21.23.03.58-.06.74,0Z"/>
        </g>
        <g>
          <path class="cls-67" d="M253.25,223.09c1.75,3.98-5.93,2.34-8.1,2.21-3.72-.23-8.16-.69-11.78-1.47,6.56-.82,13.33-.15,19.89-.74Z"/>
          <path class="cls-10" d="M218.63,208.73c-.14,1.17.1,2.49,0,3.68-.04.46-.73.76-.74.92-.01.2,2.8,1.03-.74,2.76-1.34-1.84-1.78-2.84-2.21-5.16.25-.08,1.79-2.16,2.21-2.58.51-.51,1.25-1.03,1.84-1.47-.12.52-.31,1.32-.37,1.84Z"/>
          <path class="cls-75" d="M219.74,213.51c.05.24.25,1.93.37,2.21l-1.1.55,1.47.18c.79,1.62.87,2.92,2.95,4.05-2.45-1.06-4.61-2.15-6.26-4.42,3.54-1.73.72-2.56.74-2.76.01-.16.7-.46.74-.92h.37c.12,1.12.72,1.04.74,1.1Z"/>
          <path class="cls-47" d="M256.56,195.47c2.11,1.45,3.52,2.52,5.52,4.05.57,1.16.44,2.78.37,4.05-.04.69-.33,1.26-.37,2.21-.03.85,0,1.72,0,2.58-.01,1.06.38,1.67.37,2.58,0,.16-.35.86-.37,2.58,0,.76.39,1.77.37,2.95-.12,5.2-1.46,5.38-6.26,6.26-.07-5.39.09-10.81,0-16.2-.06-3.58.09-7.16-.74-10.68.28.06.53-.57,1.1-.37Z"/>
          <path class="cls-50" d="M248.09,193.26c2.58.36,5.4,2.14,7.36,2.58.83,3.52.67,7.1.74,10.68-4.86.14-2.21-3.26-3.13-6.63l-.55,5.71c-2.88-1.56-1.44-2.85-2.03-5.71-.34,0,.23,8.15-2.03,4.97-.4-.56,1.43-9.24.18-10.5-.49,1.47-.21,11.48-.55,11.97-.29.42-1.98.08-2.58.18.02-4.39.27-8.9-.37-13.26.64.03,2.61-.05,2.95,0Z"/>
          <path class="cls-50" d="M238.52,193.63c1.36,3.49.71,8.6.74,12.52l-2.21.18-.18-10.13c-.57-.34.32,17.28-1.66,13.44l-.55-13.81-.18,13.07c-1.62-2.64.45-5.24-2.39-7.18l-.92,2.21c-.66-1.59-2.61-3.75-4.05-4.79-.04-.23.02-.5,0-.74,2.54-1.78,3.15-2.59,6.26-3.68,1.69-.59,3.38-.85,5.16-1.1Z"/>
          <path class="cls-50" d="M244.78,193.26c.75,5.03-.03,10.1,0,15.1-1.29-2.67-1.02.36-1.29.37l-.55-1.47c0-2.07-.37-3.94-.37-5.89,0-2.62.66-5.45.37-8.1.61-.01,1.23-.02,1.84,0Z"/>
          <g>
            <path class="cls-50" d="M242.93,193.26c.29,2.65-.37,5.48-.37,8.1-1.11-.16-.71.98-.74,1.66-.1,2.95-.22,6.68,0,9.57.07.98.16,3.89,1.1,4.42,0-3.25,0-6.51,0-9.76l.55,1.47c.27-.01,0-3.04,1.29-.37.02,2.92.42,6.11.74,9.02.01-3.62-.02-7.25,0-10.86.6-.11,2.28.23,2.58-.18.35-.49.07-10.5.55-11.97,1.25,1.26-.58,9.94-.18,10.5,2.26,3.18,1.68-4.97,2.03-4.97.59,2.86-.86,4.14,2.03,5.71l.55-5.71c.92,3.37-1.73,6.77,3.13,6.63.09,5.39-.07,10.81,0,16.2-1.36.25-1.36.23-2.95.37-6.56.59-13.32-.08-19.89.74-1.34-.29-5.84-1.1-5.89-2.58,4.07-2.78,5.52-12.84,3.68-17.31l.92-2.21c2.85,1.94.78,4.54,2.39,7.18l.18-13.07.55,13.81c1.98,3.84,1.09-13.78,1.66-13.44l.18,10.13,2.21-.18c.02,2.7-.28,6.06,0,8.65.05.47-.11,1.36.74.74l-.37-22.28c1.05-.11,2.24.03,3.31,0Z"/>
            <g>
              <path class="cls-26" d="M239.62,193.26l.37,22.28c-.84.62-.69-.26-.74-.74-.28-2.59.02-5.95,0-8.65-.03-3.92.62-9.03-.74-12.52.06,0,.26-.28,1.1-.37Z"/>
              <path class="cls-26" d="M242.57,201.36c0,1.96.37,3.82.37,5.89,0,3.25,0,6.51,0,9.76-.95-.53-1.03-3.44-1.1-4.42-.22-2.89-.1-6.63,0-9.57.02-.67-.37-1.82.74-1.66Z"/>
              <path class="cls-26" d="M245.51,206.52c-.02,3.62.01,7.24,0,10.86-.31-2.91-.72-6.1-.74-9.02-.03-5,.75-10.07,0-15.1.12,0,.25,0,.37,0,.64,4.36.39,8.87.37,13.26Z"/>
              <path class="cls-26" d="M248.27,211.67c.29.64.3,5.89,0,5.89-.11-1.96-1-4.01,0-5.89Z"/>
              <path class="cls-26" d="M250.85,211.67c.42,1.31-.02,2.73.37,4.05-.98-.14-.58-4.05-.37-4.05Z"/>
              <path class="cls-26" d="M237.6,214.99c1.01,0,.52,2.95.37,2.95-.36-.94-.08-1.99-.37-2.95Z"/>
            </g>
          </g>
          <g>
            <path class="cls-24" d="M224.15,203.57c-1.15,2.93-4.95,6.1-4.42,9.94-.01-.06-.61.02-.74-1.1s.39-2.76-.37-3.68c.06-.52.24-1.32.37-1.84.02-.1.68-1.75.74-1.84.98-1.59,3.33-3.54,4.79-4.79-.32.84-.12,2.67-.37,3.31Z"/>
            <path class="cls-92" d="M227.1,199.15c.29,1.53,1.86,1.6,1.84,3.13l-4.79,1.29c.25-.64.05-2.47.37-3.31.99-.85,1.6-1.15,2.58-1.84.02.24-.04.51,0,.74Z"/>
            <g>
              <path class="cls-47" d="M231.15,203.94c1.83,4.46.39,14.53-3.68,17.31-1.76,1.2-2.2.06-4.05-.74-2.08-1.13-2.16-2.43-2.95-4.05-.12-.25-.26-.47-.37-.74-.12-.28-.32-1.97-.37-2.21-.53-3.84,3.27-7.01,4.42-9.94l4.79-1.29c.02-1.53-1.55-1.6-1.84-3.13,1.44,1.04,3.4,3.19,4.05,4.79Z"/>
              <path class="cls-100" d="M226.92,204.67c.02,3.25,1.19,2.21,1.29,2.39,1.27,2.28-3.89,2.35-1.29-2.39Z"/>
            </g>
            <path class="cls-22" d="M220.1,215.72c.11.26.24.48.37.74l-1.47-.18,1.1-.55Z"/>
          </g>
          <path class="cls-40" d="M219,212.41h-.37c.1-1.19-.14-2.52,0-3.68.76.92.24,2.56.37,3.68Z"/>
          <path class="cls-76" d="M264.29,197.68c-1.15.49-1.39.58-1.84,1.84-.08-.06-.29.06-.37,0-2-1.53-3.42-2.6-5.52-4.05-.29-.2-1.22-1.11-1.47-1.47,3.54.04,8.74-2.34,11.78,1.66l-2.58,2.03Z"/>
          <path class="cls-39" d="M263.93,203.57c1.44-3.9.35-2.66-1.47-4.05.45-1.26.69-1.35,1.84-1.84,2.1-.9,3.35-.41,4.05,2.03,1,3.47-1.33,3.87-4.42,3.87Z"/>
          <path class="cls-72" d="M255.09,194c.25.36,1.19,1.28,1.47,1.47-.57-.2-.82.43-1.1.37-1.96-.44-4.78-2.22-7.36-2.58,2.36-.63,4.59.71,7,.74Z"/>
          <path class="cls-19" d="M263.93,203.57h-.74c-.16-.06-.5.03-.74,0,.07-1.27.2-2.89-.37-4.05.08.06.29-.06.37,0,1.82,1.4,2.91.15,1.47,4.05Z"/>
          <path class="cls-47" d="M270.55,210.57c-.1,4.82-1.71,4.76-5.52,3.68.78-2.55.26-3.45-2.58-3.31.01-.9-.38-1.52-.37-2.58,1.41.02,1.71-1.57,2.95-2.21,4.09-2.1,5.6.8,5.52,4.42Z"/>
          <path class="cls-63" d="M262.45,210.93c2.83-.13,3.35.77,2.58,3.31-.98-.28-1.95-.52-2.95-.74.02-1.72.37-2.42.37-2.58Z"/>
          <path class="cls-50" d="M265.03,206.15c-1.24.64-1.53,2.23-2.95,2.21,0-.85-.03-1.73,0-2.58l2.95.37Z"/>
        </g>
        <g>
          <path class="cls-32" d="M180.7,125.87c.07.2.37,3.54.18,3.68-1.5-.81-3.07-1.47-4.6-2.21-.06-.03-.67-1.08-.74-1.1l4.23-1.47c.34.36.74.61.92,1.1Z"/>
          <path class="cls-103" d="M202.8,125.5c.04.29.25.44.37.74,1.54,3.76,2.77,7.73,4.05,11.6-.47.71-9.83.69-11.23.55-.32-.03-2.67-.34-2.39-1.1,3.77-.88,5.13-3.39,6.26-6.63.75-2.14.95-2.84,1.1-5.16.56-.09,1.37.13,1.84,0Z"/>
          <g>
            <path class="cls-93" d="M245.51,23.13c.09.08.36,1.79,1.47,1.47-.02.24.05.52,0,.74l-28.36.37c-.38-.23-1.43-1.07-1.66-1.1-.45-.07-8.77.23-9.21.37-.07.02-.47.69-.92,1.1.34-1.03-.7-1.05-1.29-1.1-2.96-.27-6.06.4-9.02.37-5.09-.06-13.69-1.23-18.41-.37-1.6-.77-3.79.51-3.31-1.84,23.4.06,47.03,1.31,70.34-.37.1.11.26.27.37.37Z"/>
            <path class="cls-81" d="M139.09,23.13c11.91,0,23.81-.03,35.72,0-.48,2.35,1.72,1.07,3.31,1.84-.08.01-.41.42-1.47.74l-38.67-1.1c.12-.23.3-1.13.37-1.47.24,0,.49,0,.74,0Z"/>
            <g>
              <path class="cls-104" d="M245.14,22.76c-23.3,1.67-46.94.43-70.34.37-11.91-.03-23.81,0-35.72,0,15.35-19.37,44.43-30.1,67.57-18.04,1.47.77,5.87,4.71,6.26,4.79.7.15,3.2-1.09,4.05-1.1,14.27-.25,19.12,4.55,28.17,13.99Z"/>
              <path class="cls-11" d="M179.41,8.77c3.48-.18,8.56-.22,11.42,1.84-8.79,1.1-16.52,3.19-24.3,7.36-1.46.78-5.68,4.57-6.63,4.79-.89.21-11.96.31-12.34-.18,8.1-7.45,20.77-13.22,31.85-13.81Z"/>
              <path class="cls-11" d="M187.15,16.87c.66-.09,1.36.41,2.03.55-4.99,4.75-10.02,6.33-16.94,5.16,4.71-2.07,9.46-4,14.55-4.97.3-.06.07-.7.37-.74Z"/>
            </g>
            <path class="cls-31" d="M176.65,25.71c-5.68,1.7-16.1,9.69-20.25,10.31-6.67,1-18.84,0-26.15,0,1.85-4.04,5.11-7.3,7.36-11.05.26-.43.36-.35.37-.37l38.67,1.1Z"/>
            <path class="cls-48" d="M179.23,41.91c3.49.03,7-.02,10.5,0l-2.03,2.21c-1,.18-1.69.73-2.58,1.1l-59.29-.74c.12-.33.27-.77.37-1.1.18-.63.27-1.19.37-1.84.12,0,.25,0,.37,0,17.41.09,34.88.22,52.29.37Z"/>
            <path class="cls-48" d="M255.09,41.54c.24,0,.49,0,.74,0l22.83,1.47c-3,.01-21.16-.48-22.28,0-1.01.43-.43,1.08-.55,1.84-5.03-.05-10.07.06-15.1,0-1.73-.02-3.44,0-5.16,0-4.65,0-9.34-.11-13.99,0-.42.01-1.08-.2-1.1.37-.87-.4-2.4-1-3.31-1.1l-2.39-2.21c6.57-.03,13.14.04,19.7,0,.49,0,.99,0,1.47,0,1.29-.01,2.77-.36,3.68-.37,5.11-.05,10.33.04,15.47,0Z"/>
            <path class="cls-9" d="M196.54,25.34l-13.44,11.78c-1.27-.03-2.66,0-3.87.37-7.48-.82-15.28-1.13-22.83-.74v-.74c4.15-.62,14.57-8.61,20.25-10.31,1.07-.32,1.39-.72,1.47-.74,4.72-.86,13.32.31,18.41.37Z"/>
            <path class="cls-30" d="M206.85,26.07c-.83.78-2.87,4.73-4.23,5.16-.71.22-4.37-4.5-1.29.74-2.18.83-7.55,8.31-10.68,9.39.58.86,1.42.47,2.21.55l-1.47,2.21c-.11,0-1.21.3-1.84.37-.89.09-1.3-.46-1.84-.37l2.03-2.21c-3.5-.02-7,.03-10.5,0l-14.36-1.84c5.4-.2,9.26-.99,14.36-2.58,1.21-.38,2.6-.4,3.87-.37l13.44-11.78c2.97.03,6.07-.64,9.02-.37.59.05,1.62.08,1.29,1.1Z"/>
            <path class="cls-93" d="M246.99,25.34c-.02.11,0,.25,0,.37-.15,2.37-3.12.14-3.31,1.66l4.79,8.65c-3.7-.04-7.34.51-11.05.37-.45-.84-4.37-7.5-5.16-6.08.89,1.93,1.21,4.06,1.84,6.08-1.32-.37-2.84.34-4.05.37-.3,0-.39-.4-1.1-.37-2.53-2.78-7.32-8.85-10.31-10.68l28.36-.37Z"/>
            <path class="cls-31" d="M218.63,25.71c3,1.83,7.78,7.9,10.31,10.68-6.62.28-13.28.25-19.89.74-2.11-1.85-4.61-3.33-6.44-5.52-.6-.16-.84.2-1.29.37-3.08-5.24.58-.52,1.29-.74,1.37-.42,3.4-4.37,4.23-5.16.45-.42.85-1.08.92-1.1.44-.14,8.75-.44,9.21-.37.23.04,1.28.87,1.66,1.1Z"/>
            <path class="cls-77" d="M156.4,36.02v.74c-3.18.16-9.4.53-12.34,1.1-.2.04-2.18.46-1.47,1.1,7.16.28,15.18,1.37,22.28,1.1l14.36,1.84c-17.42-.15-34.88-.28-52.29-.37l2.95-5.52c.12,0,.25,0,.37,0,7.31,0,19.47,1,26.15,0Z"/>
            <path class="cls-31" d="M252.51,36.02c.05.1-.05.27,0,.37-1.21-.63-2.72-.36-4.05-.37l-4.79-8.65c.19-1.52,3.16.71,3.31-1.66,2.47,3.08,3.9,6.77,5.52,10.31Z"/>
            <path class="cls-30" d="M248.46,36.02c1.33.01,2.84-.26,4.05.37.78,1.71,1.85,3.4,2.58,5.16-5.14.04-10.35-.05-15.47,0-.73-1.65-1.36-3.58-2.21-5.16,3.7.14,7.34-.4,11.05-.37Z"/>
            <path class="cls-77" d="M228.94,36.38c.72-.03.8.38,1.1.37l4.42,5.16c-6.56.04-13.14-.03-19.7,0l2.39,2.21c-.92-.11-2.12-.12-2.95.37-.48-.21-.45-.25-1.1-.37-.23-.31-1.37-1.79-1.47-1.84,4.8.03-.91-3.69-2.58-5.16,6.61-.49,13.27-.46,19.89-.74Z"/>
            <path class="cls-31" d="M237.41,36.38c.85,1.57,1.48,3.51,2.21,5.16-.91,0-2.4.36-3.68.37-.25-1.96-1.25-3.64-1.84-5.52-.64-2.01-.95-4.15-1.84-6.08.79-1.43,4.7,5.24,5.16,6.08Z"/>
            <path class="cls-30" d="M234.1,36.38c.59,1.88,1.59,3.56,1.84,5.52-.49,0-.99,0-1.47,0l-4.42-5.16c1.21-.03,2.73-.73,4.05-.37Z"/>
            <path class="cls-8" d="M221.58,44.85l-.37.74c-.23-.13-.49-.26-.74-.37.03-.57.68-.36,1.1-.37Z"/>
            <path class="cls-31" d="M179.23,37.49c-5.11,1.59-8.96,2.37-14.36,2.58-7.1.27-15.12-.82-22.28-1.1-.71-.64,1.27-1.07,1.47-1.1,2.94-.57,9.16-.94,12.34-1.1,7.55-.39,15.36-.08,22.83.74Z"/>
            <path class="cls-35" d="M209.06,37.12c1.67,1.47,7.38,5.19,2.58,5.16-2.9-1.29-14.62.06-18.78-.37-.79-.08-1.63.31-2.21-.55,3.12-1.08,8.5-8.56,10.68-9.39.45-.17.69-.53,1.29-.37,1.83,2.19,4.34,3.68,6.44,5.52Z"/>
            <path class="cls-96" d="M211.63,42.28c.11.05,1.25,1.53,1.47,1.84-3.9-.73-17.22-.28-21.73,0l1.47-2.21c4.16.43,15.88-.92,18.78.37Z"/>
            <g>
              <path class="cls-3" d="M185.12,45.22c-6.45,2.74-14.75,9.2-21.17,12.89s-12.66,6.68-19.15,9.57c-.42.61-.04,1.55-.18,2.21-1.32,6.21-.42,30.49,2.95,35.9,4.7,7.55,26.38,15.39,34.98,16.39.04,1.1-.05,2.22,0,3.31l-1.84.37c-.18-.49-.59-.74-.92-1.1l-4.23,1.47c-1.23-.48-1.57-.19-2.58-.37-.23-.04-.5.04-.74,0-14.01-2.27-28.11-1.62-37.38-14.73l4.42,7.73c-14.99-3.81-18.96-18.24-18.41-32.04-2.23,8.06-1.88,17.18,1.66,24.86-15.27-12.07-6.87-35.35-2.21-51,1.65-5.54,3.57-10.79,5.52-16.2l59.29.74Z"/>
              <path class="cls-15" d="M137.8,76.89c3.58-.74,6.35,2.25,4.97,5.34-.68,1.52-6.79-.98-6.26,2.58s5.86-.33,6.26.37l.18,11.23c-7.32.55-12.95-8.31-10.13-14.91.46-1.08,3.8-4.36,4.97-4.6Z"/>
              <path class="cls-98" d="M129.7,97.15l2.58,9.57c-.53.18-3.49-8.51-2.58-9.57Z"/>
            </g>
            <g>
              <path class="cls-4" d="M235.57,44.85l5.34,7.36-.18-7.36c5.03.06,10.07-.05,15.1,0,1.85,5.06,3.2,10.32,4.79,15.47,6.08,19.69,12.84,44.08-10.68,55.05,3.73-6.29,7.14-13.23,6.44-20.81-1.98,10.38-7.47,20.49-18.41,23.2l2.58-4.42c-6.31,9.61-18.15,11.69-28.91,12.15-1,.04-1.05.37-1.1.37-3.31.07-3.56-1.53-7.73-.37-.48.13-1.28-.09-1.84,0,.06-.85-.95-4.2-.18-5.16.3-.38,7.89-2.4,9.21-2.95,4.05-1.7,7.81-3.7,11.6-5.89,10.3-5.94,18.05-11.74,17.68-24.86-.08-2.81-1.34-6.08-1.47-8.84-.21-4.38.62-17.27-1.47-20.44-.53-.8-13.96-11.14-15.1-11.78l.37-.74c4.65-.11,9.34,0,13.99,0Z"/>
              <g>
                <path class="cls-89" d="M210.53,125.87c-.25.45-.32.56-.37,1.1-2.19-.99-4.63-1.54-7-.74-.12-.29-.33-.45-.37-.74,4.18-1.16,4.43.44,7.73.37Z"/>
                <g>
                  <path class="cls-20" d="M240.73,44.85l.18,7.36-5.34-7.36c1.72,0,3.42-.02,5.16,0Z"/>
                  <path class="cls-15" d="M240.73,78.37c7.65,3.91,8.94-4.98,0-1.84,0-.05-.73-.28-.74-.55-.2-5.06,1.62-7.94,6.81-4.97,7.75,4.44,3.22,19.42-5.89,18.78.04-3.82-.04-7.59-.18-11.42Z"/>
                  <path class="cls-78" d="M240.73,78.37c-.02-.61.03-1.23,0-1.84,8.94-3.14,7.65,5.76,0,1.84Z"/>
                  <path class="cls-88" d="M247.17,99.72c.23,2.71-1.61,5.83-2.95,8.1l2.95-8.1Z"/>
                </g>
              </g>
            </g>
          </g>
          <path class="cls-103" d="M188.8,137.29c.02.56-.47.29-.74.37-2.95.86-7.27,1.84-10.31,1.47l7.36-4.42c.27.32,3.37,2.48,3.68,2.58Z"/>
          <path class="cls-32" d="M182.17,140.97c-2.71.2-4.3.19-6.26-1.84v-.74c.63.31,1.11.65,1.84.74,3.04.36,7.36-.61,10.31-1.47,1.56,2.07-4.95,3.25-5.89,3.31Z"/>
          <path class="cls-103" d="M175.91,139.13c1.96,2.03,3.55,2.04,6.26,1.84-1.8,1.37-5.22.76-7.36.37-.01-.36.14-.75-.37-.74.03-.53-.14-3.68.18-3.68l.37,1.84c.32.53.88.33.92.37Z"/>
          <path class="cls-32" d="M210.16,126.97c-.04.48.03.99,0,1.47-.63,8.82-2.09,15.73-4.42,23.94h-28.91c-1.59-.63-1.96-9.33-2.03-11.05,2.14.39,5.56,1,7.36-.37.94-.07,7.45-1.25,5.89-3.31.27-.08.76.19.74-.37,1.53.46,3.24.36,4.79,0-.28.76,2.08,1.07,2.39,1.1,1.41.14,10.77.16,11.23-.55-1.28-3.87-2.51-7.84-4.05-11.6,2.36-.81,4.81-.25,7,.74Z"/>
          <g>
            <path class="cls-54" d="M175.55,126.24c.06.02.68,1.08.74,1.1-3.23,1.26-.37,7.25-.37,11.05v.74s-.6.17-.92-.37l-.37-1.84c-.32,0-.15,3.15-.18,3.68-.05.84-.38,2.95-.37,3.31.11-3.01-.76-6.44-.74-9.39,0-.08.73-1.39.74-1.47.08-2.16-1.37-4.63.74-6.26l-1.84-.92c1,.18,1.35-.11,2.58.37Z"/>
            <path class="cls-74" d="M205.74,152.75c-.03.11.04.26,0,.37-.12.38-.24.73-.37,1.1-.25.76-.04,3.48-.55,3.68-6.14,1.88-22.2-1.36-27.07.37-.81-1.69-.02-3.27-.74-5.16l28.72-.37Z"/>
            <path class="cls-59" d="M174.81,141.34c.06,1.71.44,10.42,2.03,11.05h28.91c-.03.11.03.26,0,.37l-28.72.37c-1.26-3.33-2.76-3.94-2.95-9.21-.01-.37.32-2.47.37-3.31.5-.01.36.38.37.74Z"/>
            <g>
              <path class="cls-74" d="M211.63,125.5c.77.52,2.64,1.85,3.31,2.21-.75,8.61-1.95,17.88-1.47,26.51.05.85-.09,1.74,0,2.58-2.37-.46-2.13,2.91-4.6,2.58-1.92-.26-3.05-3.66-3.5-5.16.12-.37.25-.72.37-1.1.97.38,1.64-1.46,1.84-2.03,2.48-7,1.85-15.92,3.68-23.2l-1.1.55c.03-.48-.04-.99,0-1.47.05-.55.12-.66.37-1.1.06,0,.11-.33,1.1-.37Z"/>
              <path class="cls-38" d="M205.74,153.12c.04-.11-.03-.26,0-.37s-.03-.25,0-.37c2.33-8.2,3.79-15.11,4.42-23.94l1.1-.55c-1.83,7.28-1.2,16.2-3.68,23.2-.2.57-.87,2.41-1.84,2.03Z"/>
              <path class="cls-10" d="M207.58,155.33c1.39.25,4.95-.12,2.39-1.47h-2.03c.76-1.01,1.31-1.86,2.76-1.47,3.8,1.01-1.33,8.32-3.13,2.95Z"/>
              <path class="cls-50" d="M207.58,155.33c-.33-.97-.28-.61.37-1.47h2.03c2.55,1.35-1,1.72-2.39,1.47Z"/>
            </g>
            <g>
              <path class="cls-101" d="M213.47,156.8c.05.48-.07,1,0,1.47-.14,3.98-3.96,2.87-6.63,2.39.88,1.67,1.05,3.85,1.1,5.71.58,19.85-19.77,31.27-29.83,14.36-2.35-3.95-5.02-20.82-.37-22.46,4.87-1.72,20.92,1.51,27.07-.37.51-.2.3-2.93.55-3.68.45,1.49,1.58,4.9,3.5,5.16,2.47.34,2.23-3.03,4.6-2.58Z"/>
              <path class="cls-43" d="M184.94,161.22c5.91-.32,11.8.77,17.68,0,3.48.97,4.94,16.99.18,18.23.35-.39,1.77-3,1.84-3.31.16-.74.76-6,.74-6.63,0-.28-.72-.08-.74-.37-.15-2.06-.03-5.79-2.39-6.81-3.57-1.55-18.05,1.71-22.46-.74,1.73.32,3.49-.28,5.16-.37Z"/>
            </g>
            <g>
              <path class="cls-74" d="M172.97,125.87l1.84.92c-2.11,1.63-.66,4.1-.74,6.26,0,.08-.74,1.39-.74,1.47-.03,2.95.85,6.38.74,9.39.18,5.27,1.68,5.87,2.95,9.21.72,1.89-.07,3.46.74,5.16-4.65,1.65-1.98,18.52.37,22.46-1.1.29-.33,1.13,0,1.66,9.48,14.95,28.55,6.84,30.56-9.94.14-1.2.47-5.25-.74-6.08-.05-1.86-.22-4.04-1.1-5.71,2.67.48,6.49,1.59,6.63-2.39.78,5.01,7.19,16.36,9.94,20.99,2.55,4.3,4.97,9.73,9.57,12.15.15,1.06.65,2.15.37,3.31-3.11,1.09-3.72,1.9-6.26,3.68-.98.69-1.58.99-2.58,1.84-1.46,1.24-3.8,3.2-4.79,4.79l-70.7-.37c.39-3.76.42-9.98,1.47-13.44.41-1.35,1.13-1.42,1.47-2.03.78.03,2.03-1.05,1.1-1.47,7.06-10.46,14.47-18.66,16.2-32.04,1.1-8.48.47-18.81-.37-27.25,1.18-.57,3.2-1.22,3.31-2.58.23.04.51-.04.74,0Z"/>
              <path class="cls-99" d="M178.12,180.74c10.06,16.91,30.41,5.49,29.83-14.36,1.21.82.88,4.88.74,6.08-2.01,16.79-21.08,24.89-30.56,9.94-.33-.53-1.1-1.37,0-1.66Z"/>
              <path class="cls-41" d="M230.05,187.37c.85,1.01,1.62,2.91,2.95,3.68.02.12-.02.25,0,.37-4.61-2.42-7.02-7.85-9.57-12.15,1.96,2.93,4.37,5.42,6.63,8.1Z"/>
              <path class="cls-58" d="M151.98,189.21c.53-.92.78-.99,1.1-1.47.93.42-.32,1.5-1.1,1.47Z"/>
              <g>
                <path class="cls-46" d="M174.81,156.8l-1.1.37c-3.32-.09-2.99-4.31-.92-4.79,2.32-.54,4.38,2.69,2.03,4.42Z"/>
                <path class="cls-90" d="M174.81,156.8c-.48.35-.35.39-1.1.37l1.1-.37Z"/>
                <path class="cls-35" d="M173.15,153.86c1.59-.36,1.3,1.77,0,1.47-.67-.16-.67-1.32,0-1.47Z"/>
              </g>
            </g>
          </g>
          <g>
            <path class="cls-95" d="M187.7,44.12c.54-.1.95.46,1.84.37-12.45,12.69-29.93,16.8-44.93,25.41.14-.66-.24-1.6.18-2.21,6.49-2.9,12.99-6.04,19.15-9.57s14.72-10.15,21.17-12.89c.89-.38,1.58-.93,2.58-1.1Z"/>
            <path class="cls-95" d="M217.16,44.12c.92.11,2.45.71,3.31,1.1.24.11.51.24.74.37,1.14.64,14.57,10.98,15.1,11.78l.18,3.31c-5.31-3.18-10.41-6.72-15.47-10.31-1.49-1.06-5.79-5.45-6.81-5.89.83-.49,2.03-.48,2.95-.37Z"/>
            <path class="cls-25" d="M182.54,125.87c0-.12,0-.25,0-.37-.05-1.1.04-2.22,0-3.31,4.86.57,9.97-.67,14.73-.74.7-.01.98-.6,1.47-.18-.47,7.73-11.05,7.82-16.2,4.6Z"/>
            <path class="cls-17" d="M221.58,111.51c-3.79,2.19-7.55,4.2-11.6,5.89-1.31.55-8.9,2.57-9.21,2.95-.77.95.24,4.3.18,5.16-.16,2.31-.36,3.01-1.1,5.16-4.55,6.35-10.27,7.57-15.83,1.47-.88-2.1-1.31-3.98-1.47-6.26,5.16,3.22,15.73,3.13,16.2-4.6-.49-.42-.78.17-1.47.18l24.3-9.94Z"/>
            <g>
              <path class="cls-15" d="M119.94,159.38c-2.03,3.71-5.98,6.26-8.47,9.21-1.31-2.84-3.48-.88-5.71-1.47-2.1-.56-14.92-9.94-15.28-11.6-.34-1.56,1.68-2.36,1.47-3.87.43.42,5.86,4.43,5.89,3.5l-6.63-5.34c-.41-6.22,3.82-3.36,4.05-3.87-.84-11.65,5.18-5.22,10.86-3.13,6.26,2.31,8.48-.56,10.86,7.18,1.09,3.55.03,6.6,2.95,9.39Z"/>
              <path class="cls-1" d="M91.95,151.65c-1.56-1.53-.66-.69-.74-1.84l6.63,5.34c-.04.93-5.46-3.08-5.89-3.5Z"/>
              <path class="cls-49" d="M97.66,142.44l11.6,6.81c.61,1.71-2.33,10.18-3.87,10.13-1.36-.05,2.48-4.63,2.76-5.71,1.47-5.66-1.44-3.67-4.97-6.08-1.93-1.31-4.1-3.28-5.52-5.16Z"/>
              <path class="cls-49" d="M95.45,146.49l6.81,5.34c-.56,1.18-8.3-4.67-6.81-5.34Z"/>
            </g>
            <path class="cls-102" d="M193.59,137.29c-1.54.36-3.26.46-4.79,0-.31-.09-3.42-2.25-3.68-2.58-.3-.37-.88-2.04-1.1-2.58,5.57,6.1,11.28,4.88,15.83-1.47-1.13,3.24-2.49,5.74-6.26,6.63Z"/>
            <g>
              <path class="cls-15" d="M287.86,140.97c-1.39,1.56-12.96,6.85-13.26,7.55-.41.95,1.65,8.42,3.87,8.65-.76-2.23-3.65-5.35-2.76-7.92.54-1.57,3.93-1.59,4.6-2.03.84-.54,7.36-5.45,7.55-5.89,2.62-.68,2.37,2.56,2.95,3.13.37.37.99.09,1.1.18s1.2-.18,1.84.92c.9,1.54-1.01,3.03-2.21,4.23-.91.91-3.71,1.8-3.68,3.5.82-.39,3.33-1.75,3.68-2.39,3.9.2,4.17,2.61,1.84,5.16-.77.84-11.48,7.81-12.89,8.47-2.26,1.06-3.68,1.2-5.89,1.84-.3.09-.83-.1-1.1,0-.21.08-1.01.63-1.1.74-3.33.19-6.59-5.77-8.47-8.47-.06-.08.03-.51,0-.74,3.92-2.83.68-13.27,8.47-15.1.89-.21,3.41-.02,4.79-.37,2.47-.63,2.2-1.05,3.31-1.47.71-.27,1.54-.73,2.21-1.1.96-.53,3.56-.98,4.05-1.47,1.17-.05,1.25,1.8,1.1,2.58Z"/>
              <path class="cls-49" d="M287.86,140.97c-.02.13.04.28,0,.37-.18.44-6.71,5.35-7.55,5.89-.68.43-4.06.46-4.6,2.03-.89,2.57,2,5.69,2.76,7.92-2.21-.24-4.27-7.71-3.87-8.65.3-.7,11.86-5.99,13.26-7.55Z"/>
              <path class="cls-1" d="M289.89,144.65c-.04,1.58-5.99,6.8-6.44,4.97-.1-.4,5.86-4.13,6.44-4.97Z"/>
              <path class="cls-85" d="M291.54,150.91c-.36.64-2.87,2-3.68,2.39-.03-1.7,2.78-2.58,3.68-3.5-.06.32.09.94,0,1.1Z"/>
            </g>
            <g>
              <path class="cls-15" d="M213.11,44.12c.66.12.62.16,1.1.37,1.03.45,5.32,4.83,6.81,5.89,5.05,3.59,10.16,7.13,15.47,10.31l-.18-3.31c2.09,3.17,1.26,16.06,1.47,20.44.13,2.76,1.39,6.03,1.47,8.84.38,13.11-7.38,18.92-17.68,24.86l-24.3,9.94c-4.76.07-9.87,1.3-14.73.74-8.61-1-30.29-8.84-34.98-16.39-3.37-5.41-4.27-29.69-2.95-35.9,14.99-8.61,32.48-12.72,44.93-25.41.63-.06,1.73-.36,1.84-.37,4.51-.28,17.83-.73,21.73,0Z"/>
              <g>
                <path class="cls-66" d="M224.71,86.83c13.07-.54,7.58,14.97-2.21,16.2-12.72,1.6-10.77-15.67,2.21-16.2Z"/>
                <path class="cls-66" d="M156.21,91.99c3.83-.66,10.2.19,12.34,3.87,4.89,8.41-5.12,14.17-12.7,9.76-5.38-3.12-7.06-12.35.37-13.63Z"/>
                <path class="cls-104" d="M212.92,59.95c3.87-.35,8.53,2.43,9.76,6.08-5.62-1.72-11.53-2.6-17.12-.18-.09-2.95,5.05-5.68,7.36-5.89Z"/>
                <path class="cls-104" d="M166.52,61.43c3.49-.36,8.32,1.34,10.13,4.6-6.31-1.04-12.96-1.01-18.6,2.39.27-3.14,5.74-6.72,8.47-7Z"/>
                <path class="cls-51" d="M190.46,89.41c4.28,2.15,3.54,8.51-1.47,8.47.39-1.28,2.8-1.42,3.13-3.13.49-2.5-2.1-3.41-1.66-5.34Z"/>
                <g>
                  <path class="cls-102" d="M207.58,101.93c-.1.16-1.05.78-1.47,1.47l-25.04,2.39c7.96,2,16.32-.65,24.3-1.29-5.65,7.74-14.7,9.54-23.02,4.05-1.96-1.29-1.63-3.61-4.97-3.31-.41-.6-1.63-.66-.92-1.84l31.85-3.5c.22.38-.5,1.62-.74,2.03Z"/>
                  <path class="cls-12" d="M177.39,105.25c3.34-.3,3.01,2.02,4.97,3.31,8.32,5.49,17.37,3.69,23.02-4.05.28-.38.49-.7.74-1.1.42-.69,1.38-1.31,1.47-1.47-4.19,15.81-21.41,16.23-30.2,3.31Z"/>
                  <path class="cls-34" d="M206.11,103.41c-.25.4-.46.72-.74,1.1-7.99.64-16.35,3.29-24.3,1.29l25.04-2.39Z"/>
                </g>
                <g>
                  <path class="cls-55" d="M221.94,83.15c2.62-6.15-3.63-10.54-9.39-9.57-3.91.66-7.99,6.21-8.65,9.94-.55-8.12,7.58-14.04,15.28-12.15,1.91.47,3.12,2.6,4.6,1.66-2.39,2.99-.21,2.62,0,4.79.12,1.19-.25,5.4-1.84,5.34Z"/>
                  <g>
                    <path class="cls-102" d="M221.94,83.15c-2.75,6.45-12.7,5.7-18.23,4.05-.33-.35.08-3.08.18-3.68.66-3.73,4.75-9.29,8.65-9.94,5.76-.97,12.01,3.43,9.39,9.57Z"/>
                    <g>
                      <path class="cls-55" d="M212.19,76.16c7.03-.97,8.19,10.93,1.47,11.78-7.3.93-7.3-10.98-1.47-11.78Z"/>
                      <path class="cls-102" d="M211.45,78.37c1.66-.78,2.32,2.06,1.1,2.58s-2.49-1.93-1.1-2.58Z"/>
                    </g>
                  </g>
                </g>
                <g>
                  <path class="cls-55" d="M178.86,86.83c-.11-3-3.12-8.71-5.71-10.31-6.51-4.02-16.39,1.78-12.34,9.21-3.93-2.33.14-7.35-2.21-9.39,2.24-.34,3.19-2.53,5.34-3.13,8.59-2.39,15.95,5.15,14.91,13.63Z"/>
                  <g>
                    <path class="cls-102" d="M178.86,86.83c.02.51-.16.95.37,1.29-5.34,2.23-15.06,3.75-18.41-2.39-4.05-7.43,5.83-13.23,12.34-9.21,2.59,1.6,5.6,7.31,5.71,10.31Z"/>
                    <g>
                      <path class="cls-55" d="M169.1,77.63c7.15-.83,8.02,11.74,1.1,12.15-7.57.45-6.92-11.47-1.1-12.15Z"/>
                      <path class="cls-102" d="M168.73,80.21c2.28-.64,1.87,2.4.74,2.58-.72.11-2.63-2.05-.74-2.58Z"/>
                    </g>
                  </g>
                </g>
              </g>
            </g>
          </g>
        </g>
      </g>
    </g>
  </g>
</svg>