<?xml version="1.0" encoding="UTF-8"?>
<svg id="katman_2" data-name="katman 2" xmlns="http://www.w3.org/2000/svg" viewBox="0 0 449.6 289.28">
  <defs>
    <style>
      .cls-1 {
        fill: #f68f86;
      }

      .cls-2 {
        fill: #916748;
      }

      .cls-3 {
        fill: #82c328;
      }

      .cls-4 {
        fill: #fac3b3;
      }

      .cls-5 {
        fill: #cdccbc;
      }

      .cls-6 {
        fill: #74c5e5;
      }

      .cls-7 {
        fill: #fbe5be;
      }

      .cls-8 {
        fill: #b4805b;
      }

      .cls-9 {
        fill: #90abff;
      }

      .cls-10 {
        fill: #d0e0d2;
      }

      .cls-11 {
        fill: #221113;
      }

      .cls-12 {
        fill: #fc7e00;
      }

      .cls-13 {
        fill: #2c4f80;
      }

      .cls-14 {
        fill: #458b10;
      }

      .cls-15 {
        fill: #f6d6b0;
      }

      .cls-16 {
        fill: #fca59e;
      }

      .cls-17 {
        fill: #f7cf7b;
      }

      .cls-18 {
        fill: #fe9b01;
      }

      .cls-19 {
        fill: #cee3c8;
      }

      .cls-20 {
        fill: #63c5b8;
      }

      .cls-21 {
        fill: #45c7de;
      }

      .cls-22 {
        fill: #80d5e6;
      }

      .cls-23 {
        fill: #56a610;
      }

      .cls-24 {
        fill: #6e4b33;
      }

      .cls-25 {
        fill: #300910;
      }

      .cls-26 {
        fill: #d7eff9;
      }

      .cls-27 {
        fill: #e7e3c4;
      }

      .cls-28 {
        fill: #fdb82a;
      }

      .cls-29 {
        fill: #b2e5ef;
      }

      .cls-30 {
        fill: #71c47b;
      }
    </style>
  </defs>
  <g id="katman_2-2" data-name="katman 2">
    <g id="_Üretken_Nesne" data-name="Üretken Nesne">
      <path class="cls-26" d="M440.65,13.4l-.56,240.7c-3.47-.13-7.22-.52-10.61-.56-.03-.36.07-.77,0-1.12l1.12-229.81c-.99-1.38-2.54-.7-3.91-.84-19.25-1.97-45.29.05-65.34,0-11.72-.03-23.46.02-35.18,0-27.73-.04-55.48.06-83.21,0-12.28-.03-24.58,0-36.86,0-22.51-.01-45.06.02-67.57,0-29.99-.02-59.95-.64-89.91,0-9.85.21-19.75-.39-29.6.28-.04,20.01.06,40.03,0,60.03,0,1.61.56,1.59.56,1.68-.09,36.09-.57,72.23-.56,108.34,0,14.14-.05,28.31,0,42.44.02,5.81-.9,13.24,1.12,18.43v.56c-3.65.05-7.5.38-11.17.56L10.07,13.4c143.34-3.1,287.3,4.13,430.57,0Z"/>
      <path class="cls-2" d="M440.65,13.4c-143.28,4.13-287.23-3.1-430.57,0L.02,13.12.3,0h449l.28,13.12c-.4.56-7.6.24-8.94.28Z"/>
      <g>
        <g>
          <path class="cls-8" d="M20.13,253.54c135.81-1.99,273.44-1.42,409.35,0,3.4.04,7.14.43,10.61.56,1.46.05,9.09-.29,9.49.28-.05,4.74.07,9.5,0,14.24H.02c-.07-4.74.05-9.5,0-14.24.41-.58,7.57-.21,8.94-.28,3.67-.18,7.52-.51,11.17-.56Z"/>
          <path class="cls-2" d="M449.58,268.62c-.06,4.18.04,8.38,0,12.57l-13.4,1.95c-.03-.11-.83-1.99-1.4-1.68l-420.52.56c0,.76-.81,1.59-.84,1.68-.94-3.92-12.25.09-13.4-2.51-.04-4.19.06-8.39,0-12.57h449.56Z"/>
          <path class="cls-24" d="M436.18,283.14c.24.95.29,5.64-.84,6.14H14.26c-1.09-.48-1.11-4.78-.84-5.58.03-.09.84-.91.84-1.68l420.52-.56c.56-.31,1.37,1.57,1.4,1.68Z"/>
        </g>
        <g>
          <path class="cls-7" d="M116.74,210.54c5.8.81,17.59,6.36,24.01,8.38,4.22,1.32,8.25,3.09,12.84,2.79.53,1.34,7.89,13.66,8.66,13.96,1.93.76,16.72-1.1,17.59-5.03.43,5.79,4.69,3.16,7.54,1.68.42-.22,1.97.22,2.23,0,1.04-.87,1.19-4.46,1.4-4.75.31-.43,8.41-5.76,8.94-5.86,3.47-.66,17.64.9,22.34,1.12,12.78.58,28.19.1,40.21,1.12,2.18.18,2.79,1.82,3.07,1.68.56-.29.16-1.61.28-1.68.37-.2.71-.41,1.12-.56,3.27-1.17,7.95-1.83,8.1,2.23,1.83-2.58,3.41-2.92,5.86-4.47l52.5-8.94c2.48,3.55,9.51,5.74,12.29,8.94,3.06,3.53,2.36,6.67,4.75,10.61l27.09,1.12c-.06.19.02,3.19,0,3.91-.04,1.28-.97,3.24-.56,4.19,1.25,2.9,21.32,4.5,23.73,3.63.89-.32,2.51-4.33,2.51-5.03,6.2-.77,4.91-3.09,1.12-6.14,4.9,2.44,24.18,14.16,25.13,18.99.07.35-.03.76,0,1.12-135.91-1.42-273.54-1.99-409.35,0v-.56c10.22-10.13,21.22-20.46,35.18-25.13.51.36,1.1.94,1.68,1.12,2.97.91,5.8-2.35,8.94-.56.09.07-.09.5,0,.56.29.2.53,1.47.84,1.68s6.35,2.21,6.7,2.23c2.86.22,5.64-1.9,8.38-2.23s6.57,1.21,8.94.56c1.02-.28.69-2.05,1.12-2.23.32-.14,6.35,2.28,6.7,2.23,2.02-.29,2.74-6.93,3.35-7.26,1.43-.77,7.77,1.14,9.21-.84.78-1.07,1.43-11.48,2.23-12.29.65.14,3.18-.3,3.35-.28Z"/>
          <g>
            <path class="cls-16" d="M128.75,222.83c5.34-.82.05,7.53,3.35,9.49l.28-8.1c10.5-4.37-.89,12.78.28,17.59l6.14-16.75c7.85,2.33-1.9,9.85-3.63,14.8,2.19-.48,7.2-10.42,8.1-10.33.21.02,1.98,2.89,1.95,3.07-.09.67-9.06,7.44-10.05,8.94,1,1.5,12.07-11.21,9.77-5.31-10.76,11.13-18.41,9.91-28.76-.84l1.4-1.95,10.05,8.94c-1.27-1.74-10.23-9.57-10.33-10.89-.39-4.93,5.21-1.88,5.86,1.4-.49-1.75-3.66-9.6,1.12-8.38,1.35.35,3.62,12.05,4.47,13.96,1.89-3.06-4.59-14.93,0-15.64Z"/>
            <path class="cls-1" d="M327,217.24c5.21-.56,9.25,1.68,6.98,7.54-.8,2.07-19.21,3.83-19.55,2.79-.85-4.6,9.08-9.96,12.57-10.33Z"/>
            <g>
              <path class="cls-16" d="M318.9,245.16c-.01.85.23,2.15-.28,2.79-2.41,3.06-18.38,2.55-22.34,1.68-1.76-.39-3.64-.25-3.07-2.79,2.74-3.14,6.45-10.94,11.45-11.73,8.09-1.28,10.45,4.69,14.24,10.05Z"/>
              <path class="cls-4" d="M318.9,245.16c-3.79-5.36-6.15-11.33-14.24-10.05-5,.79-8.71,8.58-11.45,11.73-.49.56-.85,1.16-1.4,1.68-1.17-5.73,5.77-15.63,11.73-16.2,5.59-.53,15.45,6.73,15.36,12.84Z"/>
            </g>
            <g>
              <path class="cls-1" d="M227.87,234.55c.05-.08.97.22,1.12-.28.75-2.63-2.07-10.05,2.23-6.14l-1.12,6.7,2.51-5.86,3.07,6.42c-.41,2.05-12.51,2.2-3.35,6.14-3.41.89-22.9,3.67-18.43-2.51,1.39-1.93,6.14-3.51,8.38-3.91l-2.51-9.49c1.58-1.23,3.12,7.86,3.91,8.38.94-1.53-2.98-9.61.84-7.54l1.12,8.94,1.95.28c.52-.23.17-.95.28-1.12Z"/>
              <path class="cls-16" d="M222.29,235.11c-2.24.4-6.98,1.98-8.38,3.91-5.76-.52,3.29-12.53,4.19-12.29l4.19,8.38Z"/>
              <path class="cls-16" d="M227.87,234.55c-1.73-.58-2.89-8.86-1.4-8.94,2.37,2.3,1.09,5.92,1.4,8.94Z"/>
            </g>
          </g>
        </g>
      </g>
      <g>
        <path class="cls-21" d="M429.48,252.42c-.95-4.83-20.23-16.55-25.13-18.99-1.39-1.12-2.58-2.08-4.47-2.23.02-.18-.03-.38,0-.56,3.18-20.78,18.72-24.46,13.96-51.1-.98-5.46-5.5-12.38-6.14-17.87-.9-7.75,1.56-14.46,5.03-21.22l-5.58,5.03c.74-8.01-5.38-14.23-7.82-21.22-3.58-10.27-3.07-20.65-1.12-31.27.65-3.53,6.22-17.99,6.14-18.99-.2-2.51-2.96,2.73-3.91,2.51,8.48-18.39,18.04-36.22,26.25-54.73,1.37.14,2.92-.55,3.91.84l-1.12,229.81Z"/>
        <path class="cls-22" d="M63.13,84.33c-2.36,10-9.61,18.48-8.94,29.32.49,7.91,7.13,15.2,8.94,22.34,3.27,12.95-.02,18.81-7.54,28.76-.89-1.85-2.61-3.29-3.63-5.03-8.18-13.95,4.76-19.93,2.79-34.35-.79-5.8-7.2-15.14-12.01-18.71-1.23-.07-.76.3-.56,1.12.61,2.52,3.49,6.97,4.19,10.33,3.79,18.23-7.71,24.55-6.14,37.7l-21.22,36.3c-.01-36.11.47-72.26.56-108.34l43.56.56Z"/>
        <path class="cls-22" d="M39.67,190.44c-1.49,10.06-12.03,30.31-17.31,39.93-.58,1.06-2.15,3.83-3.35,4.19-.05-14.14,0-28.31,0-42.44l21.22-36.3c.82,6.88,9.98,15.94,9.49,19.83-.33,2.66-7.18,12.01-7.82,15.64-1.59.99-1.64-4.88-2.23-.84Z"/>
        <g>
          <path class="cls-22" d="M206.09,21.78l-28.48,61.71,36.3.84c-7.81,16.84-15.08,33.98-22.9,50.82-7.65-2.55-15.6-2.02-23.18.56l3.07,7.26c-1.07.45-1.98,1.27-2.79,1.68-3.15,1.57-4.47,3.41-8.38,4.47-2.61-3.07-6.13-5.17-9.49-7.26l26.81-57.24-68.13-.28c-.94-1.41-1.62-1.03-1.68-1.12l31.27-61.43c22.51.02,45.06-.01,67.57,0Z"/>
          <path class="cls-29" d="M138.52,21.78l-31.27,61.43c-.15-.24-1.8-1.26-2.23-1.95-3.95-6.32.63-20.95-2.51-28.2-4.01,9.77-5.32,20.91-3.07,31.27l-11.73,19.55c-6.64-16.32.85-18.55-.56-33.79-.53-5.76-3.4-11.3-5.03-16.75-1.53-1.53-.56,6.79-.56,7.54.03,12.12-1.46,13.02-3.91,23.46l-5.58-.56c1.64-15.8-3.31-32.29-13.12-44.68,4.23,14.96,7.85,29.72,4.19,45.24l-43.56-.56c0-.09-.56-.07-.56-1.68l29.6-60.31c29.96-.64,59.92-.02,89.91,0Z"/>
          <path class="cls-22" d="M326.16,21.78l-30.16,61.15c-.22,2.58,1.29-.4,2.23,1.95-.67.25-3.01,1.71-3.91,2.23l.84-2.79c-6.6-.63-13.21-.64-19.83-.56-7.74-5.44-20.15-4.12-27.92.56l-32.95-.56c9.56-20.62,19.73-40.99,28.48-61.99,27.73.06,55.48-.04,83.21,0Z"/>
          <path class="cls-22" d="M426.69,21.78c-8.21,18.51-17.77,36.34-26.25,54.73-1.27,2.75-3.26,5.09-4.47,7.82l-36.3-.56c-.81-2.76-3-6.72-4.19-9.49.55,3.36,1.11,6.63,1.4,10.05l-26.25-.56c10.33-20.61,19.85-41.65,30.72-61.99,20.05.05,46.09-1.97,65.34,0Z"/>
          <path class="cls-29" d="M242.95,21.78c-8.75,21-18.92,41.37-28.48,61.99-.34.74-.54.52-.56.56l-36.3-.84,28.48-61.71c12.28,0,24.58-.03,36.86,0Z"/>
          <path class="cls-29" d="M361.35,21.78c-10.87,20.34-20.38,41.38-30.72,61.99-.36.72-.54.52-.56.56-9.42-.39-22.15-1.9-30.72.56-.3.09-.86-.1-1.12,0-.94-2.35-2.45.63-2.23-1.95l30.16-61.15c11.72.02,23.46-.03,35.18,0Z"/>
          <path class="cls-22" d="M48.61,21.78l-29.6,60.31c.06-20-.04-40.02,0-60.03,9.85-.67,19.75-.07,29.6-.28Z"/>
        </g>
        <path class="cls-21" d="M55.31,227.85c-13.96,4.67-24.97,15-35.18,25.13-2.01-5.18-1.1-12.62-1.12-18.43,1.21-.36,2.77-3.12,3.35-4.19,5.28-9.62,15.82-29.87,17.31-39.93,3.55,4.23.99,10.15,1.68,15.36.9,6.79,8.4,18.15,13.96,22.06Z"/>
        <path class="cls-21" d="M247.42,84.33c-.25.15-1.25,1.71-2.23,1.68-4.17.7-7.01,3.11-10.05,5.58-1.23,1-5.5,4.77-6.14,5.86-7.01,11.91,9.2,16.86,17.87,19.27.82.23,2.64.28,3.91.56,2.48.54,19.57,5.79,19.55,1.4,0-.33-4.51-3.91-5.03-4.19,3.93-3.66,12.47-6,16.2-9.49l-59.2,117.84c-4.69-.21-18.87-1.78-22.34-1.12,1.45-6.62-2.98-10.36.84-17.31-9.02,5.55,2.78,16.31-6.98,17.31-.63.07-3.12-.25-2.79-1.68,1.72-8.66,4.75-17.74.84-26.25-.47,4.9-.46,9.95-1.4,14.8-.8,4.14-3.65,9.52-4.47,13.12h-1.12c.12-1.82-.01-26.38-3.07-25.69.37,4.39,1.13,8.66.84,13.12-.13,2.08-1.71,10.52-2.23,13.12l-2.79-.56c.22-10.15,3.77-19.82-1.95-29.04l-2.51,30.99c-1.02-8.73-4.28-17.41-1.68-26.25-1.28.82-3.17,5.5-3.35,6.7-.85,5.75,1.85,14.89,1.12,18.71-1.39.17-3.64-.7-3.35,1.12-3.65-8.72-5.2-16.28-3.63-25.69-6.23,10.88-.7,20.33.84,31.55-7.83-7.52-8.85-16.94-12.57-26.53,1.25,6.17.78,12.63,3.07,18.43-4.59.29-8.63-1.47-12.84-2.79l28.48-55.85c2.4,1.46,6.43,2.14,8.38,4.47-.33.12-5.25,4.13-5.31,4.47,5.42,4,13.45-.63,18.71-1.68,2.75-.55,5.8-.17,8.94-1.12,3.38-1.02,5.95-1.99,8.94-3.91,11.74-7.55,8.69-13.66-1.12-21.22-2.62-2.02-6.19-4.46-9.49-5.03-2.26-.6-5.37-3.28-7.26-3.91,7.82-16.84,15.08-33.98,22.9-50.82.02-.04.21.18.56-.56l32.95.56Z"/>
        <path class="cls-21" d="M356.88,84.33c1.65,19.55-9.22,34.25-6.7,47.75.7,3.76,4.32,9.27,5.03,12.84,2.17,10.92-6,19.43-5.58,30.44-.97-7.48.4-14.8-2.23-22.06-.79-2.18-3.52-4.93-4.47-7.54-3.6-9.94.14-17.83-.84-27.92-3.37,10.27-8.61,19.96-5.86,30.99,1.25,5.02,5.77,10.02,6.14,15.64s-2.9,8.95-1.12,15.08c.97,3.32,5.71,6.81,6.7,10.05.81,2.65,1.8,23.55.84,24.29-11.28-3.66-7.69-18.03-10.33-27.09-1.27-4.37-4.58-6.73-6.14-10.05-5.6-11.88-3.88-23.51-5.03-36.3-2.68,10.76-6.81,21.16-3.91,32.39,1.27,4.9,7.22,12.27,7.82,16.75.98,7.3-2.94,15.2,2.23,22.62l-52.5,8.94c2.51-10.46,12.29-11.62,18.43-18.15-.57-1.02-14.76,6-14.8,9.77-2.4-1.2,4.73-6.45,5.31-7.54,1.19-2.25,1.08-6.68,1.68-7.82.83-1.61,10.38-4.21,10.05-9.49-2.96,4.41-7.57,3.9-10.33,5.31-1.56.8-7.14,18.49-10.05,21.22,1.19-5.96-1.48-13.03.28-18.71,2-6.44,16.87-15.73,8.38-25.69,4.1,10.58-9.36,18.78-11.17,24.57-1.3,4.18.73,7.89-.28,12.01-3.21-2.73-.97-6.52-.84-9.77.08-2.07-.8-7.43-.56-8.38.09-.37,5.38-4.66,3.35-6.42,17.42-26.59,34.93-68.27,49.7-97.73.02-.04.2.17.56-.56l26.25.56Z"/>
        <path class="cls-22" d="M330.07,84.33c-14.78,29.46-32.28,71.14-49.7,97.73-.31.47-4.47,5.8-5.03,5.31-.67-3.63-3.89-6.37-4.47-10.05-.76-4.82,2.34-12.16-1.12-15.08.17,5.83-2.86,11.94-1.68,17.87.73,3.68,5.5,6.88,6.14,11.17.26,1.75-.51,6.6-.84,8.66-.14-10.22-4.32-8.29-9.49-12.29-9.37-7.24,1.78-17.73-9.21-23.73,2.95,5.46,2.52,10.55,2.51,16.47-.78.21-4.28-8.39-6.98-6.98,2.16,1.88,1.92,5.05,3.35,7.26.97,1.5,3.96,3.09,4.47,3.91,1.12,1.82,4.25,7.22,5.03,8.94.11.25-1.52.16-1.12,1.12.84,1.98,5.38,5.63,3.63,9.21-.54-2.56-4.64-2.37-6.14-3.35-3.83-2.5-4.97-7.69-9.21-8.1,2.02,1.6,2.57,5.54,3.91,7.26,2.95,3.8,9.68,5.19,11.17,7.82,1.88,3.31,1.02,11.96,1.68,15.92-.4.14-.74.36-1.12.56-2.63-3.94-3.52-9.32-6.14-13.12-4.38-6.36-13.43-6.47-15.36-16.47-3.06,12.03,8.03,12.24,13.12,18.71,2.05,2.6,3.77,7.74,5.03,10.89-12.01-1.01-27.43-.53-40.21-1.12l59.2-117.84c.19-.18,1.07-1.05,1.12-1.12,1.63,1.49,15.08,11.64,16.2,9.77.07-2.32-.1-4.67,0-6.98.3-7.25-.3-14.56.56-21.78,8.57-2.45,21.29-.94,30.72-.56Z"/>
        <path class="cls-22" d="M158.62,159.16c.78-.49,2.35-2.22,2.51-2.23.62-.05,6.89,5.4,8.1,6.14l-28.48,55.85c-6.42-2.01-18.21-7.57-24.01-8.38,2.19-7.5,3.36-16.4,5.58-23.73,1.56-5.14,5.23-9.6,6.14-15.36l3.63-3.35.28,5.86c4.64-5.73,6.89-13.99,11.17-20.38.07,1.72.81,14.08,1.4,14.52,5.11-2.14,9.12-6.08,13.68-8.94Z"/>
        <path class="cls-14" d="M265.85,223.94c-.12.06.28,1.38-.28,1.68-.28.15-.89-1.49-3.07-1.68-1.25-3.15-2.98-8.29-5.03-10.89-5.1-6.47-16.18-6.67-13.12-18.71,1.92,10,10.97,10.11,15.36,16.47,2.62,3.81,3.51,9.18,6.14,13.12Z"/>
        <path class="cls-22" d="M150.25,141.85c-.88-.54-5.98-4.26-6.42-3.91-.58,1.6-.18,3.38-.28,5.03-.2,3.28-.13,7.3,0,10.61-4.27,6.39-6.53,14.65-11.17,20.38l-.28-5.86-3.63,3.35c1.01-6.38-2.14-20.97-3.35-28.2-.08-.46-.52-4.36-1.68-3.35-4.43,15.65,2.55,36.06-11.17,47.75,1.56-6.37-2.05-11.55-2.79-17.03-2.13-15.74,7.06-24.97,1.12-40.77-2.94-7.81-6.7-4.73-3.35-15.36,3.07-9.74,8.68-19.65,1.68-30.16l68.13.28-26.81,57.24Z"/>
        <path class="cls-21" d="M77.65,84.33c-5.21,22.18,9.61,28.68,7.82,42.16-.5,3.74-4.95,8.9-5.58,12.84-1.9,11.78,6.27,22.86,4.47,32.95-1.02,5.7-8.24,11.07-7.82,17.59-.54-2.26-5.23-6.99-6.14-9.21-6.68-16.35,4.42-20.42,5.58-33.51.92-10.37-2.91-14.81-6.7-23.18-10.44-23.01.65-19.61,2.79-40.21l5.58.56Z"/>
        <path class="cls-22" d="M96.08,160.28c-1.51-4.39-4.87-11.41-5.03-15.92-.28-8.19,5.4-14.95,3.91-24.57-.84-5.41-5.25-10.98-7.26-15.92l11.73-19.55c.54,2.49,3.51,6.39,3.91,9.21,1.52,10.85-5,14.04-6.7,22.34-2.41,11.72,6.99,19.79,5.58,31.27-.61,4.96-5.23,8.65-6.14,13.12Z"/>
        <path class="cls-21" d="M294.33,87.12c-3.51,2.05-7.49,6.2-10.61,8.94-.41-.5-10.3-5.09-11.73-5.58.04-.36-.08-.83,0-1.12.5-1.73,2.16-3.79,2.79-5.58.19,0,.37,0,.56,0,6.62-.08,13.23-.07,19.83.56l-.84,2.79Z"/>
        <path class="cls-21" d="M395.97,84.33c-6.09,13.8-10.3,27.35-6.7,42.72,2.13,9.08,9.03,13.3,4.47,23.73-1.84,4.2-6.45,8.15-8.66,12.29-1.03-4.32-5.11-8.08-6.42-12.01-4.75-14.16,2.82-35.6-2.23-53.05-.19-.67.37-1.99-1.12-1.12-1.7,9.99-2.21,20.1-3.35,30.16-.92,8.04-4.03,14.54-2.79,23.46,1.05,7.6,7.81,13.78,6.7,22.34-.51,3.97-5.49,9.4-7.26,13.68-.29-.07-.95-.42-1.12-.56-16.92-14.04.95-28.8-2.79-43.28-1.98-7.66-7.64-9.1-6.7-20.1,1.38-16.17,7.37-19.3,1.68-38.81l36.3.56Z"/>
        <g>
          <path class="cls-14" d="M51.96,159.72l-3.07-4.47c-2.16,4.81,6.14,11.32,6.98,13.68,1.11,3.13.91,11.98,2.23,16.2s6.47,11.15,7.82,15.08c3.26,9.48,4.8,19.52,5.03,29.6l-5.03-.84c-.09-.06.09-.49,0-.56-1.94-1.44-3.41-1.55-4.47-2.51-.59-.54-1.54-4.01-1.68-4.19-1.56-6.41-.82-14.1-2.23-20.38-1.77-7.9-9.36-14.39-7.26-22.9-1.57.97-7.27,13.89-7.26,15.08,0,.52,2.95,8.94,3.35,9.77l-.56,3.07c1.64,2.54,16.05,20.3,14.8,21.5l-3.63,1.12c-.58-.18-1.17-.76-1.68-1.12-5.56-3.91-13.07-15.27-13.96-22.06-.69-5.2,1.87-11.13-1.68-15.36.6-4.04.64,1.82,2.23.84.64-3.62,7.49-12.98,7.82-15.64.48-3.88-8.67-12.94-9.49-19.83-1.57-13.15,9.93-19.46,6.14-37.7-.7-3.36-3.58-7.81-4.19-10.33-.2-.82-.67-1.19.56-1.12,4.81,3.56,11.22,12.9,12.01,18.71,1.97,14.42-10.97,20.39-2.79,34.35Z"/>
          <path class="cls-23" d="M59.78,221.71c.14.18,1.08,3.65,1.68,4.19,1.06.97,2.53,1.07,4.47,2.51-3.13-1.79-5.97,1.47-8.94.56l3.63-1.12c1.25-1.2-13.16-18.96-14.8-21.5l.56-3.07c2.29,4.81,9.84,13.89,13.4,18.43Z"/>
          <path class="cls-14" d="M87.7,103.87c2.01,4.94,6.42,10.5,7.26,15.92,1.49,9.62-4.19,16.38-3.91,24.57.16,4.51,3.52,11.53,5.03,15.92-.87,4.28.22,8.98-1.12,13.68-1.79,6.27-7.99,12.86-7.82,20.66.35-2.2-.84-5.2-.56-7.26.53-3.86,5.02-11.32,5.58-16.2,1.2-10.26-5.05-19.65-3.91-29.04.73-5.97,5.86-13.14,5.58-20.1-.31-7.66-9.42-15.25-10.61-22.9-1.51-9.69,3.05-17.1,2.79-26.81-.03-1.04-2.4-13.91-3.07-13.68l-1.4,2.23c0-.75-.97-9.07.56-7.54,1.63,5.46,4.49,11,5.03,16.75,1.41,15.24-6.08,17.47.56,33.79Z"/>
          <path class="cls-14" d="M107.25,114.48c-3.35,10.62.41,7.55,3.35,15.36,5.95,15.79-3.25,25.03-1.12,40.77.74,5.49,4.35,10.66,2.79,17.03-.32.28-4.38,4.82-5.03,3.63,2.71-10.86-5.18-18.68-2.79-29.6,2.56-11.68,6.76-11.96,3.91-26.81-1.37-7.16-8.09-14.4-1.12-20.38Z"/>
          <path class="cls-14" d="M69.27,123.98c3.79,8.36,7.63,12.8,6.7,23.18-1.17,13.09-12.26,17.16-5.58,33.51.91,2.23,5.61,6.95,6.14,9.21.58,2.46-.69,9.24-1.12,12.01-4.06-11.94-12.97-22.22-10.61-35.74.58-3.34,4.42-7.57,5.58-10.61,4.57-11.91,2.62-20.29-3.35-31.27l2.23-.28Z"/>
          <g>
            <path class="cls-23" d="M72.06,83.77c-2.14,20.6-13.23,17.2-2.79,40.21l-2.23.28c5.97,10.98,7.92,19.36,3.35,31.27-1.17,3.04-5,7.27-5.58,10.61-2.36,13.52,6.55,23.81,10.61,35.74.43-2.76,1.7-9.55,1.12-12.01-.42-6.52,6.8-11.89,7.82-17.59,1.8-10.09-6.37-21.17-4.47-32.95.64-3.95,5.09-9.1,5.58-12.84,1.79-13.49-13.03-19.99-7.82-42.16,2.45-10.44,3.93-11.33,3.91-23.46l1.4-2.23c.67-.23,3.04,12.64,3.07,13.68.26,9.71-4.31,17.12-2.79,26.81,1.19,7.65,10.3,15.23,10.61,22.9.28,6.96-4.86,14.14-5.58,20.1-1.14,9.39,5.1,18.78,3.91,29.04-.57,4.88-5.05,12.34-5.58,16.2-.28,2.06.9,5.06.56,7.26-.17-7.8,6.03-14.4,7.82-20.66,1.34-4.71.25-9.4,1.12-13.68s5.54-8.16,6.14-13.12c1.41-11.48-7.99-19.56-5.58-31.27,1.71-8.3,8.22-11.49,6.7-22.34-.4-2.82-3.37-6.72-3.91-9.21-2.24-10.36-.94-21.5,3.07-31.27,3.14,7.25-1.43,21.88,2.51,28.2.44.7,2.09,1.71,2.23,1.95.05.09.73-.3,1.68,1.12,7.01,10.51,1.4,20.42-1.68,30.16-6.97,5.98-.26,13.22,1.12,20.38,2.85,14.84-1.35,15.13-3.91,26.81-2.39,10.92,5.51,18.74,2.79,29.6.65,1.19,4.7-3.35,5.03-3.63,13.72-11.69,6.74-32.1,11.17-47.75,1.15-1,1.6,2.89,1.68,3.35,1.21,7.23,4.36,21.82,3.35,28.2-.91,5.76-4.58,10.22-6.14,15.36-2.23,7.33-3.4,16.23-5.58,23.73-.17-.02-2.7.42-3.35.28-.8.8-1.45,11.22-2.23,12.29-1.45,1.98-7.79.06-9.21.84-.61.33-1.33,6.97-3.35,7.26-.35.05-6.38-2.37-6.7-2.23-.43.18-.09,1.95-1.12,2.23-2.36.66-6.12-.9-8.94-.56s-5.51,2.45-8.38,2.23c-.35-.03-6.41-2.04-6.7-2.23s-.55-1.47-.84-1.68l5.03.84c-.23-10.08-1.76-20.11-5.03-29.6-1.35-3.93-6.54-11.03-7.82-15.08s-1.12-13.07-2.23-16.2c-.84-2.36-9.15-8.87-6.98-13.68l3.07,4.47c1.02,1.74,2.74,3.18,3.63,5.03,7.52-9.95,10.81-15.81,7.54-28.76-1.8-7.14-8.45-14.43-8.94-22.34-.67-10.84,6.57-19.32,8.94-29.32,3.66-15.51.05-30.28-4.19-45.24,9.81,12.38,14.77,28.88,13.12,44.68Z"/>
            <path class="cls-10" d="M97.75,198.25c-.06,5.39.73,11.58-.84,16.75-.34-5.54-.5-11.22-.28-16.75h1.12Z"/>
            <path class="cls-6" d="M97.75,198.25h-1.12c.14-3.44-.43-6.92,1.4-10.05.27,3.36-.24,6.68-.28,10.05Z"/>
            <path class="cls-20" d="M115.9,196.02c.89.17-1.29,5.53-1.68,6.14-1.04-2.27.92-4.24,1.68-6.14Z"/>
          </g>
          <path class="cls-21" d="M59.78,221.71c-3.56-4.54-11.11-13.62-13.4-18.43-.4-.84-3.35-9.26-3.35-9.77,0-1.19,5.69-14.11,7.26-15.08-2.1,8.5,5.49,15,7.26,22.9,1.41,6.29.67,13.97,2.23,20.38Z"/>
        </g>
        <g>
          <path class="cls-23" d="M280.37,182.06c2.03,1.76-3.26,6.05-3.35,6.42-.24.95.64,6.31.56,8.38-.13,3.25-2.37,7.05.84,9.77,1.01-4.12-1.02-7.83.28-12.01,1.81-5.8,15.27-13.99,11.17-24.57,8.49,9.96-6.38,19.25-8.38,25.69-1.76,5.68.91,12.75-.28,18.71,2.92-2.73,8.49-20.43,10.05-21.22,2.76-1.41,7.38-.9,10.33-5.31.33,5.28-9.22,7.89-10.05,9.49-.59,1.14-.49,5.57-1.68,7.82-.57,1.09-7.71,6.34-5.31,7.54.04-3.77,14.22-10.79,14.8-9.77-6.14,6.53-15.92,7.69-18.43,18.15-2.45,1.55-4.03,1.89-5.86,4.47-.15-4.07-4.83-3.4-8.1-2.23-.66-3.95.2-12.61-1.68-15.92-1.49-2.63-8.22-4.02-11.17-7.82-1.33-1.72-1.89-5.66-3.91-7.26,4.24.41,5.38,5.59,9.21,8.1,1.5.98,5.6.79,6.14,3.35,1.75-3.58-2.79-7.23-3.63-9.21-.4-.95,1.23-.87,1.12-1.12-.77-1.72-3.91-7.11-5.03-8.94-.5-.82-3.5-2.41-4.47-3.91-1.43-2.21-1.19-5.38-3.35-7.26,2.7-1.41,6.2,7.19,6.98,6.98,0-5.92.44-11.01-2.51-16.47,10.99,6.01-.16,16.5,9.21,23.73,5.17,4,9.35,2.07,9.49,12.29.33-2.06,1.1-6.9.84-8.66-.64-4.29-5.41-7.49-6.14-11.17-1.19-5.94,1.85-12.04,1.68-17.87,3.45,2.92.36,10.26,1.12,15.08.58,3.68,3.79,6.42,4.47,10.05.56.5,4.72-4.83,5.03-5.31Z"/>
          <path class="cls-22" d="M264.45,189.32c7.17,3.16,7.44,10.25,7.82,17.31l-7.82-17.31Z"/>
          <path class="cls-6" d="M277.86,207.75c2.27.02-.95,10.54-1.12,11.73-.74-4.05-1.58-8.18,1.12-11.73Z"/>
        </g>
        <g>
          <path class="cls-14" d="M191.02,220.03c-.04.22-2.3,1.85-.84,3.91l3.63-2.23c9.76-1.01-2.04-11.77,6.98-17.31-3.82,6.96.62,10.7-.84,17.31-.52.1-8.62,5.43-8.94,5.86-.21.29-.36,3.88-1.4,4.75-.27.22-1.81-.22-2.23,0-2.85,1.48-7.11,4.12-7.54-1.68-.05-.62.77-6.51,1.4-6.7,1.89.65.51,3.02.84,5.31.76.34,1.35.88,2.23.84,3.47-.17,1.11-5.89,1.68-8.38.82-3.61,3.67-8.99,4.47-13.12.93-4.85.92-9.9,1.4-14.8,3.92,8.51.89,17.59-.84,26.25Z"/>
          <path class="cls-27" d="M185.99,221.71c-.57,2.49,1.8,8.21-1.68,8.38-2.96-3,.4-5.83.56-8.38h1.12Z"/>
          <path class="cls-19" d="M193.81,221.71l-3.63,2.23c-1.46-2.05.79-3.69.84-3.91-.33,1.43,2.16,1.74,2.79,1.68Z"/>
          <g>
            <path class="cls-23" d="M177.61,221.71c-.04,2.07-1.34,4.51-.28,6.7,1.82-1.33,2.65-4.05,3.07-6.14.53-2.61,2.1-11.04,2.23-13.12.29-4.46-.47-8.74-.84-13.12,3.06-.69,3.19,23.87,3.07,25.69-.16,2.55-3.51,5.38-.56,8.38-.89.04-1.48-.49-2.23-.84-.33-2.29,1.05-4.65-.84-5.31-.62.19-1.44,6.08-1.4,6.7-.87,3.92-15.66,5.79-17.59,5.03-.76-.3-8.13-12.62-8.66-13.96-2.29-5.8-1.82-12.26-3.07-18.43,3.72,9.59,4.74,19.01,12.57,26.53-1.54-11.22-7.07-20.67-.84-31.55-1.57,9.41-.02,16.97,3.63,25.69.23.55.63,3.31.84,3.35.13-1.91,2.19-2.79,2.51-4.47.74-3.82-1.96-12.96-1.12-18.71.18-1.2,2.07-5.88,3.35-6.7-2.6,8.84.65,17.52,1.68,26.25l2.51-30.99c5.72,9.22,2.17,18.89,1.95,29.04Z"/>
            <path class="cls-10" d="M180.4,222.27c-.42,2.09-1.26,4.81-3.07,6.14-1.06-2.19.23-4.63.28-6.7l2.79.56Z"/>
            <path class="cls-10" d="M169.24,222.83c-.32,1.68-2.39,2.55-2.51,4.47-.2-.04-.61-2.8-.84-3.35-.29-1.82,1.96-.95,3.35-1.12Z"/>
            <path class="cls-23" d="M170.35,228.97c.04-.05,1.08-.51,1.12-.56,4.42,1.3.28,6.33-2.79,4.75-.88-3.02,1-3.23,1.68-4.19Z"/>
            <path class="cls-27" d="M171.47,228.41s-1.08.51-1.12.56c-.81-5.57,5.24-5.84,1.12-.56Z"/>
          </g>
        </g>
        <g>
          <path class="cls-23" d="M342.92,145.76c-4.14-3.16-2.13-9.66-3.07-13.96-5.67,9.85,1.33,19.41,3.07,28.76,1.03,5.54.02,16.61,1.68,21.78,2.67,8.32,9.34,8.53,9.49,21.5.09,7.85-2.42,15.38-.56,24.01-3.98,11.09-2.9-7.67-7.82-6.7-2.77-3.2-9.81-5.38-12.29-8.94-5.18-7.41-1.26-15.31-2.23-22.62-.6-4.48-6.55-11.85-7.82-16.75-2.9-11.23,1.22-21.63,3.91-32.39,1.15,12.79-.57,24.42,5.03,36.3,1.56,3.32,4.87,5.68,6.14,10.05,2.64,9.06-.95,23.43,10.33,27.09.96-.75-.03-21.65-.84-24.29-.99-3.24-5.74-6.74-6.7-10.05-1.79-6.13,1.48-9.65,1.12-15.08s-4.89-10.61-6.14-15.64c-2.75-11.04,2.5-20.72,5.86-30.99.97,10.1-2.76,17.99.84,27.92Z"/>
          <g>
            <path class="cls-16" d="M399.88,230.64c-.03.18.02.38,0,.56-.34,2.7.15,3.71,0,6.14-7.24-1.13-15.55,1.62-20.38-2.79l-1.95,2.23c.02-.72-.06-3.72,0-3.91,2.96-8.74,17.52-11.84,22.34-2.23Z"/>
            <path class="cls-1" d="M399.88,237.35c.87.14.46,1.23.84,1.12.36-.1,2.58-5.12,2.51,1.12,0,.7-1.63,4.71-2.51,5.03-2.41.87-22.48-.73-23.73-3.63-.41-.95.52-2.91.56-4.19l1.95-2.23c4.84,4.41,13.14,1.66,20.38,2.79Z"/>
            <path class="cls-15" d="M404.35,233.44c3.79,3.05,5.08,5.37-1.12,6.14.07-6.24-2.15-1.22-2.51-1.12-.38.11.03-.98-.84-1.12.15-2.43-.34-3.44,0-6.14,1.89.16,3.07,1.11,4.47,2.23Z"/>
          </g>
          <path class="cls-23" d="M359.67,83.77c5.69,19.51-.29,22.65-1.68,38.81-.94,11,4.72,12.45,6.7,20.1,3.75,14.48-14.13,29.24,2.79,43.28l.28,3.35c.21.03.69-2.44.84-2.79,1.77-4.29,6.75-9.71,7.26-13.68,1.11-8.56-5.65-14.74-6.7-22.34-1.23-8.92,1.88-15.42,2.79-23.46,1.14-10.05,1.65-20.17,3.35-30.16,1.49-.87.92.44,1.12,1.12,5.05,17.46-2.52,38.9,2.23,53.05,1.32,3.93,5.39,7.69,6.42,12.01,2.21-4.13,6.82-8.09,8.66-12.29.39,4.2-7.82,11.07-8.38,14.24-.39,2.25.86,6.12,0,10.05-1.21,5.54-7.86,12.05-8.38,17.31-.67,6.79,4.93,15.3,5.58,22.34.37,3.94-.3,7.86-.56,11.73-2.64.34-3.53,4.35-4.75,4.75-.33.11-8.14.84-5.86-1.68.3-.44,2.2-9.65,2.23-10.33.47-8.61-6.3-19.41-6.7-28.48l-3.07,4.19c-.77-1.56-1.43-3.08-2.51-4.47-2.19-2.8-11.3-11.06-11.73-12.01-.96-2.13.07-2.55,0-3.07-.42-11,7.75-19.52,5.58-30.44-.71-3.57-4.32-9.08-5.03-12.84-2.52-13.5,8.35-28.2,6.7-47.75-.29-3.42-.85-6.69-1.4-10.05,1.19,2.78,3.38,6.73,4.19,9.49Z"/>
          <path class="cls-3" d="M361.35,190.44c1.08,1.39,1.74,2.9,2.51,4.47l3.07-4.19c.4,9.07,7.17,19.88,6.7,28.48-.04.68-1.93,9.9-2.23,10.33-.57.83-6.1,2.26-6.7,1.4v-26.81l-3.35-13.68Z"/>
          <path class="cls-3" d="M353.53,227.85c-1.86-8.63.65-16.16.56-24.01,1.98-.74,2.16,3.86,2.23,4.75.2,2.41.39,20.76,0,21.78-1.36,3.52-2.63-1.75-2.79-2.51Z"/>
          <g>
            <path class="cls-23" d="M399.88,230.64c-4.81-9.61-19.38-6.51-22.34,2.23l-27.09-1.12c-2.38-3.94-1.69-7.08-4.75-10.61,4.92-.96,3.84,17.79,7.82,6.7.16.76,1.43,6.04,2.79,2.51.39-1.02.2-19.37,0-21.78-.07-.89-.26-5.49-2.23-4.75-.15-12.97-6.82-13.18-9.49-21.5-1.66-5.17-.64-16.24-1.68-21.78-1.74-9.35-8.74-18.91-3.07-28.76.94,4.3-1.07,10.8,3.07,13.96.94,2.6,3.68,5.36,4.47,7.54,2.64,7.26,1.26,14.58,2.23,22.06.07.52-.96.94,0,3.07.42.95,9.54,9.2,11.73,12.01l3.35,13.68v26.81c.61.87,6.13-.57,6.7-1.4-2.27,2.52,5.54,1.78,5.86,1.68,1.21-.4,2.11-4.41,4.75-4.75.26-3.87.93-7.79.56-11.73-.66-7.04-6.25-15.55-5.58-22.34.52-5.27,7.17-11.78,8.38-17.31.86-3.93-.39-7.8,0-10.05.55-3.17,8.77-10.04,8.38-14.24,4.57-10.44-2.34-14.65-4.47-23.73-3.6-15.37.61-28.93,6.7-42.72,1.2-2.73,3.2-5.07,4.47-7.82.95.21,3.71-5.03,3.91-2.51.08.99-5.49,15.46-6.14,18.99-1.95,10.62-2.47,21,1.12,31.27,2.44,7,8.56,13.22,7.82,21.22l5.58-5.03c-3.47,6.77-5.93,13.47-5.03,21.22.64,5.49,5.17,12.41,6.14,17.87,4.76,26.64-10.78,30.32-13.96,51.1Z"/>
            <path class="cls-21" d="M401.56,159.72c-.11,10.4,2.9,11.11,4.47,18.71,1.97,9.57-9.13,19.78-13.4,29.32-1.87-2.69-3.23-11.04-2.79-14.24s4.17-6.16,5.03-8.94c2.46-7.97-1.08-18.7,6.7-24.85Z"/>
            <path class="cls-14" d="M401.56,159.72c-7.78,6.15-4.24,16.89-6.7,24.85-.86,2.77-4.58,5.7-5.03,8.94s.93,11.55,2.79,14.24c-.97,2.17-1.84,7-3.91,7.54-.12-6.83-3.78-14.5-2.79-21.22.51-3.45,4.09-7.22,5.03-10.61,1.36-4.92,1.57-13.42,3.35-17.87.49-1.23,7.22-9.26,7.82-7.82.51,1.16-.56,1.85-.56,1.95Z"/>
            <path class="cls-14" d="M407.42,194.34c.91-.49,1.74.28,1.4,1.4-1.31,9.17-9.49,15.11-12.57,23.73-.56-.44.18-4.49.28-4.75,1.73-4.63,8.46-12.99,11.17-18.43.28-.56-1.21-1.45-.28-1.95Z"/>
          </g>
          <path class="cls-30" d="M368.61,186.53c-.14.35-.63,2.83-.84,2.79l-.28-3.35c.17.14.83.49,1.12.56Z"/>
        </g>
        <g>
          <path class="cls-12" d="M191.02,135.15c1.89.63,5,3.31,7.26,3.91-6.67-1.15-20.99,1.25-27.36,3.91l-3.07-7.26c7.57-2.58,15.53-3.11,23.18-.56Z"/>
          <path class="cls-12" d="M150.25,141.85c3.36,2.09,6.88,4.19,9.49,7.26-.04.01.09.66-.56.56-1.7-3.46-11.78-6.13-15.64-6.7.1-1.65-.3-3.42.28-5.03.44-.35,5.55,3.37,6.42,3.91Z"/>
          <path class="cls-12" d="M191.02,170.33c-5.25,1.05-13.29,5.68-18.71,1.68.06-.34,4.98-4.35,5.31-4.47,2.35-.86,10.55,1.67,13.4,2.79Z"/>
          <path class="cls-12" d="M159.18,149.67c.11.21.53,4.21.56,4.75.02.41-1.12.15-1.12.56.01.65,2.75.4,0,4.19-4.56,2.85-8.57,6.79-13.68,8.94-.59-.44-1.33-12.8-1.4-14.52-.13-3.31-.2-7.33,0-10.61,3.86.57,13.94,3.24,15.64,6.7Z"/>
          <g>
            <path class="cls-18" d="M207.77,144.08c9.81,7.56,12.85,13.67,1.12,21.22l-4.75-6.14c-.7,2.6,1.43,4.29,3.07,5.86-12.35,9.13-14.75-8.69-10.89-17.59-7.12,7.12-5.24,17.41,3.63,21.78-3.14.95-6.18.57-8.94,1.12-2.85-1.12-11.05-3.66-13.4-2.79-1.94-2.32-5.98-3-8.38-4.47-1.21-.74-7.48-6.19-8.1-6.14-.17.01-1.74,1.75-2.51,2.23,2.75-3.79.01-3.53,0-4.19,0-.41,1.14-.15,1.12-.56-.03-.54-.45-4.53-.56-4.75.65.1.52-.55.56-.56,3.9-1.06,5.23-2.9,8.38-4.47,13.26-4.23,26.58-7.05,39.65-.56Z"/>
            <path class="cls-17" d="M198.28,139.06c3.3.57,6.87,3,9.49,5.03-13.07-6.49-26.39-3.67-39.65.56.81-.4,1.72-1.23,2.79-1.68,6.37-2.66,20.69-5.06,27.36-3.91Z"/>
            <path class="cls-12" d="M208.89,165.3c-2.99,1.92-5.56,2.89-8.94,3.91-8.87-4.37-10.75-14.66-3.63-21.78-3.86,8.9-1.46,26.72,10.89,17.59-1.64-1.57-3.78-3.26-3.07-5.86l4.75,6.14Z"/>
            <g>
              <path class="cls-27" d="M208.61,150.78c3.29-.48,4.01,4.92,1.12,5.58-3.74.86-4.23-5.13-1.12-5.58Z"/>
              <g>
                <path class="cls-11" d="M208.61,151.9c2.26-.46,2.65,2.62,1.12,3.35-2.38,1.13-3.23-2.92-1.12-3.35Z"/>
                <path class="cls-13" d="M209.17,152.46c.06,0,1.13.81.56,1.12-1.44.76-1.61-1-.56-1.12Z"/>
              </g>
            </g>
          </g>
        </g>
        <g>
          <path class="cls-12" d="M299.36,84.89c-.85,7.22-.26,14.53-.56,21.78-.52,1.21-2.89.26-3.63,0-3.84-1.34-7.66-3.51-11.45-5.03.05-.17-.04-.38,0-.56.22-1.1.65-4.22,0-5.03,3.12-2.73,7.1-6.89,10.61-8.94.9-.53,3.24-1.99,3.91-2.23.26-.1.81.09,1.12,0Z"/>
          <path class="cls-12" d="M275.34,83.77c-.19,0-.37,0-.56,0-3.97.07-14.53-1.44-15.64,2.79-3.77-.46-10.38-1.16-13.96-.56.98.03,1.99-1.53,2.23-1.68,7.78-4.68,20.18-6,27.92-.56Z"/>
          <path class="cls-12" d="M265.29,114.48c.52.28,5.02,3.86,5.03,4.19.03,4.39-17.07-.85-19.55-1.4l13.68-3.91c.45.55.05.7.84,1.12Z"/>
          <path class="cls-12" d="M298.8,106.67c-.1,2.31.07,4.66,0,6.98-1.12,1.86-14.56-8.29-16.2-9.77.68-.86.82-1.18,1.12-2.23,3.79,1.52,7.61,3.68,11.45,5.03.74.26,3.11,1.21,3.63,0Z"/>
          <path class="cls-12" d="M274.78,83.77c-.63,1.79-2.29,3.85-2.79,5.58-4.41-.84-8.33-2.24-12.84-2.79,1.11-4.24,11.67-2.72,15.64-2.79Z"/>
          <g>
            <path class="cls-18" d="M271.99,90.47c1.43.5,11.32,5.08,11.73,5.58.65.8.22,3.92,0,5.03-6.94,3.59-14.51,10.06-22.06,12.29-4.91,1.45-11.32.55-14.8,3.35-8.67-2.41-24.88-7.35-17.87-19.27.64-1.09,4.91-4.86,6.14-5.86,11.3-6.51,25-5.25,36.86-1.12Z"/>
            <path class="cls-28" d="M283.72,101.08c-.04.18.05.39,0,.56-.29,1.06-.44,1.37-1.12,2.23-.05.06-.92.94-1.12,1.12-3.73,3.5-12.27,5.83-16.2,9.49-.79-.42-.39-.57-.84-1.12l-13.68,3.91c-1.27-.28-3.09-.33-3.91-.56,3.48-2.8,9.89-1.9,14.8-3.35,7.55-2.23,15.11-8.7,22.06-12.29Z"/>
            <path class="cls-17" d="M245.19,86c3.58-.6,10.19.1,13.96.56,4.52.55,8.44,1.96,12.84,2.79-.08.29.04.76,0,1.12-11.86-4.13-25.56-5.39-36.86,1.12,3.05-2.48,5.89-4.89,10.05-5.58Z"/>
            <path class="cls-12" d="M246.58,93.26c5.22,6.32,7.36,17.27-1.68,21.22,3.07-4.19,4.27-9.09,3.63-14.24-.33-2.64-2.96-4.24-1.95-6.98Z"/>
            <g>
              <path class="cls-5" d="M233.74,97.73c4.99-.74,3.55,8.19-1.12,5.03-1.92-1.3-1.13-4.69,1.12-5.03Z"/>
              <g>
                <path class="cls-25" d="M233.18,98.85c2.22-1.04,3.63,2.44,1.68,3.35-2.22,1.04-3.63-2.44-1.68-3.35Z"/>
                <polygon class="cls-9" points="233.74 99.96 234.58 100.24 233.74 101.08 233.46 100.8 233.74 99.96"/>
              </g>
            </g>
          </g>
        </g>
      </g>
    </g>
  </g>
</svg>