<?xml version="1.0" encoding="UTF-8"?>
<svg id="katman_2" data-name="katman 2" xmlns="http://www.w3.org/2000/svg" viewBox="0 0 1207.54 1028.73">
  <defs>
    <style>
      .cls-1 {
        fill: #ddd;
      }

      .cls-2 {
        fill: #a3c72e;
      }

      .cls-3 {
        fill: #4f9d8c;
      }

      .cls-4 {
        fill: #fbe9da;
      }

      .cls-5 {
        fill: #7e757f;
      }

      .cls-6 {
        fill: #fff;
      }

      .cls-7 {
        fill: #86b729;
      }

      .cls-8 {
        fill: #f8ab10;
      }

      .cls-9 {
        fill: #205954;
      }

      .cls-10 {
        fill: #fbcca1;
      }

      .cls-11 {
        fill: #211b41;
      }

      .cls-12 {
        fill: #9f2783;
      }

      .cls-13 {
        fill: #218271;
      }

      .cls-14 {
        fill: #8f898c;
      }

      .cls-15 {
        fill: #faddc2;
      }

      .cls-16 {
        fill: #1f7264;
      }

      .cls-17 {
        fill: #beb5b5;
      }

      .cls-18 {
        fill: #c5c3ca;
      }
    </style>
  </defs>
  <g id="Layer_1" data-name="Layer 1">
    <g id="_Üretken_Nesne" data-name="Üretken Nesne">
      <path class="cls-11" d="M798.09,641.6c.3,2.39-3.93,11.81-2.81,18.94,2.16,13.67,15.86,18.96,28.05,18.23-26.37,15-49.85-19.48-39.27-42.78,4.59.86,13.05-2.02,14.03,5.61Z"/>
      <g>
        <path class="cls-1" d="M862.61,591.11c18.96,10.17,26.79,43.28,40.68,58.91l25.95,40.68c-20.78-10.14-42.27-18.34-63.82-26.65-21.98-8.47-43.73-18.88-67.33-22.44-.97-7.63-9.44-4.75-14.03-5.61-7.2-1.35-21.21-4.28-25.25-1.4.23-1.6-1.04-1.19-1.4-1.4,2.22-2.73.06-3.15-2.1-4.21-59.14-28.8-94.96-61.52-122.73-122.73-21.72-47.87-22.71-116.15-91.17-119.92-5.31-7.63-11.39-14.74-16.83-22.44,23.21,10.6,55.61,9.39,71.53-13.32,3.84-5.48,6.43-18.11,7.01-18.94.15-.21,4.46-.82,4.91-1.4,4.67-5.99,17.58-22.2,25.25-18.23,1.41.73,20.67,21.21,21.74,23.14,8.74,15.84,4.35,37.25,29.45,42.08-76.63,66.65-2.31,174.81,75.04,199.87,30.87,10,83.42,3.47,103.09,14.03Z"/>
        <path class="cls-12" d="M603.13,331.62c-.59.82-3.17,13.45-7.01,18.94-15.92,22.71-48.33,23.93-71.53,13.32-9.93-14.05-16.7-19.39-25.25-37.17-6.44-13.39-21.15-64.5-26.65-70.83l12.62-9.82c5.68,2.46,9,7.15,14.73,9.82,2.56,1.19,9.93-.88,16.83,2.81,11.11,5.95,14.12,27.87,19.64,30.86,8.42,4.55,13.48-3.78,21.04-2.81,3.32.43,31.1,17.58,32.96,21.74,3.44,7.68-.32,22.26,12.62,23.14Z"/>
        <path class="cls-11" d="M1112.28,867.42l1.4,11.92c-85.18-67.98-177.22-131.32-248.26-215.3,21.55,8.31,43.04,16.51,63.82,26.65l-25.95-40.68,208.99,217.41Z"/>
        <path class="cls-6" d="M757.41,633.19c-4.43-2.62-7.97-.95-9.82-1.4-56.17-13.9-120.26-66.02-150.08-118.52-23.63-41.6-28.71-87.56-56.1-126.94,68.46,3.78,69.45,72.05,91.17,119.92,27.77,61.21,63.59,93.93,122.73,122.73,2.16,1.05,4.32,1.48,2.1,4.21Z"/>
        <path class="cls-16" d="M816.32,188.56c.77,1.33,2.46,3.51,2.81,4.21,7.99,16.16,10.68,37.27,1.4,53.3-10.43,18.01-65.77,55.56-84.16,77.85-8.46,10.26-15.64,22.2-21.04,34.36-11.84,7.8-5.47,3.03-12.62-1.4,34.29-59.36,72.7-116.17,109.4-173.92,1.47,1.49,3.19,3.85,4.21,5.61Z"/>
        <path class="cls-9" d="M1091.24,822.54c13.22,16.16,25.41,33.66,30.86,54l-9.82-9.12-208.99-217.41c-13.88-15.63-21.72-48.74-40.68-58.91.45-5.33,14.46,9.28,15.43,10.52,62.52,79.78,148.38,141.69,213.2,220.91Z"/>
        <path class="cls-11" d="M293.15,196.97c57.52,6.86,131.51,23.13,185.15,44.88,2.57,1.04,5.3,3.47,7.01,4.21l-12.62,9.82c-7.57-8.73-81.11-33.67-96.08-37.87-38.87-10.91-79.13-17.65-119.22-22.44,11.81-4.01,24.12.01,35.77,1.4Z"/>
        <path class="cls-5" d="M478.29,227.83v14.03c-53.64-21.75-127.62-38.03-185.15-44.88,4.6-3,15.05-1.86,20.34-1.4,20.85,1.8,46.49,6.15,67.33,9.82,18.41,3.24,86.34,23.31,97.48,22.44Z"/>
        <g>
          <path class="cls-14" d="M960.79,53.91l-133.25,143.77,131.85-129.74c.72,2.39,7.64,6.24,7.01,16.13s-6.65,10.88-9.82,14.73c-12.45,15.12-28,27.81-41.38,42.08l-87.66,77.85c19.05-12.27,37.71-28.98,55.4-44.18,12.68-10.9,64.92-54.2,70.83-64.52,6.44,3.89,4.72,16.61,2.81,23.14-.64,2.19-22.68,31.73-25.25,34.36-1.07,1.1-3.65,1.21-2.81,4.21l-108,74.34c9.28-16.03,6.59-37.14-1.4-53.3L959.39,25.85c2.6,17.57,5.15,5.24,1.4,28.05Z"/>
          <path class="cls-14" d="M959.39,18.84l-143.07,169.72c-1.02-1.76-2.73-4.12-4.21-5.61,19.77-31.11,101.11-176.21,132.55-182.34,19.08-3.72,13.36,10.61,14.73,18.23Z"/>
          <path class="cls-5" d="M959.39,18.84c.38,2.13-.33,4.82,0,7.01l-140.26,166.91c-.35-.7-2.03-2.88-2.81-4.21L959.39,18.84Z"/>
          <path class="cls-5" d="M960.79,53.91c-1.01,6.14-3.59,6.7-1.4,14.03l-131.85,129.74,133.25-143.77Z"/>
          <path class="cls-5" d="M953.78,110.01c-5.91,10.32-58.15,53.62-70.83,64.52-17.69,15.21-36.35,31.91-55.4,44.18l87.66-77.85c13.38-14.27,28.92-26.96,41.38-42.08-.41,2.02-2.19,10.15-2.81,11.22Z"/>
        </g>
        <path class="cls-3" d="M932.74,185.75c-55.25,36.3-110.75,74.35-160.6,117.82-16.83,14.68-40.21,43.77-56.81,54.7,5.4-12.17,12.58-24.11,21.04-34.36,18.38-22.29,73.73-59.83,84.16-77.85l108-74.34c4.23,3.77,3.6,9.13,4.21,14.03Z"/>
        <g>
          <path class="cls-17" d="M1011.29,314.79c-.43.68-1.82,9.89-4.21,13.32-11.34,16.27-26.41,25.11-44.88,31.56l-105.2-27.35c34.39,11.43,68.15,28.13,105.2,28.75,3.31,15.79-17.1,28.82-29.45,33.66l-98.18-41.38c31.03,17.95,62.74,36.25,98.18,44.18-.92,10.98-21.34,25.9-32.26,25.25-1.38-.08-22.48-8.39-25.95-9.82-14.92-6.14-27.82-17.2-42.78-23.14,19.56,16.33,42.35,29.85,67.33,35.77-11.87,19.85-15.09,11-25.25,19.64l-70.13-42.78c19.78,18.31,43.17,35.15,68.73,44.18-3.83,4.95-2.64,15.42-15.43,22.44-2.13,1.17-9.93.8-11.22,1.4l-51.2-30.86,46.99,33.66c-4.43,3.6-7.36,15.91-17.53,18.23-26.05,5.95-74.72-25.05-84.86-49.79,17.72,6.1,54.71,3.78,60.31-18.23,1.93-7.58-1.33-20.3,0-23.84,1.81-4.83,23.05-4.5,28.05-21.04,3.71-12.26-4.26-25.42-2.81-29.45.98-2.73,11.88-3.98,15.43-9.82,2.09-3.43,3-15.14,4.91-16.13,2.67-1.38,15.09.67,22.44-4.21,4.59-3.05,5.46-8.53,10.52-12.62,44.2,4.48,88.51,13.72,133.25,8.42Z"/>
          <path class="cls-17" d="M1203.45,51.1c-93.6,32.09-179.3,83.16-265.8,130.44-5.71,5.99,10.54-2.45,11.22-2.81,52.36-27.53,103.52-57.21,157.09-82.75,25.7-12.25,64.03-23.12,86.26-35.07,6.38,17.64-10.4,35.99-25.25,43.48-19.05,9.61-53.24,17.46-75.04,26.65-53.44,22.53-105.78,47.59-159.2,70.13.59-7.25.96-7.74,0-15.43-.61-4.89.02-10.26-4.21-14.03-.85-3,1.73-3.11,2.81-4.21,44.84-27.66,86.87-60.47,132.55-86.96,23.59-13.68,111.28-61.4,134.65-56.1,11.98,2.71,10.25,18.43,4.91,26.65Z"/>
          <path class="cls-17" d="M1136.12,156.3c.4,3.09,3.56,4.5,2.81,10.52-1.33,10.61-25.85,31.24-35.07,37.17l-194.96,46.99c40.04-6.42,80.52-13.6,119.92-23.14,18.26-4.42,58.97-12.52,73.64-21.04,5.43,25.41-28.39,43.34-46.29,56.1-1.65-2.42,1.51-2.73-4.91-2.81-12.14-.14-37.51,7.09-51.9,8.42-31.42,2.89-63.15,4.3-94.68,5.61,1.47-7.39.17-24.08,1.4-27.35.37-.98,13.34-9.2,16.83-12.62.93-.91,2.61-7.52,4.21-9.12l208.99-68.73Z"/>
          <path class="cls-17" d="M1165.58,108.61c2.07,21.64-8.06,34.14-28.05,43.48-19.59,9.16-54.42,15.96-76.44,23.84-44.2,15.83-88.18,32.37-132.55,47.69.8-6.68,3.33-12.96,4.21-19.64l232.83-95.38Z"/>
          <path class="cls-17" d="M1056.17,264.3c9.14,25.73-34.63,35.41-43.48,47.69l-133.25-7.01c10.58-9.17,20.82-10.72,25.25-28.05,50.67-2.18,101.84-1.42,151.48-12.62Z"/>
          <path class="cls-14" d="M1203.45,51.1c-2.19,3.38-7.75,7.95-11.22,9.82-22.23,11.95-60.56,22.82-86.26,35.07-53.58,25.54-104.74,55.23-157.09,82.75-.68.36-16.93,8.8-11.22,2.81,86.5-47.28,172.2-98.35,265.8-130.44Z"/>
          <path class="cls-5" d="M1166.98,104.4c-.61,1.7-1.63,1.88-1.4,4.21l-232.83,95.38c.12-.9-.07-1.89,0-2.81,53.42-22.54,105.75-47.6,159.2-70.13,21.8-9.19,55.99-17.04,75.04-26.65Z"/>
          <path class="cls-5" d="M1137.52,152.09c-.55,1.69-1.7,1.89-1.4,4.21l-208.99,68.73c.08-.08-.19-1.66,1.4-1.4,44.37-15.32,88.35-31.86,132.55-47.69,22.02-7.88,56.86-14.69,76.44-23.84Z"/>
          <path class="cls-5" d="M1103.86,203.99c-.13.08-1.27,2.73-1.4,2.81-14.66,8.51-55.38,16.61-73.64,21.04-39.4,9.55-79.89,16.72-119.92,23.14l194.96-46.99Z"/>
          <path class="cls-5" d="M1056.17,262.9c.2.29-.16.95,0,1.4-49.64,11.2-100.81,10.45-151.48,12.62.2-.79-.17-1.96,0-2.81,31.53-1.31,63.26-2.72,94.68-5.61,14.39-1.33,39.75-8.55,51.9-8.42,6.42.07,3.26.39,4.91,2.81Z"/>
          <path class="cls-5" d="M1012.69,311.99c-.09.13-.43,1.27-1.4,2.81-44.74,5.3-89.04-3.94-133.25-8.42.08-.06.63-.74,1.4-1.4l133.25,7.01Z"/>
          <path class="cls-5" d="M962.2,359.68c.07.46-.09.96,0,1.4-37.04-.62-70.8-17.32-105.2-28.75l105.2,27.35Z"/>
          <path class="cls-5" d="M932.74,394.74c-.04.92.08,1.89,0,2.81-35.44-7.93-67.15-26.23-98.18-44.18l98.18,41.38Z"/>
          <path class="cls-5" d="M873.83,445.24c-.13.11-1.34,1.32-1.4,1.4-25.55-9.03-48.95-25.87-68.73-44.18l70.13,42.78Z"/>
          <path class="cls-5" d="M900.48,422.79c.8,2.77-1.32,2.67-1.4,2.81-24.97-5.92-47.77-19.44-67.33-35.77,14.96,5.94,27.86,17,42.78,23.14,3.46,1.43,24.56,9.74,25.95,9.82Z"/>
          <path class="cls-14" d="M845.78,470.48c-1.41.66-3.03,1.84-4.21,2.81l-46.99-33.66,51.2,30.86Z"/>
        </g>
        <g>
          <path class="cls-13" d="M932.74,201.18c-.07.91.12,1.9,0,2.81-.88,6.68-3.41,12.96-4.21,19.64-1.59-.26-1.33,1.33-1.4,1.4-1.59,1.6-3.28,8.21-4.21,9.12-3.49,3.43-16.46,11.64-16.83,12.62-1.23,3.27.07,19.96-1.4,27.35-.17.84.2,2.01,0,2.81-4.43,17.34-14.66,18.88-25.25,28.05-.77.67-1.33,1.34-1.4,1.4-5.06,4.1-5.93,9.58-10.52,12.62-7.35,4.88-19.77,2.83-22.44,4.21-1.91.99-2.82,12.7-4.91,16.13-3.55,5.84-14.45,7.08-15.43,9.82-1.45,4.04,6.52,17.19,2.81,29.45-5,16.54-26.24,16.21-28.05,21.04-1.33,3.54,1.93,16.26,0,23.84-5.6,22.02-42.59,24.33-60.31,18.23,10.13,24.75,58.81,55.75,84.86,49.79,10.18-2.33,13.1-14.63,17.53-18.23,1.18-.96,2.8-2.15,4.21-2.81,1.29-.6,9.09-.23,11.22-1.4,35.96,50.71,63.25,107.03,96.78,159.2,42.93,66.8,94.69,127.37,137.46,194.26-64.81-79.23-150.68-141.14-213.2-220.91-.97-1.24-14.98-15.85-15.43-10.52-19.67-10.55-72.22-4.02-103.09-14.03-77.35-25.06-151.67-133.22-75.04-199.87-25.11-4.83-20.71-26.24-29.45-42.08-1.07-1.93-20.33-22.41-21.74-23.14-7.67-3.96-20.58,12.24-25.25,18.23-.45.58-4.76,1.2-4.91,1.4-12.94-.88-9.19-15.46-12.62-23.14-1.86-4.16-29.64-21.31-32.96-21.74-7.56-.98-12.62,7.36-21.04,2.81-5.52-2.98-8.52-24.91-19.64-30.86-6.9-3.69-14.27-1.61-16.83-2.81-5.73-2.66-9.04-7.35-14.73-9.82-1.71-.74-4.44-3.16-7.01-4.21v-14.03c8.58-.67,38.43-20.24,56.81-22.44,130.22-15.58,108.71,115,167.61,151.48,7.15,4.43.78,9.2,12.62,1.4,16.6-10.93,39.97-40.03,56.81-54.7,49.85-43.47,105.35-81.52,160.6-117.82.96,7.69.59,8.18,0,15.43Z"/>
          <path class="cls-6" d="M534.4,237.65c-11.82,53.6,57.99,15.85,23.84-4.21,16.11-1.89,18.34,22.43,6.31,30.86-16.65,11.67-41.92-2.81-35.77-23.14.85-2.8,5.38-3.27,5.61-3.51Z"/>
          <g>
            <path class="cls-11" d="M558.24,233.44c34.15,20.06-35.67,57.81-23.84,4.21,7.17-7.52,13.98-10,23.84-4.21Z"/>
            <path class="cls-6" d="M540.71,236.25c5.15-.8,6.39,9.04,1.4,9.82-5.15.8-6.39-9.04-1.4-9.82Z"/>
            <path class="cls-6" d="M547.72,234.84c3.8-2.42,7.09,3.37,4.21,5.61-2.44,1.9-7.19-3.71-4.21-5.61Z"/>
          </g>
        </g>
      </g>
      <g>
        <path class="cls-7" d="M507.75,509.76c-13.04,31.82-45.18,33.22-69.43,53.3-1.5-6.07-10.43-19.32-7.71-23.84,2.15-3.58,71.23-38.19,75.04-36.47.95,2.24,1.48,4.68,2.1,7.01Z"/>
        <g>
          <g>
            <path class="cls-7" d="M260.89,578.48c-20.59-.65-41.03-3.56-61.72-2.81l-41.38-95.38,38.57,95.38c-7.84.43-41.03,2.2-40.68,11.92.85,23.39,53.98,88.39,72.94,105.2-5.79,2.88-12.29,1.25-18.23,2.1-5.73-7.94-21.99-13.38-31.56-16.83-30.95-11.17-64.92-18.25-96.78-26.65l124.13,44.88c-35.47,5.5-61.86,15.15-93.98,30.86-45.76-18.8-79.15-55.13-112.21-90.47,39.88-9.11,83.08-18.88,124.13-13.32,16.38,2.22,31.86,10.42,48.39,11.92-50.56-64.46-63.27-148.37-35.77-225.12,45.44,53.49,111.66,93.19,124.13,168.31Z"/>
            <path class="cls-2" d="M210.39,694.9c-2.38.34-3.01,1.22-4.21,1.4l-124.13-44.88c31.86,8.4,65.83,15.48,96.78,26.65,9.57,3.46,25.83,8.89,31.56,16.83Z"/>
          </g>
          <path class="cls-2" d="M199.17,575.68c-.93.03-1.88-.05-2.81,0l-38.57-95.38,41.38,95.38Z"/>
        </g>
        <g>
          <path class="cls-18" d="M394.14,926.33c6.37,8.51,14.83,15.63,19.64,25.25-15.95-14.04-26.84-19.57-49.09-14.03l-18.23-8.42c.83-1.23,2.07-3.03,2.81-4.21,5.34,2.92,18.56-7.24,20.34-7.01,1.36.17,16.79,15.66,24.55,8.42Z"/>
          <path class="cls-7" d="M370.29,881.45c1.36,16.14,14.43,32.31,23.84,44.88-7.75,7.25-23.19-8.24-24.55-8.42-1.78-.22-15,9.94-20.34,7.01,6.55-10.58,16.88-31.33,18.23-43.48h2.81Z"/>
          <g>
            <path class="cls-7" d="M552.63,821.14c81.02-.39,150.44,39.18,206.18,94.68-70.05,24.89-142.88,57.19-218.81,38.57-4.22-24.78-12.17-59.48-21.04-82.75l162.7,21.74c-52.83-15.18-109.28-24.12-164.11-24.55-7.04-17.48-16.55-34.4-30.86-46.99l65.92-.7Z"/>
            <path class="cls-2" d="M518.97,871.63c-.06-.15-.81-1.32-1.4-2.81,54.83.42,111.27,9.36,164.11,24.55l-162.7-21.74Z"/>
          </g>
          <g>
            <path class="cls-7" d="M253.87,818.33v4.21c-11.7,12.91-24.43,32.91-30.86,49.09l-148.68,35.77,147.27-32.96c-9.16,24.88-11.03,50.26-12.62,76.44-.18,2.95-4.2,7.28-4.21,7.71-68.28,7.07-135.74-5.72-200.57-25.95,36.58-42.89,85.32-81.66,140.96-96.08,17.87-4.63,36.07-5.21,54-8.42,14.74-2.63,41.67-3.93,54.7-9.82Z"/>
            <path class="cls-2" d="M223.02,871.63c-.61,1.54-1.35,2.66-1.4,2.81l-147.27,32.96,148.68-35.77Z"/>
          </g>
        </g>
        <g>
          <path class="cls-4" d="M430.6,539.21c-2.72,4.52,6.21,17.77,7.71,23.84,24.25-20.08,56.39-21.48,69.43-53.3,1.11,4.12,1.35,10.36,1.4,14.73,1.83,3.11,46.09-21.39,54.7-15.43-.96,56.69-2.37,124.83-40.68,169.72,54.74,6.27,108.36,32.83,147.27,71.53-35.66,30.04-70.99,56.91-117.12,68.03-5.71,1.38-2.67-.16-.7,2.81l-65.92.7c14.31,12.59,23.82,29.51,30.86,46.99.6,1.48,1.35,2.66,1.4,2.81,8.87,23.28,16.82,57.97,21.04,82.75,1.5,8.79,11.32,72.03,4.91,74.34-36.13-9.76-73.2-22.17-102.39-46.29-10.64-8.79-19.45-22.67-28.75-30.86-4.8-9.62-13.27-16.74-19.64-25.25-9.41-12.58-22.48-28.74-23.84-44.88-.84-9.92,1.8-25.99,5.61-35.07l7.01,35.77c17.22,54.86,100.32,98.5,145.17,129.74,8.05-61.8-23.97-156.52-66.62-201.98,7.65-3.23,14.39,9.27,22.44,9.12-10.37-8.8-20.5-17.55-32.26-24.55l1.4-3.51c72.02,35.23,144.84-5.46,204.78-44.88-60.5-39.33-144.63-63.8-214.6-37.17.34-.36,3.88-4.2,1.4-4.21,11.19-6.83,21.5-12.13,33.66-16.83,17.95-6.09,21.73-2.74,35.07-20.34,15.48-20.42,29.72-75.2,32.26-100.99.56-5.68,2.86-35.32-2.1-37.17-43.49,19.36-96.36,46.27-130.44,79.95-11.66,11.53-16.77,21.85-25.95,34.36-1.99,2.72-2.34,5.92-7.01,4.91,1.94-8.65,7.43-17.92,7.01-26.65,4.5-7.99,16.89-26.27,22.44-34.36,14.81-21.59,25.84-11.27,4.21-43.48-17.84-26.57-53.58-47.28-79.25-65.22-22.22,29.17-38.25,67.21-37.17,104.5,30.5,13.01,51.84,35.5,63.12,66.62,1.16,7.57,11.83,46.89,9.82,50.49l-11.22-39.97c-40.66-48.55-115.31-83.69-178.13-64.52-2.17,4.32,45.62,74.42,51.9,81.35,6.58,7.26,13,13.76,22.44,16.83-10.97,4.61,18.03,8.2,23.84,10.52,2.77,1.11,7.57,2.86,9.82,4.21.53.32,8.1,7.11,9.12,8.42-73.39-19.02-156.6,8.22-215.3,54-.35,5.13,43,28.78,49.79,31.56,48.12,19.69,80.02,16.05,127.64-1.4,6.36-2.33,15.98-10.44,23.14-7.01-8.54,5.55-23.21,21.02-29.45,23.84-13.03,5.89-39.96,7.18-54.7,9.82-53.65-2.32-100.6-26.55-141.66-59.61l54.7-41.38c32.12-15.7,58.51-25.36,93.98-30.86,1.2-.19,1.83-1.06,4.21-1.4,5.94-.85,12.44.78,18.23-2.1-18.95-16.8-72.09-81.81-72.94-105.2-.35-9.72,32.84-11.49,40.68-11.92.92-.05,1.88.03,2.81,0,20.69-.76,41.13,2.15,61.72,2.81,6.25.2,14.31,1.16,20.34,2.81l3.51-2.1c3.12-45.7,19.41-91,49.79-125.53,35.53,23.65,68.8,52.46,96.08,85.56Z"/>
          <path class="cls-10" d="M443.23,708.93c-2.54,2.75-9.67,7.59-7.71,12.62,27.97-6.73,51.19-5.19,79.25-.7-35.96-.06-71.91,6.34-94.68,35.77,35.58-2.79,66.66,11.01,98.88,23.14-14.46,4.19-31-4.92-45.59-4.91-14.73.01-30.62,8.15-46.29,4.21l18.94,11.22c-20.29-10.48-45.17-16.5-68.03-12.62,12.14.18,23.96,1.42,35.77,4.21,16.75,27.85,37.76,54.23,53.3,82.75-21.33-19.68-40.79-40.99-61.01-61.72-1.8.22,1.88,8.71,2.1,9.12,2.25,4.02,12.31,18.46,15.43,22.44,7.2,9.18,15.45,17.38,25.25,23.84l-45.59-24.55,7.01,44.88-29.45-40.68c-5.72-1.49-4.17,6.67-4.91,8.42-3.81,9.07-6.45,25.14-5.61,35.07h-2.81c.47-4.23-1.46-9.7-1.4-11.22.74-19.93.04-40.32-.7-60.31-3.41-2.93-11.51,20.76-13.32,23.14l-12.62,11.22,16.13-52.6c-15.5,38.48-48.58,55.89-72.94,86.96l38.57-65.22-49.09,47.69,53.3-83.46,32.26-8.42c7.32,12.16,35.77-2.64,36.47-10.52.04-.44-3.5-4.62-4.21-7.71,17.72-17.52,33.23-33.18,54.7-46.29,2.48,0-1.06,3.84-1.4,4.21Z"/>
          <path class="cls-4" d="M387.12,621.97c-2.14,3.8-7.31,16.86-8.42,21.04l-20.34-53.3c-2.69,7.46,5.51,20.9,3.51,27.35-.67,2.17-4.73,1.26-5.61,5.61-.54,2.69,5.11,17.27,5.61,21.04.4,3.05-1.76,3.94-1.4,6.31-11.28-31.12-32.62-53.61-63.12-66.62-1.08-37.29,14.95-75.33,37.17-104.5,25.67,17.94,61.41,38.65,79.25,65.22,21.63,32.21,10.6,21.89-4.21,43.48-5.55,8.09-17.94,26.38-22.44,34.36Z"/>
          <g>
            <path class="cls-15" d="M370.29,700.51c-7.06,12.68-15.28-14.16-16.83-16.13-15.03-19.16-48.08-42.46-72.23-46.99,24.51,23.33,49.34,48.73,62.42,80.65-.91,1.63-29.98-16.2-32.96-17.53-2.42-1.08-4.44,3.03-9.82,1.4-5.18-1.57-37.07-29.03-39.27-28.05-1.91,10.47,27.76,24.12,17.53,30.86-5.81-2.32-34.81-5.91-23.84-10.52-9.44-3.07-15.87-9.57-22.44-16.83-6.27-6.93-54.07-77.04-51.9-81.35,62.83-19.17,137.47,15.97,178.13,64.52l11.22,39.97Z"/>
            <path class="cls-10" d="M378.71,643.01c-2.98,11.28-3.02,23.02-5.61,34.36l1.4,34.36,19.64-39.97c14.47-17.71,33.29-32.12,47.69-49.79-10.6,18.54-18.61,37.76-26.65,57.51-.95,2.34-1.42,4.13-2.81,7.71-1.53,3.98-11.92,18.34-7.71,21.74,8.02-6.73,17.41-11.87,23.14-21.04,24.76-24.43,57.9-39.55,76.44-70.13l-59.61,82.75-56.1,44.88c-1.88-4.75-4.57-16.01-11.92-16.83-4.9-.55-26.45,8.11-24.55,16.83-5.99-8.97-50.71-33.27-63.12-36.47-2.25-1.35-7.05-3.1-9.82-4.21,10.23-6.74-19.45-20.39-17.53-30.86,2.2-.98,34.09,26.48,39.27,28.05,5.37,1.63,7.4-2.48,9.82-1.4,2.98,1.33,32.05,19.16,32.96,17.53-13.08-31.92-37.9-57.32-62.42-80.65,24.15,4.53,57.21,27.83,72.23,46.99,1.55,1.97,9.77,28.81,16.83,16.13,2.01-3.6-8.66-42.92-9.82-50.49-.36-2.37,1.8-3.26,1.4-6.31-.5-3.77-6.15-18.35-5.61-21.04.88-4.35,4.94-3.44,5.61-5.61,2-6.45-6.2-19.89-3.51-27.35l20.34,53.3Z"/>
          </g>
          <g>
            <path class="cls-4" d="M451.64,794.49c-1.93-1.15-4.11-3.43-5.61-4.21l-18.94-11.22c15.66,3.94,31.55-4.2,46.29-4.21,14.58-.01,31.13,9.1,45.59,4.91-32.23-12.13-63.3-25.93-98.88-23.14,22.77-29.43,58.72-35.83,94.68-35.77-28.05-4.49-51.28-6.03-79.25.7-1.96-5.03,5.17-9.88,7.71-12.62,69.97-26.63,154.1-2.16,214.6,37.17-59.94,39.43-132.76,80.11-204.78,44.88l-1.4,3.51Z"/>
            <path class="cls-6" d="M446.03,790.28c1.5.78,3.69,3.06,5.61,4.21,11.76,7,21.89,15.74,32.26,24.55-8.06.15-14.79-12.34-22.44-9.12-14.68-15.65-26.69-23.09-47.69-28.05-11.81-2.79-23.62-4.03-35.77-4.21,22.85-3.87,47.74,2.14,68.03,12.62Z"/>
          </g>
          <g>
            <path class="cls-4" d="M297.36,790.28c-53.48,58.64-85.43,140.61-72.94,220.91,2.21,2.01,23.42-13.35,27.35-16.13,45.77-32.31,90.25-73.51,114.31-124.83-.06,1.52,1.87,6.99,1.4,11.22-1.35,12.15-11.68,32.9-18.23,43.48-.73,1.18-1.97,2.98-2.81,4.21-7.77,11.53-19.68,25.18-29.45,35.07-28.12,28.44-63.8,52.59-103.09,61.72-5.42-21.86-6.59-44.15-6.31-66.62.01-1.14-2.81-.56-2.81-.7.01-.44,4.03-4.77,4.21-7.71,1.59-26.18,3.46-51.56,12.62-76.44.05-.15.79-1.26,1.4-2.81,6.43-16.18,19.16-36.18,30.86-49.09,13.33-14.7,26.04-23.25,43.48-32.26Z"/>
            <path class="cls-4" d="M366.08,870.23c-24.06,51.33-68.55,92.53-114.31,124.83-3.93,2.78-25.15,18.14-27.35,16.13-12.5-80.31,19.45-162.27,72.94-220.91,9.19-4.75,17.95-9.86,28.05-12.62l-53.3,83.46,49.09-47.69-38.57,65.22c24.35-31.07,57.43-48.48,72.94-86.96l-16.13,52.6,12.62-11.22c1.82-2.38,9.91-26.08,13.32-23.14.74,19.99,1.44,40.38.7,60.31Z"/>
          </g>
          <g>
            <path class="cls-4" d="M461.46,809.92c42.65,45.45,74.67,140.17,66.62,201.98-44.85-31.24-127.95-74.88-145.17-129.74l-7.01-35.77c.73-1.75-.81-9.9,4.91-8.42l29.45,40.68-7.01-44.88,45.59,24.55c-9.8-6.46-18.05-14.66-25.25-23.84-3.12-3.98-13.18-18.42-15.43-22.44-.23-.41-3.91-8.9-2.1-9.12,20.22,20.73,39.68,42.04,61.01,61.72.17.16-.08,3.42,2.1,4.21,2.6-2.4-1.93-3.9-2.1-4.21-15.53-28.52-36.54-54.91-53.3-82.75,21,4.96,33.01,12.41,47.69,28.05Z"/>
            <path class="cls-10" d="M467.07,864.62c.17.31,4.71,1.81,2.1,4.21-2.19-.79-1.93-4.05-2.1-4.21Z"/>
          </g>
          <g>
            <path class="cls-4" d="M352.06,745.4c.06.08.51-.42,1.4,1.4-11.47-1.63-32.54-23.46-41.38-25.25-3.74-.76-5.11,2.85-5.61,2.81-38.33-3.25-62.69,4.88-96.78,21.04l93.98-4.21-65.92,23.84,89.07-9.12-117.12,31.56c35.11-2.4,69.14,1.98,103.09-8.42-10.34,3.74-20.25,9.44-29.45,15.43-7.17-3.43-16.79,4.68-23.14,7.01-47.62,17.45-79.52,21.09-127.64,1.4-6.8-2.78-50.14-26.43-49.79-31.56,58.7-45.78,141.91-73.02,215.3-54-1.01-1.3-8.59-8.1-9.12-8.42,12.41,3.2,57.12,27.5,63.12,36.47Z"/>
            <path class="cls-6" d="M357.67,769.24l-32.26,8.42c-10.11,2.77-18.87,7.88-28.05,12.62-17.44,9.01-30.15,17.56-43.48,32.26v-4.21c6.24-2.82,20.92-18.29,29.45-23.84,9.2-5.98,19.12-11.69,29.45-15.43,14.01-5.07,29.98-8.54,44.88-9.82Z"/>
            <path class="cls-10" d="M353.46,746.8c2.15,4.38,2.08,18.91,4.21,22.44-14.9,1.28-30.87,4.75-44.88,9.82-33.95,10.4-67.98,6.01-103.09,8.42l117.12-31.56-89.07,9.12,65.92-23.84-93.98,4.21c34.09-16.16,58.45-24.29,96.78-21.04.5.04,1.87-3.56,5.61-2.81,8.84,1.79,29.91,23.62,41.38,25.25Z"/>
          </g>
          <path class="cls-8" d="M388.53,745.4c.16.41,1.14,4.46,1.4,5.61.71,3.09,4.25,7.28,4.21,7.71-.7,7.88-29.14,22.68-36.47,10.52-2.12-3.53-2.06-18.06-4.21-22.44-.9-1.83-1.35-1.32-1.4-1.4-1.91-8.72,19.64-17.38,24.55-16.83,7.35.83,10.05,12.08,11.92,16.83Z"/>
          <g>
            <path class="cls-4" d="M478.29,687.89c-11.39,3.86-23.41,5.33-33.66,12.62l59.61-82.75c-18.54,30.58-51.69,45.71-76.44,70.13.48-.78-.5-4.09,0-4.91,11.76-19.39,22.9-39.31,32.96-59.61l-45.59,56.1c8.04-19.75,16.05-38.97,26.65-57.51,7.42-9.1,13.14-19.92,21.04-28.75-2.78-3.99-23.85,12.08-27.35,14.73-13.17,9.97-37.97,33.53-46.99,46.99-3.17,4.73-5.28,18.96-11.22,17.53,1.18-7.87.9-15.32,2.81-23.84,4.68,1.02,5.02-2.19,7.01-4.91,9.18-12.52,14.28-22.84,25.95-34.36,34.09-33.68,86.96-60.59,130.44-79.95,4.96,1.85,2.66,31.49,2.1,37.17-2.55,25.79-16.78,80.57-32.26,100.99-13.34,17.6-17.12,14.25-35.07,20.34Z"/>
            <path class="cls-6" d="M478.29,687.89c-12.17,4.7-22.48,10.01-33.66,16.83-21.48,13.1-36.98,28.77-54.7,46.29-.26-1.15-1.24-5.2-1.4-5.61l56.1-44.88c10.25-7.3,22.27-8.76,33.66-12.62Z"/>
            <path class="cls-6" d="M380.11,648.62c-1.91,8.52-1.63,15.97-2.81,23.84-1.96,13.05-3.48,26.01-2.81,39.27l-1.4-34.36c2.59-11.34,2.63-23.09,5.61-34.36,1.1-4.18,6.28-17.24,8.42-21.04.41,8.73-5.08,18-7.01,26.65Z"/>
            <path class="cls-10" d="M441.82,621.97c-14.4,17.67-33.22,32.08-47.69,49.79l-19.64,39.97c-.68-13.26.85-26.22,2.81-39.27,5.95,1.43,8.05-12.8,11.22-17.53,9.02-13.46,33.82-37.02,46.99-46.99,3.5-2.65,24.57-18.72,27.35-14.73-7.9,8.83-13.62,19.65-21.04,28.75Z"/>
            <path class="cls-10" d="M427.8,687.89c-5.73,9.17-15.12,14.31-23.14,21.04-4.21-3.4,6.18-17.76,7.71-21.74,1.38-3.59,1.85-5.37,2.81-7.71l45.59-56.1c-10.06,20.3-21.2,40.22-32.96,59.61-.5.82.48,4.13,0,4.91Z"/>
          </g>
        </g>
      </g>
    </g>
  </g>
</svg>