<?xml version="1.0" encoding="UTF-8"?>
<svg id="katman_2" data-name="katman 2" xmlns="http://www.w3.org/2000/svg" viewBox="0 0 509.75 433.66">
  <g id="Layer_1" data-name="Layer 1">
    <g id="_Üretken_Nesne" data-name="Üretken Nesne">
      <path d="M155.2,1.48c117.63,8.89,265.15-38.29,332.72,89.54,40.59,76.78,10.23,207.99,19.82,294.07-3.6,25.52-22.38,44.57-47.91,48.57H50.79c-26.09-3.49-46.1-22.97-49.23-49.23,3.69-73.23-4.92-151.34,0-224.02C7.16,77.82,72.96,9.95,155.2,1.48Z" id="background" data-color="#12a553" fill="none" stroke="#000" stroke-width="1"/>
      <g>
        <path d="M246.09,385.12c-.4,1.52-3.54,4.2-.99,5.95,1.49-.83,5.11-1.9,6.61-1.98,7.66-.41,30.57-1.29,37.01,0,2.11.42,6.94,4.21,8.59,5.95l-.66-5.95c12.26,1.4,27.71-4.13,37.01,5.95,1.92-.91-4.05-8.53-4.3-9.25-.04-.13.9-1.41-.33-2.64,39.69.41,79.88-.2,119.61,1.98,4.04.22,44.56,2.58,44.61,4.96l-.99.99c-96.46,7.77-194.43,8.16-291.42,6.61-34.36-.55-70.91-.8-105.07-3.3-3.07-.23-29.58-2.08-29.41-4.3l.99-.99c58.89-6.64,118.5-5.38,177.76-6.61l1.65.99c-1.76,1.01-.64,1.57-.66,1.65Z" id="bottom" data-color="#12a553" fill="none" stroke="#000" stroke-width="1"/>
        <path d="M270.54,351.42c1.95,3.94,20.53,27.62,20.49,29.41-.09,3.79-7.39-.89-8.92-.99-4.16-.28-14.33,1.89-17.84.66-1.63-.57-14.75-22.37-17.51-25.11,7.26-.48,16.64-2.27,23.79-3.96Z" id="leg" data-color="#12a553" fill="none" stroke="#000" stroke-width="1"/>
        <g>
          <path d="M292.35,159.12c21.16,41.02-1.63,92.15-36.01,118.29-36.29,27.59-83.99,29.21-122.58,5.29,1.79-1.79,3.55-2.5,5.29-3.96,40.54,13.13,86.09,13.82,119.94-15.2,15.13-12.97,29.33-33.85,30.4-54.19-19.85,61.65-87.55,88.11-147.03,66.74,1.1-.91,2.22-1.76,3.3-2.64,54.19,18.21,121.22-4,137.78-62.12-24.14,43.97-72.95,58.84-120.6,48.24,42.5-33.75,87.15-65.75,126.88-102.43.97.51,1.83,1.26,2.64,1.98Z" id="body-part1" data-color="#2ab" fill="none" stroke="#000" stroke-width="1"/>
          <path d="M296.32,145.25c.11,2.96,5.83,2.18,8.26,3.3,29.86,13.89,23.88,44.69,28.08,71.7,2.9,18.64,11.57,50.61,33.7,53.2-.18.38.82.34,0,1.98-40.96,46.87-99.78,65.08-160.58,49.23,7.35-3.69,15.83-4.7,23.46-7.6,49.25-18.71,92.8-64.18,84.92-120.6l-5.29,13.22-1.98.33c.93-15.47-2.23-40.02-14.54-50.88-.82-.72-1.68-1.47-2.64-1.98l6.61-11.89Z" id="body-part2" data-color="#2ab" fill="none" stroke="#000" stroke-width="1"/>
          <path d="M366.36,275.43c-16.9,34.01-50.61,63.16-87.23,74.01-2.18.65-6.11,1.39-8.59,1.98-7.15,1.7-16.53,3.49-23.79,3.96-2.92.19-6.27,0-9.25,0-4,0-8.25.26-12.23,0-5.79-.38-23.07-4.43-26.76-3.3l-42.29-18.83c4.55-1.34,21.11-20.45,22.8-20.82,1.82-.39,17.08,1.63,21.81,1.32,15.92-1.03,31.47-6.93,45.27-14.54,32.11-17.71,58.54-51.67,60.8-89.21l1.98-.33,5.29-13.22c7.89,56.42-35.67,101.89-84.92,120.6-7.63,2.9-16.11,3.91-23.46,7.6,60.8,15.85,119.62-2.36,160.58-49.23Z" id="body-part3" data-color="#2a6778" fill="none" stroke="#000" stroke-width="1"/>
          <path d="M306.89,210.01c-2.25,37.54-28.68,71.5-60.8,89.21-13.61,5.59-27.65,11.98-42.62,13.22-6.04.5-23.41.77-29.08,0-8.5-1.15-14.61-8.02-22.8-3.96.07-.89,2.67-2.66,2.64-2.97-.15-1.53-22.83-12.47-23.79-19.16-.46-2.57,2.36-2.7,3.3-3.63,38.6,23.93,86.29,22.3,122.58-5.29,34.39-26.14,57.18-77.26,36.01-118.29,12.31,10.87,15.47,35.41,14.54,50.88Z" id="wing-dark" data-color="#18181c" fill="none" stroke="#000" stroke-width="1"/>
          <path d="M145.65,273.45c5.71-4.66,11.41-9.29,17.18-13.88,47.65,10.6,96.46-4.27,120.6-48.24-16.56,58.12-83.59,80.32-137.78,62.12Z" id="wing-light" data-color="#7a7d80" fill="none" stroke="#000" stroke-width="1"/>
          <path d="M279.13,349.44c2.61,3.69,19.68,30.47,21.48,31.06,7.81,2.59,21.8-4.89,28.75,5.29.24.72,6.21,8.34,4.3,9.25-9.3-10.08-24.75-4.55-37.01-5.95l.66,5.95c-1.65-1.74-6.48-5.52-8.59-5.95-6.44-1.29-29.34-.41-37.01,0-1.5.08-5.12,1.15-6.61,1.98-2.55-1.75.59-4.43.99-5.95l8.59-4.96-17.18-24.78c2.98,0,6.33.19,9.25,0,2.77,2.74,15.88,24.54,17.51,25.11,3.52,1.23,13.68-.94,17.84-.66,1.54.1,8.83,4.78,8.92.99.04-1.79-18.54-25.47-20.49-29.41,2.48-.59,6.41-1.33,8.59-1.98Z" id="tail" data-color="#18181c" fill="none" stroke="#000" stroke-width="1"/>
          <path d="M139.04,278.73c1.13-.95,2.21-1.74,3.3-2.64,59.49,21.36,127.19-5.09,147.03-66.74-1.07,20.34-15.27,41.22-30.4,54.19-33.85,29.02-79.4,28.33-119.94,15.2Z" id="feathers-light" data-color="#7a7d80" fill="none" stroke="#000" stroke-width="1"/>
          <path d="M456.24,137.98c.4-1.2-1.52-1.74-2.31-1.98-19.97-6.01-44.78-9.46-65.42-6.61,1.89-4.22,9.32-13.23,8.92-17.84,22.91,2.11,44.24,12.02,62.12,26.1-.27.56-2.59.36-3.3.33Z" id="tip" data-color="#888989" fill="none" stroke="#000" stroke-width="1"/>
          <path d="M91.46,363.98c-.56-.57-3.97-3.14-3.96-3.63,15.36-12.19,30.14-25.26,45.6-37.34,3.48.02,6.64-6.33,8.26.66-9.07,7.58-18.56,14.96-27.09,23.13-3.02,2.89-16.52,19.65-17.84,19.82-.5.07-4.48-5-4.96-2.64Z" id="foot" data-color="#2b2d31" fill="none" stroke="#000" stroke-width="1"/>
          <g>
            <path d="M246.09,299.22c-13.79,7.61-29.34,13.5-45.27,14.54-4.73.31-19.99-1.71-21.81-1.32-1.69.36-18.25,19.48-22.8,20.82l42.29,18.83c-3.8,1.16-19.26,15.16-25.44,18.5-24.27,13.12-61.23,14.28-81.61-6.61.48-2.35,4.45,2.71,4.96,2.64,1.32-.17,14.82-16.94,17.84-19.82,8.54-8.16,18.03-15.55,27.09-23.13-1.62-6.99-4.78-.64-8.26-.66,5.06-3.95,13.29-11.96,18.5-14.54,8.19-4.06,14.3,2.81,22.8,3.96,5.67.77,23.04.5,29.08,0,14.97-1.24,29.02-7.62,42.62-13.22Z" id="belly" data-color="#18181c" fill="none" stroke="#000" stroke-width="1"/>
            <polygon points="138.05 352.74 122.85 377.19 109.96 373.56 138.05 352.74" id="foot-detail" data-color="#2b2d31" fill="none" stroke="#000" stroke-width="1"/>
          </g>
          <g>
            <path d="M397.42,111.54c.39,4.61-7.03,13.63-8.92,17.84,20.64-2.85,45.45.6,65.42,6.61.8.24,2.71.78,2.31,1.98-102.23-4.16-66.53,22.95-76.66,96.81-2.17,15.84-7.06,25.55-13.22,38.66-22.13-2.59-30.8-34.56-33.7-53.2-4.21-27.01,1.77-57.81-28.08-71.7-2.43-1.13-8.15-.34-8.26-3.3-3.58-47.93,53.79-77.67,90.86-46.26,2.12,1.79,10.05,10.26,10.24,12.56Z" id="head" data-color="#18181c" fill="none" stroke="#000" stroke-width="1"/>
            <g>
              <path d="M365.37,106.26c15.32.32,14.58,26.21-3.3,23.13-12.83-2.21-10.97-23.43,3.3-23.13Z" id="eye-white" data-color="#e7e8ea" fill="none" stroke="#000" stroke-width="1"/>
              <path d="M362.07,108.24c14.36-2.82,17.09,18.16,4.63,19.82-13.65,1.82-15.37-17.71-4.63-19.82Z" id="eye-black" data-color="#18181c" fill="none" stroke="#000" stroke-width="1"/>
              <path d="M361.41,109.56c5.44-.63,6.6,8.31,1.32,9.25-6.98,1.25-6.8-8.62-1.32-9.25Z" id="eye-shine" data-color="#e7e8ea" fill="none" stroke="#000" stroke-width="1"/>
            </g>
          </g>
        </g>
      </g>
    </g>
  </g>
</svg> 