<?xml version="1.0" encoding="UTF-8"?>
<svg id="katman_2" data-name="katman 2" xmlns="http://www.w3.org/2000/svg" viewBox="0 0 512 426.21">
  <defs>
    <style>
      .cls-1 {
        fill: #273131;
      }

      .cls-2 {
        fill: #020203;
      }

      .cls-3 {
        fill: #cbc3bc;
      }

      .cls-4 {
        fill: #5b6063;
      }

      .cls-5 {
        fill: #fbf0e6;
      }

      .cls-6 {
        fill: #344343;
      }

      .cls-7 {
        fill: #e3d9d1;
      }

      .cls-8 {
        fill: #fff;
      }

      .cls-9 {
        fill: #868786;
      }

      .cls-10 {
        fill: #207790;
      }

      .cls-11 {
        fill: #9fa09f;
      }

      .cls-12 {
        fill: #2986a0;
      }

      .cls-13 {
        fill: #437b30;
      }

      .cls-14 {
        fill: #676460;
      }
    </style>
  </defs>
  <g id="Layer_1" data-name="Layer 1">
    <g id="_Üretken_Nesne" data-name="Üretken Nesne">
      <g>
        <g>
          <path class="cls-14" d="M198.29,313.53l-29.71,39.73c.26.61,12.05,3.78,12.78,3.8,2.03.06,6.6-2.03,8.98-2.07,6.61-.11,12.01,2.21,14.85,8.64-2.83,2.35-11.45-3.19-12.09-3.11-1.18.15-1.01,3.02-4.15,3.45-11.98,1.64-25.09-10.55-42.84.69-6.82,4.32-4.57,10.02-6.56,12.78-1.46,2.03-5.19-.76-5.53-2.76-1.05-6.21,8.5-15.26,14.51-15.89-4.37-1.14-10.54.74-14.16,3.11-3.01,1.97-5.83,9.33-8.64,5.18-.63-11.69,13.94-12.04,22.11-15.2-7.44-4.25-8.64-.07-13.47,1.73-1.76.66-3.29-.76-3.45-.69-2.69,1.24-4.9,4.31-6.22,6.91-2.09-4.47,2.76-10.27,6.22-12.44,13.93-8.73,26.3,4.88,31.09,3.45,2.3-.69,24.78-34.2,29.36-38,1.38.56,5.41.92,6.91.69Z"/>
          <path class="cls-14" d="M265.31,315.6l-11.75,51.47c.25.71,13.64,2.39,14.85,2.42s3.84-2.07,4.15-2.07c7.56,0,12.33,1.11,14.16,9.33-2.85-1.33-4.98-4.85-8.64-5.18-6.64-.61-3.6,2.51-6.22,3.45-4.23,1.52-14.03-1.5-18.65-.69-6.87,1.2-21.88,14.7-18.65,23.49-10.23-2.92-2.47-15.01,2.07-20.04-8.95,5.64-19.02,8.56-17.96,21.42-10.34-9.27,1.39-17.22,8.64-23.15-6.51-2.36-8.52,1.7-12.78,3.8-1.41.69-2.64-.76-2.76-.69-2.9,1.73-6.25,6.14-5.53,9.67-6.51-7.47,5.37-17.7,12.44-19.35,5.05-1.17,27.13.26,28.67-1.73l11.75-52.16c.9.17,5.44.2,6.22,0Z"/>
          <path class="cls-1" d="M211.42,287.97c-2.96,8.64-1.34,23.74-13.13,25.56-1.5.23-5.53-.13-6.91-.69-10.08-4.11-7.67-23.73-8.98-32.47l29.02,7.6Z"/>
          <g>
            <path class="cls-1" d="M350.98,266.55l-10.36,6.56,136.11,148.2c-3.09,7.28-18.56,5.09-23.84,2.07l-118.84-147.85c-18.4,7.3-37.39,14.01-57.34,15.2-3.9,1.56-.56,22.08-11.4,24.87-.78.2-5.32.17-6.22,0-9.94-1.88-10.12-17.1-14.51-24.18,23.61-1.95,45.22-17.78,49.75-41.45.22-1.17,1.21-2.49.69-4.15,18.06,7.07,37.52,13.5,55.96,20.73Z"/>
            <g>
              <path class="cls-6" d="M376.54,275.53c14.06,7.98,49.43,44.26,63.22,57.34,17.25,16.37,36.05,34.11,52.16,51.47,3.69,3.97,21.02,21.19,20.04,25.56-1.35,5.97-9.02,2.97-10.02,3.11-.92.12.69,9.92-6.91,12.44-7.78,2.58-12.91-2.11-18.31-4.15l-136.11-148.2,10.36-6.56c7.02,2.75,19.73,5.67,25.56,8.98Z"/>
              <path class="cls-4" d="M357.54,272.77l5.53,2.76,125.4,117.11c1.64,4.63,8.5,13.84,3.11,17.62-6.63,4.65-10.08-.67-14.16-4.49-41.55-38.86-79.44-90.18-120.22-130.58l.35-2.42Z"/>
            </g>
          </g>
        </g>
        <g>
          <path class="cls-13" d="M176.18,129.06c3.91,8.35,1.42,9.69,10.02,17.27,19.33,17.05,59.79,24.7,84.98,23.49,6.73-.32,14.6-3.9,20.38-2.07,4.89,4.2,9.6,8.88,14.51,13.13-.74,1.55-2.18,2.43-3.45,3.45-1.13.9-2.29,1.93-3.45,2.76-.85.61-2.15,1.67-2.76,2.07-.16.1-.63.22-1.38.69-1.36.85-2.81,2.02-4.15,2.76-1.23.69-2.84,1.4-4.15,2.07-.87.44-1.9.97-2.76,1.38-1.08.52-2.77.77-4.15,1.38-1.15.51-2.31.91-3.45,1.38-1.37.57-2.79,1.55-4.15,2.07-1.51.58-3.31.83-4.84,1.38-1.36.49-3.36,1.8-4.15,2.07s-2.8.25-4.15.69c-1.13.36-2.33,1.03-3.45,1.38-1.82.56-4.38.84-6.22,1.38-1.43.42-2.71.97-4.15,1.38-1.08.31-3.08.37-4.15.69s-2.35.98-3.45,1.38c-1.86.68-3.62,1.56-5.53,2.07-21.9-13.87-49.01-36.93-56.65-62.87-3.16-10.74-1.49-24.28-6.91-34.89,2.83,3,5.61,9.21,7.6,13.47Z"/>
          <path class="cls-5" d="M250.11,134.58c12.08,11.77,28.39,21.94,41.45,33.16-5.78-1.83-13.65,1.75-20.38,2.07-25.19,1.21-65.65-6.44-84.98-23.49-8.59-7.58-6.11-8.92-10.02-17.27,10.59-31.23,55.65-5.95,73.93,5.53Z"/>
          <path class="cls-10" d="M376.54,275.53c-5.83-3.31-18.54-6.23-25.56-8.98-18.44-7.23-37.9-13.66-55.96-20.73-3.94-1.54-16.04-9.19-20.73-9.67-14.53-6.88-28.59-14.21-42.15-22.8,1.91-.51,3.66-1.4,5.53-2.07,9.43,6.91,19.6,13.4,30.05,18.65.83.42,3.59.42,4.15.69,7.81,3.78,15.59,8.07,23.49,11.75l2.76-.69-57-31.78c1.06-.32,3.07-.38,4.15-.69,1.54,1.5,5.5,4.56,7.25,5.53,31.8,17.5,74.47,41.35,107.78,51.82.87.27,3.81,3.47,6.22,2.07l-117.11-60.8c1.84-.54,4.4-.82,6.22-1.38-.26,4.54,6.4,4.39,7.25,4.84,41,21.53,84.47,46.27,128.51,64.94,2.04.87,6.83,4.46,9.67,5.53,3.76,1.4,8.46,2.05,12.44,3.45.69.25,0,1.93.69,2.07.17.04,3.03-1.57,3.11-1.73.09-.17-2.76-2.2-3.11-2.42-19.09-11.6-46.22-20.43-66.33-31.09l-88.78-46.98c1.35-.44,3.37-.43,4.15-.69l146.82,75.31c2.42-3.55-5.6-6.37-7.6-8.98l-135.07-68.4c1.53-.55,3.32-.8,4.84-1.38l121.25,62.87c-2.54-3.57-6-7.27-9.67-9.67-21.96-14.41-53.37-25.05-76.69-38l-30.75-17.27c1.14-.47,2.3-.87,3.45-1.38l96.38,50.44-13.82-12.44-78.42-39.38c.86-.41,1.9-.94,2.76-1.38l68.05,34.55c-6.19-10.24-17.64-12.27-26.95-17.27-12.25-6.59-24.29-13.53-36.96-19.35,1.33-.74,2.78-1.91,4.15-2.76-.1,1.65-.25,2.26,1.04,3.45,1.36,1.26,31.35,16.19,33.16,16.58.17.04,2.37-.85,3.45,0-8.68-10.95-23.89-15.1-36.27-20.73.61-.4,1.91-1.47,2.76-2.07l14.16,7.6c5.25.08-9.56-10.76-10.71-10.36,1.28-1.02,2.71-1.91,3.45-3.45,42.97,37.2,85.87,74.54,127.13,113.65l-56.65-19Z"/>
          <path class="cls-12" d="M255.63,206.44c1.13-.35,2.33-1.02,3.45-1.38l88.78,46.98c20.1,10.66,47.24,19.49,66.33,31.09.35.21,3.2,2.24,3.11,2.42-.08.16-2.94,1.76-3.11,1.73-.68-.14,0-1.83-.69-2.07-3.98-1.41-8.68-2.05-12.44-3.45-2.85-1.06-7.63-4.66-9.67-5.53-44.03-18.67-87.51-43.41-128.51-64.94-.86-.45-7.51-.3-7.25-4.84Z"/>
          <path class="cls-12" d="M263.23,204.37c.79-.27,2.78-1.58,4.15-2.07l135.07,68.4c2,2.62,10.02,5.44,7.6,8.98l-146.82-75.31Z"/>
          <path class="cls-12" d="M272.22,200.91c1.35-.52,2.78-1.5,4.15-2.07l30.75,17.27c23.32,12.95,54.73,23.59,76.69,38,3.67,2.41,7.14,6.1,9.67,9.67l-121.25-62.87Z"/>
          <path class="cls-12" d="M249.42,207.82l117.11,60.8c-2.41,1.39-5.35-1.8-6.22-2.07-33.32-10.47-75.98-34.32-107.78-51.82-1.76-.97-5.71-4.03-7.25-5.53,1.43-.41,2.71-.96,4.15-1.38Z"/>
          <path class="cls-12" d="M283.96,196.07l78.42,39.38,13.82,12.44-96.38-50.44c1.38-.61,3.07-.86,4.15-1.38Z"/>
          <path class="cls-12" d="M290.87,192.62c12.67,5.81,24.72,12.76,36.96,19.35,9.31,5.01,20.76,7.03,26.95,17.27l-68.05-34.55c1.31-.67,2.91-1.38,4.15-2.07Z"/>
          <path class="cls-12" d="M237.67,211.27c1.1-.4,2.34-1.05,3.45-1.38l57,31.78-2.76.69c-7.9-3.68-15.68-7.96-23.49-11.75-.56-.27-3.31-.27-4.15-.69-10.45-5.26-20.62-11.74-30.05-18.65Z"/>
          <path class="cls-12" d="M296.4,189.17c12.38,5.62,27.59,9.78,36.27,20.73-1.08-.85-3.29.04-3.45,0-1.81-.4-31.81-15.32-33.16-16.58-1.29-1.2-1.14-1.8-1.04-3.45.75-.47,1.23-.59,1.38-.69Z"/>
          <path class="cls-10" d="M299.16,187.09c1.17-.83,2.32-1.86,3.45-2.76,1.15-.4,15.96,10.44,10.71,10.36l-14.16-7.6Z"/>
        </g>
      </g>
      <g>
        <path class="cls-1" d="M102.94,194c-7.16-28.28-3.31-48.85-2.76-76.69,2.6-3.41.36-3.99,3.8-7.6,10.03-10.53,30.55-16.1,42.84-6.22,31.47,25.3,22.64,93.95-24.87,95.34-7.13.21-12.58-2.39-19-4.84Z"/>
        <path class="cls-3" d="M294.32,249.97c-4.52,23.68-26.13,39.5-49.75,41.45-9.04.75-24.01-1.73-33.16-3.45l-29.02-7.6c-23.72-12.67-46.66-25.65-62.18-48.36,3.75-.53,7.04-2.56,10.36-4.15,32.07,38.14,102.65,60,147.51,33.85,5.77-3.36,10.35-8.84,16.24-11.75Z"/>
        <path class="cls-14" d="M94.65,49.6c.06,15.23-15.71,12.96-25.56,12.44-12.97-.69-26.02-2.88-39.04-3.45H0c29.85-11.71,62.98-10.27,94.65-8.98Z"/>
        <path class="cls-9" d="M94.65,49.6c-31.67-1.29-64.8-2.73-94.65,8.98.32-.96,1.61-1.95,2.07-2.76,7.82-3.5,15.64-7.07,23.84-9.67,14.11-4.48,38.94-4.89,45.25-18.65.65-.22,1.22-.12,2.07-.69,1.93,12.76,21.37,10.13,21.42,22.8Z"/>
        <path class="cls-11" d="M71.16,27.49c-6.31,13.77-31.15,14.18-45.25,18.65-8.2,2.6-16.02,6.17-23.84,9.67,6.46-11.3,28.04-19.28,40.42-22.8,8.47-2.41,21.54-3.1,28.67-5.53Z"/>
        <path class="cls-5" d="M232.14,213.35c13.56,8.59,27.62,15.92,42.15,22.8-5.26-.55-4.8,5.32-7.6,8.64-12.41,14.72-33.7,18.3-52.16,16.93-28.36-2.1-51.53-21.25-70.47-40.76-1.57,1.43-3.31,2-5.18,2.76,23.63-17.23,35.93-44.22,36.62-73.24,7.64,25.94,34.75,49,56.65,62.87Z"/>
        <path class="cls-7" d="M274.29,236.15c4.69.49,16.79,8.13,20.73,9.67.51,1.65-.47,2.98-.69,4.15-5.89,2.9-10.47,8.38-16.24,11.75-44.85,26.15-115.44,4.29-147.51-33.85,2.82-1.35,5.38-2.95,8.29-4.15,1.88-.77,3.61-1.33,5.18-2.76,18.94,19.51,42.11,38.66,70.47,40.76,18.46,1.37,39.75-2.21,52.16-16.93,2.8-3.32,2.34-9.18,7.6-8.64Z"/>
        <g>
          <path class="cls-1" d="M250.11,134.58c-18.28-11.48-63.34-36.76-73.93-5.53-1.99-4.26-4.77-10.47-7.6-13.47,5.42,10.61,3.75,24.15,6.91,34.89-.69,29.02-12.99,56-36.62,73.24-2.92,1.19-5.47,2.8-8.29,4.15-3.33,1.59-6.62,3.62-10.36,4.15-7.33-10.73-14.08-25.4-17.27-38,6.42,2.45,11.87,5.05,19,4.84,47.51-1.4,56.34-70.04,24.87-95.34-12.29-9.88-32.81-4.31-42.84,6.22-3.44,3.61-1.2,4.19-3.8,7.6.55-27.9-7.7-40.52-31.09-55.27,9.85.53,25.62,2.79,25.56-12.44-.05-12.67-19.49-10.04-21.42-22.8.93-.62,7.58-9.99,10.71-12.44,21.65-16.9,56.74-19.37,80.14-4.84,37.19,23.1,50.66,90.62,86.02,125.05Z"/>
          <path class="cls-6" d="M126.78,3.31c20.6-.43,43.36,7.34,55.62,24.53C154,4.15,123.54,1.95,89.47,15.06c10.29-7.16,24.69-11.48,37.31-11.75Z"/>
          <g>
            <path class="cls-4" d="M108.82,19.89c20.48-3.95,26.08,19.91,8.29,22.8-20.08,3.26-24.82-19.61-8.29-22.8Z"/>
            <g>
              <path class="cls-2" d="M109.51,21.97c16.9-3.23,20.6,16.02,7.6,18.65-17.45,3.54-20.43-16.2-7.6-18.65Z"/>
              <path class="cls-8" d="M110.89,22.66c5.32-.33,5.8,6.29,1.38,6.91-5.36.75-7.25-6.55-1.38-6.91Z"/>
              <path class="cls-8" d="M113.65,30.26c2.49-.36,3.18,2.08,1.38,2.76-3.2,1.21-3.53-2.45-1.38-2.76Z"/>
            </g>
          </g>
        </g>
      </g>
    </g>
  </g>
</svg>