<?xml version="1.0" encoding="UTF-8"?>
<svg id="katman_2" data-name="katman 2" xmlns="http://www.w3.org/2000/svg" xmlns:xlink="http://www.w3.org/1999/xlink" viewBox="0 0 512 368.29">
  <defs>
    <style>
      .cls-1 {
        fill: url(#Adsız_degrade_56);
      }

      .cls-2 {
        fill: #fbdade;
      }

      .cls-3 {
        fill: #bf728b;
      }

      .cls-4 {
        fill: #593d50;
      }

      .cls-5 {
        fill: #4c404f;
      }

      .cls-6 {
        fill: #f89621;
      }

      .cls-7 {
        fill: #fef9d6;
      }

      .cls-8 {
        fill: #527680;
      }

      .cls-9 {
        fill: #29a5a9;
      }

      .cls-10 {
        fill: #fcbb34;
      }

      .cls-11 {
        fill: #a75976;
      }

      .cls-12 {
        fill: #f98b8d;
      }

      .cls-13 {
        fill: #78c6c7;
      }

      .cls-14 {
        fill: #fedd95;
      }

      .cls-15 {
        fill: #fbb4bd;
      }

      .cls-16 {
        fill: #feffff;
      }

      .cls-17 {
        fill: #d58fa4;
      }

      .cls-18 {
        fill: #97415a;
      }

      .cls-19 {
        fill: #3b3a47;
      }
    </style>
    <linearGradient id="Adsız_degrade_56" data-name="Adsız degrade 56" x1="40.02" y1="112.66" x2="207.87" y2="124.55" gradientUnits="userSpaceOnUse">
      <stop offset="0" stop-color="#fee3a7"/>
      <stop offset="1" stop-color="#fefbd8"/>
    </linearGradient>
  </defs>
  <g id="katman_2-2" data-name="katman 2">
    <g>
      <g>
        <path class="cls-18" d="M248.71,141.29c-.05,0,.17.92-.24.98-1.15.15-2.04-.52-2.19-.49-6.15-33.6-18.96-67.86-37.07-96.82-9.94-15.9-33.54-49.25-55.36-32.44-19.22,14.81,4.07,48.85,20.24,27.07l-.24-1.22c-15.63,1.24-5.28-19.17,2.68-7.56,9.85,14.36-18.48,31.3-30.73,8.78-10.29-18.92,5.36-38.29,26.09-34.87,32.59,5.38,63.27,79.52,70.97,108.04,2.52,9.33,4.26,19,5.85,28.53Z"/>
        <path class="cls-18" d="M264.81,142.27c-.7-.12-2.07-.45-2.44-.49,4.48-28.6,12.99-56.53,26.34-82.19,10.73-20.62,34.01-60.24,61.7-54.87,29.88,5.79,19.57,51.96-7.32,44.87-7.39-1.95-12.72-12-8.05-18.78,3.99-5.79,12.49-3.44,10.73,3.9-1.12,4.68-8.01,3.09-8.29,4.39,15.55,22.66,39.68-12.78,19.75-27.07-24.44-17.52-51.3,24.76-61.21,42.19-15.41,27.1-25.68,57.35-31.22,88.04Z"/>
        <g>
          <path class="cls-17" d="M273.1,272.98c-.36,6.19-1.27,12.93-2.44,19.02l-7.07-.49c-11.34-3.44-19.09-12.92-24.14-23.17l-.98.73c-.08-2.74-.03-5.55,0-8.29.05-4.32.64-8.85.98-13.17,7.51,12.44,16.8,27.29,33.65,25.36Z"/>
          <path class="cls-17" d="M273.59,262.25c-.99,2.85-.35,6.27-.49,9.27-10.65-3.37-21.35-12.56-24.88-23.41,9.37,2.8,17.02.83,24.39-5.37.37,6.47.15,13.07.98,19.51Z"/>
          <path class="cls-17" d="M269.2,297.86c-1.89,7.34-6.85,25.39-17.8,18.53-5.26-3.29-8.23-16.17-9.51-21.95,8.5,4.24,18.02,5.51,27.31,3.41Z"/>
          <path class="cls-3" d="M270.66,292.01c-.37,1.92-.97,3.95-1.46,5.85-9.3,2.09-18.82.83-27.31-3.41-1.82-8.25-3.16-16.9-3.41-25.36l.98-.73c5.06,10.25,12.8,19.72,24.14,23.17l7.07.49Z"/>
          <path class="cls-3" d="M248.23,248.11c3.53,10.85,14.22,20.04,24.88,23.41-.02.48.03.98,0,1.46-16.85,1.93-26.14-12.92-33.65-25.36.14-1.82.31-3.56.49-5.37.21,2.85,5.89,5.14,8.29,5.85Z"/>
          <path class="cls-17" d="M247.25,189.09c6.82,7.03,17.01,12,26.83,12.19.29,1.6.76,3.28.98,4.88.13.96.42,2.21.49,2.93.11,1.08.45,2.68.49,3.41.02.48-.01.98,0,1.46.04,1.5-.4,3.46-.49,4.88-13.48.36-24.93-7.87-33.65-17.32.53,3.77,2,7.24,3.41,10.73.35.86-.7,1.48-.49,1.95,2.07,4.58,21.91,19.45,28.29,18.29-.23.57-.4,2.28-.49,2.44-.2.37-.46.93-.49.98-5.43,8.02-25.69,7.62-31.7,0-.13-.16-.35-.76-.49-.98-1.5-2.36-2.32-5.09-2.93-7.8-.72-3.23-1.26-7.44-1.46-10.73-.02-.32.01-.65,0-.98-.02-.35,0-.99,0-1.46s0-.98,0-1.46c0-.36.52-.8.49-1.95-.01-.48-.53-.54-.49-.98l.49-.49c.23-.51-.12-2.76,0-3.41.33-1.74.33-4.59.49-5.37.95-4.6,2.49-9.64,3.9-14.14,1.96,1.14,4.64,2.33,6.83,2.93Z"/>
          <path class="cls-3" d="M270.66,186.65c1.31,4.58,2.53,9.47,3.41,14.14.03.16-.03.33,0,.49-9.82-.19-20.01-5.16-26.83-12.19,8.81,2.38,15.23,1.38,23.41-2.44Z"/>
          <path class="cls-3" d="M272.13,235.91c-.11,2.31.36,4.53.49,6.83-7.37,6.2-15.02,8.16-24.39,5.37-2.4-.72-8.08-3.01-8.29-5.85.21-2.1.48-4.23.49-6.34,6.01,7.62,26.27,8.02,31.7,0Z"/>
          <path class="cls-11" d="M269.2,181.77c-.18,1.65,1.06,2.97,1.46,4.39.04.15-.04.34,0,.49-8.18,3.82-14.61,4.82-23.41,2.44-2.19-.59-4.87-1.79-6.83-2.93.68-2.18.57-3.66,1.95-5.85,4.4,8.29,22.19,8.88,26.83,1.46Z"/>
          <path class="cls-3" d="M275.54,218.84c-.16,2.59,0,5.23-.49,7.8-.35,1.84-1.25,4.09-1.95,5.85-6.38,1.16-26.22-13.71-28.29-18.29-.21-.47.84-1.09.49-1.95-1.41-3.49-2.88-6.96-3.41-10.73,8.73,9.44,20.17,17.68,33.65,17.32Z"/>
          <g>
            <path class="cls-17" d="M262.37,141.78c.36.04,1.74.37,2.44.49,6.22,1.08,11.05,3.68,14.63,9.27.52.81,3.23,6.97,3.41,7.8,2.12,9.65-2.11,23.45-12.19,26.83-.41-1.42-1.65-2.74-1.46-4.39,5.18-8.29-3.71,1.18-4.15,1.46-6.41,4.21-17.8,3.01-21.46-4.39-1.86-.34-.95,1.03-1.22,1.46-1.38,2.2-1.27,3.68-1.95,5.85-9.56-5.54-13.22-16.15-11.22-26.83.38-2.04,1.87-6.12,2.93-7.8,2.72-4.35,9.09-8.73,14.14-9.75.15-.03,1.04.64,2.19.49.41-.06.19-.97.24-.98,2.75-.28,10.67.16,13.66.49Z"/>
            <path class="cls-4" d="M269.2,181.77c-4.64,7.42-22.43,6.83-26.83-1.46.27-.43-.64-1.81,1.22-1.46,3.66,7.4,15.05,8.6,21.46,4.39.43-.29,9.33-9.75,4.15-1.46Z"/>
            <g>
              <path class="cls-19" d="M267.49,156.41c11.45-1.52,12.97,13.35,4.88,15.12-11.11,2.43-14.18-13.89-4.88-15.12Z"/>
              <path class="cls-16" d="M265.54,157.87c3.58-.81,3.36,4.63.49,4.88-3.42.3-2.88-4.33-.49-4.88Z"/>
              <path class="cls-8" d="M269.93,165.68c2.43-.74,3.69,2.66,1.46,3.41-3.15,1.07-3.41-2.82-1.46-3.41Z"/>
            </g>
            <g>
              <path class="cls-19" d="M242.62,156.41c12.57-1.81,10.47,17.05-.98,15.12-7.67-1.29-6.75-14.01.98-15.12Z"/>
              <path class="cls-16" d="M246.52,157.87c2.03-.45,4.33,3.95,1.46,4.39-2.28.35-3.85-3.86-1.46-4.39Z"/>
              <path class="cls-8" d="M242.13,165.68c2.11-.99,3.85,2.72,1.46,3.41-2.58.75-2.87-2.76-1.46-3.41Z"/>
            </g>
          </g>
        </g>
      </g>
      <g>
        <g>
          <path class="cls-10" d="M371.63,214.45c-14.56-2.14-29.75-1.17-44.39-2.44-16.98-3.35-34.91-4.81-52.19-5.85-.21-1.6-.69-3.28-.98-4.88-.03-.16.03-.33,0-.49,21.28.2,42.44,3.55,63.65,4.39,21.28.84,70.82,2.92,88.28-7.8,26.6-16.34-1.19-35.92,15.36-54.87,18.3-20.96,31.42-28.07,42.92-56.58,32.31-80.07-38.41-69.49-85.11-42.68-47.51,27.28-82.8,73.99-116.33,116.08-.18-.84-2.9-7-3.41-7.8,41.69-54.11,92.27-108.74,155.84-137.06,54.45-24.26,88.54-23.75,72.92,47.07-8.14,36.89-22.97,50.73-41.95,79.99-15.35,23.67,10.8,33.18-10.73,56.09-21.04,22.39-56.06,18.6-83.89,16.83Z"/>
          <g>
            <path class="cls-14" d="M274.08,200.8c-.88-4.68-2.11-9.57-3.41-14.14-.04-.15.04-.34,0-.49,10.08-3.38,14.32-17.18,12.19-26.83,33.52-42.1,68.82-88.8,116.33-116.08,46.7-26.82,117.42-37.39,85.11,42.68-11.5,28.51-24.62,35.62-42.92,56.58-16.55,18.95,11.24,38.54-15.36,54.87-17.46,10.72-67.01,8.65-88.28,7.8-21.22-.84-42.38-4.19-63.65-4.39Z"/>
            <g>
              <path class="cls-7" d="M441.62,42.28c32.7-2,38.27,34.45,23.66,57.31-13.19,20.62-26.33,19.45-45.6,27.07-11.11,4.39-3.73,16.63-2.68,24.63,4.77,36.32-40.12,42.51-66.58,41.7-79.11-2.4-45.78-40.48-12.44-75.84,21.21-22.49,72.62-72.97,103.65-74.87Z"/>
              <g>
                <path class="cls-9" d="M403.09,76.91c26.78-2.54,28.51,36.02,4.88,38.53-26.12,2.77-29.05-36.24-4.88-38.53Z"/>
                <path class="cls-13" d="M405.52,83.74c16.47-.64,17.89,25.41.49,22.92-12.94-1.85-14.81-22.37-.49-22.92Z"/>
              </g>
              <g>
                <path class="cls-9" d="M368.46,133.49c23.56-3.13,24.41,29.57,5.37,32.19-23.14,3.19-25.4-29.53-5.37-32.19Z"/>
                <path class="cls-13" d="M367.97,140.32c10.41-2.71,19.06,12.35,10.24,17.07-11.28,6.04-20.86-14.31-10.24-17.07Z"/>
              </g>
              <g>
                <path class="cls-9" d="M448.45,49.11c23.1-2.67,21.22,32.66-.98,29.26-15.08-2.31-15.48-27.36.98-29.26Z"/>
                <path class="cls-13" d="M448.93,54.96c13.32-1.65,15.49,19.58.49,16.58-8.65-1.73-9.41-15.48-.49-16.58Z"/>
              </g>
            </g>
          </g>
        </g>
        <g>
          <g>
            <path class="cls-6" d="M371.63,214.45c33.65,4.95,80.66,40.54,75.6,78.28-2.98,22.23-21.69,19.24-36.34,24.14-22.01,7.37-14.52,48.29-48.77,51.21-50.5,4.31-83.18-64.22-88.53-105.84-.83-6.44-.61-13.04-.98-19.51-.13-2.29-.6-4.52-.49-6.83.03-.05.28-.6.49-.98,9.03,9.51,10.25,25.01,14.63,37.31,8.12,22.8,24.85,66.35,51.46,71.94,8.24,1.73,30.99-.74,38.04-5.37,11.94-7.83,8.51-23.2,17.07-28.78,12.43-8.09,27.09-1.2,32.44-24.14,9.66-41.5-50.53-68.92-83.65-71.94-.81-.07-2.44-.41-2.19.98-4.09-1.06-9.01-2.11-13.17-2.93,14.63,1.27,29.83.3,44.39,2.44Z"/>
            <path class="cls-10" d="M272.61,234.94c.09-.16.26-1.87.49-2.44.71-1.76,1.6-4.01,1.95-5.85,12.64,24.59,25.26,49.46,41.46,71.94,5.95,8.26,19.45,27.74,29.51,29.02,12.41,1.59,13.34-3.5,21.7-8.29.96-.55,4.3-.75,5.61-1.46,12.92-7.01,10.8-19.8,19.75-27.8,5.66-5.05,10.72-4.11,16.58-12.44,23.78-33.79-46.78-56.87-69.26-62.68-.25-1.38,1.38-1.05,2.19-.98,33.12,3.02,93.31,30.44,83.65,71.94-5.34,22.95-20.01,16.06-32.44,24.14-8.56,5.57-5.13,20.94-17.07,28.78-7.05,4.62-29.81,7.1-38.04,5.37-26.61-5.6-43.34-49.15-51.46-71.94-4.38-12.3-5.61-27.8-14.63-37.31Z"/>
            <g>
              <path class="cls-15" d="M327.24,212.01c4.16.82,9.08,1.87,13.17,2.93,22.48,5.81,93.04,28.88,69.26,62.68-5.86,8.33-10.93,7.38-16.58,12.44-35.09-30.74-74-57.22-116.08-77.55,29.08,0,77.07,26.47,101.45,42.43,3.53,2.31,8.33,8.1,12.93,8.78,6.5.97,10.65-3.06,7.56-9.51-2.76-5.77-28.63-19.65-35.36-22.68-26.93-12.14-58.71-19.36-88.04-22.44-.07-.72-.36-1.96-.49-2.93,17.28,1.04,35.21,2.5,52.19,5.85Z"/>
              <path class="cls-12" d="M277,212.5c42.08,20.33,80.99,46.81,116.08,77.55-8.96,8-6.83,20.79-19.75,27.8-1.31.71-4.65.92-5.61,1.46,10.91-18.48-5.91-30.72-18.05-41.95-1.12-2.8-6.88-7.53-9.27-9.75-9.63-10.89-23.53-22.39-34.87-31.7-9.4-7.72-19.33-15.45-29.51-21.95-.01-.48.02-.98,0-1.46h.98Z"/>
              <path class="cls-2" d="M378.45,254.94c3.4,2.25,19.62,14.49,20.97,4.15.79-6.04-13.03-14.41-17.8-17.32-30.08-18.32-70.77-28.26-105.6-31.46,29.16,6.18,58.47,16.68,84.14,31.95,6.39,3.8,12.14,8.62,18.29,12.68-24.39-15.97-72.38-42.43-101.45-42.43h-.98c-.04-.73-.38-2.33-.49-3.41,29.33,3.08,61.1,10.29,88.04,22.44,6.73,3.03,32.6,16.91,35.36,22.68,3.09,6.46-1.06,10.48-7.56,9.51-4.59-.68-9.4-6.47-12.93-8.78Z"/>
              <path class="cls-15" d="M378.45,254.94c-6.15-4.06-11.9-8.88-18.29-12.68-25.67-15.27-54.97-25.77-84.14-31.95,34.83,3.2,75.52,13.14,105.6,31.46,4.77,2.9,18.59,11.27,17.8,17.32-1.35,10.34-17.57-1.9-20.97-4.15Z"/>
              <g>
                <path class="cls-15" d="M340.41,267.62c4.44,5.02,13.19,12.93,8.29,20.24-7.06,10.53-22.26-9.48-26.83-14.39-13.54-15.99-25.56-33.24-39.02-49.26-2.02-2.78-3.96-5.6-6.1-8.29.28,3.23,4.2,6.03,6.1,8.29,12.36,17.01,24.67,33.84,39.02,49.26,5.73,6.76,13.08,19.76,23.66,17.56,5.48-1.14,5.82-9.47,4.15-13.66,12.14,11.22,28.95,23.46,18.05,41.95-8.36,4.79-9.3,9.88-21.7,8.29-10.06-1.28-23.56-20.76-29.51-29.02-16.2-22.48-28.82-47.35-41.46-71.94.49-2.58.33-5.21.49-7.8.09-1.42.53-3.38.49-4.88,10.18,6.5,20.11,14.23,29.51,21.95,11.34,9.31,25.25,20.81,34.87,31.7Z"/>
                <path class="cls-2" d="M349.68,277.37c1.68,4.19,1.33,12.52-4.15,13.66-10.57,2.2-17.93-10.8-23.66-17.56,4.57,4.91,19.77,24.92,26.83,14.39,4.9-7.32-3.86-15.22-8.29-20.24,2.38,2.22,8.14,6.95,9.27,9.75Z"/>
                <path class="cls-2" d="M321.88,273.47c-14.35-15.42-26.66-32.26-39.02-49.26,13.46,16.02,25.47,33.27,39.02,49.26Z"/>
                <path class="cls-2" d="M282.86,224.21c-1.9-2.26-5.81-5.06-6.1-8.29,2.14,2.69,4.08,5.52,6.1,8.29Z"/>
                <g>
                  <path class="cls-5" d="M348.46,299.81c12.8-2.73,14.03,14.8,4.88,16.58-12.32,2.39-13.96-14.64-4.88-16.58Z"/>
                  <path class="cls-16" d="M349.43,302.25c8.64-1.55,9.72,10.58,2.93,11.71-7.81,1.29-9.72-10.48-2.93-11.71Z"/>
                </g>
              </g>
            </g>
          </g>
          <g>
            <path class="cls-6" d="M183.36,212.01c-3.38.7-6.89,1.58-10.24,2.44-22.72,1.18-47.81,8.91-65.6,23.41-16.42,13.39-30.61,37.4-17.32,57.8,7.38,11.32,15.04,8.73,25.12,12.93,14.15,5.88,5.88,26.44,25.85,33.17,49.71,16.75,69.41-30.86,83.16-68.53,4.61-12.62,6.03-28.78,15.61-38.29.14.21.36.81.49.98,0,2.11-.28,4.24-.49,6.34-.18,1.81-.35,3.54-.49,5.37-.33,4.32-.92,8.85-.98,13.17-4.76,40.04-34.19,103.7-80.23,107.3s-32.26-44.03-59.02-51.7c-14.1-4.04-31.55-2.66-34.39-23.17-5.27-38.19,41.58-73.77,75.6-78.77,14.09-2.07,28.76-1.19,42.92-2.44Z"/>
            <path class="cls-10" d="M173.11,214.45c-21.24,5.41-84.83,25.33-74.63,56.33,4.07,12.38,13.26,12.79,20.49,18.78,9.66,8.01,8.51,28.53,25.36,29.75,4.83,6.71,16.31,9.66,24.14,7.8,9.79-2.32,32.19-36.06,38.29-45.6,11.18-17.5,20.2-36.24,30.24-54.38.61,2.71,1.43,5.44,2.93,7.8-9.58,9.51-11,25.66-15.61,38.29-13.75,37.67-33.45,85.28-83.16,68.53-19.97-6.73-11.7-27.28-25.85-33.17-10.08-4.19-17.74-1.6-25.12-12.93-13.3-20.4.89-44.41,17.32-57.8,17.8-14.51,42.88-22.23,65.6-23.41Z"/>
            <g>
              <path class="cls-15" d="M236.03,205.67c-.12.66.23,2.9,0,3.41-35.56,3.69-76.25,13.64-107.06,32.19-5.5,3.31-20.96,11.6-16.34,19.27,5.6,9.29,19.26-4.99,24.39-8.54,28.77-17.54,60.19-34.13,93.89-40,.18-.03,3.02-.54,2.19.98-41.43,19.86-79.17,47.07-114.13,76.58-7.23-5.99-16.41-6.4-20.49-18.78-10.2-31.01,53.38-50.92,74.63-56.33,3.35-.85,6.86-1.74,10.24-2.44,17.22-3.56,35.15-4.9,52.68-6.34Z"/>
              <path class="cls-12" d="M235.54,212.5c0,.48,0,.98,0,1.46-7.67,4.67-14.53,10.44-21.46,16.1-9.29,6.89-18.48,14.21-27.07,21.95-4.75,4.28-23.04,20.9-25.12,25.36-11.38,9.2-28.98,26.08-17.56,41.95-16.85-1.22-15.7-21.74-25.36-29.75,34.97-29.51,72.7-56.72,114.13-76.58.55-.27,1.78-.51,2.44-.49Z"/>
              <path class="cls-15" d="M235.54,213.97c0,.47-.02,1.11,0,1.46-11.29,13.07-20.95,27.49-31.7,40.97-5.86,6.98-26.81,33.57-34.39,34.14-5.86.44-8.92-4.54-8.05-10,1.24-7.77,44.17-43.54,52.68-50.48,6.93-5.65,13.79-11.43,21.46-16.1Z"/>
              <path class="cls-15" d="M235.54,209.58c-.04.44.48.5.49.98-35.71,6.05-69.44,21.01-99.01,41.46-4.76,2.91-19.82,16.31-23.9,8.05-3.22-6.53,6.63-11.96,10.97-14.88,31.15-20.89,74.64-30.98,111.45-35.61Z"/>
              <path class="cls-2" d="M236.03,209.09l-.49.49c-36.81,4.63-80.3,14.72-111.45,35.61-4.35,2.91-14.2,8.35-10.97,14.88,4.08,8.27,19.14-5.14,23.9-8.05-5.13,3.55-18.79,17.83-24.39,8.54-4.62-7.66,10.84-15.96,16.34-19.27,30.81-18.55,71.5-28.5,107.06-32.19Z"/>
              <path class="cls-2" d="M236.03,210.55c.03,1.15-.48,1.59-.49,1.95-.66-.02-1.89.22-2.44.49.83-1.52-2.01-1.01-2.19-.98-33.7,5.87-65.13,22.45-93.89,40,29.57-20.44,63.31-35.4,99.01-41.46Z"/>
              <path class="cls-2" d="M214.08,230.06c-8.51,6.94-51.43,42.71-52.68,50.48-.87,5.46,2.19,10.44,8.05,10,7.57-.57,28.53-27.17,34.39-34.14-5.6,7.02-25.25,33.47-32.92,34.63-8.85,1.34-12.51-6.16-9.02-13.66,2.07-4.47,20.37-21.09,25.12-25.36,8.59-7.74,17.78-15.06,27.07-21.95Z"/>
              <g>
                <path class="cls-15" d="M237.01,227.13c-10.04,18.15-19.06,36.88-30.24,54.38-6.1,9.54-28.5,43.28-38.29,45.6-7.83,1.86-19.31-1.09-24.14-7.8-11.42-15.86,6.18-32.74,17.56-41.95-3.48,7.5.17,14.99,9.02,13.66,7.67-1.16,27.32-27.61,32.92-34.63,10.96-13.05,21.11-26.67,31.7-40,.2,3.29.74,7.5,1.46,10.73Z"/>
                <path class="cls-2" d="M235.54,216.4c-10.6,13.33-20.75,26.94-31.7,40,10.76-13.48,20.41-27.9,31.7-40.97.01.32-.02.65,0,.98Z"/>
                <g>
                  <path class="cls-5" d="M158.24,299.81c11.85-2.72,14.56,13.17,6.34,16.1-12.72,4.52-15.64-13.96-6.34-16.1Z"/>
                  <path class="cls-16" d="M159.21,302.25c8.71-2.03,10,10.63,2.93,11.71-7.85,1.19-9.2-10.24-2.93-11.71Z"/>
                </g>
              </g>
            </g>
          </g>
        </g>
        <g>
          <path class="cls-10" d="M232.13,151.53c-1.06,1.69-2.54,5.76-2.93,7.8C190.27,111.08,142.2,47.42,80.2,28.62-8.65,1.68,17.41,85.99,52.64,125.44c5.22,5.84,21.34,18.43,23.41,24.39,5.58,16.09-14.33,33.44,10.97,48.04,17.28,9.97,64.49,8.12,85.36,7.32,21.37-.83,42.75-4.08,64.14-4.88-.16.77-.16,3.63-.49,5.37-17.52,1.44-35.46,2.78-52.68,6.34-14.16,1.25-28.83.37-42.92,2.44-28.7,1.74-66.33,5.79-86.33-19.75-16.75-21.39,6.02-30.21-7.32-51.7C27.06,111.21,10.99,98.09,2.89,57.64-11.31-13.2,28.86-7.46,78.73,15.45c62.12,28.54,112.7,82.49,153.4,136.08Z"/>
          <g>
            <path class="cls-14" d="M229.2,159.34c-2,10.68,1.66,21.28,11.22,26.83-1.41,4.5-2.95,9.55-3.9,14.14-21.39.79-42.77,4.05-64.14,4.88-20.86.81-68.07,2.66-85.36-7.32-25.31-14.6-5.39-31.96-10.97-48.04-2.07-5.96-18.2-18.55-23.41-24.39C17.41,85.99-8.65,1.68,80.2,28.62c62,18.8,110.07,82.46,149.01,130.72Z"/>
            <g>
              <path class="cls-1" d="M65.56,42.28c31.9-1.59,82.58,48.25,104.13,70.48,32.27,33.26,75.54,77.53-7.07,80.23-25.66.84-72.01-4.91-67.55-40.73.96-7.75,8.31-20.39-1.71-25.12-11.26-5.32-20.88-4.07-33.17-13.17-25.44-18.84-32.29-69.83,5.37-71.7Z"/>
              <g>
                <path class="cls-9" d="M103.61,76.91c27.74-3.51,29.36,36.12,5.85,38.53-25.71,2.64-29.39-35.55-5.85-38.53Z"/>
                <path class="cls-13" d="M105.56,83.74c12.63-.61,15.56,15.17,5.37,20.97-18.69,10.65-23.56-20.09-5.37-20.97Z"/>
              </g>
              <g>
                <path class="cls-9" d="M140.68,133c25.78-2.13,24.16,37.72-1.46,32.19-17.2-3.71-16.93-30.67,1.46-32.19Z"/>
                <path class="cls-13" d="M141.65,139.34c14.04-1.91,10.6,19.9-2.93,18.05-10.65-1.46-6.47-16.77,2.93-18.05Z"/>
              </g>
              <g>
                <path class="cls-9" d="M61.66,49.11c19.75-1.91,21.42,26.94,4.39,29.26-19.78,2.7-22.69-27.49-4.39-29.26Z"/>
                <path class="cls-13" d="M63.13,54.96c12.5-1.44,10.94,17.33-1.46,16.58-10.59-.63-7.96-15.5,1.46-16.58Z"/>
              </g>
            </g>
          </g>
        </g>
      </g>
    </g>
  </g>
</svg>