<?xml version="1.0" encoding="UTF-8"?>
<svg id="katman_2" data-name="katman 2" xmlns="http://www.w3.org/2000/svg" xmlns:xlink="http://www.w3.org/1999/xlink" viewBox="0 0 403.2 102.62">
  <defs>
    <style>
      .cls-1 {
        fill: #75746c;
      }

      .cls-2 {
        fill: #ee6a19;
      }

      .cls-3 {
        fill: url(#Adsız_degrade_87);
      }

      .cls-4 {
        fill: url(#Adsız_degrade_86);
      }

      .cls-5 {
        fill: #ed9914;
      }

      .cls-6 {
        fill: #31504c;
      }

      .cls-7 {
        fill: #e55319;
      }

      .cls-8 {
        fill: #d53f04;
      }

      .cls-9 {
        fill: #b74a33;
      }

      .cls-10 {
        fill: #223538;
      }

      .cls-11 {
        fill: #f1ad2e;
      }

      .cls-12 {
        fill: #e2cfc6;
      }

      .cls-13 {
        fill: #fbae61;
      }

      .cls-14 {
        fill: #d91c0a;
      }

      .cls-15 {
        fill: #fcd796;
      }

      .cls-16 {
        fill: #656660;
      }

      .cls-17 {
        fill: #1d1e1c;
      }

      .cls-18 {
        fill: #a2825a;
      }

      .cls-19 {
        fill: #ae160d;
      }

      .cls-20 {
        fill: #867f71;
      }

      .cls-21 {
        fill: #dab423;
      }

      .cls-22 {
        fill: #f9eede;
      }

      .cls-23 {
        fill: #bda094;
      }

      .cls-24 {
        fill: #310909;
      }

      .cls-25 {
        fill: #f5e5c7;
      }

      .cls-26 {
        fill: #fcc68f;
      }

      .cls-27 {
        fill: #fff;
      }

      .cls-28 {
        fill: #a29572;
      }

      .cls-29 {
        fill: #966e14;
      }

      .cls-30 {
        fill: #5c5e4c;
      }

      .cls-31 {
        fill: #1b2526;
      }

      .cls-32 {
        fill: #3c4547;
      }

      .cls-33 {
        fill: #4c5a5d;
      }

      .cls-34 {
        fill: #cb6848;
      }

      .cls-35 {
        fill: #780d0c;
      }

      .cls-36 {
        fill: #e8c865;
      }

      .cls-37 {
        fill: #082263;
      }

      .cls-38 {
        fill: #50696c;
      }

      .cls-39 {
        fill: #19120b;
      }

      .cls-40 {
        fill: #395256;
      }

      .cls-41 {
        fill: #695931;
      }

      .cls-42 {
        fill: #efa169;
      }

      .cls-43 {
        fill: #cab3aa;
      }

      .cls-44 {
        fill: #c89f3d;
      }

      .cls-45 {
        fill: #440907;
      }

      .cls-46 {
        fill: #976f3a;
      }

      .cls-47 {
        fill: #565144;
      }

      .cls-48 {
        fill: #b4965c;
      }

      .cls-49 {
        fill: #220b07;
      }
    </style>
    <linearGradient id="Adsız_degrade_86" data-name="Adsız degrade 86" x1="213.25" y1="55.6" x2="212.39" y2="89.55" gradientUnits="userSpaceOnUse">
      <stop offset="0" stop-color="#c03014"/>
      <stop offset="1" stop-color="#90130d"/>
    </linearGradient>
    <linearGradient id="Adsız_degrade_87" data-name="Adsız degrade 87" x1="212.07" y1="52.23" x2="211.61" y2="76.33" gradientUnits="userSpaceOnUse">
      <stop offset="0" stop-color="#f4edea"/>
      <stop offset="1" stop-color="#dec9c0"/>
    </linearGradient>
  </defs>
  <g id="katman_2-2" data-name="katman 2">
    <g id="_Üretken_Nesne" data-name="Üretken Nesne">
      <g>
        <path class="cls-7" d="M242.85,23.74c.44.02,1.04,0,1.1,0,.19.01,2.61.99,3.65,1.1.36.04.74-.04,1.1,0,27.16,2.93,47.82,10.91,73.04,20.09-1.35,1.41-3.37,1.37-5.11,2.19-24.88-11.25-51.75-19.44-79.43-19.72-.3.18-.3.91,0,1.1.64.4,12.78,1.1,14.97,1.46,13.31,2.18,27.23,6.81,39.26,12.78-17.54-5.61-36.31-8.88-54.41-11.87l.18,4.2c24.56,2.02,48.03,9.39,71.76,15.34.09.02,1.13.69,1.46.73-.38.32-1.75,1.37-1.83,1.46l-8.58-2.92c1.89,1.73,5.64,2.44,8.22,3.29-.02.03-.11.6-.37.73-.17.04-.68.32-.73.37-16.96-3.01-34.27-3.58-51.49-2.56-4.44-2.49-13.02-1.87-18.26-1.83-1.44.01-3.22-.91-4.75-.18l4.75.91c.71,1.04,2.38,4.84.91,5.48l-79.24-.73c.53,1.17,1.8,2.05,2.74,2.92-.16.05-.72.33-.73.37-14.02-3.69-29.5-1.5-43.82-.37-.07-1.76.2-1.68-.73-3.29-.45-.79-.87-1.28-1.83-1.46,20.76-3.49,42.03-1.86,62.99-2.19.2,0,2.57-.73,2.74-.73,3.52-.06,7.88.83,11.32.73.66-.02,2.01-.71,2.37-.73,1.73-.12,6.13.38,7.3,0,.44-.14.81-1.42.91-1.46.02,0-.14-.2.37-.37,6.77-2.18,21.12,3.4,27.02-2.92,5.19-5.56,2.87-14.21,3.65-21.36.21-.48,8.57-.6,9.49-.55Z"/>
        <path class="cls-11" d="M186.24,43.09c-.12.82-.96,4.14-.55,4.38,5.03.57,10.1.81,15.16,1.1.62.03.91-.04,1.46.37-.1.04-.47,1.32-.91,1.46-1.17.38-5.58-.12-7.3,0-.36.02-1.71.71-2.37.73.15-.83-2.2-1.02-2.74-1.1-30.95-4.18-60.33-2.28-91.11,2.19-1.48-.61-2.89-1.62-4.38-2.19,30.32-6.53,61.79-6.51,92.76-6.94Z"/>
        <path class="cls-5" d="M193.18,39.44c-.02.6-.32,10.59,1.83,7.12.19-.3.4-6.41.37-7.12,2-.21,3.88.12,5.84.37l-.37,8.76c-5.05-.29-10.12-.52-15.16-1.1-.41-.24.43-3.56.55-4.38.11-.71-.24-3.35.18-3.65.4-.28,5.72.21,6.76,0Z"/>
        <path class="cls-10" d="M229.7,45.65c-5.9,6.33-20.26.75-27.02,2.92.01-1.41-.42-2.42,1.1-2.92,4.78-1.59,20.04,1.2,25.93,0Z"/>
        <path class="cls-2" d="M58.79,62.81c-.25.5-.98,1.87-1.1,2.19l-17.16,8.03c-1.33-.02-2.68.01-4.02,0l22.28-10.23Z"/>
        <path class="cls-49" d="M195.37,39.44c.03.71-.18,6.82-.37,7.12-2.15,3.46-1.85-6.52-1.83-7.12.31-7.43,1.91-6.63,2.19,0Z"/>
        <path class="cls-39" d="M203.77,45.65c-1.52.51-1.08,1.51-1.1,2.92-.51.16-.34.36-.37.37-.55-.4-.84-.33-1.46-.37l.37-8.76c.11.01,1.64-1.07,2.19.18s-.68,4.33.37,5.66Z"/>
        <path class="cls-4" d="M304.93,56.6c-7.56,11.43-6.02,27.7,3.65,37.25h-142.24c-2.96.1-6.55-2.12-8.95-2.56,1.34.02-.06-.38.73-1.1.04-.04.99.24.91-.73l36.52.37c.55-.93-.21-.64-.73-.73-6.36-1.15-21.75-.44-29.4-.73-.22-1.29-1.61-1.82-2.19-2.56-1.11-1.4-2.27-3.24-3.29-4.75-4.2-6.24-7.05-13.17-10.41-19.72-.75.59-2.19.42-3.1.37-9.75-.56-19.51,2.92-29.21,3.65-1.06-1.71.07-5.59,0-7.3,14.32-1.13,29.8-3.33,43.82.37-.08.28.05.75,0,1.1-2.35-1.09-.42,1.93,0,2.92-.61.59.45,2.86.73,3.47,1.36,3.02,8,15.05,10.77,15.89.43.13,1.89.25,1.64-.73.28.11.93.98,1.64,1.1,2.15.35,6.25-.51,8.03,0,1.2.34,3.36,4.55,5.11,5.11h40.54l-.55-.73c15.48-.03,30.91-.52,46.38-.73,1.67-.02,1.68,1.16,3.29-.37.07-.06.68.14.73-.18.18-1.07-9.59-15.22-10.59-17.53l23.37-1.83c-8.71-2.7-17.99-2.3-27.02-2.37h-.37c-.14-.72-5.14-8.35-5.84-9.13,15.37.57,30.78-.53,46.01,2.19Z"/>
        <path class="cls-45" d="M116.49,54.78c.93,1.61.66,1.53.73,3.29s-1.06,5.59,0,7.3c.07.11-.16.54.18.73l29.03-4.38c.91.05,2.35.23,3.1-.37,3.35,6.55,6.21,13.48,10.41,19.72l-13.33-1.46,1.46-8.4c-1.75-.99-21.97,2.31-26.66,1.1-.9-.23-4.71-4.05-4.56-.73l-.37-16.8Z"/>
        <path class="cls-26" d="M316.61,47.11c-1.95.92-4.54,2.64-6.21,4.02-.34-.04-1.37-.71-1.46-.73.78-1.54-1.18-.69-1.28-.73-5.18-2.08-10.96-5.25-16.25-6.94-12.03-5.97-25.94-10.6-39.26-12.78-2.19-.36-14.34-1.06-14.97-1.46-.3-.19-.3-.92,0-1.1,27.68.28,54.54,8.47,79.43,19.72Z"/>
        <path class="cls-42" d="M291.42,42.73c5.29,1.69,11.07,4.86,16.25,6.94.09.04,2.06-.81,1.28.73-23.73-5.94-47.2-13.31-71.76-15.34l-.18-4.2c18.1,2.99,36.87,6.26,54.41,11.87Z"/>
        <path class="cls-42" d="M307.12,54.05c-.34.33-1.99,2.25-2.19,2.56-15.24-2.72-30.64-1.62-46.01-2.19-.52-.58-2.69-2.59-3.29-2.92,17.22-1.03,34.53-.45,51.49,2.56Z"/>
        <path class="cls-15" d="M191.72,51.13c-3.44.1-7.8-.79-11.32-.73-22.23-2.12-44.83-1.17-67.01,1.1-1.45.15-6.35.53-6.76,1.83-2.09-.06-5.04.81-6.94.37-.11-.03-1.31-1.25-1.83-1.46,30.78-4.47,60.16-6.37,91.11-2.19.54.07,2.89.27,2.74,1.1Z"/>
        <path class="cls-19" d="M182.59,78.88l-1.46-.55c2.09,1.99-7.07,2.16-7.49,2.01-1.16-.43-9.87-19-12.6-20.82.05-.34-.08-.82,0-1.1.01-.04.57-.31.73-.37,7.27,6.74,14.11,13.51,20.82,20.82Z"/>
        <path class="cls-13" d="M180.4,50.4c-.17,0-2.54.73-2.74.73-20.96.33-42.24-1.3-62.99,2.19-1.98-.38-5.76.07-8.03,0,.41-1.3,5.3-1.68,6.76-1.83,22.18-2.27,44.78-3.22,67.01-1.1Z"/>
        <path class="cls-24" d="M106.63,53.32c2.27.07,6.06-.38,8.03,0,.96.18,1.37.67,1.83,1.46l.37,16.8c.45-.07.68.71.73.73-1.92,1.29.98,2.13.37,2.92-1.07-.1-5.9.38-6.57.73-1.9.39-.86-2.6-1.1-4.02h2.92c.29.73-.42,1.23.91,1.1,1.59-.67,1.76-13.12,1.28-14.79-.22-.75-3.94-4.01-4.38-1.28-2.41-.69-5.55-.43-8.03-.37-1.25.03-2.33.56-3.65,0-.87-1.74-.36-.97.37-2.92,1.89.45,4.85-.43,6.94-.37Z"/>
        <path class="cls-42" d="M308.58,52.59s-.13.04-.37.37c-2.58-.85-6.32-1.56-8.22-3.29l8.58,2.92Z"/>
        <path class="cls-42" d="M237.37,49.66c.03.23-.06.65,0,.73l-4.75-.91c1.53-.72,3.31.19,4.75.18Z"/>
        <g>
          <path class="cls-19" d="M36.52,73.04c1.33.01,2.68-.02,4.02,0,.97.02,1.95-.03,2.92,0,1.09.03,2.21-.07,3.29,0,.98.06,3.95-.38,4.38.55-.99,3.93.3,8.79-.73,12.6h-31.22c-.74-.52,2.78-11.38,3.1-13.15,3.75-.53,10.19-.03,14.24,0Z"/>
          <path class="cls-14" d="M22.28,73.04c-.33,1.76-3.84,12.62-3.1,13.15h31.22c-.47,1.73-3,5.55-4.75,5.84-6.26,1.04-19.28.02-26.29,0-6.44-.02-12.94.2-19.35-.18.95-.9,3.29-5.37,4.2-5.66,2.27-.71,12.09.73,13.51,0l3.1-12.6c.61-1.25,1.38-.54,1.46-.55Z"/>
          <path class="cls-35" d="M52.22,86.55c.09,3.4-.07,6.83,0,10.23H8.22c-3.69-5.92,7.69-3.95,11.14-4.02,7.57-.14,19.38,1.06,26.29,0,3.65-.56,3.22-4.52,5.84-6.94,0,.05.73.68.73.73Z"/>
          <path class="cls-42" d="M45.65,92.03v.73c-6.91,1.06-18.72-.14-26.29,0v-.73c7.01.02,20.04,1.04,26.29,0Z"/>
          <path class="cls-45" d="M55.87,73.4c-.1,2.37.42,8.43,1.1,10.59-1.43,1.56-2.67,3.23-4.75,2.56,0-.05-.73-.68-.73-.73-.05-3.58-1.04-14.77,4.38-12.42Z"/>
          <path class="cls-7" d="M56.6,68.65c-.27,1.31-.68,3.46-.73,4.75-5.42-2.35-4.43,8.83-4.38,12.42-2.62,2.42-2.19,6.38-5.84,6.94v-.73c1.75-.29,4.28-4.12,4.75-5.84,1.03-3.81-.26-8.67.73-12.6-.43-.93-3.4-.48-4.38-.55l9.86-4.38Z"/>
        </g>
        <path class="cls-26" d="M57.7,65c-.18.47-.68,1.65-.73,1.83l-13.51,6.21c-.97-.03-1.95.02-2.92,0l17.16-8.03Z"/>
        <path class="cls-42" d="M56.97,66.83c-.12.41-.25,1.28-.37,1.83l-9.86,4.38c-1.08-.07-2.2.03-3.29,0l13.51-6.21Z"/>
        <path class="cls-12" d="M278.63,85.45l-3.29.37c-15.46.21-30.9.7-46.38.73-13.32.03-26.66-.02-39.99,0-1.09-.94-1.75-2.27-2.74-3.29l78.7.37c.32-6.09,1.89-12.94.55-18.99l13.15,20.82Z"/>
        <path class="cls-23" d="M265.49,64.64c1.34,6.05-.23,12.9-.55,18.99l-78.7-.37c-.87-.89-1.53-2.19-2.19-2.92h79.06c.78-.34,1.97-15.17,1.64-16.8h.37c-.16.52.28.7.37,1.1Z"/>
        <path class="cls-27" d="M159.95,81.07c1.01,1.5,2.18,3.35,3.29,4.75-4.38-1.21-8.99-2.26-13.33-3.65-.56-.18-.19-1.32-1.83-1.83-8.58-2.68-22.48-4.32-30.49-8.03-.05-.02-.28-.8-.73-.73-.14-3.32,3.66.5,4.56.73,4.69,1.22,24.91-2.09,26.66-1.1l-1.46,8.4,13.33,1.46Z"/>
        <path class="cls-31" d="M163.24,85.82c.58.74,1.97,1.27,2.19,2.56-1.21-.05-2.44.05-3.65,0-5.32-1.07-12.7-5.15-17.89-5.48-1.25-.93-3.6-1.34-5.11-1.46s-6.25.34-7.12,0c-1.13-.44.72-1.87-.37-2.56-.58-.37-12.29-3.55-13.33-3.65.62-.79-2.29-1.64-.37-2.92,8.01,3.71,21.91,5.35,30.49,8.03,1.63.51,1.27,1.65,1.83,1.83,4.34,1.39,8.95,2.44,13.33,3.65Z"/>
        <path class="cls-35" d="M161.05,59.52c2.72,1.81,11.44,20.39,12.6,20.82.42.16,9.58-.02,7.49-2.01l1.46.55c.47.51,1.02.98,1.46,1.46.66.73,1.33,2.03,2.19,2.92.99,1.02,1.65,2.35,2.74,3.29,13.33-.02,26.66.03,39.99,0l.55.73h-40.54c-1.75-.57-3.91-4.77-5.11-5.11-1.78-.51-5.88.35-8.03,0-.71-.12-1.37-.99-1.64-1.1-.37-.14-1.4.15-1.64,0-1.89-1.18-10.35-15.87-11.5-18.62-.42-1-2.35-4.01,0-2.92Z"/>
        <path class="cls-19" d="M278.63,85.45l-13.15-20.82c-.09-.4-.53-.57-.37-1.1,9.04.08,18.31-.33,27.02,2.37l-23.37,1.83c1,2.31,10.77,16.45,10.59,17.53-.05.32-.66.12-.73.18Z"/>
        <path class="cls-49" d="M134.02,84.72c7.65.85,16.85,4.04,24.1,4.38v1.1c-.79.72.61,1.11-.73,1.1-11.77-2.14-23.36-4.63-35.06-6.94,3.91.15,7.76-.07,11.69.37Z"/>
        <path class="cls-8" d="M165.43,88.37c7.64.29,23.04-.42,29.4.73.52.1,1.28-.2.73.73l-36.52-.37c.08.97-.87.69-.91.73v-1.1c1.55.07,3.47-.74,3.65-.73,1.21.05,2.44-.05,3.65,0Z"/>
        <path class="cls-14" d="M174.19,81.07c.25.98-1.22.86-1.64.73-2.78-.83-9.41-12.87-10.77-15.89-.28-.61-1.34-2.88-.73-3.47,1.15,2.75,9.62,17.45,11.5,18.62.24.15,1.27-.14,1.64,0Z"/>
        <path class="cls-5" d="M146.44,61.72l-29.03,4.38c-.35-.19-.11-.62-.18-.73,9.7-.73,19.46-4.21,29.21-3.65Z"/>
        <path class="cls-19" d="M278.63,85.45c-1.61,1.52-1.62.34-3.29.37l3.29-.37Z"/>
        <path class="cls-27" d="M117.95,75.23c1.04.1,12.75,3.28,13.33,3.65,1.08.69-.76,2.12.37,2.56.87.34,5.6-.12,7.12,0-4.75,1.41-10.62,1.38-15.52.73-1.22-.16-11.9-2.55-12.42-2.92-1.19-.87-.61-2.68.55-3.29.67-.35,5.51-.83,6.57-.73Z"/>
        <path class="cls-45" d="M113.21,71.94c-.03-.07.54-1.12-.18-1.46-.14-.07-2.62.21-3.1,0-.18-.67-.4-1.58-.73-2.19.42.07.34-.36.37-.37.73-.18,3.17-.33,3.65-.73.45-.37-.14-6.99-.37-8.03-.35-1.66.51-1.52-1.83-2.19.44-2.73,4.16.52,4.38,1.28.48,1.67.31,14.12-1.28,14.79-1.34.14-.62-.36-.91-1.1Z"/>
        <path class="cls-7" d="M111.02,56.97c2.34.67,1.47.53,1.83,2.19-1.46.05-3.89-.27-5.11.73l-4.75-3.29c2.48-.07,5.63-.32,8.03.37Z"/>
        <path class="cls-19" d="M113.21,71.94h-2.92c-.05-.31-.26-1.08-.37-1.46.48.21,2.96-.07,3.1,0,.72.35.16,1.39.18,1.46Z"/>
        <path class="cls-27" d="M143.88,82.9c5.19.32,12.58,4.41,17.89,5.48-.19,0-2.1.8-3.65.73-7.26-.34-16.45-3.54-24.1-4.38,2.2-1.39,7.21-1.99,9.86-1.83Z"/>
        <path class="cls-19" d="M112.84,59.16c.22,1.05.82,7.66.37,8.03-.52-1.48-2.44-.07-3.65,0-.45-1.12-2.99-4.64-2.92-5.66,0-.1,1.02-1.58,1.1-1.64,1.22-1,3.65-.68,5.11-.73Z"/>
        <path class="cls-21" d="M113.21,67.19c-.48.4-2.92.55-3.65.73-.03-.23.06-.58,0-.73,1.21-.07,3.13-1.48,3.65,0Z"/>
        <g>
          <path class="cls-3" d="M255.63,51.49c.6.33,2.76,2.34,3.29,2.92.71.78,5.7,8.41,5.84,9.13.32,1.62-.87,16.46-1.64,16.8h-79.06c-.44-.48-.99-.95-1.46-1.46-6.71-7.3-13.54-14.08-20.82-20.82-.94-.87-2.21-1.75-2.74-2.92l79.24.73c1.46-.64-.2-4.44-.91-5.48-.06-.08.03-.5,0-.73,5.24-.04,13.82-.66,18.26,1.83Z"/>
          <path class="cls-27" d="M192.82,75.23c.37.11,1.01-.07,1.46,0,1.32.2,2.32.3,3.65.37,4.24.2,18.43.46,21.91-.37.88-.21.96-.5,1.46-.73,1.24-.58,5.68-3.49,6.76-4.38,1.26-1.04.82-1.91,1.46-2.56.17-.17,2.4-.45,3.1-1.64.18-.31-.18-1.88,0-2.19.28-.46,2.44.44,3.65-2.74,3.41.68-2.16,6.37-3.47,7.67-1.84,1.83-11.34,8.72-13.51,9.13-2.46.47-21.19.45-23.74,0-.82-.14-3.9-1.24-2.74-2.56Z"/>
          <path class="cls-43" d="M181.13,59.16c.85,2.96,2.27,5.74,4.02,8.03-2.72,4-6.43-6.57-5.48-8.22.42-.73,1.39.19,1.46.18Z"/>
          <path class="cls-36" d="M197.93,74.86l-3.65-.37c.82-2.91-.49-3.19,3.47-2.92.34.24.18,2.72.18,3.29Z"/>
          <path class="cls-29" d="M197.93,74.86v.73c-1.33-.06-2.33-.16-3.65-.37.03-.23-.05-.54,0-.73l3.65.37Z"/>
          <g>
            <path class="cls-35" d="M236.27,60.99c-1.21,3.18-3.37,2.28-3.65,2.74-.18.31.18,1.88,0,2.19-.71,1.2-2.94,1.47-3.1,1.64-.64.65-.2,1.51-1.46,2.56-1.08.9-5.51,3.8-6.76,4.38-.35-6.81-7.52-.68-1.46.73-3.48.83-17.67.56-21.91.37v-.73c0-.57.16-3.04-.18-3.29-3.95-.27-2.65.01-3.47,2.92-.05.19.03.5,0,.73-.45-.07-1.09.11-1.46,0-4.05-1.17-1.16-2.95-2.74-3.65-.81-.36-2.16.65-3.1-.91-.62-1.03-.14-2.44-.37-2.92-.16-.34-1.41-.49-1.46-.55-1.75-2.29-3.16-5.08-4.02-8.03,4.4-.53,1.03,3.05,2.37,4.02,3,2.15,3.29-2.72,3.29-4.38,7.82-1.82.23,6.56,7.49,3.83-2.47-3.98,3.21-4.79,4.02-3.65.72,1-1.83,6.22,3.65,3.65-.14-.8-.85-3.37.18-3.83,4.21-1.87,3.63,1.85,4.38,4.38,4.47,1.17,1.74-3.7,3.29-4.38,4.21-1.87,3.62,1.85,4.38,4.38,4.47,1.17,1.74-3.7,3.29-4.38.3-.13,3.68-.04,3.83.18.35.49-.6,3.69.55,4.2,4.16,1.85,1.98-3.8,3.29-4.38,4.21-1.87,3.62,1.85,4.38,4.38,5.88.6-.85-5.94,6.94-4.38.87.35,0,1.72-.18,2.19Z"/>
            <g>
              <path class="cls-25" d="M191.17,67.19c3.83-1.7,3.71,3.5,2.56,4.02-3.59,1.6-3.82-3.46-2.56-4.02Z"/>
              <path class="cls-25" d="M206.51,67.19c3.59-1.6,3.82,3.45,2.56,4.02-3.59,1.6-3.82-3.45-2.56-4.02Z"/>
              <path class="cls-22" d="M187.16,63.18c2.69-1.9,4.7,3.06,2.92,4.02-3.52,1.9-3.69-3.47-2.92-4.02Z"/>
              <path class="cls-25" d="M198.84,67.19c2.76-1.34,4.31,3.23,2.56,4.02-3.55,1.59-3.85-3.39-2.56-4.02Z"/>
              <path class="cls-25" d="M215.27,67.19c2.82-.21,2.37,3.61,1.46,4.02-3.47,1.55-4.57-3.78-1.46-4.02Z"/>
              <path class="cls-25" d="M221.48,67.56c2.76-1.95,4.98,2.73,2.92,3.65-3.41,1.52-3.73-3.08-2.92-3.65Z"/>
              <path class="cls-22" d="M210.16,63.18c3.77-1.5,3.72,3.5,2.56,4.02-3.58,1.59-3.11-3.8-2.56-4.02Z"/>
              <path class="cls-22" d="M225.5,63.18c2.75-1.97,4.08,3.2,2.92,4.02-2.94,2.08-4.02-3.23-2.92-4.02Z"/>
              <path class="cls-22" d="M217.83,63.18c2.75-1.97,4.08,3.19,2.92,4.02-2.75,1.97-4.08-3.19-2.92-4.02Z"/>
              <path class="cls-22" d="M205.23,63.18s.31.57.37.73c-.03.84-.03,1.72,0,2.56-.05.16-.33.72-.37.73-4.66,1.02-3.9-5.19,0-4.02Z"/>
              <path class="cls-22" d="M195.19,63.18c3.29-1.47,3.35,3.5,2.19,4.02-3.29,1.47-3.35-3.5-2.19-4.02Z"/>
              <path class="cls-36" d="M221.3,74.5c-.5.23-.58.52-1.46.73-6.06-1.41,1.11-7.55,1.46-.73Z"/>
              <path class="cls-36" d="M210.16,71.58c2.34-1.66,4.37,2.26,2.92,3.29-2.34,1.66-4.37-2.26-2.92-3.29Z"/>
              <path class="cls-36" d="M202.49,71.58c2.34-1.66,4.37,2.26,2.92,3.29-2.34,1.66-4.37-2.26-2.92-3.29Z"/>
              <path class="cls-34" d="M205.6,63.91c-.05-.16-.33-.72-.37-.73,1.48.09.37.66.37.73Z"/>
              <path class="cls-9" d="M205.23,67.19s.31-.57.37-.73c0,.07,1.11.64-.37.73Z"/>
            </g>
          </g>
        </g>
        <g>
          <path class="cls-10" d="M102.62,79.24c-.31.08-.82-.09-1.1,0,.17-4.05.08-7.89-1.46-11.69-10.84-26.66-51.59-2.27-31.77,20.09,8.81,9.94,23.56,7.56,30.68-3.1.68-1.02,1.66-4.71,1.83-4.93.27.12.74,1.73.73,1.83-.57,5.28-8.89,11.06-13.33,13.15-.75.35-2.63.2-3.65.73-.24.12-.19,2.01-2.37,1.64l1.28.91c-3.62.03-6.84.49-10.23-1.1-3.74-1.76-2.03-2.69-2.74-3.47-1.51-1.64-4.05-3.21-5.48-5.11-5.42-7.21-6.46-19.47,0-26.29.16,1.5-2.49,3.63-1.28,4.93,11.46-21.19,42.56-12.56,38.89,12.42Z"/>
          <path class="cls-10" d="M102.98,56.6l4.75,3.29c-.08.06-1.09,1.54-1.1,1.64-.07,1.02,2.48,4.54,2.92,5.66.06.15-.03.5,0,.73-.03,0,.06.43-.37.37-.2-.36-4.8-6.35-5.48-5.48-1.12-2.87-3.41-4.26-4.38-6.21,1.32.56,2.4.03,3.65,0Z"/>
          <g>
            <path class="cls-38" d="M81.8,47.84c.06,1.92,3.52,1.08,4.75.37,2.45.29,4.66.95,6.94,1.83,1.49.57,2.9,1.58,4.38,2.19.51.21,1.71,1.43,1.83,1.46-.73,1.95-1.24,1.18-.37,2.92.98,1.95,3.26,3.33,4.38,6.21.23.6,1.2,4.7,1.1,4.93-.28.6-.91-.38-1.1,0-.23.46,1.32,7.29,1.1,9.13-.38,3.12-.43,1.91-2.19,2.37,3.67-24.98-27.43-33.61-38.89-12.42-1.21-1.3,1.44-3.43,1.28-4.93-6.46,6.82-5.42,19.08,0,26.29,1.43,1.9,3.97,3.47,5.48,5.11.71.77-1,1.71,2.74,3.47,3.38,1.59,6.61,1.13,10.23,1.1l-1.28-.91c2.18.37,2.13-1.52,2.37-1.64,1.03-.53,2.9-.38,3.65-.73,4.43-2.09,12.76-7.86,13.33-13.15,1.5.71,6.92-.97,6.57,1.83-.42.87-.49,3.23-1.46,4.93-1.67,2.92-3.95,5.4-6.21,7.85-.77.19-5.37,3.63-7.12,4.38s-4.41.85-6.03,2.19c-2.92-.18-5.38.13-8.4-.37-4.77-.78-9.45-3.14-13.15-6.21-3.14-2.6-7.56-8.2-8.76-12.05-.68-2.16-1.19-8.22-1.1-10.59.05-1.28.46-3.44.73-4.75.11-.55.25-1.42.37-1.83.05-.18.55-1.35.73-1.83.12-.32.85-1.69,1.1-2.19,4.28-8.52,13.44-14.58,23.01-14.97Z"/>
            <path class="cls-6" d="M86.55,48.2c-1.23.71-4.69,1.56-4.75-.37,1.72-.07,3.09.17,4.75.37Z"/>
            <path class="cls-40" d="M88.92,50.03l2.37.91c-.6.59-3.35-.42-2.37-.91Z"/>
          </g>
          <path class="cls-40" d="M100.06,67.56c-1.86.9-2.02.55-2.19,2.56-4.45-11.76-18.25-15.91-27.02-5.84-3.54,4.07-4.49,6.92-4.02,12.42.19,2.22.87,3.55,1.83,5.48.35.7.63,1.55,1.1,2.19-3.87.52-.1,1.4-1.46,3.29-19.82-22.35,20.93-46.74,31.77-20.09Z"/>
          <path class="cls-38" d="M101.52,79.24c-.41.14-.33-.15-.73.37-.17.22-1.15,3.91-1.83,4.93-7.11,10.66-21.86,13.04-30.68,3.1,1.36-1.89-2.4-2.76,1.46-3.29,1.2,1.67,2.67,2.58,4.38,3.65,12.11,7.55,23.88-.96,24.47-14.42.03-.59-.83-2.31-.73-3.47.17-2,.33-1.66,2.19-2.56,1.54,3.79,1.63,7.63,1.46,11.69Z"/>
          <g>
            <path class="cls-32" d="M109.19,68.29c.33.62.55,1.52.73,2.19.1.38.31,1.15.37,1.46.24,1.42-.8,4.4,1.1,4.02-1.16.61-1.74,2.42-.55,3.29.52.37,11.19,2.76,12.42,2.92,4.9.65,10.77.68,15.52-.73,1.51.12,3.86.53,5.11,1.46-2.65-.17-7.66.44-9.86,1.83-3.92-.43-7.78-.21-11.69-.37-4.2-.83-8.48-1.29-12.6-2.56-.37-.06-1.6,1.36-1.64,1.46.35-2.79-5.07-1.11-6.57-1.83.01-.1-.46-1.71-.73-1.83.4-.52.32-.23.73-.37.27-.09.78.08,1.1,0,1.76-.46,1.81.74,2.19-2.37.22-1.84-1.32-8.67-1.1-9.13.18-.38.82.6,1.1,0,.11-.23-.86-4.33-1.1-4.93.68-.87,5.28,5.12,5.48,5.48Z"/>
            <path class="cls-40" d="M105.72,69.75c1.77.03,1.87,12.46-.55,9.31l.55-9.31Z"/>
          </g>
          <g>
            <path class="cls-36" d="M97.87,70.11c-.1,1.16.76,2.88.73,3.47-.59,13.47-12.36,21.97-24.47,14.42.2-1.66-3.83-5.07-5.48-5.84-.96-1.92-1.63-3.26-1.83-5.48,2.82.35,1.07-5.94,1.46-7.49.08-.31,3.21-4.77,3.65-5.3.53-.33,1.4-.45,1.83-1.28-.83-.49-1.45.83-1.83,1.28-.29.18-1.02,1.01-1.1.37,8.77-10.07,22.57-5.91,27.02,5.84Z"/>
            <g>
              <path class="cls-44" d="M66.83,76.69c-.48-5.5.48-8.35,4.02-12.42.07.65.8-.18,1.1-.37-.44.53-3.57,4.98-3.65,5.3-.4,1.54,1.36,7.84-1.46,7.49Z"/>
              <path class="cls-21" d="M74.13,88.01c-1.72-1.07-3.18-1.98-4.38-3.65-.46-.64-.75-1.49-1.1-2.19,1.65.78,5.68,4.18,5.48,5.84Z"/>
              <path class="cls-39" d="M80.89,80.71c4.4-1.68,5.16,3.44,6.76,6.39-2.95,1.56-6.19,1.28-9.31.55-.95-.65,2.14-6.78,2.56-6.94Z"/>
              <path class="cls-39" d="M70.3,69.38c.93.83,6.1,2.2,6.39,3.1.06.17.06,3.48,0,3.65-.24.66-5.85,2.01-6.76,2.74-1.22-.43-1.32-8.39.37-9.49Z"/>
              <path class="cls-39" d="M75.78,77.42c4.57-.09,1.98,6.98.73,9.49-2.73-1.82-4.75-3.9-6.39-6.76.04-.75,4.99-2.73,5.66-2.74Z"/>
              <path class="cls-39" d="M88.19,77.42c.55-.16,6.99,1.92,7.12,2.37-1.69,2.65-3.53,5.23-6.39,6.76-1.41-1.91-3.98-8.19-.73-9.13Z"/>
              <path class="cls-39" d="M80.16,60.99c1.04-.22,6.42-.14,6.76.91.11.35-2.6,6.62-3.1,6.76-3.83,1.03-5.67-4.65-5.11-7.3.67.3,1.26-.32,1.46-.37Z"/>
              <path class="cls-39" d="M94.4,69.38c.34-.01.71-.11.91.18.63,2.91,1.32,6.01.18,8.95-2.47-1.49-8.49-2-6.76-6.03.13-.3,5.34-3.09,5.66-3.1Z"/>
              <path class="cls-39" d="M76.87,62.08c2.77,8.23,1.48,11.51-6.39,6.03,1.57-2.6,3.71-4.63,6.39-6.03Z"/>
              <path class="cls-39" d="M88.56,62.08c2.35,1.73,5.15,3.52,5.84,6.57-8.73,3.74-9.72,1.63-5.84-6.57Z"/>
              <path class="cls-44" d="M71.94,63.91c.38-.45.99-1.77,1.83-1.28-.43.83-1.29.95-1.83,1.28Z"/>
              <path class="cls-41" d="M85.64,67.92c.51.07-.13,1.13-.37,1.1-.51-.07.13-1.13.37-1.1Z"/>
              <g>
                <path class="cls-17" d="M81.25,69.75c8.57-1.54,8.31,12.03-.37,9.86-4.13-1.03-4.22-9.04.37-9.86Z"/>
                <path class="cls-30" d="M81.25,71.58c.18-.06,3.01,1.85,3.1,2.01,2.75,4.8-7.17,3.22-3.1-2.01Z"/>
              </g>
            </g>
          </g>
        </g>
      </g>
      <g>
        <g>
          <path class="cls-10" d="M392.94,42.73c-.14,3.03.62,22.9,0,23.92-.24.4-1.18-.17-1.83.73-1.3,1.8-1,7.86,3.47,6.03.53-.22.46-2.73.55-3.29l6.39-.37c.96-.65-.69-1.87-1.28-2.19,2.91-.88,2.58,5.38,1.83,6.39-1.57,2.12-10.1.18-11.14.91-.41.29.34,2.96-2.01,4.38-2.27-1-7.65-.49-5.11-4.38.89,1.32,3.36,2.04,4.75.91l-.18-.91c-4.8,1-2.08-.44-2.01-.91.47-3.08-1.83-9,2.19-8.4.19-.49-1.69-.9-1.83-.91,1.31-2.52-3.43.61-3.65.73-1.18-3.4,3.56-5.54,6.03-3.65.99.76.8,3.32,2.01,3.47l-.37-22.46c.73-.02,1.47.03,2.19,0Z"/>
          <path class="cls-31" d="M393.67,43.09c.52,2.89-.68,22.59,0,23.55.17.24,4.54.19,5.84.55-.68.89-3.72.03-4.2.37-.4.29-.09,1.98-.18,2.56s-.02,3.07-.55,3.29c-4.47,1.84-4.77-4.23-3.47-6.03.65-.9,1.59-.33,1.83-.73.62-1.02-.14-20.89,0-23.92.91-.03.69.37.73.37Z"/>
          <path class="cls-10" d="M385.63,79.97c-6.35.61-14.61,0-21.18,0l-.91-1.1c3.88-.09,8.2-1.24,12.05-1.1.32.01,2.07,1.08,2.19,1.1,2.63.24,5.84-.79,7.85,1.1Z"/>
          <g>
            <path class="cls-11" d="M399.14,28.85l-44.92.37-1.1-.37c1.03-3.83,2.56-7.56,3.65-11.32h42.54c.52-.23,1.14-4.65,1.28-5.48.15-.88.91-5.95.55-6.21h-41.08c.24-.75.21-5.28,1.64-5.84h40.9c.84.59.52,1.51.55,2.37.16,5.69-3.02,19.99-4.02,26.48Z"/>
            <path class="cls-19" d="M396.22,42.73c-.12.04-2.26.35-2.56.37-.04,0,.17-.4-.73-.37-.73.03-1.47-.02-2.19,0-8.72.23-17.57.09-26.29,0-1.01,0-2.47.37-2.92.37-2.93-.04-8.29.07-10.96-.37.38-2.64,1.44-5.12,2.19-7.67l44,.37-.55,7.3Z"/>
            <path class="cls-8" d="M399.14,28.85c-.28,1.85-1.43,13.48-2.01,13.88-.28.05-.7-.08-.91,0l.55-7.3-44-.37c.57-1.92,1.16-3.86,1.46-5.84l44.92-.37Z"/>
            <path class="cls-8" d="M400.6,12.05l-42.36-.37c.59-2.01,1.21-3.87,1.83-5.84h41.08c.37.26-.4,5.32-.55,6.21Z"/>
            <path class="cls-37" d="M400.6,12.05c-.14.83-.76,5.25-1.28,5.48h-42.54c.55-1.9.89-3.91,1.46-5.84l42.36.37Z"/>
            <path class="cls-2" d="M354.23,29.21c-.3,1.99-.89,3.93-1.46,5.84-.75,2.55-1.81,5.03-2.19,7.67-.49-.08-1.18.29-1.1-.55,1.49-4.36,2.46-8.89,3.65-13.33l1.1.37Z"/>
          </g>
          <path class="cls-10" d="M400.24,67.56c.59.32,2.24,1.54,1.28,2.19l-6.39.37c.09-.58-.22-2.27.18-2.56.47-.34,3.52.52,4.2-.37.66.18.51.25.73.37Z"/>
          <path class="cls-38" d="M386.73,64.64c.14,0,2.02.42,1.83.91-4.02-.61-1.72,5.31-2.19,8.4-.07.47-2.79,1.92,2.01.91l.18.91c-1.38,1.12-3.86.4-4.75-.91-.74-1.09-.77-7.95-.37-8.95.18-.44,2.59-1.32,3.29-1.28Z"/>
          <g>
            <path class="cls-31" d="M364.45,42.73v17.35c.17.35,4.85-2.66,6.57,2.19.35.97-.4,2.08-.37,2.19.06.2,2.91,2.67,3.1,2.74.36.12,7.22.12,7.67,0,.39-.11,1.43-1.71,1.64-1.83.22-.13,4.96-3.25,3.65-.73-.7-.04-3.11.83-3.29,1.28-.41,1-.37,7.86.37,8.95-2.53,3.89,2.84,3.39,5.11,4.38-1.44.87-1.8.59-3.29.73-2.01-1.89-5.22-.86-7.85-1.1-.12-.01-1.87-1.08-2.19-1.1-3.85-.14-8.17,1.01-12.05,1.1l.91,1.1h-5.48c.05-.23.36-2.43.37-2.56,2.75-.94,10.06-.68,12.23-1.83,5.63-2.97-11-.62-11.69-.37l-.91-7.67c.2-.21.52-.56.73-.73.17-.13,1.42.33,1.83-.55,1.21-2.59-.92-19.14,0-23.19.45,0,1.91-.38,2.92-.37Z"/>
            <g>
              <path class="cls-10" d="M358.97,67.56l.91,7.67c.68-.26,17.31-2.61,11.69.37-2.17,1.14-9.48.89-12.23,1.83,0-.04-.73.11-.73-.18.02-1.53-.51-9.04-.37-9.49.11-.33.67-.12.73-.18Z"/>
              <path class="cls-27" d="M374.13,73.04c.43-.3,9.42-.58,8.58,2.01-.23.72-7.72.77-8.22.55-.73-.33-.73-2.3-.37-2.56Z"/>
              <path class="cls-32" d="M366.09,62.45c.73-.13,2.83,1.19,2.37,2.01-1.5,0-2.61-.73-3.83.55l1.46-2.56Z"/>
              <path class="cls-32" d="M374.13,67.92c.59-.42,3.08.32,2.74,1.28-.57,1.6-4.59.04-2.74-1.28Z"/>
              <path class="cls-38" d="M365.73,65c.92-.32,3.13.3,2.37,1.28-.97,1.25-5.08-.34-2.37-1.28Z"/>
            </g>
          </g>
        </g>
        <g>
          <path class="cls-10" d="M359.7,66.83c-.21.17-.53.52-.73.73-.06.06-.62-.15-.73.18-.15.45.38,7.97.37,9.49,0,.3.73.14.73.18,0,.13-.32,2.33-.37,2.56-.13.63-1.51,2.97-1.83,3.83-.23.62.23,2.35,0,2.92-.15.37-1.84.81-2.56,1.83-2.17,3.08-3.14,4.98-6.21,7.49-4.09,3.34-8.59,4.95-13.51,6.57-3.46-.17-6.75.16-10.23-.37-5.15-.78-9.85-3.35-13.88-6.57-.71-.57-1.55-1.2-2.19-1.83-9.68-9.55-11.21-25.81-3.65-37.25.21-.31,1.86-2.22,2.19-2.56.05-.05.57-.33.73-.37,2.04.44-2.07,2.89-2.19,3.1-1.99,3.55-3.9,8.1-3.83,12.23,1.4-6.85,4.7-12.22,9.49-17.16l.37,1.1c5.94-5.23,14.34-6.99,22.09-5.84-1.2,2.08,2.98,2.41,4.75,3.29l-.73,1.1c-3.6-1.6-7.73-2.96-11.69-1.83-2.48-.2-4.26.64-6.57,1.1.06-.14-.03-.5,0-.73.43-.21,1.38-.26,1.83-.55.73-1.39-5.65,1.09-6.03,1.28-8.06,4.08-13.29,16.26-11.87,25.01.04.22.49,1.57,1.1,1.28.76,4.24,2.17,7.54,4.75,10.96,6.7,8.9,15.6,11.63,25.93,9.13,17.75-4.3,25.8-24.59,13.88-39.07.25-1.86.72-.48,1.83-.37.88,1.03,4.5,7.01,5.11,6.03-3.2-6.85-8.35-13.33-15.52-16.25-6.84-2.79-14.44-2.45-21.18,0-1.76.64-3.67,2.27-5.48,2.92,1.74-1.5,6.59-4.52,8.58-5.11,16.82-4.97,26.93,4.44,34.33,17.35.44.77,1.35.32,1.83,1.1s-.08,2.7,1.1,3.1Z"/>
          <path class="cls-38" d="M322.46,45.28c-1.99.59-6.84,3.61-8.58,5.11,1.81-.65,3.72-2.28,5.48-2.92,6.74-2.45,14.34-2.79,21.18,0,7.17,2.92,12.32,9.4,15.52,16.25-.61.99-4.23-5-5.11-6.03-4.59-5.36-9.91-9.52-17.16-10.59-7.76-1.15-16.15.61-22.09,5.84l-.37-1.1c-4.79,4.94-8.1,10.32-9.49,17.16-.07-4.14,1.84-8.68,3.83-12.23.12-.21,4.23-2.66,2.19-3.1.26-.13.34-.7.37-.73.23-.33.35-.35.37-.37.08-.09,1.44-1.15,1.83-1.46,1.67-1.38,4.26-3.1,6.21-4.02,1.74-.82,3.77-.78,5.11-2.19.32.12.44.34.73.37Z"/>
          <path class="cls-10" d="M319.53,50.76c-.23.52-5.89,5.33-7.3,6.94-9.3,10.55-8.53,24.49,2.74,33.23,2.38.14-1.9-3.16-2.37-3.83-6.07-8.68-6.76-20.44.73-28.67,3.28-3.6,11.26-7.79,16.07-6.57,2.02.51.67.67.73.73-19.96-.42-26.97,24.63-12.96,36.88,1.13.99,3.26,1.76,4.2,2.56.27.23.33.81,1.1.91-.15,1.08-7.75-3.38-6.39-1.28,9.28,5.6,16.43,6.36,25.75.37,16.4-10.56,13.06-32.95-4.02-40.54l.73-1.1c4.12,2.05,7.61,4.05,10.59,7.67,11.93,14.48,3.88,34.77-13.88,39.07l-7.85.37c-7.13-.72-13.02-4.71-18.08-9.49-2.57-3.42-3.98-6.71-4.75-10.96-2.22-12.31,4.22-21.69,14.97-27.02-.03.23.06.59,0,.73Z"/>
          <path class="cls-10" d="M337.79,51.49c17.08,7.58,20.42,29.98,4.02,40.54v-1.46c9.08-5.92,10.74-20.91,5.11-29.76-2.55-4.01-10.72-9.54-15.52-8.95-2.77.34,4.48,2.07,4.75,2.19,15.58,7.26,18.05,29.51.91,36.15v-2.19c.98-.5,1.39-.59,2.19-1.46,12.52-7.89,8.05-28.72-6.57-30.68-.38-1.12-1.72-2.45-2.56-3.29-.06-.06,1.29-.22-.73-.73,1.13-1.41-2.41-2.12-3.29-2.19,3.96-1.14,8.08.23,11.69,1.83Z"/>
          <path class="cls-38" d="M326.11,49.66c.87.07,4.42.78,3.29,2.19-4.81-1.22-12.79,2.97-16.07,6.57l-1.1-.73c1.42-1.61,7.07-6.42,7.3-6.94,2.31-.46,4.09-1.29,6.57-1.1Z"/>
          <path class="cls-10" d="M350.94,57.7c-1.11-.12-1.58-1.49-1.83.37-2.98-3.62-6.47-5.62-10.59-7.67-1.76-.88-5.94-1.2-4.75-3.29,7.25,1.07,12.58,5.23,17.16,10.59Z"/>
          <path class="cls-38" d="M319.53,50.03c-10.76,5.33-17.19,14.71-14.97,27.02-.6.3-1.06-1.06-1.1-1.28-1.42-8.76,3.81-20.94,11.87-25.01.37-.19,6.75-2.67,6.03-1.28-.44.29-1.4.34-1.83.55Z"/>
          <path class="cls-40" d="M335.24,97.14c-10.33,2.5-19.22-.23-25.93-9.13,5.06,4.79,10.95,8.78,18.08,9.49l7.85-.37Z"/>
          <path class="cls-33" d="M330.12,52.59c.84.83,2.18,2.16,2.56,3.29-2.28-.3-5.03,0-7.3.37-16.84,2.66-17.27,26.72-1.83,32.5.65.24.91.23,1.46.37,4.51,1.09,7.73,1.11,12.05-1.1v2.19c-1.58.61-2.62,1.21-4.38,1.46-3.84.56-7.49.03-11.32.37-.94-.79-3.07-1.57-4.2-2.56-14-12.25-7-37.31,12.96-36.88Z"/>
          <path class="cls-38" d="M341.81,92.03c-9.32,6-16.47,5.24-25.75-.37-1.36-2.11,6.24,2.36,6.39,1.28-.76-.1-.82-.68-1.1-.91,3.83-.34,7.48.19,11.32-.37-.13,1.58.19.91,1.1.91,2.63,0,5.78-.53,8.03-2.01v1.46Z"/>
          <path class="cls-10" d="M313.33,58.43c-7.49,8.22-6.8,19.99-.73,28.67.47.67,4.75,3.97,2.37,3.83-11.27-8.74-12.04-22.68-2.74-33.23l1.1.73Z"/>
          <path class="cls-10" d="M341.81,90.57c-2.26,1.47-5.4,2.01-8.03,2.01-.91,0-1.22.67-1.1-.91,1.76-.26,2.8-.85,4.38-1.46,17.14-6.65,14.67-28.89-.91-36.15-.27-.13-7.52-1.85-4.75-2.19,4.8-.59,12.97,4.93,15.52,8.95,5.63,8.85,3.96,23.84-5.11,29.76Z"/>
          <path class="cls-46" d="M325.38,56.24c-.26.38-1.15,1.24-1.46,1.46-1.42,1.01-2.96.9-4.2,1.83-9.41,7-7.73,25.41,4.56,27.02.58.08,1.23-.04,1.83,0,.2,1.51-1.38-.07-1.46.55-.25,1.85,10.38-.09,11.87-.55.23-.07,1.62-1.4,1.83-1.46,1.2-.33-.81,1.28.37,1.1l1.46-1.1c.11.37-.66,1.19-.91,1.46-.8.87-1.21.96-2.19,1.46-4.32,2.2-7.54,2.19-12.05,1.1l.73-.18c-.67-.07-1.74-1.05-2.19-.18-15.44-5.78-15.01-29.84,1.83-32.5Z"/>
          <path class="cls-18" d="M325.01,89.1c-.55-.13-.81-.12-1.46-.37.45-.87,1.52.11,2.19.18l-.73.18Z"/>
          <path class="cls-39" d="M331.22,79.24l2.92,6.94c-3.44,1.06-4.63.57-8.03.37-.59-.04-1.25.08-1.83,0,1.79-5.23.89-7.48,6.94-7.3Z"/>
          <path class="cls-39" d="M342.54,66.46c1.27,3.39,1.4,7.11.37,10.59-2.18-1.05-9.96-3.74-6.94-7.3.24-.28,5.69-2.85,6.57-3.29Z"/>
          <path class="cls-39" d="M342.18,78.15c-1.57,3.69-3.25,5.57-6.94,7.3-.18-1.05-.59-1.99-1.1-2.92-2.93-7.4,3-8.23,8.03-4.38Z"/>
          <path class="cls-39" d="M326.47,58.06c2.7-.41,4.87.19,7.3.73-1.07,1.22-1.86,6.29-2.56,7.12-.13.16-3.65.61-3.83.55-.58-.2-2.18-6.6-3.1-7.49.13-.47,1.69-.84,2.19-.91Z"/>
          <path class="cls-39" d="M341.81,65.37l-7.3,3.29c-.66-.59-1.79-1.43-1.83-2.37-.03-.63,2.09-6.08,2.56-7.12,2.73,1.27,5.17,3.54,6.57,6.21Z"/>
          <path class="cls-1" d="M342.54,66.46c-.89.44-6.34,3.01-6.57,3.29-.54-.46-.91-.61-1.46-1.1l7.3-3.29c.12.23.56.63.73,1.1Z"/>
          <path class="cls-16" d="M334.14,82.53c.5.94.92,1.87,1.1,2.92-.55.26-.07.42-1.1.73l-2.92-6.94c.49.01.67-.91,1.1-.55.16.14,1.37,2.99,1.83,3.83Z"/>
          <g>
            <path class="cls-48" d="M332.68,55.87c14.63,1.95,19.09,22.78,6.57,30.68.25-.27,1.02-1.09.91-1.46l-1.46,1.1c-1.17.19.84-1.43-.37-1.1-.21.06-1.6,1.39-1.83,1.46-1.49.46-12.12,2.4-11.87.55.08-.62,1.66.96,1.46-.55,3.4.21,4.59.69,8.03-.37,1.03-.32.54-.47,1.1-.73,3.69-1.74,5.36-3.61,6.94-7.3.04-.1.6-.65.73-1.1,1.04-3.48.9-7.2-.37-10.59-.17-.46-.61-.87-.73-1.1-1.41-2.67-3.85-4.94-6.57-6.21-.54-.25-.93-.25-1.46-.37-2.43-.54-4.61-1.14-7.3-.73l-2.56-.37c.31-.22,1.2-1.08,1.46-1.46,2.28-.36,5.03-.67,7.3-.37Z"/>
            <path class="cls-46" d="M340.9,82.9c1.15.18-1.26,1.99-1.46,1.83-.07-.73,1.09-1.27,1.46-1.83Z"/>
          </g>
          <g>
            <path class="cls-28" d="M326.47,58.06c-.5.08-2.06.45-2.19.91.92.88,2.52,7.28,3.1,7.49.18.06,3.7-.39,3.83-.55.7-.83,1.48-5.9,2.56-7.12.54.12.92.11,1.46.37-.47,1.04-2.58,6.49-2.56,7.12.04.94,1.16,1.78,1.83,2.37.55.49.92.63,1.46,1.1-3.02,3.56,4.76,6.25,6.94,7.3-.13.44-.69,1-.73,1.1-5.04-3.85-10.96-3.01-8.03,4.38-.46-.85-1.66-3.7-1.83-3.83-.42-.36-.6.56-1.1.55-6.05-.17-5.15,2.08-6.94,7.3-12.3-1.61-13.97-20.02-4.56-27.02,1.24-.92,2.78-.81,4.2-1.83l2.56.37Z"/>
            <path class="cls-39" d="M322.27,75.23c.4.03,3.06,2.89,3.1,3.1.07.35-2.05,6.59-2.37,6.76-1.57.79-6.69-5.11-7.12-6.76.09-.63,5.96-3.14,6.39-3.1Z"/>
            <path class="cls-39" d="M315.7,66.83c.35-.2,6.62,3.11,6.76,3.47,1.77,4.63-4.38,4.29-6.76,6.76-1.43-.36-1.01-8.74,0-10.23Z"/>
            <path class="cls-39" d="M323,59.16c3.91,8.76,1.93,11.78-6.76,6.39,1.65-2.79,3.98-4.8,6.76-6.39Z"/>
            <g>
              <path class="cls-17" d="M327.39,68.29c4.5-.87,6.25,2.66,5.48,6.57,1.77-1.41,1.22-3.48.55-5.3,3.33,1.16.03,7.37-2.01,8.22-7.26,3-10.13-8.31-4.02-9.49Z"/>
              <path class="cls-47" d="M328.48,69.38c1.2,1.35-.7,1.17-.91,2.01-.45,1.77.23,3.69,2.37,2.37,1.58,1.88-3.37,1.26-3.83-.55-.54-2.11,1.37-2.5,2.37-3.83Z"/>
              <path class="cls-20" d="M329.58,71.58c2.98,1.38-2.06,2.62-1.1,1.46.1-.12,1.77.2,1.1-1.46Z"/>
            </g>
          </g>
        </g>
      </g>
    </g>
  </g>
</svg>