<?xml version="1.0" encoding="UTF-8"?>
<svg id="katman_2" data-name="katman 2" xmlns="http://www.w3.org/2000/svg" viewBox="0 0 306.51 258.89">
  <defs>
    <style>
      .cls-1 {
        fill: #c6944f;
      }

      .cls-2 {
        fill: #dccabd;
      }

      .cls-3 {
        fill: #b96b2c;
      }

      .cls-4 {
        fill: #f7e7df;
      }

      .cls-5 {
        fill: #96cfd3;
      }

      .cls-6 {
        fill: #fdfeff;
      }

      .cls-7 {
        fill: #d48c45;
      }

      .cls-8 {
        fill: #a6632f;
      }

      .cls-9 {
        fill: #f1b15e;
      }

      .cls-10 {
        fill: #699ec4;
      }

      .cls-11 {
        fill: #f4a8b1;
      }

      .cls-12 {
        fill: #b6727a;
      }

      .cls-13 {
        fill: #402d22;
      }

      .cls-14 {
        fill: #a1736b;
      }

      .cls-15 {
        fill: #9c521e;
      }
    </style>
  </defs>
  <g id="Layer_1" data-name="Layer 1">
    <g id="_Üretken_Nesne" data-name="Üretken Nesne">
      <path class="cls-10" d="M20.62,174.13c.29.8.26,1.59.38,1.89-4.34.85-9.63.67-13.78-1.13-10.06-4.36-6.69-16.62,4.15-9.44,3.11,2.06,5.79,7.25,9.25,8.68Z"/>
      <path class="cls-10" d="M16.09,157.9c.31.74.43.96.75,1.89-6.18,1.61-19.89-5.99-16.23-13.4.29-.58,1.87-1.62,2.45-1.7,5.25-.71,11.29,9.01,13.02,13.21Z"/>
      <g>
        <path class="cls-5" d="M89.7,222.07c2.92,7.13,12.96,19.58,21.14,20.38-.1,3.04,1.77,5.95,4.72,6.79,2.71.77,25.37.45,27.56-.75.44-.24,3.14-3.17,3.21-3.4h16.23c.81,2.67,3.62,4.15,6.23,4.53s21.97.11,24.16-.38c2.59-.57,4.79-4.23,4.72-6.79,4.55-.23,7.36-2.72,10.57-5.66,12.16,1.32,26.23-1.85,36.99-7.55,13.07,6.31.7,14.33-6.98,17.74-35.49,15.77-126.3,15.33-162.7,1.89-4.7-1.74-16.3-7.08-16.8-12.65-.8-8.95,24.38-13.39,30.95-14.16Z"/>
        <path class="cls-4" d="M145.95,240.19c.15.54.48,4.56.38,4.91-.07.23-2.77,3.15-3.21,3.4-2.19,1.21-24.84,1.53-27.56.75-2.95-.84-4.82-3.75-4.72-6.79.06-1.69,2-6.15,3.02-7.55,8.25-11.29,28.41-8.35,32.09,5.28Z"/>
        <path class="cls-4" d="M194.27,234.53c1.21,1.57,3.34,6.03,3.4,7.93.07,2.57-2.13,6.22-4.72,6.79-2.19.48-21.6.75-24.16.38s-5.42-1.86-6.23-4.53c-.57-1.87-.36-2.36,0-4.15,2.79-14.02,23.07-17.57,31.71-6.42Z"/>
      </g>
      <g>
        <g>
          <g>
            <path class="cls-7" d="M280.67,124.75c-2.22,10.08,2.4,17.99,7.55,26.05-1.46.59-4.78,2.17-6.04,3.02-1.92-2.37-11.97-7.7-13.21-2.83-1.08,4.24,6.87,4.79,9.06,6.61-2.11,2.93-3.13,7.42-3.77,10.95-9.57-4.07-17.86-11.25-28.69-11.7,1.92-12.07,8.59-22.35,19.63-27.93,2.38,14.72,11.25,9.4,4.15-1.51,4.5-1.62,6.4-2.24,11.32-2.64Z"/>
            <path class="cls-3" d="M253.11,225.16c-2.7,2.51-6.2,5.08-9.44,6.79-10.76,5.7-24.84,8.87-36.99,7.55,4.45-4.08,10.2-15.77,11.7-16.99.53-.43,5.93-2.25,7.36-3.02,2.26-1.22,4.22-3.14,6.61-4.15-2.54,3.7-.46,2.44-.38,5.85.07,2.64-.93,11.1,1.7,11.89,1.61.48,5.44-.36,6.23-2.08,1.08-2.34-.51-13.95-1.13-16.99-.46-2.26-2.27-.55-.38-4.72.46-1.01,1.41-1.68,1.51-1.89.73,4.43,8.54,7.06,10.57,3.21,3.36-6.37-7.64-4.01-7.55-8.87.2-.31.14-.8.75-1.51.33-.38,1.01-1.27,1.7-1.13l20.2,9.63c.23,1.46-10.65,14.74-12.46,16.42Z"/>
            <path class="cls-7" d="M273.49,174.2c-.35,2.61-.37,5.27-.75,7.93-2.42-.73-8.64-.39-9.06,2.83-.58,4.53,6.37,1.09,8.68,2.45-.91,6.2-1.95,10.43-4.15,16.23-3.42-3.58-8.38-7.77-13.02-9.44-2.73-.98-7.02-.38-9.63-3.02.3-3.46.03-7.77,0-11.32,15.52,1.61,9.91-4.16-.38-6.04,0-3.86-.62-7.78-.38-11.7,1.61,2.23,5.75,2.22,8.49,3.4,6.59,2.84,12.35,8.54,20.2,8.68Z"/>
            <path class="cls-7" d="M294.26,149.28c-4.25-7.69-7.26-15.54-6.79-24.54,6.59.41,16.51,2.53,18.5,10,2.6,9.79-4.52,11.72-11.7,14.53Z"/>
            <path class="cls-3" d="M274.25,168.54c-.34,1.87-.5,3.78-.75,5.66-7.85-.15-13.6-5.85-20.2-8.68-2.74-1.18-6.88-1.17-8.49-3.4.12-1.86.47-3.48.75-5.28,10.83.46,19.12,7.64,28.69,11.7Z"/>
            <path class="cls-8" d="M268.21,203.64c-3.17,8.37-7.68,16.24-15.1,21.52,1.81-1.69,12.68-14.96,12.46-16.42l-20.2-9.63c-.69-.14-1.37.75-1.7,1.13.56-3.01,1.63-5.99,1.89-9.06,2.61,2.64,6.9,2.04,9.63,3.02,4.65,1.67,9.6,5.86,13.02,9.44Z"/>
            <path class="cls-3" d="M287.46,124.75c-.47,9,2.55,16.84,6.79,24.54-1.57.62-4.38.85-6.04,1.51-5.15-8.06-9.77-15.97-7.55-26.05,2.61-.22,4.22-.16,6.79,0Z"/>
            <path class="cls-15" d="M232.35,215.35c1.45-2.11,4.34-3.96,6.04-6.04-1.89,4.17-.08,2.46.38,4.72.62,3.03,2.21,14.65,1.13,16.99-.79,1.72-4.62,2.56-6.23,2.08-2.63-.79-1.63-9.25-1.7-11.89-.09-3.41-2.16-2.15.38-5.85Z"/>
            <path class="cls-8" d="M239.9,207.42c.94-1.85,1.91-3.92,3.02-5.66-.09,4.86,10.91,2.5,7.55,8.87-2.03,3.85-9.84,1.23-10.57-3.21Z"/>
            <path class="cls-3" d="M282.18,153.81c-.67.46-3.76,3.22-4.15,3.77-2.19-1.82-10.14-2.36-9.06-6.61,1.24-4.87,11.29.46,13.21,2.83Z"/>
            <path class="cls-3" d="M269.34,127.39c7.09,10.91-1.78,16.23-4.15,1.51,1.45-.73,2.68-.98,4.15-1.51Z"/>
            <path class="cls-3" d="M245.56,179.86c-.01-1.96-.38-3.92-.38-6.04,10.29,1.88,15.9,7.65.38,6.04Z"/>
            <path class="cls-3" d="M272.74,182.13c-.23,1.61-.11,3.42-.38,5.28-2.32-1.37-9.27,2.07-8.68-2.45.42-3.22,6.64-3.56,9.06-2.83Z"/>
          </g>
          <g>
            <path class="cls-9" d="M121.36,155.32c-.01.12.01.25,0,.38-1.6,16.79.63,32.6,11.7,45.87,13.64,16.35,25.05,18.19,39.26,1.13,11.2-13.44,14.4-28.67,13.21-45.87,0-.13,0-.25,0-.38l13.21-3.77c3.98,8.04,4.99,14.11,6.04,22.65-3.69.13-16.56.84-15.48,6.61.88,4.69,13.5.9,16.61.94.09,2.24.04,4.55,0,6.79-18.41-1.28-24.98,11.16-1.13,7.93,0,.05.85-.28.75.57-1.52,13.77-6.24,27-12.83,39.07-8.64-11.15-28.92-7.6-31.71,6.42-3.4-3.83-1.79-20.15-9.25-18.5-4.03.89-4.82,14.49-7.36,17.74-3.68-13.64-23.84-16.58-32.09-5.28-7.37-12.87-10.82-24.84-11.7-39.64,22.32,3.12,20.75-8.89,0-7.55.06-2.35-.21-4.76,0-7.17,3.67-.43,15.4,4.16,16.23-1.7s-11.45-5.18-15.1-6.23c1.23-8.39,2.93-16.62,6.04-24.54.11.04.26-.04.38,0,4.32,1.43,8.44,4.22,13.21,4.53Z"/>
            <path class="cls-7" d="M218.38,222.52c-1.51,1.22-7.25,12.91-11.7,16.99-3.21,2.94-6.02,5.43-10.57,5.66-.05-1.9-2.18-6.36-3.4-7.93,6.6-12.07,11.32-25.3,12.83-39.07.09-.85-.76-.52-.75-.57.02-.23,1.07-2.8,1.13-4.15,13.23,3.53,16.29,17.26,12.46,29.07Z"/>
            <path class="cls-7" d="M99.85,193.83c0,.89.7,3.2.75,4.15.88,14.8,4.33,26.77,11.7,39.64-1.02,1.4-2.96,5.86-3.02,7.55-8.18-.8-18.22-13.26-21.14-20.38-4.8-11.73-2.76-28.04,11.7-30.95Z"/>
            <path class="cls-3" d="M204.79,175.33c.3,2.39,1.03,4.89,1.13,7.55-3.11-.05-15.73,3.75-16.61-.94-1.08-5.76,11.79-6.48,15.48-6.61Z"/>
            <path class="cls-3" d="M205.92,189.68c-.02,1.25.06,2.53,0,3.77-.07,1.35-1.11,3.93-1.13,4.15-23.85,3.23-17.28-9.21,1.13-7.93Z"/>
            <path class="cls-3" d="M100.6,183.26c.23-2.63.75-5.31,1.13-7.93,3.65,1.05,15.96.19,15.1,6.23s-12.56,1.27-16.23,1.7Z"/>
            <path class="cls-3" d="M100.6,197.98c-.06-.95-.75-3.26-.75-4.15,0-.5.74-2.9.75-3.4,20.75-1.34,22.32,10.67,0,7.55Z"/>
            <path class="cls-1" d="M197.99,150.79c.5.85.53,1.44.75,1.89l-13.21,3.77c-.19-2.41-.25-4.79-.75-7.17,3.03-.81,6.46-2.28,9.44-3.4,1.58,1.58,2.64,2.96,3.77,4.91Z"/>
            <path class="cls-4" d="M185.54,156.83c1.19,17.2-2.01,32.43-13.21,45.87-14.21,17.05-25.62,15.22-39.26-1.13-11.07-13.27-13.3-29.07-11.7-45.87,20.91,5.43,43.07,5.72,64.17,1.13Z"/>
            <path class="cls-2" d="M184.78,149.28c.5,2.38.56,4.76.75,7.17,0,.13,0,.25,0,.38-21.11,4.59-43.26,4.3-64.17-1.13.01-.12-.01-.25,0-.38.2-1.9.4-3.79.75-5.66,18.83,4.87,43.88,4.65,62.66-.38Z"/>
            <path class="cls-7" d="M161,243.66c-.36,1.79-.57,2.28,0,4.15h-16.23c.11-.35-.23-4.37-.38-4.91,2.54-3.25,3.33-16.85,7.36-17.74,7.46-1.66,5.85,14.67,9.25,18.5Z"/>
            <path class="cls-1" d="M111.93,146.26c3.1,1.15,7.03,2.58,10.19,3.4-.35,1.87-.55,3.77-.75,5.66-4.77-.31-8.89-3.1-13.21-4.53,0-1.84,2.12-3.85,3.77-4.53Z"/>
          </g>
        </g>
        <g>
          <path class="cls-3" d="M155.72,22.44c.04,1.53,1.33,3.27,1.51,4.72.39,3.06.65,21.56-.38,23.4-.54.97-2.56,1.87-2.64,2.08-1.47.07-2.96-.48-3.77-1.7-2.5-3.72-1.26-23.22-.75-28.5,2-.04,4.04-.04,6.04,0Z"/>
          <path class="cls-3" d="M172.33,23.95c1.96,3.37.77,21.55-2.45,22.65-7.66,2.62-4.42-19.59-3.59-23.4,2.26.21,3.82.42,6.04.75Z"/>
          <path class="cls-3" d="M133.44,23.58c2.23-.22,4.58-.6,6.79-.75-.05,3.98,4.93,22.74-.94,23.4-6.54.73-5.82-18.78-5.85-22.65Z"/>
          <path class="cls-13" d="M66.25,85.49c2.73,1.08,12.75,6.24,14.91,7.93.46.36,2.16,1.34,1.7,2.08-5.95-1.96-11.39-6.09-17.36-8.49-2.16-.87-4.78-2-6.98-2.64-1.05-.31-5.16.09-4.72-1.32.55-1.73,10.9,1.84,12.46,2.45Z"/>
          <path class="cls-13" d="M243.29,100.96c-1.79.41-3.7.65-5.47,1.13s-10.39,4.33-10.95,4.15c-.4-.13-.74-.92-.57-1.32.36-.82,15.11-5.47,16.99-5.85,1.2-.25,12.28-2.35,11.7-.19-4.07.46-7.72,1.17-11.7,2.08Z"/>
          <path class="cls-13" d="M63.61,99.08c3.17.64,10.08,2.81,13.02,4.15.58.26,6.51,3.2,2.45,2.83-1.72-.16-8.56-3.64-11.14-4.34-1.3-.35-3.04-.46-4.34-.75-1.91-.43-3.89-1.23-5.85-1.51-.58-.08-7.79.54-6.23-1.32.73-.87,10.41.61,12.08.94Z"/>
          <path class="cls-13" d="M64.74,112.29c1.54.11,14.45,2.41,14.91,3.02.25.33.35.92,0,1.13-.49.29-9.46-1.7-11.14-1.89-.74-.08-1.53.07-2.26,0-.83-.08-1.73-.31-2.64-.38-2.13-.17-10.26.19-10.76,0-.55-.21-.83-.12-.57-.94.31-.99,10.86-1.05,12.46-.94Z"/>
          <path class="cls-13" d="M242.16,114.18c-.92.08-1.74.29-2.64.38-1.26.12-2.52.21-3.77.38-1.18.16-10.62,2.69-8.3.19,4.84-1.29,10.05-2.13,15.1-2.45.89-.06,13.69-1.04,11.7,1.32-.39.46-9.91,0-12.08.19Z"/>
          <g>
            <path class="cls-9" d="M124.76,23.95c-.98.34.42.98-.19,1.51-.37.32-7.63,2.33-9.25,3.02-2.93-4.2-7.42-8.92-11.51-12.08-2.65-2.04-7.18-5.91-10.57-4.91-4.64,1.37-11.02,34.5-8.87,40.01-2.76,3.18-4.92,7.61-8.3,9.81,1.05-13.77-.07-24.5,3.4-38.69,1.76-7.22,6.45-24.54,16.04-22.46,13.26,2.87,20.92,16.02,29.26,23.78Z"/>
            <path class="cls-11" d="M115.32,28.48c-12.15,5.16-22.29,13.05-30.95,23.03-2.15-5.52,4.24-38.65,8.87-40.01,3.39-1,7.92,2.86,10.57,4.91,4.09,3.16,8.58,7.88,11.51,12.08Z"/>
          </g>
          <path class="cls-1" d="M68.51,114.55c2.91,1.63,4.18,4.67,6.42,7.17-3.55-1.13-6.7-4.07-8.68-7.17.74.07,1.53-.08,2.26,0Z"/>
          <g>
            <path class="cls-8" d="M229.33,61.7c-2.23-3.28-5.29-6.81-7.93-9.81.19-1.03.33-1.96.38-3.02.34-8.07-2.57-25.34-6.04-32.65-3.6-7.61-6.19-5.3-11.89-1.32-5.23,3.65-9.75,8.71-13.78,13.59-2.89-1.18-6.82-2.63-9.81-3.4,4.31-6.84,10.13-13.1,16.8-17.74,11.9-8.28,18.89-11.89,25.48,3.59,6.3,14.79,7.64,34.87,6.79,50.77Z"/>
            <path class="cls-11" d="M221.78,48.87l-7.17-4.15c-6.99-6.53-15.64-12.61-24.54-16.23,4.03-4.88,8.55-9.94,13.78-13.59,5.7-3.98,8.29-6.29,11.89,1.32,3.47,7.32,6.38,24.58,6.04,32.65Z"/>
          </g>
          <path class="cls-1" d="M239.52,114.55c-.96,3.16-4.47,5.13-7.17,6.42.26-1.93,2.34-3.33,3.4-4.72.73-.95.95-.51,0-1.32,1.26-.17,2.51-.26,3.77-.38Z"/>
          <g>
            <path class="cls-2" d="M66.25,114.55c1.98,3.11,5.13,6.05,8.68,7.17.26.29.49.47.75.75,9.69,10.47,22.86,18.82,36.24,23.78-1.66.68-3.77,2.69-3.77,4.53-.11-.04-.26.04-.38,0-5.49-1.82-10.98-2.9-16.42-5.28-13-5.68-26.81-16.03-27.75-31.33.91.07,1.82.3,2.64.38Z"/>
            <path class="cls-2" d="M242.16,114.18c-1.94,21.49-25.62,32.07-44.17,36.62-1.14-1.94-2.19-3.33-3.77-4.91,11.85-4.45,23.31-11.1,32.65-19.63,1.05-.96,3.65-2.98,3.59-4.53.69-.26,1.21-.43,1.89-.75,2.71-1.29,6.21-3.26,7.17-6.42.91-.09,1.72-.3,2.64-.38Z"/>
            <g>
              <path class="cls-4" d="M153.83,65.86c6.19.92,7.12,17.65,8.68,22.84,9.03,30.11,38.31,44.03,67.95,33.03.07,1.55-2.53,3.57-3.59,4.53-9.35,8.53-20.81,15.18-32.65,19.63-2.98,1.12-6.41,2.59-9.44,3.4-18.79,5.03-43.84,5.25-62.66.38-3.16-.82-7.09-2.25-10.19-3.4-13.38-4.96-26.55-13.31-36.24-23.78,29.83,5.87,59.8-3.02,68.33-34.92,1.48-5.53,1.48-22.95,9.81-21.71Z"/>
              <path class="cls-14" d="M153.83,118.33c.2-1.27-1.09-.56-1.89-.75-2.87-.7-8.03-4.51-6.79-7.74.78-2.03,14.7-1.84,15.48,0,1.76,4.18-6.42,7.24-6.79,8.49Z"/>
              <path class="cls-13" d="M153.83,118.33c-1.81,6,3.24,12.7,9.63,9.44,3.28-1.68,2.62-8.1,4.15-7.55,1.71.62-.02,6.11-.94,7.36-2.61,3.54-8.03,3.5-11.51,1.32-.76-.47-2.09-2.64-2.26-2.64-.58-.01-3.2,6.01-10.19,3.77-3.33-1.06-6.92-6.99-4.15-9.81l.94.57c.11,12.75,15.57,8.78,12.46-3.21.8.2,2.09-.51,1.89.75Z"/>
            </g>
          </g>
          <g>
            <path class="cls-9" d="M149.68,22.44c-.51,5.28-1.74,24.78.75,28.5.82,1.22,2.31,1.77,3.77,1.7-.93,2.36.98,10.24-.38,13.21-8.33-1.24-8.34,16.18-9.81,21.71-8.53,31.9-38.5,40.79-68.33,34.92-.26-.28-.5-.47-.75-.75-2.24-2.51-3.5-5.54-6.42-7.17,1.68.19,10.65,2.18,11.14,1.89.35-.21.25-.8,0-1.13-.46-.61-13.37-2.91-14.91-3.02-2.34-3.22-1.6-7.42-1.13-11.32,1.3.29,3.04.4,4.34.75,2.58.71,9.41,4.18,11.14,4.34,4.05.37-1.88-2.57-2.45-2.83-2.94-1.34-9.85-3.52-13.02-4.15l1.89-12.08c5.97,2.41,11.41,6.53,17.36,8.49.46-.74-1.24-1.72-1.7-2.08-2.16-1.69-12.18-6.85-14.91-7.93,1.2-4.73,2.99-9.31,4.91-13.78,1.5-3.5,4.65-6.99,4.91-10.38,3.38-2.21,5.54-6.63,8.3-9.81,8.67-9.98,18.81-17.87,30.95-23.03,1.62-.69,8.88-2.7,9.25-3.02.61-.53-.79-1.17.19-1.51,2.04,1.9,5.88-.1,8.68-.38.03,3.87-.69,23.38,5.85,22.65,5.88-.66.9-19.42.94-23.4,3.13-.21,6.3-.32,9.44-.38Z"/>
            <path class="cls-11" d="M96.26,104.74c9.96-1.76,10.91,13.73,1.89,15.1-10.36,1.57-11.37-13.42-1.89-15.1Z"/>
            <path class="cls-13" d="M121.17,62.08c6.12-.78,6.02,7.1,1.51,7.93-6.49,1.2-7.11-7.22-1.51-7.93Z"/>
            <g>
              <path class="cls-6" d="M116.27,78.31c18.7-2.44,22.35,25.45,4.91,27.56-19.03,2.3-21.5-25.4-4.91-27.56Z"/>
              <path class="cls-13" d="M119.29,83.6c14.87-2.15,15.9,18.81,3.77,20.38-14.14,1.83-15.72-18.65-3.77-20.38Z"/>
            </g>
          </g>
          <g>
            <path class="cls-9" d="M166.29,23.2c-.83,3.82-4.08,26.02,3.59,23.4,3.22-1.1,4.42-19.28,2.45-22.65,2.49.38,5.53.52,7.93,1.13,2.99.76,6.92,2.22,9.81,3.4,8.9,3.62,17.54,9.7,24.54,16.23,2.32,2.17,4.7,4.78,6.79,7.17,2.63,3,5.7,6.53,7.93,9.81,4.88,7.2,8.8,15.62,11.7,23.78-3.64,1.41-9.32,4.06-12.65,6.04-.76.45-5.38,3.07-4.72,3.96l17.74-8.49,1.89,12.08c-1.87.38-16.62,5.03-16.99,5.85-.18.4.17,1.19.57,1.32.56.18,9.23-3.68,10.95-4.15s3.69-.72,5.47-1.13l-.75,11.7c-5.05.32-10.26,1.16-15.1,2.45-2.31,2.5,7.13-.03,8.3-.19.95.81.73.37,0,1.32-1.06,1.39-3.13,2.79-3.4,4.72-.68.32-1.2.5-1.89.75-29.64,10.99-58.92-2.92-67.95-33.03-1.56-5.19-2.49-21.92-8.68-22.84,1.36-2.97-.55-10.85.38-13.21.08-.21,2.11-1.11,2.64-2.08,1.03-1.84.76-20.35.38-23.4-.18-1.44-1.47-3.19-1.51-4.72,3.56.07,7.04.42,10.57.75Z"/>
            <path class="cls-13" d="M241.41,87l-17.74,8.49c-.66-.9,3.96-3.51,4.72-3.96,3.33-1.98,9-4.63,12.65-6.04,1.39-.54,11.06-4.5,11.7-2.45.39,1.25-5.01,1.32-6.23,1.7-1.7.52-3.46,1.62-5.1,2.26Z"/>
            <path class="cls-11" d="M206.11,104.74c10.27-2.14,13.52,13.69,4.15,15.1-10.28,1.55-11.95-13.47-4.15-15.1Z"/>
            <path class="cls-13" d="M182.33,62.08c4.27-.92,8.51,4.5,4.91,7.17-5.86,4.34-10.67-5.93-4.91-7.17Z"/>
            <path class="cls-12" d="M221.78,48.87c-.04,1.06-.19,1.99-.38,3.02-2.1-2.39-4.48-5.01-6.79-7.17l7.17,4.15Z"/>
            <g>
              <path class="cls-6" d="M185.73,78.31c21.41-2.45,19.87,31.68-1.89,27.18-14.86-3.08-12.41-25.54,1.89-27.18Z"/>
              <path class="cls-13" d="M183.08,83.6c16.04-2.19,15.72,22.53,0,20.38-10.74-1.47-10.79-18.91,0-20.38Z"/>
            </g>
          </g>
        </g>
      </g>
    </g>
  </g>
</svg>