<?xml version="1.0" encoding="UTF-8"?>
<svg id="katman_2" data-name="katman 2" xmlns="http://www.w3.org/2000/svg" viewBox="0 0 406.93 309.09">
  <defs>
    <style>
      .cls-1 {
        fill: #fee99d;
      }

      .cls-2 {
        fill: #68261c;
      }

      .cls-3 {
        fill: #e8433a;
      }

      .cls-4 {
        fill: #fcd741;
      }

      .cls-5 {
        fill: #fff;
      }

      .cls-6 {
        fill: #91bc56;
      }

      .cls-7 {
        fill: #e62b35;
      }

      .cls-8 {
        fill: #fccd67;
      }

      .cls-9 {
        fill: #739f47;
      }

      .cls-10 {
        fill: #f9b346;
      }
    </style>
  </defs>
  <g id="Layer_1" data-name="Layer 1">
    <g id="_Üretken_Nesne" data-name="Üretken Nesne">
      <g>
        <g>
          <path class="cls-9" d="M377.37,281.52c-9.94-7.69-22.6-15.89-33.63-21.91,2.38-19.46,13.02-41.88,30.32-51.98,1.14.92.52.64.25,1.27-.87,2.09-7.2,7.9-9.17,11.21-6.27,10.54-8.9,24.6-10.19,36.69l6.12-12.74c6.91-11.17,16.89-22.98,31.09-23.44-12.24,9.55-18.82,24.77-24.97,38.73,7.14-11,15.88-20.25,26.24-28.28l-18.6,35.93c6.62-7.67,12.84-16.1,22.42-20.38-9.73,9.62-14.37,22.69-19.87,34.91Z"/>
          <path class="cls-9" d="M65.48,259.09c-10.9,6.38-22.38,12.45-32.62,19.87-4.15-10.48-8.8-22.82-17.33-30.32,2.1-.78,7.05,3.31,8.92,4.84,4.45,3.65,7.7,8.7,11.98,12.49l-18.35-34.65c11.5,6.49,16.69,15.4,23.95,25.48.12.17,1.55,2.02,1.53.51-6.14-12.77-11.61-27.64-23.44-36.18,19.26.33,29.39,19.33,35.16,35.16-.6-17.67-5.68-34.9-17.58-48.16,17.12,8.17,26.28,32.92,27.77,50.96Z"/>
          <path class="cls-9" d="M313.16,245.84c-3.68-1.37-9.13-3.42-12.74-4.59,2.95-17.66,11.75-34.15,28.28-42.3-9.81,13.63-13.42,30.42-15.54,46.88Z"/>
          <path class="cls-9" d="M109.31,241.77c-4.16,1.28-8.68,2.62-12.74,4.08-1.65-15.17-3.46-32.35-13.25-44.59l.25-1.27c15.9,8.07,24,24.55,25.74,41.79Z"/>
          <path class="cls-9" d="M121.03,238.2c-3.02.77-6.85,2.66-9.94,3.57-.3.09-.12-1.21-.76-1.02.46-11.24,1.04-24.1-2.55-34.91-1.55-4.68-5.45-8.13-6.37-12.49,14.73,8.83,19.5,28.72,19.62,44.85Z"/>
          <path class="cls-9" d="M299.4,240.75l-.25,1.02c-3.37-1.26-6.99-2.64-10.45-3.57.79-16.02,6.43-36.54,21.66-44.34-10.51,13.64-11.37,30.18-10.96,46.88Z"/>
          <path class="cls-9" d="M325.39,250.43c-.57-.25-.52,1.13-.76,1.02-2.42-1.04-5.72-3.22-7.9-4.08,3.05-14.18,9.33-27.64,18.6-38.73-5.86,13.16-9.86,27.23-9.94,41.79Z"/>
          <path class="cls-9" d="M92.49,247.37c-2.61.98-5.63,2.02-8.15,3.06.59-13.94-2.96-27.43-7.9-40.26,8.73,10.5,13.81,23.8,16.05,37.2Z"/>
          <path class="cls-9" d="M79.24,252.98c-1.97.86-3.9,2.26-5.86,3.06-.99.4-2.13,1.23-2.8,0,.75-12.16-2.35-23.79-7.39-34.65,8.86,8.34,13.94,19.77,16.05,31.6Z"/>
          <path class="cls-9" d="M337.11,256.04c-2.64-.27-5.27-1.97-7.64-3.06,3.18-12.48,9.35-23.72,18.09-33.12-4.6,11.67-9.83,23.37-10.45,36.18Z"/>
        </g>
        <path class="cls-4" d="M226.01,249.41c-.88,1.44-.61,3.33-1.02,4.59-2.21,6.78-3.21,13.91-5.61,20.64,3.93,1.03,20.2-1.93,17.84,5.61-1.26,4.01-14.16,1.39-18.09,2.29s-12.75,8.49-17.33,7.64l-.51-1.02,11.47-7.9-17.07,1.27c6.88-5.11,1.94-2.18-2.29-5.35,6.09-2.98,12.86-1.93,19.37-2.55-.13-8.66,4.71-15.23,6.12-23.7.11-.64-.07-1.38,0-2.04,1.91.66,5.08.43,7.13.51Z"/>
        <g>
          <path class="cls-9" d="M218.88,250.94c-1.41,8.47-6.24,15.03-6.12,23.7-6.5.61-13.27-.43-19.37,2.55,4.23,3.17,9.18.24,2.29,5.35l17.07-1.27-11.47,7.9.51,1.02c4.57.84,13.27-6.72,17.33-7.64s16.83,1.72,18.09-2.29c2.36-7.54-13.91-4.57-17.84-5.61,2.39-6.73,3.4-13.86,5.61-20.64,40.39,3.44,88.06,16.4,109.31,54.02h71.6s1.11-.13,1.02.25l-.76.76c-112.2-.13-224.41.18-336.6,0,24.08-40.56,75.88-52.24,119.76-56.06-1.17,3.55-2.49,11.38-6.37,13.25-2.54,1.22-7.98.65-10.7,1.53-1.14.37-7.33,4.04-4.08,5.1.75.25,13.53-1.9,15.8-1.53l.76.76-7.13,7.64c.04.44-.2.97.25,1.27,1.12.74,11.96-8.05,14.78-9.17s16.19-2.81,16.56-3.82c2-5.5-12.87-3.42-15.8-3.57-.7-.92,2.63-10.29,3.06-11.98,6.76-3.09,15.35-4.12,22.42-1.53Z"/>
          <path class="cls-6" d="M186.26,228.52c1.5,2.37,7,8.09,7.13,9.17.28,2.31-3.14,12.47-4.08,15.29-43.88,3.82-95.67,15.5-119.76,56.06-23.01-.04-46.04.03-69.05,0l-.51-1.02c10.45-10.07,21.08-20.5,32.87-29.05,10.23-7.42,21.71-13.5,32.62-19.87,1.07-.63,5.18-.79,5.1-3.06.67,1.23,1.81.4,2.8,0,1.96-.8,3.89-2.2,5.86-3.06,1.7-.74,3.85-2.04,5.1-2.55,2.52-1.04,5.54-2.07,8.15-3.06,1.31-.49,2.78-1.06,4.08-1.53,4.06-1.46,8.58-2.8,12.74-4.08,1.59-.49.95-1,1.02-1.02.64-.19.47,1.11.76,1.02,3.09-.91,6.92-2.8,9.94-3.57,21.25-5.41,43.32-8.35,65.23-9.68Z"/>
          <path class="cls-6" d="M288.69,238.2c3.46.93,7.07,2.31,10.45,3.57l.25-1.02c.42.02.55.36,1.02.51,3.61,1.17,9.06,3.21,12.74,4.59.81.3,2.3,1.04,3.57,1.53,2.18.85,5.48,3.04,7.9,4.08.25.11.19-1.27.76-1.02.23.1,2.53,1.84,4.08,2.55,2.38,1.08,5,2.79,7.64,3.06-.02,2.41,5.64,3.03,6.62,3.57,11.03,6.03,23.69,14.22,33.63,21.91,5.17,4,25.65,21.9,28.54,26.5h-71.6c-21.25-37.62-68.92-50.58-109.31-54.02.41-1.25.14-3.15,1.02-4.59,1.07-1.75,5.62-4.04,7.64-6.37,3.43-3.95,6.42-9.05,9.17-13.5,15.43,1.76,30.87,4.63,45.86,8.66Z"/>
          <path class="cls-6" d="M208.18,234.12c2.06,3.97,6.17,13.22,10.7,14.78-.07.66.11,1.4,0,2.04-7.07-2.59-15.66-1.56-22.42,1.53,1.2-4.75,2.47-9.49,3.57-14.27,2.27-.32,5.68-3.77,8.15-4.08Z"/>
        </g>
      </g>
      <g>
        <path class="cls-10" d="M313.66,164.82c1.03-6.1,3.41-12.33,3.57-18.6.12-4.8-1.94-11.14-1.53-15.29.73-7.44,17.55-25.91,4.59-29.05,2.73-2.54,4.14-6.22,6.62-8.92,2.93-3.18,15.52-14.14,17.84-5.35,2.06,7.8-7.82,30.1-13.25,36.69,2.06.66,3.49-2.46,5.35-2.8,14.24-2.59-2.91,22.31-5.86,26.24-5.24,6.99-12.84,11.71-17.33,17.07Z"/>
        <path class="cls-3" d="M159.76,30.28c-9.03-7.67-21.51-9.62-31.34-2.04-3.79,2.92-6.16,9.03-8.41,10.7-4.04-5.11-10.32-14.3-8.15-21.15,2.13-6.73,10.46-4.64,13.5.25-3.47-12.35,17.03-29.3,14.78-7.64,6.48-10.48,26.58-15.61,13.5,2.8,12.82-2.37,16.68,10.42,6.12,17.07Z"/>
        <path class="cls-7" d="M121.54,53.21c1.11,5.59-4.03,21.59-3.06,25.74.07.28,3.78,3.68,4.33,3.82,2.38.6,5.89.23,7.39-1.78,2.95-3.97.45-11.61-1.53-15.29-.03-.06-.46-1.76.51-1.27,2.2,4.76,7.05,18.03-1.27,19.87-6.11,1.36-6.28-2.36-8.92-3.57-.66-.3-9,5.66-10.19-5.35-.82-7.61,4.27-15.76,7.64-22.17.8.1,4.58.17,5.1,0Z"/>
        <path class="cls-10" d="M208.18,234.12c-2.48.3-5.89,3.75-8.15,4.08-1.65.24-4.82-1.8-6.62-.51-.13-1.08-5.64-6.8-7.13-9.17-1.3-2.06-2.06-6.27-3.57-8.15.76-1.14,1.61-.71,2.8-.51,2.25.38,17.05,3.11,17.84,3.57.89.51,3.92,8.93,4.84,10.7Z"/>
        <path class="cls-4" d="M118.99,39.45c1.89.32,6.01,3.75,6.12,5.35.04.63-1.51,1.67-1.53,1.78-8.73.61-17.37.1-24.97,5.1-4.1-1.04,2.71-7.39,4.84-8.66,3.34-1.99,11.77-4.2,15.54-3.57Z"/>
        <path class="cls-10" d="M123.58,46.59c-.29,1.52-.26,5.01-1.53,6.12-.32.28-.48.5-.51.51-.52.17-4.29.1-5.1,0-2.26-.28-4.97-2.3-6.88-2.55-3.55-.45-8.1,1.74-10.96,1.02,7.6-5,16.24-4.49,24.97-5.1Z"/>
        <g>
          <path class="cls-8" d="M326.91,92.96c-2.48,2.69-3.89,6.38-6.62,8.92,12.96,3.14-3.85,21.6-4.59,29.05-.41,4.15,1.65,10.49,1.53,15.29-.16,6.27-2.54,12.5-3.57,18.6-3.55,4.23-7.49,15.27-11.72,21.15-10.54,14.64-27,26.57-43.57,33.38-2.08.86-12.12,3.09-12.74,3.57s-2.12,5.53-2.8,6.62c-2.75,4.46-5.74,9.55-9.17,13.5-2.02,2.33-6.57,4.62-7.64,6.37-2.05-.08-5.22.15-7.13-.51-4.53-1.56-8.64-10.81-10.7-14.78-.92-1.78-3.95-10.19-4.84-10.7-.79-.45-15.59-3.18-17.84-3.57-1.19-.2-2.04-.63-2.8.51-2-2.51-12.25-4.45-16.05-6.12-18.35-8.03-35.23-20.08-42.55-39.49-1.86-4.93-6.52-24.41-5.61-28.79.19-.9,4.75-6.09,3.82-9.17,7.73,12.3,16.35,5.43,14.78-7.13,9.1,14.46,20.25,10.23,17.33-7.13,9.34,12.22,21.06,7.62,16.82-8.15.89-.47,9.84,7.91,15.8,4.08,4.54-2.92,1.94-12.53,2.55-16.82,6.19,6.63,22.93,6.89,20.64-5.35-.34-1.84-3.87-5.69-5.1-7.39,30.36,15.61,55.97,17.72,85.36-1.02,8.88-5.66,30.2-27.14,38.22-28.03,15.97-1.77,2.36,27-1.78,33.12Z"/>
          <path class="cls-1" d="M199.77,123.03c20.85-2.34,45.78,8.29,65.74,13.76,3.83,1.05,12.89.29,14.52,4.84,3.94,11-24.29,21.17-24.46,22.93-.05.48,3.81,2.25,1.02,8.66-4.87,11.18-27,16.96-37.97,16.56-45.66-1.67-63.73-61.72-18.86-66.76Z"/>
        </g>
        <path class="cls-10" d="M200.02,238.2c-1.1,4.77-2.37,9.52-3.57,14.27-.42,1.68-3.75,11.05-3.06,11.98,2.93.15,17.8-1.93,15.8,3.57-.37,1.01-13.63,2.65-16.56,3.82s-13.66,9.91-14.78,9.17c-.45-.3-.21-.83-.25-1.27l7.13-7.64-.76-.76c-2.27-.37-15.04,1.77-15.8,1.53-3.25-1.06,2.94-4.73,4.08-5.1,2.72-.88,8.16-.31,10.7-1.53,3.88-1.87,5.2-9.7,6.37-13.25.93-2.82,4.36-12.98,4.08-15.29,1.8-1.29,4.98.75,6.62.51Z"/>
        <path class="cls-3" d="M129.19,64.42c-.97-.49-.54,1.21-.51,1.27,1.98,3.68,4.48,11.32,1.53,15.29-1.5,2.02-5.01,2.39-7.39,1.78-.56-.14-4.27-3.54-4.33-3.82-.97-4.15,4.17-20.15,3.06-25.74.03-.01.19-.23.51-.51,2.63,3.82,5.17,7.47,7.13,11.72Z"/>
        <g>
          <path class="cls-1" d="M159.76,30.28c9.92,8.43,19.86,27.06,28.03,37.97,5.27,7.03,12.27,13.63,17.33,20.64,1.23,1.7,4.75,5.55,5.1,7.39,2.29,12.24-14.45,11.98-20.64,5.35-.61,4.29,1.99,13.9-2.55,16.82-5.96,3.84-14.91-4.54-15.8-4.08,4.24,15.78-7.48,20.37-16.82,8.15,2.93,17.36-8.22,21.6-17.33,7.13,1.57,12.57-7.05,19.43-14.78,7.13.92,3.08-3.63,8.27-3.82,9.17-8.97,1.24-7.75-5.21-7.64-11.98l8.15-53.25c2.64,1.2,2.81,4.92,8.92,3.57,8.33-1.85,3.47-15.11,1.27-19.87-1.96-4.25-4.51-7.9-7.13-11.72,1.27-1.11,1.24-4.6,1.53-6.12.02-.12,1.57-1.16,1.53-1.78-.11-1.6-4.23-5.03-6.12-5.35.98.31.94-.45,1.02-.51,2.25-1.67,4.62-7.78,8.41-10.7,9.83-7.58,22.31-5.63,31.34,2.04Z"/>
          <g>
            <path class="cls-2" d="M140.14,34.36c9.56-1.45,7.28,14.29-2.04,9.68-3.99-1.97-2.21-9.04,2.04-9.68Z"/>
            <path class="cls-5" d="M142.18,35.88c1.81-.77,3.14,2.63,1.02,3.06s-2.37-2.49-1.02-3.06Z"/>
          </g>
        </g>
      </g>
    </g>
  </g>
</svg>