<?xml version="1.0" encoding="UTF-8"?>
<svg id="katman_2" data-name="katman 2" xmlns="http://www.w3.org/2000/svg" viewBox="0 0 368.15 186.1">
  <defs>
    <style>
      .cls-1 {
        fill: #7a1a27;
      }

      .cls-2 {
        fill: #f8e8ef;
      }

      .cls-3 {
        fill: #d48655;
      }

      .cls-4 {
        fill: #fd5646;
      }

      .cls-5 {
        fill: #f8e519;
      }

      .cls-6 {
        fill: #cf1b15;
      }

      .cls-7 {
        fill: #c19737;
      }

      .cls-8 {
        fill: #f5d659;
      }

      .cls-9 {
        fill: #af4a16;
      }

      .cls-10 {
        fill: #a9593f;
      }

      .cls-11 {
        fill: #c46618;
      }

      .cls-12 {
        fill: #3f413f;
      }

      .cls-13 {
        fill: #cc7a36;
      }

      .cls-14 {
        fill: #e8261c;
      }

      .cls-15 {
        fill: #9eb636;
      }

      .cls-16 {
        fill: #2a1d12;
      }

      .cls-17 {
        fill: #fceb7c;
      }

      .cls-18 {
        fill: #370d06;
      }

      .cls-19 {
        fill: #587b21;
      }

      .cls-20 {
        fill: #d8d8d8;
      }

      .cls-21 {
        fill: #f3f68b;
      }

      .cls-22 {
        fill: #e0975a;
      }

      .cls-23 {
        fill: #f6b99b;
      }

      .cls-24 {
        fill: #97757d;
      }

      .cls-25 {
        fill: #f06782;
      }

      .cls-26 {
        fill: #42404e;
      }

      .cls-27 {
        fill: #7fb03a;
      }

      .cls-28 {
        fill: #fff;
      }

      .cls-29 {
        fill: #fe3822;
      }

      .cls-30 {
        fill: #984e7e;
      }

      .cls-31 {
        fill: #b80a09;
      }

      .cls-32 {
        fill: #db6d62;
      }

      .cls-33 {
        fill: #6e9922;
      }

      .cls-34 {
        fill: #f1a97e;
      }

      .cls-35 {
        fill: #4e77c4;
      }

      .cls-36 {
        fill: #fcfdde;
      }

      .cls-37 {
        fill: #f3d296;
      }

      .cls-38 {
        fill: #b48fb8;
      }

      .cls-39 {
        fill: #f29d29;
      }

      .cls-40 {
        fill: #fcb249;
      }

      .cls-41 {
        fill: #d69117;
      }

      .cls-42 {
        fill: #f9967f;
      }

      .cls-43 {
        fill: #bcb9ad;
      }

      .cls-44 {
        fill: #fda79a;
      }

      .cls-45 {
        fill: #c3673c;
      }

      .cls-46 {
        fill: #d28319;
      }

      .cls-47 {
        fill: #e9b319;
      }

      .cls-48 {
        fill: #335ec4;
      }

      .cls-49 {
        fill: #7683a5;
      }

      .cls-50 {
        fill: #2d2c36;
      }

      .cls-51 {
        fill: #fdcdae;
      }

      .cls-52 {
        fill: #522b0f;
      }

      .cls-53 {
        fill: #fbcb54;
      }

      .cls-54 {
        fill: #822d61;
      }

      .cls-55 {
        fill: #5e1c09;
      }

      .cls-56 {
        fill: #fcf7bd;
      }
    </style>
  </defs>
  <g id="katman_2-2" data-name="katman 2">
    <g id="_Üretken_Nesne" data-name="Üretken Nesne">
      <g>
        <g>
          <path class="cls-47" d="M366.96,74.15c.03-1.19-1.14-1.57-1.98-1.98,0-.75,1.15-.59.99-1.19-.68-2.57-10.88-2.85-13.27-3.17-.05,0-.28-.75-.59-.79-5.54-.7-11.48-.02-17.04-.79l-3.76-9.31c1.18-2.01.11-3.01-1.19-4.75-4.84-6.51-14.37-16.56-20.21-22.59-4.49-4.64-9.27-10.09-15.06-12.88,1.55-2.13,5.98,1.63,7.73,2.77,14.15,9.27,32.48,25.02,45.96,36.06,2.49,2.04,19.65,16.31,19.61,17.63-.23.44-.96.75-1.19.99Z"/>
          <path class="cls-11" d="M351.9,69.79c4.16.48,9.3.53,13.08,2.38.84.41,2.01.79,1.98,1.98-2.48,2.63-8.52,3.6-11.89,4.75-.37-.25-.14-.67-.4-1.19-2.67-5.46-12.89-9.23-18.62-6.74,0-.1-.78-1.23-.4-1.98,5.42.27,10.81.16,16.25.79Z"/>
          <path class="cls-46" d="M247.29,78.5c-1.02,1.36,4.16,2.47,5.15,2.77l-.4,1.19c-4.02-1.08-23.01-5.52-24.57-7.92-.11-2,2.12-2.71,3.57-3.17,5.58,3.16,9.56,6.45,16.25,7.13Z"/>
          <path class="cls-47" d="M355.07,78.9c-4.04,1.39-15.74,5.71-19.42,5.55-.75-.03-.83-.35-1.19-.4.68-1.04-.06-1.57,1.19-2.38,2.97-1.91,15.15-1.38,19.02-3.96.25.52.03.94.4,1.19Z"/>
          <g>
            <path class="cls-53" d="M294.84,16.69c5.79,2.79,10.56,8.23,15.06,12.88,5.84,6.03,15.36,16.07,20.21,22.59,1.3,1.74,2.37,2.75,1.19,4.75l3.76,9.31c5.56.78,11.5.09,17.04.79.32.04.55.79.59.79l-1.58.99.79.99c-5.43-.63-10.83-.52-16.25-.79-3.07-.15-5.68-.82-9.11-.79-1.46.01-1.72-.55-3.57,0-17.75-.14-35.72-1-53.49-.4-1.75.06-3.42.32-5.15.4-4.94.23-9.74.7-14.66,1.19-5.18.52-13.97.49-18.62,1.98-1.45.46-3.68,1.17-3.57,3.17-1.16-1.8-.17-2.83,1.39-4.36,19.04-18.7,46.28-34.75,65.98-53.49Z"/>
            <path class="cls-53" d="M278.79,36.9c.72-.07,2.08.57,2.97.59-4.73,7.97-12.92,12.18-18.03,20.01-5.15,1.91-9.49,4.18-15.85,5.15-1.51.23-1.7-.87-2.38-.79-1.94.23-3.24,4.46-6.14,3.37l31.5-26.75c.35,2.39,6.24-1.41,7.92-1.58Z"/>
          </g>
          <path class="cls-39" d="M249.67,69.39c-.69,2.46-1.71,4.92-.99,7.53.34.25,6.03-2.71,6.93-3.17-1.33,6.06-3.1,5.29-8.32,4.75-6.69-.68-10.67-3.98-16.25-7.13,4.66-1.49,13.44-1.46,18.62-1.98Z"/>
          <path class="cls-12" d="M335.66,68.99c-.39.75.4,1.88.4,1.98-.02,3.48-1.11,7.19-.4,10.7-1.25.8-.51,1.34-1.19,2.38-1.12-.13-3.33-1.74-4.56-1.19-1.16.52.09,2.77-1.39,2.18l-1.98-16.84c3.43-.02,6.04.64,9.11.79Z"/>
          <path class="cls-12" d="M269.48,67.81c-.63,2.72-.71,5.58-1.19,8.32-.77,4.39-2.26,8.7-1.98,13.27-.76-.62-.55-2.6-.79-3.37-.32-1.03.11-1.84-1.58-2.38l-.4-1.19c1.23.26.95,1.73,2.38.99.52-5.53,2.19-6.7-4.36-6.93.49-2.37.73-3.63,1.58-5.94.3-.8.41-1.83,1.19-2.38,1.73-.08,3.4-.34,5.15-.4Z"/>
          <path class="cls-46" d="M264.33,68.2c-.78.54-.89,1.58-1.19,2.38-3.27-.62-5.38,2.08-7.53,3.17-.91.46-6.59,3.42-6.93,3.17-.72-2.61.3-5.07.99-7.53,4.92-.49,9.73-.96,14.66-1.19Z"/>
          <path class="cls-53" d="M364.98,72.16c-3.78-1.85-8.91-1.9-13.08-2.38l-.79-.99,1.58-.99c2.39.32,12.6.6,13.27,3.17.16.6-.99.44-.99,1.19Z"/>
          <path class="cls-41" d="M354.68,77.71c-3.87,2.59-16.05,2.05-19.02,3.96-.71-3.51.37-7.21.4-10.7,5.74-2.49,15.95,1.28,18.62,6.74Z"/>
          <path class="cls-11" d="M263.14,70.58c-.86,2.31-1.1,3.58-1.58,5.94-.35,1.71-1.55,3.75-.4,5.55-.07.02-.92.62-1.19.79-2.96.23-5.18-.87-7.53-1.58-.99-.3-6.17-1.41-5.15-2.77,5.22.53,6.99,1.31,8.32-4.75,2.15-1.09,4.26-3.79,7.53-3.17Z"/>
          <path class="cls-12" d="M263.54,82.47c-.77-.17-1.55-.58-2.38-.4-1.15-1.8.04-3.83.4-5.55,6.55.24,4.88,1.41,4.36,6.93-1.43.74-1.15-.73-2.38-.99Z"/>
        </g>
        <g>
          <path class="cls-6" d="M334.86,157.36c4.36-.17,1.18,2.35.79,3.17-2.21-.8-3.75,3.18-3.96,3.37-2.62,2.25-11.56,7.23-14.86,8.52-5.61,2.19-11.54,2.61-17.24,4.36-3.83-.36-6.44-.47-10.3,0,1.1-1.8-3.19-1.3-4.16-1.58-6.52-1.94-9.07-5.69-14.07-8.72,7.54,2.71,14.15,2.2,21.79,2.38.37,0-.13.4,1.58.4,11.36-.04,20.67-1.48,31.11-6.34,1.96-.92,8.29-5.51,9.31-5.55Z"/>
          <path class="cls-29" d="M335.66,160.53c-1.51,3.21-3.36,7.12-4.36,10.5-.63,2.14-1.52,10.68-1.98,11.49-.4.71-1.06.51-1.19.59-9.09-2.13-19.26-5.46-28.53-6.34,5.7-1.75,11.63-2.17,17.24-4.36,3.3-1.29,12.24-6.27,14.86-8.52.21-.18,1.76-4.16,3.96-3.37Z"/>
          <path class="cls-19" d="M348.73,174c-.28.63-1.19,1.72-1.58,2.38-3.24-3.13-6.65-5.03-11.09-5.94,1.57-5.89,4.67-12.05,9.11-16.25,11.15-2.39,6.1,14.22,3.57,19.81Z"/>
          <path class="cls-29" d="M271.07,166.47c5,3.03,7.55,6.77,14.07,8.72.97.29,5.26-.22,4.16,1.58-6.23.76-10.2,2.33-17.04,2.77-1.03-6.43-4.81-11.72-8.72-16.64,2.04,1.33,5.46,2.31,7.53,3.57Z"/>
          <path class="cls-11" d="M345.17,154.19c-4.45,4.2-7.54,10.36-9.11,16.25-.28,1.05-.23,1.9-.4,2.77-.52,2.67-1.5,5.34-1.19,8.12.15.37.71.13.79.2-.11,1.47-4.57,1.64-4.75.99-.37-1.3,2.78-13.05,3.57-15.06,1.82-4.67,6.1-12.2,11.09-13.27Z"/>
          <path class="cls-19" d="M345.56,179.15c-1.39,1.68-2.57,2.93-4.75,3.57-1.72-.2-4.04.16-5.55-1.19-.08-.07-.64.17-.79-.2-.31-2.79.67-5.45,1.19-8.12l9.91,5.94Z"/>
          <path class="cls-13" d="M271.46,179.55c-.2,0-2.2,1.49-3.57.4.72-1.86-.05-2.83-1.19-4.36.05-.2.04-.58,0-.79,1.12-1.45,1.33-1.74.79-3.57l3.96,8.32Z"/>
          <path class="cls-19" d="M347.15,176.38c-.55.91-.88,1.92-1.58,2.77l-9.91-5.94c.17-.88.12-1.72.4-2.77,4.44.91,7.85,2.82,11.09,5.94Z"/>
          <g>
            <path class="cls-23" d="M252.44,95.15c-.93,1.1-5.8,7.7-6.34,8.72-3.77-2.88-4.89-7.42-6.74-11.49,1.64-1.37,2.86-2.92,3.96-4.75.37.73,1.15,1.5,1.39,2.38l.59-.59-.4-5.15c6.2-3.54,2.96,4,3.17,5.55.19,1.42,4.12,3.58,4.36,5.35Z"/>
            <path class="cls-51" d="M263.54,82.47l.4,1.19c-1.48-.47-1.66.32-2.38.79-4.94,3.24-.37,10.65,4.75,10.3-.44,2.05-3.64,1.46-4.95.79-3.32-1.68-4.81-8.35-2.97-11.49.05-.09,1.47-1.12,1.58-1.19.27-.17,1.12-.78,1.19-.79.83-.19,1.6.23,2.38.4Z"/>
            <path class="cls-22" d="M322.98,68.2c-.11.03.03,1.21-1.78,1.58-3.11.65-6.54.77-9.71,1.19-9.13,1.22-18.16,1.11-27.34,1.58-1.37-.85-4.01-.82-5.55-.4-5.26-1.69-6.54.36-7.53,5.15-.82.39-1.87.97-2.58,1.58l-.2-2.77c.48-2.74.56-5.6,1.19-8.32,17.77-.61,35.74.25,53.49.4Z"/>
            <path class="cls-23" d="M311.48,70.98l1.98,1.19c-2.98-.19-3.3,1.06-3.96,1.19-10.02,1.93-15.06.82-24.57.79.16-.39-.65-1.5-.79-1.58,9.18-.48,18.21-.37,27.34-1.58Z"/>
            <path class="cls-50" d="M284.14,72.56c.14.09.95,1.2.79,1.58-4.28-.01-5.26.53-9.11,1.58-1.31-1.55,1.39-3.18,2.77-3.57,1.53-.43,4.18-.45,5.55.4Z"/>
            <path class="cls-51" d="M278.6,72.16c-1.38.39-4.08,2.02-2.77,3.57-1.9.52-2.43.49-4.75,1.58.99-4.79,2.27-6.84,7.53-5.15Z"/>
            <g>
              <path class="cls-51" d="M326.54,68.2l1.98,16.84c1.47.59.23-1.65,1.39-2.18,1.22-.55,3.44,1.06,4.56,1.19.36.04.44.36,1.19.4.17,2.18,1.77,3.62,1.58,6.14-.33,4.35-4.37,7.32-8.12,8.52-1.01.32-2.54-.46-2.77-.4-.47.12-4.07,7.2-6.14,7.53-3.16,1.37-5.71,2.68-9.11,3.57-.5.13-1.09.28-1.58.4-1.11.25-3.16,1.13-3.57,1.19-5.29.79-14.08.4-19.42-.4-.53-.08-1.98-.31-2.38-.4-.33-.07-.69-.27-1.19-.4-.8-.21-1.6-.51-2.38-.79-.72-.26-1.51-.36-1.58-.4-.49-.23-.89-.62-1.19-.79-5.2-2.95-7.53-5.92-9.91-11.29-.56-1.27-.44-6.66-3.17-5.15.78.69,1.83,1.83,1.58,2.97-5.12.35-9.69-7.07-4.75-10.3.71,3.07,1.29,4.05,3.37,6.34l-.2-5.35.79.59c.24.77.03,2.75.79,3.37-.27-4.57,1.21-8.88,1.98-13.27l.2,2.77c.71-.61,1.75-1.2,2.58-1.58,2.33-1.09,2.85-1.07,4.75-1.58,3.86-1.06,4.84-1.6,9.11-1.58,9.51.03,14.54,1.14,24.57-.79.2,2.24,2.38.53,3.76.79,1.9.35,5.31,3.5,5.35.59-1.33-1.51-3.06-2.44-5.15-2.58l-1.98-1.19c3.16-.42,6.6-.54,9.71-1.19,1.81-.38,1.67-1.55,1.78-1.58,1.85-.55,2.11.01,3.57,0Z"/>
              <g>
                <path class="cls-42" d="M274.83,91.58c9.56-.75,8.05,13.87-1.98,10.3-5.22-1.86-3.23-9.89,1.98-10.3Z"/>
                <path class="cls-42" d="M315.65,92.77c8.33-1.68,9.73,9.52,3.57,10.7-7.99,1.53-9.93-9.41-3.57-10.7Z"/>
                <path class="cls-1" d="M288.9,94.35c4.37,3.82,11.81,3.74,16.25,0,2.65,1.15-.65,6.04-2.38,7.53-3.63-3.46-8.44-2.79-12.28,0-1.67-1.55-3.36-5.1-2.77-7.33.25-.95,1.06-.16,1.19-.2Z"/>
                <path class="cls-55" d="M314.65,79.69c-.46-.07-.34.32-.4.4-2.15,3.22.25,4.85,1.58,1.98,1.09-.22.65.57.79.79-2.34.62.57,2.76-.79,5.35-3.21,6.09-11.89-3.86-3.57-8.52,1.2-.02,1.05-.42,2.38,0Z"/>
                <path class="cls-55" d="M281.77,78.9c4.31,2.77,4.2,11.36-1.78,10.3-3.36-.59-2.47-4.71-2.18-7.13.11-.94-1.21.45,0-1.19,2,3.34,3.95,1.14,1.98-1.58.04-.02.25-.7.59-.79.07-.02.5.36,1.39.4Z"/>
                <path class="cls-28" d="M277.8,82.07c-.29,2.42-1.18,6.54,2.18,7.13,5.98,1.05,6.1-7.53,1.78-10.3,7.96.34,7.15,13.93-2.18,11.89-3.48-.76-5.63-6.97-1.78-8.72Z"/>
                <path class="cls-28" d="M312.28,79.69c-8.32,4.66.36,14.61,3.57,8.52,1.36-2.59-1.55-4.73.79-5.35,7.44,11.61-17.13,11.19-8.72-1.39,1.33-1.99,2.65-1.75,4.36-1.78Z"/>
                <path class="cls-25" d="M302.77,101.88c-3.67,3.14-8.64,3.37-12.28,0,3.85-2.79,8.65-3.46,12.28,0Z"/>
                <path class="cls-23" d="M328.92,93.17c1.48-2.41,3.66-3.59,3.96-7.13,4.42,4.15.17,11-4.16,11.49s.46-3.13.59-3.37c.24-.41-.54-.75-.4-.99Z"/>
                <path class="cls-28" d="M305.14,94.35c-4.43,3.74-11.88,3.82-16.25,0,.94-.31,15.5-.32,16.25,0Z"/>
                <path class="cls-34" d="M332.88,86.03c-.3,3.54-2.49,4.72-3.96,7.13-1.65-1.81.17-9.65,2.97-8.72.26.48.6,1.22.99,1.58Z"/>
                <path class="cls-50" d="M313.47,72.16c2.09.14,3.82,1.06,5.15,2.58-.04,2.91-3.45-.24-5.35-.59-1.39-.26-3.56,1.45-3.76-.79.66-.13.98-1.38,3.96-1.19Z"/>
                <path class="cls-34" d="M263.93,83.66c1.7.54,1.26,1.35,1.58,2.38l-.79-.59.2,5.35c-2.08-2.29-2.66-3.27-3.37-6.34.72-.47.89-1.26,2.38-.79Z"/>
                <path class="cls-23" d="M297.02,85.24c3.74-.15-2.92,1.68-1.78,4.16l2.38.79c-4.47,2.61-4.63-4.79-.59-4.95Z"/>
                <path class="cls-28" d="M279.78,79.3c1.97,2.72.02,4.92-1.98,1.58.83-1.13.79-1.01,1.98-1.58Z"/>
                <path class="cls-28" d="M315.84,81.28c-.04.25.07.65,0,.79-1.33,2.87-3.74,1.24-1.58-1.98l1.58,1.19Z"/>
                <path class="cls-45" d="M315.84,81.28l-1.58-1.19c.05-.08-.06-.46.4-.4,1.08.34,1.38.28,1.19,1.58Z"/>
              </g>
            </g>
            <g>
              <path class="cls-51" d="M347.15,103.86c-.2-.48-5.67-7.56-6.34-8.32.13-1.68,4.5-4.39,4.75-5.35.92-3.49-3.98-6.6,4.95-7.33,2.26.79,1.37,4.23,1.58,4.36.39.23,7.2-3.27,6.74,2.38-7.54.36-5.82,10.67-11.69,14.26Z"/>
              <path class="cls-28" d="M348.93,86.03c1.97-.69,2.07,3.63-.4,3.96-1.37-.48,0-3.83.4-3.96Z"/>
            </g>
          </g>
          <g>
            <path class="cls-19" d="M249.67,156.56c.87.43,1.1,2.28,1.19,2.38-.91.42-9.57,8.28-6.93,8.72.58.1,7.55-6.89,8.92-7.53,3.18,2.7,5.44,4.27,8.32,7.53-4.98.67-9.03,5.53-10.7,9.91-2.46-2.23-5.65-4.77-7.13-7.92-2.82-6-1.43-13.59,6.34-13.08Z"/>
            <path class="cls-7" d="M267.5,171.23c.53,1.83.33,2.11-.79,3.57-.03-.15-1.76-2.03-1.98-2.38-.63-.97-1.09-1.32-1.58-1.98-.67-.9-1.2-1.89-1.98-2.77-2.88-3.26-5.14-4.83-8.32-7.53-.51-.43-1.9-1.1-1.98-1.19-.09-.1-.32-1.94-1.19-2.38,5.98.4,16.18,9,17.83,14.66Z"/>
            <path class="cls-19" d="M264.73,172.41c-1.86.65-7.44,8.78-6.74,10.1,1.91,3.42,8.57-6.33,8.72-6.93,1.13,1.53,1.91,2.5,1.19,4.36-.45,1.16-4.14,3.78-5.35,3.96-3.68.57-6.16-1.73-8.92-3.57l9.51-9.91c.5.66.96,1.01,1.58,1.98Z"/>
            <path class="cls-19" d="M261.16,167.66c.78.88,1.31,1.87,1.98,2.77l-9.51,9.91c-1.68-1.12-1.87-1.59-3.17-2.77,1.67-4.38,5.72-9.23,10.7-9.91Z"/>
            <path class="cls-19" d="M252.84,160.13c-1.36.64-8.34,7.63-8.92,7.53-2.64-.44,6.02-8.3,6.93-8.72.08.09,1.47.76,1.98,1.19Z"/>
            <path class="cls-19" d="M266.71,174.79c.04.22.05.59,0,.79-.15.61-6.81,10.35-8.72,6.93-.7-1.33,4.88-9.45,6.74-10.1.23.35,1.95,2.23,1.98,2.38Z"/>
          </g>
          <g>
            <path class="cls-5" d="M280.58,109.41c1.52,5.98,4.9,11.71,11.49,12.68.04,0,.11.84.79.2-.14-.33-.66-.48-.79-.59-3.71-3.23-7.94-6.3-9.11-11.49.5.13.86.32,1.19.4,2.02,3.67,5.51,9.78,9.91,10.3.31.36.4.48.79.79.06.05-.15.72.2.79,6.4-1.38,12.13-5.95,14.46-12.28.5-.11,1.09-.27,1.58-.4-2.04,6.14-6.96,10.46-12.48,13.47-.53.29-3.63.77-3.76.99-.14.24-.1,5.29,0,5.55.89,2.37,3.68-.44,5.55,1.19-.73.94-4.95,1.25-5.15,1.58-.4.66.16,9.7.2,11.29,5.34.35,10.48-.67,15.65-1.58.25-.04.55.05.79,0,5.98-1.13,11.73-3.12,17.43-5.15.03.08.45.48.79,1.58-.8-.22-.75.38-.79.4-1.47.7-3.21,1.06-4.75,1.58-4.25,1.43-9.7,3.21-14.07,3.96-2.39.41-14.44.75-15.06,1.19-.33.23-.33,4.92,0,5.15.89.28,8.27-.78,7.33.99-.57,1.06-7.13.23-7.53.79-.3.43.23,6.02,0,7.13,13.47,1.19,26.43-2.95,38.44-8.52.23.94.25,1.27.4,1.98-9.82,4.8-20.21,7.64-31.11,8.72-1.21.12-7.22-.22-7.53,0s-.56,6.18-.99,7.13c-1.72,0-1.22-.39-1.58-.4.3-1.07.76-6.34.2-6.74-.68-.48-13.89-1.05-16.64-1.58-7.36-1.42-15.07-4.71-21.99-7.53.14-.92.77-1.5.79-1.58,12.01,5.03,24.86,9.11,38.04,8.52-.66-2,1.21-6.05-.4-7.33.28-.11.69-1.15.79-1.58,1.73-7.33-2.24-5.01-6.54-5.55-9.77-1.22-18.77-2.93-27.14-8.32.19-.49.64-1.2.79-1.58,9.78,5.85,21.65,8.52,32.89,7.73-.47-2.07.63-8.88,0-10.3-.5-1.13-6.09-.28-7.13-1.98l6.74-.4c-.22-1.08.3-6.3,0-6.74-.17-.25-4.26-.94-5.75-1.78-4.1-2.34-7.69-8.5-8.52-13.08.07.03.87.13,1.58.4Z"/>
            <path class="cls-35" d="M292.86,168.85c-7.65-.18-14.25.33-21.79-2.38-2.07-1.25-5.49-2.24-7.53-3.57-3.28-2.14-6.11-4.94-9.51-6.93-.23-1.12.25-1.99.4-2.97,6.92,2.82,14.64,6.11,21.99,7.53,2.75.53,15.96,1.1,16.64,1.58.56.4.1,5.66-.2,6.74Z"/>
            <path class="cls-35" d="M334.86,157.36c-1.02.04-7.35,4.63-9.31,5.55-10.44,4.86-19.75,6.3-31.11,6.34.43-.96.7-6.92.99-7.13s6.32.12,7.53,0c10.9-1.08,21.28-3.92,31.11-8.72.18.85,1.45,2.36.79,3.96Z"/>
            <path class="cls-48" d="M342.79,110.2c-3.27,3.57-11.67,12.17-15.85,13.87-.54.22-1.38.17-1.78.79l-6.54-13.67c1.26-3.32,12.5,4.97,14.07,4.95,1.31-.02,7.67-5.41,8.12-6.54.32-.79-.51-3.72-.79-4.56l2.77,5.15Z"/>
            <path class="cls-48" d="M265.12,123.68c-5.43-3.88-10.16-8.58-14.66-13.47.7-.63,1.15-1.56,1.58-2.38-.72,2.32,6.62,8.61,8.12,8.72,2.47.18,7.84-8.65,12.88-6.14.49.59-7.18,11.73-7.92,13.27Z"/>
            <path class="cls-35" d="M256.8,96.73l-7.13,12.68c-.61-.67-4.29-4.04-4.36-4.56.36-.29.57-.58.79-.99.54-1.02,5.41-7.62,6.34-8.72.49-.58.76-1.54,1.39-1.58,1.38.13,2.64,2.92,2.97,3.17Z"/>
            <path class="cls-35" d="M340.81,95.54c.67.76,6.14,7.84,6.34,8.32.12.3.22.99.4,1.39-.93,1.74-2.72,2.76-3.96,4.16l-7.13-12.68c.16-.13,1.91-3.17,2.58-3.17.59.66,1.2,1.32,1.78,1.98Z"/>
            <path class="cls-35" d="M335.66,97.52c1.09,2.22,3.52,4.89,4.36,7.13l-1.78-1.98c-.49-.05-2.4,5.79-5.55,5.15-2.22-1.21-2.71-4.06-2.58-6.34,1.28-.85,4.41-3.05,5.55-3.96Z"/>
            <path class="cls-56" d="M258.78,97.52c-3.44,2.05-4.94,6.9-6.74,10.3-.43.81-.88,1.74-1.58,2.38-.24-.26-.53-.5-.79-.79l7.13-12.68c.16.13.66-.26,1.98.79Z"/>
            <path class="cls-21" d="M343.58,109.41c-.27.31-.55.53-.79.79l-2.77-5.15c-.04-.12.04-.28,0-.4-.84-2.24-3.27-4.91-4.36-7.13.24-.19.48-.53.79-.79l7.13,12.68Z"/>
            <path class="cls-47" d="M305.94,111.39c-.67,1.37-1.43,2.77-2.38,3.96l-2.38,2.38c-1.98,1.69-3.93,2.97-6.34,3.96-.4-.31-.48-.43-.79-.79-2.63-3-4.9-6.85-7.53-9.91,5.34.8,14.13,1.18,19.42.4Z"/>
            <path class="cls-35" d="M309.5,110.2c-2.33,6.33-8.07,10.9-14.46,12.28-.35-.08-.14-.75-.2-.79,2.41-1,4.36-2.28,6.34-3.96,1.4-1.2,1.15-.83,2.38-2.38.95-1.19,1.71-2.6,2.38-3.96.41-.06,2.45-.94,3.57-1.19Z"/>
            <path class="cls-35" d="M282.95,110.2c1.17,5.19,5.41,8.27,9.11,11.49v.4c-6.59-.97-9.98-6.7-11.49-12.68.77.28,1.58.58,2.38.79Z"/>
            <path class="cls-35" d="M286.52,111c2.63,3.06,4.9,6.9,7.53,9.91-4.4-.52-7.88-6.64-9.91-10.3.39.09,1.85.32,2.38.4Z"/>
            <g>
              <path class="cls-35" d="M330.11,101.49c-.13,2.28.35,5.13,2.58,6.34,3.14.64,5.06-5.2,5.55-5.15l1.78,1.98c.04.12-.04.28,0,.4.28.84,1.11,3.77.79,4.56-.45,1.13-6.81,6.52-8.12,6.54-1.57.02-12.8-8.28-14.07-4.95l6.54,13.67c.41-.62,1.24-.57,1.78-.79l-1.58,1.39c2.24,3.58,2.74,7.8,3.96,11.69-5.71,2.03-11.46,4.02-17.43,5.15,2.28-2.53-2.32-2.81-.79,0-5.18.92-10.31,1.93-15.65,1.58-.04-1.59-.6-10.63-.2-11.29.2-.33,4.43-.65,5.15-1.58-1.87-1.63-4.66,1.18-5.55-1.19-.1-.26-.14-5.31,0-5.55.13-.22,3.24-.7,3.76-.99,5.52-3.02,10.44-7.33,12.48-13.47,3.4-.89,5.95-2.2,9.11-3.57,3.54-1.53,6.58-2.55,9.91-4.75Z"/>
              <path class="cls-28" d="M306.53,139.92c.82-.29,2.17,1.92.79,2.38-1.09.37-2.15-1.9-.79-2.38Z"/>
              <path class="cls-28" d="M311.29,115.36c2-.78,2.08,1.81.79,1.98-.92.12-1.97-1.52-.79-1.98Z"/>
              <path class="cls-28" d="M311.88,142.3c-.25.05-.54-.04-.79,0-1.52-2.81,3.07-2.53.79,0Z"/>
            </g>
            <g>
              <path class="cls-35" d="M258.78,97.52c5.78,4.63,11.16,9.96,19.02,10.7.3.17.7.57,1.19.79.83,4.58,4.42,10.74,8.52,13.08,1.48.84,5.57,1.54,5.75,1.78.3.44-.22,5.66,0,6.74l-6.74.4c1.04,1.7,6.64.85,7.13,1.98.63,1.43-.47,8.23,0,10.3-11.24.8-23.11-1.88-32.89-7.73,1.51-3.82,2.57-8.21,4.36-11.89.75-1.54,8.42-12.68,7.92-13.27-5.04-2.51-10.41,6.33-12.88,6.14-1.51-.11-8.84-6.4-8.12-8.72,1.8-3.4,3.3-8.25,6.74-10.3Z"/>
              <g>
                <path class="cls-28" d="M284.74,125.66c2.36,1.9-.41,1.81-1.58,3.17-2.42-2.03.52-1.58,1.58-3.17Z"/>
                <path class="cls-28" d="M287.91,125.26c1.23.02,1.21,3.17,0,3.17-1.06,0-1.17-3.19,0-3.17Z"/>
                <path class="cls-28" d="M282.36,138.73c1.87-.5,1.9,2.27.79,2.38-.2.02-2.28-1.98-.79-2.38Z"/>
                <path class="cls-28" d="M287.12,137.54c1.06-.82,2.76,1.4,1.19,1.98-1.22.45-1.88-1.45-1.19-1.98Z"/>
                <path class="cls-28" d="M283.15,135.96c1.14-.28,1.38,2.13.4,2.38-1.14.28-1.38-2.13-.4-2.38Z"/>
              </g>
            </g>
            <g>
              <path class="cls-35" d="M293.65,151.02l-8.32.59c-.02,1.02,6.78,1.27,7.53.99,1.61,1.28-.26,5.33.4,7.33-13.18.59-26.03-3.49-38.04-8.52,1.2-5.02,2.95-9.47,4.75-14.26,8.38,5.39,17.38,7.1,27.14,8.32,4.3.54,8.27-1.78,6.54,5.55Z"/>
              <path class="cls-56" d="M293.65,151.02c-.1.44-.51,1.48-.79,1.58-.75.28-7.55.03-7.53-.99l8.32-.59Z"/>
              <path class="cls-28" d="M280.38,147.05c1.9.26.54,2.06.59,2.18.07.15,2.83,1.97.99,2.58-1.98.65-2.44-4.53-1.58-4.75Z"/>
              <path class="cls-28" d="M276.81,150.22c1.27-.48,1.98,1.53.79,1.98-1.27.48-1.98-1.53-.79-1.98Z"/>
            </g>
            <path class="cls-48" d="M329.32,139.13c1.12,1.08,3.94,10.94,3.57,11.69-.18.36-6.8,3.49-7.13,2.38-.3-3.36.6-7.84,0-11.09-.29-1.57-.35-.53-1.19-1.39,1.55-.52,3.28-.89,4.75-1.58Z"/>
            <path class="cls-24" d="M292.07,122.09v-.4c.14.12.65.27.79.59-.68.64-.75-.19-.79-.2Z"/>
            <g>
              <path class="cls-35" d="M330.11,138.73c1.39,4.49,2.45,8.07,3.57,12.68-12.01,5.57-24.97,9.71-38.44,8.52.23-1.11-.3-6.7,0-7.13.4-.56,6.96.27,7.53-.79.94-1.77-6.44-.71-7.33-.99-.33-.23-.33-4.92,0-5.15.62-.44,12.67-.78,15.06-1.19,4.37-.75,9.82-2.53,14.07-3.96.84.86.9-.18,1.19,1.39.6,3.25-.3,7.73,0,11.09.34,1.12,6.95-2.02,7.13-2.38.38-.75-2.44-10.61-3.57-11.69.04-.02-.01-.61.79-.4Z"/>
              <path class="cls-28" d="M307.32,156.17c1.06-.82,2.76,1.4,1.19,1.98-1.22.45-1.88-1.45-1.19-1.98Z"/>
              <path class="cls-28" d="M316.44,147.45c1.24-.4,1.77,2.31.4,2.38-.99.05-1.5-2.02-.4-2.38Z"/>
            </g>
            <path class="cls-43" d="M301.18,117.73l2.38-2.38c-1.23,1.55-.98,1.18-2.38,2.38Z"/>
          </g>
        </g>
      </g>
      <g>
        <path class="cls-20" d="M236.79,80.88c1.06-.01,2.23,1.59.4,2.38-1.31.56-2.7-2.35-.4-2.38Z"/>
        <g>
          <path class="cls-35" d="M172.01,89.6c.13-.02.27.01.4,0,.47,3.84,3.74,9,6.93,11.09,3.76,2.47,7.98.3,6.34,5.94-3.95-.86-7.1.02-10.9.79-4,.81-6.98,2.67-10.3,3.57-1.27.34-1.7.69-3.17.79l6.54-11.49c-7.23-.77-6.46,6.37-13.08,5.55-.52-.06-6.87-2.88-7.13-3.17-.9-1.01-.5-1.26-.59-2.38-.29-3.4,1.45-7.01,1.98-10.3h.4c.2.15,2.61,4.24,3.17,1.98.85,1.69,1.49.73,1.58.79,1.67,1.14,1.23.23,1.58.4.07.03-.1.82.99,1.19,8.21,2.79,4.75,1.01,10.3-2.38,1.36-.83,3.37-2.13,4.95-2.38Z"/>
          <path class="cls-35" d="M215.59,93.96c.09-.06,1.19.93,1.58-.79.76.52.56.23,1.19,0,1.66-.61,2.57-1.54,3.96-2.38l2.77,14.26s0,.62-.79.4c.45-1.06.65-2.06.2-3.17-2.7,1.52-7.53,4.09-10.7,3.57-.89-.15-3.92-2.31-5.55-2.77-2.16-.61-6.07-1.04-7.92-1.19,2.94.9,6.75,9.14,8.32,9.91,1.43.7,3.23.34,4.75.4.32.01.16.79.2.79-6.49.74-9.4-4.42-15.26-5.55-2.07-.4-6.97-.76-8.92-.4-.24.04-.57-.06-.79,0-2.01.43-.98-2.81-1.19-4.36,6.54-.98,11.78-6.09,13.87-12.28,3.23,1.25,7.61,6.24,8.12,6.34.69.13,5.2-2.21,6.14-2.77Z"/>
          <path class="cls-48" d="M224.31,105.45c-.34.79-6.2,5.43-7.13,5.94-.39.22-3.37,1.58-3.57,1.58-.04,0,.13-.78-.2-.79-1.53-.05-3.33.3-4.75-.4-1.58-.77-5.38-9.01-8.32-9.91,1.86.14,5.77.57,7.92,1.19,1.63.46,4.66,2.63,5.55,2.77,3.17.52,8-2.05,10.7-3.57.45,1.11.25,2.11-.2,3.17Z"/>
          <path class="cls-28" d="M243.33,87.62c-1.1,1.83-2.32,3.38-3.96,4.75-.1.08-1.67.16-2.38.79-4.28-1.76-2.73-4.79-8.32-2.77-.55-1.34-.17-2.62-1.98-2.38.92-.68,1.54-.18,1.98-.59.32-.3.02-4.87,2.58-5.35,3.38-.63,1.73,2.61,2.77,4.36,2.02-2.99,6.65-4.14,8.92-.99.49.67.27,1.92.4,2.18Z"/>
          <path class="cls-48" d="M161.31,111.79c-2.62.18-4.23-.73-6.34-.79-2.79-1.78-5.29-3.96-7.92-5.94v-4.75c.09,1.12-.31,1.37.59,2.38.26.29,6.61,3.11,7.13,3.17,6.61.82,5.85-6.31,13.08-5.55l-6.54,11.49Z"/>
          <path class="cls-35" d="M147.83,90l-2.38,13.87c-.8-.65-5.39-3.47-5.55-3.76-.34-.66.35-1.4.4-1.78.43-3.36,2.69-6.25,2.77-9.71.93-1.05,3.79,1.01,4.75,1.39Z"/>
          <path class="cls-35" d="M228.67,90.39c.97,2.37,2.04,5.08,2.77,7.53l-5.15,2.38c-.46-3.03-1.82-7.3-2.77-10.3,1.18-.76,1.92-1.05,3.17-1.98,1.81-.25,1.43,1.03,1.98,2.38Z"/>
          <path class="cls-34" d="M236.99,93.17c-1.81,1.64-3.42,3.8-5.15,5.55-.6.02-.31-.51-.4-.79-.73-2.45-1.81-5.16-2.77-7.53,5.59-2.01,4.04,1.01,8.32,2.77Z"/>
          <path class="cls-5" d="M223.52,90c.95,3,2.32,7.27,2.77,10.3.16,1.06-.43,2.74.4,3.57-.72.58-.46.59-1.58,1.19l-2.77-14.26c.34-.21.8-.55,1.19-.79Z"/>
          <path class="cls-5" d="M149.02,90c-.53,3.29-2.27,6.9-1.98,10.3v4.75c-.56-.42-1.01-.73-1.58-1.19l2.38-13.87c.63.25.44.51,1.19,0Z"/>
          <path class="cls-48" d="M231.44,97.92c.08.28-.21.81.4.79-1.82,1.83-2.85,3.29-5.15,5.15-.83-.83-.24-2.5-.4-3.57l5.15-2.38Z"/>
          <path class="cls-47" d="M198.16,89.6c-2.71,5.35-5.76,8.9-11.09,11.09-.31-.5-.44-.47-.79-.79-.59-.53-3.22-2.3-3.57-1.58-3.1-2.31-5.74-4.35-6.74-8.32,7.63.61,10.25,1.06,18.23.4,1.21-.1,2.23-.8,3.96-.79Z"/>
          <path class="cls-35" d="M175.97,90c1,3.97,3.64,6.01,6.74,8.32.89.67,1.95.96,2.77,1.58l.4,1.58c-6.61-.16-10.88-6.12-12.68-11.89.84-.01,1.77.32,2.77.4Z"/>
          <path class="cls-35" d="M199.74,89.6c.35.05.42.3.79.4-2.15,5.84-6.67,10.49-13.08,11.49-.07-.27-.25-.56-.4-.79,5.33-2.2,8.39-5.75,11.09-11.09.51,0,1.09-.07,1.58,0Z"/>
          <path class="cls-5" d="M201.33,90.39c-2.09,6.19-7.33,11.3-13.87,12.28-.06-.47.02-1.13,0-1.19,6.41-1,10.93-5.65,13.08-11.49.77.2.75.38.79.4Z"/>
          <g>
            <g>
              <path class="cls-50" d="M172.01,89.6c-1.58.25-3.59,1.54-4.95,2.38-5.55,3.39-2.09,5.17-10.3,2.38-1.09-.37-.92-1.16-.99-1.19l-1.39-3.57-.2,3.17c-.1-.07-.74.9-1.58-.79-2.89-8.32-4.72-14.54-5.55-23.38,2.52,3.94,5.18,5.65,9.91,5.75.7,8.1,8.31,12.42,15.06,15.26Z"/>
              <path class="cls-50" d="M218.37,93.17c-.63.23-.43.52-1.19,0,.15-.66.05-2.08-.2-2.77l-1.39,3.57c-.94.56-5.46,2.9-6.14,2.77-.51-.1-4.89-5.09-8.12-6.34-.04-.02-.03-.19-.79-.4-.38-.1-.44-.35-.79-.4,6.77-2.9,14.02-5.99,16.64-13.47.14-.41.16-1.43.4-1.98,2.64.54,6.71-2.13,7.92-4.36.36,8.31-2.68,16.09-6.34,23.38Z"/>
              <path class="cls-42" d="M216.78,74.15c-.24.55-.25,1.58-.4,1.98-2.89.64-2.12,3.08-5.55,3.57-10.55,1.48-10.17-13.57.59-11.09,3.61.83,3.15,5.1,5.35,5.55Z"/>
              <path class="cls-23" d="M153.38,59.88s-.12.56.79,0c-.01,1.69,1.03,3.82,1.19,5.35.18,1.74-.83,3.39-.79,3.57.04.19,2.73,1.55,1.58,3.17s-11.18-4.09-6.34-10.7c1.8-2.46,2.71-1.11,3.57-1.39Z"/>
              <path class="cls-51" d="M159.72,46.8c4.33-9.44,5.73-16.82,17.04-19.81.74-.2,2.09-.71,2.77-.79-.18,4.04-7.8,5.07-10.5,7.13-3.68,2.81-4.6,9.07-7.33,12.48-.71.88-.45,1.22-1.98.99Z"/>
              <path class="cls-23" d="M216.78,55.92c-1,3.06-3.15-4.38-3.57-4.95-3.66-5.02-11.54-8.08-16.84-10.9-.38-.2-3-1.56-2.18-2.38,8.69,5.08,22.04,6.28,22.59,18.23Z"/>
              <path class="cls-23" d="M216.39,76.13c-2.62,7.48-9.87,10.57-16.64,13.47-.49-.07-1.08,0-1.58,0-1.73,0-2.75.69-3.96.79,2.43-2.15,6.09-2.37,8.92-3.96,2.48-1.39,6.31-4.27,7.73-6.74,3.43-.48,2.66-2.93,5.55-3.57Z"/>
              <path class="cls-23" d="M217.57,67.41c2.97-.66,3.59-4.32,3.96-6.74,4.68,5.41,1.79,9.59-4.16,11.49-1.03-.29.15-4.19.2-4.75Z"/>
              <path class="cls-34" d="M221.54,60.67c-.37,2.41-.99,6.08-3.96,6.74.06-.78.26-2.47.4-3.17.37-1.92-.45-4.6,1.98-5.55.47.68,1.05,1.36,1.58,1.98Z"/>
              <g>
                <path class="cls-51" d="M181.12,26.2c1.85,4.69,8.66,8.91,13.08,11.49-.82.82,1.8,2.18,2.18,2.38,5.3,2.82,13.18,5.88,16.84,10.9.42.58,2.57,8.01,3.57,4.95l1.19,8.32c-.14.7-.33,2.39-.4,3.17-.05.57-1.23,4.46-.2,4.75,5.95-1.9,8.84-6.08,4.16-11.49-.54-.62-1.12-1.3-1.58-1.98,1.74-.68,3.3.32,4.36,1.58,2.19,2.61,1.95,6.65.4,9.51-1.21,2.23-5.29,4.9-7.92,4.36-2.19-.45-1.74-4.72-5.35-5.55-10.77-2.48-11.14,12.58-.59,11.09-1.41,2.47-5.25,5.34-7.73,6.74-2.82,1.59-6.48,1.81-8.92,3.96-7.98.66-10.6.22-18.23-.4-1.01-.08-1.93-.41-2.77-.4-.26,0-.54-.03-.79,0-.13.01-.27-.02-.4,0-6.75-2.83-14.36-7.15-15.06-15.26-4.73-.1-7.39-1.81-9.91-5.75-.27-2.87.14-4.88,0-7.13,1.63-2.08,4.97-5.47,6.34-1.58-.86.28-1.77-1.07-3.57,1.39-4.84,6.6,5.14,12.39,6.34,10.7s-1.54-2.98-1.58-3.17c-.04-.18.98-1.83.79-3.57-.16-1.53-1.2-3.66-1.19-5.35,1.76-1.08,1.1-3.95,1.98-6.14.95-2.35,2.52-4.65,3.57-6.93,1.53.23,1.28-.11,1.98-.99,2.73-3.41,3.65-9.67,7.33-12.48,2.7-2.06,10.32-3.09,10.5-7.13.51-.06,1.07.04,1.58,0Z"/>
                <g>
                  <path class="cls-42" d="M162.69,68.2c8.6-1.9,10.76,8.86,4.36,11.09-8.43,2.95-11.62-9.49-4.36-11.09Z"/>
                  <path class="cls-1" d="M193.8,81.28c-3.04-3.52-9.75-3.08-13.08,0-1.99-1.9-5.04-6.92-1.98-8.72.19,2.12,5.87,3.5,7.33,3.57,2.5.12,8.42-1.05,9.71-3.57,3.4.8,0,6.89-1.98,8.72Z"/>
                  <path class="cls-55" d="M171.61,55.52c5.07,2.68,4.42,12.5-2.18,10.7-4.16-1.13-.35-6.47-2.58-7.53.12-.25-.12-.43.4-1.19,2.55,3.73,4.52.78,1.98-1.98.05-.03-.15-.71.2-.79.11-.03,1.44.7,2.18.79Z"/>
                  <path class="cls-55" d="M205.29,59.88c.21,1.21,3.04,5.64-.99,6.74-6.52,1.78-7.53-7.95-2.18-10.7,1.72-.88,2.37-1.01,3.57.59-.11,1.3-1.21-.63-1.39-.59-1.37.29-1.8,4.87.99,3.96Z"/>
                  <path class="cls-28" d="M202.12,55.92c-5.35,2.75-4.34,12.48,2.18,10.7,4.03-1.1,1.2-5.53.99-6.74-.05-.29.31-.38.4-.79h.79c5.57,7.16-3.88,12.35-8.52,7.92-3.49-3.32-1.3-11.8,4.16-11.09Z"/>
                  <path class="cls-28" d="M166.85,58.69c2.23,1.06-1.58,6.39,2.58,7.53,6.6,1.8,7.25-8.02,2.18-10.7.07,0,.46-.71,1.39-.4,6.41,2.19,5.74,14.61-3.17,13.08-5.26-.9-4.67-5.91-2.97-9.51Z"/>
                  <path class="cls-25" d="M193.8,81.28c-4.01,3.68-9.04,3.87-13.08,0,3.32-3.08,10.03-3.52,13.08,0Z"/>
                  <path class="cls-28" d="M195.78,72.56c-1.29,2.52-7.2,3.69-9.71,3.57-1.46-.07-7.14-1.45-7.33-3.57,4.82,1.67,12.84-.99,17.04,0Z"/>
                  <path class="cls-50" d="M168.64,46.8c1.06-.09,4.33.31,4.56,1.39.51,2.4-2.91.7-4.16.99s-5.55,3.17-6.14,1.39c-.42-1.26,4.63-3.67,5.75-3.76Z"/>
                  <path class="cls-50" d="M201.92,47.2c1.99-.31,8.97,1.99,7.33,4.16-.71.94-4.4-1.57-5.35-1.78-1.36-.31-3.23.63-3.96.4-1.89-.6.9-2.6,1.98-2.77Z"/>
                  <path class="cls-23" d="M186.07,61.47c.74-.14,1.68-.14,2.18.59-3.74.9-5.65,3.57-.79,4.75-4.57,2.85-5.33-4.63-1.39-5.35Z"/>
                  <path class="cls-28" d="M167.25,57.5c.54-.79,1.14-1.5,1.98-1.98,2.54,2.77.57,5.71-1.98,1.98Z"/>
                  <path class="cls-18" d="M206.48,59.09h-.79c.68-3.12.69-.14.79,0Z"/>
                </g>
              </g>
              <g>
                <path class="cls-50" d="M217.18,31.35l.4,10.5c.91-.51-.25-3.03,1.58-2.38.56.53,4.42,17.97,4.36,7.53-.02-4.01-1.86-8.38-1.19-12.48,2.07,2.1,3.17,4.17,3.57,7.13.76,5.74-.55,12.94-1.58,18.62-1.06-1.27-2.62-2.26-4.36-1.58-2.43.95-1.61,3.63-1.98,5.55l-1.19-8.32c-.54-11.95-13.89-13.15-22.59-18.23-4.41-2.58-11.23-6.81-13.08-11.49,10.42-.89,26.69.61,36.06,5.15Z"/>
                <path class="cls-26" d="M162.1,29.37c.22-.06.57.06.79,0,1.47,4.21-2.85,7.8-4.75,11.29-2.75,5.03-5.26,10.41-8.12,15.26-.62-.31,3.4-8.79,4.56-9.71-2.59-2.77-4.65,6.42-5.94,8.32-.38.56-1.67-1.35-1.98,2.18-.11-2.21-.7-4.73-.79-6.93-.1-2.35.98-10.42.4-11.69-.12-.26-.25-.56-.4-.79,4.75-3.89,10.38-6.28,16.25-7.92Z"/>
                <path class="cls-50" d="M176.76,26.99c-11.31,2.99-12.7,10.38-17.04,19.81-1.05,2.29-2.62,4.58-3.57,6.93-.88,2.19-.22,5.07-1.98,6.14-.92.56-.75-.01-.79,0-1.37-3.89-4.71-.5-6.34,1.58-.1-1.6-.32-3.14-.4-4.75.31-3.53,1.6-1.62,1.98-2.18,1.29-1.9,3.35-11.09,5.94-8.32-1.16.92-5.18,9.4-4.56,9.71,2.86-4.85,5.37-10.22,8.12-15.26,1.91-3.49,6.22-7.08,4.75-11.29,4.36-1.18,9.38-2.61,13.87-2.38Z"/>
                <path class="cls-26" d="M222.33,34.52c-.68,4.1,1.17,8.47,1.19,12.48.06,10.44-3.8-7-4.36-7.53-1.83-.66-.67,1.87-1.58,2.38l-.4-10.5c2.09,1.01,3.45,1.45,5.15,3.17Z"/>
              </g>
              <path class="cls-28" d="M155.76,93.17c-.36-.16.08.74-1.58-.4l.2-3.17,1.39,3.57Z"/>
              <path class="cls-28" d="M217.18,93.17c-.4,1.72-1.49.74-1.58.79l1.39-3.57c.25.69.35,2.12.2,2.77Z"/>
            </g>
            <g>
              <path class="cls-54" d="M219.56,29.37c.49.26,4.56,2.96,4.75,3.17,1.58,1.71,3.69,7.04,1.58,9.11-.39-2.96-1.49-5.03-3.57-7.13-1.7-1.72-3.07-2.16-5.15-3.17-9.37-4.54-25.64-6.04-36.06-5.15-.52.04-1.07-.06-1.58,0-.68.08-2.03.6-2.77.79-4.49-.23-9.51,1.2-13.87,2.38-.22.06-.57-.06-.79,0-1.67-1.7-7.34.35-9.31,1.19-1.31.56-8.49,5.41-8.12,6.54.13.39,1.14.11,1.19.2.14.23.28.54.4.79-6.66-.58,1.58-6.35,3.17-8.32,1.94-.35,3.68-1.38,5.55-1.98.77-.25,1.62-.59,2.38-.79,2.4-.63,5.46-1.18,7.92-1.58,15.15-2.46,40.6-3.49,54.29,3.96Z"/>
              <path class="cls-39" d="M187.86,4.01c1.26,1.39,2.41,5.56,3.76,6.34.35.2,1.99-.2,2.38,0,1.03.54.72,2.79,1.78,3.37-.64,1.68-2.39.19-2.77.79-.22.34,1.78,6.66,2.38,7.13.17,1.88-3.8,1.85-4.75.79-.58-.64-1.98-7.12-2.97-7.73-2.93.43-5.25,1.31-8.12,2.18l-1.19-6.34,6.93-.59-1.39-4.36c1.35-.48,2.53-1.15,3.96-1.58Z"/>
              <path class="cls-39" d="M224.31,32.54c-.19-.21-4.27-2.91-4.75-3.17.33-4.25-.88-10.73-2.38-14.86-2.06-5.67-6.4-9.15-8.72-14.46,1.01.08,1.55-.05,2.58.4,5.66,2.49,11.45,26.01,13.27,32.1Z"/>
              <path class="cls-39" d="M154.97,27.78c-1.87.6-3.61,1.63-5.55,1.98,3.5-4.34,5.8-7.78,10.3-11.49.11,1.49.83.21.2,1.19-1.77,2.74-4.38,4.92-4.95,8.32Z"/>
              <path class="cls-39" d="M165.27,25.41c-2.47.4-5.53.95-7.92,1.58.43-5.66,9.58-10.01,7.92-1.58Z"/>
              <g>
                <path class="cls-39" d="M208.46.05c2.32,5.31,6.66,8.79,8.72,14.46,1.5,4.13,2.7,10.61,2.38,14.86-13.68-7.45-39.13-6.42-54.29-3.96,1.65-8.42-7.49-4.07-7.92,1.58-.76.2-1.6.55-2.38.79.57-3.4,3.19-5.58,4.95-8.32.63-.98-.08.3-.2-1.19,7.15-5.88,15.5-9.57,24.17-12.68l1.39,4.36-6.93.59,1.19,6.34c2.88-.87,5.19-1.75,8.12-2.18.99.61,2.39,7.08,2.97,7.73.96,1.06,4.92,1.08,4.75-.79-.6-.47-2.6-6.79-2.38-7.13.39-.6,2.13.89,2.77-.79-1.06-.58-.75-2.82-1.78-3.37-.38-.2-2.02.2-2.38,0-1.36-.78-2.51-4.95-3.76-6.34,5.39-1.64,15.16-4.4,20.6-3.96Z"/>
                <g>
                  <path class="cls-39" d="M183.69,17.48c.51.18,2.09,6.05.79,5.94-4.05.74-3.12-1.65-4.16-4.56l3.37-1.39Z"/>
                  <path class="cls-40" d="M169.83,14.71c1.42.08,3.5,5.19,1.19,5.55-2.74.43-2.39-2.93-2.97-4.95.54.03,1.69-.6,1.78-.59Z"/>
                  <path class="cls-39" d="M208.26,17.48c2.62-1.85,2.79,5.57,2.97,6.93.04.27,1.29-.06.2,1.39-1.81.61-3.57-8.04-3.17-8.32Z"/>
                  <path class="cls-39" d="M202.91,15.5l-1.58-3.96c4.53-1.78,2.35.16,4.75,3.76-.28,1.27-1.99.04-3.17.2Z"/>
                  <path class="cls-39" d="M201.33,11.54l1.58,3.96c-.11.01-1.69,1.24-1.78,1.19-.21-.11-2.2-3.55-2.18-3.76.15-1.32,2.23-1.33,2.38-1.39Z"/>
                  <path class="cls-39" d="M206.28,11.14c1.53-.34,3.41,3.85,3.57,5.15-3.57,1.82-4.09-5.03-3.57-5.15Z"/>
                  <path class="cls-40" d="M176.17,12.33c.96.11,2,3.4.79,3.96-1.31.55-2.42-2.69-2.18-3.37.49,0,1.31-.6,1.39-.59Z"/>
                </g>
              </g>
              <path class="cls-30" d="M162.1,29.37c-5.86,1.65-11.5,4.03-16.25,7.92-.05-.09-1.06.19-1.19-.2-.37-1.13,6.81-5.98,8.12-6.54,1.97-.84,7.65-2.89,9.31-1.19Z"/>
            </g>
          </g>
          <g>
            <path class="cls-28" d="M149.42,90h-.4c-.75.51-.56.25-1.19,0-.97-.37-3.82-2.43-4.75-1.39-.09,3.46-2.34,6.35-2.77,9.71-2.4-.08-4.59-3.02-6.14-3.96-.27-.17-1.49.17-1.78,0-.52-.29-2.3-2.15-2.77-2.38-3.57-8.49,5.68-4.75,8.12-5.55.65-.21.02-4.06,3.57-2.77,1.09.4,1.68,3.73,1.98,3.96.7.54,4.99,1.56,6.14,2.38Z"/>
            <path class="cls-49" d="M135.75,87.62c1.77,1.84.71,4.92-1.58,5.94l1.58-5.94Z"/>
          </g>
          <path class="cls-8" d="M186.27,99.9c-.05-.07-.69.08-.79,0-.83-.62-1.88-.92-2.77-1.58.35-.72,2.98,1.05,3.57,1.58Z"/>
        </g>
        <g>
          <g>
            <path class="cls-6" d="M227.48,169.24c-4.42.99-12.57,6.57-19.02,8.32-3.63.98-10.44,2.51-14.07,2.77-.61.04-2.19.02-1.78-1.19.07-.03.55-.96.99-1.19,2.2-1.14,7.68-1.82,4.36-5.55-4.63,2.06-19.01-1.37-10.9,7.53-8.5.72-17.85-.28-26.15-2.38-3.5-.89-6.09-2.47-8.72-3.57,4.66-.14,9.44,1.14,14.07,1.19,18.18.2,33.89-7.67,49.33-16.25.86,2.09,4.79,4.45,7.13,4.36-1.86,1.38-3.61,2.98-5.94,3.57-.07-2-2.95-3.8-4.56-3.17s-2.93,7.48,3.37,6.34c4.19-.76,15.9-8.42,19.22-11.49,4.93-4.56,8.98-11.11,9.91-17.83l-17.63,17.83c.65-3.13.09-4.66-1.98-7.13l2.38-2.38c.57,3.77,6.64,4.45,7.53.99.94-3.66-2.49-7.7-5.94-5.35l.79-7.13c7.86-1.3,17.9-2.49,23.58-8.32,1.9-.08-2.52,11.04-2.97,12.09-4.8,11.13-13.27,20.85-22.98,27.94Z"/>
            <path class="cls-14" d="M229.07,144.68c-1.26.86-1.8,2.93-1.58,4.36l-2.38,2.38h-.4c-5.09-4.52-10.82,1.43-9.11,7.13.04.13-.04.29,0,.4-15.45,8.58-31.15,16.45-49.33,16.25-4.63-.05-9.4-1.33-14.07-1.19-3.01-1.25-3.96-1.39-7.13-3.17l8.92,1.19c7.17-.17,14.75.68,21.6-1.98,1.54.52,2.99.2,4.36-.79,1.15.66,3.8-.37,4.95-.79,7.91-2.86,17.4-8.18,22.39-15.06,3.43-.11,2.7-2.53,3.57-4.36,1.46-3.11,2.55-6.12,3.17-9.51,5.36-.46,10.55-1.11,15.85-1.98l-.79,7.13Z"/>
            <path class="cls-6" d="M208.46,177.57c-1.12,2.24.13,4.23-2.18,5.55-7.67,4.37-33.99,3.46-42.4.4-4.36-1.59-2.86-1.44-2.97-5.94,8.3,2.1,17.65,3.1,26.15,2.38,2.59-.22,2.34.47,5.55-.79-.4,1.21,1.17,1.23,1.78,1.19,3.63-.26,10.44-1.79,14.07-2.77Z"/>
            <path class="cls-42" d="M179.93,169.24c-1.36.99-2.82,1.31-4.36.79-4.25-1.43-2.69-8.27.2-9.11,4.59-1.34,8.58,5.12,4.16,8.32Z"/>
            <path class="cls-42" d="M210.84,149.04c-.86,1.83-.14,4.25-3.57,4.36-9.21.3-1.3-15.79,3.57-4.36Z"/>
            <g>
              <path class="cls-29" d="M214.01,139.53c-.62,3.39-1.71,6.4-3.17,9.51-4.87-11.43-12.77,4.66-3.57,4.36-4.99,6.88-14.48,12.2-22.39,15.06-1.16.42-3.8,1.45-4.95.79,4.42-3.2.43-9.67-4.16-8.32-2.89.85-4.45,7.68-.2,9.11-6.84,2.66-14.43,1.81-21.6,1.98l-8.92-1.19c-1.46-.82-2.94-1.42-4.36-2.38-12.28-8.28-26.9-25.49-27.14-40.81,3.09,6.2,14.5,8.24,21,9.51,24.42,4.77,54.65,4.52,79.45,2.38Z"/>
              <g>
                <path class="cls-42" d="M190.43,149.83c10.61-2.56,8.6,16.49-.79,11.49-4.35-2.31-3.51-10.45.79-11.49Z"/>
                <path class="cls-42" d="M161.11,146.66c9.79-1.69,7.67,16.41-1.58,11.49-4.7-2.5-3.27-10.65,1.58-11.49Z"/>
                <path class="cls-42" d="M137.73,141.9c5.75-1.27,7.44,7.44,3.17,8.72-6.33,1.89-7.89-7.68-3.17-8.72Z"/>
                <path class="cls-4" d="M144.66,162.9c-.05,1.38.35,2.5,1.19,3.57-7.47-3.81-14.77-7.95-20.21-14.46l19.02,10.9Z"/>
                <path class="cls-42" d="M123.47,140.71c4.31-.94,6.23,6.78,2.38,7.53-4.51.88-5.88-6.76-2.38-7.53Z"/>
                <path class="cls-44" d="M154.17,165.68c-1.63,5.14-5.64,2.16-8.32.79-.84-1.07-1.23-2.19-1.19-3.57,0-.13-.02-.27,0-.4,2.94,1.09,7.27,1.17,9.51,3.17Z"/>
                <path class="cls-42" d="M154.17,165.68c-2.24-2-6.57-2.08-9.51-3.17.76-4.53,9.54-1.16,9.91-.2.33.87-.11,2.47-.4,3.37Z"/>
              </g>
            </g>
            <path class="cls-6" d="M215.59,170.04c.46-1.07,1.23-1.91,1.19-3.17,2.34-.59,4.08-2.19,5.94-3.57,2.41-1.78,3.47-.44,4.36-4.75l17.63-17.83c-.92,6.72-4.98,13.27-9.91,17.83-3.32,3.07-15.03,10.73-19.22,11.49Z"/>
            <path class="cls-32" d="M227.08,158.55c-.89,4.31-1.95,2.97-4.36,4.75-2.34.09-6.27-2.27-7.13-4.36-.04-.11.04-.27,0-.4,3.55-1.44,6.65-4.22,9.11-7.13h.4c2.07,2.47,2.63,4.01,1.98,7.13Z"/>
            <path class="cls-32" d="M192.61,179.15c-3.2,1.27-2.96.57-5.55.79-8.12-8.9,6.27-5.47,10.9-7.53,3.32,3.73-2.15,4.41-4.36,5.55-.44.23-.92,1.16-.99,1.19Z"/>
            <path class="cls-32" d="M227.48,149.04c-.22-1.43.32-3.5,1.58-4.36,3.45-2.35,6.88,1.69,5.94,5.35-.89,3.46-6.96,2.78-7.53-.99Z"/>
            <path class="cls-32" d="M216.78,166.87c.04,1.26-.73,2.1-1.19,3.17-6.3,1.14-4.98-5.7-3.37-6.34s4.49,1.17,4.56,3.17Z"/>
            <path class="cls-32" d="M224.71,151.41c-2.46,2.91-5.56,5.69-9.11,7.13-1.71-5.71,4.03-11.65,9.11-7.13Z"/>
          </g>
          <g>
            <path class="cls-17" d="M203.71,132c3.56,1.11,7.33,1.63,10.9,2.77-.81,1.39-4.62.92-6.14.79-2.34-.19-11.1-2.87-11.69-2.77-.39.07-2.19,2.54-2.77,2.77-1.03.41-4.03.65-5.35.79-2-3.33,5.68-2.66,5.55-4.56-.03-.46-2.8-1.8-2.97-1.78-.98.09-.51.76-.59.79-1.88-1.13-1.69-1.17-4.36-1.58-.99-.15-1.27-.88-1.78-.79-.08.01-.38.7-.99,1.19l-2.58.4.2-1.19c1.71-.57,3.5-1.69,5.55-1.78-.83-2.09-3.86,1.49-5.55.2,1.01-.56,3.04-1.12,1.98-2.38,3.87-.12,15.68,5.6,20.6,7.13Z"/>
            <path class="cls-53" d="M236.99,129.62c.09.09.59,1.89.79,2.38.13.32.35.48.4.79-2.42.57-20.77,4.68-21,1.39.74-2.03,3.87-.19,3.96-.4.23-.51-.82-1.05-.79-1.19.18-.96,1.98-2.3.4-2.58.07-.03-.08-.89.99-1.19,1.01-.28,2.07.39,2.18.4-1.56.92.44,1.04,0,2.18-.25.64-3.78,1.86.59,2.97.38-.08,3.74-5.11,4.95-5.94.19-.13-.64-.78,1.39-.79.53,0,5.77,1.61,6.14,1.98Z"/>
            <path class="cls-8" d="M181.52,120.11c-.23.45-.86.82-.59,1.19l5.75-.4c.89,1.23,2.45,1.66,3.57,2.38,3.04,1.95,8.84,5.01,12.28,5.94l-.79,1.58c-6.43-2.21-17.15-8.75-23.58-6.34-1.23.46-1.61.43-1.39,1.98-.59.04-1.2.48-1.78,0-.92-.75-.46-1.13-.59-1.98,1.25-.01,1.96-.95,2.77-1.58.68-.53,1.05-1.07,1.19-1.19,1.05-.88,1.74-1.88,3.17-1.58Z"/>
            <path class="cls-47" d="M208.46,135.56c.83,2.88-4.94,1.52-6.14,1.58-5.38.28-12.61.57-18.82.4-.41-2.02,3.49-1.01,5.15-1.19,1.32-.14,4.32-.38,5.35-.79.58-.23,2.38-2.71,2.77-2.77.59-.1,9.35,2.58,11.69,2.77Z"/>
            <path class="cls-56" d="M201.72,130.81c.63.22,2.18.16,1.98,1.19-4.93-1.53-16.74-7.25-20.6-7.13-2.27.07-4.28,1.45-6.34,1.58-.22-1.55.15-1.52,1.39-1.98,6.43-2.41,17.14,4.13,23.58,6.34Z"/>
            <path class="cls-8" d="M185.48,110.2c-1.22.83-2,1-2.97,1.58-.16.1-.35,1.77-1.19,1.98-.57.14-2.29-.69-3.57-.4-5.39,1.26-7.59,5.04-11.29,8.72,1.27-2.75-.18-6.11-3.17-4.56.6.27.91.3,1.19.99-3.08,1.18-1.64,3-5.15,3.57.33-1.83,1.4-2.93,2.77-4.16-.59-.53-1.08-.04-1.58.2l-.79-.4c3.71-1.69,5.97-.99,7.73-1.58.31-.1,3.99-3.42,5.15-3.96,4.08-1.91,8.28-3.21,12.88-1.98Z"/>
            <path class="cls-17" d="M237.78,132c-.2-.48-.7-2.29-.79-2.38,2.14-4.11-8.93-1.79-9.51-5.94,3.63-.15,11.59,1.1,12.48,5.15,4.05-1.55-2.99-3.7-4.56-5.15,2.19-3.76,8.74,2.34,7.92,4.95-2.4,1.71-2.89,2.78-5.55,3.37Z"/>
            <path class="cls-56" d="M235.41,123.68c1.57,1.45,8.61,3.6,4.56,5.15-.9-4.05-8.85-5.3-12.48-5.15l-.2-.79c1.78.89,7.39-1.49,7.73-.59.49,1.29-1.56-.42.4,1.39Z"/>
            <path class="cls-53" d="M190.63,130.81c-1.24.43-4.61,1.33-5.15,1.58-2-.08.95-2.08.79-3.17,2.67.41,2.48.45,4.36,1.58Z"/>
            <g>
              <path class="cls-56" d="M186.27,129.22c.15,1.09-2.79,3.09-.79,3.17-.3.14-1.61,1-.99,1.58l8.12-1.78c.32-.98-1.62-1.17-1.98-1.39.08-.03-.39-.7.59-.79.17-.02,2.94,1.32,2.97,1.78.13,1.89-7.55,1.23-5.55,4.56-1.66.18-5.56-.83-5.15,1.19-.13,0-.26,0-.4,0,.33-2.29-3.64-.72-4.56-1.19-2.18-4.26,2.14-3.38,2.38-3.57.71-.55,1.73-2.49,2.58-3.17.61-.49.91-1.18.99-1.19.52-.09.8.64,1.78.79Z"/>
              <path class="cls-17" d="M185.48,132.39c.54-.26,3.91-1.15,5.15-1.58.36.22,2.3.41,1.98,1.39l-8.12,1.78c-.62-.59.69-1.44.99-1.58Z"/>
              <path class="cls-17" d="M180.13,133.19s.8.58.4.79c-1.02.54-1.14-.71-.4-.79Z"/>
            </g>
            <g>
              <path class="cls-53" d="M173.19,89.6c1.8,5.77,6.07,11.73,12.68,11.89.6.03.45-1.52.4-1.58.35.32.48.29.79.79.14.23.32.52.4.79.02.06-.06.71,0,1.19.21,1.55-.82,4.78,1.19,4.36-.18.05-2.23,2.26-2.97,2.38-4.22.68-10.04-1.46-14.26,3.17v-1.58c-3.57,3.36-8.25,2.54-12.28,4.36-1.15.52-8.45,6.63-8.52,7.33l1.39,1.78c2.69-3.43,3.73-4.91,7.73-6.74l.79.4c-1.49.7-2.37,2.72-3.57,3.76,1,.64,1.48.34,2.38.2,3.51-.57,2.07-2.39,5.15-3.57,1.03,2.56-.96,2.27-1.98,4.95l3.96-1.39c3.7-3.68,5.9-7.45,11.29-8.72,1.27-.3,3,.54,3.57.4.84-.21,1.03-1.88,1.19-1.98.97-.58,1.75-.76,2.97-1.58,1.42-.96,4.06-1.65,3.96-3.17,1.94-.36,6.84,0,8.92.4,5.85,1.13,8.77,6.29,15.26,5.55.19,0,3.18-1.37,3.57-1.58,5.91-.38,12.97,2.76,14.07,9.11,2.91-.33,20.03,4.2,20.01,6.93-3.16,3.64-8.57,4.28-13.08,5.35-.04-.31-.27-.48-.4-.79,2.66-.59,3.14-1.65,5.55-3.37.81-2.61-5.74-8.71-7.92-4.95-1.96-1.81.09-.1-.4-1.39-.34-.89-5.95,1.49-7.73.59l.2.79c.58,4.16,11.65,1.83,9.51,5.94-.37-.37-5.62-1.98-6.14-1.98-2.03,0-1.2.66-1.39.79-2.07-2.79-.38-.51-1.78-.4-1.19-.82-3.68-4.52-5.15-4.36-.39.04-6.34,4.39-6.14,4.95.98,2.79,7.55-6.67,9.51,0-.28,1.44-1.61.6-1.98.59-.11,0-1.17-.67-2.18-.4-1.07.3-.92,1.16-.99,1.19-5.63,2.05-12.34.81-18.23-.79-3.44-.93-9.25-4-12.28-5.94-1.77-.57-3.8-6.55-4.16-6.74-2.5-1.29.27,3.91.59,4.36l-5.75.4c-.27-.37.37-.73.59-1.19,1.22-2.42,4.26-4.97,6.54-6.34.85-.17.51.7.59.79.1.11-.19,1.13.2,1.19.11.02.41-1.18.79-1.19.58-.01,5.19,6.55,1.39,6.93.42.97,2.31-1.47.99,1.39,6.26-.86.46-6.67-2.18-9.11.12-.17-.3-1.02.59-1.58,3.32-2.08,7.12-.62,10.7-.4,1.43-1.82-.55-1.98-2.18-2.38-2.47-.61-3.9-.42-6.34,0-5.78.99-10.1,5.58-13.47,10.1-.2.27-1.62,1.95-.79,2.18-.14.12-.51.66-1.19,1.19-1.84-1.34-3.19-.99-2.77,1.58.14.85-.32,1.23.59,1.98.58.48,1.19.04,1.78,0,2.06-.13,4.07-1.51,6.34-1.58,1.06,1.26-.97,1.82-1.98,2.38-.57.32-3.81,1.4-3.96,1.78-.99,2.45,3.25.04,3.96-.2l-.2,1.19,2.58-.4c-.85.68-1.87,2.62-2.58,3.17-.24.19-4.56-.69-2.38,3.57.92.47,4.89-1.1,4.56,1.19-3.11-.1-6.21.03-9.31-.4v-1.19c1.99-2.23,3.76-2.44,2.18-5.55-3.75-7.4-17.76-5.89-20.6.59-2.41,5.48,6.04-2.76,6.54-2.97.29-.13,6.3-1.61,5.75-.2-2.43,2.07-2.84,4.5-6.34,3.17,1.27,4.27,4.11,1.39,4.56,1.39.3,0,.09.78.4.79.07,0,1.12-.8,1.19-.79.53.02,2.17,1.49,3.57,1.19.54-.12,2.21-2.02,2.77-2.38.5-.32.56.41.59.4-.48.54-2.72,4.27-2.97,4.36-.29.1-4.9-2.59-5.55-2.38-1.25.4.52,2.64-1.19,3.17-2.5.77-12.21-.87-15.45-1.19-.28-.03-1.49,1.19-1.58,1.19-.27,0-1.98-1.53-2.38-1.58-5.69-.83-20.51-2.7-24.96-5.15-9.89-5.46,14.86-8.18,16.64-9.51.35-.26,1.38-2.83,2.77-3.96,6.29-5.13,7.15-5.77,15.26-5.55,2.11.06,3.72.98,6.34.79,1.47-.1,1.9-.45,3.17-.79,2.89,1.66,7.09-2.62,10.3-3.57,3.79-.77,6.94-1.65,10.9-.79,1.64-5.64-2.58-3.48-6.34-5.94-3.2-2.1-6.47-7.25-6.93-11.09.26-.03.53,0,.79,0Z"/>
              <g>
                <path class="cls-38" d="M186.27,99.9c.05.07.2,1.61-.4,1.58l-.4-1.58c.11.08.74-.07.79,0Z"/>
                <g>
                  <path class="cls-8" d="M175.97,130.41c-1.05-.22-.98.86-1.58,1.19-.03.02-.09-.71-.59-.4-.56.36-2.23,2.26-2.77,2.38-1.4.3-3.04-1.17-3.57-1.19-.07,0-1.12.8-1.19.79-.3-.02-.1-.79-.4-.79-.44,0-3.28,2.88-4.56-1.39,3.5,1.33,3.91-1.1,6.34-3.17.55-1.42-5.46.07-5.75.2-.5.21-8.94,8.45-6.54,2.97,2.85-6.49,16.85-7.99,20.6-.59Z"/>
                  <path class="cls-56" d="M139.91,124.47c-.12,0-.71-.81-2.18-.79-2.13.03-8.39,2.16-9.51,4.36,1.66-.78,3.11-.39,4.95,0,1.07.23,3.12,2.34,4.95,1.58,1.05-1.5.18-3.3,1.39-4.75.2-.25.32-.32.4-.4.12,0,.91.26,1.98.4,2.77,1.93.03,2.01,0,2.18-.12.82,1.26,2.31-.4,3.57,1.03-.39,1.25.68,1.78.59,1.06-.16-.43-1.65.79-1.58.35.28.17.78.2,1.19.03.55-.14,2.21-.59,2.38-.59.21-10.89-1.97-12.28-2.38-2.4-.7-3.04-2.96-6.14-1.78,4.65-6.04,12.38-4.53,17.24-8.52,1.83,2.8-1.82,3.16-2.58,3.96Z"/>
                  <path class="cls-56" d="M189.44,107.03c.1,1.52-2.55,2.21-3.96,3.17-4.6-1.23-8.79.07-12.88,1.98-1.16.54-4.84,3.86-5.15,3.96-1.76.59-4.02-.11-7.73,1.58-4,1.82-5.03,3.31-7.73,6.74l-1.39-1.78c.07-.7,7.37-6.81,8.52-7.33,4.04-1.82,8.71-1,12.28-4.36v1.58c4.23-4.63,10.04-2.49,14.26-3.17.74-.12,2.79-2.33,2.97-2.38.22-.06.55.04.79,0Z"/>
                  <path class="cls-17" d="M206.88,115.75c-2.59-.38,1.45,2.97,1.58,3.96-.07.72-3.01.83-3.17.79-.61-.13-1.25-1.19-1.78-1.58l-.59,3.57c-1.91.69-2.74-2-4.75-2.58,1.98-3.25,1.78-.05,3.37-.59,2.32-3.8-5.06-.36-5.35-3.37,2.58-1.14,5.32-1.57,8.12-1.39-.78-1.12-2.47-.83-.4-1.98,1.12-.09,2.41,2.46,2.97,3.17Z"/>
                  <path class="cls-17" d="M192.61,109.41c.98-.07,6.51,1.87,6.34,0,1.63.4,3.61.56,2.18,2.38-3.58-.22-7.38-1.68-10.7.4-.9.56-.47,1.41-.59,1.58-.04.06-1,.18-1.19.79-.09-.09.26-.96-.59-.79-2.28,1.37-5.32,3.92-6.54,6.34-1.43-.3-2.12.7-3.17,1.58-.83-.23.59-1.91.79-2.18,3.37-4.53,7.69-9.12,13.47-10.1Z"/>
                  <path class="cls-17" d="M151.8,127.24c1.53,3.29-5.77-.43-7.13.99l8.72.99c-.16.32.25,1.32-.2,1.58-1.99,1.15-7.1-2.09-8.92,0-.02-.41.15-.91-.2-1.19-1.23-.06.27,1.42-.79,1.58-.54.08-.76-.99-1.78-.59,1.66-1.25.27-2.74.4-3.57.03-.17,2.77-.25,0-2.18,4.42.58,5.27.5,9.91,2.38Z"/>
                  <path class="cls-56" d="M229.46,128.43c-1.21.83-4.58,5.86-4.95,5.94-4.38-1.11-.84-2.33-.59-2.97.44-1.14-1.56-1.26,0-2.18.37,0,1.7.85,1.98-.59-1.96-6.67-8.53,2.79-9.51,0-.2-.56,5.75-4.91,6.14-4.95,1.47-.16,3.96,3.54,5.15,4.36,1.41-.11-.29-2.4,1.78.4Z"/>
                  <path class="cls-56" d="M189.84,113.77c2.64,2.44,8.44,8.25,2.18,9.11,1.32-2.86-.57-.42-.99-1.39,3.81-.38-.81-6.95-1.39-6.93-.38,0-.68,1.21-.79,1.19-.39-.06-.1-1.08-.2-1.19.19-.61,1.15-.73,1.19-.79Z"/>
                  <path class="cls-17" d="M211.83,120.11c4.8.22-2.78,3.25-3.57,3.57-1.38.56-.77,2.35-3.76.59-.26-.6,6.5-4.2,7.33-4.16Z"/>
                  <path class="cls-56" d="M211.43,115.36c1.66-.41,3.87,1.97,4.16,3.37.38,1.86-1.12,12.07-3.57,7.92,1.67-1.15,3.14-5.81,2.77-7.53-.46-2.14-2.56-2.31-3.37-3.76Z"/>
                  <path class="cls-56" d="M178.54,114.96c.08,0,.92.58,1.39.59-1.61.8-3.53.47-5.35,1.78-1.49,1.08-4.19,7.33-5.35,5.75s5.94-8.43,9.31-8.12Z"/>
                  <path class="cls-56" d="M166.46,122.09l-3.96,1.39c1.02-2.68,3.01-2.4,1.98-4.95-.28-.7-.59-.72-1.19-.99,2.99-1.55,4.44,1.81,3.17,4.56Z"/>
                  <path class="cls-48" d="M150.81,114.56c.79-.13,5.34.19,4.95,1.39-2.68,1.18-5.66.99-8.52.99.73-.82,2.52-2.21,3.57-2.38Z"/>
                  <path class="cls-56" d="M181.12,128.83c-.71.24-4.95,2.65-3.96.2.15-.38,3.39-1.47,3.96-1.78,1.69,1.29,4.72-2.28,5.55-.2-2.05.09-3.84,1.21-5.55,1.78Z"/>
                  <path class="cls-17" d="M174.78,107.43c-3.21.94-7.41,5.22-10.3,3.57,3.33-.9,6.3-2.76,10.3-3.57Z"/>
                  <path class="cls-17" d="M218.56,118.92c4.78,1.23,4.05,3.1-.4,3.17-.91-.3-.51-2.98.4-3.17Z"/>
                  <path class="cls-56" d="M148.43,112.58c.69.13.84.41.59.99-.15.35-5.78,5.22-5.94,2.77.4-2.38,1.67-.91,1.78-.99.63-.47,2.85-2.91,3.57-2.77Z"/>
                  <path class="cls-56" d="M190.23,123.28c-1.12-.72-2.68-1.14-3.57-2.38-.32-.45-3.09-5.65-.59-4.36.36.18,2.39,6.16,4.16,6.74Z"/>
                  <path class="cls-56" d="M153.38,129.22l-8.72-.99c1.37-1.42,8.66,2.3,7.13-.99.66.27,2.04.29,2.38.99.31,1.28-.76.93-.79.99Z"/>
                  <path class="cls-56" d="M195.98,122.49l9.31,4.95c-.24.64-8.93-3.82-9.31-4.95Z"/>
                  <path class="cls-56" d="M159.33,122.09c-.89.14-1.38.44-2.38-.2,1.2-1.05,2.08-3.06,3.57-3.76.5-.24.99-.72,1.58-.2-1.37,1.23-2.44,2.33-2.77,4.16Z"/>
                  <path class="cls-56" d="M206.88,115.75c.72.92,3.57,3.05,1.58,3.96-.13-.99-4.17-4.34-1.58-3.96Z"/>
                  <path class="cls-56" d="M198.95,109.41c.17,1.87-5.36-.07-6.34,0,2.44-.42,3.87-.61,6.34,0Z"/>
                  <path class="cls-36" d="M177.16,122.88c-.81.63-1.52,1.57-2.77,1.58-.41-2.57.93-2.92,2.77-1.58Z"/>
                  <path class="cls-56" d="M205.29,120.51c-.53.58-1.68,1.73-2.38,1.98l.59-3.57c.54.39,1.17,1.46,1.78,1.58Z"/>
                  <path class="cls-2" d="M150.01,112.58c1.5.1,3.09-.24,4.56.2,0,.23-4.21.54-4.56-.2Z"/>
                  <path class="cls-56" d="M158.73,113.37c.39.04,1.77-.15,1.78.2-.22.26-2.1.48-1.78-.2Z"/>
                  <path class="cls-5" d="M195.19,112.98c1.02-.54,1.14.71.4.79-.04,0-.8-.58-.4-.79Z"/>
                  <path class="cls-17" d="M139.91,124.47c-.07.08-.19.15-.4.4-2.19.69-4.92,1.2-6.34,3.17-1.84-.39-3.29-.78-4.95,0,1.12-2.2,7.38-4.33,9.51-4.36,1.46-.02,2.06.79,2.18.79Z"/>
                  <path class="cls-53" d="M139.51,124.87c-1.2,1.46-.34,3.26-1.39,4.75-1.83.76-3.88-1.36-4.95-1.58,1.42-1.97,4.15-2.48,6.34-3.17Z"/>
                </g>
              </g>
            </g>
          </g>
        </g>
      </g>
      <g>
        <g>
          <path class="cls-47" d="M135.95,69.79l-31.5-1.58c-1.53-2.62-.94-4.85-2.18-7.73-1.66-3.87-7.88-11.84-10.7-15.45-7.22-9.25-16.21-18.8-25.76-25.56l2.18-.4c22.83,16.44,46.41,32.7,67.96,50.72Z"/>
          <path class="cls-53" d="M6.77,72.16c7.7-6.95,15.27-14.07,22.98-21,1.5.53,2.72-2.11,3.76-2.77.18-.11,3.35-1.06,3.57-1.19.75-.45,3.42-3.4,3.96-3.57.15-.05,2.08.58,3.17.4.5-.09,1.47-1.6,1.58-1.58.13.02.44,1.23.79,1.19,1.96-.21,4.21-1.38,6.34-.79.7.78-10.08,17.58-11.09,17.83-1.63.41-2.25-.81-2.38-.79-.34.04-2.16,2.48-2.77,2.77-4.12,2.01-11.29,5.18-15.85,6.34-1.67.43-8.16.4-9.11.79-.83.34-4.33,5.57-4.95,2.38Z"/>
          <path class="cls-11" d="M113.76,70.58c2.69,4.73,10.02,2.83,13.87.4,3.5.32,7.41,0,10.3,2.38-2.01,2.45-21.79,9.28-25.76,10.3-.8.21-.84,1.47-2.77-.4-.08-1.63,1.72.05,2.38-.99,1.34-2.12-.96-9.21-1.58-11.69,1.2.01,2.38-.03,3.57,0Z"/>
          <path class="cls-16" d="M48.77,72.56c-.53,3.03-1.15,6.07-1.58,9.11-.26,1.85-1.13,5.2-1.19,6.74-1.38-.25-2.03-1.8-2.77-2.77-.09-.12.02-1.64-.99-1.98-2.88.92-3.8,3.42-4.95,5.94-.05-.12-1.2-.86-1.58-1.98-.95-2.81-1.36-9.1-2.38-12.48-.4-1.34-.05-.6-1.19-1.39,5.59-.46,11.03-.9,16.64-1.19Z"/>
          <path class="cls-46" d="M30.94,73.75c.27,2.25.54,4.76,1.19,6.93.83,2.8,3.96,5.43.4,6.93-2.05-.08-3.94-.56-5.94-.79-.83-.1-1.61-.29-2.38-.4-3.17-.42-6.55-.48-9.71-1.19S.63,81.96.03,78.9c1.27.32,1.54-.37,2.38-.79-.34,1.4,1.19,1.32,2.18,1.58,2.97.81,22.26,5.03,23.77,4.36l.79-8.32c-3.87,1.13-7.74,1.01-11.69,1.19l5.55-2.77c2.62-.29,5.35-.17,7.92-.4Z"/>
          <path class="cls-52" d="M32.13,73.75c1.14.78.78.04,1.19,1.39,1.02,3.38,1.42,9.67,2.38,12.48-1.05-.03-2.12.04-3.17,0,3.56-1.5.44-4.13-.4-6.93-.65-2.17-.92-4.68-1.19-6.93.39-.03.8.03,1.19,0Z"/>
          <path class="cls-47" d="M2.41,78.11c1.22-.61,2.21-1.24,3.57-1.58,3.77,1.3,7.65.57,11.49.4s7.82-.06,11.69-1.19l-.79,8.32c-1.51.67-20.8-3.55-23.77-4.36-.99-.27-2.52-.19-2.18-1.58Z"/>
          <g>
            <path class="cls-53" d="M135.95,69.79c1.13.95,2.47,1.83,2.77,3.37-.06.34-.74.14-.79.2-2.9-2.38-6.8-2.06-10.3-2.38-4.68-.42-9.22-.27-13.87-.4-1.19-.03-2.37.01-3.57,0-.39,0-.8,0-1.19,0-2.55-.02-4.98-.02-7.53,0-3.84.03-7.68.27-11.49.4-.79.03-1.59-.03-2.38,0-8.2.32-19.62-.32-27.34,1.19-.68.13-.9.16-1.58.4-2.92-1.13-6.92-.15-9.91,0-5.61.28-11.06.72-16.64,1.19-.39.03-.8-.03-1.19,0-2.58.22-5.31.11-7.92.4-5.01.56-12.32,1.16-17.04,2.38-1.36.35-2.35.97-3.57,1.58-.84.42-1.11,1.11-2.38.79-.51-2.64,4.92-5.1,6.74-6.74.63,3.19,4.13-2.04,4.95-2.38.95-.39,7.44-.37,9.11-.79,4.56-1.16,11.73-4.33,15.85-6.34.61-.3,2.44-2.73,2.77-2.77.12-.01.75,1.2,2.38.79,1.02-.26,11.8-17.05,11.09-17.83-2.13-.59-4.37.58-6.34.79-.35.04-.67-1.17-.79-1.19-.11-.01-1.08,1.5-1.58,1.58-1.09.19-3.02-.44-3.17-.4-.54.16-3.21,3.12-3.96,3.57-.22.13-3.39,1.07-3.57,1.19-1.04.67-2.27,3.3-3.76,2.77,11.89-10.69,23.9-21.31,36.06-31.7,9.54,6.76,18.54,16.31,25.76,25.56,2.82,3.61,9.04,11.58,10.7,15.45,1.24,2.88.65,5.11,2.18,7.73l31.5,1.58Z"/>
            <path class="cls-53" d="M60.46,33.33c1.35.08-.91,3.03-.99,3.37-.24,1.01.58,1.68.4,2.38-.09.35-2.34,3.73-2.38,3.96-.25,1.52,1.27,1.09,1.19,2.38-.07,1.12-2.22,4.1-2.38,4.75-.62,2.54,1.07,6.75-3.37,7.73-.14.03-2.63-.82-2.77-.79-.25.05-2.47,2.34-4.36,1.98l14.66-25.76Z"/>
            <path class="cls-53" d="M62.84,41.65c1.79,1.42.2,3.42.2,3.76-.06,5.34,1.84,13.59-6.14,11.29l3.76-12.48c1.77-.1,1.15-1.58,2.18-2.58Z"/>
          </g>
          <path class="cls-39" d="M127.63,70.98c-3.85,2.44-11.18,4.33-13.87-.4,4.65.12,9.19-.03,13.87.4Z"/>
          <path class="cls-9" d="M110.19,70.58c.63,2.48,2.93,9.57,1.58,11.69-.66,1.04-2.45-.64-2.38.99h-.4c.58-3.94.4-7.55,0-11.49-.04-.39.02-.8,0-1.19.39,0,.8,0,1.19,0Z"/>
          <path class="cls-11" d="M23.02,74.15l-5.55,2.77c-3.84.17-7.72.9-11.49-.4,4.72-1.21,12.03-1.82,17.04-2.38Z"/>
          <path class="cls-16" d="M109,70.58c.02.39-.04.8,0,1.19l-4.16-.79c-.65,2.34.96,4.72-.2,6.93l-1.19-.99-.4-.4-1.58-5.94c2.55-.02,4.98-.02,7.53,0Z"/>
        </g>
        <g>
          <path class="cls-23" d="M81.66,114.17c-.49.53-4.98,6.31-5.15,6.74-.22.53-.42,1.39-.4,1.98-1.26.21-.73.26-1.98,0,.68-1.55-.61-2.31-1.58-3.57-1.18-1.51-4.81-4.56-5.15-5.94l14.26.79Z"/>
          <g>
            <path class="cls-29" d="M34.9,154.58c.4.76-.42,2.07-.4,2.18.14.58,8.65,5.89,9.91,6.54-.95,1.33,3.89,4.2,4.95,4.75,16.03,8.41,37.91,6.08,53.89-1.19l3.76-5.15c2.49-1.69,4.59-4.4,7.53-5.55,0,.04.82-.12.79.2-8.07,6.01-14.53,13.7-15.85,23.97-1.57-.12-4.15.26-6.14,0-6.94-.9-13.82-2.83-20.8-3.57l11.69-3.17c-4.72.1-11.34,2.68-15.85,2.38-3.65-.24-8.96-3.58-12.68-4.36l10.5,4.95-21,6.54c-.26.03-.53-.02-.79,0-2.17.2-4.32.67-6.54.4-1.31-.4-.42-3.82-.59-5.35-.87-7.43-2.42-15.56-7.92-21,.08-.29,4.97-1.92,5.55-2.58Z"/>
            <path class="cls-19" d="M124.46,169.24c-.76,1.96-1.6,3.43-2.77,5.15-1.12.12-.66.57-1.58-.2-2.93-2.44-4.96-6.8-9.91-6.93,1.04-1.63,1.85-3.49,3.17-4.95,2.3-2.55,4.87-3.79,7.13-6.14,8.57-.03,5.97,7.94,3.96,13.08Z"/>
            <path class="cls-15" d="M120.49,156.17c-2.26,2.36-4.83,3.6-7.13,6.14-1.32,1.46-2.13,3.32-3.17,4.95-.7,1.1-1.37,1.97-1.98,3.17-.41.81-.83,1.52-1.19,2.38-1.03,2.45-3.09,5.56-1.58,7.92-1.37.75-2.82.07-4.36,0-.58-8.03,11.84-24.54,19.42-24.57Z"/>
            <g>
              <path class="cls-19" d="M22.62,154.58l7.92,15.06-2.58-3.96c-4.29.91-7.04,3.5-10.5,5.94-2.24-6.19-6.05-19.91,5.15-17.04Z"/>
              <path class="cls-19" d="M30.54,169.64c.3,3.23,2.89,8.47,1.58,11.49-15.41,4.5,2.39-2.87-1.39-7.92l-8.92,6.74c-1.08-1.4-2.39-3.56-3.17-5.15-.46-.95-.82-2.16-1.19-3.17,3.46-2.44,6.21-5.03,10.5-5.94l2.58,3.96Z"/>
              <path class="cls-15" d="M31.73,181.92c.07-.07.32-.6.4-.79,1.3-3.02-1.28-8.26-1.58-11.49l-7.92-15.06c7.98,2.05,12.62,14.05,13.08,21.6.22,3.58,1.06,9.52-3.96,5.75Z"/>
              <path class="cls-19" d="M32.13,181.13c-.08.19-.33.73-.4.79-1.93,1.99-4.9.8-7.13.79-1.09-.81-1.94-1.7-2.77-2.77l8.92-6.74c3.77,5.05-14.02,12.43,1.39,7.92Z"/>
            </g>
            <path class="cls-19" d="M121.68,174.4c-1.3,1.9-2.69,3.22-4.36,4.75-1.07-1.61-1.91-3.39-3.37-4.75-1.68-1.57-4.06-2.41-5.75-3.96.61-1.2,1.28-2.07,1.98-3.17,4.95.13,6.97,4.5,9.91,6.93.92.77.46.31,1.58.2Z"/>
            <path class="cls-19" d="M114.15,181.92c-2.89,1.62-6.38,2.49-8.72-1.19-1.5-2.36.55-5.47,1.58-7.92,3.15,1.35,6.69,5.6,7.13,9.11Z"/>
            <path class="cls-31" d="M72.55,176.77c-9.31.55-17.98,5.26-27.34,6.34l21-6.54-10.5-4.95c3.72.78,9.03,4.12,12.68,4.36,4.51.3,11.13-2.28,15.85-2.38l-11.69,3.17Z"/>
            <path class="cls-19" d="M117.32,179.15c-1.33,1.23-1.29,1.72-3.17,2.77-.44-3.51-3.98-7.77-7.13-9.11.36-.86.78-1.57,1.19-2.38,1.69,1.55,4.06,2.4,5.75,3.96,1.46,1.36,2.3,3.14,3.37,4.75Z"/>
            <path class="cls-6" d="M44.41,163.3c10.11,5.2,19.61,6.75,30.91,6.74.3,0,.99.43,1.98.4,10.07-.34,21.37-3.06,29.72-8.72l-3.76,5.15c-15.98,7.27-37.86,9.6-53.89,1.19-1.07-.56-5.9-3.43-4.95-4.75Z"/>
            <g>
              <path class="cls-27" d="M95.13,110.2c.37,1.54,1.88,1.82,2.77,2.77,2.41,2.56,7.3,11,8.72,14.26.12.28-.59.52-.4.99,1.61,3.85,2.7,7.35,3.96,11.29-9.85,5.37-21.36,7.87-32.49,8.12v-6.14c2.43-.16,4.84-.44,6.74-2.18-2.65.36-4.31.89-7.13.99v-5.94c1.72-.28,4.84-1.23,6.34-2.18-2.22-1.02-4.31.28-6.74.59l-.4-8.72c7.19-1.14,10.57-12.29,12.88-13.47,1.81-.93,4,.03,5.75-.4Z"/>
              <path class="cls-27" d="M52.73,149.04c-1.74-.6-.59,2.45-.4,2.97,2.82,7.71,9.01,5.16,12.68-.2.04-.05.96.03,1.19-.59l-.2-1.39c-4.13.85-9.92-.19-13.08-3.17l22.59,2.77c.71.31,1.26,5.34-.2,5.55l-8.32-.59c2.13,2.28,5.75,2.29,8.72,2.18l-.2,5.55c-14.03-.12-28.15-2.45-40.22-9.91,1.47-3.74,2.54-7.71,3.96-11.49,2.08,2.45,10.03,3.75,11.69,5.15.45.38.74,2.3,1.78,3.17Z"/>
              <path class="cls-33" d="M119.7,114.96l.2-1.19c-2.67-.51-5.49,6.88-9.91,5.94-1.73-.37-8.35-8.6-12.09-6.74-.9-.96-2.41-1.23-2.77-2.77,6.67-1.62,12.31-5.34,17.63-9.51l8.52,12.88c0,.3-1.42,1.17-1.58,1.39Z"/>
              <path class="cls-27" d="M75.32,170.04c-11.3.02-20.79-1.53-30.91-6.74-1.25-.65-9.77-5.96-9.91-6.54-.03-.11.79-1.42.4-2.18.21-.24.38-.37.4-.4,12.03,7.13,26.31,9.68,40.22,9.51l-.2,6.34Z"/>
              <path class="cls-33" d="M53.53,109.41c-.04,1.05-1.09,1.59-1.58,2.38-4.59-2.29-9.67,6.67-11.29,7.13-3.74,1.06-7.4-4.54-9.71-6.74.57-1.57,5.52-11.9,6.54-11.89,4.67,4.24,10.17,6.99,16.05,9.11Z"/>
              <path class="cls-27" d="M114.55,156.17c-2.94,1.15-5.04,3.86-7.53,5.55-8.34,5.65-19.65,8.38-29.72,8.72.17-1.06-.31-6.37.2-6.74.44-.31,9.1-.53,10.7-.79,8.99-1.48,18.09-4.02,25.95-8.72.12.66.4.93.4,1.98Z"/>
              <path class="cls-8" d="M75.72,141.11c.92-.03,1.81.41,1.98.4v6.14c11.14-.26,22.64-2.75,32.49-8.12.31.98.31,1.7.4,1.98-6,2.57-11.99,4.98-18.43,6.34-2.38.5-13.68,1.17-14.26,1.58-.5.36-.04,4.6-.2,5.55-.8.05-1.99.76-2.38,0,1.46-.2.91-5.23.2-5.55l-22.59-2.77c3.16,2.98,8.94,4.02,13.08,3.17l.2,1.39c-.23.63-1.15.54-1.19.59-3.38.16-9.63-.55-12.28-2.77-1.04-.87-1.33-2.79-1.78-3.17-1.66-1.4-9.61-2.7-11.69-5.15.13-.33.14-.92.4-1.58,10.8,6.17,23.45,8.97,35.86,8.72l.2-6.74Z"/>
              <path class="cls-53" d="M75.72,156.56c.6-.02,1.88.02,1.98,0-.65,6.37.58,5.39,6.14,5.15,10-.43,21.44-4.76,30.31-9.11.09.42-.01,1.51,0,1.58-7.86,4.69-16.96,7.24-25.95,8.72-1.6.26-10.26.48-10.7.79-.51.36-.03,5.68-.2,6.74-.99.03-1.69-.4-1.98-.4l.2-6.34c-13.9.17-28.19-2.38-40.22-9.51.05-.09-.57-.54,0-1.98,12.07,7.45,26.19,9.78,40.22,9.91l.2-5.55Z"/>
              <path class="cls-33" d="M51.94,111.79c-2.36,3.79-6.12,11.31-7.92,15.45l-14.26-13.27c-.09-.61,1.04-1.37,1.19-1.78,2.31,2.2,5.97,7.79,9.71,6.74,1.62-.46,6.7-9.42,11.29-7.13Z"/>
              <path class="cls-33" d="M119.7,114.96c-3.47,4.52-8.56,8.78-13.08,12.28-1.41-3.26-6.31-11.7-8.72-14.26,3.74-1.87,10.35,6.37,12.09,6.74,4.42.94,7.24-6.45,9.91-5.94l-.2,1.19Z"/>
              <path class="cls-33" d="M25,107.83c2.44-3.26,5.8-6.64,6.34-10.3.07-.45-.19-1.33.2-1.58.77.93,4.57,3.02,4.56,4.16,0,.74-6.35,11.51-7.33,12.88-.96-1.16-2.48-2.2-3.37-3.37-.79-1.04-.34-1.71-.4-1.78Z"/>
              <path class="cls-33" d="M118.51,98.32c1.38,2.23,6.23,8,6.74,9.11.95,2.1-1.96,3.3-2.97,5.15l-8.52-12.48,4.16-3.37c.24.67.18.92.59,1.58Z"/>
              <path class="cls-27" d="M65.02,111.39c2.1,1.3,4.13,7.17,7.53,7.92.97,1.25,2.27,2.01,1.58,3.57-4.64-.98-9.62-7.33-11.89-11.29l2.77-.2Z"/>
              <path class="cls-27" d="M87.21,111.79c-1.35,3.83-6.92,10.38-11.09,11.09-.02-.59.18-1.45.4-1.98,2.9-2.46,5.72-5.11,7.13-8.72,1.03-.53,2.45-1.19,3.57-.4Z"/>
              <path class="cls-53" d="M76.51,124.07l.4,8.72c-1,.13-1.47-.02-1.58,0l-.79-8.72c.1.01,1.88.02,1.98,0Z"/>
              <path class="cls-37" d="M83.64,112.19c-1.42,3.61-4.24,6.25-7.13,8.72.18-.42,4.66-6.21,5.15-6.74.61-.65.74-1.14.79-1.19.74-.75.5-.44,1.19-.79Z"/>
              <path class="cls-56" d="M77.3,134.37c-.1.02-1.36-.05-1.98,0-2.26.18-5,.65-7.13-.2-.06-.36,6.39-1.27,7.13-1.39.12-.02.58.13,1.58,0,2.43-.31,4.51-1.62,6.74-.59-1.5.95-4.62,1.9-6.34,2.18Z"/>
              <path class="cls-53" d="M77.3,134.37v5.94c-.73.03-.87-.44-1.58-.4l-.4-5.55c.62-.05,1.88.02,1.98,0Z"/>
              <g>
                <path class="cls-27" d="M74.53,124.07l.79,8.72c-.74.12-7.2,1.03-7.13,1.39,2.13.85,4.87.38,7.13.2l.4,5.55c-2.8.16-5.66-.21-8.32.99,2.45.74,5.71.28,8.32.2l-.2,6.74c-12.41.25-25.06-2.55-35.86-8.72,1.44-3.74,2.82-8.35,4.36-11.89,1.8-4.14,5.57-11.66,7.92-15.45.49-.79,1.55-1.33,1.58-2.38,1.27.46,5.68.75,6.54,1.19,3.15,1.61,6.26,12.38,14.46,13.47Z"/>
                <path class="cls-56" d="M77.7,141.51c-.17.01-1.06-.42-1.98-.4-2.61.08-5.87.54-8.32-.2,2.67-1.2,5.52-.83,8.32-.99.72-.04.85.42,1.58.4,2.83-.1,4.48-.63,7.13-.99-1.89,1.73-4.3,2.02-6.74,2.18Z"/>
                <path class="cls-33" d="M62.84,135.56c2.5-1.07,2.46,6.74-.59,3.37.12-.86-.4-2.94.59-3.37Z"/>
                <path class="cls-33" d="M65.02,124.87c2.49,4.91-3.4,4.13-.79,0h.79Z"/>
                <path class="cls-36" d="M65.02,124.87h-.79c-.63,0-2.41.36-2.38-.59.77-.52,2.1-.85,2.97-.59.95.28.15,1.09.2,1.19Z"/>
              </g>
              <g>
                <path class="cls-27" d="M110.59,141.51c1.11,3.69,2.75,7.27,3.57,11.09-8.87,4.36-20.32,8.68-30.31,9.11-5.56.24-6.79,1.22-6.14-5.15,1.46-.23,4.24-1.8,5.94-2.18-2.07-.76-3.97.47-5.94.59.16-.94-.3-5.19.2-5.55.58-.42,11.89-1.08,14.26-1.58,6.44-1.36,12.42-3.77,18.43-6.34Z"/>
                <path class="cls-8" d="M101.28,146.26c3.29-.12-2.95,3.64-3.96,3.96-1.76.56-12.62,1.22-7.92-.79,1.93-.83,9.41-.17,11.89-3.17Z"/>
              </g>
              <path class="cls-56" d="M75.32,154.98c.39.76,1.57.05,2.38,0,1.97-.13,3.87-1.36,5.94-.59-1.7.38-4.48,1.95-5.94,2.18-.1.02-1.38-.02-1.98,0-2.96.11-6.59.1-8.72-2.18l8.32.59Z"/>
              <path class="cls-33" d="M52.73,149.04c2.66,2.22,8.9,2.93,12.28,2.77-3.67,5.36-9.86,7.91-12.68.2-.19-.52-1.34-3.57.4-2.97Z"/>
            </g>
          </g>
          <g>
            <path class="cls-23" d="M26.58,86.83c1.91,2.28-.3,5.19,0,6.54.07.31,3.85,4.07,4.75,4.16-.54,3.66-3.9,7.04-6.34,10.3-3.43-4.74-3.78-5.46-5.94-10.9-.62-1.57-3.68-4.21-1.78-5.75,1.47-1.19,2.68.37,3.17.4.26.02.16-2.64,2.77,1.98,1.74-2.68-1.68-4.27.99-7.13.77.1,1.55.3,2.38.4Z"/>
            <path class="cls-23" d="M129.61,91.98c.47.23,2.25,2.08,2.77,2.38l-7.13,13.08c-.5-1.11-5.35-6.88-6.74-9.11.86-.59,4.25-3.85,4.36-4.56.15-.93-2.45-7.18,1.39-6.93s.15,6.67,1.58,7.13c2.37-1.32.72-3.47,3.76-1.98Z"/>
            <path class="cls-42" d="M103.06,98.32c.03.47-.87,2.57-1.19,3.17-3.33,2.79-10.83,2.25-11.49-2.97-1-7.92,12.21-8.14,12.68-.2Z"/>
            <path class="cls-42" d="M50.36,101.88c-.14-.45-.32-.51-.4-1.19-1.43-12.3,15.37-7.85,10.7.59-2.09,3.78-7.41,2.98-10.3.59Z"/>
            <path class="cls-3" d="M87.6,70.98c-.02.96-1.12,2.32-1.19,3.17l-23.38,1.98c-.1-2.04-1.33-2.76-2.77-3.96,7.72-1.51,19.14-.86,27.34-1.19Z"/>
            <path class="cls-13" d="M58.68,72.56c-2.18.75-8.42,5.35-3.96,6.74-.05.02.06.97,0,.99-2.34.77-4.95,1.63-7.53,1.39.44-3.05,1.06-6.08,1.58-9.11,2.99-.15,6.98-1.13,9.91,0Z"/>
            <path class="cls-16" d="M60.26,72.16c1.44,1.2,2.67,1.92,2.77,3.96.03.7-.02,1.01-.4,1.58-.46-.07-.37.39-.4.4-1.26.47-5.18.44-7.53,1.19-4.45-1.39,1.78-5.98,3.96-6.74.68-.24.9-.26,1.58-.4Z"/>
            <path class="cls-16" d="M89.98,70.98c.43.06.34.39.79.79.09.08.6.35.79.4.41.02.68-1.07,2.18-.4.88.4,2.24,2.72,2.97,3.17.42,3.52-6.46,1.43-9.11,1.58-.13,0-.26,0-.4,0-.4-.83-.87-1.37-.79-2.38.06-.85,1.17-2.21,1.19-3.17.79-.03,1.59.03,2.38,0Z"/>
            <path class="cls-13" d="M101.47,70.58l1.58,5.94c-1.04,2.38-.58.08-1.39,0-.17-.02-.67,1.03-1.19.79-.69-.31-1.95-2.25-2.77-2.77-.69-.44-.95.42-.99.4-.73-.45-2.1-2.77-2.97-3.17-1.5-.68-1.77.42-2.18.4-.08,0-.02-1.65-.79-.4-.45-.4-.36-.73-.79-.79,3.81-.13,7.65-.36,11.49-.4Z"/>
            <path class="cls-16" d="M109,71.77c.4,3.94.58,7.55,0,11.49-.14.97,0,1.26-.4,2.38-.15.41.25,1.26-.2,1.58l-2.58-.79c-.27-2.31-2.69-6.58-2.38-9.51l1.19.99c1.16-2.21-.45-4.6.2-6.93l4.16.79Z"/>
            <path class="cls-23" d="M87.6,76.52c-.96,1.45,1.75.55,2.18.79.23.13,2.91,3.23,3.76,3.57-.26.06-.58.25-.79.4-.58-1.05-1.24-1.57-2.38-1.98-1.44-.53-.89-.05-1.58,0-.54.04-2.03.16-2.38.4l-.99-1.58-20.8,3.17c-.14-.23-1.21-.72-1.58-1.19-.07-.09-.72-1.7-.79-1.98.03,0-.06-.47.4-.4,8.15,1.11,16.46-.7,24.57-1.19.13,0,.26,0,.4,0Z"/>
            <path class="cls-55" d="M90.38,79.3c-.8,1.3-1.14,3.7.79,3.76.49-.87.75-1.21,1.58-1.78.21-.14.53-.33.79-.4-.04.38.07.82,0,1.19-.01.07-1.1-.02-1.19.59-.09.65,1.43,1.61,1.58,2.38,1.98,9.7-15.49,3.94-5.15-5.75.69-.05.14-.53,1.58,0Z"/>
            <path class="cls-55" d="M61.06,80.49c7.43,3.92.94,14.63-3.57,8.92-2.04-2.59.88-4.3-.79-6.14.02-.04-1,.23-.79-.59,2.1-.92,2.15,2.93,3.96.4-.24-1.38-.49-2.63-1.98-2.58,1.11-.69,1.46-.9,3.17,0Z"/>
            <path class="cls-23" d="M43.22,85.64c.74.97,1.39,2.53,2.77,2.77-.02.61.74,3.38.79,4.16,0,.14-.95.47-.79,1.58.03.23,3.96,3.17-.2,2.97-5.23-.25-8.55-9.68-2.58-11.49Z"/>
            <path class="cls-28" d="M88.79,79.3c-10.34,9.69,7.13,15.45,5.15,5.75-.16-.76-1.68-1.73-1.58-2.38.09-.61,1.18-.53,1.19-.59,4.11,2.55,1.97,9.03-2.18,9.91-8.07,1.69-10.25-8.68-4.95-12.28.34-.23,1.83-.36,2.38-.4Z"/>
            <path class="cls-28" d="M63.04,80.09c.37.46,1.44.96,1.58,1.19,8.21,13.27-11.24,14.71-9.51,4.16.12-.71,1.33-1.71,1.58-2.18,1.67,1.84-1.25,3.55.79,6.14,4.51,5.71,10.99-5,3.57-8.92l1.98-.4Z"/>
            <path class="cls-23" d="M105.83,86.43l2.58.79c.45-.33.05-1.17.2-1.58,1.12.04.74-.89,1.58.2,4.46,5.77-5.35,12.62-6.34,9.91-.08-1.34,1.95-2.61,1.98-2.77.11-.66-.81-1.04-.79-1.19.24-1.73,1-3.6.79-5.35Z"/>
            <path class="cls-34" d="M86.42,74.15c-.08,1.01.39,1.55.79,2.38-8.11.49-16.42,2.3-24.57,1.19.38-.58.43-.88.4-1.58l23.38-1.98Z"/>
            <path class="cls-37" d="M91.57,72.16c-.2-.05-.7-.31-.79-.4.78-1.25.72.39.79.4Z"/>
            <path class="cls-28" d="M92.76,81.28c-.84.57-1.09.91-1.58,1.78-1.93-.06-1.6-2.47-.79-3.76,1.13.41,1.8.93,2.38,1.98Z"/>
            <g>
              <path class="cls-51" d="M103.06,76.52l.4.4c-.32,2.93,2.1,7.2,2.38,9.51.21,1.75-.55,3.62-.79,5.35-.02.15.9.53.79,1.19-.03.17-2.06,1.43-1.98,2.77.99,2.71,10.8-4.13,6.34-9.91-.84-1.09-.47-.16-1.58-.2.4-1.12.25-1.41.4-2.38h.4c1.93,1.87,1.97.6,2.77.4,3.02,7.79-1.02,13.72-9.11,14.66-.47-7.94-13.68-7.73-12.68.2.66,5.22,8.16,5.76,11.49,2.97-2.17,4.16-10.4,9.07-14.86,8.72-.51,1.26.71.13.2,1.58-1.11-.79-2.53-.13-3.57.4-.69.35-.45.05-1.19.79l-14.86-.79c-.9.68-.35.58-.2,1.19.34,1.38,3.97,4.43,5.15,5.94-3.4-.76-5.43-6.63-7.53-7.92-4.24-2.63-12.57-2.67-14.66-9.51,2.89,2.38,8.21,3.18,10.3-.59,4.68-8.44-12.13-12.89-10.7-.59-2.53-4.46-2.29-1.53-5.75-1.98-4.22-.55-5.63-6-6.93-9.11,1.15-2.52,2.08-5.03,4.95-5.94,1.01.34.9,1.86.99,1.98-5.97,1.81-2.65,11.24,2.58,11.49,4.16.2.23-2.74.2-2.97-.16-1.11.8-1.44.79-1.58-.05-.78-.82-3.55-.79-4.16.06-1.53.92-4.89,1.19-6.74,2.57.24,5.18-.62,7.53-1.39.06-.02-.05-.98,0-.99,2.35-.75,6.26-.72,7.53-1.19.07.28.72,1.89.79,1.98l-1.98.4c-1.71-.9-2.06-.69-3.17,0-.45.02-.83.73-1.19.99,1.06.79,1.12-.95,1.19-.99,1.49-.05,1.74,1.2,1.98,2.58-1.81,2.53-1.86-1.32-3.96-.4-.21.82.82.55.79.59-.26.47-1.47,1.47-1.58,2.18-1.73,10.55,17.72,9.11,9.51-4.16l20.8-3.17.99,1.58c-5.3,3.6-3.12,13.98,4.95,12.28,4.15-.87,6.28-7.36,2.18-9.91.07-.37-.04-.81,0-1.19-.85-.33-3.54-3.44-3.76-3.57-.43-.25-3.14.65-2.18-.79,2.65-.15,9.54,1.93,9.11-1.58.05.03.3-.84.99-.4.82.52,2.09,2.47,2.77,2.77.52.23,1.02-.81,1.19-.79.8.08.35,2.38,1.39,0Z"/>
              <g>
                <path class="cls-1" d="M82.06,102.28c-3.47-1.93-8.1-3.24-11.09.4-1.37-1.12-5.08-6.14-2.38-7.13,3.4,3.55,11.12,3.6,14.66,0,.32.09.56-.81,1.19.2.53,2.04-.9,5.06-2.38,6.54Z"/>
                <path class="cls-25" d="M82.06,102.28c-3.28,3.29-7.6,3.23-11.09.4,2.99-3.63,7.62-2.33,11.09-.4Z"/>
                <path class="cls-28" d="M83.25,95.54c-3.54,3.6-11.26,3.55-14.66,0,.69-.25,13.65-.29,14.66,0Z"/>
                <path class="cls-42" d="M82.45,112.98c-.05.05-.18.54-.79,1.19l-14.26-.79c-.15-.6-.7-.51.2-1.19l14.86.79Z"/>
                <path class="cls-10" d="M57.89,80.49c-.07.04-.13,1.78-1.19.99.36-.26.74-.97,1.19-.99Z"/>
                <g>
                  <path class="cls-23" d="M76.71,87.62c2.93.33,2.66,5.56-.79,5.15-2.9-.35-2.36-5.51.79-5.15Z"/>
                  <path class="cls-51" d="M76.31,88.81c1.47-.17,1.82,2.49.4,2.77-1.87.37-1.86-2.6-.4-2.77Z"/>
                </g>
              </g>
            </g>
          </g>
        </g>
      </g>
    </g>
  </g>
</svg>