<?xml version="1.0" encoding="UTF-8"?>
<svg id="katman_2" data-name="katman 2" xmlns="http://www.w3.org/2000/svg" viewBox="0 0 310.06 412.74">
  <defs>
    <style>
      .cls-1 {
        fill: #ae6332;
      }

      .cls-2 {
        fill: #4a393a;
      }

      .cls-3 {
        fill: #ed6972;
      }

      .cls-4 {
        fill: #db7730;
      }

      .cls-5 {
        fill: #f19096;
      }

      .cls-6 {
        fill: #d82a27;
      }

      .cls-7 {
        fill: #a68f80;
      }

      .cls-8 {
        fill: #a15225;
      }

      .cls-9 {
        fill: #fff;
      }

      .cls-10 {
        fill: #f19440;
      }

      .cls-11 {
        fill: #3580bf;
      }

      .cls-12 {
        fill: #c35b17;
      }

      .cls-13 {
        fill: #babbc0;
      }

      .cls-14 {
        fill: #f1d5b3;
      }

      .cls-15 {
        fill: #2e4d62;
      }
    </style>
  </defs>
  <g id="Layer_1" data-name="Layer 1">
    <g id="_Üretken_Nesne" data-name="Üretken Nesne">
      <g>
        <path class="cls-10" d="M235.53,230.55c1.4,3.94,5.04,9.44,6.72,14.03,4.95,13.57,10.55,38.19,9.09,52.38-.05.51-1.13.51-1.19.99-3.32,27.95-12.69,56.39-22.53,82.62.18.54,2.09.87,2.77,1.38,6.62,5.04,10.6,12.36,7.12,20.75-1.53,3.69-4.48,3.45-5.53,6.92-1.12.63-1.96,1.09-3.16,1.58,2.51-6.78,1.01-17.72-6.92-19.77-1.3.98,2.5,4.03,2.96,4.94,2.76,5.43,2.14,10.22,1.19,16.01-3.91.76-7.26-.04-11.07,0,1.42-2.78,1.1-17.34-2.96-17.39-2.64-.04.79,5.84.99,7.71.33,3.1-.34,6.26-.79,9.29-5.07-.07-9.87.88-15.02,0,1.2-3.21.19-7,1.19-10.48.4-1.39,4.05-5.22,1.78-5.73-4.44-1.01-5.96,12.75-5.34,15.42-4.21-1.27-10.02-4.73-10.67-9.49-.8-5.82,4.81-11.9,6.32-17.59,9.28-34.79,7.93-108.48-47.24-94.28-33.8,8.7-32.25,70.1-24.31,95.86,1.62,5.27,6.55,9.4,5.14,16.01-.93,4.33-6.62,8.21-10.67,9.49.71-2.41-.99-16.38-4.94-15.42-2.11.51,1.41,5.4,1.78,7.31.55,2.81.26,6.06,0,8.89-4.69.75-9.51.31-14.23.4-.72-3.13-1.28-7.74-.79-10.87.27-1.74,4.36-7.31.2-6.13-3.6,1.02-3.55,14.02-2.17,17-3.93-.02-7.44.79-11.46,0-.96-6.11-1.5-10.76,1.58-16.41.2-.37,6.45-6.69.59-4.15-5.58,2.42-7.44,14.29-4.94,19.37-1.71-.7-2.15-1.16-3.56-1.98-1.22-3.11-4.57-4.08-5.53-7.71-2.21-8.28,1.59-15.39,8.3-19.96.55-.38,3.17.08,2.77-1.78-10.99-25.71-18.12-53.51-21.74-81.83-.01-.09-1.09-.62-1.19-1.38-3.24-26.47,6.64-42.97,14.63-66.02,18.74,18.05,50.34,23.18,75.7,23.72,29.26.62,64.86-3.46,87.17-23.72Z"/>
        <path class="cls-14" d="M184.14,401.72h-60.09c1.42-6.61-3.51-10.74-5.14-16.01-7.94-25.77-9.49-87.17,24.31-95.86,55.17-14.2,56.52,59.49,47.24,94.28-1.52,5.7-7.12,11.77-6.32,17.59Z"/>
        <path class="cls-10" d="M55.27,297.36c1.51,29.33,10.89,57.73,22.93,84.2-6.71,4.57-10.51,11.68-8.3,19.96.97,3.63,4.31,4.6,5.53,7.71-.89-.51-2.55-2.65-2.96-2.77-2.22-.65-11.22.41-14.43.4-.17-1.52-.82-4.37-.79-5.73.06-2.39,4.19-11.59.2-10.08-2.73,1.03-3.57,13.07-2.17,15.81-4.56-.03-9.3.25-13.84,0-.56-3.27-1.18-6.74-.79-10.08.17-1.47,3.8-8.38.99-8.1-3.58.36-5.02,15.25-2.96,18.18-10.79-1.15-12.3-12.55-6.72-20.36,3.58-5,10.61-7.92,16.6-8.3-12.95-19.95-22.99-51.68-6.32-72.34,3.53-4.38,7.62-7.12,13.05-8.5Z"/>
        <path class="cls-10" d="M258.46,300.12c5.07,3.65,12.1,14.45,13.44,20.56,4.28,19.56-4.21,40.77-14.23,57.12,6.18,1.29,12.75,3.3,16.6,8.7,5.19,7.27,4.47,19.12-5.93,20.36.78-5.94,1.86-14.35-3.76-18.18-2.1.44,1.18,6.37,1.38,8.1.39,3.3-.15,6.85-.79,10.08-4.41.24-9.01-.03-13.44,0,1.27-2.2.21-17.65-3.76-15.81-1.55.72,1.2,5.76,1.38,7.31.33,2.77-.19,5.75-.4,8.5-3.16,0-11.34-1.07-13.64-.4-.43.13-2.36,2.6-3.36,3.16,1.05-3.46,4-3.23,5.53-6.92,3.49-8.4-.5-15.72-7.12-20.75,12.25-26.41,21.53-54.53,23.72-83.81.88.38,3.74,1.54,4.35,1.98Z"/>
        <path class="cls-6" d="M83.34,222.25c41.79,20.58,100.08,20.71,141.92,0,2.46-1.22,5.18-2.52,7.51-3.95,1.37,3.78,1.45,8.55,2.77,12.25-22.31,20.25-57.9,24.34-87.17,23.72-25.36-.54-56.96-5.67-75.7-23.72,1.26-3.65,1.47-8.5,2.77-12.25,2.51,1.5,5.28,2.66,7.91,3.95Z"/>
        <path class="cls-1" d="M271.9,320.68c-1.34-6.11-8.37-16.91-13.44-20.56,31.71-9.86,48.09-43.32,35.58-74.52,28.16,28.25,18.21,83.92-22.14,95.07Z"/>
        <path class="cls-4" d="M254.11,298.15c-2.19,29.28-11.47,57.39-23.72,83.81-.68-.51-2.59-.84-2.77-1.38,9.84-26.23,19.22-54.67,22.53-82.62.06-.48,1.13-.48,1.19-.99.96.31,1.85.79,2.77,1.19Z"/>
        <path class="cls-4" d="M78.2,381.56c-12.03-26.47-21.42-54.87-22.93-84.2.91-.23,1.89-.43,2.77-.79.09.76,1.17,1.29,1.19,1.38,3.62,28.32,10.76,56.11,21.74,81.83.4,1.86-2.21,1.4-2.77,1.78Z"/>
        <path class="cls-12" d="M81.76,412.39c-.92-.18-1.91-.83-2.77-1.19-2.5-5.08-.63-16.95,4.94-19.37,5.85-2.54-.39,3.78-.59,4.15-3.09,5.64-2.55,10.3-1.58,16.41Z"/>
        <path class="cls-12" d="M228.81,411.21c-.9.37-1.74.99-2.77,1.19.95-5.79,1.58-10.58-1.19-16.01-.46-.91-4.26-3.96-2.96-4.94,7.92,2.05,9.43,12.99,6.92,19.77Z"/>
        <path class="cls-12" d="M268.34,406.86c-1,.12-2.14-.06-3.16,0,.64-3.23,1.19-6.78.79-10.08-.21-1.74-3.49-7.67-1.38-8.1,5.61,3.83,4.54,12.24,3.76,18.18Z"/>
        <path class="cls-12" d="M41.44,406.86c-.91-.05-1.87.1-2.77,0-2.06-2.94-.61-17.83,2.96-18.18,2.82-.28-.82,6.63-.99,8.1-.39,3.34.23,6.81.79,10.08Z"/>
        <path class="cls-12" d="M214.98,412.39c-1.05.01-2.34-.39-2.77-.4.45-3.03,1.12-6.19.79-9.29-.2-1.86-3.63-7.75-.99-7.71,4.06.06,4.38,14.61,2.96,17.39Z"/>
        <path class="cls-12" d="M95.99,412.39c-.92.02-1.85,0-2.77,0-1.37-2.98-1.42-15.97,2.17-17,4.16-1.18.08,4.38-.2,6.13-.49,3.13.07,7.74.79,10.87Z"/>
        <path class="cls-12" d="M58.04,406.86c-.91,0-1.84,0-2.77,0-1.39-2.74-.56-14.78,2.17-15.81,3.99-1.51-.14,7.69-.2,10.08-.03,1.36.62,4.21.79,5.73Z"/>
        <path class="cls-12" d="M197.19,412c-.61-.11-1.72-.59-2.37-.79-.62-2.67.89-16.42,5.34-15.42,2.27.51-1.38,4.35-1.78,5.73-1,3.48.01,7.27-1.19,10.48Z"/>
        <path class="cls-12" d="M113.38,411.21c-.86.27-2.31.65-3.16.79.26-2.83.55-6.08,0-8.89-.37-1.92-3.88-6.8-1.78-7.31,3.95-.96,5.65,13.01,4.94,15.42Z"/>
        <path class="cls-12" d="M251.74,406.86c-.92,0-1.85,0-2.77,0,.21-2.75.73-5.73.4-8.5-.19-1.56-2.93-6.6-1.38-7.31,3.97-1.84,5.03,13.61,3.76,15.81Z"/>
      </g>
      <g>
        <g>
          <path class="cls-1" d="M80.97.08c.26,1.59,3.64.38,3.95,2.17.14.83-4.54,14-4.74,16.21.03.93,2.04,3.08,2.77,4.15l-3.16-2.57c-2.6,10.07-4.96,20.27-7.91,30.24-5.24,17.75-11.74,39.36-20.95,55.34-3.62,6.27-10.72,18.86-19.57,13.44-5.5-3.37-21.92-40.98-24.71-48.82-3.31-9.3-10.58-28.79-3.95-37.16C8.8,25.38,70.85-.67,80.97.08Z"/>
          <path class="cls-1" d="M257.67,105.23c-9.76-17.13-15.39-36.47-20.95-55.34-2.9-9.84-5.4-19.7-7.91-29.65-1.54-6.14-3.27-12.33-5.14-18.38.09-.33,3.36-1.75,3.56-1.78,8.46-1.34,43.4,14.16,52.77,18.58,12.99,6.13,29.98,10.72,28.66,27.47-.94,11.99-21.78,63.28-30.04,71.55-9.26,9.27-17.2-5.86-20.95-12.45Z"/>
          <path class="cls-8" d="M227.23.08c-.2.03-3.47,1.45-3.56,1.78,1.87,6.06,3.6,12.24,5.14,18.38l-13.05,15.81c-3.74-1.79-11.1-4.73-15.02-5.93,5.25-8.15,10.94-17.81,17.79-24.71,2.55-2.57,4.66-5.6,8.7-5.34Z"/>
          <path class="cls-8" d="M107.45,30.13c-3.53,1.09-11.68,4.31-15.02,5.93-2.32-5.06-6.41-8.95-9.49-13.44-.73-1.07-2.74-3.23-2.77-4.15.21-2.21,4.89-15.38,4.74-16.21-.31-1.8-3.7-.59-3.95-2.17,4.93.37,7.04,3.47,10.28,6.92,6.24,6.65,11.52,15.33,16.21,23.13Z"/>
          <path class="cls-13" d="M228.81,20.24c2.5,9.95,5,19.81,7.91,29.65-6.69-4.91-13.42-10.23-20.95-13.84l13.05-15.81Z"/>
          <path class="cls-13" d="M82.94,22.61c3.08,4.49,7.17,8.38,9.49,13.44-7.11,3.46-14.38,9.31-20.56,14.23,2.95-9.97,5.3-20.17,7.91-30.24l3.16,2.57Z"/>
        </g>
        <g>
          <g>
            <path class="cls-14" d="M162.8,24.2c-1.32,32.37-10.37,74.66,5.14,104.56,8.97,17.29,26.08,27.77,38.74,41.9s21.41,31.04,18.58,51.59c-41.84,20.71-100.12,20.58-141.92,0-8.46-49.97,49.98-64.47,62.06-105.75,8.13-27.76,1.49-63.36,0-91.91,6.08-.28,11.22-.68,17.39-.4Z"/>
            <path class="cls-7" d="M189.48,176.39c7.74-1.86,7.74,10.16,0,8.3-3.47-.84-3.47-7.47,0-8.3Z"/>
            <path class="cls-7" d="M113.98,176.39c6.31-1.48,6.9,7.29,2.77,8.3-6.69,1.63-7.29-7.24-2.77-8.3Z"/>
            <path class="cls-7" d="M183.15,189.44c6.03-1.14,6.28,7.37,1.58,7.91s-6.23-7.03-1.58-7.91Z"/>
            <path class="cls-7" d="M121.88,189.44c6.33-1.62,6.48,7.65,1.58,7.91s-5.38-6.94-1.58-7.91Z"/>
            <g>
              <path class="cls-15" d="M154.89,186.67c-.83.04-1.88.4-1.98.4-10.7-.36-29.35-10.83-27.67-23.52,2.59-19.54,72.75-17.63,53.76,10.67-4.65,6.93-15.88,12.05-24.11,12.45Z"/>
              <path class="cls-9" d="M149.16,154.25c3.01-.34,17.2-.28,17.99,3.36,1.32,6.06-20.38,6.06-24.31,2.96-4.96-3.9,3.31-5.98,6.32-6.32Z"/>
            </g>
            <g>
              <path class="cls-2" d="M154.89,186.67c.76,20.21,30.75,31.55,40.72,11.27,1.47-3,1.17-9.73,4.94-8.89,6.03,1.34-5.29,14.76-7.51,16.6s-5.95,3.92-8.7,5.14c-1.37.61-5.42.93-5.93,1.19-.8.41-2.51,5-3.36,6.13-11.24,14.85-28.74,16.04-40.72,1.19-1.01-1.26-3.76-6.96-4.55-7.31-.98-.44-5.04-.67-7.12-1.58-4.81-2.12-10.2-6.17-13.24-10.48-1.36-1.92-6.21-9.72-2.57-10.87,4-1.27,3.02,3.87,3.76,5.73,9.23,23.45,39.62,14.65,42.3-7.71.1,0,1.15-.36,1.98-.4Z"/>
              <path class="cls-3" d="M167.54,222.64c-1.94-13.41-24.97-13.33-26.09,0-3.34-2.82-6.3-5.92-7.12-10.48,8.63-1.73,14.99-7.54,19.57-14.82,4.74,7.74,11.6,12.88,20.36,15.22-1.54,3.98-3.49,7.27-6.72,10.08Z"/>
              <path class="cls-5" d="M167.54,222.64c-8.29,7.22-17.82,6.99-26.09,0,1.12-13.33,24.15-13.41,26.09,0Z"/>
            </g>
          </g>
          <g>
            <path class="cls-10" d="M200.75,30.13c3.92,1.19,11.28,4.14,15.02,5.93,7.53,3.61,14.26,8.92,20.95,13.84,5.57,18.87,11.19,38.21,20.95,55.34,1.96,15.54,7.05,30.78,8.3,46.45,2.49,31.18-6.69,50.33-33.21,66.61-2.33,1.43-5.05,2.73-7.51,3.95,2.83-20.55-5.31-36.76-18.58-51.59s-29.77-24.62-38.74-41.9c-15.51-29.9-6.45-72.19-5.14-104.56,11.9.55,26.57,2.47,37.95,5.93Z"/>
            <path class="cls-8" d="M200.94,66.89c4.82-.52,10.46,2.81,12.45,7.31-3.26.13-13.77.96-16.01-.99-3.07-2.67.46-5.99,3.56-6.32Z"/>
            <g>
              <path class="cls-9" d="M200.15,95.35c29.02-3.46,32.1,41.29,6.72,44.67-29.25,3.89-32.7-41.57-6.72-44.67Z"/>
              <g>
                <path class="cls-11" d="M198.18,103.65c25.43-3.59,24.06,34.22-.4,30.83-16.65-2.31-16.2-28.49.4-30.83Z"/>
                <path class="cls-9" d="M209.64,111.56c6.03-1.36,7.07,7.27,2.37,8.3-5.84,1.28-7.09-7.23-2.37-8.3Z"/>
              </g>
            </g>
          </g>
          <g>
            <path class="cls-10" d="M145.4,24.59c1.49,28.55,8.13,64.15,0,91.91-12.08,41.28-70.52,55.78-62.06,105.75-2.62-1.29-5.4-2.45-7.91-3.95-7.77-4.65-16.21-11.16-21.74-18.38-21.21-27.65-8.39-63.55-2.77-94.28,9.21-15.98,15.71-37.59,20.95-55.34,6.18-4.92,13.45-10.77,20.56-14.23,3.34-1.62,11.49-4.84,15.02-5.93,12.01-3.72,25.44-4.96,37.95-5.53Z"/>
            <path class="cls-8" d="M104.49,66.89c2.14-.22,7.28.74,7.71,3.36.96,5.91-13.9,3.59-17,4.35.56-3.64,5.81-7.35,9.29-7.71Z"/>
            <g>
              <path class="cls-9" d="M102.12,95.35c29.09-3.26,31.58,41.7,5.53,44.67-29.28,3.34-31.06-41.81-5.53-44.67Z"/>
              <g>
                <path class="cls-11" d="M103.7,103.65c22.98-3.31,25.17,28.3,6.72,30.83-21.82,3-25.71-28.1-6.72-30.83Z"/>
                <path class="cls-9" d="M96.19,111.56c6.16-1.36,7.22,7.42,2.37,8.3-6.12,1.11-6.75-7.33-2.37-8.3Z"/>
              </g>
            </g>
          </g>
        </g>
      </g>
    </g>
  </g>
</svg>