<?xml version="1.0" encoding="UTF-8"?>
<svg id="katman_2" data-name="katman 2" xmlns="http://www.w3.org/2000/svg" viewBox="0 0 512 371.52">
  <defs>
    <style>
      .cls-1 {
        fill: #cc4f55;
      }

      .cls-2 {
        fill: #bbe2fc;
      }

      .cls-3 {
        fill: #86c3e6;
      }

      .cls-4 {
        fill: #5aa4d3;
      }

      .cls-5 {
        fill: #d9d5d5;
      }

      .cls-6 {
        fill: #4093c4;
      }

      .cls-7 {
        fill: #fdfbfd;
      }

      .cls-8 {
        fill: #064c81;
      }

      .cls-9 {
        fill: #e3f0f6;
      }

      .cls-10 {
        fill: #002d62;
      }

      .cls-11 {
        fill: #fa8f9c;
      }
    </style>
  </defs>
  <g id="katman_2-2" data-name="katman 2">
    <g id="_Üretken_Nesne" data-name="Üretken Nesne">
      <path class="cls-4" d="M409.57,280.67c2.87,19.87-3.23,31.32-16.85,44.45-15.51,14.96-23.32,15.82-28.08,39.56-5.45-3.97-4.24-15.23-2.44-21.25,7.13-23.91,45.05-35.22,46.89-56.66.15-1.79-2.42-5.3-.24-7.08.39.48.04.61.73.98Z"/>
      <g>
        <path class="cls-7" d="M187.34,149.28c-1.07,11.08,2.86,22.6,7.81,32.48l-.73,1.22c-13.89,2.26-27.8,4.69-41.52,7.81-17,3.87-51.4,10.68-64.47,20.51-6.92,5.21-13.85,13.53-20.27,19.54-8.41,5.37-20.31,14.31-30.53,15.14-14.69,1.19-11.65-6.12-7.08-15.39,2.83-5.75,5.15-10.98,12.21-10.99-1.37,3.74-10.8,16.32-10.26,18.32.94,3.49,9.04.32,11.23-.24,16.26-4.15,28.41-16.68,38.1-29.79,6.45-8.73,12.43-17.83,15.63-28.33.02-.03.44.15.49-.49,3.86,1.78,7.54,4,11.97,3.91-9.82-15.05,12.02-27.79,23.93-31.75,15.86-5.27,36.12-6.71,52.75-5.86.45.31.56,3.23.73,3.91Z"/>
        <path class="cls-5" d="M189.29,157.59c4.04,14.14,9.83,27.46,18.56,39.32-14.25,0-28.35.79-42.49,2.2-13.26,1.32-27.49,3.26-40.54,5.86-27.56,5.49-34.15,11.53-56.66,25.89,6.42-6.01,13.35-14.33,20.27-19.54,13.07-9.84,47.48-16.65,64.47-20.51,13.72-3.12,27.63-5.56,41.52-7.81l.73-1.22c-4.96-9.88-8.89-21.4-7.81-32.48.69,2.78,1.16,5.53,1.95,8.3Z"/>
        <path class="cls-1" d="M97.47,179.56c-3.2,10.5-9.18,19.6-15.63,28.33-11.73.84-34.91,15.91-38.1,27.11-.28.98-.3,1.71,0,2.69-2.19.56-10.29,3.73-11.23.24-.54-2,8.89-14.58,10.26-18.32.15-.42.45-.58.49-.98,22.54-5.4,42.05-19.74,54.22-39.07Z"/>
        <path class="cls-11" d="M81.84,207.89c-9.69,13.11-21.84,25.64-38.1,29.79-.3-.97-.28-1.71,0-2.69,3.19-11.2,26.37-26.26,38.1-27.11Z"/>
      </g>
      <g>
        <path class="cls-2" d="M60.35,159.05c-3.31,1.58-7.44,1.7-10.99,2.93-8.76,3.04-22.47,12.62-29.31,19.05-5.93,5.57-27.28,29.85-9.77,32.24,20.57,2.81,50.55-7.65,66.91-20.03,2.76-2.09,16.54-14.88,16.85-17.34.2-1.61-2.23-2.32-.73-3.66,1.11,2.38,4.8,4.62,4.64,6.84-.05.64-.47.46-.49.49-12.17,19.33-31.67,33.67-54.22,39.07-25.56,6.12-57.49,2.66-33.7-30.04,10.69-14.69,32.16-31.18,50.8-29.55Z"/>
        <path class="cls-9" d="M268.91,226.45c-12.2,2.82-28.42-3.41-38.83-9.77-19.42-11.86-34.17-36.93-39.81-58.61-2.23-8.57-4.14-18.01-3.17-26.86,4.89,40.56,25.25,83.43,68.38,93.29,4.37,1,9.06.88,13.43,1.95Z"/>
        <g>
          <path class="cls-6" d="M165.36,199.1l-1.95,12.94-1.71,1.71c-12.44-2.32-24.86.09-37.12,1.95l.24-10.75c13.05-2.6,27.28-4.54,40.54-5.86Z"/>
          <g>
            <path class="cls-4" d="M60.35,159.05c-18.63-1.63-40.11,14.86-50.8,29.55-23.79,32.7,8.14,36.16,33.7,30.04-.04.39-.33.55-.49.98-7.06.01-9.38,5.24-12.21,10.99-4.57,9.26-7.61,16.57,7.08,15.39,10.22-.83,22.11-9.77,30.53-15.14,22.5-14.36,29.1-20.39,56.66-25.89l-.24,10.75c12.26-1.87,24.68-4.28,37.12-1.95l1.71-1.71,1.95-12.94c14.15-1.41,28.24-2.21,42.49-2.2-8.73-11.86-14.52-25.18-18.56-39.32l.98.49c5.64,21.68,20.39,46.75,39.81,58.61,10.41,6.36,26.63,12.58,38.83,9.77.78.19,2.18.26,1.95,1.47-14.97,3.66-38.63-7.07-50.06-16.61-2.18-1.82-11.39-12.39-12.21-12.7-2.81-1.07-40.56-.49-41.76,1.22.22,6.45-3.61,12.31-4.4,18.56-.99,7.9.28,19.64,2.44,27.35,1.83,6.52,10.04,16.76,5.86,22.47-5.39,7.36-20.92-1.77-26.13-6.11-16.04-13.35-21.79-36.02-21.49-56.17-11.88,2.79-22.97,5.85-33.7,11.72-14.5,7.93-42.38,34.38-59.59,28.82-11.83-3.82,5.85-23.12,4.64-25.15-7.63,2.29-29.44.52-33.21-7.33-7.8-16.25,23.06-43.6,35.66-50.8.07-1.37-.11-2.79,0-4.15l1.22,3.91c7.52-4.59,14.09-6.48,22.96-5.86,1,.07,12.86,2.7,14.16,3.91.4.37.83,1.54,1.47,1.95-5.77-2.65-10.17-3.37-16.36-3.91Z"/>
            <path class="cls-9" d="M126.04,218.64c4.47,22.66,16.02,45.29,40.54,50.31-3.32,2.6-11.34-1.3-15.14-3.42-15.08-8.42-26.6-29.69-25.4-46.89Z"/>
          </g>
        </g>
        <g>
          <path class="cls-4" d="M409.57,280.67c-.69-.37-.34-.49-.73-.98-2.18,1.78.4,5.3.24,7.08-1.84,21.44-39.76,32.75-46.89,56.66-1.8,6.02-3,17.27,2.44,21.25-.37,1.86-.25,6.5-1.71,6.84-12.61-7.5-18.25-28.2-18.32-42.25-.16-32.55,24.38-52.85,47.87-70.82-36.16-29.73-81.65-46.53-127.24-55.93-2.75,1.31,9.56,11.31,10.01,11.97,3.76,5.41,2.43,11.77-4.4,13.43.23-1.2-1.18-1.27-1.95-1.47-4.38-1.07-9.06-.95-13.43-1.95-43.13-9.86-63.49-52.73-68.38-93.29-.97,8.85.95,18.29,3.17,26.86l-.98-.49c-.79-2.78-1.26-5.52-1.95-8.3-.17-.68-.28-3.6-.73-3.91-16.63-.85-36.89.59-52.75,5.86-11.91,3.96-33.75,16.7-23.93,31.75-4.43.09-8.11-2.13-11.97-3.91.16-2.22-3.53-4.46-4.64-6.84-1.49,1.34.93,2.06.73,3.66-.31,2.46-14.09,15.25-16.85,17.34-16.37,12.38-46.35,22.83-66.91,20.03-17.51-2.39,3.84-26.66,9.77-32.24,6.84-6.43,20.55-16.01,29.31-19.05,3.55-1.23,7.68-1.35,10.99-2.93,6.2.54,10.59,1.25,16.36,3.91-.63-.41-1.06-1.58-1.47-1.95-1.31-1.21-13.17-3.84-14.16-3.91-8.86-.62-15.43,1.27-22.96,5.86l-1.22-3.91c.35-4.58-.37-9.34,0-13.92C43.84,59.04,121.71,31.9,197.84,37.92,231.47,11.38,282.26-8.6,325.32,3.73c5.49,1.57,17.98,6.35,9.28,12.7-11.98,8.74-21.07,7.94-31.5,23.2-19.05,27.88,2.93,33,20.76,48.6,45.4,39.74,81.65,105.33,91.58,164.84,31.1-.35,60.22,8.96,79.13,34.68,8.05,10.95,19.59,35.26,17.1,48.84-.27,1.49-2.2,5.3-4.15,5.13-1.05-.09-11.38-13.31-14.16-15.63-23.09-19.19-58.98-10.37-74.49-29.06-2.32-2.79-8.04-15.71-9.28-16.36Z"/>
          <g>
            <g>
              <path class="cls-7" d="M389.06,246.48c-26.02-18.34-53.22-36.1-82.79-48.35-8.87-3.68-27.19-7.87-33.7-12.7-8.77-6.49-14.03-26.86-22.71-35.17,47.89,7.54,119.73,50.12,139.2,96.22Z"/>
              <path class="cls-5" d="M249.86,150.26c8.68,8.31,13.94,28.67,22.71,35.17,6.52,4.82,24.83,9.02,33.7,12.7,29.57,12.26,56.76,30.02,82.79,48.35.65,1.54,4.28,8.28.24,7.81-1.38-.16-19.42-13.55-22.96-15.63-31.31-18.39-66.39-30.45-102.08-37.12-4.6-2.62-9.83-31.02-12.45-36.88-2.26-5.05-8.49-9.61-10.75-15.14.21-1.29,7.75.57,8.79.73Z"/>
            </g>
            <g>
              <path class="cls-3" d="M431.31,263.57c13.13-1.12,34.59,7.52,44.94,15.63,11.4,8.94,20.31,22.18,23.2,36.39-1.75-.16-1.37-2.76-1.47-2.93-2.65-4.93-6.86-12.23-11.23-17.58-14.1-17.24-34.71-27-56.41-30.53-.51-.24.91-.97.98-.98Z"/>
              <path class="cls-2" d="M431.31,257.71c32.21-1.75,66.92,24.72,72.04,56.9-.87.8-1.22-.86-1.47-1.47-1.52-3.7-2.14-8.01-3.91-11.72-13.05-27.49-43.63-42.88-73.51-41.76.33-1.59,5.43-1.88,6.84-1.95Z"/>
              <path class="cls-3" d="M384.42,273.34c1.23-.24.62.6.24,1.22-1.98,3.23-12.11,11.16-15.63,15.63-5.27,6.7-10.93,16.69-13.19,24.91-1.67,6.1-1.58,12.7-3.66,18.32-3.5-16.66,4.76-34.57,15.87-46.64,1.81-1.97,14.73-13.11,16.36-13.43Z"/>
              <path class="cls-2" d="M353.16,302.65c-8.57,21.55-5.35,44.2,5.86,63.98-13.49-17.93-16.72-43.96-5.86-63.98Z"/>
            </g>
            <g>
              <path class="cls-2" d="M164.14,42.32c69.59-2.76,148.43,25.87,183.4,89.14-28.09-33.98-61.42-62.24-104.28-75.46-73.02-22.53-192.43-12.48-196.35,85.48-6.75-25.76,7.44-51.65,26.86-67.89,23.45-19.61,60.11-30.06,90.36-31.26Z"/>
              <path class="cls-2" d="M295.53,5.2c10.89-.44,25.2.19,34.68,5.37-36.3-6.75-70.66,2.86-102.08,20.51-2.21,1.24-11.94,8.64-12.7,8.79-.47.1-9.54-1.23-9.52-1.71,26.37-16.88,57.69-31.67,89.63-32.97Z"/>
              <path class="cls-8" d="M108.46,101.9c3.96-.54,7.99,1.66,10.5,4.64-3.76-.98-12.55,3.25-15.39,2.2-3.88-1.44,2.23-6.48,4.88-6.84Z"/>
              <path class="cls-2" d="M312.62,102.39c5.09-1.41,9.47,5.35,4.88,7.81-5.31,2.85-10.04-6.39-4.88-7.81Z"/>
              <path class="cls-2" d="M291.13,85.3c6.39-1.51,8.04,7.45,2.93,8.3s-7.94-7.12-2.93-8.3Z"/>
              <path class="cls-2" d="M300.41,97.02c6.91-2,8.51,9.18,1.47,7.81-3.23-.62-5.28-6.71-1.47-7.81Z"/>
              <path class="cls-2" d="M225.19,56.48c6.42-1.15,7.32,8.48,0,6.84-3.79-.85-3.82-6.15,0-6.84Z"/>
              <path class="cls-2" d="M278.43,76.02c2.15-.65,6.73,2.89,3.42,4.88s-6.52-3.96-3.42-4.88Z"/>
              <g>
                <path class="cls-7" d="M128.24,143.42c-.86.82-.93-.02-.98,0,3.45-34.81-33.78-21.29-14.65,5.37-.3.13.04.79-1.95.98-25.23-32.06,21.15-48.01,17.58-6.35Z"/>
                <path class="cls-10" d="M128.24,143.42c3.56-41.66-42.82-25.71-17.58,6.35-3.55.33-7.93-11.2-8.3-14.9-2.86-28.32,29.54-22.52,27.35,4.88-.1,1.2-.48,2.72-1.47,3.66Z"/>
                <g>
                  <path class="cls-10" d="M127.26,143.42c-5,1.97-9.41,3.15-14.65,5.37-19.13-26.66,18.1-40.18,14.65-5.37Z"/>
                  <path class="cls-7" d="M112.85,127.3c3.34-.41,5.02,6.41,1.47,7.33-4.95,1.27-5.04-6.89-1.47-7.33Z"/>
                </g>
              </g>
            </g>
          </g>
        </g>
      </g>
    </g>
  </g>
</svg>