<?xml version="1.0" encoding="UTF-8"?>
<svg id="katman_2" data-name="katman 2" xmlns="http://www.w3.org/2000/svg" xmlns:xlink="http://www.w3.org/1999/xlink" viewBox="0 0 299.86 230.36">
  <defs>
    <style>
      .cls-1 {
        fill: #fdbc31;
      }

      .cls-2 {
        fill: url(#Adsız_degrade_72);
      }

      .cls-3 {
        fill: url(#Adsız_degrade_73);
      }

      .cls-4 {
        fill: #1a5657;
      }

      .cls-5 {
        fill: #d8a69e;
      }

      .cls-6 {
        fill: #7d8220;
      }

      .cls-7 {
        fill: #9b7579;
      }

      .cls-8 {
        fill: #785d69;
      }

      .cls-9 {
        fill: #eab380;
      }

      .cls-10 {
        fill: #f7f7e9;
      }

      .cls-11 {
        fill: #408d7e;
      }

      .cls-12 {
        fill: #856266;
      }

      .cls-13 {
        fill: #e0647b;
      }

      .cls-14 {
        fill: #edbaad;
      }

      .cls-15 {
        fill: #a22540;
      }

      .cls-16 {
        fill: #1b4640;
      }

      .cls-17 {
        fill: #5cad8e;
      }

      .cls-18 {
        fill: #76b1a4;
      }

      .cls-19 {
        fill: #f18f44;
      }

      .cls-20 {
        fill: #d2b0a5;
      }

      .cls-21 {
        fill: #685c71;
      }

      .cls-22 {
        fill: #395142;
      }

      .cls-23 {
        fill: #8d7677;
      }

      .cls-24 {
        fill: #fed95d;
      }

      .cls-25 {
        fill: #e79f31;
      }

      .cls-26 {
        fill: #86ccb6;
      }

      .cls-27 {
        fill: #3f6453;
      }

      .cls-28 {
        fill: #9aa728;
      }

      .cls-29 {
        fill: #e1d5d2;
      }

      .cls-30 {
        fill: #648e74;
      }

      .cls-31 {
        fill: #f67d85;
      }

      .cls-32 {
        fill: #614e5c;
      }

      .cls-33 {
        fill: #f27b30;
      }

      .cls-34 {
        fill: #6b7521;
      }

      .cls-35 {
        fill: #c08a84;
      }

      .cls-36 {
        fill: #342a36;
      }

      .cls-37 {
        fill: #fcefc1;
      }

      .cls-38 {
        fill: #9b9b9f;
      }

      .cls-39 {
        fill: #f3c760;
      }

      .cls-40 {
        fill: #1a2028;
      }

      .cls-41 {
        fill: #d8ab51;
      }

      .cls-42 {
        fill: #c94f1a;
      }

      .cls-43 {
        fill: #899025;
      }

      .cls-44 {
        fill: #db5c2a;
      }

      .cls-45 {
        fill: #be304c;
      }

      .cls-46 {
        fill: #509b8a;
      }

      .cls-47 {
        fill: #e8e6c9;
      }

      .cls-48 {
        fill: #ae5566;
      }

      .cls-49 {
        fill: #b3c951;
      }

      .cls-50 {
        fill: #a6d8ca;
      }

      .cls-51 {
        fill: #f8db87;
      }

      .cls-52 {
        fill: #2c7266;
      }

      .cls-53 {
        fill: #235344;
      }

      .cls-54 {
        fill: #de5862;
      }

      .cls-55 {
        fill: #ede9e6;
      }

      .cls-56 {
        fill: #55424a;
      }

      .cls-57 {
        fill: #a77d3b;
      }

      .cls-58 {
        fill: #959d9d;
      }

      .cls-59 {
        fill: #203a35;
      }

      .cls-60 {
        fill: #d86b1c;
      }

      .cls-61 {
        fill: #fdec8d;
      }

      .cls-62 {
        fill: #f9d6c9;
      }

      .cls-63 {
        fill: #f8fbfd;
      }

      .cls-64 {
        fill: #83797d;
      }

      .cls-65 {
        fill: #cc434f;
      }
    </style>
    <linearGradient id="Adsız_degrade_72" data-name="Adsız degrade 72" x1="33.38" y1="207.5" x2="34.25" y2="227.53" gradientUnits="userSpaceOnUse">
      <stop offset="0" stop-color="#9d7474"/>
      <stop offset="1" stop-color="#755a61"/>
    </linearGradient>
    <linearGradient id="Adsız_degrade_73" data-name="Adsız degrade 73" x1="153.41" y1="27.05" x2="97.6" y2="65.34" gradientUnits="userSpaceOnUse">
      <stop offset="0" stop-color="#509f8e"/>
      <stop offset="1" stop-color="#73c4a6"/>
    </linearGradient>
  </defs>
  <g id="katman_2-2" data-name="katman 2">
    <g id="_Üretken_Nesne" data-name="Üretken Nesne">
      <path class="cls-63" d="M89.8,154.62c-1.51-.06-3.42.11-4.95.26-1.68-.32-9.11-.59-10.41,0-.37.17-3.67,4.59-4.56,5.47-8.32,8.2-17.89,16.18-26.68,23.95v-4.56c-.4-1-3.49.93-3.64.52,2.05-2.24,3.77-2.54,3.64-5.99h-2.86c-.16-.2,2.8-3.71,2.86-4.16.09-.63-1.37-4.36-1.56-5.47-.31-1.75-.27-5.24-.78-6.64-.05-.13.1-.46-.13-.52l-.65.39c-.79,2.96-1.43,6.06-2.34,8.98-.56.34-.4,1.4-.52,1.82-.19.56-1.45,4.12-1.69,4.16-2.62-1.37-5.92-3.39-8.98-2.6-.67-1.83-1.12-3.77-1.82-5.6-.64-.92-.42.53-1.3.52.76-1.46.45-2.62.26-4.16l-1.3.78.52-4.16-8.07-14.84c.16,1.51-1,5.33-.78,6.51.19,1.01,3.12,2.75,3.12,3.12,0,.65-2.13,1-2.34,1.56-.08.22.18,4.46.26,4.69.16.45,3.06,1.71,3.12,2.08.1.61-2.73,1.89-2.86,2.34-.52,1.74.9,7.03,3.64,7.03.16.66-2.5,1.11-2.6,1.3-.81,1.53.9,5.24,2.6,5.99-2.51-.62-1.04,5.99-.52,7.03.29.58,3.17,2.51,3.12,2.86-5.29.18-1.24,3.88-1.82,5.47-.05.14-1.85,1.51-2.34,1.95-.28.25-.54.24-.65.78-.45.08.31-3.7.13-4.56-.12-.57-5.53-10.04-6.12-10.02l-1.69,5.86c-.89-2.64-.12-5.78-.78-8.33-.03-.13-1.12-1.6-1.3-1.95-1.56-3.11-4.03-5.68-7.03-7.55v-29.41c1.95.47,4.08,1.33,5.99.13-2.42-.78-4.22-1.28-5.99-3.25v-12.75l1.17,2.34c2.94-2.87,12.54-15.9,15.88-16.66,6.98-1.59,13.2,9.91,8.07,15.36,10.98-7.67,21.58,1.15,22,12.88-.21.49-6.4,1.1-5.6,1.95,5.79.46,10.44,4.58,16.4,4.16.59-1.39-2.41-1.51-2.73-2.47-1.09-3.25,1.5-9.81,4.56-11.58,14.71-8.52,27.07,13.61,30.06,24.99Z"/>
      <path class="cls-63" d="M299.86,167.11v58.57c-5.31-3.65-10.16-8.82-15.36-12.49l-.13-3.64c-.57,5.96-1.1-2-1.3-3.9l-1.3,4.43c-.75-1.45-.58-2.7-.52-4.69l-.78,3.38-.91-3.25c-.31,1.2.89,3.45-.78,3.64-.02-1.01.58-3.05.52-3.9,0-.13-1.41-.55-.52-2.08l-.91,1.43c-1.5-2.44-1.39-5.44-.91-8.2l-1.17,4.03-.65-3.25c.71,1.55-.74,2.95-.78,3.12-.12.55.86,2.39-.26,2.08.18-.87-1.12-3.3-.78-3.9.09-.16.34.49,1.3-1.17.62-1.07,5.93-9.92,5.08-10.41-.32.04-.84.74-.91.78-4.77,2.47-8.98,7.51-13.15,10.93.25-.68-.73-3.35-.65-3.51.13-.27.62-.05.78-.13,1.5-.75,1.7.22,1.95-2.08,2.79.7-.95-.76-.78-2.08.49.09,2.45,1.57,2.6,1.56.27-.01,3.48-3.77,3.51-4.03.1-.84-2.71-2.3-3.12-3.12.3-.66,3.64,1.69,4.95.52.25-.22,3.43-5.4,3.38-5.73-.08-.61-2.11-1.17-2.6-1.56.91-.42,3.28-.09,3.9-.78,1.12-1.25,2.76-9.84,4.69-11.71l-.65-.39c-.77.94-6.55,3.86-6.64,4.56-.01.1,1.24,1.72.65,1.95-.77-3.12-4.85.34-6.25,1.56-2.99,2.62-3.15,2.74-2.47,6.77-.38-.98-1.2-1.89-1.95-2.6-2.73,2.05-.87,3.89-.65,6.64-1.16-.26-.49-4.55-2.08-3.12-.36.32-5.25,7.59-5.21,8.07.08,1.02,1.71.39,1.56,1.56-3.48-1.05-3.5,2.95-4.95,5.34-.51-.2-.99-.5-1.04-.52,1.06-7.09,6.01-12.93,8.85-19.39l-2.47-.13,1.95-.65-1.56-.65,3.12-.65,11.45-27.33c-1.74.42-3.75,2.11-5.08,3.25-3.04,2.63-5.01,5.51-7.16,8.85-.17.26-.35.51-.52.78-1.69,2.76-3.08,4.95-4.16,8.07-.29.84-.54,1.75-.78,2.6s-.32,1.77-.52,2.6c-1.35,5.48-2.23,11.05-2.86,16.66h-.52c1.48-13.1,6.38-27.35,0-39.7-.06-.12-.75-1.44-1.04-1.04-2.93,14.73-3.16,29.32.26,43.99-1.93-4.82-2.52-10.19-4.16-15.1-.7-2.08-1.16-4.1-2.6-5.6-.9-.93-2.05-1.52-3.12-2.21l3.12-.26c-1.29-3.6-2.87-7.06-4.43-10.54-1.14-2.55-2.28-5.67-3.64-8.07-.06-.1.09-.49-.26-.65-1.21-.33.38,5.47-.39,5.86-4.49-.16-8.8,1.19-12.49,3.64-3.14,2.08-9.49,9.64-13.28,8.85-3.16-.66-.2-8.75-.65-11.19,12.08-4.02,24.62-12.78,30.72-24.21l4.03,2.34c-5.04-5.58,5.43-7.06,7.94-2.73,1.62,2.79.39,5.76-1.56,8.07-.16.19-3.07,1.66-1.69,1.69.94.02,4.91-3.56,5.99-4.16,20.24-11.31,33.39,11.18,33.19,28.76l9.63-.39Z"/>
      <path class="cls-8" d="M188.2,162.43c5.77,2.01,16.63,12.21,23.17,15.36,6.3,7.4,14.83,12.54,22.26,18.74,4.62,3.85,14.38,11.33,17.83,15.49,2.75,3.31,7.61,10.22,8.07,14.32.11.95.35,3.22-.26,4.03h-16.14c-.54-3.25-6.15-7.06-8.98-8.85-1.77-1.12-4.61-1.77-6.25-2.86-2.26-1.5-8.81-9.57-10.28-12.1-.99-1.7-3.55-8.91-4.29-9.5-1.17-.92-7.59-2.37-9.89-3.64-3.08-1.7-5.53-5.23-8.59-6.51-.41-.17-.99-.58-.91.26-.11-.08-.41.51-.78-.26-.51-2.6-4.42.42-6.25,1.3-3.72-7.03-8.86-13.74-8.59-22.13,1.18-.68,4.15-3.44,4.95-3.64.7-.18,4.19-.26,4.95,0Z"/>
      <path class="cls-35" d="M133.01,200.17c-.04.42.06.89,0,1.3-.43,3.14.8,6.61,1.3,9.76-4,1.7-8.88,1.27-12.23,4.29-5.79,2.39-18.84,11.39-23.43,11.97-.78-1.15-3.36-.23-4.56-.52-.33.12.2.32.13.52-.35.96-.47,1.92,0,2.86h-9.63c-.17-.49.21-.75.26-1.04.77-4.34,1.18-8.78,1.82-13.15-.95.46-1.49,1.89-2.08,2.73-.47-1.06,1.33-2.43,1.82-3.12.21-.31,1.55-1.81,1.56-1.95.05-.59-.52-.36-.52-.39-.44-3.19-2.2-6.55-3.12-9.63,13.62-1.17,27.44-2.54,41.13-3.38,2.24-.14,5.46-.65,7.55-.26Z"/>
      <path class="cls-2" d="M46.59,205.64c4.76,3.98,8.9,8.75,14.32,11.97-4.7,4.8-8.93,8.65-14.32,12.75H7.29c.98-.65,1.91-1.4,2.86-2.08,3.15-1.92,7.46-3.71,10.28-5.99,3.59-2.9,14.19-17.26,16.66-18.22.5-.2,4.08-.53,4.29.13l-4.03,17.05c1.99-3.52,2.28-14.3,4.29-17.05,1.17-1.6,3.77.69,4.95,1.43Z"/>
      <path class="cls-21" d="M252.23,195.48c.8.24.97-.02,1.04,0,.22.07.3.19.52.26.48.16.36-.06.52,0,.08.03.18-.03.26,0,.05.02.54.32,1.04.52.81.31,1.85.65,2.6,1.04,1.69.88,3.38,2.35,5.21,3.38,6.63,3.76,14.97,8.18,21.08,12.49,5.2,3.67,10.05,8.85,15.36,12.49v4.69h-32.54l-3.25-18.48,16.27,5.47,7.16,2.6c-13.43-8.6-26.89-16.99-41.13-24.21-.36-.18-.37.27-.39.26-1.61-.82-3.46-2.04-4.69-3.38,3.06,1.16,7.55,1.83,10.93,2.86Z"/>
      <path class="cls-7" d="M239.21,191.32c.67.32,1.28,1,2.08,1.3,1.23,1.35,3.07,2.56,4.69,3.38,6.76,4.34,12.41,9.73,18.09,15.36l16.27,5.99-16.27-5.47,3.25,18.48h-8.07c.61-.81.37-3.09.26-4.03-.46-4.1-5.32-11-8.07-14.32-3.45-4.16-13.21-11.63-17.83-15.49-7.43-6.2-15.95-11.34-22.26-18.74,9.21,4.44,18.59,9.08,27.85,13.54Z"/>
      <path class="cls-8" d="M165.29,226.72l-11.06-5.99c-.58.23-.24,1.12-.52,1.3s-5.73-1.27-6.64-1.17l16.66,9.5h-34.88c.51-.35.72-1.42.78-1.95.55-4.98.73-10.5.26-15.49,1.64-.43,3.34-.62,4.95-1.17.23-.41-1.12-6.17-1.3-7.16.55-.42.89-.23,1.43,0,4.68,2.02,10.78,7.83,15.1,10.93,5.12,3.67,10.87,6.6,15.23,11.19Z"/>
      <path class="cls-36" d="M243.12,230.36h-21.34c-1.12-1.63-2.23-3.7-3.12-5.47-5.23-10.33-11.95-20.91-18.74-30.32-1.04-1.45-4.84-6.63-5.99-7.42-.08-.84.5-.43.91-.26,3.06,1.27,5.51,4.81,8.59,6.51,2.3,1.27,8.72,2.72,9.89,3.64.75.59,3.31,7.8,4.29,9.5,1.47,2.53,8.02,10.6,10.28,12.1,1.64,1.09,4.48,1.74,6.25,2.86,2.83,1.79,8.44,5.6,8.98,8.85Z"/>
      <path class="cls-35" d="M35.4,204.33c.72.04.94-.33.39.52-6.06,9.3-16.87,17.16-25.64,23.43-.95.68-1.89,1.43-2.86,2.08H0v-17.7c5.9-.76,12.13-2.04,17.18-5.21,5.93-.98,12.38-1.9,18.22-3.12Z"/>
      <path class="cls-7" d="M129.89,212.92c.47,4.99.29,10.51-.26,15.49-.06.53-.27,1.6-.78,1.95h-34.62c-.47-.94-.35-1.91,0-2.86,1.4-.13,3.06.17,4.43,0,4.59-.58,17.63-9.58,23.43-11.97,2.97-1.23,4.69-1.78,7.81-2.6Z"/>
      <path class="cls-32" d="M211.62,221.77c2.34,1.01,4.63,2.26,7.03,3.12.89,1.77,2,3.84,3.12,5.47h-27.85l-1.04-1.3-6.38-17.7c8.22,3.83,16.8,6.82,25.12,10.41Z"/>
      <path class="cls-14" d="M81.73,197.05c.12.09,1.97,1.01,2.08,1.04v5.73c-8.73,8.55-13.8,20.53-24.73,26.55h-12.49c5.38-4.11,9.62-7.95,14.32-12.75.17-.17.35-.35.52-.52.51-.51,1.24-.86,1.56-1.56.07.03.18-.03.26,0,.03,0-.08.5.13.52l.78-.26c5.99-6.12,12.31-11.95,17.57-18.74Z"/>
      <path class="cls-7" d="M84.34,203.81c.92,3.09,2.69,6.44,3.12,9.63l-1.04,2.34c-.49.7-2.29,2.06-1.82,3.12-2.57,3.63-5.28,7.14-7.81,10.8.26.32,7.29.35,8.07-.39-.05.29-.43.55-.26,1.04h-25.51c10.93-6.02,16-18,24.73-26.55h.52Z"/>
      <path class="cls-12" d="M175.7,211.1c3.25-.11,6.66-.13,9.89.26l7.29,17.7,1.04,1.3h-7.03c-7.55-5.3-14.23-10.2-22.39-14.58,1.12-.63,5.08-4.49,5.86-4.69,1.06-.27,3.98.05,5.34,0Z"/>
      <path class="cls-12" d="M139.26,203.03c.45,1.9,2.8,2.86,4.29,4.16,2.59,2.26,3.36,3.01,6.38,4.95,10.16,6.52,22.15,10.06,31.24,18.22h-3.38l-12.49-3.64c-4.35-4.6-10.11-7.52-15.23-11.19-4.32-3.1-10.42-8.92-15.1-10.93-.54-.23-.88-.42-1.43,0-.19-1.03-.2-2.11-.52-3.12.06-.41-.04-.88,0-1.3,1.67.31,4.54,2.07,6.25,2.86Z"/>
      <path class="cls-14" d="M41.91,203.03c-1.67.72-3.95.16-5.6.52-.88.19-.85.77-.91.78-5.84,1.22-12.29,2.15-18.22,3.12s-11.47,1.67-17.18,2.6v-2.86c2.94-.94,5.85-1.84,8.85-2.6,9.18-2.33,18.81-3.9,27.98-2.6.48.07,2.59-.21,3.12,0,.5.19.19,1.55,1.95,1.04Z"/>
      <path class="cls-35" d="M160.34,213.44c1.3,1.26,1.97,1.34,3.38,2.08.29.15.69.21.78.26,8.15,4.38,14.83,9.28,22.39,14.58h-5.73c-9.08-8.16-21.08-11.71-31.24-18.22,2.98-.91,5.55,1.45,8.07-.52.33-.26.52-.68,1.04-.78,0,.64-.28,1.36-.26,1.43.14.51,1.29.91,1.56,1.17Z"/>
      <path class="cls-43" d="M7.03,176.48l1.04,2.47c-.25,2.6-.66,4.88-1.56,7.42-.81-1.26-5.93-7.68-5.99-8.33-.08-.92,1.29-3.12,1.04-4.29l-1.56,2.99v-7.81c3,1.86,5.47,4.44,7.03,7.55Z"/>
      <path class="cls-56" d="M165.29,226.72l12.49,3.64h-14.06l-16.66-9.5c.91-.1,6.35,1.35,6.64,1.17s-.06-1.07.52-1.3l11.06,5.99Z"/>
      <path class="cls-5" d="M17.18,207.46c-5.05,3.17-11.28,4.45-17.18,5.21v-2.6c5.71-.93,11.47-1.66,17.18-2.6Z"/>
      <path class="cls-63" d="M0,139.52v-3.12c1.76,1.97,3.56,2.48,5.99,3.25-1.9,1.2-4.04.34-5.99-.13Z"/>
      <path class="cls-47" d="M.52,178.04h-.52v-1.3l1.56-2.99c.25,1.17-1.12,3.37-1.04,4.29Z"/>
      <path class="cls-62" d="M89.8,154.62c2.65.1,2.41-.34,4.69,1.04.44.27.93.69,1.3,1.04.27.25.52.77.78,1.04-4.04.26-8.24-2.21-11.71-2.86,1.52-.15,3.44-.32,4.95-.26Z"/>
      <path class="cls-55" d="M78.35,96.05c.28,1.45,1.16,2.85,1.82,4.16l-5.21-4.03c1.03-.67,2.29-.35,3.38-.13Z"/>
      <path class="cls-55" d="M103.6,68.98l-.52,2.6c-.9-.38-.37-.64-.65-.78-.05-.03-.48.68-.78.52-1.71-.93-.59-1.21-.65-2.34.83.04,1.77.05,2.6,0Z"/>
      <path class="cls-62" d="M77.57,162.17c-2.04-.28-3.73,1.23-5.34,2.34-9.65,6.72-18.31,17.02-27.85,23.95-4.18,3.03-9.28,5.69-13.93,7.94l6.38,2.99c3.03-.35,6.2.05,9.24-.26-1.17.65-3.15,3.47-4.16,3.9-1.76.51-1.46-.85-1.95-1.04-.53-.21-2.65.07-3.12,0-9.17-1.29-18.8.28-27.98,2.6,2.66-1.22,5.44-2.4,8.2-3.38,3.1-1.11,8.85-2.34,11.45-3.64,2.98-1.5,11.51-10.45,14.71-13.28,8.79-7.77,18.36-15.75,26.68-23.95.88-.87,4.19-5.3,4.56-5.47-.1,1.53,3.57,6.25,3.64,6.9.02.19-.54,0-.52.39Z"/>
      <path class="cls-14" d="M84.86,154.88c3.47.65,7.68,3.12,11.71,2.86.18.19.75.38.78.78-.77-.25-6.51-.99-6.9-.78.72,4.15,6.34,2.54,9.37,2.86-1.15,1.03-3.57.35-5.21.52-1.77.19-3.73.92-5.47,1.04-2.51.18-5.77-1.08-7.68.52-.64-.04-3.12-.51-3.38-.13,1.18,6.2-3.29,13.66,2.34,18.09-1.39,1.02-9.87,18.95-11.19,21.87l10.67-21.73c-1.97-2.08-2.92-3.64-2.99-6.64l-3.51,2.6c.85-.9,3.63-3.21,3.9-4.03.54-1.6.39-8.54.26-10.54-.02-.38.54-.2.52-.39-.07-.65-3.74-5.37-3.64-6.9,1.3-.59,8.73-.32,10.41,0Z"/>
      <path class="cls-43" d="M7.03,176.48c.18.35,1.27,1.82,1.3,1.95.66,2.55-.11,5.69.78,8.33l1.69-5.86c.59-.02,6,9.45,6.12,10.02.18.86-.58,4.64-.13,4.56.11-.54.37-.53.65-.78l2.08,2.86c.19.42.52.81.52,1.3-1.44,2.09-2.2,1.56-4.56,2.6-3.11-4.95-5.83-10.17-8.98-15.1.9-2.54,1.31-4.82,1.56-7.42l-1.04-2.47Z"/>
      <path class="cls-63" d="M26.55,170.23c3.06-.78,6.36,1.24,8.98,2.6.24-.05,1.5-3.61,1.69-4.16-1.75,6.06-3.1,12.25-4.69,18.35,0,2.24,3.14,1.51-1.17,3.51,1.75-6.85-2.46-13.89-4.82-20.3Z"/>
      <path class="cls-63" d="M238.69,151.23c-.6.06-.3,2.11-.26,2.47.19,1.76.52,3.58.78,5.34.94,6.33,2.39,13.91,4.95,19.78.13.31.46.65.52.78.54,1.12,1.15,3.09,2.08,3.9,1.3,4.32,6.09,7.6,6.51,11.97-.07-.02-.25.24-1.04,0l-1.95-4.43-1.69,1.43c1.18-3.28.26-3.65-1.04-6.12-.88-1.67-1.32-2.01-2.34-3.38-.26-.35-.23-.87-.26-.91-.4-.51-3.02-2.36-3.12-2.86-.12-.63.58-1.18.52-1.56-.26-1.58-7.97-8.05-9.63-9.37,1.1,1.92.65,9.21,1.3,10.41.18.34,2.79.57,3.38.52-5.41,2.28-2.64,4.96,2.08,4.43l-3.64,1.3c1.74,1.18.96,3.16,2.73,4.29.64.41,1.59.11,2.21.65l-2.21.39.65,1.04c-9.26-4.45-18.64-9.1-27.85-13.54-6.53-3.15-17.4-13.35-23.17-15.36,8.04-.97,15.72-2.12,23.43-4.69.45,2.44-2.51,10.53.65,11.19,3.79.79,10.14-6.77,13.28-8.85,3.7-2.46,8-3.81,12.49-3.64.77-.38-.82-6.19.39-5.86.35.16.2.55.26.65Z"/>
      <path class="cls-28" d="M265.76,194.96c-2.34-2.18-.28,4.37-.52,4.56-.54.41-1.48-.3-1.82,1.17-1.83-1.04-3.51-2.5-5.21-3.38.47-2.31,1.28-3.21.52-5.6,1.27,1.14,1.26,1.84.52,3.9h.78l9.37-14.32c-1.14-.32-.47-.77-.52-.91-.68-4.03-.52-4.15,2.47-6.77,1.39-1.22,5.48-4.69,6.25-1.56.59-.24-.66-1.85-.65-1.95.09-.7,5.86-3.62,6.64-4.56l.65.39c-1.92,1.87-3.56,10.47-4.69,11.71-.62.69-3,.36-3.9.78.49.4,2.52.95,2.6,1.56.04.33-3.14,5.5-3.38,5.73-1.3,1.16-4.64-1.18-4.95-.52.41.82,3.23,2.28,3.12,3.12-.03.27-3.25,4.02-3.51,4.03-.15,0-2.12-1.47-2.6-1.56-.17,1.32,3.58,2.78.78,2.08-.26,2.3-.45,1.33-1.95,2.08Z"/>
      <path class="cls-34" d="M254.31,189.76c-.22,1.99-.59,3.97-.52,5.99-.22-.07-.3-.19-.52-.26-.42-4.37-5.21-7.66-6.51-11.97,1.2,1.05,2.12.3,2.73.78.1.08.05,1.73,1.3,1.82.57-3.58-2.85-6.42-6.12-6.51-.06-.13-.39-.47-.52-.78,1.03-.84,4.8,2.44,5.08,2.34.82-3.79-1.77-5.24-5.34-5.6.63-1.09,4.02,1,4.16.26-.07-2.55-2.1-1.86-3.9-2.34,0-.36,3.33.37,2.6-1.17,1.44,1.5,1.9,3.51,2.6,5.6,1.65,4.91,2.23,10.27,4.16,15.1-3.42-14.67-3.19-29.26-.26-43.99.29-.4.98.92,1.04,1.04,6.38,12.35,1.48,26.6,0,39.7Z"/>
      <path class="cls-43" d="M261.34,174.92l1.95-.78c.31-.31-5.18-2.67-5.6-1.04.2-.83.29-1.79.52-2.6l4.95-.13-4.16-2.47c1.08-3.12,2.48-5.31,4.16-8.07.49,1.21,1.58,2.73,2.86,3.25l-2.34-4.03c2.15-3.34,4.11-6.22,7.16-8.85,1.33-1.15,3.34-2.83,5.08-3.25l-11.45,27.33-3.12.65Z"/>
      <path class="cls-43" d="M242.34,159.3c1.56,3.48,3.14,6.94,4.43,10.54l-3.12.26c1.07.69,2.22,1.28,3.12,2.21.73,1.54-2.6.81-2.6,1.17,1.8.48,3.83-.2,3.9,2.34-.15.74-3.53-1.35-4.16-.26,3.56.36,6.15,1.8,5.34,5.6-.28.09-4.05-3.18-5.08-2.34-2.55-5.87-4-13.45-4.95-19.78l3.12.26Z"/>
      <path class="cls-43" d="M261.34,174.92l1.56.65-1.95.65,2.47.13c-2.84,6.46-7.79,12.3-8.85,19.39-.08-.03-.18.03-.26,0-.01-2.01.3-4,.52-5.99.64-5.61,1.52-11.18,2.86-16.66.41-1.63,5.9.73,5.6,1.04l-1.95.78Z"/>
      <path class="cls-43" d="M268.89,180.39c.05.14-.62.6.52.91l-9.37,14.32h-.78c.74-2.06.75-2.76-.52-3.9.76,2.39-.05,3.29-.52,5.6-.75-.39-1.79-.73-2.6-1.04,1.45-2.38,1.47-6.39,4.95-5.34.15-1.17-1.48-.54-1.56-1.56-.04-.48,4.85-7.75,5.21-8.07,1.59-1.43.92,2.86,2.08,3.12-.22-2.75-2.08-4.58.65-6.64.76.72,1.57,1.62,1.95,2.6Z"/>
      <path class="cls-28" d="M274.61,197.31h-.26l-.78-.26c-.13-.38-.63-2.2-.52-2.47.69-1.64,5.13-4.69,5.73-6.9.07-.04.59-.74.91-.78.86.49-4.45,9.34-5.08,10.41Z"/>
      <path class="cls-43" d="M238.69,151.23c1.36,2.4,2.5,5.52,3.64,8.07l-3.12-.26c-.26-1.75-.59-3.58-.78-5.34-.04-.36-.34-2.42.26-2.47Z"/>
      <path class="cls-43" d="M258.22,170.5c.24-.86.49-1.76.78-2.6l4.16,2.47-4.95.13Z"/>
      <path class="cls-55" d="M254.83,189.76c-.23,1.99-.53,3.98-.52,5.99-.16-.06-.04.16-.52,0-.07-2.01.3-4,.52-5.99h.52Z"/>
      <path class="cls-28" d="M263.16,159.82c.17-.27.35-.52.52-.78l2.34,4.03c-1.29-.53-2.37-2.04-2.86-3.25Z"/>
      <path class="cls-7" d="M193.92,187.15c1.15.79,4.94,5.97,5.99,7.42,6.79,9.42,13.51,19.99,18.74,30.32-2.4-.87-4.68-2.11-7.03-3.12l-25.25-10.93c3.99-2.92,7.68-19.25,6.77-23.95.37.77.67.18.78.26Z"/>
      <path class="cls-56" d="M186.89,188.2c-.34.16-.7.35-1.04.52-.47-.09-1.14-1.23-1.43-1.3-1.85-.49-7.07-.13-9.63-.52-4.32-.66-8.6-2.05-12.88-2.86,3.83-2.9,15.26-8.99,9.37-14.45,2.36-1.15,4.75-2.19,7.03-3.51-.27,8.39,4.87,15.1,8.59,22.13Z"/>
      <path class="cls-62" d="M193.14,186.89c.91,4.7-2.78,21.03-6.77,23.95-.2.15-.48.48-.78.52-3.23-.39-6.64-.37-9.89-.26-.11-.78.7-.51,1.17-.52,1.57-.05,7.57.35,8.46-.39,1.63-1.36,6.57-14,6.77-16.4.34-4.09-.74-4.26-4.56-3.51-2.92.57-12.08,4.79-15.23,6.25,4.24-2.98,8.88-5.53,13.54-7.81.34-.17.7-.36,1.04-.52,1.83-.88,5.74-3.9,6.25-1.3Z"/>
      <path class="cls-62" d="M131.71,194.96c8.72,7.1,14.58,10.03,24.21,15.62-5.84-1.81-11.15-5.01-16.66-7.55-1.71-.79-4.58-2.56-6.25-2.86-2.08-.39-5.31.12-7.55.26.76-.31.24-.95-.13-1.04-1.78-.42-10.4.58-13.28.52-5.98-.12-23.25-.51-28.24-1.82-.11-.03-1.97-.95-2.08-1.04-.16-.12-.34-.79-.52-1.04.04-.03.45-.63.52-.78,11.05-.43,22.13-1.21,33.19-1.3,3.14-.03,13.33-.6,15.62,0,.08.02.94.86,1.17,1.04Z"/>
      <path class="cls-14" d="M125.46,200.43c-13.69.84-27.51,2.22-41.13,3.38h-.52v-5.73c4.99,1.31,22.26,1.7,28.24,1.82,2.87.06,11.49-.94,13.28-.52.37.09.89.73.13,1.04Z"/>
      <path class="cls-7" d="M84.86,229.32c-.77.74-7.81.71-8.07.39,2.53-3.66,5.24-7.18,7.81-10.8.59-.84,1.13-2.27,2.08-2.73-.64,4.37-1.05,8.81-1.82,13.15Z"/>
      <path class="cls-14" d="M133.53,204.59c.18.99,1.53,6.75,1.3,7.16-1.61.55-3.31.74-4.95,1.17-3.12.82-4.83,1.37-7.81,2.6,3.35-3.03,8.23-2.59,12.23-4.29-.51-3.15-1.73-6.62-1.3-9.76.32,1.01.33,2.1.52,3.12Z"/>
      <path class="cls-14" d="M98.65,227.5c-1.36.17-3.02-.13-4.43,0,.07-.2-.46-.41-.13-.52,1.2.29,3.77-.63,4.56.52Z"/>
      <path class="cls-5" d="M86.42,215.79l1.04-2.34s.57-.2.52.39c-.01.14-1.35,1.65-1.56,1.95Z"/>
      <g>
        <path class="cls-28" d="M26.55,170.23c2.36,6.42,6.57,13.45,4.82,20.3,4.32-2.01,1.18-1.27,1.17-3.51,1.59-6.11,2.93-12.29,4.69-18.35.23-.7.34-1.23.52-1.82l3.12-8.85c.51,1.4.47,4.89.78,6.64.2,1.1,1.66,4.84,1.56,5.47-.07.45-3.02,3.97-2.86,4.16h2.86c.13,3.45-1.59,3.75-3.64,5.99.16.41,3.25-1.52,3.64-.52v4.56c-3.2,2.82-11.73,11.78-14.71,13.28-2.6,1.31-8.35,2.53-11.45,3.64-2.75.99-5.54,2.16-8.2,3.38-3,.76-5.91,1.66-8.85,2.6v-13.8c1.96-2.28,6.43-7.42,0-5.21v-10.15h.52c.06.65,5.18,7.07,5.99,8.33,3.15,4.92,5.87,10.15,8.98,15.1,2.36-1.05,3.11-.52,4.56-2.6.09-.13.41.45.52.13.9-2.57-1.99-3.09,3.38-3.12l-5.08-1.17c-.73.22.48,2.49.65,2.86l-2.08-2.86c.49-.45,2.29-1.81,2.34-1.95.58-1.59-3.47-5.29,1.82-5.47.05-.35-2.83-2.28-3.12-2.86-.52-1.04-1.99-7.65.52-7.03-1.7-.75-3.42-4.46-2.6-5.99.1-.19,2.76-.64,2.6-1.3-2.75,0-4.16-5.29-3.64-7.03.13-.45,2.97-1.73,2.86-2.34-.06-.38-2.96-1.63-3.12-2.08-.08-.22-.34-4.47-.26-4.69.21-.56,2.35-.91,2.34-1.56,0-.37-2.94-2.11-3.12-3.12-.22-1.18.94-4.99.78-6.51l8.07,14.84-.52,4.16,1.3-.78c.19,1.54.5,2.71-.26,4.16.88.01.66-1.44,1.3-.52.7,1.83,1.15,3.77,1.82,5.6Z"/>
        <g>
          <path class="cls-63" d="M0,193.4v-5.21c6.43-2.22,1.96,2.93,0,5.21Z"/>
          <path class="cls-63" d="M40.87,158l-3.12,8.85c.91-2.92,1.55-6.02,2.34-8.98l.65-.39c.23.06.08.39.13.52Z"/>
          <path class="cls-63" d="M37.22,168.67c.12-.42-.04-1.48.52-1.82-.18.59-.29,1.12-.52,1.82Z"/>
          <path class="cls-6" d="M24.34,176.74l2.86,14.32c-.17-.12-.89-.85-.91-.91-.35-.86-2.02-8.62-2.08-9.11-.15-1.19-.25-3.14.13-4.29Z"/>
          <path class="cls-10" d="M20.04,198.87c0-.49-.33-.88-.52-1.3-.17-.37-1.38-2.65-.65-2.86l5.08,1.17c-5.37.03-2.48.55-3.38,3.12-.11.32-.43-.26-.52-.13Z"/>
        </g>
      </g>
      <path class="cls-20" d="M46.85,199.13c-1.54,1.28-2.78,2.87-4.43,4.03,2.04,0,2.9,1.42,4.16,2.47-1.17-.75-3.77-3.03-4.95-1.43-2.02,2.75-2.3,13.53-4.29,17.05l4.03-17.05c-.22-.66-3.79-.33-4.29-.13-2.47.96-13.06,15.32-16.66,18.22-2.83,2.28-7.14,4.07-10.28,5.99,8.77-6.27,19.58-14.13,25.64-23.43.55-.85.33-.48-.39-.52.06-.01.03-.59.91-.78,1.65-.36,3.92.2,5.6-.52,1.02-.44,2.99-3.25,4.16-3.9.28-.03.61-.62.78,0Z"/>
      <path class="cls-20" d="M61.43,217.09c-.17.17-.36.35-.52.52-5.41-3.22-9.56-7.99-14.32-11.97,5.25,3.34,8.99,8.95,14.84,11.45Z"/>
      <path class="cls-32" d="M280.34,217.35l-16.27-5.99c-5.68-5.63-11.34-11.02-18.09-15.36.02.01.03-.44.39-.26,14.23,7.22,27.7,15.61,41.13,24.21l-7.16-2.6Z"/>
      <path class="cls-20" d="M211.62,221.77c-8.32-3.59-16.9-6.59-25.12-10.41l6.38,17.7-7.29-17.7c.3-.04.58-.38.78-.52l25.25,10.93Z"/>
      <path class="cls-35" d="M69.24,202.51c-.59,1.3-3.59,7.17-3.64,7.94-.02.27.49,1.24.78,1.43-1.08,1.17-2.16,2.37-3.12,3.64-.08-.03-.19.03-.26,0-6.85-3.05-12.38-10.06-15.62-16.66,8.82-7.24,18.17-13.79,26.03-22.13l3.51-2.6c.07,3,1.02,4.56,2.99,6.64l-10.67,21.73Z"/>
      <path class="cls-35" d="M62.99,215.53c-.32.7-1.05,1.05-1.56,1.56-5.84-2.5-9.58-8.11-14.84-11.45-1.26-1.06-2.12-2.48-4.16-2.47,1.65-1.16,2.88-2.76,4.43-4.03.07-.06.45-.2.52-.26,3.23,6.6,8.77,13.61,15.62,16.66Z"/>
      <path class="cls-14" d="M81.73,197.05c-5.26,6.79-11.58,12.63-17.57,18.74l-.78.26c-.21-.02-.1-.51-.13-.52.96-1.28,2.04-2.47,3.12-3.64,3.33-3.62,11.46-13.56,14.84-15.88.18.25.36.92.52,1.04Z"/>
      <path class="cls-14" d="M175.7,211.1c-1.36.05-4.28-.27-5.34,0-.78.2-4.74,4.06-5.86,4.69-.1-.05-.49-.11-.78-.26l4.95-4.56c-2.74-1.26-5.04-3.23-7.55-4.82-1.75-1.1-.3.02-1.56.52.1-.47.14-1.92.26-2.21,1.19-2.88,9.6-6.6,12.49-7.94,3.15-1.46,12.31-5.68,15.23-6.25,3.81-.75,4.89-.57,4.56,3.51-.2,2.4-5.13,15.04-6.77,16.4-.89.74-6.89.35-8.46.39-.47.01-1.29-.26-1.17.52Z"/>
      <path class="cls-7" d="M155.92,210.58c.66.38,1.27.96,2.08,1.04-2.51,1.97-5.08-.39-8.07.52-3.02-1.94-3.79-2.69-6.38-4.95-1.5-1.31-3.85-2.26-4.29-4.16,5.51,2.54,10.81,5.74,16.66,7.55Z"/>
      <path class="cls-12" d="M161.91,184.03c4.29.81,8.57,2.2,12.88,2.86,2.57.39,7.78.03,9.63.52.29.08.96,1.21,1.43,1.3-4.66,2.28-9.29,4.82-13.54,7.81-2.89,1.34-11.3,5.06-12.49,7.94-.12.29-.16,1.74-.26,2.21-.25,1.19-.53,2.96-.52,4.16-.52.1-.71.52-1.04.78-.81-.08-1.42-.66-2.08-1.04-9.62-5.59-15.49-8.52-24.21-15.62.93-2.95-.69-5.9.52-8.85,1.05.16,1.45.48,2.34.78,4.75,5.86,11.48,11.42,16.27,17.44.72-1.71-1.74-4.01-1.95-5.6-.63-4.64,2.74-4.94,5.34-7.42,1.75-1.67,4.21-5.06,5.6-6.25.71-.61,1.69-.74,2.08-1.04Z"/>
      <path class="cls-5" d="M161.12,206.16c2.51,1.58,4.81,3.56,7.55,4.82l-4.95,4.56c-1.41-.75-2.09-.82-3.38-2.08l.78-7.29Z"/>
      <path class="cls-14" d="M161.12,206.16l-.78,7.29c-.27-.26-1.42-.66-1.56-1.17-.02-.07.26-.79.26-1.43,0-1.2.27-2.97.52-4.16,1.26-.5-.19-1.62,1.56-.52Z"/>
      <path class="cls-7" d="M137.18,180.13v.52c0,.57-.09.68,0,1.3.03.24-.39.35-.26.65.9,1.01,3.7-.95,4.95-.91-.16.44-.84,2.28-.39,2.6l4.82-1.17-.13,3.25,5.21-1.82.52,2.34c1.37-.42,2.62-1.02,4.03-1.3,1.23-.25,2.68.05,3.9-.52-1.38,1.19-3.85,4.57-5.6,6.25-2.59,2.48-5.97,2.78-5.34,7.42.22,1.58,2.67,3.88,1.95,5.6-4.79-6.02-11.52-11.58-16.27-17.44.29.1,1.12.71,1.04.13l-1.82-6.25c.28-.66,2.61-.27,3.38-.65Z"/>
      <path class="cls-35" d="M81.47,162.69c3.72.25,7.8,1.36,11.58,1.82,4.51.55,9.12.85,13.67,1.04-.27.94-.23,1.43-1.17,2.08-.66.46-10.78,2.61-11.71,2.6-2.54-.01-3.44-1.23-7.16-.26-2.92.76-5.72,3.66-4.82,6.77,1.86-.28,2.75-1.62,4.56-1.3.51.09.86.28,1.3.52-.28.32-1.94,3.57-1.43,3.9.68-.22,4.87-2.09,5.08-2.34l.78.26c-1.03,1.1-2.06,3.83-2.08,5.34.4.53,4.52-1.03,5.21-1.43,4.8,1.14,8.67-3.04,12.62-4.95,2.87-1.38,5.88-2.51,8.72-3.9l6.12,1.04c3.48.8,10.13-1.46,11.32,2.6-.73,1.28-.41,2.42-.52,3.38-.14,1.23-.57,4.95-.26,5.86.03.08.95.74,1.3,1.17-.89-.3-1.29-.62-2.34-.78-5.79-.91-9.93,3.63-14.97,4.69-4.72.98-23.26.29-27.85-1.04-3.31-.96-4.62-5.2-6.64-7.03l.65-2.86c-.22-.14-2.71.58-2.99.78-5.63-4.43-1.16-11.9-2.34-18.09.27-.38,2.74.09,3.38.13Z"/>
      <path class="cls-62" d="M97.35,158.52c.2.06.33.18.52.26,2.76,1.17,5.22,4.92,8.98,4.69l.39.65c-.27.41-.39.97-.52,1.43-4.54-.19-9.15-.49-13.67-1.04-3.78-.46-7.86-1.58-11.58-1.82,1.9-1.6,5.17-.34,7.68-.52,1.74-.12,3.69-.85,5.47-1.04,1.64-.17,4.06.51,5.21-.52-3.03-.32-8.65,1.28-9.37-2.86.39-.21,6.13.54,6.9.78Z"/>
      <path class="cls-14" d="M77.57,162.17c.13,2,.28,8.94-.26,10.54-.28.83-3.05,3.13-3.9,4.03-7.86,8.33-17.21,14.88-26.03,22.13-.07.06-.45.2-.52.26-.17-.62-.5-.03-.78,0-3.04.31-6.21-.09-9.24.26l-6.38-2.99c4.65-2.24,9.75-4.91,13.93-7.94,9.55-6.93,18.21-17.23,27.85-23.95,1.6-1.12,3.29-2.63,5.34-2.34Z"/>
      <path class="cls-7" d="M82.77,182.73c-.38-.35-1.01-.93-1.56-.91l.52,13.41c-.07.16-.48.75-.52.78-3.37,2.32-11.51,12.26-14.84,15.88-.29-.19-.8-1.16-.78-1.43.05-.77,3.06-6.64,3.64-7.94,1.32-2.91,9.8-20.84,11.19-21.87.28-.2,2.78-.92,2.99-.78l-.65,2.86Z"/>
      <path class="cls-43" d="M246.76,183.51c-.93-.82-1.54-2.78-2.08-3.9,3.26.09,6.68,2.93,6.12,6.51-1.25-.09-1.2-1.74-1.3-1.82-.61-.48-1.54.27-2.73-.78Z"/>
      <path class="cls-43" d="M247.54,186.37c-1.01.15-1.21,3.2-1.69,3.38l-2.47-2.47,1.82-4.29c1.02,1.37,1.46,1.71,2.34,3.38Z"/>
      <g>
        <path class="cls-49" d="M278.78,187.67c-.59,2.21-5.04,5.26-5.73,6.9-.11.27.39,2.1.52,2.47.24.72.27,1.81.78.26h.26c-.96,1.66-1.21,1.01-1.3,1.17-.33.61.96,3.04.78,3.9,1.12.31.14-1.54.26-2.08.04-.17,1.5-1.57.78-3.12l.65,3.25,1.17-4.03c-.47,2.76-.59,5.76.91,8.2l.91-1.43c-.89,1.53.51,1.95.52,2.08.06.85-.54,2.89-.52,3.9,1.67-.2.47-2.45.78-3.64l.91,3.25.78-3.38c-.06,1.99-.23,3.23.52,4.69l1.3-4.43c.2,1.9.73,9.87,1.3,3.9l.13,3.64c-6.12-4.32-14.45-8.74-21.08-12.49.35-1.47,1.28-.76,1.82-1.17.24-.18-1.82-6.74.52-4.56-.16.08-.65-.14-.78.13-.08.16.9,2.83.65,3.51,4.17-3.42,8.38-8.46,13.15-10.93Z"/>
        <path class="cls-28" d="M269.28,199.13c.8.32-.65,4.09-1.04,4.16l-1.43-1.43,2.47-2.73Z"/>
        <path class="cls-47" d="M272.14,200.43c1.4,1.38-.45,1.04-.26,2.86-.85-.44-.23-2.87.26-2.86Z"/>
        <path class="cls-63" d="M270.58,202.25l.52,2.6c-.45-.82-.95-1.65-.52-2.6Z"/>
        <path class="cls-10" d="M274.35,197.31c-.51,1.55-.54.46-.78-.26l.78.26Z"/>
      </g>
      <path class="cls-7" d="M82.77,182.73c2.02,1.83,3.33,6.07,6.64,7.03,4.59,1.34,23.13,2.03,27.85,1.04,5.04-1.05,9.18-5.59,14.97-4.69-1.21,2.95.41,5.91-.52,8.85-.23-.19-1.1-1.02-1.17-1.04-2.29-.6-12.48-.03-15.62,0-11.06.09-22.14.87-33.19,1.3l-.52-13.41c.55-.02,1.18.56,1.56.91Z"/>
      <g>
        <path class="cls-28" d="M245.2,182.99l-1.82,4.29,2.47,2.47c.49-.19.68-3.23,1.69-3.38,1.3,2.47,2.22,2.83,1.04,6.12l1.69-1.43,1.95,4.43c-3.38-1.04-7.87-1.7-10.93-2.86-.8-.3-1.41-.98-2.08-1.3l-.65-1.04,2.21-.39c-.62-.55-1.57-.24-2.21-.65-1.77-1.13-1-3.12-2.73-4.29l3.64-1.3c-4.72.53-7.49-2.15-2.08-4.43-.6.05-3.2-.19-3.38-.52-.65-1.2-.21-8.49-1.3-10.41,1.66,1.33,9.37,7.79,9.63,9.37.06.38-.64.94-.52,1.56.1.5,2.73,2.35,3.12,2.86.03.04,0,.56.26.91Z"/>
        <path class="cls-49" d="M236.74,177c.47.11-.43,1.21-.78,1.04v-.52l.78-.52Z"/>
      </g>
      <g>
        <path class="cls-44" d="M151.75,80.43c-.3-2.24-.21-4.02,0-6.25,3.66,3.05,5.7,3.97,0,6.25Z"/>
        <path class="cls-20" d="M104.38,68.98c.36,1.8,1.34,3.73-1.3,2.6l.52-2.6c.42-.03.31-.05.78,0Z"/>
        <g>
          <path class="cls-44" d="M185.33,120.78c-4.45-2.75-5.66-6.06-8.85-9.37l10.93-1.17c.71,3.64.23,7.6-2.08,10.54Z"/>
          <path class="cls-44" d="M199.65,128.33c-.05.13.01.3-.26.26-.57-.14-1.26-.34-1.82-.52-2.95-1.81-6.39-2.87-8.59-5.73,3.06-.13,8.16-3.28,11.58-3.38.8.32-.51,8.24-.91,9.37Z"/>
          <path class="cls-25" d="M243.12,89.02c.08-.47-.06-1.07,0-1.56.35-2.79.08-1.97,0-4.56-.14-4.39,2.69-4,5.47-6.38-2.6,3.89-4.04,8.08-5.47,12.49Z"/>
          <path class="cls-33" d="M169.19,100.74c-.22.06-2.07.76-2.08.91l2.21,2.21c-1.51.12-1.62-2.43-3.25-1.56-.65-.77-1.2-1.58-1.82-2.34,1.66.76,3.11.91,4.95.78Z"/>
          <g>
            <path class="cls-52" d="M267.07,66.12l-3.64,2.6c-1.56.99-2.79,1.89-4.16,3.12-12.87,11.51-7.42,31.14-11.71,46.33-1.42,5.03-5.33,12.7-8.59,16.79-10.96,13.76-34.43,19.18-51.28,18.87,2.58-10.44-.37-16.7-3.9-25.9-.16-.42-.59-.98.26-.91.55.6,1.24,1.24,1.82,1.82-.84-.02-.58.41-.26.91,16.97,26.19,48.91,13.59,58.57-11.71,4.28-11.2,3.09-22.22,5.99-33.06.14-.51,1.22-1.32,1.3-1.56.31-.93.41-3.06.52-3.38.36-1.04,1.9-2.25,1.56-3.51,3.76-5.5,7.55-7.86,13.54-10.41Z"/>
            <path class="cls-41" d="M242.34,133.53c-6.1,11.42-18.64,20.18-30.72,24.21-7.71,2.57-15.39,3.72-23.43,4.69-.75-.26-4.25-.18-4.95,0,1.64-2.46,3.71-5.69,4.43-8.59,16.85.31,40.32-5.11,51.28-18.87,3.26-4.09,7.17-11.76,8.59-16.79-.25,2.83-1.33,6.33-2.34,8.98-.69,1.8-1.96,4.69-2.86,6.38Z"/>
            <path class="cls-18" d="M158.26,92.93c.3.18.68.21.78.26.37.2,3.06,3.96,3.64,4.69.54.67,1.01,1.41,1.56,2.08.62.76,1.17,1.57,1.82,2.34,2.48,2.94,4.03,4.02,6.51,6.51,1.91,1.93,2.39,3.17,3.9,4.95,1.87,2.2,2.79,3.86,5.21,5.73,3.79,2.92,11.35,7.16,15.88,8.59.56.18,1.26.38,1.82.52,8.1,2.03,14.05,1.81,21.6-1.82,1.35-.65,5.23-2.55,5.99-3.64,2.24-1.02,3.7-3.35,5.21-5.21,1.79-2.2,2.83-3.4,4.16-5.99.82-1.6,1.51-2.96,2.08-4.69.91-2.74,1.73-6.21,1.82-9.11.51-.27.47-.05.78-.78.53-1.24,1.81-6.78,2.08-8.33,1.42-4.42,2.86-8.6,5.47-12.49.33-.49.49-.65.78-1.04l4.03-3.9,1.43-.13c-14.28,12.12-9.7,34.67-20.82,48.16-11.61,14.06-27.85,16.51-44.12,8.72-7.02-3.36-10.32-8.95-16.01-13.8-10.16-11.26-26.92-23.77-24.99-40.48.22-1.88,1.07-7.09,2.86-7.81-1.97,6.24-3.47,12.12-1.04,18.48.79,2.07,4.25,7.12,6.12,8.2.21.12,1.22-.12,1.43,0Z"/>
            <path class="cls-44" d="M213.7,128.59c-5.07,1.06-5.3.58-10.15,0l8.2-7.03c.79.1,2.31,6.05,1.95,7.03Z"/>
            <path class="cls-44" d="M227.24,121.82c.16.47-.04.98-.26,1.3-.76,1.1-4.64,3-5.99,3.64l-2.6.26c1.02-1.23,2.88-8.72,4.56-8.85,1.05.72,3.88,2.48,4.29,3.64Z"/>
            <path class="cls-44" d="M236.35,111.93c-1.34,2.59-2.38,3.79-4.16,5.99h-1.3c.26-1.44-.41-6.6.26-7.42s5.38-.16,5.21,1.43Z"/>
            <path class="cls-44" d="M243.12,87.46c-.06.49.08,1.1,0,1.56-.28,1.55-1.55,7.09-2.08,8.33-.83-4.96-7.35-9.84,2.08-9.89Z"/>
            <path class="cls-1" d="M176.48,111.41c3.19,3.31,4.4,6.62,8.85,9.37,1.52.94,1.57,1.65,3.64,1.56,2.2,2.85,5.64,3.91,8.59,5.73-4.53-1.43-12.09-5.67-15.88-8.59l-5.21-5.73c-1.51-1.78-1.99-3.02-3.9-4.95-.05-.3.25-.25.26-.26,1.16,1.14,2.48,1.65,3.64,2.86Z"/>
            <path class="cls-44" d="M238.43,107.24c-.36-.9-3.18-6.52-3.12-6.9.2-1.28,4.11-1.78,4.95-2.21-.09,2.9-.92,6.37-1.82,9.11Z"/>
            <path class="cls-39" d="M220.99,126.77c-7.55,3.63-13.51,3.85-21.6,1.82.27.04.21-.13.26-.26,1.18.63,3.01.15,3.9.26,4.85.58,5.08,1.06,10.15,0,1.7-.35,3.55-.19,4.69-1.56l2.6-.26Z"/>
            <path class="cls-25" d="M232.19,117.91c-1.51,1.86-2.97,4.19-5.21,5.21.22-.32.42-.84.26-1.3,1.52-.79,3.33-2.17,3.64-3.9h1.3Z"/>
            <path class="cls-52" d="M161.12,131.97c-1.49.25-4.81,1.46-5.99,2.34l-7.55-10.93c1.08-1.28,1.89-2.84,3.25-3.9,2.04-1.6,5.29-2.13,6.9-4.03,2.05-2.44,1.44-5.55,2.86-7.94.74,3.24,1.55,5.47,1.3,8.98-.36,5.25-5.49,11.48-.78,15.49Z"/>
            <g>
              <path class="cls-11" d="M153.84,64.29c-.74,2.49-1.16,4.97-1.56,7.55-.12.77-.42,1.27-.52,2.34-.21,2.22-.3,4.01,0,6.25.15,1.11.35,1.17.52,1.82.7,2.7,1.8,4.9,3.38,7.16.17.2.53.16.78.13-.53,1.05,1.39,2.25,1.82,3.12v.26c-.21-.12-1.22.12-1.43,0-1.87-1.08-5.32-6.13-6.12-8.2-2.43-6.36-.93-12.24,1.04-18.48-1.8.72-2.65,5.93-2.86,7.81-1.93,16.71,14.83,29.22,24.99,40.48,3.55,3.93,6.68,8.76,10.15,12.49-.85-.07-.42.49-.26.91,3.53,9.2,6.49,15.46,3.9,25.9-.72,2.9-2.78,6.13-4.43,8.59-.79.21-3.77,2.96-4.95,3.64-2.28,1.32-4.66,2.36-7.03,3.51,5.89,5.46-5.54,11.55-9.37,14.45-.39.3-1.38.43-2.08,1.04-1.22.57-2.68.28-3.9.52.92-.99,1.21-1.75,1.04-3.12,1.83.7,2.38-.01,3.9-.52,2.73-.92,8.44-3.61,9.89-6.12,3.21-5.56-5.12-4.5-4.16-8.59.27-1.16,8.43-5.42,10.28-7.16,6.4-6.03,6.95-15.42,1.69-22.39-4.38-5.81-10.4-6.89-17.44-5.73-4.71-4,.42-10.23.78-15.49.24-3.51-.56-5.74-1.3-8.98-.89-3.91-1-6.42-5.6-8.33-.19-.08-2.19-.8-1.69.26-2.2-1.81-2.91-1.54-4.69.26-4.16,1.64-3.77,7.68-2.6,11.19-.61,1.8-1.81,2.47-2.34,3.64-7.03-13.06-5.1-30.56.78-43.73.19-.43.58-.9.78-1.3,1.09-.49,4.9-2.52,5.47-3.25.51-.66,1.53-6.09,2.6-3.9l-1.04,2.86,1.56-.91Z"/>
              <g>
                <path class="cls-46" d="M172.45,117.91c2.34-.51,1.43,2.21,1.56,2.34.31.31,3.63,1.44,4.03,2.73-.56,1.12-2.21.93-2.73,1.17-.33.15-.68,1.25-1.04,1.3-1.36.18-.92-3.1-1.56-3.38-.15-.07-3.09,1.19-2.73-.39.23-1,2.02.08,2.08,0,.17-.22-.27-.5-.26-.52,1.36-2.48-.38-1.15-.26-2.34,0-.06.85-.9.91-.91Z"/>
                <path class="cls-50" d="M148.63,99.69c-3.79,3.85-1.3,7.38-2.6,11.19-1.17-3.51-1.55-9.55,2.6-11.19Z"/>
                <path class="cls-18" d="M167.5,110.11c.34.02,1.24,1.39,1.17,1.95-.14,1.08-1.98,1.27-2.73,1.95l-1.17-1.69c.68-1.25,1.51-.1,1.69-.13.42-.06-.16-2.16,1.04-2.08Z"/>
                <path class="cls-18" d="M168.02,122.08c2.21-.64,3.27,2.66,1.3,2.86-.92.1-3.43-2.24-1.3-2.86Z"/>
                <path class="cls-46" d="M164.38,107.24c1.04,0,1.22,2.56-.78,2.86-3.25.5.54-2.86.78-2.86Z"/>
                <path class="cls-18" d="M164.38,114.27c2.08-.63,1.86,2,.78,2.08-.41.03-2.01-1.71-.78-2.08Z"/>
              </g>
            </g>
            <path class="cls-11" d="M185.85,128.85c3.37,3.34,8.88,7.27,13.01,9.63.72.41,1.39.55,1.82.78,2.26,1.2,5.41,3.36,7.68,3.38.99,0,3.69-.54,4.82-.78s4.17-.63,4.69-1.56c1.95,0,3.67-1.46,5.34-2.08.09-.03,1.19.46,1.82.26,4.51-1.4,13.99-12.95,16.27-17.31,7.44-14.25,3.52-31.88,12.23-44.64.34,1.27-1.2,2.47-1.56,3.51-.11.32-.21,2.46-.52,3.38-.08.24-1.16,1.05-1.3,1.56-2.9,10.84-1.71,21.85-5.99,33.06-9.66,25.3-41.6,37.9-58.57,11.71-.32-.5-.58-.93.26-.91Z"/>
            <path class="cls-26" d="M206.42,136.92c-.46.52-2.4,1.76-2.99,1.82-1.55.15-1.81-1.42-2.73.52-.43-.23-1.11-.37-1.82-.78.02-1.82,2.52-1.03,2.6-1.17.09-.17-.91-2.36-.52-3.38.26-.13.52-.26.78-.39l4.69,3.38Z"/>
            <path class="cls-18" d="M217.87,140.3c-.52.94-3.56,1.32-4.69,1.56l-1.3-1.17c-.11-1.84,5.62-3.48,6.25-2.6,0,.48-.06,1.86-.26,2.21Z"/>
            <path class="cls-18" d="M206.42,136.92l-4.69-3.38c1.8-.89,4.55.48,5.47,2.21.2.73-.47.82-.78,1.17Z"/>
            <g>
              <path class="cls-11" d="M268.37,65.33c0,.09.01.18,0,.26-.68-.19-.83.32-1.3.52-5.99,2.55-9.78,4.91-13.54,10.41-8.72,12.76-4.8,30.39-12.23,44.64-2.27,4.36-11.76,15.91-16.27,17.31-.64.2-1.74-.29-1.82-.26-1.67.62-3.39,2.08-5.34,2.08.2-.35.26-1.73.26-2.21-.62-.87-6.36.77-6.25,2.6l1.3,1.17c-1.12.24-3.82.79-4.82.78-2.27-.02-5.42-2.19-7.68-3.38.93-1.94,1.19-.37,2.73-.52.6-.06,2.53-1.3,2.99-1.82.31-.35.98-.44.78-1.17-.91-1.73-3.66-3.1-5.47-2.21-.26.13-.52.26-.78.39-.39,1.03.61,3.22.52,3.38-.08.14-2.58-.65-2.6,1.17-4.14-2.36-9.65-6.29-13.01-9.63-.59-.58-1.27-1.23-1.82-1.82-3.47-3.74-6.6-8.56-10.15-12.49,5.69,4.85,8.99,10.44,16.01,13.8,16.27,7.79,32.51,5.34,44.12-8.72,11.13-13.48,6.55-36.04,20.82-48.16l-1.43.13-4.03,3.9c2.06-2.76,6.8-7.15,9.89-8.59,2.37-1.1,6.57-2.2,9.11-1.56Z"/>
              <g>
                <path class="cls-18" d="M209.41,137.18c3.67-1.12,2.34,2.84,1.04,3.12-.37.08-3.04-2.51-1.04-3.12Z"/>
                <path class="cls-26" d="M220.08,131.71c2.01-.79,2.98,2.22,1.3,2.6-1.47.33-2.55-2.11-1.3-2.6Z"/>
                <path class="cls-26" d="M228.15,128.85c1.43-.25,1.86,2.32.52,2.6-2.34.49-1.66-2.4-.52-2.6Z"/>
                <path class="cls-26" d="M233.1,126.77c3.88-1.71.48,4.15-.39,1.69-.12-.34-.07-1.49.39-1.69Z"/>
                <path class="cls-18" d="M224.25,135.09c.51-.19,2.69.12,2.47.91-.39,1.45-5.28.15-2.47-.91Z"/>
                <path class="cls-18" d="M230.75,126.24c.95-.15,1.8,2.32.52,2.6-1.51.34-1.66-2.43-.52-2.6Z"/>
              </g>
            </g>
            <path class="cls-25" d="M181.69,119.48c-2.42-1.86-3.33-3.53-5.21-5.73l5.21,5.73Z"/>
            <g>
              <path class="cls-33" d="M265.24,57.01c-.59,1-2.4,1.18-1.82,2.73.11.28,5.5,1.67,3.25,3.25-.08.05-1.65-.58-1.82-.52-.12.05-1.37,1.6-1.95,1.69,1.16,1.53,2,.11,2.21.13.74.06,2.24.97,3.38.52l-.13.52c-2.54-.64-6.74.46-9.11,1.56.91-2.74,3.36-5.06,6.25-5.6-.98-1.34-9.01-.08-9.11-.78,2.63-3.61,4.63-4.34,8.85-3.51Z"/>
              <path class="cls-44" d="M269.41,67.68c-.19.17-.57,1.2-.78,1.56-.18.32-.67.67-.78,1.04-2.49,1.76-5.71,1.69-8.59,1.56,1.38-1.23,2.61-2.13,4.16-3.12.15-.1,1.77-.55,2.6-1.04l.13,1.3c1.44-.93,1.85-2.61,3.25-1.3Z"/>
              <path class="cls-44" d="M272.53,71.58c-1.12,2.24-3.32,3.78-3.25,6.77-1.28-2.13-1.85-4.03-1.69-6.51.85.17,1-.21,1.56-.78,1.39.52,1.86-1.74,3.51-1.3,1.14.3.28,1-.13,1.82Z"/>
              <path class="cls-19" d="M269.67,70.28c-.14.14-.38.64-.52.78-.56.58-.71.95-1.56.78,0-.08.24-1.49.26-1.56.11-.37.6-.72.78-1.04l1.04,1.04Z"/>
              <path class="cls-9" d="M268.37,65.6c-.13,1.03-1.58,1.63-2.34,2.08-.84.49-2.45.94-2.6,1.04l3.64-2.6c.47-.2.62-.71,1.3-.52Z"/>
              <g>
                <path class="cls-33" d="M272.53,71.58c.41-.82,1.27-1.52.13-1.82-1.65-.44-2.12,1.83-3.51,1.3.14-.14.38-.64.52-.78.84-.87,1.57-1.79,2.6-2.47-1.15-.31-1.98-.91-2.86-.13-1.4-1.31-1.82.38-3.25,1.3l-.13-1.3c.76-.45,2.21-1.05,2.34-2.08.01-.09,0-.17,0-.26l.13-.52c-1.15.45-2.65-.47-3.38-.52-.21-.02-1.05,1.4-2.21-.13.59-.1,1.83-1.65,1.95-1.69.17-.06,1.74.58,1.82.52,2.25-1.59-3.15-2.97-3.25-3.25-.58-1.55,1.23-1.73,1.82-2.73,6.1,1.2,12.31,4.68,19,4.56l-11.71,10.02Z"/>
                <path class="cls-1" d="M271.36,61.17l8.46,1.17c-1.74,1.05-3.79,2.25-5.86,2.47l1.95-1.69c-.11-.46-4.67-.78-4.56-1.95Z"/>
                <path class="cls-25" d="M269.67,70.28l-1.04-1.04c.21-.37.59-1.39.78-1.56.88-.78,1.72-.18,2.86.13-1.03.68-1.76,1.6-2.6,2.47Z"/>
              </g>
            </g>
            <g>
              <path class="cls-46" d="M153.32,99.43c1.15.95,3.87,4.97,3.9,6.51.08,4.17-7.57,9.83-10.15,13.15-.61.79-2.68,3.07-1.56,3.77-.5.75-1.87,2.37-.52,2.6-.3.55-.48,2.38-.78,3.38-.19.64-.65,1.47-.78,2.08-.24,1.14-.46,1.96,0,3.12-.9.39-2.22-4.41-2.86-4.95,1.54-3-2.62.62-2.86,1.17-.33.75-.26,1.92-.26,2.73,0,.92.77,1.41.39,2.34-2.58-1.38-3.6-3.37-2.99-6.25.01-.07.46-1.17.52-1.3.5-1.08,1.43-1.58,1.95-2.6l-6.9.65c1.6-2.03,3.81-3.02,5.99-4.29.52.14,4.58.36,4.82.26.61-.25.45-.86.65-1.3.03-.07-.03-.19,0-.26.08-.19.19-.32.26-.52.56-1.47.92-3.79,1.56-5.21.53-1.17,1.73-1.85,2.34-3.64,1.3-3.82-1.19-7.35,2.6-11.19,1.78-1.8,2.48-2.07,4.69-.26Z"/>
              <path class="cls-11" d="M160.6,107.5c-1.42,2.39-.82,5.5-2.86,7.94-1.6,1.91-4.86,2.44-6.9,4.03-1.36,1.07-2.17,2.62-3.25,3.9-.49.58-2.52,1.93-2.6,2.08-1.35-.23.02-1.86.52-2.6,3.68-5.53,16.34-8.65,11.71-16.92-.03-1.53-2.75-5.56-3.9-6.51-.49-1.06,1.51-.34,1.69-.26,4.6,1.91,4.7,4.42,5.6,8.33Z"/>
              <path class="cls-11" d="M137.7,118.7c1.19.36,2.6,2.56,4.16,1.82-.2.44-.04,1.05-.65,1.3-.23.1-4.29-.12-4.82-.26-.09-.03-1.38-.9-1.56-1.04-.54-.42-1.18-.97-1.56-1.56,1.7-.39,2.47-.86,4.43-.26Z"/>
              <path class="cls-52" d="M140.56,129.11c-.56,1.09-2.1,1.78-2.6,2.47-.63.87.94,2.15-.52,1.43,0-.82-.07-1.99.26-2.73.24-.56,4.41-4.17,2.86-1.17Z"/>
              <path class="cls-11" d="M145.51,122.86c-1.11-.7.95-2.99,1.56-3.77,2.58-3.32,10.23-8.97,10.15-13.15,4.63,8.27-8.03,11.39-11.71,16.92Z"/>
            </g>
            <g>
              <path class="cls-55" d="M147.07,179.61l-.39,2.6c1.84-.59,1.93-2.44,4.29-1.82,1.61,1.45,0,3.5.13,3.64.67.77,2.25-1.79,2.99-2.6,1.71-1.05,2.26.81,2.86,1.04.17,1.37-.12,2.14-1.04,3.12-1.42.28-2.67.88-4.03,1.3l-.52-2.34-5.21,1.82.13-3.25-4.82,1.17c-.45-.32.23-2.16.39-2.6.11-.31.35-.76.52-1.04.3-.49,1.99-2.27,2.47-2.34,1.46-.23,1.7,1.08,2.21,1.3Z"/>
              <path class="cls-11" d="M157.74,179.61c2.06,1.27,3.53-.9,3.12,2.34-1.52.51-2.08,1.22-3.9.52-.6-.23-1.16-2.09-2.86-1.04.09-.1.39-1.15,1.3-1.82.73.54,1.54,0,2.34,0Z"/>
              <g>
                <path class="cls-18" d="M178.56,137.7c1.37,7.8-.91,13.98-6.64,19.26-2.36,2.17-10.62,7.24-11.06,10.54-.3,2.25,2.25,3.2-1.17,5.08-.37.21-.79-.31-.91-.26.6-1.52-6.27-6.6-7.03-6.77-1.44-2.58-3.43-4.86-4.16-7.81-.08-.34-.25-.74-.26-.78-1.31-7.14,1.85-18.17,7.81-22.65,1.18-.88,4.49-2.1,5.99-2.34,7.04-1.16,13.06-.08,17.44,5.73Z"/>
                <g>
                  <path class="cls-26" d="M160.21,133.79c2.51-.34,5.36.26,7.16,2.21-3.07-1.23-5.03-1.31-7.94.39-.93.55-4.13,4.11-4.43,4.16-.5.1-1.53-1.01-1.69-.13-.09.49,1.01,1.07,1.04,1.3.12.84-2.64,3.58-2.86,4.16-.1.28.54.99.52,1.04-.25.81-1.6,3.42-1.3,4.43.03.11,1.2.34,1.04,1.3-.03.18-1.38,1.13-1.56,2.08-.56,2.92,1.35,7.47,2.73,10.02-8.62-6.65-3.64-29.51,7.29-30.98Z"/>
                  <path class="cls-26" d="M156.31,153.58c1.6-.72,3.08,3.54,2.99,4.56-10.37,3.19-3.29-1.43-3.12-2.08.03-.12-.8-2.05.13-2.47Z"/>
                  <path class="cls-26" d="M158.39,143.94c.27-.13,3.62.53,3.51,1.43-.1.8-2.43,1.53-3.25,1.43l-.65-.65c-.04-.47-.03-2.01.39-2.21Z"/>
                  <path class="cls-26" d="M163.34,153.84c4.75-.52-.72,6.15-1.95.65,1.02.38,1.84-.64,1.95-.65Z"/>
                  <path class="cls-26" d="M155.27,147.85c1.46.12,1.74,4.9-1.04,2.6-1.41-1.16.5-2.65,1.04-2.6Z"/>
                  <path class="cls-26" d="M156.31,140.56c2.25-.9,2.95,1.82.26,2.6-1.38.21-1.13-2.25-.26-2.6Z"/>
                  <path class="cls-26" d="M164.38,151.23c2.56-.64,4.71,3-.26,1.82-.77-.42-.29-1.69.26-1.82Z"/>
                  <path class="cls-26" d="M152.93,154.36c.46-.25,2.23.46,1.95,1.43-.46,1.64-4.09-.25-1.95-1.43Z"/>
                </g>
              </g>
              <path class="cls-11" d="M151.49,178.04c.84.05,2.65.14,3.38,0-.05.74-.12,1.08.52,1.56-.91.67-1.21,1.73-1.3,1.82-.74.81-2.32,3.38-2.99,2.6-.13-.15,1.48-2.2-.13-3.64-1.38-1.24-2.19.03-2.47,0-.18-.02-.88-1.04-1.17-1.17-.44-.2-.24.4-.26.39-.51-.22-.75-1.53-2.21-1.3-.48.07-2.17,1.86-2.47,2.34-.33.01-.05-.55,0-.78.19-.88.55-2.49-.26-3.12.14-2.41,5.25-1.18,3.64.39,1.09.78,2.53.18,3.77.39.09.02,1.47,1.03,1.56,1.04.19.01,0-.54.39-.52Z"/>
              <path class="cls-58" d="M138.74,174.14c.53,1.38.84,2.06,0,3.38-.89,1.39-3.75,1.72-5.21,2.34.11-.96-.21-2.1.52-3.38,1.14-1.99,2.78-2.19,4.69-2.34Z"/>
              <path class="cls-23" d="M139,177.78c-.65.57-1.28,2.08-1.82,2.34-.77.38-3.11,0-3.38.65l1.82,6.25c.08.58-.75-.03-1.04-.13-.35-.43-1.27-1.09-1.3-1.17-.3-.91.12-4.63.26-5.86,1.46-.62,4.32-.95,5.21-2.34l.26.26Z"/>
              <path class="cls-58" d="M142.12,176.74c.81.63.46,2.24.26,3.12-.5-.02-.87.36-1.3.52.86-1.08,1.46-1.2.91-2.86l-4.82,3.12v-.52c.54-.27,1.17-1.77,1.82-2.34.79-.7,2.03-1.89,3.12-1.04Z"/>
              <g>
                <path class="cls-46" d="M160.86,181.95c.41-3.24-1.06-1.08-3.12-2.34,1.07-.01,2.27-.26,3.38-.13-1.52-2.01-3.98-1.17-5.73.13-.64-.48-.58-.83-.52-1.56,2.84-.54-2.66-2.47-3.38,0-.38-.02-.2.53-.39.52-.09,0-1.47-1.03-1.56-1.04-1.24-.21-2.69.38-3.77-.39,1.61-1.57-3.5-2.8-3.64-.39-1.1-.85-2.33.34-3.12,1.04l-.26-.26c.84-1.32.53-2.01,0-3.38,7.93-.65,12.12,1.83,20.04-1.82.12-.05.54.47.91.26,3.42-1.87.87-2.83,1.17-5.08.44-3.3,8.71-8.37,11.06-10.54,5.72-5.28,8.01-11.47,6.64-19.26,5.25,6.96,4.71,16.36-1.69,22.39-1.85,1.74-10.01,6-10.28,7.16-.95,4.09,7.38,3.03,4.16,8.59-1.45,2.51-7.16,5.2-9.89,6.12Z"/>
                <path class="cls-26" d="M157.74,179.61c-.8,0-1.62.54-2.34,0,1.75-1.3,4.21-2.14,5.73-.13-1.11-.13-2.31.12-3.38.13Z"/>
                <path class="cls-26" d="M154.88,178.04c-.73.14-2.54.05-3.38,0,.72-2.47,6.22-.54,3.38,0Z"/>
                <path class="cls-26" d="M148.5,175.44c.66-.08,2.97.26,2.21,1.17-.32.38-3.08-.43-3.77-.13.06-.28,1.47-1.03,1.56-1.04Z"/>
              </g>
              <path class="cls-38" d="M141.08,180.39c-1.32.49-2.61,1.01-3.9,1.56-.09-.62,0-.73,0-1.3l4.82-3.12c.55,1.67-.05,1.79-.91,2.86Z"/>
              <path class="cls-64" d="M142.38,179.87c-.05.23-.33.79,0,.78-.18.28-.41.73-.52,1.04-1.25-.04-4.05,1.92-4.95.91-.13-.3.29-.41.26-.65,1.3-.55,2.58-1.07,3.9-1.56.43-.16.8-.54,1.3-.52Z"/>
              <path class="cls-27" d="M150.97,180.39c-2.36-.62-2.46,1.23-4.29,1.82l.39-2.6s-.18-.59.26-.39c.29.13.99,1.15,1.17,1.17.28.03,1.09-1.24,2.47,0Z"/>
            </g>
            <g>
              <path class="cls-4" d="M229.84,68.46c-16.06-2.08-32.54-2.95-48.55,0,9.97,5.79,19.37,12.69,28.24,20.04.26.21.56.75.78,1.04-.26,0-.53.02-.78,0-.4-.68-1.22-.9-1.82-1.3-.87-.58-1.67-1.31-2.6-1.82-8.32-6.11-17.56-11.93-27.07-15.49.36,2.45.71,4.95,1.04,7.42.5,3.65,1.08,7.32,1.82,10.93.04,1.05.07,1.81.26,2.86l.52,7.29c-.06.06.12.75-.13.78-.17-.33-.67-1.12-.91-1.3-.67-3.76-.85-8.34-1.82-11.97-.1-.36-.26-.24-.26-.26.05-.89-.34-1.76-.52-2.6-.16-.73-.36-1.38-.52-2.08-.22-.94-1.73-8.66-2.47-8.59-4.33,7.42-9.88,14.15-16.79,19.26-.43-.87-2.35-2.07-1.82-3.12.16-.02,1.99-1.58,2.34-1.82,4.84-3.36,9.66-9.87,11.71-15.36,2.52-1.04,2.21-5.93,4.29-7.03,2.67-1.41,27.48-1.1,32.02-.78,6.3.44,13.62,1.69,19.26,2.86,1.08.23,3.05.19,3.77,1.04Z"/>
              <path class="cls-52" d="M234.79,69.24c-1.01-.09-2.1-.38-3.12-.52-.61-.08-1.21-.18-1.82-.26-.73-.85-2.69-.81-3.77-1.04-5.64-1.18-12.97-2.42-19.26-2.86-4.54-.32-29.35-.63-32.02.78-2.08,1.1-1.77,5.99-4.29,7.03.47-1.25,1.08-2.72,1.3-4.03.32-1.88-1.4-3.33,1.17-4.56,2.44-1.16,18.06-2.01,21.6-2.08,14.21-.29,29.57,1.63,42.56,7.42-.5.39-1.73.19-2.34.13Z"/>
              <path class="cls-31" d="M234.79,69.24c-3.56,1-7.31,1.29-10.8,2.6-7.28,2.75-14.16,9.75-12.88,18.09-.47.47-.74-.39-.78-.39-.22-.29-.52-.83-.78-1.04.9.08.44-.78.26-1.17-1.63-3.58-4.78-5.8-3.64-10.41,2.02-8.18,17.77-6.31,23.3-6.9.83-.09,1.95-.65,2.86-.52l-.65-.78c1.03.14,2.11.43,3.12.52Z"/>
              <path class="cls-31" d="M199.91,85.64c2.42.83,5.18,2.67,7.81,2.6.61.4,1.42.62,1.82,1.3-10.63-.82-16.76-1.25-24.99,6.77-.78-3.03.86-11.03,3.77-12.49s8.66.83,11.58,1.82Z"/>
              <path class="cls-65" d="M178.82,86.94c.97,3.64,1.15,8.21,1.82,11.97-.47-.35-1.6-1.09-2.08-1.3-3.34-11.27-12.13-10.38-15.88,0v.26c-.58-.73-3.28-4.49-3.64-4.69.11-.45.66-.61,1.04-.78,2.05-.92,4.58-2.32,6.38-3.64,1.56-1.15,7.77-7.68,8.33-7.81.49-.12,1.08-.06,1.43.39.75.98,2,8.69,2.34,10.41l.78.26c.15-.41-1.61-4.29-.52-5.08Z"/>
              <path class="cls-54" d="M199.91,85.64c-2.92-1-8.79-3.23-11.58-1.82s-4.56,9.47-3.77,12.49c-.89.87-1.83,2.1-2.86,3.12l-.52-7.29c.16.89.04,2.34.91,2.6,1.74-.26-.21-14.13-.13-16.01.02-.55.04-1.7.65-1.95,1.55-.64,14.44,6.53,16.66,7.81.43.25,1.13.42.65,1.04Z"/>
              <path class="cls-54" d="M178.56,97.61c-4.79-2.07-11-1.44-15.88,0,3.75-10.38,12.54-11.27,15.88,0Z"/>
              <path class="cls-48" d="M177.52,81.99c-.47.64-.5.59-.78-.13s-1.51-6.64-1.95-6.64l-6.9,9.76-7.81,7.42c-.38.17-.93.33-1.04.78-.1-.05-.48-.08-.78-.26v-.26c6.91-5.11,12.46-11.85,16.79-19.26.74-.07,2.25,7.65,2.47,8.59Z"/>
              <path class="cls-54" d="M229.84,68.46c.62.08,1.21.18,1.82.26l.65.78c-.92-.13-2.03.43-2.86.52-5.52.58-21.28-1.28-23.3,6.9-1.14,4.62,2.01,6.83,3.64,10.41.18.39.64,1.25-.26,1.17-8.87-7.36-18.27-14.26-28.24-20.04,16-2.95,32.49-2.08,48.55,0Z"/>
              <path class="cls-65" d="M188.2,76.53c3.46,1.84,7.36,4.71,11.06,6.25,1.61,2.5,3.55,2.36,5.86,3.64.93.52,1.74,1.25,2.6,1.82-2.62.06-5.39-1.78-7.81-2.6.48-.62-.22-.79-.65-1.04-2.22-1.28-15.11-8.45-16.66-7.81-.61.25-.63,1.4-.65,1.95-.08,1.88,1.87,15.75.13,16.01-.88-.26-.75-1.71-.91-2.6-.19-1.05-.22-1.81-.26-2.86s.26-2.71.26-2.86c-.09-4.12-.08-8.26-.52-12.36.63-.79,5.43,2.01,6.38,2.47.2.1,1.34.82,1.17,0Z"/>
              <path class="cls-15" d="M177.52,81.99c.16.7.36,1.35.52,2.08l-.52-.39c-.42,1.01.99,2.83,1.04,2.99,0,.02.16-.1.26.26-1.09.79.67,4.66.52,5.08l-.78-.26c-.34-1.72-1.59-9.43-2.34-10.41-.35-.45-.94-.51-1.43-.39-.55.13-6.77,6.66-8.33,7.81-1.8,1.32-4.33,2.73-6.38,3.64l7.81-7.42,6.9-9.76c.44,0,1.69,5.95,1.95,6.64s.31.77.78.13Z"/>
              <path class="cls-48" d="M205.11,86.42c-2.31-1.28-4.25-1.15-5.86-3.64-3.7-1.54-7.6-4.41-11.06-6.25-3.04-1.62-6.21-3.03-9.24-4.69-.42.32.28,5.6.39,6.51h-.26c-.34-2.47-.68-4.96-1.04-7.42,9.51,3.56,18.75,9.38,27.07,15.49Z"/>
              <path class="cls-8" d="M181.17,86.42c0,.16-.3,1.82-.26,2.86-.74-3.61-1.33-7.28-1.82-10.93h.26c.23,1.94.65,4.73,1.04,6.64.08.37.23,1.58.78,1.43Z"/>
              <path class="cls-48" d="M178.04,84.08c.18.84.57,1.71.52,2.6-.05-.17-1.46-1.98-1.04-2.99l.52.39Z"/>
              <path class="cls-15" d="M188.2,76.53c.16.82-.97.1-1.17,0-.95-.47-5.74-3.26-6.38-2.47.44,4.11.43,8.24.52,12.36-.55.15-.7-1.06-.78-1.43-.39-1.9-.81-4.7-1.04-6.64-.11-.91-.81-6.18-.39-6.51,3.03,1.65,6.2,3.07,9.24,4.69Z"/>
            </g>
          </g>
        </g>
        <g>
          <path class="cls-44" d="M172.84,108.54s-.31-.04-.26.26c-2.47-2.49-4.03-3.57-6.51-6.51,1.64-.86,1.75,1.68,3.25,1.56l-2.21-2.21c.02-.15,1.86-.86,2.08-.91.68-.17,6.57-.93,6.77-.65-.76,2.91-1.42,5.93-3.12,8.46Z"/>
          <path class="cls-33" d="M158.78,87.72c-.35.24-2.18,1.81-2.34,1.82-.25.02-.61.07-.78-.13-1.58-2.26-2.68-4.46-3.38-7.16,3.13,3.23,10.29-1.99,6.51,5.47Z"/>
          <path class="cls-8" d="M151.75,165.55c.76.17,7.63,5.25,7.03,6.77-7.92,3.65-12.12,1.18-20.04,1.82-1.91.16-3.54.35-4.69,2.34-1.19-4.06-7.85-1.81-11.32-2.6l-6.12-1.04c5.55-2.72,7.46-3.95,7.55-10.93,3.64,1.64,8.13,3.17,12.1,3.64,4.22.5,12.6-.65,15.49,0Z"/>
          <g>
            <path class="cls-52" d="M109.59,149.41c3.69,6.15,8.04,9.55,14.58,12.49-.09,6.99-2,8.22-7.55,10.93-2.84,1.39-5.85,2.52-8.72,3.9-3.95,1.9-7.82,6.08-12.62,4.95,4.79-2.81.7-7.97-3.12-3.9l-.78-.26c1.87-2.32-1-4.56-3.64-1.56-.44-.24-.79-.43-1.3-.52.93-1.28,2.19-3.09,1.3-4.69,3.63-1.73,4.54,3.71,6.12,4.95.3.24,1.62-.2,2.08,0,1.35.6,2.26,2.84,3.9,2.86.82,0,13.59-6.14,14.84-7.03,2.62-1.88,6.27-5.76,4.29-9.24-.66-1.15-5.48-2.82-7.16-4.29-5.81-5.08-9.48-16.22-10.28-23.56-.18-1.62.76-4.03-.26-5.6,1.02-.85,1.84-2.04,3.12-2.6-.54,8.23.99,16.13,5.21,23.17Z"/>
            <path class="cls-55" d="M86.68,169.97c.01.5.95.62,1.04.78.89,1.59-.37,3.4-1.3,4.69-1.81-.32-2.69,1.02-4.56,1.3-.91-3.11,1.9-6.01,4.82-6.77Z"/>
            <g>
              <path class="cls-11" d="M101.26,128.85c1.02,1.56.08,3.98.26,5.6.8,7.33,4.47,18.47,10.28,23.56,1.68,1.47,6.5,3.14,7.16,4.29,1.98,3.48-1.67,7.36-4.29,9.24-1.25.89-14.02,7.04-14.84,7.03-1.64-.02-2.55-2.27-3.9-2.86-.46-.2-1.78.24-2.08,0-1.58-1.23-2.49-6.67-6.12-4.95-.09-.16-1.03-.29-1.04-.78,3.72-.97,4.62.25,7.16.26.93,0,11.05-2.15,11.71-2.6.94-.65.9-1.14,1.17-2.08.13-.46.25-1.02.52-1.43l-.39-.65c-3.76.23-6.22-3.52-8.98-4.69-.17-2.18-2.55-4.23-3.12-7.16-.15-.76-.47-3.64-.26-4.16.05-.12,2.09-1.16,2.08-1.56,0-.59-2.1-.91-2.34-1.56-.06-.16-.05-3.22,0-3.38.52-1.83,1.29-1.02,2.08-1.82.65-.65.31-3.29,3.25-1.43.98-.58-1.52-2.29-3.9-1.04-4.84,2.53-3.05,16.5.13,20.04-.37-.35-.86-.78-1.3-1.04-7.63-11.61-2.43-19.18,6.77-26.81Z"/>
              <g>
                <path class="cls-11" d="M97.87,158.78c-.2-.08-.32-.2-.52-.26-.04-.4-.6-.59-.78-.78-.26-.27-.51-.79-.78-1.04-3.18-3.54-4.97-17.51-.13-20.04,2.38-1.25,4.89.46,3.9,1.04-2.95-1.85-2.61.78-3.25,1.43-.79.8-1.56,0-2.08,1.82-.05.16-.06,3.23,0,3.38.24.66,2.34.98,2.34,1.56,0,.4-2.03,1.44-2.08,1.56-.21.52.11,3.41.26,4.16.57,2.93,2.96,4.98,3.12,7.16Z"/>
                <path class="cls-46" d="M97.48,173.62c3.95-.78,5.85,2.21,3.64,2.34-.29.02-3.98-1.8-5.47-.78-.8-.41,1.67-1.53,1.82-1.56Z"/>
                <path class="cls-11" d="M105.03,155.92c.37-.13,3.34-.12,3.51.39-.17.5-2.55,2.49-2.73,2.47s-2.06-2.4-.78-2.86Z"/>
                <path class="cls-46" d="M97.74,148.63c.83-.17,2.98,1.5,1.82,2.34-2.14,1.56-3.78-1.94-1.82-2.34Z"/>
                <path class="cls-11" d="M99.3,153.06c.29-.06,2.03.98,1.95,1.43l-2.21,1.69c-1.11-.63-.77-2.91.26-3.12Z"/>
                <path class="cls-11" d="M103.21,152.01l2.47,1.17c-1.52,1.77-3.74,1.22-2.47-1.17Z"/>
                <path class="cls-11" d="M100.34,156.18c1.45-.35,1.49,1.51.78,1.82-2.16.96-2.27-1.47-.78-1.82Z"/>
                <path class="cls-11" d="M97.22,139.78c1.32-.35,2.07,1.69.52,1.82-1.14.1-1.61-1.53-.52-1.82Z"/>
              </g>
            </g>
            <path class="cls-63" d="M95.27,181.69c-.69.4-4.81,1.96-5.21,1.43.02-1.51,1.05-4.24,2.08-5.34,3.82-4.07,7.92,1.1,3.12,3.9Z"/>
            <path class="cls-29" d="M91.36,177.52c-.2.25-4.39,2.12-5.08,2.34-.51-.33,1.15-3.58,1.43-3.9,2.64-3,5.51-.76,3.64,1.56Z"/>
          </g>
          <g>
            <path class="cls-11" d="M86.94,111.15s-.56-.04-.78-.26c.02-.08-.5-1.11-.26-1.56,5.64-.64,1.61-6.15-.78-8.07.19-.17.19-.78.52-.78.08.06.45.2.52.26,1.2.98,1.43,2.39,3.12,3.12.03.01.17.47.39.52,1.12.26,11.41.1,12.49-.26,2.36-.78,3.45-4.1,4.82-5.6.97-1.06,2.29-1.82,3.12-2.73,1.2.33-.72,2.26-1.04,2.99-2.12,4.85-1.48,9.46-3.12,13.54-2.32,5.75-7.6,3.23-11.84,1.43-1.18-.5-5.84-3.54-6.51-3.64-.06,0-1.42.35-.65,1.04Z"/>
            <path class="cls-52" d="M106.98,112.45c-.49,1.84-.95,3.85-1.3,5.73-6.91.62-13.43-2.95-18.74-7.03-.77-.69.59-1.05.65-1.04.67.1,5.33,3.14,6.51,3.64,4.25,1.8,9.52,4.32,11.84-1.43,1.65-4.08,1-8.68,3.12-13.54.32-.73,2.25-2.66,1.04-2.99,3.71-4.09,6.96-8.63,10.93-12.49-5.87,8.95-11.27,18.74-14.06,29.15Z"/>
            <g>
              <path class="cls-46" d="M89.28,103.86c-1.69-.73-1.92-2.14-3.12-3.12-.65-4.03,2.43-7.67,3.38-1.95.25,1.5-.12,3.55-.26,5.08Z"/>
              <path class="cls-52" d="M78.61,108.02c-.21-.07-3.25-2.57-3.51-2.6-.79-.1-1.84,1.62-2.99.78.04-.04-.15-.67.39-1.04,3.71-2.55,9.07,2.34,7.81,3.12-.07.05-1.61-.23-1.69-.26Z"/>
              <path class="cls-18" d="M85.12,101.26c2.39,1.92,6.42,7.43.78,8.07-.32.04-1.6.18-1.69-.26,1.18.18,3.87-.69,4.03-1.95.36-2.68-4.99-1.61-4.16-5.21.11-.47.99-.61,1.04-.65Z"/>
              <g>
                <path class="cls-46" d="M85.64,100.48c-.33,0-.33.61-.52.78-.05.04-.93.18-1.04.65-.82,3.59,4.53,2.52,4.16,5.21-.17,1.26-2.85,2.13-4.03,1.95.09.44,1.37.3,1.69.26-.24.45.28,1.48.26,1.56-.94,4.24-10.34,2-13.15,3.12-2.12-.64,4.79-6.06,5.6-5.99.08.03,1.62.31,1.69.26,1.26-.78-4.09-5.68-7.81-3.12-.55.37-.35,1-.39,1.04-2.67,2.77-1.52-2.13.39-3.38,2.79-1.83,6.36-.15,9.37.26-.58-.95-1.18-1.86-1.69-2.86-.66-1.31-1.55-2.71-1.82-4.16,2.9.59,5.04,2.63,7.29,4.43Z"/>
                <path class="cls-18" d="M74.84,102.56c.8-.08,1.63.41,2.21.91l-2.99-.13c-.51-.4.73-.78.78-.78Z"/>
                <path class="cls-50" d="M80.56,97.87c.59.15,1.32.47,1.43,1.17-.19.42-1.68-.69-1.43-1.17Z"/>
              </g>
            </g>
          </g>
          <g>
            <path class="cls-51" d="M108.02,112.97c4.51,2.63,19.42.79,25.25.26,2,.91,4.87,3.06,4.43,5.47-1.95-.6-2.72-.13-4.43.26-.54.13-2.41.12-2.6.65,1.38,2.82,1.96,1.04,4.16.91.18.14,1.47,1.02,1.56,1.04-2.18,1.28-4.38,2.26-5.99,4.29l6.9-.65c-.52,1.02-1.45,1.52-1.95,2.6l-6.51,1.3,2.73-1.56c.69-1.1-3.14.48-3.38.52-6.96,1.1-14.97,1.89-21.87.52-.88.76-.09.61.13,1.04,2.41,4.76,23.77,1.46,28.37-.52-.61,2.88.41,4.86,2.99,6.25.38-.93-.39-1.43-.39-2.34,1.46.72-.11-.56.52-1.43.5-.69,2.04-1.39,2.6-2.47.64.53,1.96,5.34,2.86,4.95v-3.12c.13-.61.59-1.45.78-2.08.31.19.38.71.52,1.04v4.56c.16.19.51-.61.52-.65h.78c-2.5,3.82-8.3,9.14-12.36,11.19-7.1,3.59-14.26,2.64-22,2.34-.58-.2-1.41-1.04-1.82-.39l-.26,2.47c-4.22-7.03-5.74-14.94-5.21-23.17.17-2.55.82-5.54,1.3-8.07.36-1.87.81-3.88,1.3-5.73.37.15.69.32,1.04.52Z"/>
            <path class="cls-51" d="M140.04,77.05c-1.84,4.8-3.76,7.54-9.5,8.07-3.01.28-5.57-1.1-8.46-.65,2.67,1.95,6.61,1.85,9.76,1.69.91-.05,2.67-.87,3.51-.78-.5,3.34-1.07,6.55-2.08,9.76.65.05,2.34-1.13,2.6-1.56.51-.83.18-2.39,1.04-2.73-.75,9.71-16.3,5.15-22.65,6.38,4.01,2,9.72,1.62,14.19,1.43,2.52-.11,7.16-2.12,8.2.39.16.4,1.35,8.03,1.3,8.46-6.86,4.59-16.29,4.14-24.34,4.95-.64.06-2.79.11-2.99.78-.89-.04-1.71-.26-2.6-.26-.35-.2-.67-.37-1.04-.52,2.79-10.41,8.19-20.2,14.06-29.15.65-.99,1.42-1.49,1.82-2.08,3.97.35,7.78-.61,11.19-2.6,1.67,1.19,4.12-2.43,5.99-1.56Z"/>
            <path class="cls-41" d="M144.47,70.8c-5.88,13.17-7.81,30.67-.78,43.73-.64,1.42-1,3.73-1.56,5.21l-2.34-3.38c-.29-.57-1.03-2.67-1.3-2.99-1.37-1.62-3.62-.27-5.21-.13-5.83.53-20.73,2.37-25.25-.26.89,0,1.71.22,2.6.26,6.3.3,20.06-.35,25.38-3.64.61-.38,1.87-1.3,1.95-2.08.04-.43-1.14-8.06-1.3-8.46-1.04-2.51-5.68-.5-8.2-.39-4.46.19-10.18.57-14.19-1.43,6.35-1.22,21.89,3.33,22.65-6.38.05-.65-.33-5.26-.65-5.47-.3-.02-.61.03-.91,0-.85-.08-2.6.73-3.51.78-3.15.16-7.09.26-9.76-1.69,2.89-.44,5.45.93,8.46.65,5.74-.53,7.66-3.27,9.5-8.07.16-.43,2-4.15,1.43-4.43-2.31,1.83-4.91,4.52-7.42,5.99-3.42,2-7.22,2.95-11.19,2.6.71-1.04,1.34-2.1,2.08-3.12,6.32.63,11.93-7.27,17.05-8.59.39-.1.91-.33,1.17.13l-.65,2.47,1.95-1.3Z"/>
            <path class="cls-41" d="M144.73,66.12l-.78,2.21c.8.4,1.23.04,1.82-.39.09.6-.28,1.07-.52,1.56-.2.4-.59.87-.78,1.3l-1.95,1.3.65-2.47c-.26-.46-.78-.23-1.17-.13-5.12,1.32-10.73,9.22-17.05,8.59,1.08-1.49,3.45-5.84,4.69-6.77,2.18-1.63,11.63-3.5,15.1-5.21Z"/>
            <path class="cls-41" d="M135.35,127.81c-.06.13-.51,1.23-.52,1.3-4.6,1.98-25.96,5.28-28.37.52,7.2,1.75,15.1.44,22.39-.52l6.51-1.3Z"/>
            <path class="cls-37" d="M128.85,129.11c-7.29.96-15.19,2.27-22.39.52-.22-.44-1.01-.28-.13-1.04,6.9,1.37,14.9.57,21.87-.52.24-.04,4.08-1.63,3.38-.52l-2.73,1.56Z"/>
            <path class="cls-51" d="M139.78,116.35s-.43.02-.26.39c.41.9,1.75,2.58,2.34,3.51-.03.07.03.19,0,.26-1.57.74-2.98-1.46-4.16-1.82.44-2.4-2.42-4.56-4.43-5.47,1.58-.14,3.84-1.49,5.21.13.27.32,1.02,2.43,1.3,2.99Z"/>
            <path class="cls-55" d="M133.27,118.96c.39.59,1.02,1.14,1.56,1.56-2.21.13-2.78,1.91-4.16-.91.19-.53,2.06-.53,2.6-.65Z"/>
            <path class="cls-37" d="M143.42,134.05c-.46-1.16-.24-1.98,0-3.12v3.12Z"/>
            <path class="cls-37" d="M137.96,107.5c-.08.78-1.34,1.7-1.95,2.08-5.32,3.3-19.08,3.95-25.38,3.64.21-.67,2.35-.72,2.99-.78,8.05-.8,17.48-.35,24.34-4.95Z"/>
            <path class="cls-51" d="M136.92,90.84c-.86.34-.53,1.9-1.04,2.73-.27.43-1.95,1.62-2.6,1.56,1.01-3.22,1.58-6.42,2.08-9.76.3.03.61-.02.91,0,.33.21.7,4.82.65,5.47Z"/>
            <path class="cls-51" d="M140.04,77.05c-1.87-.86-4.31,2.75-5.99,1.56,2.51-1.47,5.1-4.15,7.42-5.99.57.27-1.27,4-1.43,4.43Z"/>
            <path class="cls-37" d="M142.12,119.74c-.07.2-.18.33-.26.52-.59-.93-1.93-2.62-2.34-3.51-.17-.37.27-.37.26-.39l2.34,3.38Z"/>
            <path class="cls-57" d="M145.77,67.94c-.6.43-1.02.79-1.82.39l.78-2.21c.87-.43,2.67-1.73,3.64-2.34-.63,1.03-1.7,3.52-2.6,4.16Z"/>
            <g>
              <path class="cls-41" d="M155.14,134.31c-5.96,4.47-9.12,15.51-7.81,22.65-7.96,2.44-18.27,4.53-25.64-.52-1.86-1.27-2.76-3.14-4.56-4.29l2.34,3.12c7.4,7.61,19,5.04,28.11,2.47.73,2.95,2.72,5.23,4.16,7.81-2.89-.65-11.27.5-15.49,0-3.98-.47-8.46-2-12.1-3.64-6.53-2.94-10.89-6.35-14.58-12.49l.26-2.47c.41-.65,1.24.19,1.82.39,9.1,3.18,18.66,1.01,26.42-4.43,4.73-3.31,11.07-9.58,10.41-15.62.02,2.66-1.09,4.39-2.47,6.51h-.78c.29-1.38-.02-2.76-.52-3.9-.15-.33-.21-.86-.52-1.04.3-1,.48-2.83.78-3.38.08-.15,2.11-1.5,2.6-2.08l7.55,10.93Z"/>
              <path class="cls-37" d="M111.67,147.33c7.73.29,14.89,1.25,22-2.34,4.06-2.05,9.86-7.37,12.36-11.19,1.38-2.12,2.49-3.85,2.47-6.51.66,6.04-5.68,12.3-10.41,15.62-7.76,5.44-17.32,7.6-26.42,4.43Z"/>
              <path class="cls-51" d="M145.25,133.79s-.36.84-.52.65v-4.56c.5,1.14.81,2.53.52,3.9Z"/>
              <path class="cls-37" d="M147.33,156.96s.18.44.26.78c-9.11,2.57-20.71,5.14-28.11-2.47l-2.34-3.12c1.8,1.16,2.69,3.02,4.56,4.29,7.37,5.05,17.68,2.96,25.64.52Z"/>
              <path class="cls-51" d="M149.02,137.18l.65.39c-2.69,3.87-4.36,14.09-8.2,16.53-4.75,3.02-14.17.15-18.61-2.73,10.05-1.9,19.29-6.55,26.16-14.19Z"/>
            </g>
          </g>
          <g>
            <path class="cls-11" d="M157.22,30.19c2.04,3.02,4.67,2.5,4.95,2.86.09.13.2,2.64.52,3.12-1.64-.31-2.36-2.4-3.77-3.38-1.96,1.94-3.78,5.59-2.73,8.46.12.34,1.13.93,1.3,1.17.16.22.04.28.52.78,1.45,1.51,2.43,2.4,4.69,2.73-1,4.36-4.42,7.56-6.25,11.32-2.62,2.36-5.06,4.61-8.07,6.51-.97.61-2.78,1.92-3.64,2.34-3.47,1.7-12.92,3.57-15.1,5.21-5.41,1.17-14.36,9.18-19.91,8.33-.53-.08-.99-.68-1.17-.78,1.2-.04,2.32.09,3.51-.26,4.13-1.21,11.07-7.17,15.62-9.37,11.04-5.33,21.4-5.38,28.5-17.57,3.88-6.67,1.24-4.39-1.04-8.33s.73-9.58,1.3-13.93c.34.11.6.52.78.78Z"/>
            <path class="cls-44" d="M158.52,24.21c-1.92-.94-3.67-2.24-5.73-2.86-3.01-2.56-11.67-3.21-15.36-2.08v-.26c.33-.32.19-.94.26-1.04.53-.82,1.93-1.23,1.82-2.86,1.19-.03,1.88-2.35,2.34-2.86.1-.11.37.28.39.26,8.03-8.76,8.39-2.27,8.85,5.99,1.13-.84,7.71-3.64,8.59-3.38,1.92.55-.77,7.69-1.17,9.11Z"/>
            <path class="cls-44" d="M171.28,40.09c-.34,1.15-5.34,4.19-5.47,4.56-.81,2.33.76,3.81-3.64,4.69-.24.98,12.13,6.85-1.82,8.33,2.61,4.31-.57,5.5-4.43,5.99-.29,1.01,1.6,4.94,1.56,5.21-.15,1.04-4.51,1.97-5.21,2.99.4-2.57.82-5.05,1.56-7.55.55-1.86,1.77-5.32,2.6-7.03,1.83-3.76,5.24-6.96,6.25-11.32-2.26-.33-3.24-1.23-4.69-2.73,4.22,1.25,9.79-.55,13.28-3.12Z"/>
            <path class="cls-52" d="M93.19,53.88c-2.85-4.94,3.57-4.47,6.51-5.21-.53.97-2.1,2.04-2.6,2.99-.34.64.12,1.72-.13,1.95-.02.02-.31-.44-.52-.26-.61.51-1.86,1.86-2.6,1.56-.1-.43-.48-.74-.65-1.04Z"/>
            <path class="cls-16" d="M106.46,32.28c1.08-4.45,2.41-3.98,5.47-6.25,1.88.68,2.14,2.14,2.08,4.03-2.97-2.59-5.56-.24-7.55,2.21Z"/>
            <path class="cls-11" d="M117.65,71.84c-.05.06-.37,1.26-.52,1.43-2.75,3.03-5.47,4.56-9.63,4.56-.4-.5-1.12-.96-1.3-1.69s.26-1.11.26-1.17h.26c-.06,1.52.19,1.11,1.3,1.3.24.04.53-.01.78,0,.91.04,1.26-.08,2.08-.26.69-.15,1.21-.51,1.82-.78,1.75-.77,3.37-1.79,4.43-3.38.1.04.36-.02.52,0Z"/>
            <path class="cls-52" d="M158.52,24.21c.41.2.82.51,1.3.52-.59.22-2.82,1.17-3.12,1.56-.87-1.58-2.56-3.8-3.9-4.95,2.05.63,3.81,1.92,5.73,2.86Z"/>
            <path class="cls-16" d="M127.81,29.41c-.02-1.12.85-3.14,1.56-3.9,3.57-3.82,11.63-2.27,12.23,3.51-3.15-3.27-6.35-2.63-10.28-1.43-.98.3-2.85,1.66-3.51,1.82Z"/>
            <path class="cls-30" d="M133.27,21.34c-1.22.73-4.19,2.58-3.9,4.16-.72.77-1.58,2.79-1.56,3.9-3.84.95-9.09.34-8.59-4.69,1.94,2.05,2.95,4.54,6.25,3.12.56-.24,2-2.22,2.34-2.86.16-.3.4-.74.52-1.04.6-1.59.51-3.45,1.04-4.69l3.9,2.08Z"/>
            <path class="cls-26" d="M119.48,70.02c.23-.29.3-.74.52-1.04.54-.72,1.04-1.32,1.56-2.08,2.22-3.26,3.07-4.32,4.69-8.07.08-.19.68-.6.52-1.04,1.26,1.4.85,6.03-.26,7.94-.63,1.07-4.25,3.15-5.6,4.03-.06.04-1.71.98-1.43.26Z"/>
            <g>
              <path class="cls-42" d="M141.86,12.23c-.46.52-1.15,2.83-2.34,2.86-.15-2.37-2.95-5.55-3.9-7.68-.31-.69-.16-.76,0-1.43,2.29,1.87,4.86,3.54,6.25,6.25Z"/>
              <g>
                <path class="cls-24" d="M126.77,0c4.15,5.79,9.95,10.36,10.93,17.96-.07.1.07.73-.26,1.04l-3.12-8.2c-6.45-8.99-.26,2.3,0,4.95.16,1.67.05,3.72-1.04,5.08-.47-.21-2.87-1.58-3.12-1.82-1.16-1.13-1.47-3.22-2.86-4.16l-.52-14.84Z"/>
                <path class="cls-60" d="M135.62,5.99c-.16.67-.31.74,0,1.43.96,2.12,3.75,5.31,3.9,7.68.11,1.64-1.29,2.04-1.82,2.86-.98-7.6-6.78-12.17-10.93-17.96,3.35,1.46,6.07,3.72,8.85,5.99Z"/>
                <path class="cls-1" d="M137.44,19v.26c-.53.16-2.01,1.4-2.86,1.82-.56.1-.84-.05-1.3-.26,1.09-1.36,1.2-3.4,1.04-5.08-.26-2.64-6.45-13.93,0-4.95l3.12,8.2Z"/>
                <path class="cls-57" d="M130.15,19c.25.25,2.66,1.61,3.12,1.82s.74.36,1.3.26c-.66.33-1.2.2-1.3.26l-3.9-2.08c.05-.12-.11-.4.13-.52.03-.02.27.41.65.26Z"/>
              </g>
            </g>
            <path class="cls-52" d="M156.44,57.27c-.83,1.71-2.05,5.17-2.6,7.03l-1.56.91,1.04-2.86c-1.07-2.18-2.09,3.25-2.6,3.9-.57.73-4.37,2.76-5.47,3.25.24-.49.61-.96.52-1.56.9-.65,1.97-3.13,2.6-4.16,3.01-1.9,5.45-4.15,8.07-6.51Z"/>
            <g>
              <path class="cls-51" d="M169.97,26.55c.02-.21.07-.71-.13-.78l-7.29,4.43c-.95-.22,0-.58.26-.78.84-.65,2.46-1.41,3.51-2.08.22-.14,3.89-1.71,2.73-2.34-1.15.75-11.03,4.19-11.06,1.95l5.21-2.99c3.1-.64,5.75-1.04,8.98-.78.86.48-1.88,3.04-2.21,3.38Z"/>
              <path class="cls-24" d="M163.21,23.95l-5.21,2.99c.03,2.24,9.92-1.2,11.06-1.95,1.15.63-2.52,2.2-2.73,2.34l-9.11,2.86c-.18-.26-.44-.67-.78-.78.13-.98-.87-1.67.26-3.12.31-.39,2.53-1.34,3.12-1.56s2.61-.62,3.38-.78Z"/>
              <path class="cls-44" d="M168.15,36.44c-1.78-.22-3.81.06-5.47-.26-.33-.48-.43-3-.52-3.12l-1.17-1.04c3.33-1.23,6.51-2.89,8.98-5.47-.11,1.2-5.07,5.24-6.25,6.12l4.43,3.77Z"/>
              <path class="cls-25" d="M169.97,26.55c-2.47,2.58-5.65,4.24-8.98,5.47l1.17,1.04c-.28-.37-2.91.16-4.95-2.86l9.11-2.86c-1.06.68-2.68,1.43-3.51,2.08-.26.2-1.21.56-.26.78l7.29-4.43c.2.07.15.57.13.78Z"/>
            </g>
            <g>
              <path class="cls-1" d="M114.79,12.75c.73.26,1.19.52,1.82.78l4.56,2.6c2.61,2.72,5.52,5.05,6.64,8.85-.34.64-1.78,2.62-2.34,2.86-2.19.37-3.6-1.96-4.95-3.38-.57-4.88-5.33-8.93-8.85-12.1l-.52.26c2.68,3.1,4.88,6.67,7.55,9.76l-.78.52c-.11-.12-.68-.41-.78-.52-3.5-3.82-6.56-8.07-10.41-11.58.54-.7,6.93,1.55,8.07,1.95Z"/>
              <path class="cls-60" d="M127.29,14.84c1.39.94,1.71,3.03,2.86,4.16-.38.15-.62-.28-.65-.26-.24.13-.08.4-.13.52-.53,1.24-.44,3.1-1.04,4.69.24-1.73-.05-1.93-.78-3.12-1.75-5.2-7.86-6.75-12.23-8.85-.31-.15-1.06-.35-.65-.78,3.06,1.29,10.08,1.91,12.62,3.64Z"/>
              <path class="cls-61" d="M127.55,20.82c-1.86-3.03-7.71-5.94-10.93-7.29-.63-.26-1.09-.52-1.82-.78l.52-.78c4.37,2.1,10.48,3.65,12.23,8.85Z"/>
              <path class="cls-25" d="M120.52,24.47c1.34,1.42,2.75,3.75,4.95,3.38-3.3,1.42-4.31-1.07-6.25-3.12-.45-.47-.8-1.28-1.3-1.82l.78-.52c.6.69,1.2,1.42,1.82,2.08Z"/>
              <path class="cls-51" d="M120.52,24.47c-.63-.66-1.23-1.39-1.82-2.08-2.67-3.09-4.86-6.67-7.55-9.76l.52-.26c3.52,3.17,8.28,7.23,8.85,12.1Z"/>
              <path class="cls-1" d="M116.61,13.54c3.22,1.35,9.07,4.26,10.93,7.29.73,1.19,1.02,1.39.78,3.12-.12.31-.36.74-.52,1.04-1.12-3.8-4.03-6.13-6.64-8.85l-4.56-2.6Z"/>
            </g>
            <g>
              <path class="cls-25" d="M172.32,39.04c-.38.38-.57.7-1.04,1.04-3.49,2.58-9.05,4.37-13.28,3.12-.48-.5-.36-.56-.52-.78l14.84-3.38Z"/>
              <g>
                <path class="cls-39" d="M162.69,36.18c1.65.32,3.68.04,5.47.26s3.62.38,5.34,1.04c.45.53-.94,1.33-1.17,1.56l-14.84,3.38c-.17-.24-1.18-.83-1.3-1.17-1.04-2.87.77-6.52,2.73-8.46,1.42.98,2.14,3.07,3.77,3.38Z"/>
                <path class="cls-51" d="M160.21,36.96l11.84.65c-3.18,1.17-10.34,3.53-11.84-.65Z"/>
              </g>
            </g>
            <g>
              <path class="cls-40" d="M112.19,38.26c.79,2.77.01,6.53-.78,9.24-1.15-.84-1.88-1.29-3.38-1.17-.12-1.51-.41-3.03-.26-4.56.24-2.44,2.91-8.81,4.43-3.51Z"/>
              <path class="cls-63" d="M110.5,37.22c1.19-.19,1.11,1.91.26,2.08-1.39.28-1.01-1.96-.26-2.08Z"/>
            </g>
            <g>
              <path class="cls-3" d="M152.79,21.34c1.35,1.15,3.03,3.36,3.9,4.95-1.13,1.46-.13,2.15-.26,3.12-.57,4.35-3.57,10.01-1.3,13.93s4.93,1.66,1.04,8.33c-7.11,12.19-17.46,12.24-28.5,17.57-4.55,2.2-11.49,8.16-15.62,9.37-1.19.35-2.32.22-3.51.26-.51-.29-.7-.61-1.04-1.04,4.17,0,6.88-1.52,9.63-4.56.15-.17.47-1.37.52-1.43.45-.52,1.38-1.26,1.82-1.82-.28.72,1.37-.22,1.43-.26,1.34-.89,4.97-2.96,5.6-4.03,1.11-1.91,1.52-6.54.26-7.94l-.13-.52c-3.44,2.58-7.72,6.06-11.45,8.07-2.31,1.24-4.94,1.75-7.16,3.12-1.08.1-2.02.24-3.12.26-3.69.05-7.5-1.11-11.19-1.04-2.86-2.02-4-11.39-.52-13.8.17.3.55.61.65,1.04.75.3,1.99-1.05,2.6-1.56.21-.18.5.28.52.26.25-.23-.21-1.32.13-1.95.5-.95,2.07-2.02,2.6-2.99,2.05-.52,6.76-2.22,8.33-2.34s2.23.34,3.38,1.17c.79-2.71,1.58-6.47.78-9.24.48-.59-.09-1.89-.26-2.6-.03-.13.19-1.24-.26-1.69-1.6-1.59-4.9,2.27-4.69,4.03-1.11,2.23-1.14,4.57-1.82,6.9.68-4.05.35-8.71,1.3-12.62,1.99-2.46,4.58-4.8,7.55-2.21.06-1.9-.2-3.36-2.08-4.03,1.7-1.26,3.23-2.73,5.21-3.64.1.11.67.41.78.52.5.54.85,1.35,1.3,1.82-.5,5.03,4.75,5.63,8.59,4.69.66-.16,2.53-1.52,3.51-1.82,3.93-1.2,7.13-1.84,10.28,1.43-.6-5.79-8.66-7.33-12.23-3.51-.28-1.58,2.68-3.43,3.9-4.16.11-.06.64.07,1.3-.26.85-.43,2.33-1.66,2.86-1.82,3.69-1.13,12.35-.48,15.36,2.08Z"/>
              <g>
                <path class="cls-11" d="M126.77,57.79c.16.44-.44.85-.52,1.04-1.3.42-2.33,1.52-3.38,2.34-.36.28-.62.66-.78.78-2.48,1.88-5.7,4.14-8.59,5.21-.5.18-1.5.69-1.82.78-.13.03-2.06.19-2.6.26-.43.06-.62.22-1.04.26,2.22-1.38,4.84-1.88,7.16-3.12,3.74-2.01,8.01-5.49,11.45-8.07l.13.52Z"/>
                <path class="cls-17" d="M104.9,68.72c-.23-.03-.28.28-.52.26-.47-.05-.36-.03-.78,0-.83.05-1.77.04-2.6,0-1.79-.08-5.96-.36-7.29-1.3,3.69-.06,7.5,1.09,11.19,1.04Z"/>
                <path class="cls-59" d="M111.93,35.66c-1.93-2.51-4.05.54-4.95,2.34-.22-1.76,3.09-5.63,4.69-4.03.45.45.23,1.56.26,1.69Z"/>
                <path class="cls-26" d="M134.44,50.5c4.09-.69,4.02,2.76,1.3,3.64-4.2,1.37-4.98-3.02-1.3-3.64Z"/>
                <path class="cls-52" d="M107.76,58.05c-.97,1.24-.62-.06-.91-.26-.02-.02-.23.34-.39.26-.07-.04.13-1.05-1.17-.78-.43.09-2.42,2.62-1.43,3.38-.77.4-1.55.82-2.34,1.17-.21-1.06.5-2.31.52-3.25,1.11-1.47,1.19-2.08,2.86-3.12,2.58-.14,2.48.69,2.86,2.6Z"/>
                <path class="cls-11" d="M109.59,57.79c-.7-1.46-2.48-3.56-4.29-3.12-.42.1-.35.76-.39.78-1.67,1.05-1.76,1.65-2.86,3.12.03-1.69-1.23-4.48,1.69-5.21s5.76,1.57,5.86,4.43Z"/>
                <path class="cls-26" d="M109.59,57.79c.81,1.7,1.17,2.35.39,4.43l-.78-1.82c-2.16,1.43-1.18-1.06-1.43-2.34-.38-1.91-.28-2.74-2.86-2.6.04-.02-.03-.68.39-.78,1.81-.43,3.6,1.66,4.29,3.12Z"/>
                <path class="cls-53" d="M106.46,58.05c.09,1.68-1.5,2.03-2.6,2.6-.99-.76,1-3.3,1.43-3.38,1.3-.26,1.1.75,1.17.78Z"/>
                <g>
                  <path class="cls-63" d="M140.56,40.35c-.11.89-.65,3.54-1.56,3.9,2.83-8.18-7.02-13.28-7.81-4.82-.21,2.22.53,5.07,1.82,6.9-.17.05-2.45,1.71-2.99,1.56-.95-1.15-1.36-2.97-1.43-4.43-.59-11.71,9.66-15.86,11.97-3.12Z"/>
                  <path class="cls-16" d="M140.56,40.35c-2.31-12.73-12.56-8.58-11.97,3.12-.58-2.03-.11-4.91.52-6.9,3.1-9.74,12.52-4.77,11.45,3.77Z"/>
                  <g>
                    <path class="cls-40" d="M139,44.25c-.88,2.56-.52.83-2.73,1.3-1.06.22-2.22.47-3.25.78-1.29-1.82-2.03-4.68-1.82-6.9.79-8.46,10.63-3.36,7.81,4.82Z"/>
                    <path class="cls-63" d="M134.44,35.92c2.54-.1.76,3.22-1.56,2.34-1.15-.77,1.11-2.33,1.56-2.34Z"/>
                  </g>
                </g>
              </g>
            </g>
            <g>
              <path class="cls-15" d="M111.67,67.94c-.02.16.04.46,0,.52-1.01,1.44-3.81,2.69-4.43,4.95.02-.17-.03-.36,0-.52.33-1.97.06-3.21,1.82-4.69.54-.07,2.48-.23,2.6-.26Z"/>
              <path class="cls-22" d="M107.24,73.4c-.05.48-.25.88-.26,1.04-.03.65-.26.49-.26.52h-.26c.02-.8-.75-1.58.78-2.08-.03.16.02.35,0,.52Z"/>
              <path class="cls-45" d="M119.48,66.64l.52,2.34c-.22.3-.29.75-.52,1.04-.44.56-1.38,1.3-1.82,1.82-.16-.02-.42.04-.52,0-.34-.15-1.41-.76-1.3-1.3.27-.2,2.63-3.43,3.12-4.03.22-.27.4.27.52.13Z"/>
              <path class="cls-13" d="M122.86,62.99c-.62.02-.85-.53-.91-.52-.13.03-1.51,1.7-1.69,1.95-.51.7-.22,1.37-.26,1.43-.35.44-.47.71-.52.78-.12.14-.3-.4-.52-.13-.49.61-2.85,3.84-3.12,4.03-.13.09-.36.22-.52.26l-.13-.52c-1.16.41-1.51,1.63-2.21,2.34-.08.08-.19.19-.26.26-.69.76-1.81,1.25-2.08,2.34-.45-.69-1-1.36-1.43-2.08l-.39,3.12c-.25-.01-.54.04-.78,0l-1.04-1.82c0-.16.21-.56.26-1.04.61-2.26,3.42-3.51,4.43-4.95.66.64,1.68-.51,1.82-1.3,2.89-1.07,6.11-3.33,8.59-5.21l.78,1.04Z"/>
              <path class="cls-65" d="M126.24,58.83c-1.61,3.74-2.47,4.81-4.69,8.07l-1.56-1.04c.05-.06-.25-.73.26-1.43.18-.25,1.57-1.92,1.69-1.95.06-.01.29.54.91.52,1.81-.04,2.15-1.43,0-1.82,1.06-.82,2.08-1.92,3.38-2.34Z"/>
              <path class="cls-63" d="M122.86,62.99l-.78-1.04c.16-.12.42-.5.78-.78,2.15.39,1.81,1.78,0,1.82Z"/>
              <path class="cls-55" d="M111.67,68.46c.04-.06-.02-.36,0-.52.32-.09,1.32-.6,1.82-.78-.14.79-1.16,1.94-1.82,1.3Z"/>
              <path class="cls-63" d="M117.13,71.84c-1.05,1.59-2.68,2.61-4.43,3.38v-2.34c.07-.07.18-.18.26-.26l1.95,1.04.39-2.86c.16-.04.39-.17.52-.26-.11.54.96,1.15,1.3,1.3Z"/>
              <path class="cls-63" d="M110.63,75.23c.15.23.32.47.26.78-.82.18-1.17.3-2.08.26l.39-3.12c.43.72.98,1.39,1.43,2.08Z"/>
              <path class="cls-65" d="M112.71,75.23c-.61.27-1.14.63-1.82.78.06-.31-.11-.55-.26-.78.28-1.09,1.39-1.59,2.08-2.34v2.34Z"/>
              <path class="cls-55" d="M108.02,76.27c-1.11-.2-1.36.22-1.3-1.3,0-.03.23.13.26-.52l1.04,1.82Z"/>
              <path class="cls-63" d="M120,65.86l1.56,1.04c-.52.76-1.02,1.36-1.56,2.08l-.52-2.34c.05-.07.17-.34.52-.78Z"/>
              <path class="cls-65" d="M115.31,70.8l-.39,2.86-1.95-1.04c.7-.71,1.05-1.93,2.21-2.34l.13.52Z"/>
            </g>
          </g>
        </g>
      </g>
    </g>
  </g>
</svg>