<?xml version="1.0" encoding="UTF-8"?>
<svg id="katman_2" data-name="katman 2" xmlns="http://www.w3.org/2000/svg" xmlns:xlink="http://www.w3.org/1999/xlink" viewBox="0 0 441.05 241.64">
  <defs>
    <style>
      .cls-1 {
        fill: #6a7d8b;
      }

      .cls-2 {
        fill: url(#Adsız_degrade_55);
      }

      .cls-3 {
        fill: url(#Adsız_degrade_48);
      }

      .cls-4 {
        fill: #dbe5c1;
      }

      .cls-5 {
        fill: #2a762d;
      }

      .cls-6 {
        fill: #43b0d6;
      }

      .cls-7 {
        fill: #fec7c9;
      }

      .cls-8 {
        fill: #18201d;
      }

      .cls-9 {
        fill: #4e842d;
      }

      .cls-10 {
        fill: #7ca166;
      }

      .cls-11 {
        fill: #92d3ee;
      }

      .cls-12 {
        fill: #012e0f;
      }

      .cls-13 {
        fill: #8eb859;
      }

      .cls-14 {
        fill: #909dae;
      }

      .cls-15 {
        fill: #266a4a;
      }

      .cls-16 {
        fill: #a78cae;
      }

      .cls-17 {
        fill: #3d8e7c;
      }

      .cls-18 {
        fill: #acb6bf;
      }

      .cls-19 {
        fill: #7c8c5e;
      }

      .cls-20 {
        fill: #df8a96;
      }

      .cls-21 {
        fill: #6e98bf;
      }

      .cls-22 {
        fill: #48895e;
      }

      .cls-23 {
        fill: #000101;
      }

      .cls-24 {
        fill: #4d6a85;
      }

      .cls-25 {
        fill: #719e45;
      }

      .cls-26 {
        fill: #6181a0;
      }

      .cls-27 {
        fill: #fffeff;
      }

      .cls-28 {
        fill: #eee6e9;
      }

      .cls-29 {
        fill: #89b6d1;
      }

      .cls-30 {
        fill: #b2c4d8;
      }

      .cls-31 {
        fill: #3c5a73;
      }

      .cls-32 {
        fill: #529255;
      }

      .cls-33 {
        fill: #cad6e7;
      }

      .cls-34 {
        fill: #88a7ca;
      }

      .cls-35 {
        fill: #094918;
      }

      .cls-36 {
        fill: #482d1d;
      }

      .cls-37 {
        fill: #648ea9;
      }

      .cls-38 {
        fill: #e8f8fe;
      }

      .cls-39 {
        fill: #0a3e2a;
      }

      .cls-40 {
        fill: #67a884;
      }

      .cls-41 {
        fill: #15553a;
      }

      .cls-42 {
        fill: #2e92ae;
      }

      .cls-43 {
        fill: #eea2a8;
      }

      .cls-44 {
        fill: #254a67;
      }

      .cls-45 {
        fill: #298cc5;
      }

      .cls-46 {
        fill: #30454e;
      }

      .cls-47 {
        fill: #347854;
      }

      .cls-48 {
        fill: #37691f;
      }

      .cls-49 {
        fill: #195a1a;
      }

      .cls-50 {
        fill: #122533;
      }

      .cls-51 {
        fill: #693033;
      }

      .cls-52 {
        fill: #bde6f7;
      }

      .cls-53 {
        fill: #d3d1db;
      }
    </style>
    <linearGradient id="Adsız_degrade_48" data-name="Adsız degrade 48" x1="295.15" y1="78.94" x2="250.08" y2="155.59" gradientUnits="userSpaceOnUse">
      <stop offset="0" stop-color="#c8d7e9"/>
      <stop offset="1" stop-color="#97afc9"/>
    </linearGradient>
    <linearGradient id="Adsız_degrade_55" data-name="Adsız degrade 55" x1="158.92" y1="75.98" x2="174.99" y2="134" gradientUnits="userSpaceOnUse">
      <stop offset="0" stop-color="#f4adb3"/>
      <stop offset="1" stop-color="#fecdcd"/>
    </linearGradient>
  </defs>
  <g id="katman_2-2" data-name="katman 2">
    <g id="_Üretken_Nesne" data-name="Üretken Nesne">
      <g>
        <path class="cls-12" d="M258.89,146.36c-2.37,4.27-3.51,7.13-8.66,8.26,0-1.3.06-2.64,0-3.93-.03-.67.04-.98-.39-1.57,1.57-.4,1.8-1.68,2.36-2.75.03-.05.78-.73.79-.79l5.9.79Z"/>
        <g>
          <path class="cls-49" d="M77.51,112.92c8.16,1.16,18.76,8.56,28.33,7.08h.39c1.28,2,2.82,3.5,4.52,5.11,1.33.26.85-.63.98-.79.57-.68,1.86-5.16,1.57-6.3.65-.09.71.24,1.18.39-.97,2.06-1.14,4.7-1.97,6.49-.96,2.07-12.45,19.43-13.57,19.87-.17.07-1.88-.75-2.56-.39.08-.09-.07-.73,0-.79.35-.16,1.21.25,1.57-.2-.66-.46-.99-.26-1.57.2-.74.35-1.55,1.71-2.16,1.57l-5.31-7.48c0-.26.05-.58,0-.79-.49-1.89-8.03-9.86-9.44-12.2-.01-.13.03-.28,0-.39-.15-.53-5.11-5.6-6.3-5.9l-.39-.79c-2.11-1.5-4.44-2.66-6.69-3.93.45.06.33-.29.39-.39.17-.29.28-.59.59-.79,2.72,1.31,8.06.06,10.43.39Z"/>
          <path class="cls-35" d="M110.95,151.87l1.18-2.36c1.22,8.48,4.8,17.5,6.69,25.97-15.54,1.07-30.99,2.72-46.43,4.72-.65-.74.06-.83,0-1.18l24.98-2.36c.86-.59,1.16-2.8,1.38-3.15,4.73-7.45.98-10,1.57-18.3l-1.57.59c1.05-3.36.62-6.13,2.36-9.05-2,2.9,1.05,5.55,1.18,6.1.02.09-.81.7-.79.79,1.61,6.21,5.83,12.62,8.85,18.3.8.39-.6-6.43-.59-7.28.07-4.21,1.43-8.44,1.18-12.79Z"/>
          <g>
            <path class="cls-5" d="M5.51,167.21l8.66,15.74c-.17-.13-.55-.32-.79-.39-1.79-4.36-5.44-4.12-9.05-6.1,1.2-.89,4.74,1.87,5.11.39-2.52-2.76-5.94-3.78-7.28-6.89l.2,3.93c-.68-1.29-1.31-2.9-2.36-3.93v-3.54c1.85.19,3.68.44,5.51.79Z"/>
            <path class="cls-49" d="M16.52,172.72c-.62,1.43,1.51,3.04,1.57,3.74.05.51-1.21,2.61-1.18,2.75.13.71,2.1,4.4,2.36,5.51.16.68-.49,4.55.2,4.92.66-.69,4.66-1.09,4.92-1.38.19-.21-.97-5.09.2-5.7,1.08-.57,2.86.72,3.54.79.26.03.54-.8.59-.79,1.89.44,5.38,3.87,7.28,3.15,1.09-2.36,5.89-1.97,8.46-3.93.21.46,1.93,2.26,1.38,2.75-12.52,2.39-25.29,4.05-36.79,9.84,1.57-1.08,3.12-1.94,4.72-2.95-.8-.16-9.29-3.05-7.28-4.13,3.68,1.98,8.01,5.27,12,2.56.45-1.18-4.15-2.69-5.11-2.75l3.15-.79c-.66-.3-2.2-3.22-2.36-3.34l-8.66-15.74c6.06,1.13,8.8,5.01,11.02,5.51Z"/>
            <path class="cls-49" d="M22.82,173.12c.98,3.3,5.07,6,5.9,9.44-.05-.01-.33.81-.59.79-.68-.07-2.46-1.36-3.54-.79-1.16.62,0,5.49-.2,5.7-.26.28-4.26.69-4.92,1.38-.69-.37-.04-4.24-.2-4.92-.26-1.11-2.23-4.8-2.36-5.51-.03-.15,1.23-2.24,1.18-2.75-.07-.7-2.2-2.31-1.57-3.74,1.64.37,4.4-.27,6.3.39Z"/>
            <path class="cls-49" d="M13.38,182.56c.23.07.61.26.79.39.16.12,1.7,3.05,2.36,3.34l-3.15.79c.97.06,5.57,1.58,5.11,2.75-3.99,2.71-8.32-.58-12-2.56-2.01,1.08,6.48,3.97,7.28,4.13-1.6,1.01-3.15,1.87-4.72,2.95-.94.65-2.34,1.26-2.75,1.57.09-2.25-1.16-7.35-.79-9.25s5-3.34,1.97-4.92c.18.08,2.64.97,3.34,1.18.31.09,2.36-.46,2.56-.39Z"/>
            <path class="cls-49" d="M13.38,182.56c-.2-.06-2.25.48-2.56.39-.7-.21-3.17-1.1-3.34-1.18-.74-.35-1.8-.18-2.36-.98-.24-.34-1.92-5.31-2.75-6.89l-.2-3.93c1.34,3.11,4.76,4.13,7.28,6.89-.38,1.48-3.91-1.29-5.11-.39,3.61,1.98,7.26,1.74,9.05,6.1Z"/>
          </g>
          <path class="cls-41" d="M96.39,143.61c.58-.45.91-.66,1.57-.2-.37.45-1.23.03-1.57.2Z"/>
          <g>
            <path class="cls-5" d="M139.28,79.08l9.44-32.85-10.82,32.46c-.41-.06-4.14-6.37-4.13-7.28.01-2.41,4.09-12.96,4.72-16.92.15-.92,1.42-8.47-.39-7.28.41-3.8,1.03-7.55.98-11.41,4.25,1.87,20.87,22.7,20.26,25.38-.42,1.84-17.37,15.96-20.07,17.9Z"/>
            <path class="cls-9" d="M137.71,50.75c-.99,7.24-1.67,11.95-4.33,17.9-.23.52,1.25.98-.59,1.77-.57-1.37-1.71-2.4-2.56-3.54-.79-1.07-6.19-8.7-6.3-9.25-.26-1.36,1.5-7.35,1.57-9.44.28-7.91-1.22-15.72-1.18-23.61l-.79,31.48c-1.05-.39-5.4-6.27-5.51-6.69-.43-1.71-.62-9.83-.79-12.39-.39-5.95,1.39-12.12-2.75-17.9.72-.97.64-.29.98-.2.55.14,9.31,5.04,9.84,5.51,6.14,5.43,5.62,22.52,10.23,29.51l2.16-3.15Z"/>
            <path class="cls-5" d="M137.31,80.26c-1.88,1.29-6.05,3.09-7.08,3.93l-18.49-6.49-1.18.98c-3.4-1.97-6.78-4.01-10.23-5.9-3.03-1.66-6-3.98-9.05-5.51-.65-3.45-2.06-6.8-2.75-10.23.94.21.75-.6.79-1.18,5.28,3.29,10.56,6.63,16.33,9.05,6.2,2.6,24.03,6.45,27.93,9.44,1.55,1.19,2.43,4.38,3.74,5.9Z"/>
            <path class="cls-9" d="M98.36,35.02c-.72.84-.2,1.59.39,2.36,2.23,2.89,10.81,4.8,13.97,7.08,2.36,1.71,11.25,14.41,13.18,17.51.53.85,1.03,1.09,0,1.77-6.71-3.48-17.88-5.02-25.38-7.87-1.54-.58-5.58-1.88-5.7-3.54,4.7.91,9.57,1.95,14.16-.2.81-2.45-21.33-10.97-23.21-14.95-.55-1.15-1.04-5.47-1.57-7.28,4.8,1.41,9.43,3.42,14.16,5.11Z"/>
            <path class="cls-25" d="M116.07,37.38c.17.91,2.18,10.17.98,10.23l-13.57-17.11c-1.25-5.85-2.34-12.1-2.36-18.1,0-.76-.19-1.48.79-1.77,11.04,4.56,12.07,15.68,14.16,26.75Z"/>
            <path class="cls-5" d="M94.82,52.33c.12,1.66,4.17,2.96,5.7,3.54,7.5,2.85,18.67,4.39,25.38,7.87,1.62.84,2.42,1.76,3.54,3.15.87,1.08,1.89,4.18,3.15,5.31-.7,1.72-5.87-1.83-6.89-2.16-9.85-3.24-19.86-5.08-29.51-10.62-2.49-1.43-4.83-3.34-7.08-5.11-.66.61.22,1.25.2,1.57-.03.58.15,1.39-.79,1.18-.18-.91-1.31-6.48-.98-6.69,2.54.33,4.78,1.48,7.28,1.97Z"/>
            <path class="cls-25" d="M79.48,2.36l-1.97.98,17.51,17.11.98-.98c-.45-1.17-1.55-4.01-1.97-5.9-.5-2.3.83-4.98-1.97-6.89,1.58.53,3.22,1.24,4.72,1.97-.47.01-1.7-.17-1.97.2.92,6.8,1.5,14.08,6.49,19.08,1.52-1.83-.18-2.4-.2-2.56-.12-1,.11-3.79,0-4.72-.04-.31-.75-.08-.79-.39-.32-3.01,0-7.31-.39-10.43.97.32,1.18.46,1.97.79-.97.29-.79,1.01-.79,1.77.02,6,1.11,12.24,2.36,18.1l13.57,17.11c1.2-.06-.81-9.32-.98-10.23l1.18-.39c.17,2.56.35,10.68.79,12.39.11.42,4.45,6.29,5.51,6.69l.79-31.48c-.04,7.88,1.46,15.7,1.18,23.61-.07,2.09-1.84,8.08-1.57,9.44.11.55,5.5,8.18,6.3,9.25h-.79c-1.12-1.39-1.92-2.31-3.54-3.15,1.03-.68.53-.92,0-1.77-1.93-3.1-10.82-15.8-13.18-17.51-3.16-2.28-11.73-4.19-13.97-7.08l12.98,5.31c-1.2-1.13-3.31-5.08-4.52-5.7-.54-.28-7.09-1.34-8.85-1.97-4.73-1.69-9.37-3.7-14.16-5.11-.06-.21.06-.57,0-.79l22.43,6.89c-2.74-2.4-9.82-13.58-12.39-14.75-2.25-1.03-10.17-1.33-12.39,0-.26-.79-.52-1.58-.79-2.36,1.42.95,11.33,1.19,11.41.59l-15.74-15.34-1.18.98c-.65-1.38-2.75-3.54-2.16-5.11,1.96.95,4.04,1.66,6.1,2.36Z"/>
            <path class="cls-25" d="M84.2,29.11c-.78-2.62-1.51-5.27-2.36-7.87,2.22-1.33,10.14-1.03,12.39,0,2.57,1.17,9.65,12.35,12.39,14.75l-22.43-6.89Z"/>
            <path class="cls-9" d="M139.28,79.08c-.64.46-1.37.77-1.97,1.18-1.3-1.52-2.19-4.72-3.74-5.9-3.91-3-21.74-6.85-27.93-9.44-5.77-2.42-11.05-5.76-16.33-9.05.02-.32-.86-.97-.2-1.57,2.25,1.78,4.6,3.69,7.08,5.11,9.64,5.54,19.65,7.39,29.51,10.62,1.02.33,6.19,3.88,6.89,2.16-1.26-1.13-2.28-4.23-3.15-5.31h.79c.85,1.15,1.99,2.17,2.56,3.54,1.85-.79.36-1.25.59-1.77,2.66-5.95,3.34-10.66,4.33-17.9.15-1.14.27-2.39.39-3.54,1.81-1.19.54,6.36.39,7.28-.63,3.96-4.71,14.51-4.72,16.92,0,.9,3.72,7.22,4.13,7.28l10.82-32.46-9.44,32.85Z"/>
            <path class="cls-25" d="M92.07,6.69c2.79,1.91,1.46,4.58,1.97,6.89.41,1.89,1.52,4.74,1.97,5.9l-.98.98L77.51,3.34l1.97-.98c4.2,1.42,8.39,2.9,12.59,4.33Z"/>
            <path class="cls-25" d="M81.05,18.89c-1.65-4.94-3.29-9.07-5.51-13.77l1.18-.98,15.74,15.34c-.08.6-9.99.36-11.41-.59Z"/>
            <path class="cls-25" d="M96.79,8.66c1.57-.04,2.21.88,3.15,1.18.4,3.12.07,7.42.39,10.43.03.31.75.08.79.39.11.93-.12,3.72,0,4.72.02.16,1.71.73.2,2.56-4.99-5-5.57-12.28-6.49-19.08.26-.37,1.5-.18,1.97-.2Z"/>
            <path class="cls-49" d="M130.23,84.2c-1.38,1.13-.46.81-.39,1.57.08.99.56,2.79.79,3.93-3.05-.9-5.91-2.76-8.66-4.33-3.66-2.09-7.37-4.18-11.02-6.3-.02-.01.08-.12-.39-.39l1.18-.98,18.49,6.49Z"/>
            <path class="cls-9" d="M98.75,37.38c-.6-.77-1.11-1.52-.39-2.36,1.76.63,8.31,1.69,8.85,1.97,1.21.62,3.33,4.57,4.52,5.7l-12.98-5.31Z"/>
          </g>
          <g>
            <path class="cls-5" d="M219.54,38.56c-3.46,2.65-5.95,2.67-8.66,6.3-.04-.58-1.22-.48-1.57-.39-1.59-1.68.41-4.89-2.36-4.33.82-.71,1.64-1.03,2.36-1.57-.75,9.4,4.06,4.63,1.57-1.18.55-.41,3.84-3.91,4.13-3.93,1.73-.12.66,2.49,1.57,2.75.23.07,3.12-2.65,3.54-3.15.59,1.48-.3,3.88-.59,5.51Z"/>
            <path class="cls-5" d="M210.89,37.38c2.48,5.81-2.33,10.58-1.57,1.18.52-.4,1.05-.79,1.57-1.18Z"/>
            <g>
              <path class="cls-5" d="M219.54,38.56c-.71,4.04-2.03,8.02-1.97,12.2l-16.92,9.44c-1.39.56-2.76.98-3.93,1.97-4.41-6.14-7.82-7.46-.59-13.77l1.97,6.69c1.78-8.49,2.81-9.7,8.85-14.95,2.77-.56.77,2.65,2.36,4.33-1.92.44-3.97,3.79-2.16,5.11s3.12-3.9,3.74-4.72c2.7-3.63,5.2-3.65,8.66-6.3Z"/>
              <path class="cls-25" d="M210.89,44.85c-.61.82-1.97,6.02-3.74,4.72s.25-4.67,2.16-5.11c.36-.08,1.54-.18,1.57.39Z"/>
              <path class="cls-5" d="M202.03,44.85c.77-.08,2.53,7.78,1.97,8.66-.33-1.46-3.24-8.53-1.97-8.66Z"/>
            </g>
          </g>
          <g>
            <path class="cls-40" d="M35.8,104.26c3.87-.1,6.95.68,10.62,1.57,1.23,8.28,3.69,12.85,10.43,17.71l-2.56-15.34c.46.17,1.11.76,1.18.79-.72,4.96,1.07,13.01,3.93,16.92l-.79.79c-3.9-3.94-5.11-5.13-10.82-5.9-2.07-.28-6.41-.34-8.46.39-5.2-3.4-4.18-3.97-6.69-9.44l9.44,1.38c-2.92-2.71-6.58-2.74-10.23-3.74-.19-.45-.9-1.26-1.18-1.97l4.13.39c.21-.88-1.59-1.89-2.16-2.36.34-.57.41-1.36,1.18-1.57-.34,1.34-.41.68.2,1.57,1.17,1.72,4.7,3.91,6.3,5.51.82-2.61-4.02-4.25-4.52-6.69Z"/>
            <path class="cls-15" d="M58.62,126.69c.93.94,2.1,1.7,2.95,2.75l-.39.79-17.51-.39c-.68-.03-2.67-.11-2.75.59-.01.11,1.81.96.39,2.16-1.59-5.64-5.49-5.04,1.97-9.25-.04-.32-3.28-1.74-3.93-2.16,2.05-.73,6.38-.67,8.46-.39,5.71.77,6.92,1.97,10.82,5.9Z"/>
            <path class="cls-15" d="M66.1,113.71c2.24,1.28,4.58,2.44,6.69,3.93l-.2,22.03c-9.2-7.16-7.8-15.7-7.67-26.36.15.08.73.14,1.18.39Z"/>
            <path class="cls-17" d="M64.92,113.31c-.12,10.67-1.52,19.2,7.67,26.36l.2-22.03.39.79c-.2,4.82-.86,10.36-.39,15.15.15,1.57,1.72,10.25,3.34,10.03.71-6.38-.07-13.51,3.34-19.28.03.11-.01.26,0,.39.16,1.51-2.14,7.97-2.36,10.43-.15,1.72-.32,8.47,0,9.84.36,1.55,6.61,8.09,8.26,9.44-.2-5.86.61-12.33,3.54-17.51.05.2,0,.53,0,.79.02,1.73-2.42,7.39-2.75,10.03-.31,2.38-.62,5.34,0,7.67.17.63.5,1.39.79,1.97-.76.65-.8-.04-1.18,0-4.85-8.07-11.38-9.97-20.46-10.23,3.9-1.49,8.96.72,12.79,1.57-4.73-9.81-10.78-8-19.87-8.66-.87-.06-1.5-.4-2.36-.39v-.39c4.65-.57,10.53.37,15.15,1.18-1.46-3.08-7.01-9.34-10.23-9.84-4.28-.65-11.07-.06-15.93-.39-.33-.02-.43-.36-1.18-.39l17.51.39.39-.79c-.85-1.05-2.02-1.81-2.95-2.75l.79-.79c.8,1.09,4.06,4.03,5.51,4.52l-.79-17.51c.26.14.5.24.79.39Z"/>
            <path class="cls-15" d="M64.13,112.92l.79,17.51c-1.45-.5-4.71-3.43-5.51-4.52-2.86-3.91-4.65-11.96-3.93-16.92,3.15,1.21,5.68,2.38,8.66,3.93Z"/>
            <path class="cls-47" d="M54.3,108.2l2.56,15.34c-6.74-4.85-9.2-9.43-10.43-17.71,2.64.65,5.32,1.44,7.87,2.36Z"/>
            <path class="cls-47" d="M32.66,111.74c-.41-.89-.53-1.75-.79-2.36,3.65.99,7.31,1.03,10.23,3.74l-9.44-1.38Z"/>
            <path class="cls-47" d="M35.8,104.26c.51,2.44,5.34,4.08,4.52,6.69-1.59-1.6-5.13-3.79-6.3-5.51-.61-.9-.53-.24-.2-1.57.38-.11,1.12.41,1.97.39Z"/>
            <path class="cls-22" d="M32.66,105.44c.57.47,2.37,1.48,2.16,2.36l-4.13-.39c-.24-.6-1.95-4.05-1.38-4.33.86,1.16,2.29,1.49,3.34,2.36Z"/>
            <path class="cls-15" d="M88.92,136.92c-2.94,5.18-3.74,11.65-3.54,17.51-1.66-1.35-7.9-7.89-8.26-9.44-.32-1.36-.15-8.11,0-9.84.22-2.46,2.52-8.92,2.36-10.43,1.41,2.34,8.95,10.3,9.44,12.2Z"/>
            <path class="cls-41" d="M96.39,143.61c-.07.05.08.7,0,.79-2.41,2.86-5.41,8.19-5.9,11.8-.9-1.4-2.79-.59-4.33-.79-.62-2.34-.31-5.29,0-7.67.34-2.64,2.78-8.31,2.75-10.03l5.31,7.48c.61.13,1.42-1.23,2.16-1.57Z"/>
            <path class="cls-15" d="M79.48,124.33c-3.42,5.77-2.63,12.9-3.34,19.28-1.63.22-3.19-8.46-3.34-10.03-.47-4.78.2-10.33.39-15.15,1.18.31,6.14,5.37,6.3,5.9Z"/>
            <path class="cls-15" d="M55.87,139.28c-.44.05-1.33-.19-1.57.2l.59,6.89-2.56-7.67-.79.39,4.13,13.18c-3.15-4.44-6.16-8.55-7.28-13.97-.45-2.19.81-2.22.79-2.36-.21-1.24-4.02-4-4.33-5.7,4.86.33,11.66-.26,15.93.39,3.22.49,8.77,6.76,10.23,9.84-4.62-.81-10.5-1.75-15.15-1.18Z"/>
            <path class="cls-15" d="M65.31,147.15c-.31.12-.95-.21-1.18.2.83,1.71-.38,1.84-.39,1.97-.09,1.01.4,6.41,0,7.08-1.54,2.55-1.1-7.04-1.18-7.48-.4-2.22-3.38-6.54-4.33-8.85,9.09.65,15.13-1.16,19.87,8.66-3.83-.86-8.89-3.07-12.79-1.57Z"/>
            <path class="cls-41" d="M85.77,157.38c.38-.04.43.65,1.18,0,.12.25,3.16,4.12,3.93,3.93-.03.9.08,1.86,0,2.75-1.78-.53-1.96-1.97-3.15-3.15-.14-.14-.45-1.4-1.38-1.97-.86-.53-3.03-.91-4.13-1.18-1.61-.4-3.26-.46-4.92-.39-.78-.73,1.85-1.18,1.97-1.18,2.33-.02,4.13,1.44,6.49,1.18Z"/>
            <path class="cls-39" d="M90.49,156.2c-.35,2.56.45,3.5.39,5.11-.78.19-3.81-3.68-3.93-3.93-.28-.58-.62-1.34-.79-1.97,1.54.2,3.43-.62,4.33.79Z"/>
          </g>
          <g>
            <path class="cls-13" d="M72.79,60.59c4.02,8.18,4.16,17.23,4.33,26.16l12,11.61.98-19.67c.34,4.89-.65,17.64,0,20.66.13.58,7.21,7.68,8.46,8.46l1.77-30.69c.29,5.17.49,10.35.39,15.54-.08,4.53-2.22,13.26-1.18,17.31.27,1.04,4.77,5.37,5.51,6.49.65,1,1.31,1.96,1.97,2.95.44.66-.81.55-.79.59h-.39c-1.64-2.37-3.51-5.02-5.51-7.08-3.4-3.52-4.62-4.22-9.25-6.3-8.61-3.87-18.83-6.03-27.74-9.25-.05-1.04,7.78,1.07,8.85,1.38,7.78,2.21,15.5,6.15,23.21,8.66-2.96-3.22-7.86-10.44-11.41-12.59s-13.95-4.18-18.49-5.11c-.44-.09-.95,1.47-2.75-.79l-8.46-.79c-2.74-1.18-1.77-2.42-3.15-4.13-7.88-9.83-14.76-20.51-24-29.11,12.77-1.04,24.38,2.02,36.79,3.74,3.77,5.46,4.3,12.65,8.66,17.71,2.34-.35-1.8-14.56-3.34-15.93,1.01-1.37,2.47-.04,3.54.2Z"/>
            <path class="cls-25" d="M100.33,112.92l-18.69-.39c-2.45-1.09-5.12-1.6-7.67-2.36-4.24-1.27-8.24-3.72-12.59-4.72-1.17-1.95-9.3-15.39-9.05-16.33.67-2.48,4.92,2.72,5.31,2.95,1.18.68,11.95,4.18,12,2.56-4.12-4.95-10.59-4.44-15.34-6.49l8.46.79c1.81,2.26,2.31.7,2.75.79,4.54.94,14.82,2.89,18.49,5.11s8.45,9.37,11.41,12.59c-7.71-2.51-15.43-6.44-23.21-8.66-1.08-.31-8.9-2.42-8.85-1.38,8.91,3.22,19.13,5.38,27.74,9.25,4.62,2.08,5.84,2.78,9.25,6.3Z"/>
            <path class="cls-25" d="M91.28,67.28c3.05,1.53,6.02,3.85,9.05,5.51-.86,1.42-.09,2.81,0,4.33l-1.77,30.69c-1.25-.78-8.33-7.87-8.46-8.46-.65-3.02.34-15.77,0-20.66-.29-4.11-1.15-8.1-1.57-12.2.68.32,2.26.54,2.75.79Z"/>
            <path class="cls-9" d="M73.97,110.16l3.54,2.75c-2.36-.34-7.7.92-10.43-.39-.31.19-.42.49-.59.79-2.34-2.17-3.52-5.2-5.11-7.87,4.35,1,8.35,3.45,12.59,4.72Z"/>
            <path class="cls-25" d="M110.56,78.69c.47.27.37.38.39.39-1.06,11.24-1.87,22.42-4.33,33.44-.27,1.21-.46,3.21-1.57,3.93-.74-1.13-5.24-5.46-5.51-6.49-1.04-4.05,1.1-12.78,1.18-17.31.09-5.19-.1-10.37-.39-15.54-.09-1.52-.86-2.9,0-4.33,3.45,1.89,6.83,3.93,10.23,5.9Z"/>
            <path class="cls-9" d="M100.33,112.92c2,2.06,3.87,4.71,5.51,7.08-9.56,1.48-20.16-5.92-28.33-7.08l-3.54-2.75c2.55.77,5.22,1.27,7.67,2.36l18.69.39Z"/>
            <path class="cls-9" d="M117.64,110.95c-1.25,2.46-2,5.04-3.15,7.48-.47-.15-.53-.48-1.18-.39-.48.07-5.86,1.85-5.9,2.16l4.33,4.13c-.13.16.35,1.05-.98.79-1.7-1.61-3.25-3.11-4.52-5.11-.03-.04,1.22.07.79-.59-.66-.99-1.31-1.96-1.97-2.95,1.12-.72,1.31-2.73,1.57-3.93,3.65-.12,6.97-1.75,10.03-3.54l.98,1.97Z"/>
            <path class="cls-49" d="M111.74,124.33l-4.33-4.13c.04-.31,5.42-2.1,5.9-2.16.28,1.13-1.01,5.61-1.57,6.3Z"/>
            <g>
              <path class="cls-13" d="M88.53,66.49c.42,4.1,1.29,8.09,1.57,12.2l-.98,19.67-12-11.61c-.16-8.94-.31-17.99-4.33-26.16,6.72,1.47,9.78,3.13,15.74,5.9Z"/>
              <path class="cls-27" d="M82.43,72c2.18-.19,2.15,5.72.39,6.3-3.53,1.16-2.24-6.14-.39-6.3Z"/>
            </g>
            <path class="cls-25" d="M121.97,85.38l-3.54,21.05.79.39,3.15-3.34c-1.71,2.42-3.37,4.83-4.72,7.48l-.98-1.97c-3.07,1.79-6.38,3.42-10.03,3.54,2.46-11.02,3.27-22.2,4.33-33.44,3.65,2.12,7.35,4.2,11.02,6.3Z"/>
            <path class="cls-25" d="M130.62,89.71c.05.24,1.32,2.24,1.18,2.95-.04.2-2.32,2.41-2.75,2.95-2.22,2.74-4.48,4.74-6.69,7.87l-3.15,3.34-.79-.39,3.54-21.05c2.74,1.57,5.61,3.43,8.66,4.33Z"/>
          </g>
          <path class="cls-35" d="M110.95,151.87c.25,4.35-1.11,8.58-1.18,12.79-.01.85,1.39,7.67.59,7.28-3.02-5.67-7.24-12.08-8.85-18.3-.02-.09.81-.69.79-.79-.13-.55-3.18-3.2-1.18-6.1.08-.13,1.45-1,1.57-1.18,1.7,2.51,5.4,1.71,8.07,2.36-.63,1.83.13,2.81.2,3.93Z"/>
          <path class="cls-49" d="M112.13,149.51l-1.18,2.36c-.06-1.13-.83-2.11-.2-3.93-2.66-.65-6.37.15-8.07-2.36,2.84-3.92,6.03-7.58,8.46-11.8.2,5.28.23,10.5.98,15.74Z"/>
          <g>
            <path class="cls-5" d="M44.46,181.77c-2.57,1.96-7.37,1.58-8.46,3.93-1.9.73-5.39-2.71-7.28-3.15-.83-3.45-4.92-6.14-5.9-9.44-1.5-5.06,2.08-5.49,2.36-7.67.19-1.49-2.49-6.36-1.97-8.46,1.62,3.23,13.34,8.38,15.34,10.82.55.67,3.79,8.99,3.34,9.25-2.4-1.66-5.39-2.46-7.87-3.93-2.65-1.58-5.8-5.17-7.87-6.3-.46-.25-.84-.98-.98.2.07.51,5.24,4.73,6.1,5.31,5.38,3.68,10.35,3.24,13.18,9.44Z"/>
            <path class="cls-5" d="M43.67,151.08c.17.59.48,2.93.98,3.15.22.09,1.6-.32,2.16-.39l-5.31,18.49c-.6-3.07-4.57-8.52-4.92-11.21-.45-3.47,1.43-10.81,1.18-14.75,2.02,1.52,3.97,3.09,5.9,4.72Z"/>
            <path class="cls-9" d="M36.59,145.57l-.98,13.77-11.61-20.46c4.77,1.09,8.71,3.95,12.59,6.69Z"/>
            <path class="cls-9" d="M22.82,156.59c-.39-1.35.12-5.27,0-7.08,2.23,2.49,8.32,4.27,10.23,6.49,1.65,1.92,3,7.58,4.72,9.84l-14.95-9.25Z"/>
            <path class="cls-9" d="M22.82,148.72c-.11-2.72-.84-6.48-.39-9.05l9.44,13.97-9.05-4.92Z"/>
            <path class="cls-5" d="M59.02,166.03c1.46,4.8-2.13,7,5.11,7.28-.73,1.04-1.06,2.22-1.57,3.34-.97,2.14-4.23,5.02-.79,5.11-4.93.71-9.87,1.61-14.75,2.36-.74-.32-.77-1.67-.98-1.97.49-1.45.99-2.92,1.57-4.33,1.71-4.17,3.51-8.37,5.11-12.59l5.7-1.18c.5.26.47,1.56.59,1.97Z"/>
            <path class="cls-5" d="M56.26,159.35c-.6-.2-1.33-.23-1.77-.79-.18,1.12-.26,2.03-.59,3.15l-6.3,16.13c-.58,1.41-1.08,2.88-1.57,4.33-6.84-9.6-.82-19.12,1.97-29.11,2.46.2,6.78,4.3,8.26,6.3Z"/>
            <path class="cls-49" d="M70.43,175.48c.84,1.22,1.7,2.01,1.97,3.54.06.35-.65.44,0,1.18-3.55.46-7.09,1.06-10.62,1.57-3.44-.1-.19-2.98.79-5.11,2.88-.6,4.68-2.36,7.87-1.18Z"/>
            <path class="cls-25" d="M52.72,165.25c-1.6,4.22-3.4,8.42-5.11,12.59l6.3-16.13c-.43,1.46-.64,2.12-1.18,3.54Z"/>
          </g>
          <g>
            <path class="cls-49" d="M59.02,160.53c-.19-.12-2.45-1.08-2.75-1.18-1.48-1.99-5.8-6.1-8.26-6.3-1.07-.09-1.11.78-1.18.79-.57.07-1.95.48-2.16.39-.51-.21-.82-2.56-.98-3.15-1.68-5.93-.71-12.23-1.97-17.71,2.42,0,.73,3.59,1.18,5.31l.98-3.34,4.52,7.28-5.51-3.15c2.68,3.07,6.85,4.4,8.66,8.26l-8.26-3.54c4.54,2.97,9.63,4.3,12.2,9.44-.34,1.15-9.33-3.5-10.03-3.74-.44-.15-1.26-1.09-1.38.2,5.1,3.38,14.34,3.16,14.95,10.43Z"/>
            <path class="cls-5" d="M43.67,129.84c.75.03.85.37,1.18.39.31,1.7,4.12,4.46,4.33,5.7.02.14-1.24.17-.79,2.36,1.12,5.41,4.12,9.53,7.28,13.97l-4.13-13.18.79-.39,2.56,7.67-.59-6.89c.25-.38,1.13-.14,1.57-.2v.39c-.05,3.64-.14,10.65.79,13.97.51,1.8,3.45,4.81,4.33,6.69.31.65.53,1.1-.39,1.38-.68-.61-.8-.69-1.57-1.18-.61-7.26-9.85-7.05-14.95-10.43.12-1.29.94-.35,1.38-.2.7.24,9.69,4.88,10.03,3.74-2.57-5.14-7.65-6.47-12.2-9.44l8.26,3.54c-1.8-3.86-5.98-5.2-8.66-8.26l5.51,3.15-4.52-7.28-.98,3.34c-.45-1.72,1.24-5.31-1.18-5.31,0-.04-.18-.04-.39-.79,1.42-1.21-.41-2.05-.39-2.16.08-.7,2.07-.62,2.75-.59Z"/>
            <path class="cls-35" d="M85.77,157.38c-2.36.26-4.16-1.2-6.49-1.18-.11,0-2.75.45-1.97,1.18,1.66-.07,3.31,0,4.92.39.83,3.74-1.8,7.03-2.75,10.62-3.43,1.31-5.74,1.32-9.44,1.18l3.34-17.31-.98,1.38c.59,5.04-2.24,10.23-3.15,15.54-.76-.05-3.01-.87-3.15.2.94,2.57,3.01,4.17,4.33,6.1-3.19-1.18-4.98.58-7.87,1.18.51-1.13.85-2.31,1.57-3.34-7.24-.28-3.66-2.48-5.11-7.28,1.2-.38,2.77.76,3.93,1.18.42.15,2.2,1.29,2.36.98-3.93-6.41.2-13.81,0-21.05,9.08.26,15.61,2.16,20.46,10.23Z"/>
            <path class="cls-49" d="M58.23,140.07c.95,2.31,3.92,6.63,4.33,8.85.08.43-.36,10.02,1.18,7.48.4-.67-.09-6.08,0-7.08.01-.12,1.22-.26.39-1.97.24-.41.87-.08,1.18-.2.2,7.24-3.93,14.64,0,21.05-.16.31-1.94-.83-2.36-.98.73-1.3-1.32-4.57-2.36-5.51.93-.28.7-.72.39-1.38-.88-1.88-3.82-4.88-4.33-6.69-.93-3.32-.83-10.32-.79-13.97.86,0,1.49.33,2.36.39Z"/>
            <path class="cls-49" d="M56.26,159.35c.31.1,2.56,1.06,2.75,1.18.77.49.89.57,1.57,1.18,1.04.93,3.09,4.21,2.36,5.51-1.17-.42-2.74-1.56-3.93-1.18-.12-.4-.09-1.7-.59-1.97l-5.7,1.18c.54-1.42.75-2.08,1.18-3.54.33-1.12.41-2.02.59-3.15.44.56,1.17.59,1.77.79Z"/>
            <path class="cls-12" d="M90.89,164.07c-.05.58-1.23,2.28-1.57,2.95.61,1.05,1.87-.57,2.36-.98,3.31.29,4.85,5.43,7.08,7.48-.22.34-.52,2.55-1.38,3.15l-24.98,2.36c-.27-1.53-1.13-2.32-1.97-3.54-1.32-1.92-3.39-3.53-4.33-6.1.14-1.07,2.39-.24,3.15-.2.04,0-.2.36.79.39,3.7.14,6.01.13,9.44-1.18,4.72-1.8,5.09-3.89,8.26-7.48,1.19,1.18,1.37,2.61,3.15,3.15Z"/>
            <path class="cls-12" d="M98.75,173.51c-2.23-2.05-3.77-7.19-7.08-7.48,3.08-2.63,5.86-6.31,7.08-10.23l1.57-.59c-.59,8.29,3.15,10.85-1.57,18.3Z"/>
            <path class="cls-35" d="M87.74,160.92c-3.17,3.58-3.55,5.67-8.26,7.48.96-3.59,3.58-6.88,2.75-10.62,1.1.27,3.27.65,4.13,1.18.92.57,1.24,1.83,1.38,1.97Z"/>
            <path class="cls-49" d="M70.03,169.57c-.99-.04-.74-.39-.79-.39.91-5.31,3.73-10.5,3.15-15.54l.98-1.38-3.34,17.31Z"/>
          </g>
        </g>
        <g>
          <path class="cls-13" d="M264.59,14.16c2.54-1.52,20.73,17.09,23.02,19.87,5,6.06,12.25,15.55,12,23.41-6.86-5.81-14.42-14.47-24.39-12.98l-7.28,2.95c3.03-3.58.59-3.25.39-6.3-.61-9.63.56-17.59-3.74-26.95Z"/>
          <path class="cls-49" d="M292.33,167.21l.59,1.97,4.92,5.51c-15.98-.95-31.99-1.49-48-1.97-.09-5.67.27-11.27.39-16.92,0-.39,0-.79,0-1.18,5.14-1.14,6.29-3.99,8.66-8.26,1.4-2.54,2.45-1.81,1.57-5.9,8.05,10.74,19.44,21.31,31.87,26.75Z"/>
          <g>
            <path class="cls-5" d="M417.05,163.67c.23.99-.17,2.63,0,3.74.39.68,1.86-.39,2.36-.59,1.8,2.27,1.91,3.18,1.57,5.9l-24,5.9c.63-1.11,1.33-3.83,2.16-4.72,3-3.21,13.93-7.27,17.9-10.23Z"/>
            <path class="cls-5" d="M416.27,155.02c.16,2.31-.5,4.46,0,7.48l-16.52,10.03c2.28-10.13,7.73-13.33,16.52-17.51Z"/>
            <path class="cls-9" d="M415.48,145.18c.14,3.14.58,6.26.79,9.44l-11.02,5.31c-.15-3.12,9.39-14.86,9.44-15.93.22.07.78,1.11.79,1.18Z"/>
            <path class="cls-48" d="M420.99,173.9c-.21.88-1.43,3.24-1.97,3.93-3.43,4.43-12.68,8.2-.39,11.8-.44,1.05-1.57.95-1.57,1.97-7.56-2.79-15.54-4.21-23.41-5.9-.25-.25,2.22-5.16,2.56-5.9l24.79-5.9Z"/>
            <path class="cls-5" d="M394.23,180.2c-3.2.11-5.6-1.7-8.46-2.75l-.59.59c1.31.85,3,2.33,3.93,3.54.14.18,2.03,2.45.98,2.56-3.88-4.48-7.29-9.12-13.57-9.05.44-1.01.63-1.68.79-2.75.41-2.84,0-6.51,3.34-7.87,2-.81,3.77.33,5.31-1.57,1.13.58,7.95,15.47,8.26,17.31Z"/>
            <path class="cls-5" d="M395.02,155.8c.73,2.53.62,5.57,1.18,8.07.34,1.49,2.76,7.45,2.75,7.87-.01.8-3.29,6.36-3.74,7.67-1.08.03-6.41-16.17-8.85-17.31-.1-.05-.27.04-.39,0-.29-1.68.73-7.27,2.56-7.87,2.21-.73,5.23.24,6.49,1.57Z"/>
            <path class="cls-49" d="M376.53,175.08c6.28-.07,9.7,4.57,13.57,9.05,1.05-.1-.84-2.38-.98-2.56-.93-1.21-2.63-2.7-3.93-3.54l.59-.59c2.86,1.05,5.26,2.86,8.46,2.75.31,1.85-.84,3.3-1.77,5.11-7.88-1.46-15.84-2.87-23.8-3.93,1.79-5.18,2.25-6.23,7.87-6.3Z"/>
            <path class="cls-5" d="M402.89,147.15c-.02,3.31,1.98,9.01,1.57,12-.36,2.66-4.62,8.09-4.72,11.41-1.08-.32-2.14-3.81-2.36-4.72-.67-2.75-.29-6.65-1.57-9.25,2.56.51,1.49-1.81,1.97-3.15.07-.19-.07-.62,0-.79,1.13-2.68,2.9-3.78,5.11-5.51Z"/>
            <path class="cls-9" d="M414.69,143.21l-9.25,13.38c-1.04-.03-1.53-9.41-1.38-10.62,2.91-1.83,7.21-4.01,10.62-2.75Z"/>
            <path class="cls-9" d="M420.99,172.72c-.05.38.08.84,0,1.18l-24.79,5.9c.22-.49.62-.88.79-1.18l24-5.9Z"/>
          </g>
          <path class="cls-35" d="M320.66,114.1c.34.34.34,1.14.39,1.18-2.58,2.11-2.36,4.15-3.15,6.69-.01.04-.19.07-.39.79-.81,2.8-1.35,5.8-1.97,8.66-.56,2.6-3.29,13.05-2.75,14.75.34,1.09,2.76,1.23,2.36,2.95-9.09-3.31-16.08-9.64-20.46-18.3-.37-.73-1.04-1.71-.39-2.56,2.62.32,13.3-8.05,15.34-10.23,3.69-.58,7.6-2.43,11.02-3.93Z"/>
          <g>
            <path class="cls-35" d="M439.87,164.07c-3.68.75-6.74,2.18-9.05,5.31,1.9,2,5.29-2.23,5.9,1.38-3.08,7.45-7.32,20.38-5.9,28.33-4.13-3.45-8.76-5.63-13.77-7.48,0-1.02,1.14-.91,1.57-1.97.05-.12-.04-2.43,0-2.56.04-.14,1.43-1.13,1.57-2.36s-1.81-5.02-1.18-6.89c.53-.69,1.76-3.05,1.97-3.93.08-.34-.05-.8,0-1.18.33-2.73.23-3.63-1.57-5.9,1.55-.61,4.17-2.63,5.7-3.15,4.85-1.64,11.14-2.48,15.93-.59-.14.36-1.13.91-1.18.98Z"/>
            <path class="cls-49" d="M439.87,164.07c-1.27,2.01-2.23,4.47-3.15,6.69-.61-3.61-4,.63-5.9-1.38,2.31-3.13,5.37-4.56,9.05-5.31Z"/>
            <path class="cls-35" d="M418.63,189.64c-12.28-3.6-3.03-7.37.39-11.8-.63,1.87,1.33,5.63,1.18,6.89s-1.53,2.22-1.57,2.36c-.04.12.05,2.44,0,2.56Z"/>
          </g>
          <g>
            <path class="cls-15" d="M417.84,141.25c-.73,1.28-1.1,3-2.36,3.93,0-.07-.56-1.11-.79-1.18.01-.26,0-.53,0-.79-3.41-1.25-7.71.93-10.62,2.75-.7.44-.88.95-1.18,1.18-2.21,1.72-3.99,2.82-5.11,5.51l-17.71.98c-.31-.77,11.32-9.8,12.98-10.43,7.58-2.85,16.8-.24,24.79-1.97Z"/>
            <path class="cls-47" d="M421.38,134.95c-.96,1.66-1.81,3.43-2.75,5.11l-24,1.38c6.78-5.39,9.3-7.77,18.3-7.67,2.22.02,6.46.19,8.46,1.18Z"/>
            <path class="cls-47" d="M409.18,119.61c1.43-.2.1,3.1,0,3.34-3.12,7.55-8.87,13.71-15.74,17.9.96-5.98,4.37-12.41,3.93-18.49.56-.67,3.56-1.6,3.93-.39-.23.83-.97,3.89-.59,4.72,2.59-3.86,4.17-5.44,8.46-7.08Z"/>
            <path class="cls-40" d="M432,119.21c-.35.41-.74,1.02-1.18,1.57-3.76,1.34-6.96,2.55-10.23,4.13l6.3.98c-.38.55-.91,1.18-1.18,1.57-8.42-2.52-12.89,1.69-19.67,5.7l16.13.59c-.24.41-.6.86-.79,1.18-1.99-.99-6.24-1.16-8.46-1.18-8.99-.1-11.51,2.28-18.3,7.67l24-1.38c-.24.43-.61.88-.79,1.18-7.99,1.73-17.21-.88-24.79,1.97l1.18-.98c-.13-1.01-1.08.44-.79-1.38,6.86-4.19,12.61-10.35,15.74-17.9.1-.25,1.43-3.54,0-3.34.35-.13,1.09-.64,1.57-.79.84,5.16-5.5,10.26-6.69,13.57-.16.44-.72.26.2.98,2.64-2.16,6.44-3.72,8.85-6.1.5-.5,6.79-8.18,7.08-8.66.38-.63.49-1.13,0-1.77.38-.06.8.06,1.18,0l-6.49,9.84c5.12-1.91,7.71-5.42,10.62-9.84,1.16,1.81-2.92,3.77-2.75,5.51l11.02-6.3-4.13,3.34,2.36-.2Z"/>
            <path class="cls-47" d="M425.71,127.48c-1.15,1.72-2.42,4.38-3.54,6.3l-16.13-.59c6.78-4.02,11.25-8.22,19.67-5.7Z"/>
            <path class="cls-47" d="M410.76,118.82c2.39-.73,6.88-1.55,9.44-1.97.49.64.38,1.14,0,1.77-.29.48-6.58,8.16-7.08,8.66-2.41,2.37-6.22,3.94-8.85,6.1-.92-.72-.35-.55-.2-.98,1.19-3.31,7.53-8.41,6.69-13.57Z"/>
            <path class="cls-22" d="M432,119.21l-2.36.2,4.13-3.34-11.02,6.3c-.16-1.74,3.92-3.7,2.75-5.51-2.91,4.41-5.51,7.92-10.62,9.84l6.49-9.84c4.51-.68,9.02-1.27,13.57-1.57l.39.79c-.08.47-2.86,2.58-3.34,3.15Z"/>
            <path class="cls-22" d="M430.82,120.79c-1.36,1.7-2.69,3.31-3.93,5.11l-6.3-.98c3.27-1.58,6.47-2.79,10.23-4.13Z"/>
            <path class="cls-15" d="M369.84,135.35c1.96,10.06,4.16,25.72-5.9,32.07l-2.36-22.23c1.1-1.82,1.62-5.13,2.75-6.69,1.01-1.38,4.02-2.23,5.51-3.15Z"/>
            <path class="cls-41" d="M359.61,173.51c-.63.17-1.69-.15-2.36,0-.51-.58-.27-1.06-.39-1.57.52-4.68-1.9-9.12-2.75-13.57l-.79.59c-.11-.16-.87-.49-1.18-.39,2.64-2.76,6.17-8.09,8.26-11.41.28-.44.38-.37.39-.39,1.7,8.33,5.41,20.09-1.18,26.75Z"/>
            <path class="cls-47" d="M373.77,157.77l.79.79c-.97.97-2.97,2.01-2.95,3.54,3.81-.1,10.87-1.18,14.36,0,.12.04.29-.05.39,0-.05.21-.29.66-.39.79-1.29-.66-14.05-.57-15.54,0-2.02.77-6.93,8.51-8.85,9.84-1,.68-.93.52-1.97.79,6.59-6.66,2.88-18.43,1.18-26.75.19-.3.42-.97.79-1.57l2.36,22.23c10.06-6.35,7.86-22.01,5.9-32.07.02-.01-.07-.12.39-.39,2.69,8.23,2.34,17.04.39,25.38,1.19-.58,2.15-1.69,3.15-2.56Z"/>
            <path class="cls-12" d="M339.94,167.61c.12,1.68-.05,6.89,1.77,7.48,2.92.95,11.21-.96,14.36-1.57.36-.07.82.08,1.18,0,.67-.15,1.73.17,2.36,0,1.04-.27.97-.1,1.97-.79l15.74-.39c-.16,1.08-.35,1.74-.79,2.75-5.62.06-6.08,1.12-7.87,6.3-23.53-3.14-47.1-5.28-70.82-6.69l-4.92-5.51-.59-1.97c14.26,6.25,33.27,6.97,47.61.39Z"/>
            <path class="cls-41" d="M397.77,153.44c-.48,1.34.59,3.65-1.97,3.15-.3-.62-.59-.58-.79-.79-1.26-1.33-4.28-2.3-6.49-1.57-1.83.6-2.85,6.19-2.56,7.87-3.49-1.18-10.56-.1-14.36,0-.02-1.53,1.98-2.57,2.95-3.54,6.93-6.94,14.06-4.45,23.21-5.11Z"/>
            <path class="cls-15" d="M373.77,157.77c-1,.87-1.96,1.97-3.15,2.56,1.95-8.34,2.3-17.15-.39-25.38,2.44-1.45,4.95-2.67,7.48-3.93-.95,6.17,2.59,17.64,0,23.02-.34.7-3.14,3.05-3.93,3.74Z"/>
            <path class="cls-15" d="M387.94,126.69c-1.69,8.69-.59,20.59-8.85,25.97l-.98-21.64c3.26-1.63,6.53-2.86,9.84-4.33Z"/>
            <path class="cls-15" d="M397.38,122.75c-2.18,3.89-2.39,13.47-4.72,17.9-1.52,2.89-4.87,4.1-6.89,6.49l2.95-20.85c2.81-1.24,5.45-3.26,8.66-3.54Z"/>
            <path class="cls-40" d="M393.45,140.85c-.29,1.82.66.37.79,1.38l-1.18.98c-1.67.63-13.3,9.65-12.98,10.43l17.71-.98c-.07.17.07.59,0,.79-9.16.67-16.29-1.82-23.21,5.11l-.79-.79c.79-.69,3.6-3.04,3.93-3.74,2.59-5.38-.95-16.85,0-23.02.1-.05.29.05.39,0l.98,21.64c8.26-5.38,7.17-17.28,8.85-25.97.15-.07.43-.24.79-.39l-2.95,20.85c2.01-2.4,5.37-3.6,6.89-6.49,2.33-4.44,2.54-14.01,4.72-17.9.06-.1-.06-.32,0-.39.44,6.08-2.98,12.51-3.93,18.49Z"/>
            <path class="cls-41" d="M353.31,158.95c1.07,1.45,2.98,10.58,3.54,12.98.12.52-.11.99.39,1.57-.36.08-.82-.07-1.18,0-.51-1.86-8.42-5-9.25-4.72-.67.23-.62,2.01-1.18,1.97-.29-.02-2-4.53-2.56-5.11,2.65-1.53,6.93-4.87,9.05-7.08.32-.1,1.07.24,1.18.39Z"/>
            <path class="cls-39" d="M343.08,165.64c.55.59,2.27,5.09,2.56,5.11.56.04.51-1.74,1.18-1.97.83-.28,8.73,2.86,9.25,4.72-3.16.62-11.44,2.52-14.36,1.57-1.82-.59-1.65-5.8-1.77-7.48.17-.08,2.44-1.56,3.15-1.97Z"/>
            <path class="cls-15" d="M356.85,171.94c-.56-2.4-2.47-11.54-3.54-12.98l.79-.59c.85,4.45,3.28,8.9,2.75,13.57Z"/>
            <path class="cls-41" d="M385.97,162.89c-1.55,1.9-3.31.76-5.31,1.57-3.34,1.36-2.93,5.03-3.34,7.87l-15.74.39c1.93-1.33,6.83-9.07,8.85-9.84,1.49-.57,14.25-.66,15.54,0Z"/>
          </g>
          <g>
            <path class="cls-9" d="M345.84,49.97c.03.65-.03,1.32,0,1.97-1.04,1.11-.32,1.8-1.77,3.15-5.3,4.93-16.73,8.18-22.23,13.57l24.39-13.97c.24,4.84.23,9.72.39,14.56l-1.38-5.9c-1.07-.13-15.65,9.44-19.28,9.84-2.04.22-4.73-2.5-6.49-1.57-.17-.1-.39-.16-.79-.39l3.15-8.26c4.55-.83,19.47-13.82,22.23-14.16,1.66-.21.39,1.34,1.77,1.18Z"/>
            <path class="cls-25" d="M337.58,31.48l-5.51,9.64,4.72-1.18c-4.4,2.24-6.83,4.38-8.66,9.05.22.28,4.05.85,4.72.98-4.96,3.68-8.94,6.45-11.02,12.59v.39l-3.15,8.26c-.16-.09-.37-.15-.79-.39.28-1.91,1.53-3.7,1.97-5.51.82-3.41-.28-7.89-.39-12-.02-.72.39-1.94-.79-1.77-.06-3.39-1.08-10.7,0-13.57.77-2.04,8.55-8.33,10.62-10.03.22.96-1.45,1.95-1.57,2.95-.1.81,3.2,8.2,3.15,8.66-.08.7-6.25,5.27-2.95,7.67,1.81-4.23,4.74-7.51,6.1-12,.05-.18,1.12-.34,1.18-.79.27-1.9-.74-4.93-.39-8.07l.79,5.7.59.59c.25-.77,1.15-.99,1.38-1.18Z"/>
            <path class="cls-5" d="M347.02,86.56c-1.75,3.8-2.26,6.81-1.97,11.02l-.39-.39c-.23-1.83-.2-7.12-.79-8.26s-21.9,11.33-24.79,10.23c1.48-3.7,3.49-5.98,4.72-10.23,3.07.24,22.08-10,22.43-11.21.07-.26-.85-4.38-.39-5.31.27-.14.49-.34.79-.39.14,4.83.71,9.7.39,14.56Z"/>
            <path class="cls-25" d="M318.69,51.54c1.18-.17.77,1.05.79,1.77.12,4.11,1.21,8.59.39,12-1.81-1.45-2.4.77-2.56.79-2.29.24-7.52-4.21-9.25-6.1-1.53-1.68-2.44-3.99-3.93-5.7,3.11-4.65,6.85-8.68,10.82-12.59.9.13,1.38,13.01,4.13,13.57-.7-.99-.37-2.57-.39-3.74Z"/>
            <path class="cls-9" d="M346.63,69.25c.03.91-.03,1.84,0,2.75-.29.06-.52.26-.79.39-6.63,3.33-13.04,7.18-20.46,8.66.18-1.96.47-3.92.39-5.9.06-.48-.65-.65-.79-.79-.55-.54-4.23-2.02-5.51-2.75,1.76-.92,4.45,1.8,6.49,1.57,3.63-.4,18.2-9.97,19.28-9.84l1.38,5.9Z"/>
            <path class="cls-13" d="M334.82,24c.25.5.07,1.77,0,2.36-.34,3.14.66,6.17.39,8.07-.06.44-1.13.61-1.18.79-1.36,4.49-4.29,7.77-6.1,12-3.3-2.4,2.87-6.97,2.95-7.67.05-.46-3.25-7.85-3.15-8.66.13-1,1.8-1.99,1.57-2.95,1.93-1.57,3.53-2.55,5.51-3.93Z"/>
            <path class="cls-9" d="M319.87,65.31c-.44,1.81-1.69,3.6-1.97,5.51-6.03-3.63-11.79-7.51-16.92-12.39-.01-.26,2.74-3.52,3.15-4.13,1.49,1.71,2.4,4.03,3.93,5.7,1.72,1.88,6.95,6.33,9.25,6.1.16-.02.75-2.23,2.56-.79Z"/>
            <path class="cls-13" d="M337.58,31.48c-.23.19-1.13.41-1.38,1.18l-.59-.59-.79-5.7c.07-.59.25-1.86,0-2.36,2.61-1.83,5.06-3.93,7.87-5.51,2.09,2.65-3.25,4.37-1.97,7.28-1.87,1.36-1.64,4.45-3.15,5.7Z"/>
            <path class="cls-13" d="M346.23,54.69l-24.39,13.97c5.5-5.39,16.93-8.64,22.23-13.57,1.45-1.35.73-2.04,1.77-3.15.04,1.05.36,2.11.39,2.75Z"/>
            <path class="cls-5" d="M343.87,88.92c-3.01,3.64-6,7.51-8.66,11.41l-19.28,8.26c1.67-3.48,1.94-6.42,3.15-9.44,2.89,1.1,24.18-11.42,24.79-10.23Z"/>
            <path class="cls-49" d="M335.22,100.33c-.15.22-.64,1.74-.79,1.97-1.94,2.93-4.64,5.93-6.3,9.05-.81-.85-.23-.76-1.38-.39-1.64.53-4.28,2.34-6.1,3.15-3.41,1.51-7.33,3.35-11.02,3.93,2.54-2.72,4.68-6.08,6.3-9.44l19.28-8.26Z"/>
            <path class="cls-5" d="M323.81,88.92c.74-2.57,1.33-5.2,1.57-7.87,7.42-1.48,13.83-5.32,20.46-8.66-.46.94.47,5.06.39,5.31-.35,1.21-19.36,11.45-22.43,11.21Z"/>
            <path class="cls-25" d="M321.84,62.56c2.07-6.14,6.06-8.91,11.02-12.59,1,.2,5.79.2,5.9,1.38l-16.92,11.21Z"/>
            <g>
              <path class="cls-13" d="M345.84,49.97c-1.38.16-.11-1.39-1.77-1.18-2.76.34-17.68,13.34-22.23,14.16v-.39l16.92-11.21c-.11-1.18-4.9-1.18-5.9-1.38-.67-.13-4.5-.7-4.72-.98,1.82-4.67,4.25-6.81,8.66-9.05l-4.72,1.18,5.51-9.64c1.51-1.26,1.28-4.35,3.15-5.7-1.28-2.91,4.06-4.63,1.97-7.28.73-.41,1.45-.63,1.97-1.38l.79.39c-2.02,10.84-.06,21.69.39,32.46Z"/>
              <path class="cls-4" d="M341.71,47.21c1.53.43-2.74,2.9-2.95,2.16l2.95-2.16Z"/>
            </g>
            <path class="cls-49" d="M328.13,111.35c-.68,1.28-1.93,2.92-1.97,4.33,0,.26-.03.54,0,.79l-.98,2.36c.2-2.57-2.98-2.64-4.13-3.54-.05-.04-.05-.84-.39-1.18,1.82-.8,4.46-2.62,6.1-3.15,1.15-.37.56-.45,1.38.39Z"/>
          </g>
          <g>
            <path class="cls-13" d="M384.4,56.66c1.4,2.33,2.39,4.06,2.95,7.08,1.16.62,6.64-5.29,7.67-6.3,3.89,2.38-8,11.84-5.31,12.59,9.13-2.68,16.08-9.28,24-14.16,1.31.19-1,7.16-.98,8.26-1.37,1.49-8.53,8.25-10.03,9.44-3.24,2.57-7.82,3.33-10.82,6.3-1.65.08-.02-.85-1.77-.79-.51.02-3.51,1.32-4.33,1.57-.74.23-2.5-.25-3.15,0s-6.63,9.94-7.28,11.21c-.34.67-1.75,2.72-.98,3.34l34.43-14.95c-8.6,7.85-30.93,11.34-36.59,17.11-2.14,2.19-4.74,9.12-6.49,12,7.73-3.1,15.67-5.9,23.21-9.44,2.87-1.35,20.17-10.26,21.25-11.8,1.23-1.76.02-7.45,1.38-9.64l-1.57.59c.25-.29,2.04-2.79,1.97-2.95-.91.37-1.84.67-2.75.98l2.75-2.16.79.39c-.94,4.75-.99,9.61-1.97,14.36-3.3.05-6.98,3.47-10.03,5.11-5.95,3.2-12.33,6.29-18.49,9.05-4.1,1.84-13.98,4.4-16.92,6.3-.8.52-1.64,2.27-2.16,3.15-.54-.13-1.11-.77-1.18-.79,1.3-.78,5.58-8.58,5.51-9.64-.16-2.42-5.64-11.64-4.72-14.56-1.42-1.83-.98-5.66-1.18-8.26-.02-.31-.77-.09-.79-.39-.2-3.26,1.48-7.39-.39-10.43.52-.58,1.08-1.04,1.57-1.57-.61,11.82,1.2,23.86,6.1,34.62.37-1.3,4.93-7.8,4.92-8.46s-2.89-4.46-3.15-5.11c-.46-1.18-1.54-4.97-1.97-6.89l.79-.39c-.02.93,4.24,11.35,4.92,11.41.67-1.38,4.84-7.24,4.92-8.07s-.79-.49-.79-.79c.02-2.07-.38-2.22-.39-2.36-.7-8.25-1.12-18.55,1.18-27.93-.61-2.16-2.85,2.2-3.93,1.77,1.56-1.94,2.58-2.47,4.33-3.93,2.81.19,4.25,3.01,5.51,5.11Z"/>
            <path class="cls-9" d="M410.76,89.71c-.23,1.12-1.76,8.08-1.97,8.46-1.45,2.67-24.43,12.59-24.98,15.93l.39.79c1.58.24,3-.16,4.52-.39,1.51.85.15,1.48-.59,1.97-7.07,4.64-12.64,4.01-19.87,5.9v-.39c.99-.07,5.6-4.14,3.54-6.3-.05-.05-.62-.3-.79-.39-2.31-1.28-5.37-1.35-7.87-1.97.53-.88,1.36-2.63,2.16-3.15,2.94-1.9,12.81-4.46,16.92-6.3,6.16-2.76,12.54-5.85,18.49-9.05,3.05-1.64,6.73-5.06,10.03-5.11Z"/>
            <path class="cls-49" d="M401.31,121.97c-.38-1.21-3.37-.27-3.93.39-.06.07.06.29,0,.39-3.21.28-5.85,2.3-8.66,3.54-.35.16-.64.33-.79.39-3.31,1.47-6.57,2.7-9.84,4.33-.1.05-.29-.05-.39,0-2.53,1.27-5.04,2.49-7.48,3.93-.46.27-.37.38-.39.39-1.48.92-4.5,1.76-5.51,3.15v-.79c0-4.14,2.15-10.79,3.15-14.95.32-.12.46-.31.79-.39,7.23-1.89,12.8-1.26,19.87-5.9.74-.48,2.1-1.12.59-1.97,6.15-.95,13.38-5.19,17.9-9.44.97.63-4.82,15.11-5.31,16.92Z"/>
            <path class="cls-9" d="M361.97,112.53c-.38-.09-.14-.23-1.57-.39l-10.62-29.51c3.17-5.05,6.67-8.96,10.62-13.38,1.87,3.04.19,7.17.39,10.43.02.3.76.09.79.39.2,2.6-.24,6.43,1.18,8.26-.92,2.92,4.56,12.14,4.72,14.56.07,1.06-4.21,8.86-5.51,9.64Z"/>
            <path class="cls-13" d="M415.48,37.77c-.02,1.15,1.03.82.39,2.16-1.81,3.84-13.69,12.53-16.33,17.11-1.67.15,2.29-3.95.39-4.72-1.77,1.57-3.24,3.47-4.92,5.11-1.03,1-6.51,6.91-7.67,6.3-.56-3.02-1.55-4.75-2.95-7.08.93-1.96.9-8.9,1.97-10.23,1.55-1.93,5.57-2.7,7.67-3.93v8.66c2.4-3.46,5.63-8.98,9.44-11.02,2.09-1.12,9.87-2.88,12-2.36Z"/>
            <path class="cls-13" d="M412.72,64.13c-.02-1.1,2.29-8.07.98-8.26-7.92,4.89-14.87,11.49-24,14.16-2.69-.75,9.2-10.21,5.31-12.59,1.68-1.64,3.14-3.55,4.92-5.11,1.9.77-2.06,4.87-.39,4.72,2.63-4.58,14.52-13.27,16.33-17.11.63-1.35-.42-1.01-.39-2.16,2.36.58,1.96,2.21,1.97,4.13,0,2.02-2.56,18.94-3.15,20.85-.13.43-1.28,1.05-1.57,1.38Z"/>
            <path class="cls-9" d="M360.4,112.13c-3.95-.45-2.85-.11-5.11,2.75-.78.99-1.42,1.89-2.36,2.75-.78-.17-1.98.17-2.75,0,.03-.25-.06-.6,0-.79.33-.98-4.85-15.57-5.11-19.28-.29-4.2.22-7.22,1.97-11.02.62-1.35,1.96-2.67,2.75-3.93l10.62,29.51Z"/>
            <path class="cls-25" d="M368.66,81.44c.01-.74,2.14-4.52,2.36-6.1,1.28-9.07-3.35-11.27,3.54-19.87,1.09.43,3.32-3.93,3.93-1.77-2.3,9.39-1.88,19.69-1.18,27.93.01.14.42.29.39,2.36,0,.3.87-.07.79.79s-4.25,6.69-4.92,8.07c-.68-.06-4.93-10.48-4.92-11.41Z"/>
            <path class="cls-25" d="M409.97,79.08c-.38.45-.74.78-1.18,1.18l-34.43,14.95c-.77-.62.64-2.67.98-3.34.65-1.27,6.65-10.98,7.28-11.21s2.4.23,3.15,0c.82-.25,3.82-1.56,4.33-1.57,1.75-.06.12.87,1.77.79,8.14-.41,9.32-.01,17.31-2.75.92-.32,1.84-.61,2.75-.98.08.16-1.72,2.66-1.97,2.95Z"/>
            <path class="cls-25" d="M367.87,81.84c.43,1.91,1.51,5.71,1.97,6.89.25.65,3.13,4.43,3.15,5.11s-4.55,7.16-4.92,8.46c-4.9-10.76-6.7-22.81-6.1-34.62,2.78-3.01,5.17-6.52,8.66-8.85-2.05,6.94-4.99,15.57-3.54,22.82.07.33.78.16.79.2Z"/>
            <path class="cls-13" d="M386.36,46.43c-1.07,1.33-1.04,8.27-1.97,10.23-1.26-2.1-2.7-4.92-5.51-5.11,2.32-1.95,4.52-4.09,7.48-5.11Z"/>
            <path class="cls-9" d="M344.66,97.18c.01.11-.57,1.05-.39,2.16.86,5.53,3.56,12.4,5.9,17.51-.06.18.03.54,0,.79-.75-.17-2.54-1.52-2.95-1.57-7.94-.97,4.35,7.47,4.92,8.85.86,2.06-.48,6.64-1.18,8.85h-.39c-1.12.38-1.46-.96-2.36-.79-5.68-9.69-11.12-19.58-13.77-30.69.15-.23.64-1.75.79-1.97,2.65-3.9,5.64-7.77,8.66-11.41.59,1.15.56,6.43.79,8.26Z"/>
            <path class="cls-25" d="M408.79,80.26c.44-.4.8-.73,1.18-1.18l1.57-.59c-1.36,2.19-.15,7.88-1.38,9.64-1.07,1.54-18.37,10.45-21.25,11.8-7.54,3.55-15.48,6.35-23.21,9.44,1.75-2.88,4.35-9.81,6.49-12,5.66-5.77,27.99-9.26,36.59-17.11Z"/>
            <path class="cls-25" d="M345.05,97.57c.26,3.71,5.45,18.3,5.11,19.28-2.34-5.11-5.04-11.98-5.9-17.51-.17-1.11.41-2.05.39-2.16l.39.39Z"/>
            <path class="cls-49" d="M336,138.1c.96-.14.74-.39.79-.39,2.41-.46,4.59-1.16,6.89-1.97,1.02-.36,4.26-2.7,4.52-2.75.9-.18,1.24,1.17,2.36.79-4.8,9.9-16.81,18.46-28.13,17.71-2.98-.2-4.73-1.44-7.28-2.36.4-1.72-2.02-1.86-2.36-2.95-.54-1.71,2.2-12.15,2.75-14.75.58,1.08,8.03,6.12,8.66,4.92l-6.69-13.57c.21-.72.38-.74.39-.79l7.28,15.74c1.32-.78,2.74.66,4.33.79,2.07.17,4.44-.1,6.49-.39Z"/>
            <path class="cls-5" d="M348.2,132.98c-.26.05-3.5,2.39-4.52,2.75-2.3.81-4.48,1.51-6.89,1.97l-10.62-22.03c.04-1.41,1.29-3.05,1.97-4.33,1.66-3.12,4.35-6.12,6.3-9.05,2.65,11.11,8.09,20.99,13.77,30.69Z"/>
            <path class="cls-5" d="M326.17,116.46c.07.54,2.94,8.76,3.15,9.25,1.6,3.81,5.33,8.19,6.69,12.39-2.06.3-4.42.56-6.49.39-1.58-.13-3-1.56-4.33-.79l-7.28-15.74c.79-2.53.56-4.57,3.15-6.69,1.16.9,4.33.97,4.13,3.54l.98-2.36Z"/>
            <path class="cls-5" d="M315.54,131.41c.61-2.86,1.15-5.85,1.97-8.66l6.69,13.57c-.63,1.2-8.08-3.84-8.66-4.92Z"/>
            <path class="cls-9" d="M336.79,137.71s.18.25-.79.39c-1.36-4.2-5.09-8.58-6.69-12.39-.2-.48-3.07-8.71-3.15-9.25-.03-.25,0-.53,0-.79l10.62,22.03Z"/>
          </g>
        </g>
      </g>
      <path class="cls-10" d="M195.15,173.51h1.57c.08.82.33,1.3.39,1.97-7.73-1.27-15.51.31-23.21.39-.18-1.58.31-1.07,1.38-1.18,5.81-.63,14.07-1.18,19.87-1.18Z"/>
      <g>
        <path class="cls-25" d="M24,138.89l11.61,20.46.98-13.77c.35.24.65.38,1.18.79.25,3.95-1.63,11.29-1.18,14.75.35,2.69,4.32,8.14,4.92,11.21l5.31-18.49c.07,0,.11-.87,1.18-.79-2.79,10-8.81,19.51-1.97,29.11.21.3.24,1.64.98,1.97,4.89-.75,9.82-1.65,14.75-2.36,3.54-.51,7.07-1.11,10.62-1.57,15.44-2,30.89-3.65,46.43-4.72.28,1.24.55,2.24.79,3.54-24.96,2.35-51.73,3.7-76.13,9.44-10.75,2.53-40.24,11.15-17.9,22.82l-8.66,7.48c-6.19-2.45-12.37-5.25-16.92-10.23v-6.69c2.29-1.63,4.08-4.22,6.3-5.9.41-.31,1.81-.93,2.75-1.57,11.49-5.78,24.26-7.45,36.79-9.84.55-.5-1.17-2.29-1.38-2.75-2.83-6.2-7.8-5.76-13.18-9.44-.86-.59-6.03-4.8-6.1-5.31.15-1.17.53-.45.98-.2,2.06,1.13,5.22,4.72,7.87,6.3,2.48,1.47,5.47,2.27,7.87,3.93.44-.25-2.79-8.58-3.34-9.25-2-2.44-13.72-7.59-15.34-10.82-.01-.02-.24.15-.39-.39l14.95,9.25c-1.72-2.25-3.07-7.92-4.72-9.84-1.91-2.22-8-4-10.23-6.49-.03-.43.01-.5,0-.79l9.05,4.92-9.44-13.97c.11-.63-.19-1.1.59-1.57.26.1.92.77.98.79Z"/>
        <path class="cls-42" d="M348.99,225.44l1.18,6.89c.31.43,4.15-1.5,4.72.2-83.66,12.16-191.63,12-275.41.39.04-2.27,2.58.62,3.93-.98.45-.54.65-4.69,1.18-5.7,79.34,10.26,185.16,10.13,264.4-.79Z"/>
        <path class="cls-25" d="M414.69,143.21c0,.26.01.53,0,.79-.05,1.07-9.59,12.82-9.44,15.93l11.02-5.31c0,.13,0,.26,0,.39-8.8,4.18-14.24,7.38-16.52,17.51l16.52-10.03c.01.07.66.62.79,1.18-3.97,2.96-14.9,7.02-17.9,10.23-.83.89-1.54,3.61-2.16,4.72-.17.3-.56.69-.79,1.18-.34.74-2.81,5.65-2.56,5.9,7.87,1.69,15.85,3.11,23.41,5.9,5.01,1.85,9.64,4.02,13.77,7.48.24,1.32,1.79,2.52,1.97,3.74,1.05,6.99-9.5,11.57-14.56,13.97-.21-3.44-3.81-4.33-4.72-7.48,5.19-3.3,6.75-5.69,1.38-10.23-10.24-8.65-42.25-13.48-55.87-15.34-36.11-4.95-72.77-6.11-109.18-7.48-.03-1.17.02-2.37,0-3.54,16.01.48,32.02,1.02,48,1.97,23.72,1.4,47.29,3.54,70.82,6.69,7.96,1.06,15.92,2.47,23.8,3.93.93-1.82,2.08-3.26,1.77-5.11s-7.13-16.73-8.26-17.31c.1-.13.34-.58.39-.79,2.44,1.14,7.78,17.34,8.85,17.31.45-1.31,3.73-6.87,3.74-7.67,0-.42-2.42-6.38-2.75-7.87-.56-2.5-.45-5.54-1.18-8.07.2.21.48.17.79.79,1.28,2.6.91,6.5,1.57,9.25.22.91,1.28,4.4,2.36,4.72.1-3.31,4.36-8.75,4.72-11.41.4-2.99-1.6-8.69-1.57-12,.3-.23.48-.74,1.18-1.18-.16,1.21.33,10.59,1.38,10.62l9.25-13.38Z"/>
        <path class="cls-17" d="M388.72,217.97c.55,1.19,1.69,5.85,2.36,6.49,1.17,1.12,2.83-.88,3.15.59-12.89,3.34-26.16,5.56-39.34,7.48-.57-1.69-4.42.23-4.72-.2l-1.18-6.89c11.23-1.55,22.4-3.35,33.44-5.9,2.1-.49,4.21-1.03,6.3-1.57Z"/>
        <path class="cls-17" d="M84.59,226.23c-.53,1.02-.73,5.17-1.18,5.7-1.36,1.61-3.9-1.29-3.93.98-11.68-1.62-23.52-3.68-35.02-6.3l3.54-7.48c12.25,3.39,23.98,5.45,36.59,7.08Z"/>
        <path class="cls-32" d="M37.38,216c3.47,1.21,7.08,2.17,10.62,3.15l-3.54,7.48c-9.1-2.07-18.88-4.44-27.54-7.87l8.66-7.48c3.53,1.84,8.01,3.4,11.8,4.72Z"/>
        <path class="cls-32" d="M418.23,216.79c-7.74,3.67-15.71,6.11-24,8.26-.32-1.47-1.97.53-3.15-.59-.67-.64-1.81-5.3-2.36-6.49,7.53-1.96,18.27-4.51,24.79-8.66.91,3.15,4.51,4.03,4.72,7.48Z"/>
        <path class="cls-6" d="M119.61,179.02c.18,1,.65,1.96.79,3.15-19.11,2.85-38.51,4.33-57.44,8.26-8.13,1.69-44.64,8.76-20.85,18.89l-4.72,6.69c-3.79-1.32-8.27-2.88-11.8-4.72-22.33-11.67,7.15-20.29,17.9-22.82,24.4-5.74,51.18-7.09,76.13-9.44Z"/>
        <path class="cls-6" d="M413.51,209.31c-6.51,4.14-17.26,6.7-24.79,8.66-2.08.54-4.2,1.09-6.3,1.57-4.37-.68-8.92.84-13.18-.79,9.35-2.44,20.94-4.73,29.9-8.26,2.29-.9,10-3.83,8.46-6.89-2.16-4.28-35.22-11.94-41.31-13.18-27.65-5.61-56.19-7.14-84.39-8.66-10.53-.57-21.13-.72-31.67-.79-.08-1.55-.35-3.1-.39-4.72,36.41,1.37,73.07,2.53,109.18,7.48,13.62,1.87,45.63,6.7,55.87,15.34,5.37,4.54,3.81,6.93-1.38,10.23Z"/>
        <path class="cls-11" d="M61.77,195.54c-10.89,1.12-26.47,5.69-9.05,14.56,1.49.76,3.32,2.14,5.11,2.75-5.27-1.18-10.52-1.32-15.74-3.54-23.78-10.13,12.72-17.19,20.85-18.89l2.36,2.95-3.54,2.16Z"/>
        <path class="cls-6" d="M199.08,194.76c.14,1.02.23,2.15.39,3.15-7.4-.17-26.91,5.16-11.41,12.2-25.97,3.26-51.9,2.78-77.9.2,14.1-3.65,6.41-2.44-1.38-3.74-1.91-.32-5.1-.95-6.89-1.57-10.48-3.68-4.04-8.47,3.15-10.23,4.84-1.18,10.01-1.3,14.95-1.18-.15.56-.19.93-.39,1.57-2.16.15-5.05,2.14-6.89,2.36-2.66.32-4.47-.75-8.85.39-7.42,1.93-4.93,4.66,1.18,5.11,2.42.18,1.22-.67,1.57-.79,3.2.38,6.22,1.3,9.44,1.57-.06,1.14.53,1.07,1.38,1.18,10.34,1.34,21.07,3,31.48,3.15,3.5.05,31.93-.89,32.46-3.34-.88-.23-1.82-2.49-1.97-2.56,3.8-2.42.35-7.43-3.34-6.3-1.97.61-.49,3.25-3.74,3.15-1.26-.04-2.54-.68-3.93-.39.62-2.21.31-4.42.79-6.69l29.9,2.75Z"/>
        <path class="cls-11" d="M105.05,194.76c-7.18,1.76-13.63,6.55-3.15,10.23-.12.8-.8,4.13-1.38,4.33-.86.31-10.86-3.83-11.21-5.31-.6-2.49,2.76-4.41,4.13-6.1l5.31-3.15c1.38-.25,5.24-1.25,6.3,0Z"/>
        <path class="cls-6" d="M290.36,197.12c1.83.56,5.19,1.71,6.69,2.75,2.66,1.85,3.5,4.06,3.93,7.08-3.3,2.06-7.92-.06-8.66,3.15-1.21,0-5.43,1.43-7.28,1.57-11.37.91-22.96,1.43-34.23,3.15-5.93.9-12.13,4.12-18.1,3.54-12.4-1.21-25.45-2.53-37.57-6.3-1.68-2.81,3.24-3.64,2.36-5.51,1.43.15,2.91-.14,4.33-.39.2.48.33.57.79.79l-1.18,1.77c5.48.75,11.16,1.56,16.72,1.77,1.62.06,4.92.54,6.1-.79,4.9.8,7.52.99,12.59.39.77.63,2.79.5,3.74.39,7.6-.84,21.85-1.33,28.33-3.54,12.14-4.14.14-15.39-3.34-6.3-3.42-2.08-6.73-2.5-8.26,1.97-.21-.07-3.87.66-4.33.79-.39-1.62,1.63-1.9,1.18-4.13-.49-2.48-2.41-1.29-2.56-1.38-.4-.23-.11-1.14-.2-1.18-.2-1.34.14-3.51,0-4.72,7.92.54,18.08-.27,25.77,1.18.17.03,1.23,1.64,2.75,1.97,3.54.76,6.88.89,10.43,1.97Z"/>
        <path class="cls-52" d="M305.31,199.08c0,.99.44,1.36,1.18.79,1.75,1.74,1.81,3.95,1.97,4.13.43.5,2.3-.39,2.36,1.57-3.1.37-4.28,3.27-5.51,4.13-.36.25-6.85,3.91-7.28,3.93-3.09.2-.87-2.13-1.97-2.75-.17-.09-3.55-.79-3.74-.79.74-3.21,5.36-1.09,8.66-3.15,4.98-3.1.04-6.88-3.93-7.08-1.5-1.04-4.86-2.2-6.69-2.75,3.4-3.8,10.27,1.39,13.57,2.36.77.23,1.1-.44,1.38-.39Z"/>
        <path class="cls-45" d="M199.48,197.9c.06.37-.08.82,0,1.18-2.69-.86-3.82,1.61-5.11,2.36-.77.44-6.88.38-1.57,3.54,1.28.76,3.3,1.42,4.72,1.57.88,1.86-4.04,2.7-2.36,5.51-1.95-.61-5.38-1.19-7.08-1.97-15.5-7.04,4.01-12.36,11.41-12.2Z"/>
        <g>
          <path class="cls-6" d="M382.43,219.54c-11.04,2.55-22.21,4.35-33.44,5.9-79.23,10.91-185.06,11.04-264.4.79-12.61-1.63-24.34-3.69-36.59-7.08-3.54-.98-7.16-1.94-10.62-3.15l4.72-6.69c5.21,2.22,10.47,2.36,15.74,3.54,59.1,13.27,122.25,13.67,182.76,12.98.78-.74-1.81-1.16-1.97-1.18-20.6-2.97-45.64-.31-66.49-2.75-2.67-.31-5.59-.64-5.51-3.93-9.71.25-19.4.98-29.11.39-13.25-.79-51.82-3.26-61.38-10.62-5.33-4.11-.15-7.05,4.13-8.66s13.74-3.48,18.49-4.33l-5.31,3.15c-1.37,1.69-4.73,3.61-4.13,6.1.35,1.48,10.35,5.62,11.21,5.31.57-.2,1.25-3.53,1.38-4.33,1.78.63,4.97,1.25,6.89,1.57,7.79,1.3,15.48.09,1.38,3.74,26,2.59,51.93,3.07,77.9-.2,1.7.77,5.13,1.36,7.08,1.97,12.12,3.77,25.18,5.08,37.57,6.3,5.97.58,12.17-2.64,18.1-3.54,11.27-1.72,22.86-2.23,34.23-3.15,1.85-.15,6.07-1.57,7.28-1.57.19,0,3.57.69,3.74.79,1.09.62-1.12,2.96,1.97,2.75.43-.03,6.92-3.69,7.28-3.93,1.04,1.57,2.61,2.65,3.93,3.93.13.12-.32,1.12,1.18.79,1.19,2.82-.46,1.86-.39,2.56.04.49,3.17,1.13-.98,1.77-9.1,1.39-57.19-.53-60.2,2.36-.47.45-.73.63-.59,1.38.72,1.76,24.69.35,28.13.2,31.7-1.42,63.09-4.19,94.03-9.44,5.02-.85,26.12-1.55,28.13-6.1,3.26-7.36-14.72-11.13-19.28-12.39-.48-.13-.83-.3-1.18-.39-2.95-.77-8.49-1.52-10.82-2.36-.74-.27-1.19-.68-.98-1.57,6.09,1.24,39.15,8.9,41.31,13.18,1.54,3.05-6.17,5.98-8.46,6.89-8.96,3.54-20.55,5.82-29.9,8.26,4.26,1.62,8.81.1,13.18.79Z"/>
          <path class="cls-11" d="M174.1,213.64c.75-.18,7.28.14,7.28.98-1.5,2.06-12.42.28-7.28-.98Z"/>
          <path class="cls-11" d="M191.41,217.58c2.83-.42.28,2.76-.79,1.18-.26-.38.71-1.17.79-1.18Z"/>
        </g>
        <path class="cls-52" d="M61.77,195.54c1.63.1-.03.5-.39,1.38-.07.18,1.08.13.79.79-1.36,3.03-6.45,3.02-9.25,2.56.67,2.6-1.35,1.44-2.16,2.95-2.2,4.11,4.81,4.17,1.97,6.89-17.42-8.87-1.84-13.44,9.05-14.56Z"/>
        <g>
          <path class="cls-11" d="M80.26,199.08c-4.28,1.6-9.47,4.55-4.13,8.66,9.56,7.36,48.13,9.83,61.38,10.62,9.72.58,19.41-.14,29.11-.39-.08,3.29,2.84,3.62,5.51,3.93,20.86,2.44,45.9-.22,66.49,2.75.16.02,2.75.44,1.97,1.18-60.51.69-123.65.28-182.76-12.98-1.8-.62-3.62-1.99-5.11-2.75,2.84-2.71-4.17-2.78-1.97-6.89.81-1.51,2.84-.35,2.16-2.95,2.8.46,7.88.47,9.25-2.56.3-.66-.86-.61-.79-.79.36-.87,2.02-1.28.39-1.38l3.54-2.16-2.36-2.95c18.93-3.94,38.33-5.41,57.44-8.26.22,1.95.81,3.9.2,5.9-2.69-.34-35.13,3.84-34.82,5.7.04.25,1.74.57,2.16.2-.46,3.24-7.13,1.36-7.67,5.11Z"/>
          <g>
            <path class="cls-52" d="M71.8,200.66c.35-.02.82-.11.98.2-2.45,1.54-1.49,3.97-.79,6.3.12.4,1.02,0,1.18.39.04.1-1.03.71-.79,1.18.19.36,3.47,4.04,3.74,4.13.41.14,5.3-.45,3.93,1.18-6.96,3.1-9.25-4.1-13.97-7.28,1.01-1.72-.9-3.37-.79-3.54.5-.73,1.91.3,2.16.2.83-.34,2.56-2.66,4.33-2.75Z"/>
            <path class="cls-27" d="M66.3,195.15c1.42-.19,1.71.55,2.56,1.38l-4.92,1.77c-1.09-.59,1.75-3.07,2.36-3.15Z"/>
            <path class="cls-38" d="M55.28,207.35c.37-.01,5.84,2.35,6.89,2.56-.74,1.58-9.23-2.48-6.89-2.56Z"/>
            <path class="cls-38" d="M72.2,192c.56-.18,2.29-.02,2.95.2-.72,1.52-5.06.48-2.95-.2Z"/>
            <path class="cls-38" d="M52.52,205.77c.7.54,1.44.5.79,1.57l-.79-1.57Z"/>
            <path class="cls-38" d="M82.82,212.85c.29-.21,1.27.03.98.59-.31.61-1.83.02-.98-.59Z"/>
            <path class="cls-38" d="M52.13,203.02c1.06-.23,1.53.68.39.79-.04,0-.8-.58-.39-.79Z"/>
          </g>
        </g>
        <path class="cls-11" d="M198.3,188.46c.27,2.08.51,4.22.79,6.3l-29.9-2.75c.32-1.54.44-3.18.79-4.72l26.56,2.36c.96.12,1.85-.02,1.77-1.18Z"/>
        <g>
          <path class="cls-11" d="M366.3,190.43c-.21.89.24,1.3.98,1.57,2.33.84,7.87,1.59,10.82,2.36-1,1.73-3.56.4-4.92,0-1.4,2.56,5.28,1.24,6.69,1.97l-.59-1.57c4.56,1.27,22.54,5.03,19.28,12.39-2.01,4.55-23.11,5.25-28.13,6.1-30.95,5.25-62.34,8.02-94.03,9.44-3.44.15-27.41,1.56-28.13-.2-.14-.75.12-.93.59-1.38,3-2.89,51.09-.97,60.2-2.36,4.15-.64,1.03-1.28.98-1.77-.06-.7,1.58.26.39-2.56-.04-.1.74-2.08-1.18-.79-1.33-1.28-2.9-2.36-3.93-3.93,1.23-.86,2.41-3.76,5.51-4.13-.06-1.96-1.93-1.07-2.36-1.57-.16-.18-.22-2.39-1.97-4.13-.05-.05.05-.99-.59-1.18s-.56.4-.59.39c-.28-.04-.61.62-1.38.39-3.3-.97-10.17-6.16-13.57-2.36-3.55-1.08-6.89-1.21-10.43-1.97-1.53-.33-2.59-1.94-2.75-1.97-7.69-1.45-17.85-.64-25.77-1.18-.43-3.82-.99-7.07-1.18-11.02,10.55.07,21.14.22,31.67.79,28.2,1.52,56.74,3.04,84.39,8.66Z"/>
          <g>
            <path class="cls-52" d="M378.1,194.36c.35.09.7.26,1.18.39l.59,1.57c-1.41-.73-8.09.59-6.69-1.97,1.36.4,3.92,1.73,4.92,0Z"/>
            <path class="cls-38" d="M310.43,214.43c-1.5.34-1.05-.66-1.18-.79,1.92-1.29,1.14.68,1.18.79Z"/>
            <path class="cls-52" d="M336,204.99c-.29-2.01-.9-.66-1.97,0-1.92.34-19.32,3.97-19.28,2.16,2.1-.88,4.12-1.21,6.3-2.16,3.56.26,6.96-1.18,9.84-3.15.51-.35,1.69.14,1.97-1.38.71-3.84-8.9-7.58-12-7.67-.63-.34-.66-.97,0-1.18,2.82-.91,13.79,3.7,16.52,5.51,1.13.75,2.46,3.69,3.34,2.16,1.19-4.02-2.58-3.8-4.52-6.1,3.18-.41,12.91,3.1,12,6.89-.34,1.42-2.87,1.68-3.74,2.16-.41.23.01.99-.39,1.18-.06.03-.73-.81-.79-.79-2.86,1.14-3.86,1.81-7.28,2.36Z"/>
            <path class="cls-27" d="M369.05,194.76c-3.88.47-7.99-1.22-11.8-1.97-7.18-1.41-43.71-5.33-46.23-6.69-.17-.09-.77-.58-.39-.79,4.8.3,9.75,1.27,14.56,1.57,3.85.24,8.02-.9,11.8-.39,1.07.14,1.84,1.56,1.97,1.57,8.75.84,22.78.85,30.1,6.69Z"/>
            <path class="cls-52" d="M369.05,194.76c3.57,2.85-1.85,4.94-2.56,4.72-.5-.15-1.01-2.12-1.97-2.75-2.22-1.47-4.05-1.56-6.3-2.36-.89-.32-1.88-.4-.98-1.57,3.81.75,7.93,2.43,11.8,1.97Z"/>
            <path class="cls-27" d="M275.61,186.89l21.05,1.77c.02,1.56-17.14-.25-18.69-.59-.56-.12-2.55-.39-2.36-1.18Z"/>
            <path class="cls-11" d="M318.69,196.72l1.18-.79c2.37.91,2.04-.05,2.16,0,.99.36,4.22,2.04,4.52,2.95,2.29,6.93-6.76-1.6-7.87-2.16Z"/>
            <path class="cls-27" d="M319.87,195.94l-1.18.79-13.57-3.93c5.28-1.43,10.09,1.36,14.75,3.15Z"/>
            <path class="cls-27" d="M375.15,198.3c5.24-.54-5.61,6.02-7.28,4.13.58-.97,6.8-4.08,7.28-4.13Z"/>
            <path class="cls-27" d="M330.89,201.84c-2.88,1.96-6.28,3.41-9.84,3.15.06-.03-.12-.88.59-1.18,1.53-.65,5.01-1.83,6.69-2.36.49-.15,2.42-.67,2.56.39Z"/>
            <path class="cls-11" d="M345.25,205.77c1.04-.08,2.11.06,3.15,0-.94,1.71-5.94,2.33-8.07,1.77.91-1.07,3.69-1.68,4.92-1.77Z"/>
            <path class="cls-27" d="M264.59,186.49c.9-.07,3.05.62,3.74,1.38l-5.31-.2c-.79-.67,1.48-1.17,1.57-1.18Z"/>
            <path class="cls-27" d="M336,204.99c-.45.07-.6.59-1.77.79-.31.05-.16-.79-.2-.79,1.06-.66,1.68-2.01,1.97,0Z"/>
            <path class="cls-38" d="M306.49,199.87c-.74.57-1.19.21-1.18-.79.04,0-.05-.58.59-.39s.54,1.13.59,1.18Z"/>
            <path class="cls-52" d="M264.59,190.43c.43-.23,1.47.03,1.77.59-.56.7-2.42-.24-1.77-.59Z"/>
          </g>
        </g>
        <path class="cls-11" d="M300.99,206.95c-.44-3.02-1.27-5.23-3.93-7.08,3.97.2,8.91,3.98,3.93,7.08Z"/>
        <path class="cls-11" d="M198.3,182.95c.19,1.52-.14,4.42,0,5.51l-27.93-1.97c.22-.93.53-1.84.79-2.75l27.15-.79Z"/>
        <path class="cls-6" d="M196.72,177.05s.75-.13.79.2c.14,1.38.24,2.75.39,4.13l-25.97.39c.39-1.29.81-2.65,1.18-3.93l23.61-.79Z"/>
        <path class="cls-42" d="M197.12,175.48c.09.93-.42,1.35-.39,1.57l-23.61.79c.09-.31-.06-.81,0-1.18.07-.39.4-.44.39-.79.13,0,.26,0,.39,0,7.7-.09,15.48-1.66,23.21-.39Z"/>
        <path class="cls-11" d="M197.9,181.38c.07.64.31.93.39,1.57l-27.15.79c.16-.57.63-1.46.79-1.97l25.97-.39Z"/>
        <path class="cls-52" d="M198.3,188.46c.07,1.16-.81,1.3-1.77,1.18l-26.56-2.36c.08-.36.31-.43.39-.79l27.93,1.97Z"/>
        <g>
          <path class="cls-52" d="M129.84,198.3c.16,2.88-2.07,3.5,1.97,3.74-1.66,1.38-3.93-.17-5.7-.2-4.33-.07-9.01,1.56-12.79-.98.47-.05.75-.56.79-.59.78-.49,3.67-1.09,4.72-1.18.11,0,1.16,1.21,1.77,1.18.2,0,2.67-1.46,3.54-1.57,1.75-.23,3.77-.13,5.7-.39Z"/>
          <path class="cls-6" d="M118.82,199.08c-1.05.09-3.94.69-4.72,1.18.07-.45-.37-.37-.39-.39-2.04-2.22-5.22-1.97-7.87-.79-.32-.59-1.39-.8-1.97-1.18,4.39-1.14,6.19-.07,8.85-.39,1.84-.22,4.72-2.21,6.89-2.36-.33,1.01-.25,2.81-.79,3.93Z"/>
          <path class="cls-6" d="M179.41,202.23c.15.06,1.09,2.32,1.97,2.56-.53,2.46-28.95,3.39-32.46,3.34-10.41-.15-21.13-1.8-31.48-3.15-.85-.11-1.44-.04-1.38-1.18,1.93.17,1.1-.86,1.77-.79.31.03.08.75.39.79,15.57,1.77,31.33,3.08,47.21,1.18,3.38-.4,9.83-2.71,12.79-2.75.34,0,1-.08,1.18,0Z"/>
          <path class="cls-27" d="M103.87,197.9c.57.38,1.65.59,1.97,1.18,1.15,2.14-.25,2.19-.79,3.93-6.11-.45-8.6-3.19-1.18-5.11Z"/>
          <path class="cls-52" d="M113.71,199.87c-2.49.33-4.75,1.57-7.08,2.36-.36.12.84.97-1.57.79.53-1.74,1.94-1.79.79-3.93,2.64-1.18,5.83-1.43,7.87.79Z"/>
          <path class="cls-52" d="M166.03,198.69l1.18,1.97s-.29.69-.59.79c-1.74-1.98-5.93.12-6.69,0-.32-.05-.42-2.29-2.56-1.77.48-.03,1.47-.95,1.57-.98,1.64-.5,5.28-.08,7.08,0Z"/>
          <g>
            <path class="cls-27" d="M158.95,198.69c-.1.03-1.09.95-1.57.98,2.14-.52,2.24,1.72,2.56,1.77.76.12,4.95-1.98,6.69,0,.3-.1.55-.76.59-.79.16-.13,1.13-1.77,1.18-1.97,1.39-.29,2.67.35,3.93.39-.93,2.67,4.41,2.26,5.9,3.15-2.96.04-9.4,2.35-12.79,2.75-15.89,1.9-31.65.59-47.21-1.18-.31-.04-.08-.75-.39-.79-.68-.07.16.95-1.77.79-3.22-.28-6.24-1.19-9.44-1.57,2.34-.79,4.59-2.03,7.08-2.36.02.02.46-.05.39.39-.04.03-.32.54-.79.59,3.78,2.54,8.45.91,12.79.98,1.77.03,4.05,1.58,5.7.2-4.04-.24-1.81-.86-1.97-3.74,1.55-.21,2.33-1.49,4.92-1.18,1.04.12,2.41,1.53,2.56,1.57l-.2,1.97c4.94-.88,7.69,3.81,11.61,0,.32.09.87,1.41,1.77.79.2-.14-.88-2.4,2.16-3.93,1.87-.94,5.46-1.43,6.3,1.18Z"/>
            <path class="cls-52" d="M148.72,200.66c-3.92,3.81-6.67-.88-11.61,0l.2-1.97c1.35.38,5.03,1.92,5.31,1.97.32.06,2.67-.99,6.1,0Z"/>
            <path class="cls-11" d="M137.51,201.44c2.96-.4,7.78,2.72,11.41,2.36.14-.01.38-1.16.79-1.18,2.87-.16,5.79.18,8.66,0,2.4-.15,6.7-2.19,8.85.2-10.85,2.56-22.05,1.29-32.85.98-1.07-1.16,2.74-2.31,3.15-2.36Z"/>
            <path class="cls-52" d="M123.74,202.23c.33-.02,4.71.61,4.52,1.38l-5.7-.59c-.25-.28,1.11-.78,1.18-.79Z"/>
          </g>
          <g>
            <path class="cls-52" d="M179.41,202.23c-.18-.08-.84,0-1.18,0-1.5-.89-6.83-.47-5.9-3.15,3.25.1,1.77-2.54,3.74-3.15,3.7-1.14,7.14,3.88,3.34,6.3Z"/>
            <path class="cls-27" d="M176.46,197.12c.64-.23,1.79.02,1.77.98-1.27.89-3.5-.37-1.77-.98Z"/>
          </g>
        </g>
        <g>
          <path class="cls-52" d="M252.99,203.41c-.18.05-1.38,2.32-3.15.79.16-.25-.68-.57-.2-.79.57-.26,2.59.56,2.56-.59,0-.23-3.49-2.52-3.93-2.56l2.75-3.54c.11.05.28-.05.39,0,.08.04-.2.95.2,1.18.15.09,2.06-1.1,2.56,1.38.44,2.23-1.57,2.51-1.18,4.13Z"/>
          <path class="cls-11" d="M238.03,199.48c-4.69,4.71,6.3,6.74,5.11,2.36.96.53,4.85-1.6,5.11-1.57.45.04,3.93,2.32,3.93,2.56.03,1.15-1.99.33-2.56.59-.48.22.36.54.2.79-.55.84-1.02,1.17-.79,2.36-2.25.07-4.58.33-6.89.39-.81.02-1.05-1.1-.98.79h-24.39c-.15-.07-.45.04-.39-.39.97,0,8.48-1.54,9.64-1.97,1.44-.52,2.61-2.35,3.34-2.75.06-.03.52.87,1.38.39.49-.27,1.25-2.05,1.77-2.36.35-.21,2.11-1.13,2.36-1.18.62-.13,2.42-.07,3.15,0Z"/>
          <path class="cls-27" d="M243.15,201.84c1.19,4.38-9.81,2.35-5.11-2.36,1.17.11,4.81,1.22,5.11,2.36Z"/>
          <path class="cls-11" d="M236.85,210.1c3.23-.38,6.86-2.38,10.43-1.97l-6.1-.39c-.06-1.89.17-.76.98-.79,2.3-.07,4.63-.32,6.89-.39,1.17-.04,2.37.04,3.54,0,5.47-.18,11.95,1.39,16.13-2.95.02-.21-2.96-2.84-3.15-2.95,3.49-9.09,15.48,2.15,3.34,6.3-6.48,2.21-20.73,2.7-28.33,3.54-.94.1-2.97.24-3.74-.39Z"/>
          <path class="cls-27" d="M265.58,200.66c.18.11,3.17,2.74,3.15,2.95-4.18,4.34-10.66,2.77-16.13,2.95l5.7-.79c1.09-.26-.81-3.09-.98-3.15,1.54-4.47,4.84-4.04,8.26-1.97Z"/>
          <path class="cls-38" d="M241.18,207.74l6.1.39c-3.56-.41-7.2,1.59-10.43,1.97-5.07.59-7.69.4-12.59-.39-1.91-.31-5.8-1.17-7.48-1.97h24.39Z"/>
          <path class="cls-29" d="M216.39,207.35c-.06.44.25.32.39.39,1.67.8,5.56,1.66,7.48,1.97-1.18,1.32-4.48.85-6.1.79-5.56-.21-11.24-1.02-16.72-1.77l1.18-1.77c2.67,1.24,3.57.05,5.51-.79.53-.23.37-.38.39-.39,2.53.07,5.37,1.58,7.87,1.57Z"/>
          <path class="cls-11" d="M199.48,199.08c.15.7.51,1.71.79,2.36-5.11.41-2.05,4.55.79,1.57.24.27,1.17.5,1.57.79-1.13.64-1.21,1.34-.79,2.36-1.42.25-2.9.54-4.33.39s-3.44-.81-4.72-1.57c1.45-.75,3.77-1.92,1.57-3.54,1.3-.75,2.43-3.22,5.11-2.36Z"/>
          <path class="cls-52" d="M252.59,206.56c-1.17.04-2.37-.04-3.54,0-.24-1.19.24-1.53.79-2.36,1.77,1.53,2.97-.74,3.15-.79.46-.13,4.12-.86,4.33-.79.17.06,2.07,2.89.98,3.15l-5.7.79Z"/>
          <path class="cls-27" d="M206.56,203.8c.24.11,1.2,1.95,1.57,2.36-1.94.83-2.84,2.02-5.51.79-.46-.21-.59-.31-.79-.79-.42-1.02-.34-1.72.79-2.36.87-.49,3.23-.33,3.93,0Z"/>
          <path class="cls-27" d="M194.36,201.44c2.19,1.62-.13,2.8-1.57,3.54-5.3-3.16.8-3.1,1.57-3.54Z"/>
          <path class="cls-52" d="M212.46,201.44c.05,3.1-1.8,3.18-3.93,4.33-.02.01.14.16-.39.39-.38-.41-1.33-2.25-1.57-2.36l1.57-1.97c1.43-.05,2.66-.59,4.33-.39Z"/>
          <path class="cls-27" d="M201.05,203.02c-2.84,2.98-5.9-1.17-.79-1.57.18.41.55,1.31.79,1.57Z"/>
          <path class="cls-27" d="M225.05,198.69c2.84-.14,4.75.82,4.33,3.93-.74.41-1.9,2.23-3.34,2.75-1.16.42-8.67,1.96-9.64,1.97-2.5,0-5.34-1.5-7.87-1.57,2.13-1.15,3.99-1.23,3.93-4.33,2.21.26,6.67,2.6,8.46,3.93,1.11-1.47-1.59-1.44-.98-3.74.35-1.34,3.66-2.88,5.11-2.95Z"/>
        </g>
      </g>
      <g>
        <g>
          <path class="cls-7" d="M291.54,124.72c-1.19-1.62-2.33-3.66-3.54-5.11,1.29-1.44.35-3.95.39-5.11.3-9.02-1.08-16.78-3.15-25.57-.92-3.89-1.77-8.06-3.15-11.8l10.43-2.75c.83.16,6.02,1.85,6.1,2.16.02.08-1.24.23-.79,1.18.22.47,6.51,6.66,7.28,7.28,1.46,1.18,4.8,2.49,6.69,3.93.97.74,7.54,6.01,7.67,6.49.02.09-.52,1.71-.59,1.77-2.47.49-4.5-3.75-5.7-1.77-.02.14,1.86,1.69,1.97,1.97,3.71,10.1-8.11,24.44-18.3,26.56-1.4.29-4.54-.83-5.31.79Z"/>
          <path class="cls-7" d="M324.99,75.54s-.02-.61.79-.39c.07,1.98-.21,3.94-.39,5.9-.25,2.67-.83,5.3-1.57,7.87-1.23,4.25-3.24,6.53-4.72,10.23-1.21,3.02-1.48,5.96-3.15,9.44s-3.75,6.73-6.3,9.44c-2.04,2.18-12.73,10.55-15.34,10.23-1.75-.12-1.92-2.41-2.75-3.54.77-1.62,3.91-.5,5.31-.79,10.19-2.12,22.01-16.46,18.3-26.56-.1-.28-1.99-1.83-1.97-1.97,1.21-1.98,3.24,2.26,5.7,1.77.07-.06.61-1.68.59-1.77-.13-.49-6.7-5.75-7.67-6.49-1.88-1.45-5.23-2.76-6.69-3.93-.77-.62-7.06-6.81-7.28-7.28-.45-.95.81-1.1.79-1.18-.08-.31-5.27-2-6.1-2.16l-10.43,2.75c-1.5-4.08-4.92-10.64-7.48-14.16,7.77-2.82,12.94.6,19.48,3.54.8.36,1.49-.8,1.57-.79.49.09,5.67,6,7.08,7.08,5.28,4.07,12.68,8.57,19.67,6.3,1.73-.56,3.07-1.63,2.56-3.54Z"/>
          <path class="cls-43" d="M295.48,62.16c8.61,5.52,17.31,15.93,29.51,13.38.52,1.91-.83,2.98-2.56,3.54-6.99,2.27-14.39-2.22-19.67-6.3-1.41-1.08-6.59-6.99-7.08-7.08-.09-.02-.77,1.15-1.57.79-6.53-2.94-11.7-6.36-19.48-3.54-1.01-1.39-2.75-3.45-3.93-4.72.94-2.97,5.91-3.49,8.85-3.15,3.26.37,12.94,5.16,15.93,7.08Z"/>
          <path class="cls-34" d="M324.99,74.36c.14.14.85.31.79.79-.81-.21-.74.38-.79.39-12.2,2.55-20.89-7.86-29.51-13.38-6.77-6.83-17.36-12.02-25.97-5.11-.37-.36-2.83-1.13-2.75-2.16,15.68-14.63,28.08,7.21,40.72,14.36,4.8,2.71,12.06,6.03,17.51,5.11Z"/>
          <path class="cls-29" d="M276.79,46.03c10.04-.72,23.05,14.44,31.08,20.07,4.09,2.87,8.48,5.59,13.18,7.28-4.94-.78-11.24-3.78-15.54-6.49-12.4-7.82-22.91-27.16-39.74-12.98,2.64-3.43,6.38-7.54,11.02-7.87Z"/>
          <path class="cls-20" d="M295.48,62.16c-3-1.92-12.68-6.71-15.93-7.08-2.94-.34-7.91.18-8.85,3.15-.34-.37-.81-.81-1.18-1.18,8.61-6.91,19.2-1.71,25.97,5.11Z"/>
        </g>
        <path class="cls-36" d="M260.85,129.84c-.21,2.02-.41,3.91-.79,5.9-.15.81-.23,2.65-.39,3.15-.04.14-.97,1.41-1.57.79-1.29-1.55-4.55-2.92-6.3-1.18-.66-2.44-2.09-4.81-3.15-7.08-.66-1.42-1.12-2.98-1.97-4.33.3-.23.37-.38.39-.39,2,.87,3.17,2.68,5.51,3.15,3.69.74,6.9-1.31,8.85-4.33-.29,1.45-.44,2.85-.59,4.33Z"/>
        <path class="cls-7" d="M258.1,139.67c3.4,4.08-1.99,5.69-5.11,3.93-.02-.32-1.01-4.48-1.18-5.11,1.74-1.74,5.01-.37,6.3,1.18Z"/>
        <path class="cls-30" d="M288.4,114.49c-.04,1.17.89,3.68-.39,5.11-1.59-1.92-5.25-6.01-7.08-7.48,2.38-.9,5.05,1.82,7.48,2.36Z"/>
        <path class="cls-51" d="M259.67,138.89c.57.17.68,1.09.79,1.57.88,4.09-.17,3.37-1.57,5.9l-5.9-.79c.09-.5.04-1.41,0-1.97,3.12,1.76,8.51.15,5.11-3.93.61.62,1.53-.65,1.57-.79Z"/>
        <g>
          <path class="cls-33" d="M129.44,96c-14.07,13.93-19.3,37.4-16.13,56.07,2.76,16.27,11.41,23.98,6.69,41.51-4.94-.12-10.12,0-14.95,1.18-1.05-1.25-4.91-.25-6.3,0-4.75.85-14.22,2.72-18.49,4.33.55-3.76,7.21-1.87,7.67-5.11-.43.37-2.12.06-2.16-.2-.31-1.86,32.13-6.05,34.82-5.7.62-2,.02-3.95-.2-5.9-.13-1.18-.6-2.14-.79-3.15-.24-1.31-.51-2.3-.79-3.54-1.89-8.47-5.47-17.49-6.69-25.97-.75-5.24-.79-10.46-.98-15.74-2.42,4.23-5.62,7.88-8.46,11.8-.13.18-1.5,1.05-1.57,1.18-1.74,2.92-1.31,5.69-2.36,9.05-1.22,3.92-4,7.6-7.08,10.23-.49.42-1.75,2.04-2.36.98.34-.67,1.52-2.37,1.57-2.95.08-.9-.03-1.85,0-2.75.06-1.61-.74-2.55-.39-5.11.49-3.61,3.49-8.95,5.9-11.8.68-.36,2.39.46,2.56.39,1.12-.44,12.61-17.8,13.57-19.87.83-1.79,1-4.43,1.97-6.49,1.15-2.43,1.89-5.01,3.15-7.48,1.35-2.65,3.01-5.06,4.72-7.48,2.21-3.13,4.47-5.13,6.69-7.87l.39.39Z"/>
          <path class="cls-34" d="M97.77,145.18c2.8-.39,1.12,8.37.59,10.03-.49,1.53-2.27,2.07-2.95,3.74l.2-5.7c-1.13,2.9-.51,6.34-2.56,8.85l.98-4.92c-1.83-.46-1.84,4.14-2.16,4.13-.73-3.02,1.2-5.87,2.56-8.46l-1.57.79-1.38,3.74c-1.6-1.93,5.32-12.06,6.3-12.2Z"/>
          <path class="cls-34" d="M111.15,130.23c.99.94-1.15,4.23-1.77,5.31-2.11,3.68-5.75,7.88-8.85,10.82l10.62-16.13Z"/>
        </g>
        <g>
          <path class="cls-37" d="M358.82,147.15c-5.46,11.99-19.53,21.02-32.46,22.82-27.69,3.86-52.26-11.18-66.3-34.23.37-2,.58-3.89.79-5.9,5.6,8.3,11.57,16.51,19.48,22.82,24.89,19.87,63.02,20.54,79.87-9.44.76.27-1.16,3.46-1.38,3.93Z"/>
          <path class="cls-30" d="M358.82,147.15h1.57c-2.09,3.32-5.62,8.65-8.26,11.41-2.12,2.22-6.4,5.56-9.05,7.08-.71.41-2.98,1.89-3.15,1.97-14.34,6.58-33.35,5.86-47.61-.39-12.43-5.45-23.82-16.01-31.87-26.75-.1-.48-.22-1.4-.79-1.57.16-.5.24-2.33.39-3.15,14.04,23.04,38.61,38.09,66.3,34.23,12.93-1.8,26.99-10.83,32.46-22.82Z"/>
          <path class="cls-19" d="M360.4,112.13c1.43.16,1.2.31,1.57.39.07.02.64.65,1.18.79,2.5.61,5.56.69,7.87,1.97-1.67,4.66-9.72,4.94-13.38,2.75-1.7-1.02-1.32-1.95-2.36-3.15,2.26-2.86,1.17-3.21,5.11-2.75Z"/>
          <path class="cls-33" d="M290.76,129.05c1.19,1.98,2.28,5.17,3.54,7.08-.77.73-2.63.53-3.54.79l-4.33-7.87c1.45-.11,2.93.28,4.33,0Z"/>
          <path class="cls-33" d="M289.97,128.26c-1.43.08-2.91-.12-4.33,0l-4.33-5.9c1.61-.09,3.68.39,5.11-.39,1.47,1.2,2.56,4.68,3.54,6.3Z"/>
          <path class="cls-33" d="M297.84,141.25c-.57,1.03-2.46.86-3.15,1.18l-3.15-4.33c1.17-.3,2.42-.71,3.54-1.18.8,1.17,1.88,3.32,2.75,4.33Z"/>
          <path class="cls-33" d="M301.77,144.79c-.64,1.02-1.9,1.29-2.75,1.97-1.12-1.15-3.21-1.68-2.75-3.54.9-.35,1.96-.59,2.75-1.18.65.68,2.13,2.23,2.75,2.75Z"/>
          <path class="cls-33" d="M310.82,150.3c-.34,1.01-1.83,1.68-2.36,2.36l-3.93-1.97c.79-.76,1.35-1.79,2.36-2.36,1.02.57,2.88,1.54,3.93,1.97Z"/>
          <path class="cls-33" d="M306.1,147.94c-.87.64-2,1.2-2.75,1.97l-3.15-2.75c.74-.52,2-.62,2.36-1.57.97.75,2.48,1.71,3.54,2.36Z"/>
          <path class="cls-33" d="M357.64,118.03c-.97,1.84-3.42-.11-4.72-.39.94-.87,1.58-1.77,2.36-2.75,1.04,1.19.66,2.13,2.36,3.15Z"/>
          <g>
            <path class="cls-27" d="M280.92,112.13c1.83,1.47,5.49,5.56,7.08,7.48,1.21,1.46,2.35,3.5,3.54,5.11.83,1.14,1,3.42,2.75,3.54-.64.85.02,1.83.39,2.56,4.37,8.66,11.37,14.99,20.46,18.3,2.54.93,4.29,2.16,7.28,2.36,11.32.75,23.33-7.81,28.13-17.71h.39c-.75,2.37-1.47,4.3-3.54,6.1-.29,2.22,3.11-2.63,3.34-2.56-8.26,14.2-23.43,19.12-39.15,13.38-.04-.02-.37-.22-.79-.39-1.06-.43-2.92-1.39-3.93-1.97-.36-.2-.66-.32-.79-.39-1.06-.65-2.57-1.61-3.54-2.36-.11-.08-.43-.49-.79-.79-.63-.53-2.11-2.07-2.75-2.75-.71-.75-1.13-.73-1.18-.79-.87-1-1.95-3.16-2.75-4.33-.33-.48-.76-.74-.79-.79-1.26-1.92-2.35-5.11-3.54-7.08-.34-.56-.76-.74-.79-.79-.98-1.62-2.07-5.1-3.54-6.3-.11-.09-.17-.62-.79-.79-1.84-3.23-4.89-5.37-7.48-7.87-.38-.37-.79-.8-1.18-1.18-.6-.59-2.74-1.99-2.75-2.16-.32-3.02,6.14,1.73,6.69,2.16Z"/>
            <path class="cls-18" d="M303.15,144.39h.39c.78-.06.78.46,0,.39l-.39-.39Z"/>
          </g>
        </g>
        <g>
          <path class="cls-3" d="M284.07,89.71c-6.94-9.02-15.42-2.51-12.98,7.67.54,2.26.41,1.34,1.18,1.38.03,0-.06.47.39.39.01,1.08.47,3.86,1.57,4.33.19.73.31.99.79,1.57,1.29,1.59,1.41.97,3.15,1.57,5.91,2.07,6.56.07,6.69-5.51,1.48-2.73-.16-7.56-.79-10.62l1.18-1.57c2.07,8.79,3.45,16.56,3.15,25.57-2.42-.54-5.1-3.27-7.48-2.36-.55-.44-7.01-5.18-6.69-2.16.02.17,2.16,1.57,2.75,2.16-3.56.94-6.73.87-10.03,2.75-1.74.99-7.08,5.99-5.31,7.28,3.03-6.33,9.67-9.3,16.52-8.85,2.59,2.5,5.64,4.64,7.48,7.87-5.92-1.57-15.78,3.51-16.33,10.23,2.91-4.92,5.96-8.7,12-9.05l4.33,5.9c-5.81.48-11.61,3.55-14.16,8.85l.79.39c2.96-5.39,8.18-7.99,14.16-8.46l4.33,7.87c-3.84,1.06-8.81,3.35-11.02,6.89,4.11-3.08,6.9-4.43,11.8-5.7l3.15,4.33c-1.04.49-12.4,8.86-10.43,9.84,3.76-3.88,6.82-7.04,12-9.05-.45,1.86,1.63,2.4,2.75,3.54-1.55,1.23-4.04,3.67-5.11,5.31-.36.54-1.89,2.37-.98,2.95,2.1-2.65,4.49-5.92,7.28-7.87l3.15,2.75c-.64.65-6.27,7.59-4.92,8.26,1.84-3.25,3.5-4.96,6.1-7.48l3.93,1.97c-.72.92-3,4.48-2.16,5.51l5.31-7.48c15.71,5.74,30.89.82,39.15-13.38-.23-.07-3.64,4.78-3.34,2.56,2.07-1.8,2.79-3.72,3.54-6.1.7-2.22,2.04-6.79,1.18-8.85-.57-1.38-12.86-9.82-4.92-8.85.41.05,2.2,1.4,2.95,1.57s1.97-.17,2.75,0c1.3.28,3.76,2.23,4.72.39,3.66,2.18,11.71,1.91,13.38-2.75.16.09.74.34.79.39-1.17,3.62-4.67,4.88-8.26,5.31,1.55-.46,4.47,1,4.72.98v.39c-.32.08-.47.27-.79.39-3.5,1.32-3.61,8.99-3.93,12.79-.05.63-.38,2.36.79,2.16v.79c-1.14,1.55-1.65,4.87-2.75,6.69-.36.6-.6,1.27-.79,1.57-.01.02-.12-.04-.39.39h-1.57c.22-.47,2.14-3.66,1.38-3.93-16.85,29.98-54.98,29.32-79.87,9.44-7.91-6.31-13.88-14.52-19.48-22.82.15-1.48.3-2.88.59-4.33-1.96,3.02-5.16,5.06-8.85,4.33-1.02-2.59-4.76-2.5-3.34-5.51-.78.79-1.26,1.67-2.16,2.36-.02.02-.1.16-.39.39-1.12.87-2.47,1.25-3.54,2.16,3.96-1.54,2.64,1.26,5.51,2.16,1.06,2.27,2.49,4.64,3.15,7.08.17.63,1.16,4.8,1.18,5.11.04.56.09,1.46,0,1.97,0,.05-.76.73-.79.79-.18.04-.74.34-.79.39-9.8-6.08-20.77-.85-31.67-3.93-25.65-7.25-9.79-56.05-18.3-73.57-.43-.88-1.38-1.54-1.97-2.36.48-.18-.67-1.81-.79-1.97,8.44-6.4,17.81-11.14,27.93-14.36.07-.96-2.15-.28-2.56-.2-8.33,1.81-15.61,6.68-23.41,9.84l16.92-9.44c12.34-3.48,25.13-5.17,37.57-1.18l-.79,1.57c17.06,3.76,26.27,22.89,29.71,38.56Z"/>
          <g>
            <path class="cls-37" d="M198.69,64.92c-.67-.92-1.31-1.84-1.97-2.75,1.18-.99,2.54-1.41,3.93-1.97,7.8-3.15,15.08-8.03,23.41-9.84.4-.09,2.62-.76,2.56.2-10.12,3.22-19.49,7.96-27.93,14.36Z"/>
            <path class="cls-1" d="M239.21,99.54c-1.73-3.73-6.28-7.02-10.43-6.69-2.46.2-3.59,2.74-5.7,1.18,5.41-6.18,13.97-3.57,16.52,3.74.04.13.61,2.11-.39,1.77Z"/>
            <path class="cls-14" d="M270.89,105.05l.79,1.97c-4.41.01-8.51,2.42-11.21,5.7-.16.2-2.43,5.99-2.75,3.54,1.02-2.67,3.35-6.04,5.7-7.67,2.53-1.75,5.21-1.73,7.48-3.54Z"/>
            <path class="cls-14" d="M266.95,102.3c.76-.11,1.59.08,2.36,0l-.39.79c-5.77,1.02-9.16,3.83-12.39,8.46.19-3.89,7.05-8.75,10.43-9.25Z"/>
            <path class="cls-14" d="M266.17,92.85c.07.02.66,1.18.59,1.38-5.63,1.11-8.42,4.24-10.82,9.25-1.72-.97,3.73-7.15,4.72-7.87.48-.34,5.21-2.83,5.51-2.75Z"/>
            <path class="cls-23" d="M274.03,77.9c2.57-.72,4.28,1.06,4.92,3.34l-6.49-.98c-.57-.61,1.44-2.32,1.57-2.36Z"/>
            <path class="cls-23" d="M225.25,83.8c5.76-1.2-1.93,4.86-2.36,4.72-1.94-.63.95-4.43,2.36-4.72Z"/>
            <g>
              <path class="cls-14" d="M285.64,121.18c.62.16.68.7.79.79-1.44.78-3.51.3-5.11.39-6.04.35-9.09,4.13-12,9.05.55-6.72,10.41-11.8,16.33-10.23Z"/>
              <path class="cls-14" d="M285.64,128.26c1.42-.12,2.9.08,4.33,0,.03.05.45.22.79.79-1.4.28-2.88-.11-4.33,0-5.99.47-11.2,3.07-14.16,8.46l-.79-.39c2.56-5.31,8.36-8.37,14.16-8.85Z"/>
              <path class="cls-33" d="M367.48,122.75c-1,4.16-3.15,10.81-3.15,14.95-1.17.2-.84-1.54-.79-2.16.33-3.8.44-11.46,3.93-12.79Z"/>
              <path class="cls-14" d="M278.17,113.31c-6.86-.44-13.49,2.52-16.52,8.85-1.77-1.29,3.58-6.29,5.31-7.28,3.31-1.89,6.48-1.81,10.03-2.75.39.38.8.81,1.18,1.18Z"/>
              <path class="cls-14" d="M299.02,142.03c-.79.59-1.85.83-2.75,1.18-5.18,2.01-8.24,5.17-12,9.05-1.97-.97,9.39-9.35,10.43-9.84.68-.32,2.57-.15,3.15-1.18.05.05.47.04,1.18.79Z"/>
              <path class="cls-14" d="M295.08,136.92c-1.12.47-2.37.88-3.54,1.18-4.91,1.28-7.7,2.63-11.8,5.7,2.21-3.54,7.18-5.82,11.02-6.89.91-.25,2.77-.06,3.54-.79.03.05.46.31.79.79Z"/>
              <path class="cls-14" d="M302.56,145.57c-.36.96-1.62,1.05-2.36,1.57-2.79,1.95-5.18,5.22-7.28,7.87-.9-.58.63-2.41.98-2.95,1.08-1.64,3.56-4.08,5.11-5.31.85-.68,2.11-.95,2.75-1.97.35.3.68.7.79.79Z"/>
              <path class="cls-30" d="M368.26,121.97c-.26.02-3.17-1.44-4.72-.98,3.6-.43,7.1-1.69,8.26-5.31,2.06,2.16-2.55,6.22-3.54,6.3Z"/>
              <path class="cls-14" d="M306.89,148.33c-1.01.57-1.57,1.6-2.36,2.36-2.6,2.52-4.26,4.23-6.1,7.48-1.35-.67,4.28-7.62,4.92-8.26.75-.77,1.89-1.33,2.75-1.97.12.08.43.19.79.39Z"/>
              <path class="cls-14" d="M311.61,150.69l-5.31,7.48c-.83-1.03,1.45-4.59,2.16-5.51.53-.68,2.02-1.35,2.36-2.36.42.17.75.38.79.39Z"/>
            </g>
            <path class="cls-1" d="M252.59,129.84c-2.33-.46-3.51-2.28-5.51-3.15.9-.69,1.38-1.57,2.16-2.36-1.41,3,2.33,2.91,3.34,5.51Z"/>
            <path class="cls-37" d="M248.66,131.41c-2.87-.91-1.54-3.71-5.51-2.16,1.07-.92,2.43-1.29,3.54-2.16.85,1.35,1.31,2.9,1.97,4.33Z"/>
            <g>
              <path class="cls-27" d="M239.21,110.56c-1.32,1.35-2.37,1.35-3.93,1.97,3.51-4.84.23-15.1-6.49-14.16-6.18.86-6.25,11.14-2.16,14.56-.35.45-2.28-1.46-2.36-1.57-3.03-4.45-3.36-13.45,1.77-16.52,8.55-5.12,17.06,8.26,13.18,15.74Z"/>
              <path class="cls-8" d="M239.21,99.54c1.64,3.53,2.63,8.32,0,11.02,3.88-7.48-4.63-20.86-13.18-15.74-5.13,3.07-4.8,12.08-1.77,16.52-4.24-4.64-5.57-12.3-1.18-17.31,2.11,1.56,3.24-.98,5.7-1.18,4.15-.33,8.7,2.96,10.43,6.69Z"/>
              <g>
                <path class="cls-23" d="M235.28,112.53c-3.65,1.44-5.12,3.35-8.66.39-4.09-3.41-4.01-13.7,2.16-14.56,6.72-.93,10,9.33,6.49,14.16Z"/>
                <path class="cls-44" d="M234.1,105.05l1.18-.79c1.48,3.85.04,9.72-5.11,8.85,3.67-1.8,4.43-4.26,3.93-8.07Z"/>
                <path class="cls-27" d="M235.28,104.26l-1.18.79c-.02-.18-2.67-2.38-.2-2.75,1.51-.23,1.12,1.29,1.38,1.97Z"/>
                <path class="cls-27" d="M231.54,99.54c1.26-.19,2.47,2.5.79,2.75-1.26.19-2.47-2.5-.79-2.75Z"/>
                <path class="cls-28" d="M228.79,111.35c.44.08.92,1.23.39,1.57-1.42.92-1.39-1.76-.39-1.57Z"/>
              </g>
            </g>
          </g>
        </g>
        <g>
          <path class="cls-46" d="M284.07,89.71c.05.24-.05.55,0,.79.63,3.06,2.27,7.9.79,10.62.35-15.38-13.65-18.43-12.59-2.36-.77-.04-.64.89-1.18-1.38-2.44-10.18,6.05-16.7,12.98-7.67Z"/>
          <path class="cls-27" d="M284.85,101.12c-.13,5.58-.78,7.58-6.69,5.51,2.01-1.49,3.01-2.64,3.54-5.11,2.37-11.13-9.15-12.79-9.05-2.36-.46.07-.37-.39-.39-.39-1.06-16.07,12.94-13.02,12.59,2.36Z"/>
          <path class="cls-23" d="M278.56,94.82l1.18,1.18c.02.26-.01.53,0,.79.04.72.4,1.48.39,1.57-.15,1.73.08,3.8-1.18,5.31-1.39,1.67-1.58.49-1.97.59-.71.18-.04-1.01-1.18.39-.03.03-.62.35-.79.39-.48-.59-.59-.84-.79-1.57-.13-.49-.22-5.41,0-6.1.81-2.5,2.54-2.26,4.33-2.56Z"/>
          <path class="cls-50" d="M281.71,101.51c-.44-.88-.61-2.17-.79-3.15-.04-.23,1.28-2.71-1.18-1.57-.01-.26.02-.53,0-.79-.03-.48,1.28-.83.2-1.97-.97-.41-1.3.77-1.38.79-1.79.3-3.52.05-4.33,2.56-.22.69-.13,5.61,0,6.1-1.1-.47-1.56-3.25-1.57-4.33-.1-10.43,11.42-8.77,9.05,2.36Z"/>
          <path class="cls-44" d="M280.92,98.36c.18.97.35,2.27.79,3.15-.53,2.48-1.53,3.63-3.54,5.11-1.73-.61-1.85.01-3.15-1.57.17-.04.76-.36.79-.39.1,1.6.88.55,1.18-.39.39-.1.57,1.08,1.97-.59,1.26-1.51,1.03-3.58,1.18-5.31h.79Z"/>
          <path class="cls-27" d="M280.92,98.36h-.79c0-.09-.35-.85-.39-1.57,2.46-1.14,1.14,1.35,1.18,1.57Z"/>
          <path class="cls-27" d="M279.74,96l-1.18-1.18c.08-.01.4-1.2,1.38-.79,1.08,1.13-.23,1.49-.2,1.97Z"/>
          <path class="cls-33" d="M276.99,104.26c-.3.94-1.08,2-1.18.39,1.14-1.41.47-.22,1.18-.39Z"/>
        </g>
        <g>
          <path class="cls-29" d="M199.48,66.89c.59.82,1.54,1.48,1.97,2.36-1.64.27.08.87-1.57.79-1.2-2.1-3.95-2.84-5.7-4.33-4.24-3.6-8.12-10.86-14.16-11.41-5.72-.52-14.43,3.72-17.51,8.66-2.36,1.83-4.44,4.29-6.69,6.3-4.13,3.69-8.81,7.38-12.2,11.8-.23.12-.54.27-.79.39-1.76-.95-4.47,2.56-6.3,1.18,12-7.13,32.21-33.13,45.84-30.3,3.06.64,14.94,11.52,17.11,14.56Z"/>
          <path class="cls-37" d="M189.64,62.95c2.42,2.14,6.97,6.93,10.23,7.08,1.65.08-.07-.52,1.57-.79,8.5,17.53-7.35,66.32,18.3,73.57,10.9,3.08,21.88-2.15,31.67,3.93-2.99,2.97-5.07.11-7.67,0-10.98-.46-20.82,1.8-31.87-1.57-8.9-2.71-15.3-9.45-19.08-17.71-.76-9.9,1.36-13.35,1.97-21.64.21-2.82-1.33-3.41-1.97-5.7-2.46-8.87-4.91-18.57-5.9-27.74-.1-.93-.34-1.99-.39-2.75-.14-2.14-.14-4.59.39-6.69.92.29,1.7-.96,2.75,0Z"/>
          <path class="cls-30" d="M251.41,146.76s.61-.35.79-.39c-.56,1.08-.79,2.36-2.36,2.75-2.13.54-4.23-.79-5.7-.79-5.58,0-11.15.63-16.72.39-9.84-.42-20.15-2.19-27.54-9.05l-6.69-8.26c-.16-1.34-.29-2.57-.39-3.93,3.78,8.25,10.18,14.99,19.08,17.71,11.05,3.37,20.89,1.12,31.87,1.57,2.61.11,4.69,2.97,7.67,0Z"/>
          <path class="cls-29" d="M189.64,62.95c-1.06-.96-1.83.29-2.75,0-.14-.04-1.19-1.19-2.36-1.57l-2.56-2.36-8.85.79c-3.09.44-5.38,2.28-7.87,3.93-5.05,3.36-9.2,8.17-14.16,11.8.1-.1-.12-.86,0-.98,1.57-1.68,3.76-2.96,4.72-5.31,2.25-2.01,4.33-4.46,6.69-6.3,6.21-4.82,14.35-10.6,22.23-5.51,1.87,1.21,3.59,4.33,4.92,5.51Z"/>
          <path class="cls-27" d="M199.87,70.03c-3.26-.16-7.81-4.94-10.23-7.08-1.33-1.18-3.05-4.3-4.92-5.51-7.88-5.09-16.02.69-22.23,5.51,3.08-4.94,11.79-9.18,17.51-8.66,6.05.55,9.92,7.81,14.16,11.41,1.76,1.49,4.51,2.23,5.7,4.33Z"/>
          <path class="cls-33" d="M151.08,75.54c-.2.15-.56-.41-.59-.39-1.91,1.36-3.91,3.53-5.7,5.11-.34.21-.47.4-1.18.79,3.39-4.42,8.07-8.11,12.2-11.8-.97,2.35-3.15,3.63-4.72,5.31-.12.12.1.88,0,.98Z"/>
          <g>
            <path class="cls-7" d="M131.8,84.98c.25-.03.53.04.79,0-.25.79-1.17.03-1.77.79-.46.58,3.37,11.35,4.13,12.79.46.86,1.53.52,1.57.59.23.41.31,1.82.39,1.97l-1.18,1.18c-1.45-2.56-2.52-5.31-3.54-8.07l-.79.2c-.79.38-1.35.96-1.97,1.57l-.39-.39c.44-.54,2.71-2.75,2.75-2.95.14-.72-1.13-2.71-1.18-2.95-.23-1.14-.7-2.94-.79-3.93,1.01-1.86,1.47-.73,1.97-.79Z"/>
            <path class="cls-21" d="M142.82,81.44c-2.74,1.37-4.8,2.44-7.87,3.15-.75.17-1.59.29-2.36.39-.25.04-.53-.03-.79,0,1.43-1.02,3.21-1.46,4.72-2.36,1.83,1.38,4.54-2.13,6.3-1.18Z"/>
            <path class="cls-43" d="M162.1,68.85c-1.38.73-4.77,2.62-4.72,4.33-2.97,1.54-9.35,6.73-12.39,9.05-.64.49-1.99,1.41-1.77,2.36-1.67.27-7.85,2.22-8.26,0,3.07-.7,5.13-1.77,7.87-3.15.25-.12.56-.27.79-.39.71-.38.84-.58,1.18-.79,2.7-1.65,4.15-2.52,6.3-4.72,4.96-3.63,9.11-8.44,14.16-11.8,1.8,1.83-4.27,2.45-3.15,5.11Z"/>
            <path class="cls-2" d="M186.89,72.39c.99,9.17,3.44,18.87,5.9,27.74.64,2.29,2.17,2.89,1.97,5.7-1.3.99-2.07,4.79-2.36,6.49-.79,4.67-.3,9.52-.79,13.97-.5-.42-1.2-.19-1.57.2-1.36,1.41-6.69,10.92-7.67,11.21-2.38.7-9.74-3.59-12.2-4.72-.19-.09-3.81-1.88-3.74-.79-6.04-3.52-17.37-11-19.67-17.9-.16-.47.75-3.34-.2-3.74-.79-.34-.91,1.87-2.95.79,1.3.12,4.11-5.4,3.93-5.7l-5.9,1.77c-1.26-1.88-3.63-4.34-4.72-6.3-.08-.14-.17-1.55-.39-1.97,4.38-7.16,14.63-8.06,20.07-15.15.09-1.14-4.58-1.05-5.7-.98-1.64.1-5.44,1.21-7.67,1.57-.22-.95,1.13-1.87,1.77-2.36,3.04-2.32,9.42-7.51,12.39-9.05,6.07-3.14,16.87-4.41,23.41-3.15,1.93.37,4.26,1.59,6.1,2.36Z"/>
            <path class="cls-43" d="M141.64,107.41c.13.19.27,3.04,1.97,3.93,2.04,1.08,2.16-1.12,2.95-.79.95.4.04,3.27.2,3.74,2.3,6.9,13.64,14.38,19.67,17.9s13.55,8.37,20.66,7.08c3.31-.6,1.98-2.83,2.16-3.34,1.53-4.33,1.85-5,2.36-9.64s0-9.3.79-13.97c.29-1.7,1.07-5.51,2.36-6.49-.61,8.29-2.73,11.74-1.97,21.64.1,1.36.23,2.6.39,3.93.65,5.34,3.58,6.75-.98,10.62-1.09.93-2.66,1.42-3.74,2.36-18.57,3.09-44.1-26.89-52.72-42.1l1.18-1.18c1.09,1.96,3.46,4.41,4.72,6.3Z"/>
            <path class="cls-43" d="M136.53,99.15c-.04-.07-1.12.27-1.57-.59-.76-1.44-4.59-12.21-4.13-12.79.6-.76,1.52,0,1.77-.79.77-.11,1.61-.22,2.36-.39.41,2.22,6.59.27,8.26,0,2.24-.36,6.04-1.48,7.67-1.57,1.12-.07,5.79-.15,5.7.98-5.43,7.09-15.68,7.99-20.07,15.15Z"/>
            <path class="cls-43" d="M184.53,61.38c1.17.38,2.23,1.53,2.36,1.57-.53,2.09-.53,4.55-.39,6.69-8.48-4.44-15.71-5.38-24.39-.79-1.12-2.67,4.95-3.28,3.15-5.11,2.49-1.66,4.78-3.5,7.87-3.93,4.54-.64,7.36.24,11.41,1.57Z"/>
            <path class="cls-43" d="M186.49,69.64c.05.76.29,1.82.39,2.75-1.83-.77-4.17-1.99-6.1-2.36-6.54-1.26-17.34,0-23.41,3.15-.05-1.7,3.34-3.6,4.72-4.33,8.69-4.59,15.91-3.66,24.39.79Z"/>
            <path class="cls-16" d="M184.53,61.38c-4.05-1.33-6.87-2.22-11.41-1.57l8.85-.79,2.56,2.36Z"/>
            <path class="cls-29" d="M151.08,75.54c-2.15,2.2-3.6,3.07-6.3,4.72,1.79-1.58,3.79-3.75,5.7-5.11.03-.02.39.54.59.39Z"/>
            <path class="cls-7" d="M191.61,126.3c-.51,4.64-.83,5.31-2.36,9.64-.18.52,1.14,2.74-2.16,3.34-7.1,1.29-14.91-3.73-20.66-7.08-.07-1.1,3.54.7,3.74.79,2.45,1.13,9.82,5.43,12.2,4.72.98-.29,6.31-9.8,7.67-11.21.37-.39,1.07-.62,1.57-.2Z"/>
            <path class="cls-43" d="M143.61,111.35c-1.69-.9-1.84-3.74-1.97-3.93l5.9-1.77c.17.31-2.63,5.82-3.93,5.7Z"/>
          </g>
          <g>
            <path class="cls-34" d="M195.54,143.21c.05-.05.61-.35.79-.39-5.33,12.41-20.23,20.92-34.43,16.52-1.71-.53-3.75-3.25-5.7-2.75-.55-1.06-3.92-5.94-4.72-6.89-.14-.16-1.19-1.55-1.18-.39.59,1.01,1.41,1.93,1.97,2.95-2.5,2.16-8.95-11.81-10.62-9.25.84,5.28,5.15,9.68,7.08,14.56,4.68,11.81,1,22-2.75,33.44l.59.98c4.95-5.27,7.47-12.81,8.85-19.87.44-2.23-.41-7.77,1.97-8.46,1.08,4.82.93,6.97,0,11.8-.12.64-.25,1.34-.39,1.97-1.45,6.5-4.78,12.8-4.33,20.07-3.04,1.53-1.96,3.79-2.16,3.93-.9.62-1.45-.69-1.77-.79-3.43-.99-5.77.06-6.1,0-.29-.05-3.97-1.59-5.31-1.97-.14-.04-1.52-1.45-2.56-1.57-2.59-.31-3.37.97-4.92,1.18-1.94.26-3.96.16-5.7.39-.87.12-3.34,1.57-3.54,1.57-.61.03-1.66-1.19-1.77-1.18.54-1.13.46-2.93.79-3.93.21-.64.24-1.01.39-1.57,4.72-17.53-3.92-25.24-6.69-41.51-3.17-18.67,2.06-42.14,16.13-56.07.62-.61,1.18-1.19,1.97-1.57,1.42,10.01,5.28,19.17,11.8,26.95,7.86,9.39,33.21,28.71,45.84,26.16,1.72-.35,2.91-2.38,3.54-2.75.5-.3.51.81,2.95-1.57Z"/>
            <path class="cls-26" d="M135.74,102.3c8.62,15.2,34.15,45.19,52.72,42.1,3.2-.53,5.15-2.96,7.08-1.18-2.44,2.38-2.45,1.27-2.95,1.57-.63.38-1.82,2.41-3.54,2.75-12.63,2.55-37.97-16.78-45.84-26.16-6.52-7.78-10.38-16.94-11.8-26.95l.79-.2c1.03,2.76,2.09,5.51,3.54,8.07Z"/>
            <path class="cls-24" d="M199.87,139.67c7.39,6.86,17.71,8.63,27.54,9.05.05.3.27.5.39.79-.99-.05-7.59,2.75-10.03,2.75-5.99.02-16.73-6.33-20.66-11.02.64-.77,1.69-1.49,2.75-1.57Z"/>
            <path class="cls-44" d="M199.87,139.67c-1.07.08-2.11.8-2.75,1.57-.82.98-.36.59-.79,1.57-.18.04-.73.34-.79.39-1.93-1.78-3.88.65-7.08,1.18,1.08-.94,2.65-1.43,3.74-2.36,4.56-3.88,1.63-5.29.98-10.62l6.69,8.26Z"/>
            <path class="cls-34" d="M152.26,152.26c1.98,3.62,4.2,7.32,5.11,11.41-2.38.69-1.53,6.23-1.97,8.46-1.39,7.06-3.9,14.59-8.85,19.87l-.59-.98c3.75-11.44,7.43-21.63,2.75-33.44-1.93-4.88-6.24-9.27-7.08-14.56,1.67-2.56,8.13,11.41,10.62,9.25Z"/>
            <path class="cls-24" d="M156.2,156.59c1.12,2.17,3.29,7.91,3.54,10.23.31,2.82.02,5.93-.79,8.66h-1.57c.93-4.83,1.08-6.98,0-11.8-.91-4.09-3.13-7.79-5.11-11.41-.56-1.02-1.38-1.94-1.97-2.95,0-1.16,1.04.23,1.18.39.81.94,4.17,5.82,4.72,6.89Z"/>
            <g>
              <path class="cls-24" d="M173.12,176.66c-.06.37.09.87,0,1.18l-1.18.59c-2.85,6.84-4.5,13.46-4.92,20.66-.44.19-.58-.38-.98-.39-1.8-.08-5.44-.5-7.08,0-.83-2.61-4.43-2.12-6.3-1.18-.45-7.27,2.88-13.56,4.33-20.07l16.13-.79Z"/>
              <path class="cls-44" d="M158.95,175.48c4.82,0,9.8.44,14.56.39.01.34-.32.4-.39.79l-16.13.79c.14-.63.27-1.33.39-1.97h1.57Z"/>
              <path class="cls-14" d="M173.12,177.84c-.37,1.29-.79,2.64-1.18,3.93-.16.51-.63,1.4-.79,1.97-.26.91-.57,1.82-.79,2.75-.08.36-.31.43-.39.79-.35,1.54-.46,3.19-.79,4.72-.48,2.27-.17,4.48-.79,6.69-.06.2-1.02,1.83-1.18,1.97l-1.18-1.97c.4.02.54.58.98.39.42-7.2,2.06-13.81,4.92-20.66l1.18-.59Z"/>
            </g>
            <g>
              <path class="cls-37" d="M249.84,172.72c.02,1.18-.03,2.37,0,3.54.04,1.62.32,3.17.39,4.72.2,3.94.76,7.2,1.18,11.02.14,1.21-.2,3.38,0,4.72-.11-.05-.28.05-.39,0-3.13-1.36-4.56-.04-7.48-3.74-7.68-9.74-2.38-29.5,6.69-37.18-.12,5.65-.48,11.25-.39,16.92Z"/>
              <path class="cls-31" d="M249.84,149.12c.43.6.36.9.39,1.57-.44-.11-1.38.54-1.57.79-1.12-1.45-1.52-.1-2.36.79l-16.52.39c-.27-1.17-.06-3.05-1.97-3.15-.13-.29-.34-.48-.39-.79,5.57.24,11.14-.39,16.72-.39,1.47,0,3.57,1.32,5.7.79Z"/>
              <path class="cls-24" d="M250.23,150.69c.06,1.3,0,2.63,0,3.93,0,.39,0,.79,0,1.18-9.07,7.68-14.37,27.44-6.69,37.18,2.91,3.69,4.35,2.38,7.48,3.74l-2.75,3.54c-.27-.02-4.15,2.11-5.11,1.57-.31-1.14-3.94-2.25-5.11-2.36-.73-.07-2.53-.13-3.15,0-5.62-12.36-1.36-25.43,5.51-36.2,2.12-3.32,5.86-8.79,8.26-11.8.2-.25,1.13-.9,1.57-.79Z"/>
              <path class="cls-24" d="M246.3,152.26c-4.9,5.2-8.85,12.21-16.52,14.16.04-4.53.79-8.85,0-13.38-.02-.13.03-.27,0-.39l16.52-.39Z"/>
              <path class="cls-44" d="M248.66,151.48c-2.41,3.02-6.15,8.48-8.26,11.8-.94-1-.19-.79-1.18-.2-2.9,1.75-5.73,5.01-9.44,5.31,0-.65,0-1.32,0-1.97,7.67-1.96,11.62-8.96,16.52-14.16.84-.89,1.24-2.24,2.36-.79Z"/>
              <path class="cls-44" d="M240.4,163.28c-6.87,10.77-11.13,23.84-5.51,36.2-.25.05-2.01.97-2.36,1.18-1.44-2.22-1.97-5.29-2.36-7.87-1.28-8.31-.43-16.06-.39-24.39,3.72-.3,6.54-3.57,9.44-5.31.99-.59.24-.81,1.18.2Z"/>
            </g>
            <path class="cls-26" d="M194.76,165.64c.07,2.64.48,5.22.39,7.87-5.8,0-14.06.55-19.87,1.18-1.06.11-1.56-.4-1.38,1.18-.13,0-.26,0-.39,0-4.76.05-9.74-.39-14.56-.39.81-2.73,1.1-5.84.79-8.66,11.73-.17,23.46,1.47,35.02-1.18Z"/>
            <path class="cls-24" d="M196.72,173.51h-1.57c.09-2.65-.32-5.23-.39-7.87-.13-4.63-.38-9.53.79-13.97.03,7.48.45,14.44,1.18,21.84Z"/>
            <g>
              <path class="cls-37" d="M227.8,149.51c1.38,3.1,1.85,3.16-1.97,3.54-4.82.48-16.29-.57-19.87.39-6.08,1.63-1.94,21.77-1.77,26.16.13,3.23-.86,21.04-.39,22.03.73,1.55,3.21.23,4.33.2l-1.57,1.97c-.71-.33-3.07-.49-3.93,0-.4-.29-1.33-.51-1.57-.79s-.61-1.16-.79-1.57c-.28-.65-.64-1.66-.79-2.36-.08-.36.06-.81,0-1.18-.16-.99-.26-2.12-.39-3.15-.28-2.07-.52-4.21-.79-6.3-.14-1.09.19-3.99,0-5.51-.08-.64-.32-.94-.39-1.57-.16-1.38-.26-2.75-.39-4.13-.03-.33-.78-.16-.79-.2-.02-.22.48-.65.39-1.57-.07-.67-.31-1.15-.39-1.97-.73-7.4-1.15-14.36-1.18-21.84-1.16,4.44-.91,9.34-.79,13.97-11.55,2.65-23.29,1.01-35.02,1.18-.25-2.32-2.42-8.06-3.54-10.23,1.96-.5,3.99,2.22,5.7,2.75,14.2,4.4,29.1-4.11,34.43-16.52.42-.99-.03-.59.79-1.57,3.92,4.68,14.66,11.04,20.66,11.02,2.44,0,9.04-2.8,10.03-2.75Z"/>
              <path class="cls-34" d="M229.77,152.66c.03.12-.02.27,0,.39-1.04,1.06-1.12,5.02-1.18,6.49-.48,12.07-.88,24.23.79,36.2l.79-2.95c.4,2.58.92,5.65,2.36,7.87-.52.31-1.28,2.09-1.77,2.36-.85.47-1.31-.43-1.38-.39.42-3.11-1.49-4.07-4.33-3.93.31-9.71-2.07-19.76-2.36-29.31-.17-5.41-.98-12.2,3.15-16.33,3.82-.38,3.35-.44,1.97-3.54,1.9.1,1.7,1.98,1.97,3.15Z"/>
              <path class="cls-34" d="M225.84,153.05c-4.13,4.13-3.31,10.92-3.15,16.33.29,9.55,2.67,19.6,2.36,29.31-1.45.07-4.76,1.61-5.11,2.95-.61,2.3,2.09,2.27.98,3.74-1.78-1.33-6.25-3.68-8.46-3.93-1.67-.19-2.9.34-4.33.39-1.12.04-3.6,1.36-4.33-.2-.47-1,.52-18.8.39-22.03-.17-4.39-4.31-24.53,1.77-26.16,3.58-.96,15.05.09,19.87-.39Z"/>
              <path class="cls-53" d="M229.77,153.05c.79,4.53.04,8.85,0,13.38,0,.65,0,1.32,0,1.97-.03,8.33-.88,16.08.39,24.39l-.79,2.95c-1.66-11.97-1.27-24.12-.79-36.2.06-1.48.14-5.43,1.18-6.49Z"/>
            </g>
          </g>
        </g>
      </g>
    </g>
  </g>
</svg>