<?xml version="1.0" encoding="UTF-8"?>
<svg id="katman_2" data-name="katman 2" xmlns="http://www.w3.org/2000/svg" xmlns:xlink="http://www.w3.org/1999/xlink" viewBox="0 0 512 373.77">
  <defs>
    <style>
      .cls-1 {
        fill: #4d791f;
      }

      .cls-2 {
        fill: url(#Adsız_degrade_423);
      }

      .cls-3 {
        fill: #7dadd6;
      }

      .cls-4 {
        fill: #dbebd5;
      }

      .cls-5 {
        fill: #f96b6b;
      }

      .cls-6 {
        fill: #78a830;
      }

      .cls-7 {
        fill: #bfdbea;
      }

      .cls-8 {
        fill: #976e4a;
      }

      .cls-9 {
        fill: #dbe14a;
      }

      .cls-10 {
        fill: #faa426;
      }

      .cls-11 {
        fill: #a3c52f;
      }

      .cls-12 {
        fill: #bfe16a;
      }

      .cls-13 {
        fill: #b7e59a;
      }

      .cls-14 {
        fill: #cf2a2c;
      }

      .cls-15 {
        fill: #30336c;
      }

      .cls-16 {
        fill: #ddecf0;
      }

      .cls-17 {
        fill: #f1771b;
      }

      .cls-18 {
        fill: #8c75cc;
      }

      .cls-19 {
        fill: #3d6b20;
      }

      .cls-20 {
        fill: #4a4295;
      }

      .cls-21 {
        fill: #7a62be;
      }

      .cls-22 {
        fill: #fffefe;
      }

      .cls-23 {
        fill: #fce179;
      }

      .cls-24 {
        fill: #b0d6d1;
      }

      .cls-25 {
        fill: #d46a20;
      }

      .cls-26 {
        fill: #fbbe21;
      }

      .cls-27 {
        fill: #f68917;
      }

      .cls-28 {
        fill: #e53b39;
      }

      .cls-29 {
        fill: #5f4eae;
      }

      .cls-30 {
        fill: #df7d5a;
      }

      .cls-31 {
        fill: #629128;
      }

      .cls-32 {
        fill: #561f13;
      }

      .cls-33 {
        fill: #f5f0f9;
      }

      .cls-34 {
        fill: #f25835;
      }

      .cls-35 {
        fill: #3a5a21;
      }

      .cls-36 {
        fill: #f9ea5c;
      }

      .cls-37 {
        fill: #fcda34;
      }

      .cls-38 {
        fill: #f5554a;
      }
    </style>
    <linearGradient id="Adsız_degrade_423" data-name="Adsız degrade 423" x1="256.39" y1="13.23" x2="255.75" y2="291.98" gradientUnits="userSpaceOnUse">
      <stop offset="0" stop-color="#78a7d3"/>
      <stop offset=".88" stop-color="#dfeef1"/>
    </linearGradient>
  </defs>
  <g id="katman_2-2" data-name="katman 2">
    <g id="_Üretken_Nesne" data-name="Üretken Nesne">
      <g>
        <path class="cls-3" d="M104.97,59.08l-2.76-4.14C177.48-4.21,285.76-18.31,371.99,25.96c3.99,2.05,32.77,19.26,33.35,21.39.33,1.23-2.54,3.92-2.99,3.91-1.15-.03-15.87-11.54-18.86-13.34C296.72-14.38,183.4-3.25,104.97,59.08Z"/>
        <path class="cls-7" d="M422.35,60.92c1.14,1.01,2.43,2.51,3.68,3.68,12.02,11.22,23.43,23.97,33.12,37.26,1.34,1.84,2.86,3.66,4.14,5.52,28.72,41.6,47.35,92.79,48.3,143.74.32,17.11-1.09,36.26-5.06,52.67-.32-.31-1.78-1.43-2.3-1.84-1.4-1.52-1.42-1.87-1.38-3.91.16-7.98,2.83-18.46,3.22-27.14,3.85-85.24-36.27-166.87-102.57-218.95,1.38-.63,2.14-3.48,3.45-3.45.99.02,13.66,10.87,15.41,12.42Z"/>
        <path class="cls-7" d="M104.97,59.08C35.45,114.32,1.33,199.91,5.62,288.38c.09,1.83.96,13.46,1.38,14.26.73,1.41.72.08,1.84.23-1.32,1.05-5.15,4.68-5.98,5.98L.1,280.56C-2.11,193.33,33.49,108.95,102.21,54.94l2.76,4.14Z"/>
        <g>
          <path class="cls-2" d="M497.79,297.81c-11.99-6.67-27.68-10.4-40.94-13.8,4.18-18.76.87-49.81-23-52.44l.92-1.38c7.07-.74,17.94-8.04,25.3-11.04.53-.22,1.93.53,1.84-.69-8.68-7.89-18.85-16.78-31.51-15.87-11.39.82-25.82,13.19-28.29,24.38-.28,1.28-.99,3.5,0,4.6-.32.55.37,1.2-1.38.92,0-12.67-6.71-26.71-12.88-37.49-1.31-.69-10.06,4.45-11.96,5.52,8.58,5.95,15.49,14.38,19.78,23.92.93,2.06,1.92,7.8,2.76,8.97-.51-.07-.38.3-.46.46-19.16-4.61-43.69-2.61-52.9,17.48-.64-.64-1.56-1.28-2.3-1.84-.18-5.4-5.95-1.86-8.74-7.82-2.97-6.33-5.5-18.99-8.74-27.14-.16-.39-.2-1.67-.46-2.3-1.6-3.85-3.63-7.35-5.52-11.04-2.11-4.11-3.7-8.48-6.9-11.96-1.38-3.41-3.63-5.12-5.52-7.82-.37-.52-.84-1.56-1.38-2.3-1.23-1.67-2.84-3.06-4.14-4.6-5.71-6.78-9.95-13.63-18.86-17.02-1.75-.67-2.24.26-3.68-.46.19-.39-.21-1.27.46-2.3,6.17-9.59,19.48-16.48,30.36-18.4,1.24-.22,7.32-.43,7.36-1.15-7.32-6.4-16.7-8.72-26.22-9.43,1.48-.86,5.66-6.5,8.05-8.28,4.07-3.04,8.78-4.9,13.57-6.44.9-.29,5.36-.45,5.52-1.61-7.89-5.86-18.81-8.69-28.52-7.13.68-10.05,5.44-16.36,10.12-24.38l3.91-3.68c-10.22-2.23-22.92-.08-31.97,5.06-1.74-14.66-7.36-29.85-19.78-38.64-12.71,8.98-17.32,24.06-20.24,38.64-8.82-4.86-20.64-7.47-30.59-5.06l3.91,4.14c4.43,8,8.29,14.46,9.66,23.92-9.92-1.69-20.79,1.54-28.98,7.13,1.16,1.42,3.16,1.13,4.6,1.61,8.9,2.97,17.11,6.52,22.08,15.18-9.19-.21-18.75,3.72-25.76,9.43.3.48,5.97.53,6.9.69,12.66,2.17,22.22,8.68,30.36,18.4v.46c-.94.01-.86,1.32-.92,1.38-1.33,1.37-6.04,3.05-8.05,4.6-12.38,9.58-20.81,21.85-29.67,34.5,0-5.1-5.84-22.52-10.81-23.92-3.7-1.04-13.06,7.44-15.87,10.12-.33.32-.6.6-.92.92-13.63,13.78-16.2,29.04-4.14,45.08l-.46,1.38c-3.61-2.36-11.82-4.43-16.1-4.6-3.46-.14-7.52.83-11.04.92,1.93-12.12,5.06-22.07,11.04-32.89-4.79-.94-7.84-4.04-11.04.92s-3.73,14.69-4.14,20.47c-2.14-.28-2.85-4.05-3.68-5.06,1.79-23.91-19.56-43.17-42.55-44.62-5.11-.32-19.68.75-24.15,2.76-.25.11-.95-.26-.92.46-.03,8.31,3.66,16.2,8.28,23,4.03,5.94,10.3,12.69,17.02,15.64,11.68,7.67,27.58,6.74,40.94,5.06,1.45,1.87,2.86,3.9,4.6,5.52-.09,2.58-.17,5.73,0,8.28-2.21-.45-4.95.42-6.9.46-10.47.22-17.29,2.35-26.22,8.28-3.15-16.36-21.52-22.07-36.11-18.86-2.44.54-13.48,5.37-14.03,7.59-1.32,5.37,4.98,19.04,7.36,24.15.74,1.6.8,4.33,1.84,6.21,3.51,6.36,12.22,7.74,18.86,7.59-2.1,2.02-6.02,1.64-8.74,2.76-1.8-5.93-15.78-.52-15.18,5.75l6.9,1.15c-4.49,6.87,3.74,7.07,8.05,4.6,2.22-1.27,6.97-9,3.68-10.12-1.21.2-3.3.19-4.37.46.05-.52.49-.75.92-.92,3.6-1.43,7.68-1.74,11.5-2.07l-2.3,20.01c-2.71-.54-26.9,6.38-31.05,7.82-6.75,2.34-16.34,6.3-22.31,10.12C-.83,174.61,74.58,50.2,198.58,17.68c161.77-42.42,307.62,89.14,301.51,250.92-.37,9.73-2.48,19.6-2.3,29.21Z"/>
          <g>
            <path class="cls-22" d="M125.9,83.46c9.21-1.07,15.45,5.19,17.02,13.8,8.95-3.72,13.93,3.37,18.17,9.89l-2.53,2.99c9.11-8.02,21.56-.54,18.86,11.04l-105.1-.69c.93-9.3,12.04-15.78,19.09-8.05,1.07-1.4-2.12-3.03-2.07-3.45.17-1.56,8.9-3.52,9.89-.23.17-3.51-3.14-.57-2.07-5.29,1.84-8.16,15.32-12.73,20.93-5.75-.47-4.82-5.21-1.74-2.07-7.59,1.6-2.99,6.52-6.28,9.89-6.67Z"/>
            <path class="cls-22" d="M358.88,166.25c8.02-5.87,18.8-1.61,22.77,6.9,4.1-5.02,10.69-6.62,16.33-3.22-.29.39-2.01,4.98-.69,5.52.56-1.89.97-4.33,2.07-5.98,2.51-3.76,8.58-4.9,12.65-4.14,1.82.34,5.63,3.71,5.98,3.68s2.9-4.06,4.37-5.06c.71-.48,3.4-1.75,4.14-1.84,5.04-.62,8.8,1.54,11.96,5.29-.05.48-7.3,1.95-6.67,4.83,3.98-4.54,11.76-3.3,14.95,1.61.74,1.14,1.8,5.61,2.07,5.75.29.15,4.52-1.56,6.44-1.38,3.67.35,8.52,5.22,7.82,9.2h-124.65c-.87-7.8,4.24-12.77,11.96-12.42.53.02,2.61,1.43,2.76,1.38.56-.17,2.37-7.65,5.75-10.12Z"/>
            <path class="cls-36" d="M420.97,155.67c-.19,2.24,2.44,5.68,1.38,8.28-1.47,1-4.04,5.03-4.37,5.06-.35.03-4.16-3.34-5.98-3.68-4.07-.76-10.14.38-12.65,4.14-.37-.11-1.24.27-1.38.46-5.64-3.4-12.22-1.8-16.33,3.22-3.97-8.51-14.75-12.77-22.77-6.9,1.31-35.21,48.36-42.81,62.1-10.58Z"/>
            <path class="cls-22" d="M371.53,77.02c3.2-.64,6.84.36,9.66,1.84,1.4,1.47-5.99-.9-6.44-.92-.79-.04-3.28-.45-3.45.69,5.32.16,9.63,1.09,13.34,5.06l-.69,2.53c1.86-5.41,10.8-1.78,11.27,2.07.25,2.05-2.08,2.77-1.15,4.83,4.96-8.98,14.98-2.11,14.72,6.44,4.83-4.17,11.85-1.07,13.11,4.83l-80.27.69c-1.07-2.97,2.82-8.18,5.52-8.74,1.52-.31,5.3.63,5.52.46,1.08-.82,3.66-10.97,10.12-5.98-.2-5.19,3.32-12.71,8.74-13.8Z"/>
            <path class="cls-9" d="M426.49,162.11c-.74.09-3.43,1.36-4.14,1.84,1.06-2.6-1.57-6.04-1.38-8.28.04-.41,2.89-7.21,3.68-6.67,1.92,4.23,2.91,8.5,1.84,13.11Z"/>
            <g>
              <path class="cls-5" d="M334.73,56.32c8.48-.92,9.44,11.99,1.84,12.88-8.6,1.01-9.55-12.05-1.84-12.88Z"/>
              <path class="cls-36" d="M175.12,51.26c7.97-1,8.53,9.72,2.76,11.04-7.7,1.76-9.79-10.15-2.76-11.04Z"/>
              <path class="cls-5" d="M144.76,55.86c7.76-1.67,9.48,9.59,3.22,11.04-7.79,1.8-9.43-9.7-3.22-11.04Z"/>
              <path class="cls-36" d="M348.53,132.68c7.11-2.1,8.6,8.4,2.76,9.2-6.17.84-7.33-7.85-2.76-9.2Z"/>
              <path class="cls-36" d="M138.78,152.92c6.49-1.41,7.42,8.51,1.84,9.2s-7.17-8.04-1.84-9.2Z"/>
              <path class="cls-13" d="M392.46,127.62c1.64-2.56-.82-4.76-3.22-5.06.07-.11.31-1.96.92-2.53,6.38-6.03,12.28,7.71,2.3,7.59Z"/>
              <path class="cls-36" d="M172.36,37.46c4.31-1.45,6.63,3.74,3.68,5.52-4.9,2.96-7.11-4.37-3.68-5.52Z"/>
              <path class="cls-36" d="M292.41,53.56c4.25-1.48,6.66,3.72,3.68,5.52-4.78,2.88-6.94-4.39-3.68-5.52Z"/>
              <path class="cls-36" d="M366.01,60.92c4.67-1.6,5.76,5.02,2.76,5.98-4.47,1.43-5.55-5.02-2.76-5.98Z"/>
            </g>
            <path class="cls-36" d="M392.46,127.62c-1.83,2.86-6.48.28-5.06-3.45.2-.53,1.67-1.35,1.84-1.61,2.4.3,4.86,2.5,3.22,5.06Z"/>
            <path class="cls-24" d="M399.35,169.47c-1.1,1.65-1.51,4.09-2.07,5.98-1.32-.54.4-5.13.69-5.52.14-.19,1.01-.57,1.38-.46Z"/>
          </g>
        </g>
      </g>
      <g>
        <path class="cls-11" d="M66.33,282.17c.8.16,1.13,1.21,1.38,1.38-1.08.27-.57,2.77-.46,3.45.56,3.44,1.94,7.56,3.22,10.81.18.46.34,1.1.46,1.38-10.79,4.26-52.04,18.48-31.97,34.04,21.75,16.86,100.77,26.3,129.71,28.98,74.32,6.88,158.26,5.64,231.83-6.9,16.99-2.9,52.93-9.67,66.7-18.86,19.57-13.06-6.82-28.31-19.09-32.66,3.19-5.21,7.42-13.88,8.74-19.78,13.26,3.4,28.95,7.13,40.94,13.8,1.54.86,5.09,3.09,6.44,4.14.52.41,1.98,1.53,2.3,1.84,23.13,22.08-33.67,40.62-48.07,45.08-85.85,26.61-198.7,28.92-287.94,20.7-41.58-3.83-94.38-10.91-133.39-25.3-12.21-4.5-45.4-17.9-34.27-35.42.82-1.3,4.66-4.93,5.98-5.98,1.12-.89,2.9-1.96,4.14-2.76,5.97-3.82,15.56-7.78,22.31-10.12,4.15-1.43,28.34-8.36,31.05-7.82Z"/>
        <path class="cls-12" d="M81.05,313.45c2.51,2.73,4.8,5.15,7.82,7.36-10.59,1.23-21.5.81-31.51,5.06-2.29.97-7.47,2.48-4.14,5.52,2.83,2.58,15.74,4.83,20.01,5.98,67.65,18.17,180.94,25.02,250,13.8.27-.04,1.98-.62,1.61-1.38,8.36-.47,16.74-.97,25.07-1.84.83-.09,4.36-.27,4.37-1.38,4.71-.35,26.49-1.89,10.58-7.82,20.75-.67,41.86,1.27,62.33-3.22,4.31-.94,21.21-4.8,16.33-11.5,10.06-2.51,5.84-8.84-.92-12.42,1.82-2.24,4.01-5.35,5.52-7.82,12.27,4.35,38.66,19.6,19.09,32.66-13.77,9.19-49.7,15.96-66.7,18.86-73.57,12.54-157.5,13.78-231.83,6.9-28.95-2.68-107.96-12.12-129.71-28.98-20.07-15.56,21.18-29.78,31.97-34.04,2.35,5.35,6.22,10.02,10.12,14.26Z"/>
        <path class="cls-11" d="M443.51,324.03c4.88,6.7-12.02,10.56-16.33,11.5-20.47,4.49-41.58,2.55-62.33,3.22-4.48-1.67-9.17-1.54-13.8-2.3,1.82-1.54,3.9-2.27,5.52-4.37s3.62-9.07,4.37-9.43c.4-.19,1.63.19,2.07,0,2.13,2.36,5.03,3.35,7.82,4.6,4.86,2.17,8.01,3.3,13.34,4.14,18.62,2.95,35.94,1.21,50.6-11.5,1.88,1.37,7.38,2.28,8.74,4.14Z"/>
        <path class="cls-11" d="M106.35,329.55c13.83,3.79,28.12,2.83,40.94-3.68l5.52-.92c13.14,14.25,36.55,21.3,55.43,17.02,5.24-1.19,11.02-5.59,14.95-6.44,3.39-.74,8.89.28,12.42-.92.09.36.3.57.46.92-1.79,1.55-4.7,1.02-6.67,1.84-4.71,1.96-5.68,6.87-.69,8.74-18.46-.12-41.04,2.14-59.11-1.38-3.68-.72-13.13-2.99-7.82-7.82l-.46-.92c-6.05.75-12.34,2.32-18.4,2.76-19.44,1.4-38.23-2.16-57.5-3.22-1.88-.1-10.96-2.06-11.5-1.84-.35.14-.87,3.04-.69,3.68-4.27-1.15-17.18-3.39-20.01-5.98-3.33-3.04,1.85-4.55,4.14-5.52,10.01-4.25,20.91-3.83,31.51-5.06,5.05,3.69,11.45,7.09,17.48,8.74Z"/>
        <path class="cls-12" d="M443.51,324.03c-1.35-1.86-6.86-2.77-8.74-4.14,2.22-1.93,5.92-5.95,7.82-8.28,6.76,3.58,10.98,9.91.92,12.42Z"/>
        <path class="cls-11" d="M228.7,346.1c1.4.53,2.35.32,3.68.46,1.8,1.61,6.8,2.02,9.43,2.3,26.61,2.86,56.27,2.41,83.03.92.37.76-1.34,1.34-1.61,1.38-69.06,11.22-182.35,4.37-250-13.8-.18-.64.34-3.54.69-3.68.54-.22,9.62,1.74,11.5,1.84,19.27,1.06,38.05,4.62,57.5,3.22,6.06-.44,12.35-2.01,18.4-2.76l.46.92c-5.31,4.83,4.14,7.1,7.82,7.82,18.07,3.52,40.64,1.26,59.11,1.38Z"/>
        <path class="cls-6" d="M320.7,338.74c7.05,2.47,6.63,5.7,15.41,5.06,7.84-.57,9.64-2.88,14.95-7.36,4.63.76,9.32.63,13.8,2.3,15.91,5.93-5.87,7.47-10.58,7.82-26.36,1.94-55.28-.95-82.11-.92-13.03.02-26.79,2.27-39.79.92-1.33-.14-2.28.07-3.68-.46-4.99-1.87-4.02-6.78.69-8.74,1.97-.82,4.87-.29,6.67-1.84,2.45,5.5,10.93,8.07,16.33,6.44,2.1-.63,4.73-4.11,5.06-4.14.52-.04,4.97,4.24,9.2,4.6,5.52.47,8.64-2.74,11.96-2.76,3.86-.02,7.41,3.21,13.8,2.3,1.66-.24,5.65-2.72,5.98-2.76,1.53-.17,4.92,2.46,6.9,2.76,3.6.54,7.27-.11,10.58-1.38,2.74-1.05,1.24-3.1,4.83-1.84Z"/>
        <path class="cls-11" d="M354.28,346.56c-.01,1.11-3.54,1.29-4.37,1.38-8.33.87-16.71,1.37-25.07,1.84-26.76,1.49-56.41,1.94-83.03-.92-2.63-.28-7.63-.69-9.43-2.3,13,1.35,26.76-.9,39.79-.92,26.83-.03,55.74,2.86,82.11.92Z"/>
      </g>
      <g>
        <g>
          <path class="cls-6" d="M214.44,102.32c8.86,1.51,27.35,13.67,32.2,21.16,1.87,2.89,2.02,7.49,2.76,11.04.24,1.15,1.22,8.74,2.07,8.74,4.04-19.82,16.86-37.54,37.95-40.94,9.71-1.56,20.63,1.27,28.52,7.13-.16,1.16-4.62,1.32-5.52,1.61-26.16-5.82-50.9,9.11-57.73,34.96,5.85-7.08,14.09-14.64,23-17.48,3.56-1.14,10.61-1.31,13.11-2.76,9.52.71,18.9,3.03,26.22,9.43-.04.72-6.12.93-7.36,1.15-2.14-1.81-7.9-2.22-10.81-2.3-13.89-.38-28.54,3.77-38.41,13.8-.26-.06-.66.07-.92,0-.93-.24-2.58.14-3.68,0-2.15-.27-2.66-.57-5.52-.46-.61.02-1.23-.04-1.84,0-2.47.17-3.65.45-5.98.92-9.16-11.38-26.69-14.6-40.71-13.8-2.13.12-6.72.56-8.51,1.84-.93-.16-6.6-.21-6.9-.69,7.01-5.71,16.56-9.64,25.76-9.43,12.97.29,27.34,8.22,35.19,18.4,2.08-.4-4.13-12.48-4.83-13.57-10.35-16.04-34.24-23.01-52.44-20.01-1.44-.48-3.44-.19-4.6-1.61,8.19-5.59,19.06-8.81,28.98-7.13Z"/>
          <path class="cls-6" d="M231.46,79.32c11.9,6.56,18.25,18.74,19.78,31.97,1.58-1.88.47-4.53.46-6.21,2.62.06,2.82-5.18,3.68-7.13,3.2-7.27,9.13-14.68,16.1-18.63,9.05-5.13,21.75-7.29,31.97-5.06l-3.91,3.68c.46-.79.9-1.73,1.38-2.53-31.32,4.36-44.67,30.94-48.76,59.8l-2.76-.69c-.74-3.55-.89-8.15-2.76-11.04,1.23-.23.6-2.76.46-3.45-2.93-14.17-9.14-27.33-21.39-35.65-2.79-1.9-20.87-10.97-22.77-8.51,1.11.71,1.31,1.57,1.84,2.53l-3.91-4.14c9.95-2.42,21.77.2,30.59,5.06Z"/>
          <path class="cls-31" d="M299.54,77.94c-4.68,8.02-9.44,14.33-10.12,24.38-21.09,3.4-33.91,21.12-37.95,40.94-.85,0-1.83-7.59-2.07-8.74l2.76.69c4.09-28.86,17.43-55.44,48.76-59.8-.48.8-.92,1.74-1.38,2.53Z"/>
          <path class="cls-31" d="M246.64,123.48c-4.85-7.49-23.33-19.65-32.2-21.16-1.37-9.46-5.23-15.92-9.66-23.92-.53-.96-.73-1.82-1.84-2.53,1.9-2.46,19.98,6.61,22.77,8.51,12.25,8.32,18.46,21.48,21.39,35.65.14.69.77,3.22-.46,3.45Z"/>
          <path class="cls-11" d="M251.7,105.08c0,1.68,1.12,4.33-.46,6.21-1.53-13.23-7.88-25.41-19.78-31.97,2.92-14.57,7.53-29.66,20.24-38.64.05,21.46-.07,42.94,0,64.4Z"/>
          <path class="cls-6" d="M271.48,79.32c-6.97,3.95-12.9,11.36-16.1,18.63-.86,1.95-1.06,7.19-3.68,7.13-.07-21.46.05-42.94,0-64.4,12.42,8.79,18.04,23.98,19.78,38.64Z"/>
          <path class="cls-31" d="M312.42,111.06c-4.79,1.54-9.5,3.4-13.57,6.44-2.39,1.78-6.56,7.42-8.05,8.28-2.5,1.45-9.54,1.62-13.11,2.76-8.91,2.84-17.15,10.4-23,17.48,6.83-25.84,31.56-40.77,57.73-34.96Z"/>
          <path class="cls-31" d="M212.14,126.24c-4.97-8.66-13.18-12.21-22.08-15.18,18.2-3,42.09,3.97,52.44,20.01.7,1.09,6.91,13.16,4.83,13.57-7.85-10.18-22.21-18.11-35.19-18.4Z"/>
          <path class="cls-31" d="M309.66,136.36c-10.88,1.92-24.18,8.81-30.36,18.4l-17.02-5.98c-.37-.4-1.33-.8-1.84-.92,9.87-10.03,24.52-14.18,38.41-13.8,2.91.08,8.67.49,10.81,2.3Z"/>
          <path class="cls-31" d="M242.5,148.32c-6.91,1.38-12.37,3.96-18.86,6.44-8.14-9.72-17.7-16.23-30.36-18.4,1.79-1.28,6.38-1.72,8.51-1.84,14.02-.8,31.55,2.42,40.71,13.8Z"/>
        </g>
        <g>
          <path class="cls-17" d="M324.84,212.25c.26.63.3,1.91.46,2.3-1.07,1.23-7.41,9.6-7.36,10.35.07,1.13,12.17,15.99,14.26,17.71-.38.26-2.17,1.65-2.3,1.84l-13.11-17.94c-2.22,3.41-19.85,25.68-20.01,27.37-.14,1.42,5.48,7.17,5.52,9.43-.71.34-1.31.42-1.38.46l-5.29-7.82c-1.91,3.75-20.26,25.17-20.47,26.91-.08.64,2.42,3.85,3.22,4.37-.72-.16-2.87-.42-3.68-.46-.08-2.85-3.49-.04-1.38,0-.83.03-2.81.29-3.68.46,0-1.2,2.67-2.99,2.76-3.45.22-1.07-1.67-3.3-2.3-4.37-.27-1.16-.72-1.8.92-1.84.04.22,2.31,3.63,2.53,3.68l20.93-27.37c-.59-.63-1.42-1.32-1.84-2.07-2.18-3.89-5.22-7.42-7.82-11.04l1.38-.92c2.42,3.24,5.2,7.12,7.82,10.12.37.42.87,2.44,1.84,2.07,4.21-5.34,7.64-11.22,11.5-16.79,1.1-1.59,7.61-8.77,7.82-9.89.09-.97-.54-1.73-.92-2.53.17-.69.68-1.02,1.38-.92.57.08,1.03.95,1.15.92,1.03-.23,6.19-9.64,8.05-10.58Z"/>
          <path class="cls-22" d="M224.1,157.97c-4.39,5.28-11.28,7.26-15.64,12.65-2.97,3.68-3.87,8.13-6.44,11.73-.05.06-.54.39-.92.92-.55.77-2.47,1.95-3.22,2.99-3.03,4.2-6.99,14.94-12.88,12.19.05-.13,0-2.26,0-2.76,8.86-12.65,17.28-24.92,29.67-34.5,2.01-1.55,6.72-3.23,8.05-4.6.68.2,1.05.81,1.38,1.38Z"/>
          <path class="cls-37" d="M248.48,147.4l-15.87,18.86-8.97-11.04v-.46c6.49-2.48,11.95-5.06,18.86-6.44,2.33-.47,3.51-.75,5.98-.92Z"/>
          <path class="cls-10" d="M334.04,241.69c-.58.34-1.29.54-1.84.92-2.09-1.72-14.19-16.57-14.26-17.71-.05-.75,6.28-9.11,7.36-10.35,3.24,8.14,5.77,20.81,8.74,27.14Z"/>
          <path class="cls-10" d="M324.84,212.25c-1.86.94-7.02,10.35-8.05,10.58-.12.03-.58-.84-1.15-.92-.49-1.2-3.69-4.82-3.68-5.75.03-2.04,6.79-12.03,7.36-14.95,1.89,3.69,3.92,7.19,5.52,11.04Z"/>
          <path class="cls-10" d="M312.42,189.25c2.76,6.84,2.34,11.84-.46,18.4l-2.3-11.27c-1.99-3.15-3.61-7.34-6.9-9.43,1.32-1.85,2.38-4,4.14-5.52,1.89,2.7,4.14,4.41,5.52,7.82Z"/>
          <path class="cls-17" d="M305.52,179.13c-.53,2.63-2.3,3.6-3.68,5.52-2.55-1.3-1.91,1.24-4.14,0,1.68-3.03,1.43-7.49,3.68-10.12,1.3,1.54,2.91,2.93,4.14,4.6Z"/>
          <path class="cls-37" d="M255.84,147.86c1.11,1.8,5,4.75,5.52,6.67.36,1.32-.33,3.9,0,5.29-2.8,2.44-.19,5-.46,8.51-.21,2.76-2.96,7.19-3.91,9.89.66.3,8.44-10.83,8.51-11.73.18-2.26-2.98-4.17-3.68-6.21l2.07-6.9c1.24-.26,9.4,10.09,9.43,10.81.07,1.88-18.29,25.99-20.47,29.67l-19.09-25.99,16.56-20.47c2.86-.11,3.36.19,5.52.46Z"/>
          <path class="cls-37" d="M190.53,278.03c-2.49.37-4.57-.11-6.44,0-.85-2.37-9.04-11.25-9.2-12.65-.1-.85,1.59-3.23,1.84-4.6.18-.98-.53-1.33-.46-1.61.4-1.63,1.06-3.45,1.61-5.06l1.15,2.76c.44,2.8,6.09,13.57,8.05,14.72,1.38.81,4.94-5.09,5.75-6.44,2.56-1.6,9.21-8.7,8.74-11.73-.25-1.6-8.02-10.94-9.66-12.65-1.13-1.18-1.49-3.1-3.22-2.76.85-6.6-4.27,2.67-4.6,2.99-5.08,4.99-5.36,3.1-7.82,11.27-1.21,4.03-.46,4.15-.92,6.9-.04.22-1.4,4.08-1.61,4.14l-5.75-7.36c0-.3,0-.62,0-.92.72-1.29,1.29-2.76,1.84-4.14l19.09-23.92,19.55,26.91-17.94,24.15Z"/>
          <path class="cls-37" d="M181.33,213.17c.49-1.27.97-3.97,1.38-5.52,3.58.26,4.22-3.37,1.38-5.06.25-1.19.55-2.44.46-3.68.02-.03.22.17.46-.46,5.89,2.75,9.85-7.99,12.88-12.19.75-1.04,2.67-2.22,3.22-2.99l8.74,13.11-20.93,27.37-7.59-10.58Z"/>
          <path class="cls-37" d="M202.03,182.35c2.57-3.6,3.47-8.05,6.44-11.73,4.36-5.39,11.25-7.37,15.64-12.65,1.05,1.8,6.95,9.14,6.9,9.89-.12,1.74-18.03,22.89-20.01,26.45l-8.97-11.96Z"/>
          <path class="cls-37" d="M284.82,240.77c2.6,3.62,5.64,7.15,7.82,11.04-.75,1.87-3.31,3.14-4.6,4.6-2.02-1.18-.74-2.2-1.38-3.68-1.62-3.74-4.76-7.07-7.36-10.12-2.05-2.4-2.12-4.18-5.06-5.52-.05-.02.16-.86-.23-.92-3.02-.5-3.08,2.78-4.37,3.91-1.68,1.47-2.9,1.2-4.6,3.22-.46.55-5.54,7.78-5.52,8.28.06,1.21,1.32.53,1.38.69.79,2.21-.42,2.93.46,5.29.41,1.09,3.86,4.97,5.52,3.45,1.63,3.36,4.8,7.35,7.36,10.12-1.06,1.64-1.65,2.73-2.3,4.6-.22.64-.92.92-.92,1.38l-17.02-23.69,20.01-26.91c.89-.02,9.56,12.51,10.81,14.26Z"/>
          <path class="cls-37" d="M255.84,269.75c5.73,8.48,6.03,15.72.46,24.38-1.86,2.06-3.07,4.51-5.06,6.44-.04-.38-3.64-6.31-5.06-5.52-.31-3.42-1.32-15.55-4.14-17.48,4.95-.7,3.95-2.7,5.52-4.37,1.76-1.87,5.37-1.8,5.98-5.29.96-.34,1.61.81,2.3,1.84Z"/>
          <path class="cls-26" d="M310.58,218.69c-2.51.79-.31,5.43-.46,6.21-.58,3.01-3.92,6.51-2.76,10.35-3.86,5.56-7.29,11.45-11.5,16.79-.97.37-1.47-1.65-1.84-2.07.32-.18,1.41-1.95,1.38-2.07-.38-1.56-10.63-13.36-11.96-16.1l.92-1.15c1.37,1.08,1.43,1.65,3.22.92,1.78,3.59,5.43,6.42,7.13,10.12,1.2.51,4.65-4.89,5.29-5.98,2.54-2.43,8.99-8.32,8.28-12.19-.3-1.63-7.49-10.06-9.2-11.73-.57-1.1-3.07-3.48-3.68-4.6-1.16-2.13-1.54-4.82-2.76-6.9.86-1.05,1.53-2.27,2.53-3.22,5.24,7.12,10.45,14.28,15.41,21.62Z"/>
          <path class="cls-26" d="M293.56,183.27c-.44,2.07.19,4.68-1.38,6.44-1.7-2.06-3.33-5.07-5.06-7.36,1.85-.94-1.09-6.32-1.84-7.59-2.23-3.75-6.34-5.64-7.36-9.43,6.89-2.43,8.43-7.64,15.18.23.99,1.16,4.09,6.5,4.14,7.82.13,3.23-3.53,6.47-4.14,8.74-.32,1.18.47,1.09.46,1.15Z"/>
          <path class="cls-37" d="M295.4,207.19c-1.9,3.37-8.69,10.67-9.66,13.8-1.21-1.73-5.03,4.46-5.06,4.83-.07.85,2.98,4.28,3.68,4.83l-.92,1.15c1.33,2.74,11.58,14.54,11.96,16.1.03.12-1.06,1.89-1.38,2.07-2.62-3-5.4-6.88-7.82-10.12-3.77-5.05-7.06-10.5-11.04-15.41,6.35-7.44,11.34-16.66,17.48-24.15,1.22,2.08,1.6,4.77,2.76,6.9Z"/>
          <path class="cls-37" d="M269.18,278.95c-5.6,7.68-7.92-7.36-13.34-9.2-.69-1.03-1.34-2.18-2.3-1.84,1.55-8.85-3.9.21-4.37.46-.69.37-1.49-.7-1.84-.46-3.28,2.26-4.3,6.69-7.59,9.2-.62-.24-2.61-.46-2.76-.69l15.87-20.47c5.75,7.46,11.33,15,16.33,23Z"/>
          <path class="cls-37" d="M223.64,275.27c-1.95.1-4,.33-5.98.46-.88-2.49-2.72-4.27-4.6-5.98-.93-.85-1.42-1.94-2.76-2.3.48-6.3-4.75,2.35-5.75,3.22-.09.08-1.74-.02-2.3.46-4.58,3.93-2.63,4.91-9.43,6.44l16.33-21.62,14.49,19.32Z"/>
          <path class="cls-26" d="M311.96,207.65c-.3.71-2.23,5.54-2.53,5.52-.82-2.88-12.6-16.52-12.65-17.71-.03-.73,5.11-7.28,5.98-8.51,3.29,2.09,4.91,6.28,6.9,9.43l2.3,11.27Z"/>
          <path class="cls-10" d="M269.18,278.95s.89.42.92.46c.63,1.07,2.52,3.3,2.3,4.37-.09.46-2.76,2.25-2.76,3.45-.91.18-4.33,1.41-5.06,1.84l-.23-3.68c-2.6,2.77-4.61,6.15-7.13,8.97-.73.82-.89-.27-.92-.23,5.57-8.66,5.27-15.9-.46-24.38,5.42,1.84,7.74,16.88,13.34,9.2Z"/>
          <path class="cls-10" d="M271.02,277.57c-.02-.14,0-.31,0-.46,0-.46.7-.74.92-1.38,6.58-.36,10.2-6.82,10.58-12.88,2.37-2.44,3.51-4.16,5.52-6.44,1.28-1.46,3.85-2.73,4.6-4.6.42.75,1.25,1.44,1.84,2.07l-20.93,27.37c-.22-.05-2.49-3.46-2.53-3.68Z"/>
          <path class="cls-37" d="M177.19,238.01c2.96-7.25,2.64-14.84,3.22-22.54.15-.31.39-.76.46-.92-.3,2.33,7,9.87,6.9,10.81-.09.82-8.96,11.46-10.58,12.65Z"/>
          <path class="cls-22" d="M253.54,267.91c-.61,3.49-4.22,3.42-5.98,5.29-1.57,1.67-.57,3.67-5.52,4.37-.1-.07-1.78-.26-2.3-.46,3.29-2.51,4.31-6.94,7.59-9.2.35-.24,1.15.83,1.84.46.47-.25,5.92-9.31,4.37-.46Z"/>
          <path class="cls-10" d="M310.58,218.69c.59.87,3.15,3.03,3.68,4.14.38.8,1.01,1.56.92,2.53-.21,1.12-6.72,8.3-7.82,9.89-1.16-3.84,2.18-7.34,2.76-10.35.15-.78-2.05-5.42.46-6.21Z"/>
          <path class="cls-10" d="M297.7,184.65c2.23,1.24,1.59-1.3,4.14,0-2.08,2.89-3.92,5.99-6.21,8.74-.44.01-2.96-3.08-3.45-3.68,1.57-1.76.94-4.37,1.38-6.44,1.75-2.12,2.49.46,4.14,1.38Z"/>
          <path class="cls-37" d="M277.92,165.33c1.02,3.79,5.13,5.68,7.36,9.43.75,1.27,3.69,6.65,1.84,7.59-1.28-1.69-12.59-15.97-11.96-16.79.76-.59,2.02.03,2.76-.23Z"/>
          <path class="cls-10" d="M261.82,160.27c.7,2.04,3.86,3.95,3.68,6.21-.07.9-7.85,12.03-8.51,11.73.95-2.7,3.7-7.13,3.91-9.89.27-3.51-2.34-6.07.46-8.51.15.64.45.43.46.46Z"/>
          <path class="cls-37" d="M251.24,300.57c.15,1.34-1.2,2.68-1.84,3.68s-1,2.25-2.3,2.76c-1.33-5.17-.45-6.76-.92-11.96,1.42-.79,5.02,5.14,5.06,5.52Z"/>
          <path class="cls-10" d="M329.9,244.45c-1.28,1.83-1.22,3.53-1.84,5.52-1.37-1.99-4.01-5.2-5.98-6.67l3.68,9.89c-5.31.38-9.68,3.86-12.88,7.82-.82-.13-2.33-.06-3.22,0-2.26-3.77-2.63-7.72-1.84-11.96.09-.07,1.58.21,1.84-.69.17-.59.87-9.26-.23-9.43-2.47,3.8-3.85,7.81-6.21,11.73-.53.89-1.06,1.64.46,1.61-2.7,4.02,1.62,5.98,3.22,9.2-.72.16-3.77,1.44-4.6,1.84-.04-2.26-5.66-8.01-5.52-9.43.16-1.69,17.79-23.96,20.01-27.37l13.11,17.94Z"/>
          <path class="cls-10" d="M300.92,263.77c-6.34,3.71-9.99,11.25-8.74,18.4.08.45.18,1.38-.46,1.38-2.38-.27-7.02,3.89-8.28,5.98-1.56-.45-3.53-1.95-5.06-2.3-.8-.52-3.3-3.73-3.22-4.37.21-1.74,18.56-23.15,20.47-26.91l5.29,7.82Z"/>
          <path class="cls-10" d="M274.7,286.77c-.45-.02-.93-.01-1.38,0-2.11-.04,1.3-2.85,1.38,0Z"/>
          <path class="cls-27" d="M328.06,249.97c.46.66,1.45,2.43.92,3.22-.89-.11-2.29-.07-3.22,0l-3.68-9.89c1.97,1.47,4.61,4.68,5.98,6.67Z"/>
          <path class="cls-37" d="M174.43,271.59c-2.49-.94-5.14,5.05-5.52,6.9-2.29-.03-4.58-.37-6.9-.46.16-6.64,3.9-13.03,5.06-19.32,3.05,2.59,9.22,9.24,7.36,12.88Z"/>
          <path class="cls-17" d="M175.35,259.17h.92c-.07.28.64.63.46,1.61-.25,1.37-1.94,3.75-1.84,4.6.16,1.4,8.35,10.28,9.2,12.65-.16,0-1.34.42-2.3.46-.43-2.97-5.03-5.07-3.45-7.82l-2.53,2.3c-.04-.09-1.29-1.35-1.38-1.38,1.86-3.64-4.31-10.29-7.36-12.88.15-.83.91-2.38.92-2.76l5.75,7.36c.21-.06,1.57-3.92,1.61-4.14Z"/>
          <path class="cls-27" d="M174.43,271.59c.09.03,1.34,1.29,1.38,1.38,1.11,2.8-2.17,3.22-3.22,5.52-1.22,0-2.46.02-3.68,0,.38-1.85,3.03-7.84,5.52-6.9Z"/>
          <path class="cls-37" d="M181.79,278.49c-.91.03-1.85-.02-2.76,0l-1.61-2.76-1.15,2.3c-.68,0-2.36.47-3.68.46,1.05-2.3,4.33-2.72,3.22-5.52l2.53-2.3c-1.58,2.75,3.02,4.85,3.45,7.82Z"/>
          <path class="cls-10" d="M217.66,275.73c-.76.05-1.54-.05-2.3,0l-2.3-5.98c1.88,1.71,3.72,3.49,4.6,5.98Z"/>
          <path class="cls-37" d="M191.91,240.77c5.88,10.16,7.11,14.12.92,24.38-.81,1.35-4.37,7.25-5.75,6.44-1.96-1.15-7.61-11.91-8.05-14.72-.64-4.04.37-4.53,1.38-8.28,4.49-3.76,7.37-3.57,8.28-10.58,1.73-.34,2.09,1.58,3.22,2.76Z"/>
          <path class="cls-10" d="M192.83,265.15c6.19-10.26,4.96-14.22-.92-24.38,1.64,1.71,9.41,11.05,9.66,12.65.47,3.03-6.18,10.13-8.74,11.73Z"/>
          <path class="cls-22" d="M188.69,238.01c-.91,7.01-3.79,6.82-8.28,10.58-1.54,1.29-2.41,3.02-4.14,3.68,2.46-8.17,2.74-6.28,7.82-11.27.33-.32,5.45-9.59,4.6-2.99Z"/>
          <path class="cls-10" d="M179.03,256.87l-1.15-2.76c-.55,1.61-1.21,3.43-1.61,5.06h-.92c.46-2.75-.29-2.87.92-6.9,1.73-.66,2.6-2.39,4.14-3.68-1.01,3.75-2.02,4.24-1.38,8.28Z"/>
          <g>
            <path class="cls-37" d="M235.14,276.19c-.21-.11-2.58-.08-3.68-.46-2.84-.98-2.01-1.03-5.06-.92-.15,0-.31,0-.46,0l-15.18-20.93,20.93-27.37,19.55,26.91-16.1,22.77Z"/>
            <path class="cls-37" d="M235.14,240.77c5.63,8.58,6.65,15.48.92,24.38-1.81,1.96-3.02,4.44-5.29,5.98-1.68-2.82-5.29-6.47-6.67-9.2-2.14-4.24-3.26-8.17-1.38-12.88.23-.18,1.39.47,2.3-.69.22-.28-.13-2.28,1.61-3.45.67-.45,2.32-.07,3.45-1.15.73-.69,1.71-4.56,1.84-5.75,1.49-.27,2.46,1.6,3.22,2.76Z"/>
            <path class="cls-22" d="M231.92,238.01c-.13,1.19-1.11,5.06-1.84,5.75-1.13,1.08-2.78.7-3.45,1.15-1.74,1.17-1.39,3.17-1.61,3.45-.91,1.16-2.07.51-2.3.69-.88.72-2.76,2.47-3.68,2.76-.81.25-1.65.8-2.3-.23,2.48-1.36,5.07-8.04,6.44-9.2,1.66-1.4,3.55-.93,3.91-1.15.41-.26,5.54-9.79,4.83-3.22Z"/>
            <path class="cls-10" d="M236.06,265.15c5.73-8.9,4.71-15.8-.92-24.38,1.84,1.1,9.51,11.57,9.66,12.65.32,2.36-6.96,9.8-8.74,11.73Z"/>
            <path class="cls-26" d="M224.1,261.93c-4.61.26-7.85-6.11-5.06-10.12.92-.29,2.8-2.04,3.68-2.76-1.88,4.71-.76,8.64,1.38,12.88Z"/>
          </g>
          <g>
            <path class="cls-17" d="M250.32,147.4l-16.56,20.47,19.09,25.99c2.18-3.67,20.54-27.79,20.47-29.67-.03-.72-8.19-11.07-9.43-10.81l-2.07,6.9s-.31.18-.46-.46c-.33-1.39.36-3.97,0-5.29-.52-1.92-4.4-4.87-5.52-6.67,1.1.14,2.75-.24,3.68,0l3.45,3.68c.71-.2-.38-2.42-.69-2.76l17.02,5.98c-.67,1.03-.27,1.91-.46,2.3-.25.51-3.18,3.99-2.07,4.6l5.75-4.14c8.9,3.39,13.15,10.24,18.86,17.02-2.25,2.63-2,7.09-3.68,10.12-1.65-.92-2.38-3.5-4.14-1.38.01-.06-.78.03-.46-1.15.61-2.27,4.27-5.51,4.14-8.74-.05-1.32-3.15-6.66-4.14-7.82-6.75-7.87-8.29-2.66-15.18-.23-.74.26-2-.36-2.76.23-.63.82,10.68,15.1,11.96,16.79,1.73,2.29,3.36,5.3,5.06,7.36.49.6,3.01,3.69,3.45,3.68,2.29-2.75,4.13-5.85,6.21-8.74,1.38-1.92,3.15-2.89,3.68-5.52.54.74,1.01,1.78,1.38,2.3-1.76,1.52-2.82,3.67-4.14,5.52-.87,1.23-6.01,7.78-5.98,8.51.05,1.19,11.83,14.83,12.65,17.71.3.02,2.23-4.81,2.53-5.52,2.8-6.56,3.22-11.55.46-18.4,3.2,3.48,4.79,7.85,6.9,11.96-.57,2.92-7.33,12.91-7.36,14.95-.01.93,3.19,4.55,3.68,5.75-.7-.1-1.21.23-1.38.92-.53-1.11-3.09-3.27-3.68-4.14-4.96-7.34-10.17-14.5-15.41-21.62-1,.95-1.67,2.17-2.53,3.22-6.14,7.49-11.12,16.71-17.48,24.15,3.98,4.91,7.27,10.36,11.04,15.41l-1.38.92c-1.25-1.74-9.91-14.28-10.81-14.26l-20.01,26.91,17.02,23.69c0,.15-.02.32,0,.46-1.64.04-1.19.68-.92,1.84-.03-.04-.89-.42-.92-.46-4.99-7.99-10.58-15.54-16.33-23l-15.87,20.47c.15.23,2.14.45,2.76.69.52.2,2.2.39,2.3.46,2.82,1.93,3.83,14.06,4.14,17.48.47,5.2-.41,6.79.92,11.96.96,3.75-.86,4.5-1.84.69-.1,1.16-1.04,2.31-1.38,3.22-.4,1.07,1.39-.14.92.92-.16.36-3.51,5.25-4.14,6.21-4.56,6.96-10.82,12.56-17.48,17.48-3.93.85-9.71,5.25-14.95,6.44-18.88,4.28-42.29-2.77-55.43-17.02-.14-.15-.9-1.27-1.38-1.84-1.35-1.6-2.09-3.39-3.22-5.06l17.71,11.04c18.54,10.3,62.06,1.58,69.23-20.01,1.5-4.51,3.37-31.17,0-32.89l16.1-22.77-19.55-26.91-20.93,27.37,15.18,20.93c-1.03.05-1.51.42-2.3.46l-14.49-19.32-16.33,21.62c-.79.18-1.49.34-2.3.46l17.94-24.15-19.55-26.91-19.09,23.92c.47-1.18.86-2.51,1.38-3.68.67-1.51,2.26-3.7,2.76-5.06,1.5-.66,2.63-2.71,3.22-4.14,1.62-1.19,10.49-11.83,10.58-12.65.1-.94-7.2-8.48-6.9-10.81.12-.29.28-.92.46-1.38l7.59,10.58,20.93-27.37-8.74-13.11c.38-.53.87-.86.92-.92l8.97,11.96c1.97-3.55,19.89-24.71,20.01-26.45.05-.75-5.85-8.08-6.9-9.89-.33-.57-.7-1.18-1.38-1.38.06-.06-.02-1.37.92-1.38l8.97,11.04,15.87-18.86c.6-.04,1.23.02,1.84,0Z"/>
            <path class="cls-36" d="M282.52,157.51l-5.75,4.14c-1.11-.61,1.82-4.09,2.07-4.6,1.44.72,1.93-.21,3.68.46Z"/>
            <path class="cls-26" d="M260.44,147.86c.51.12,1.47.52,1.84.92.31.34,1.4,2.56.69,2.76l-3.45-3.68c.26.07.66-.06.92,0Z"/>
            <g>
              <polygon class="cls-37" points="273.55 167.63 294.02 195.46 274.47 222.37 254 195.92 273.55 167.63"/>
              <path class="cls-37" d="M277.46,182.35c6.11,9.12,6.62,15.24.92,24.84-1.14,1.25-3.37,5.4-4.83,5.06-1.91-3.24-4.87-5.91-6.67-9.2s-3.28-5.66-2.76-9.66,7.71-11.47,9.43-15.64c1.01-.17,3.32,3.73,3.91,4.6Z"/>
              <path class="cls-10" d="M278.38,207.19c5.7-9.6,5.19-15.72-.92-24.84l10.12,12.65c-2.32,4.66-5.73,8.39-9.2,12.19Z"/>
              <path class="cls-26" d="M264.12,193.39c-.52,4,.96,6.36,2.76,9.66-1.17,2.49-6.25-3.5-6.44-4.37-.42-1.93.88-6.69,3.68-5.29Z"/>
            </g>
            <g>
              <polygon class="cls-37" points="211 197.99 230.54 224.9 209.62 252.27 190.07 224.9 211 197.99"/>
              <path class="cls-37" d="M214.9,212.71c5.32,8.87,6.42,12.14,1.38,21.62-1.34,2.53-4.01,4.81-5.06,7.59-.32.32-1.24.34-1.61.23-.87-.25-9.32-13.29-8.51-15.64.63-1.29.16-2.88.92-4.14.17-.13.96.24,1.38-.23.21-.24,1.41-4.88,2.3-5.98,1.47-1.82,4.49-2.51,4.6-2.76.16-.37-1.8-4.33,1.38-6.21.38.42,2.62,4.52,3.22,5.52Z"/>
              <path class="cls-22" d="M211.68,207.19c-3.18,1.88-1.22,5.84-1.38,6.21-.11.25-3.13.94-4.6,2.76-.89,1.1-2.09,5.74-2.3,5.98-.42.47-1.21.1-1.38.23-.2.15-3.66,1.79-4.14,1.84s-.8-.11-1.15.46c-1.23-1.1,1.98-2.99,2.53-3.91,3.59-6.05,2.1-4.87,7.13-9.89,1.53-1.53,1.8-4.71,4.6-4.6.38.16.56.78.69.92Z"/>
              <path class="cls-10" d="M216.28,234.33c5.04-9.48,3.94-12.75-1.38-21.62,1.93,1.49,9.06,10.43,9.2,12.19.16,1.98-5.61,8.69-7.82,9.43Z"/>
              <path class="cls-10" d="M202.03,222.37c-.76,1.26-.29,2.84-.92,4.14-.09.18-2.59,2.92-2.99,2.76l-.23-5.06c.48-.05,3.94-1.69,4.14-1.84Z"/>
            </g>
            <g>
              <polygon class="cls-37" points="252.85 197.07 272.86 224.9 252.39 251.81 232.84 224.44 252.85 197.07"/>
              <path class="cls-37" d="M255.84,210.41c5.7,10.21,7.69,14.1,1.84,24.84-1.39,2.54-3.48,4.77-4.83,7.36-1.74-2.79-5.68-6.57-7.13-9.2-2.02-3.66-3.31-7.24-2.76-11.5.27-.19,1.35.29,1.84-.23.41-.44.14-3.05,2.07-4.83.12-.11,1.82.13,2.99-1.15.84-.92,2.33-6.16,1.84-7.59.09-.02.41-1.36,1.61-.92.19.07,1.82,2.52,2.53,3.22Z"/>
              <path class="cls-22" d="M251.7,208.11c.49,1.43-.99,6.67-1.84,7.59-1.17,1.28-2.87,1.04-2.99,1.15-1.93,1.78-1.66,4.39-2.07,4.83-.49.52-1.57.04-1.84.23-1.26.9-2.95,2.23-4.6,2.3,0-.06-1.15.27-.92-.69,3.1-1.61,3.59-5.87,5.06-7.82,1.57-2.08,3.66-2.47,5.52-4.14s-.31-2.64,3.68-3.45Z"/>
              <path class="cls-10" d="M257.68,235.25c5.85-10.74,3.86-14.63-1.84-24.84,2.41,2.36,10.58,12.19,10.12,14.95-.05.33-3.16,4.79-3.68,5.52-.77,1.09-3.15,4.25-4.6,4.37Z"/>
              <path class="cls-26" d="M242.96,221.91c-.55,4.26.74,7.84,2.76,11.5-3.74.53-6.86-5.83-7.36-9.2,1.65-.07,3.34-1.4,4.6-2.3Z"/>
            </g>
            <g>
              <polygon class="cls-37" points="232.15 169.47 251.7 195.46 231.23 222.83 212.14 195.92 232.15 169.47"/>
              <path class="cls-37" d="M237.44,185.11c5.22,9.18,4.49,12.64-.92,21.62-1.42,2.36-3.38,4.53-4.83,6.9-1.41-3.48-5.57-7.11-7.13-10.12-1.77-3.41-2.76-6.87-1.38-10.58.17-.13,1.21.34,1.84-.69.15-.24.31-2.96.46-3.22,1.2-2.05,3.5-1.23,5.06-3.22.95-1.21,1.77-5.87,1.84-7.59.6.14,4.51,5.94,5.06,6.9Z"/>
              <path class="cls-22" d="M232.38,178.21c-.07,1.72-.89,6.38-1.84,7.59-1.56,1.99-3.86,1.17-5.06,3.22-.15.26-.31,2.98-.46,3.22-.63,1.03-1.67.56-1.84.69-1.4,1.06-3.43,2.04-5.06,2.76-.14-2.91,1.28-2.35,2.3-4.37.62-1.23,2.14-5.29,2.76-5.98,1.78-1.97,3.58-1.36,3.91-1.61,2.15-1.64,1.82-5.75,5.29-5.52Z"/>
              <path class="cls-10" d="M236.52,206.73c5.41-8.98,6.14-12.44.92-21.62,1.53.9,7.85,9.38,7.82,10.81-.04,1.66-6.89,9.59-8.74,10.81Z"/>
              <path class="cls-26" d="M223.18,192.93c-1.38,3.71-.39,7.17,1.38,10.58-3.1.89-6.3-4.83-6.44-7.82,1.63-.72,3.66-1.7,5.06-2.76Z"/>
            </g>
          </g>
          <path class="cls-27" d="M182.71,207.65c.45-1.68,1.02-3.35,1.38-5.06,2.84,1.69,2.2,5.32-1.38,5.06Z"/>
          <path class="cls-37" d="M279.3,242.61c1.1,1.91,2.02,4.4,3.22,6.21.43.65,3.13,4.02,4.14,3.91.64,1.48-.64,2.5,1.38,3.68-2.01,2.28-3.15,4-5.52,6.44-2.72,2.8-5.43,3.86-8.28,8.28-2.56-2.76-5.73-6.76-7.36-10.12-2.32-4.8-2.8-7-1.38-12.42.18-.15,1.42.16,1.61,0,1.05-.9,1.05-2.43,1.15-2.53,2.97-2.93,5.39-3.73,5.98-8.97,2.94,1.34,3.01,3.12,5.06,5.52Z"/>
          <path class="cls-22" d="M274.24,237.09c-.59,5.24-3.01,6.04-5.98,8.97-.1.1-.1,1.63-1.15,2.53-.19.16-1.43-.15-1.61,0-1.51,1.26-2.76,2.85-4.6,3.68-.06-.16-1.32.52-1.38-.69-.03-.5,5.06-7.73,5.52-8.28,1.7-2.02,2.92-1.75,4.6-3.22,1.29-1.13,1.35-4.41,4.37-3.91.39.06.18.9.23.92Z"/>
          <path class="cls-26" d="M282.52,262.85c-.38,6.06-4,12.52-10.58,12.88.65-1.87,1.24-2.96,2.3-4.6,2.85-4.42,5.56-5.48,8.28-8.28Z"/>
          <path class="cls-26" d="M266.88,261.01c-1.66,1.52-5.11-2.36-5.52-3.45-.88-2.36.33-3.08-.46-5.29,1.84-.83,3.09-2.42,4.6-3.68-1.42,5.42-.94,7.62,1.38,12.42Z"/>
          <path class="cls-10" d="M286.66,252.73c-1.01.11-3.71-3.26-4.14-3.91-1.19-1.81-2.12-4.3-3.22-6.21,2.6,3.05,5.74,6.38,7.36,10.12Z"/>
          <path class="cls-37" d="M299.08,211.79c4.97,9.63,6.88,13.76.92,23.92-.64,1.09-4.09,6.49-5.29,5.98-1.7-3.7-5.35-6.53-7.13-10.12s-3.11-6.47-1.84-10.58c.97-3.13,7.76-10.42,9.66-13.8.61,1.12,3.11,3.5,3.68,4.6Z"/>
          <path class="cls-10" d="M300,235.71c5.96-10.15,4.05-14.29-.92-23.92,1.71,1.67,8.9,10.1,9.2,11.73.71,3.87-5.74,9.76-8.28,12.19Z"/>
          <path class="cls-26" d="M285.74,220.99c-1.27,4.11.06,6.99,1.84,10.58-1.79.73-1.85.16-3.22-.92-.7-.55-3.75-3.98-3.68-4.83.03-.37,3.85-6.56,5.06-4.83Z"/>
          <path class="cls-27" d="M307.82,249.05c-.79,4.24-.42,8.19,1.84,11.96-.38.03-2.3.36-2.76.46-1.6-3.22-5.92-5.18-3.22-9.2.48-.71,3.3-2.53,4.14-3.22Z"/>
          <path class="cls-22" d="M307.82,249.05c-.84.69-3.66,2.51-4.14,3.22-1.52.03-.99-.72-.46-1.61,2.36-3.92,3.74-7.93,6.21-11.73,1.1.17.4,8.84.23,9.43-.26.9-1.75.62-1.84.69Z"/>
        </g>
      </g>
      <g>
        <path class="cls-11" d="M241.12,318.97c.13.57-.38,1.71.46,1.84,0,.59-.08,1.27,0,1.84.02.15-.03.31,0,.46-3.66.78-6.86,7.89-5.98,11.5-3.52,1.2-9.03.18-12.42.92,6.66-4.92,12.92-10.52,17.48-17.48-.25.95.45.87.46.92Z"/>
        <path class="cls-12" d="M152.81,324.95l-5.52.92c1.43-.73,3.05-1.54,4.14-2.76.48.57,1.24,1.69,1.38,1.84Z"/>
        <g>
          <path class="cls-34" d="M342.78,249.51c.06,1.69-1.24,4.64-1.38,6.44.22-4.68-4.45-.48-4.14,2.3-1.73-2.03-2.62-2.61-5.06-3.68-.96-.42-2.1-1.24-3.22-1.38.53-.79-.46-2.56-.92-3.22.62-1.99.56-3.68,1.84-5.52.13-.19,1.92-1.58,2.3-1.84.55-.38,1.26-.58,1.84-.92,2.79,5.96,8.56,2.42,8.74,7.82Z"/>
          <g>
            <path class="cls-14" d="M433.85,231.57c23.87,2.63,27.18,33.68,23,52.44-1.32,5.9-5.54,14.57-8.74,19.78-1.51,2.47-3.7,5.58-5.52,7.82s-5.6,6.35-7.82,8.28c-14.65,12.71-31.97,14.45-50.6,11.5,15.11-.59,27.39-6.9,37.26-18.17,19.7-22.49,26.46-61.47,0-81.65,3.47-.17,9.08-.37,12.42,0Z"/>
            <path class="cls-28" d="M421.43,231.57c26.46,20.18,19.7,59.15,0,81.65-9.87,11.27-22.15,17.58-37.26,18.17-5.33-.84-8.48-1.97-13.34-4.14,3.05,1.72,5.13-2.89,7.59-3.22.8-.11.94,1.14,2.53.92,1.23-.17.68-.02.92-.92,5.3,2.4,12.28-.94,17.25-3.68,26.02-14.36,36.87-60.56,11.96-80.5-1.69-1.35-5.94-4.68-8.05-3.68-.91-.57-4.48-1.2-5.52-.92-.13-.6.23-.91.46-1.38.08-.16-.05-.53.46-.46.09.13-.2.71.23.92.94.5,1.96-.47,2.07-.46,6.81.33,13.85-1.96,20.7-2.3Z"/>
            <path class="cls-31" d="M460.07,219.15c-7.36,3-18.23,10.3-25.3,11.04s-26.87-3.89-31.05-1.38c-.83.5-1.17,2-1.61,2.76-.99-1.1-.28-3.32,0-4.6,1.44.94.97.4,1.61-.46,15.2-20.52,35.61-14.5,56.35-7.36Z"/>
            <path class="cls-11" d="M460.07,219.15c-20.74-7.14-41.14-13.16-56.35,7.36-.64.86-.17,1.4-1.61.46,2.47-11.18,16.9-23.56,28.29-24.38,12.66-.91,22.83,7.98,31.51,15.87.09,1.22-1.31.47-1.84.69Z"/>
            <path class="cls-32" d="M400.73,232.49v1.38c-.11,0-1.13.96-2.07.46-.43-.21-.14-.79-.23-.92-.84-1.17-1.83-6.91-2.76-8.97-4.29-9.54-11.2-17.97-19.78-23.92,1.9-1.07,10.65-6.21,11.96-5.52,6.17,10.78,12.88,24.81,12.88,37.49Z"/>
            <path class="cls-16" d="M434.77,230.19l-.92,1.38c-3.34-.37-8.95-.17-12.42,0-6.85.34-13.89,2.63-20.7,2.3v-1.38c1.75.28,1.06-.37,1.38-.92.44-.76.78-2.26,1.61-2.76,4.18-2.51,24.11,2.1,31.05,1.38Z"/>
            <g>
              <path class="cls-38" d="M397.97,233.87c-.23.47-.59.78-.46,1.38-4.24,1.15-.74,4.44,2.53,4.6,2.63.13,6.45-1.51,2.99-3.68,2.11-1,6.36,2.33,8.05,3.68,24.91,19.94,14.06,66.14-11.96,80.5-4.97,2.74-11.95,6.08-17.25,3.68.68-2.52-2.75-5.74-3.68-2.53l2.76,3.45c-1.59.22-1.73-1.03-2.53-.92-2.46.33-4.54,4.94-7.59,3.22-2.79-1.25-5.69-2.24-7.82-4.6,7.53-3.22,9.86-6.67,9.66-15.18.58.83,1.34,1.59,2.07,2.3l.23-2.76c1.88-.06,3.49-1.04,5.29-1.38,1.71-1.56-.18-1.28-.23-1.38-3.14-6.64-9.43-4.01-.92-10.12,6.23-.2,11.59-5.78,15.18-10.35-7.1-3.81-14.91-5.69-23-4.6,3.8-3.5,7.99-8.2,8.05-13.57-4.47-.48-7.94.55-11.96,2.3-.78.34-6.23,5.44-5.75,2.76-.29-3.36-2.42-12.66-6.44-11.27.93,3.37,1.82,8.51-1.38,10.81-.39-6.67-4.06-14.2-8.74-18.86,9.21-20.09,33.74-22.09,52.9-17.48Z"/>
              <path class="cls-22" d="M376.13,234.79c.81,0,5.29.16,4.14,1.84-6.23,2.97-13.38,3.6-18.17,8.97-.85.95-5.03,10.18-6.44,5.98-1.54-9.82,12.23-16.77,20.47-16.79Z"/>
              <path class="cls-14" d="M403.03,236.17c3.46,2.17-.36,3.81-2.99,3.68-3.27-.16-6.77-3.45-2.53-4.6,1.04-.28,4.61.35,5.52.92Z"/>
              <path class="cls-22" d="M381.88,324.03c-.24.9.31.75-.92.92l-2.76-3.45c.93-3.21,4.36.01,3.68,2.53Z"/>
              <path class="cls-30" d="M374.98,307.01l-.23,2.76c-.73-.71-1.49-1.47-2.07-2.3-.06-.09.07-.54-.46-.46,0-.15,0-.31,0-.46,1.08-.1,1.61.5,2.76.46Z"/>
            </g>
          </g>
          <path class="cls-28" d="M341.4,255.95c-.14,1.87-.4,3.61-.46,5.52l-1.38.46c-.45-.75-1.88-3.19-2.3-3.68-.31-2.78,4.36-6.98,4.14-2.3Z"/>
        </g>
        <g>
          <path class="cls-31" d="M48.85,270.21c.75-1.15,5.96-4.71,7.36-5.06,1.07-.27,3.16-.26,4.37-.46,3.29,1.12-1.46,8.85-3.68,10.12-4.31,2.47-12.54,2.27-8.05-4.6Z"/>
          <path class="cls-6" d="M57.13,263.31s-.71.16,0,.92c-.43.17-.87.4-.92.92-1.4.35-6.61,3.91-7.36,5.06l-6.9-1.15c-.6-6.27,13.37-11.68,15.18-5.75Z"/>
          <path class="cls-16" d="M177.19,238.01c-.59,1.43-1.72,3.48-3.22,4.14.94-2.56,5.38-14.04,2.07-15.18-4.07-1.4-10.35,8.66-9.89,12.42-.05-.05-.99-.07-1.38-.46-1.23-2.32-4.82-4.36-6.44-6.44,9.15-2.43,17.91-8.29,22.08-17.02-.58,7.7-.26,15.29-3.22,22.54Z"/>
          <path class="cls-35" d="M173.97,242.15c-.5,1.36-2.09,3.55-2.76,5.06-2.01-1.58-3.51-6.25-5.06-7.82-.46-3.76,5.82-13.82,9.89-12.42,3.31,1.14-1.13,12.62-2.07,15.18Z"/>
          <g>
            <path class="cls-6" d="M71.85,253.65c-2.22,4.11-.25,6.77-5.98,6.9-6.64.15-15.35-1.23-18.86-7.59-1.04-1.88-1.1-4.61-1.84-6.21,4.16-.77,12.02.22,16.33,1.38,3.21.87,7.88,3.14,10.35,5.52Z"/>
            <g>
              <path class="cls-6" d="M87.95,233.87c-1.24.82-5.52,5.99-6.67,5.98-11.79-9.13-26.18-15.36-41.17-16.33,14.53,2.8,28.1,7.5,39.79,16.79l.23,1.15c-3.66,3.36-5.94,7.86-8.28,12.19-2.47-2.38-7.13-4.65-10.35-5.52-4.31-1.16-12.17-2.15-16.33-1.38-2.38-5.11-8.68-18.77-7.36-24.15.54-2.22,11.59-7.05,14.03-7.59,14.59-3.22,32.96,2.5,36.11,18.86Z"/>
              <path class="cls-11" d="M70.7,221.91c1.06.22,4.86,6.1,3.68,6.44l-3.68-6.44Z"/>
            </g>
          </g>
          <g>
            <path class="cls-19" d="M184.09,202.59c-.36,1.71-.93,3.38-1.38,5.06-.41,1.55-.89,4.25-1.38,5.52-.18.46-.34,1.09-.46,1.38-.07.16-.31.61-.46.92-4.17,8.73-12.93,14.59-22.08,17.02-.09-.12.09-.75,0-.92,4.51-4.88,6.53-11.57,10.58-16.79,3.53-4.56,13.14-11.57,15.64-15.87.09,1.24-.21,2.49-.46,3.68Z"/>
            <g>
              <path class="cls-1" d="M185.01,195.69c0,.5.05,2.63,0,2.76-.24.63-.44.43-.46.46-2.5,4.3-12.11,11.31-15.64,15.87-4.04,5.22-6.07,11.91-10.58,16.79-.18-.31-.45-.38-.92-1.38l14.72-56.81-9.2,35.42h-1.84c1.83,1.19-1.15,10.73-1.84,11.5-.5.55-.85-.98-1.38-.46,1.24,2.15-.2,7.23-.92,9.89-.02.06-.89.86-.92.92-.74-.64-2.23-2.05-2.76-2.76-12.06-16.03-9.49-31.3,4.14-45.08,1.78,2.62.41,6.12,1.38,8.97.26.77,3.13,5.32,4.14,5.98-3.02-4.81-3.99-10.27-4.6-15.87,2.8-2.68,12.17-11.16,15.87-10.12,4.97,1.4,10.81,18.82,10.81,23.92Z"/>
              <g>
                <path class="cls-31" d="M157.41,182.81c.32-.32.59-.6.92-.92.61,5.59,1.58,11.06,4.6,15.87-1.01-.66-3.88-5.21-4.14-5.98-.97-2.85.4-6.35-1.38-8.97Z"/>
                <path class="cls-4" d="M156.03,230.65c-.14.33,1.21,1.01-.46.92-.46-.73-1.99-1.8-2.76-2.3l.46-1.38c.53.7,2.02,2.12,2.76,2.76Z"/>
                <path class="cls-11" d="M157.41,230.19s-.54.07-.46-.46c.72-2.66,2.16-7.74.92-9.89.53-.52.88,1.01,1.38.46.69-.77,3.67-10.31,1.84-11.5h1.84l9.2-35.42-14.72,56.81Z"/>
                <path class="cls-31" d="M154.65,215.01c-2.87-4.58-5.5-9.69-4.37-15.18.79,5.27,2.02,10.38,4.37,15.18Z"/>
                <polygon class="cls-31" points="154.88 194.77 159.48 207.19 155.11 200.06 154.88 194.77"/>
                <path class="cls-31" d="M155.57,216.39c-.18-.31-.46-.43-.92-1.38.23.37.66,1.01.92,1.38Z"/>
                <path class="cls-31" d="M156.49,217.77c-.68-.8-.49-.63-.92-1.38.4.57.43.36.92,1.38Z"/>
                <path class="cls-11" d="M156.49,217.77c.03.07,1.54.6.69,1.38-.72-.26-.64-1.32-.69-1.38Z"/>
              </g>
            </g>
          </g>
          <g>
            <path class="cls-6" d="M93.47,189.25c6.69,4.62,11.58,9.23,17.02,15.18l-18.17,3.22c-4.01.15-7.98-.09-11.96-.46-.32-.03-.14.96-.46.92-.25-.03-3.71-1.55-4.37-1.84-6.72-2.95-12.98-9.7-17.02-15.64,4.55-3.98,10.15-.11,14.95.46,6.68.8,13.95,1.67,20.01-1.84Z"/>
            <path class="cls-31" d="M93.47,189.25c-6.06,3.51-13.33,2.64-20.01,1.84-4.8-.57-10.4-4.44-14.95-.46-4.62-6.8-8.31-14.69-8.28-23l30.82,13.57-24.61,4.83c5.21-.32,10.47-.71,15.64-1.38,1.94-.25,9.6-2.8,10.12-2.76,1.14.09,9.65,6.24,11.27,7.36Z"/>
            <path class="cls-6" d="M116.47,211.33c-13.36,1.68-29.25,2.61-40.94-5.06.66.29,4.12,1.81,4.37,1.84.32.04.14-.95.46-.92,3.98.37,7.95.61,11.96.46l18.17-3.22c2.29,2.51,3.85,4.15,5.98,6.9Z"/>
            <path class="cls-12" d="M51.15,167.17c13.15,5.8,27.08,10.27,39.33,17.94,10.52,6.59,18.56,14.81,26.45,24.15.4.47.71-.48.92-.23.83,1.01,1.54,4.78,3.68,5.06-.06.89-.42,1.57-.46,2.76-1.74-1.62-3.15-3.65-4.6-5.52-2.13-2.75-3.69-4.39-5.98-6.9-5.44-5.95-10.33-10.56-17.02-15.18-1.62-1.12-10.13-7.27-11.27-7.36-.52-.04-8.18,2.51-10.12,2.76-5.17.67-10.43,1.06-15.64,1.38l24.61-4.83-30.82-13.57c-.03-.72.67-.35.92-.46Z"/>
            <g>
              <path class="cls-6" d="M117.85,209.03c-.21-.25-.52.7-.92.23-7.88-9.33-15.93-17.56-26.45-24.15-12.25-7.67-26.18-12.13-39.33-17.94,4.47-2.01,19.04-3.08,24.15-2.76,22.99,1.44,44.34,20.71,42.55,44.62Z"/>
              <path class="cls-11" d="M105.2,182.35c1.22,2.05,3.2,6,2.3,8.28l-2.3-8.28Z"/>
            </g>
          </g>
          <g>
            <path class="cls-6" d="M152.81,229.27c.77.5,2.3,1.57,2.76,2.3,5.02,8.01,1.01,37.18-5.52,43.93-2.46,2.55-4.73-.29-6.9,2.07-.15,0-.31.01-.46,0-.7-.05-1.96-.34-2.76-.46-1.17-.17-1.95-.53-3.22-.23,7.67-10.42,9.32-28.85,5.06-40.94-.93-2.64-5.1-7.65-5.52-8.97-.29-.92.53-1.47.46-2.3,4.28.17,12.49,2.24,16.1,4.6Z"/>
            <path class="cls-32" d="M125.67,225.59c-.17,1.05.12,2.35,0,3.45-5.04,2-4.36-.34-4.6-3.91-.17-2.55-.09-5.7,0-8.28.04-1.19.4-1.87.46-2.76.41-5.78.99-15.58,4.14-20.47s6.24-1.86,11.04-.92c-5.98,10.82-9.11,20.77-11.04,32.89Z"/>
            <path class="cls-6" d="M136.71,224.67c.07.83-.75,1.38-.46,2.3-1.12,1.02-2.63,1.67-3.68,2.76-3.03.48-6.75,2.29-9.89,1.84-2-.29-4.22-3.4-6.21-2.3-.73-.98-2.74-1.72-2.3-3.68,1.95-.04,4.69-.91,6.9-.46.24,3.57-.44,5.91,4.6,3.91.12-1.1-.17-2.4,0-3.45,3.52-.09,7.58-1.06,11.04-.92Z"/>
            <path class="cls-6" d="M137.63,284.01c-.42,3.17-.38,5.11,0,8.28-2.09.85,1.14,6.32.92,7.13-.48,1.75-14.79,8.29-17.25,8.97-14.28,3.95-29.95,2.37-42.78-5.06-2.69-1.56-5.17-4.52-8.05-5.52-1.28-3.25-2.66-7.37-3.22-10.81-.11-.68-.62-3.18.46-3.45,21.34,14.75,35.4,19.9,60.95,7.36l8.97-6.9Z"/>
            <path class="cls-6" d="M137.63,292.29c.59,4.89,1.69,6.64,3.22,11.04.64,1.85.86,3.82,1.84,5.98-17.37,14.14-42.06,13.55-61.64,4.14-3.9-4.24-7.77-8.91-10.12-14.26-.12-.28-.28-.92-.46-1.38,2.88,1,5.36,3.96,8.05,5.52,12.83,7.43,28.5,9.01,42.78,5.06,2.46-.68,16.76-7.22,17.25-8.97.22-.81-3.01-6.28-.92-7.13Z"/>
            <g>
              <path class="cls-11" d="M87.95,233.87c8.93-5.93,15.75-8.06,26.22-8.28-.44,1.96,1.57,2.7,2.3,3.68,3.53,4.73,6.61,7.78,13.11,4.14,1.4-.78,2.27-2.94,2.99-3.68,1.05-1.08,2.56-1.74,3.68-2.76.42,1.32,4.59,6.33,5.52,8.97,4.26,12.09,2.61,30.52-5.06,40.94,1.27-.3,2.05.06,3.22.23-1.71,1.39-2.03,4.89-2.3,6.9l-8.97,6.9c-25.55,12.54-39.61,7.39-60.95-7.36-.25-.17-.58-1.22-1.38-1.38l2.3-20.01c-3.82.33-7.89.64-11.5,2.07-.71-.76.01-.88,0-.92,2.71-1.12,6.64-.74,8.74-2.76,5.73-.13,3.76-2.79,5.98-6.9,2.34-4.32,4.62-8.83,8.28-12.19l-.23-1.15c-11.69-9.29-25.25-13.99-39.79-16.79,14.99.97,29.38,7.2,41.17,16.33,1.15,0,5.43-5.16,6.67-5.98Z"/>
              <path class="cls-22" d="M93.7,238.01c.6-.06,1.23.04,1.84,0,1.7.92-11.36,14.18-12.19,15.41-2.74,4.04-4.08,10.62-5.98,13.34-3.17,4.52-2.24-5.95-1.84-7.82,1.3-6.15,11.56-20.27,18.17-20.93Z"/>
            </g>
            <path class="cls-6" d="M132.57,229.73c-.72.74-1.59,2.9-2.99,3.68-6.5,3.64-9.58.59-13.11-4.14,1.99-1.1,4.21,2.01,6.21,2.3,3.14.45,6.86-1.36,9.89-1.84Z"/>
            <path class="cls-31" d="M146.37,315.75c.47.79,1.44,1.71,1.84,2.3,1.13,1.67,1.87,3.46,3.22,5.06-1.09,1.22-2.71,2.03-4.14,2.76-12.82,6.51-27.11,7.47-40.94,3.68-.11-2.69,5.87-1.59,7.13-1.84,11.53-2.26,22.21-7.36,32.89-11.96Z"/>
            <path class="cls-31" d="M166.15,239.39c1.55,1.57,3.05,6.24,5.06,7.82-.52,1.17-.91,2.5-1.38,3.68-.55,1.38-1.12,2.85-1.84,4.14-.02-.84-2.64-15-3.22-16.1.39.39,1.33.41,1.38.46Z"/>
            <path class="cls-6" d="M157.41,230.19c.47,1,.74,1.07.92,1.38.09.17-.09.8,0,.92,1.62,2.08,5.21,4.12,6.44,6.44.58,1.09,3.2,15.26,3.22,16.1,0,.3,0,.62,0,.92,0,.38-.77,1.93-.92,2.76-1.16,6.29-4.9,12.67-5.06,19.32-6.23-.23-12.66-.06-18.86-.46,2.17-2.36,4.44.48,6.9-2.07,6.53-6.75,10.53-35.92,5.52-43.93,1.67.09.32-.59.46-.92.03-.06.9-.86.92-.92-.08.53.45.43.46.46Z"/>
            <path class="cls-31" d="M146.37,315.75c-10.68,4.6-21.36,9.7-32.89,11.96-1.26.25-7.24-.85-7.13,1.84-6.03-1.65-12.43-5.05-17.48-8.74-3.02-2.2-5.31-4.63-7.82-7.36,19.58,9.41,44.27,10,61.64-4.14.97,2.13,2.47,4.41,3.68,6.44Z"/>
          </g>
        </g>
        <g>
          <path class="cls-19" d="M345.08,251.35c4.68,4.66,8.35,12.19,8.74,18.86,0,.16,0,1.31,0,1.38-.08.78-.86,2.07-.46,3.22-.79-.48-1.66-.61-2.3-.92-1.9-.92-3.18-1.87-5.52-1.84-3.91-1.46-4.83-4.88-5.06-8.74-.01-.18.43-.91.46-1.84.06-1.91.32-3.65.46-5.52s1.44-4.75,1.38-6.44c.74.56,1.66,1.2,2.3,1.84Z"/>
          <path class="cls-1" d="M379.12,294.13c1-.72,2.15-.15,2.3-1.61-5.52-3.31-11.29-1.98-17.02-.23h-.46c.31-1.64.01-4.76-.46-6.44.62-.73,10.77-1.54,9.66-2.99-3.6-.57-7.27-.37-10.58,1.15-.3-.63-1.79-2.62-2.3-3.22.78-1.11,1.3-3.8,1.38-5.06.05-.87.07-4.3,0-5.06-.48,2.68,4.97-2.42,5.75-2.76,4.02-1.75,7.49-2.78,11.96-2.3-.06,5.37-4.25,10.07-8.05,13.57,8.09-1.09,15.9.79,23,4.6-3.59,4.57-8.95,10.15-15.18,10.35Z"/>
          <path class="cls-31" d="M379.12,294.13c-8.51,6.11-2.22,3.48.92,10.12-3.58-1.1-6.71-5.93-10.58-4.14-.78-.98-6.36-4.86-7.36-5.06.27-.77,1.72-2.13,1.84-2.76h.46c.11,2.42,3.69.39,5.29.46,2.64.11,7.02,1.46,9.43,1.38Z"/>
          <path class="cls-1" d="M380.04,304.25c.05.1,1.94-.18.23,1.38-1.8.34-3.41,1.32-5.29,1.38-1.15.04-1.68-.56-2.76-.46-.08-1.34-1.87-5.31-2.76-6.44,3.87-1.79,7,3.04,10.58,4.14Z"/>
          <path class="cls-6" d="M361.64,270.67c.07.76.05,4.19,0,5.06-2.22-3.18-.51-8.14-3.45-11.04-1.08.04-.96,7.66-4.37,6.9,0-.07,0-1.22,0-1.38,3.2-2.29,2.31-7.44,1.38-10.81,4.02-1.39,6.15,7.9,6.44,11.27Z"/>
          <path class="cls-26" d="M257.22,304.25c.03.3-.05.63,0,.92l-2.3,3.68c-7.81-.32-9.35,5.24-13.34,9.66-.02.02-.54-.06-.46.46-.01-.05-.71.03-.46-.92.63-.96,3.98-5.85,4.14-6.21.47-1.06-1.32.15-.92-.92.34-.91,1.28-2.06,1.38-3.22.98,3.81,2.8,3.06,1.84-.69,1.3-.51,1.64-1.74,2.3-2.76l6.67-3.22,1.15,3.22Z"/>
          <path class="cls-6" d="M379.12,294.13c-2.41.08-6.79-1.27-9.43-1.38-1.6-.07-5.18,1.96-5.29-.46,5.73-1.75,11.5-3.08,17.02.23-.15,1.46-1.3.89-2.3,1.61Z"/>
          <path class="cls-1" d="M363.48,285.85c-.15-.54-.65-1.28-.92-1.84,3.31-1.52,6.98-1.72,10.58-1.15,1.11,1.45-9.04,2.26-9.66,2.99Z"/>
          <g>
            <path class="cls-23" d="M231.46,275.73c2.1,45.32-66.84,66.4-90.62,27.6-1.53-4.4-2.63-6.15-3.22-11.04-.38-3.17-.42-5.11,0-8.28.27-2.01.59-5.51,2.3-6.9.8.12,2.06.41,2.76.46-8.8,26.31,16.72,43.82,40.71,42.32,11.97-.75,26.85-8.2,34.73-17.25,6.19-7.11,11.64-18.53,8.28-27.83,3.05-.11,2.22-.06,5.06.92Z"/>
            <path class="cls-27" d="M235.14,276.19c3.37,1.72,1.5,28.38,0,32.89-7.17,21.59-50.68,30.3-69.23,20.01l-17.71-11.04c-.4-.59-1.37-1.51-1.84-2.3-1.21-2.03-2.71-4.31-3.68-6.44s-1.2-4.13-1.84-5.98c23.77,38.8,92.72,17.72,90.62-27.6,1.1.38,3.47.35,3.68.46Z"/>
            <g>
              <path class="cls-22" d="M210.31,267.45c-.28,3.69-4,6.77-6.9,8.51.22,1.49,10.71-.15,11.96-.23.76-.05,1.54.05,2.3,0,1.98-.13,4.03-.36,5.98-.46.79-.04,1.27-.41,2.3-.46.15,0,.31,0,.46,0,3.36,9.3-2.09,20.72-8.28,27.83-7.87,9.04-22.76,16.5-34.73,17.25-23.99,1.51-49.51-16.01-40.71-42.32.15.01.31,0,.46,0,6.2.4,12.63.23,18.86.46,2.32.09,4.61.43,6.9.46,1.22.02,2.46,0,3.68,0,1.32,0,3-.46,3.68-.46.42,0,1.57.48,2.76.46.91-.02,1.85.03,2.76,0,.96-.04,2.14-.45,2.3-.46,1.87-.11,3.95.37,6.44,0,.81-.12,1.51-.28,2.3-.46,6.8-1.53,4.84-2.51,9.43-6.44.56-.48,2.21-.38,2.3-.46,1-.87,6.23-9.52,5.75-3.22Z"/>
              <g>
                <path class="cls-26" d="M188,283.55l27.83,14.03c-5.05,6.57-11.92,11.35-19.55,14.49l-8.28-28.52Z"/>
                <path class="cls-26" d="M181.56,284.47c1.2-.13,1.19.04,1.15,1.15-.1,3.01-12.66,23.38-14.49,27.83-3.59-.11-16.98-8.84-17.25-11.73-.22-2.36,27.3-14.6,30.59-17.25Z"/>
                <path class="cls-26" d="M185.24,284.47l8.51,28.29c-7.05,2.83-14.92,3.12-22.31,1.61l13.8-29.9Z"/>
                <path class="cls-26" d="M147.98,281.25c2.52,1.27,32.98-.79,32.89,1.61-.07,1.75-27.53,14.35-31.05,16.33-3.02-2.09-5.02-16.72-1.84-17.94Z"/>
                <path class="cls-26" d="M217.89,278.49c1.38-.02,2.76.01,4.14,0,2.56,1.13-2.26,14.91-4.6,16.56l-27.37-12.65c.22-1.39,25.43-3.88,27.83-3.91Z"/>
              </g>
            </g>
            <path class="cls-37" d="M213.06,269.75l2.3,5.98c-1.25.08-11.74,1.72-11.96.23,2.9-1.74,6.62-4.82,6.9-8.51,1.34.36,1.83,1.45,2.76,2.3Z"/>
          </g>
          <path class="cls-10" d="M179.03,278.49c-1.19.02-2.34-.46-2.76-.46l1.15-2.3,1.61,2.76Z"/>
          <path class="cls-26" d="M264.58,289.07c-4.59,2.71-7.94,9.85-7.36,15.18l-1.15-3.22-6.67,3.22c.64-1,1.99-2.34,1.84-3.68,1.99-1.93,3.2-4.38,5.06-6.44.03-.04.19,1.05.92.23,2.52-2.82,4.53-6.2,7.13-8.97l.23,3.68Z"/>
          <g>
            <path class="cls-31" d="M361.64,275.73c-.08,1.26-.6,3.95-1.38,5.06-.31-.36-1.46-1-1.84-1.38-1.01-1.01-4.06-3.99-5.06-4.6-.4-1.15.38-2.44.46-3.22,3.41.76,3.29-6.86,4.37-6.9,2.94,2.9,1.23,7.86,3.45,11.04Z"/>
            <path class="cls-15" d="M340.02,318.51c3.98,11.79-7.23,23.59-19.32,20.24-3.59-1.26-2.09.79-4.83,1.84-3.31,1.27-6.98,1.92-10.58,1.38-1.98-.3-5.37-2.93-6.9-2.76-.33.04-4.32,2.52-5.98,2.76-6.39.91-9.94-2.32-13.8-2.3-3.32.02-6.44,3.23-11.96,2.76-4.23-.36-8.68-4.64-9.2-4.6-.33.03-2.96,3.51-5.06,4.14-5.4,1.63-13.88-.94-16.33-6.44-.16-.35-.37-.56-.46-.92-.88-3.61,2.32-10.72,5.98-11.5,1.4,6.99,10.78,9.2,16.79,8.28,3.72-.57,3.43-3.08,7.59-1.84.13.04,1.72,1.31,2.07,1.38,5.72,1.19,15.2-2.3,18.86-6.9.87.1,1.03,2.71,1.61,3.68,6.02,10.02,18.27,9.27,25.3.46,1.34,9.52,19.45,9.61,23,.69l3.22-10.35Z"/>
            <g>
              <path class="cls-15" d="M350.6,307.01c5.89,1.37,8.33,6.47,9.89,11.96,5.67-.65,11.68-6.13,11.73-11.96.53-.08.4.37.46.46.2,8.51-2.13,11.96-9.66,15.18-.44.19-1.67-.19-2.07,0-.75.36-2.83,7.44-4.37,9.43-1.62,2.1-3.69,2.83-5.52,4.37-5.31,4.48-7.11,6.79-14.95,7.36-8.78.64-8.36-2.59-15.41-5.06,12.09,3.36,23.3-8.45,19.32-20.24-.94-2.79-2.46-4.14-4.6-5.98-.44-.38-1.48-.55-1.84-.92,1.53-2.75,7.6-4.86,10.35-5.06.38-.03,6.34.38,6.67.46Z"/>
              <path class="cls-22" d="M347.61,308.39c5.72-2.02,8.04,8.56-.46.92-.45-.23.31-.87.46-.92Z"/>
            </g>
            <path class="cls-25" d="M258.6,309.77c-1.04-.39-2.58-.88-3.68-.92l2.3-3.68c.04.25,3.36,5.19,1.38,4.6Z"/>
            <path class="cls-29" d="M314.26,322.19c-.1.7-.5,5.68-.46,5.98-7.03,8.81-19.28,9.56-25.3-.46,13.46,6.05,24-2.41,27.14-15.18.21.16,2.27-.12,2.3,1.15,0,.47-3.19,4.94-3.68,8.51Z"/>
            <g>
              <path class="cls-21" d="M323.92,272.97c.41,3.33-.35,6.53-1.38,9.66-5.88-.17-10.63,5.47-11.27,5.52-.24.02-3.14-2.29-4.14-2.3-1.99-.02-1.52,1.32-1.61,1.38s-1.4.69-1.84.92c-1.15-1.21-6.12-2.66-6.44,0-1.67-1.36,3.12-2.73-3.22-2.3.16-.66-2.14-2.28-2.3-2.3.64,0,.54-.93.46-1.38,7.62-1.3,16.59,1.39,22.77-4.6,3.34-3.24,5.37-10.85.92-13.8-.45-.3-.83.6-1.15.46-.61-.27-.88-.83-1.38-.92l.46-1.84c4.74,1.25,9.51,6.57,10.12,11.5Z"/>
              <g>
                <path class="cls-18" d="M312.88,261.01c.05,0,0,.21.92.46l-.46,1.84c-2.37-.42-4.38-.95-6.44.69-2.4,2.34,7.64,2.45,7.82.23.32.14.7-.76,1.15-.46,4.45,2.95,2.42,10.56-.92,13.8-6.18,5.99-15.15,3.3-22.77,4.6-1.25-7.15,2.4-14.69,8.74-18.4.07-.04.67-.12,1.38-.46.83-.4,3.88-1.68,4.6-1.84.46-.1,2.38-.43,2.76-.46.89-.06,2.4-.13,3.22,0Z"/>
                <path class="cls-22" d="M313.34,263.31c.5.09.77.65,1.38.92-.18,2.22-10.22,2.11-7.82-.23,2.06-1.64,4.07-1.11,6.44-.69Z"/>
                <path class="cls-22" d="M298.85,270.67c.96-.34,3.75.15,4.83.69l-8.51,4.83c-1.01-.51,3.03-5.29,3.68-5.52Z"/>
              </g>
            </g>
            <g>
              <path class="cls-29" d="M351.06,273.89c.64.31,1.51.43,2.3.92,1,.61,4.05,3.59,5.06,4.6-.12,3.11,1.33,5.09.46,8.51-1.88,7.42-13.85,10.2-19.78,6.67-.87-3.48-5.43-8.2-8.74-9.66l2.76-5.06c.33-.12.6-.3.92-.46v.46l.92,1.84c-.08.18.05.63,0,.92-.01.08-.88.7-.46,1.61,5.87,2.68,16.18,1.37,17.02-5.75.01-.11,1.39-.26.46-1.61-.75-1.09-1.83-.88-2.76-1.15l1.84-1.84Z"/>
              <path class="cls-20" d="M345.54,272.05c2.34-.03,3.62.92,5.52,1.84l-1.84,1.84c-.35-.1-.94.05-1.38,0-5.18-.64-10.12.36-13.8,4.14v-.46c.25-.12,1.76-2.13,2.76-2.76,2.4-1.5,5.33-4.55,8.74-4.6Z"/>
              <path class="cls-20" d="M360.26,280.79c.51.6,2,2.59,2.3,3.22.27.56.77,1.3.92,1.84.47,1.68.77,4.8.46,6.44-.12.63-1.57,1.99-1.84,2.76-4.4-.89-11.09,1.29-15.18,2.99.1,2.67,4.02,1,4.6,2.3.42.93-3,4.98-.92,6.67-.33-.08-6.29-.49-6.67-.46-2.75.2-8.82,2.31-10.35,5.06-.09-.09-.78-.32-.92-.69,4.94-4.33,8.16-9.44,6.44-16.33,5.93,3.53,17.9.75,19.78-6.67.87-3.42-.58-5.4-.46-8.51.38.38,1.53,1.02,1.84,1.38Z"/>
              <path class="cls-29" d="M347.84,275.73c.2,1.65,2.15,2.86,3.68,2.76-.84,7.11-11.14,8.43-17.02,5.75-.42-.91.45-1.53.46-1.61,1.45.3,7.14-2.85,5.29-4.14-1.78-.54-4.64,1.66-5.29,3.22l-.92-1.84c3.68-3.78,8.61-4.78,13.8-4.14Z"/>
              <path class="cls-22" d="M334.96,282.63c.05-.29-.08-.74,0-.92.65-1.56,3.51-3.76,5.29-3.22,1.85,1.29-3.84,4.44-5.29,4.14Z"/>
              <path class="cls-22" d="M349.22,275.73c.93.27,2.01.06,2.76,1.15.93,1.35-.45,1.5-.46,1.61-1.53.1-3.48-1.11-3.68-2.76.44.05,1.03-.1,1.38,0Z"/>
            </g>
            <g>
              <g>
                <path class="cls-15" d="M337.26,258.25c.42.49,1.85,2.93,2.3,3.68.27.45.34,1.19.92,1.38.23,3.86,1.15,7.28,5.06,8.74-3.41.05-6.34,3.1-8.74,4.6-1.91-2.77-4.67,1.67-6.67,2.3v1.38c.99-1.08,2.85-.41,2.99-.46l-2.76,5.06c-1.27-.56-2.78-1.07-4.14-1.38-.89-.2-3.47-.91-3.68-.92,1.03-3.13,1.79-6.33,1.38-9.66,9.99-.99,13.91-10.32,8.28-18.4,2.44,1.07,3.33,1.65,5.06,3.68Z"/>
                <path class="cls-26" d="M340.94,261.47c-.03.93-.47,1.66-.46,1.84-.58-.19-.65-.93-.92-1.38l1.38-.46Z"/>
                <path class="cls-22" d="M336.8,276.65c-1,.63-2.51,2.64-2.76,2.76-.32.16-.59.34-.92.46-.14.05-2-.62-2.99.46v-1.38c2-.63,4.76-5.07,6.67-2.3Z"/>
                <path class="cls-22" d="M338.41,270.21c2.55-.67,3.51,1.88,1.84,3.22-2.02,1.62-5.1-2.36-1.84-3.22Z"/>
              </g>
              <g>
                <path class="cls-29" d="M325.76,253.19c.93-.07,2.33-.11,3.22,0,1.12.14,2.26.96,3.22,1.38,5.63,8.08,1.71,17.41-8.28,18.4-.6-4.93-5.38-10.25-10.12-11.5-.93-.25-.87-.45-.92-.46,3.2-3.96,7.57-7.43,12.88-7.82Z"/>
                <path class="cls-22" d="M318.63,258.71c4.63-1.44,2.55,4.2-.92,2.76-1.42-.59.16-2.52.92-2.76Z"/>
              </g>
            </g>
            <g>
              <path class="cls-29" d="M340.02,318.51l-3.22,10.35c-3.55,8.92-21.66,8.83-23-.69-.04-.3.36-5.28.46-5.98,2.19-.12.48,3.49.92,4.83.1.3,2.62,2.36,2.99,2.53,10.13,4.61,23.39-6.18,17.25-17.02,2.14,1.84,3.66,3.19,4.6,5.98Z"/>
              <g>
                <path class="cls-21" d="M330.36,284.93c3.31,1.46,7.87,6.18,8.74,9.66,1.72,6.89-1.5,12-6.44,16.33.14.37.83.6.92.69.36.37,1.4.54,1.84.92,6.14,10.84-7.11,21.63-17.25,17.02-.37-.17-2.89-2.23-2.99-2.53-.44-1.34,1.27-4.95-.92-4.83.49-3.57,3.69-8.04,3.68-8.51-.03-1.27-2.09-.99-2.3-1.15-4.61-3.49-7.03-7.75-6.44-13.8,6.13,12.79,28.65,7.19,24.38-7.13-.86-2.87-2.24-2.6-3.22-3.45-.69-.6-.43-2.4-3.22-2.3.12-.99-.09-.89-.92-.92v-1.38c1.36.31,2.87.82,4.14,1.38Z"/>
                <path class="cls-22" d="M320.47,318.51c6.55-1.27,2.05,1.28.92,2.3-1.55,1.41-2.57,3.21-4.14,4.6-1.91-.38.8-6.43,3.22-6.9Z"/>
                <path class="cls-22" d="M325.99,312.07c1.44-.35,5.6.12,6.21,2.07-.24.93-9.31,1.61-8.28-.92.63-.13,1.69-1.06,2.07-1.15Z"/>
              </g>
            </g>
            <g>
              <path class="cls-29" d="M362.1,295.05c1,.2,6.58,4.08,7.36,5.06.89,1.13,2.68,5.1,2.76,6.44,0,.15,0,.31,0,.46-.04,5.83-6.06,11.31-11.73,11.96-1.56-5.49-4-10.59-9.89-11.96-2.08-1.69,1.34-5.73.92-6.67-.58-1.3-4.5.37-4.6-2.3,4.09-1.7,10.78-3.88,15.18-2.99Z"/>
              <path class="cls-22" d="M360.49,297.35c.72-.12,1.56.08,2.3,0,3.92,2.95-5.92,5.41-4.83,1.61.07-.23,2.36-1.58,2.53-1.61Z"/>
            </g>
            <g>
              <path class="cls-29" d="M285.28,308.85c5.1,12.06-9.31,19.35-19.32,20.7-4.16-1.24-3.87,1.27-7.59,1.84-6.01.92-15.39-1.29-16.79-8.28,3.09-.66,7.13,4.77,14.95.92,3.47-1.71,7.48-8.26,3.68-11.04-.03-.02-.44.62-.69.46-.95-.59-2.1-1.15-3.22-1.38-7.82-1.63-11.93,3.75-14.72,10.58-.08-.57,0-1.25,0-1.84v-2.3c3.99-4.42,5.53-9.98,13.34-9.66,1.1.04,2.64.53,3.68.92.22.08,1.78,2.2,3.68,2.76,2.72,3.82,2.02,1.5,3.68.46,1.55-.97,5.81-4.86,6.9-2.76-4.43,2.44-13.82,12.21-8.74,17.25,4.36,4.33,28.37-11.22,17.02-19.09v-.46c2.42.04,1.9.21,4.14.92Z"/>
              <path class="cls-8" d="M241.58,320.81c-.84-.13-.33-1.27-.46-1.84-.08-.52.44-.44.46-.46v2.3Z"/>
              <g>
                <path class="cls-18" d="M256.3,312.07c-6.74.71.33,4.24,3.22,1.38.25.16.66-.48.69-.46,3.81,2.78-.21,9.33-3.68,11.04-7.82,3.85-11.86-1.58-14.95-.92-.03-.15.02-.31,0-.46,2.79-6.83,6.9-12.21,14.72-10.58Z"/>
                <path class="cls-22" d="M256.3,312.07c1.12.23,2.27.79,3.22,1.38-2.89,2.86-9.96-.67-3.22-1.38Z"/>
                <path class="cls-33" d="M247.79,317.59c6.46-.54-1.92,3.17-3.22,4.14-1.36-1.5,2.3-4.06,3.22-4.14Z"/>
              </g>
            </g>
            <g>
              <path class="cls-18" d="M326.22,284.93c.83.03,1.04-.07.92.92-.93.03-1.53.16-2.3.69l.23,1.61c1.85.53,4.11,2.64,5.29,0,.98.85,2.36.58,3.22,3.45,4.27,14.32-18.25,19.91-24.38,7.13.85-8.74,8.54-14.15,17.02-13.8Z"/>
              <path class="cls-22" d="M327.14,285.85c2.79-.1,2.53,1.7,3.22,2.3-1.18,2.64-3.44.53-5.29,0l-.23-1.61c.77-.53,1.37-.66,2.3-.69Z"/>
              <path class="cls-22" d="M316.79,289.99c1.86-.36,4.11.01,5.29,1.61-4.51,1.2-8.33,2.97-10.81,7.13-1.31-2.75,2.9-8.23,5.52-8.74Z"/>
            </g>
            <g>
              <path class="cls-29" d="M294.02,285.85c-4.59.31-9.88,4.63-11.04,9.2-1.68-2.07-.68-3.64.46-5.52,1.26-2.09,5.9-6.25,8.28-5.98.16.02,2.46,1.64,2.3,2.3Z"/>
              <g>
                <path class="cls-18" d="M294.02,285.85c6.34-.43,1.55.94,3.22,2.3.38.31,5.76,1.07,6.21.92.41-.13.17-.89.23-.92.44-.23,1.75-.86,1.84-.92,4.77,4.69-.53,12.92-5.75,14.72s-18.83,1.13-16.79-6.9c1.16-4.57,6.45-8.88,11.04-9.2Z"/>
                <path class="cls-22" d="M291.03,289.53c.95-.23,4.92-.06,4.83,1.15-.05.63-9.78,4.49-10.35,7.13-1.76-2.18,4.2-7.96,5.52-8.28Z"/>
              </g>
              <path class="cls-22" d="M303.68,288.15c-.06.03.18.79-.23.92-.45.15-5.83-.61-6.21-.92.32-2.66,5.29-1.21,6.44,0Z"/>
            </g>
            <g>
              <path class="cls-29" d="M322.54,282.63c.21,0,2.79.72,3.68.92v1.38c-8.48-.35-16.17,5.06-17.02,13.8-.59,6.05,1.83,10.31,6.44,13.8-3.14,12.77-13.68,21.23-27.14,15.18-.58-.97-.74-3.58-1.61-3.68-3.66,4.6-13.14,8.09-18.86,6.9-.35-.07-1.94-1.34-2.07-1.38,10-1.35,24.42-8.63,19.32-20.7,1.79.57,3.43,2.73,4.14.69-2.98-.67-5-2.85-6.67-5.29l-2.53,3.68c-3.39.23-2.48.35-5.06,1.38-.79.32-1.53.49-2.3.92-1.09-2.1-5.35,1.79-6.9,2.76-.77-1.05-3.5-.41-3.68-.46-1.9-.56-3.46-2.68-3.68-2.76,1.98.59-1.34-4.35-1.38-4.6-.05-.29.03-.62,0-.92-.58-5.33,2.77-12.47,7.36-15.18.73-.43,4.15-1.66,5.06-1.84s2.85-.43,3.68-.46c.45-.01.93-.02,1.38,0,.8.04,2.96.3,3.68.46,1.53.35,3.5,1.85,5.06,2.3-1.14,1.88-2.14,3.44-.46,5.52-2.04,8.03,11.36,8.77,16.79,6.9s10.52-10.03,5.75-14.72c.09-.06-.38-1.4,1.61-1.38,1,.01,3.9,2.32,4.14,2.3.64-.05,5.39-5.69,11.27-5.52Z"/>
              <g>
                <path class="cls-20" d="M285.28,308.85c-2.24-.71-1.72-.88-4.14-.92-.3,0-.62-.02-.92,0l2.53-3.68c1.67,2.44,3.69,4.62,6.67,5.29-.71,2.04-2.35-.12-4.14-.69Z"/>
                <g>
                  <path class="cls-21" d="M260.9,300.57l5.98-5.75-3.68-.23c.59-.64,3.92-3.62,4.37-3.68.81-.11.99.91,1.61.92,1.33.03,5.87,1.35,6.44-1.38.38.18,1.27-.33,1.84.69,3.98,7.2-12.59,14.21-16.56,9.43Z"/>
                  <path class="cls-22" d="M260.9,300.57c-1.83-2.2.59-4.13,2.3-5.98l3.68.23-5.98,5.75Z"/>
                  <path class="cls-22" d="M275.62,290.45c-.57,2.73-5.11,1.41-6.44,1.38.13-2.43,4.75-2.66,6.21-2.3.4.1.18.89.23.92Z"/>
                  <path class="cls-20" d="M265.96,312.99c-1.66,1.04-.96,3.36-3.68-.46.18.05,2.91-.59,3.68.46Z"/>
                </g>
                <g>
                  <path class="cls-22" d="M307.36,310.23c-1.67.52-5.16,2.26-5.52-.46,2.29-.48,2.27-3.23,5.52.46Z"/>
                  <g>
                    <path class="cls-21" d="M307.36,310.23c4.17,4.73.98,13.84-4.83,15.64-6.52,2.02-17.99-2.09-13.11-10.35,2.39-4.05,8.23-4.87,12.42-5.75.36,2.72,3.84.98,5.52.46Z"/>
                    <path class="cls-22" d="M297.01,312.53c1.3-.07,5.07,1.14,3.91,2.53-.39.47-9.52,1.79-10.81,4.83-.25-3.27,3.87-7.19,6.9-7.36Z"/>
                  </g>
                </g>
              </g>
            </g>
            <g>
              <path class="cls-18" d="M272.86,310.23c.77-.43,1.51-.6,2.3-.92,1.38.82,5.45.93,5.98-.92,11.35,7.87-12.66,23.42-17.02,19.09-5.08-5.04,4.31-14.8,8.74-17.25Z"/>
              <path class="cls-33" d="M280.22,307.93c.3-.02.62,0,.92,0v.46c-.53,1.85-4.6,1.74-5.98.92,2.58-1.03,1.67-1.15,5.06-1.38Z"/>
              <path class="cls-22" d="M272.17,314.37c1.67-.12,2.34-.3,2.07,1.61l-8.97,6.21c-1.78-1.04,4.91-7.68,6.9-7.82Z"/>
            </g>
          </g>
        </g>
      </g>
    </g>
  </g>
</svg>