<?xml version="1.0" standalone="no"?><!DOCTYPE svg PUBLIC "-//W3C//DTD SVG 20010904//EN" "http://www.w3.org/TR/2001/REC-SVG-20010904/DTD/svg10.dtd"><svg xmlns="http://www.w3.org/2000/svg" version="1.0" width="1024.000000pt" height="1536.000000pt" viewBox="0 0 1024.000000 1536.000000" preserveAspectRatio="xMidYMid meet">

<g transform="translate(0.000000,1536.000000) scale(0.100000,-0.100000)" fill="#000000" stroke="none">
<path d="M2333 14660 c-149 -31 -232 -117 -213 -220 5 -25 18 -71 29 -102 11 -32 25 -111 31 -175 21 -236 82 -401 191 -518 65 -69 164 -127 238 -140 23 -4 41 -10 41 -14 0 -4 -42 -46 -94 -94 -113 -104 -146 -162 -154 -266 -3 -40 0 -83 8 -105 11 -33 10 -39 -7 -51 -27 -21 -102 -18 -146 5 -37 20 -38 20 -28 1 6 -10 36 -35 66 -56 46 -30 63 -36 96 -33 l40 4 -7 -41 c-7 -52 9 -116 40 -152 l24 -28 -69 -143 c-109 -229 -181 -322 -319 -415 -78 -52 -103 -92 -141 -227 -15 -52 -40 -124 -55 -160 -57 -132 -41 -286 40 -393 44 -58 158 -115 246 -123 39 -4 76 -13 91 -24 103 -72 297 -79 437 -15 77 35 158 122 216 233 30 57 66 108 93 133 77 71 214 125 439 174 19 4 22 -2 33 -78 15 -114 14 -419 -4 -622 -8 -93 -42 -384 -74 -645 -90 -718 -95 -782 -95 -1185 -1 -375 8 -510 50 -760 32 -184 33 -179 -82 -526 -83 -255 -122 -399 -144 -535 l-11 -71 -57 16 c-31 8 -199 86 -372 172 -321 161 -439 213 -612 268 -111 35 -309 77 -415 87 l-71 6 -11 77 c-35 247 -38 383 -9 500 16 69 72 180 115 229 l38 43 37 -15 c88 -37 183 -6 228 74 l25 45 60 0 c84 0 149 34 190 99 25 42 29 58 29 121 l0 72 43 17 c84 35 143 137 143 246 0 87 -38 159 -110 206 l-38 26 21 36 c32 54 32 209 0 267 -38 72 -137 145 -196 145 -22 0 -23 3 -19 59 6 85 -18 151 -74 200 -66 58 -119 66 -219 36 -16 -4 -25 3 -43 35 -33 58 -90 93 -163 98 -59 4 -59 4 -59 37 0 69 -79 138 -174 151 -64 9 -124 -16 -176 -72 l-42 -45 -39 15 c-114 46 -224 -24 -248 -157 -5 -29 -12 -41 -22 -38 -39 11 -107 3 -146 -17 -94 -49 -145 -179 -114 -290 9 -30 8 -32 -17 -32 -59 0 -105 -22 -157 -73 -60 -60 -81 -119 -72 -196 6 -49 47 -143 67 -156 6 -4 -8 -27 -34 -56 -67 -75 -92 -170 -66 -258 12 -44 55 -88 92 -96 22 -5 28 -11 23 -23 -4 -10 -9 -46 -12 -82 -4 -58 -2 -71 24 -120 51 -96 162 -146 273 -124 l51 11 15 -36 c27 -64 79 -102 160 -116 47 -7 142 7 185 29 29 14 29 14 53 -27 67 -116 75 -230 44 -587 l-23 -255 -35 -2 c-320 -23 -685 -123 -1072 -295 -130 -58 -138 -62 -138 -89 l0 -28 78 35 c332 154 629 251 937 305 176 31 592 34 750 6 304 -56 467 -115 875 -318 280 -140 412 -198 486 -215 7 -1 13 -46 17 -116 9 -178 43 -294 148 -498 27 -53 49 -105 49 -116 0 -10 16 -118 35 -239 22 -144 63 -341 119 -570 47 -193 94 -392 104 -442 l19 -91 -116 -9 c-64 -5 -117 -9 -119 -8 -1 1 4 15 13 31 47 90 -17 177 -131 178 l-52 0 24 31 c75 98 72 230 -6 270 -79 41 -208 1 -316 -98 l-56 -50 9 39 c15 74 10 265 -10 315 -37 96 -132 148 -232 127 -38 -8 -60 -22 -100 -62 -62 -63 -99 -135 -121 -237 l-17 -78 -45 39 c-136 120 -276 5 -199 -164 14 -31 28 -56 30 -56 2 0 1 19 -4 43 -28 147 18 220 111 172 34 -18 82 -83 116 -160 13 -30 25 -55 26 -55 2 0 3 37 4 83 1 98 27 224 60 290 36 70 101 134 146 142 84 16 152 -21 183 -97 39 -97 28 -290 -24 -423 l-27 -70 90 91 c136 135 218 184 308 184 28 0 46 -7 63 -25 53 -52 18 -158 -88 -271 -32 -35 -58 -64 -56 -64 2 0 36 9 74 20 91 26 145 26 179 -1 32 -25 35 -79 7 -125 -18 -30 -22 -31 -112 -38 -331 -25 -890 -125 -1377 -246 -133 -33 -247 -60 -253 -60 -6 0 -1 13 10 28 68 96 200 406 381 897 84 227 202 484 283 615 43 70 44 75 25 78 -35 6 -268 -29 -388 -59 -334 -81 -677 -253 -933 -466 -42 -36 -77 -61 -77 -56 0 4 9 58 19 118 39 228 44 330 38 764 -4 228 -8 416 -10 418 -5 5 -286 -162 -382 -227 -173 -117 -394 -329 -508 -488 -51 -71 -58 -86 -55 -121 l3 -39 75 106 c124 177 353 393 555 524 69 45 266 168 269 168 0 0 1 -197 1 -437 0 -465 -4 -520 -57 -763 l-20 -95 -88 -92 c-216 -226 -439 -581 -525 -835 -16 -48 -31 -86 -33 -84 -4 5 64 498 88 642 19 112 85 385 99 411 6 12 129 119 303 265 60 50 108 92 108 95 0 11 -204 -138 -294 -215 -115 -100 -113 -106 -38 118 74 222 215 537 308 689 15 24 22 41 15 37 -37 -23 -259 -448 -324 -621 l-34 -90 -21 90 c-12 50 -31 149 -44 220 -12 72 -24 122 -26 113 -5 -24 45 -366 62 -420 12 -42 11 -51 -11 -119 -34 -105 -121 -426 -129 -477 -4 -23 -10 -42 -13 -42 -10 0 -116 250 -168 395 -23 66 -40 102 -37 80 10 -65 111 -359 155 -455 l41 -89 -31 -208 c-18 -114 -46 -296 -62 -403 -16 -107 -43 -265 -59 -350 -54 -279 -70 -413 -68 -575 0 -82 3 -136 5 -120 62 454 184 946 301 1211 272 616 802 1107 1422 1317 149 51 470 120 486 105 3 -3 -9 -29 -26 -59 -88 -148 -169 -331 -265 -599 -214 -599 -328 -835 -511 -1063 -17 -21 -41 -31 -131 -51 -139 -31 -212 -56 -332 -112 -103 -48 -279 -162 -376 -243 -33 -27 -61 -49 -62 -47 -3 3 253 510 280 552 23 37 45 51 189 122 90 45 231 105 313 135 157 58 245 94 245 100 0 2 -100 -29 -222 -70 -200 -66 -403 -153 -466 -199 -17 -13 -7 11 38 90 74 131 235 385 258 408 9 9 80 40 157 69 189 70 290 118 379 179 90 62 124 97 46 48 -79 -50 -177 -98 -315 -152 -66 -26 -141 -56 -167 -66 -27 -10 -48 -17 -48 -14 0 23 172 243 301 385 90 98 281 273 396 361 93 71 101 79 48 48 -141 -83 -453 -360 -599 -530 l-47 -55 7 55 c5 45 28 152 59 280 5 20 4 22 -4 9 -23 -35 -71 -200 -86 -294 l-16 -99 -78 -106 c-93 -125 -185 -262 -232 -345 l-34 -60 -6 70 c-4 39 -5 95 -3 125 2 30 6 93 9 140 3 47 13 122 23 167 25 109 10 97 -17 -14 -33 -140 -41 -208 -41 -377 l0 -159 -121 -219 c-66 -121 -141 -263 -166 -316 l-46 -97 -8 49 c-27 169 -29 481 -3 606 13 66 -5 24 -23 -51 -23 -101 -24 -459 -1 -569 l16 -75 -66 -125 c-35 -69 -84 -145 -107 -170 -83 -89 -160 -187 -228 -290 -101 -153 -127 -209 -127 -272 l0 -53 55 103 c273 512 735 908 1187 1017 127 30 331 55 459 55 329 0 749 -89 1053 -224 l60 -27 -106 -58 c-150 -84 -252 -155 -498 -346 -240 -186 -371 -277 -568 -389 -239 -137 -405 -214 -607 -283 -180 -61 -718 -206 -958 -258 -70 -15 -77 -19 -77 -41 0 -14 6 -24 14 -24 30 0 292 64 561 138 302 82 316 84 460 57 142 -27 233 -64 369 -152 219 -141 412 -423 556 -813 24 -63 49 -127 57 -142 7 -16 11 -28 8 -28 -3 0 -56 9 -118 20 -174 31 -318 40 -634 40 -319 0 -451 12 -610 55 -169 45 -205 65 -317 172 -56 54 -155 137 -221 184 l-120 86 -3 -31 c-2 -18 2 -34 11 -41 8 -5 57 -39 108 -75 102 -71 247 -208 296 -281 49 -71 109 -196 137 -288 47 -148 59 -247 53 -431 -3 -91 -9 -178 -13 -193 l-7 -28 -26 24 c-43 40 -126 89 -306 180 -93 47 -189 98 -213 112 l-42 26 0 -29 c0 -38 25 -55 251 -168 193 -96 240 -125 316 -197 l52 -49 10 39 c37 141 46 426 17 576 -20 106 -66 238 -115 332 -20 39 -37 73 -39 77 -2 4 41 -9 95 -27 169 -59 226 -65 683 -75 440 -9 549 -19 729 -65 55 -14 102 -25 104 -25 6 0 -45 141 -119 329 -171 431 -349 666 -629 826 -86 49 -230 100 -315 111 l-52 7 98 32 c186 62 391 161 669 326 164 98 316 206 555 394 85 67 196 149 245 182 91 61 277 171 328 194 15 7 27 16 27 20 0 23 -271 135 -452 188 -276 80 -453 105 -749 106 l-235 0 40 56 41 57 235 60 c586 152 1124 243 1665 283 91 7 167 10 169 8 3 -2 12 -47 21 -99 21 -126 17 -333 -10 -452 -17 -77 -18 -96 -7 -170 7 -46 26 -125 43 -177 49 -154 61 -254 66 -589 9 -501 -24 -815 -115 -1102 -52 -161 -55 -181 -56 -330 -1 -171 -2 -174 -124 -333 -106 -138 -153 -209 -200 -303 -68 -135 -81 -223 -39 -262 97 -91 561 -96 711 -8 61 36 92 77 116 153 26 85 26 182 0 258 -23 67 -26 171 -7 225 7 20 38 69 69 110 30 41 61 86 68 99 23 44 23 177 0 346 -39 290 -37 684 6 1190 21 253 39 364 75 464 80 224 82 232 82 326 0 67 -7 117 -28 195 -28 104 -28 107 -21 314 3 116 7 211 9 212 1 1 76 4 167 5 l164 3 8 -34 c4 -19 21 -118 39 -220 30 -176 31 -193 24 -362 -7 -204 0 -261 52 -393 70 -179 101 -355 123 -700 23 -371 5 -732 -56 -1094 -32 -190 -35 -226 -28 -301 4 -47 8 -119 8 -160 0 -84 -20 -133 -99 -245 -182 -258 -262 -426 -253 -533 6 -70 90 -99 313 -109 151 -6 235 3 342 38 128 42 183 113 205 267 11 76 11 87 -11 159 -39 128 -46 176 -34 251 12 77 26 111 82 200 65 104 69 143 32 351 -69 384 -83 561 -84 1051 -1 499 13 635 83 850 42 126 48 223 24 360 -12 69 -19 154 -19 245 0 139 20 351 35 376 7 10 68 10 327 1 175 -7 379 -17 453 -23 157 -13 138 1 234 -169 199 -350 211 -508 90 -1165 -105 -569 -209 -918 -350 -1175 -69 -126 -86 -176 -109 -324 -20 -122 -40 -163 -161 -322 -200 -263 -273 -408 -250 -500 8 -32 62 -57 175 -80 67 -13 116 -15 235 -11 275 10 380 64 428 220 17 58 19 82 13 155 -20 236 -13 263 96 371 96 95 110 131 121 311 15 271 39 412 134 794 66 262 188 644 269 841 18 44 60 134 94 200 71 141 96 227 86 298 -7 56 -17 79 -79 175 -68 106 -146 275 -132 289 5 5 266 -33 329 -48 26 -6 51 -19 56 -28 5 -9 56 -84 113 -167 123 -178 168 -262 198 -364 12 -41 44 -145 70 -232 70 -223 96 -333 119 -500 60 -426 67 -932 16 -1183 -33 -164 -42 -301 -26 -399 22 -133 -9 -227 -138 -421 -87 -130 -136 -233 -164 -339 -32 -126 -18 -150 103 -182 47 -12 104 -17 205 -16 290 1 447 71 490 216 24 79 19 198 -10 281 -53 147 -44 251 34 384 79 133 82 204 25 469 -68 314 -102 736 -91 1127 7 250 23 369 74 575 27 111 36 167 37 240 1 114 -14 154 -92 245 -52 61 -118 172 -109 182 3 3 52 -3 108 -14 l102 -19 26 -89 c15 -50 37 -112 50 -138 30 -62 96 -145 130 -165 15 -8 35 -32 45 -53 42 -85 193 -209 299 -246 74 -25 170 -23 226 6 l45 23 -38 13 c-67 23 -131 101 -168 203 -17 45 -21 81 -21 174 -1 65 2 120 6 124 8 9 349 -71 532 -124 l130 -38 13 -54 c57 -246 125 -452 203 -619 l39 -83 -43 39 c-61 56 -146 118 -219 157 -77 42 -240 98 -274 94 l-25 -3 44 -90 c158 -323 375 -552 599 -631 48 -17 48 -12 1 17 -148 89 -324 262 -435 428 -68 101 -133 219 -126 227 7 6 109 -36 188 -77 131 -68 248 -169 388 -334 52 -61 51 -59 -66 200 -49 110 -106 250 -125 310 -39 122 -127 474 -151 605 -16 91 -46 337 -46 382 l0 28 52 -32 c153 -94 303 -291 400 -523 l37 -90 1 63 c0 52 -6 77 -35 140 -96 206 -264 396 -420 473 -47 23 -87 40 -90 37 -12 -12 31 -389 60 -530 8 -38 15 -71 15 -72 0 -2 -129 30 -287 70 -159 41 -303 74 -320 74 -39 0 -39 0 -17 106 12 58 15 109 11 189 -10 212 -82 337 -271 474 -44 33 -91 70 -103 83 -38 40 -76 235 -93 478 -13 176 -45 416 -70 525 -55 236 -175 487 -326 680 -72 93 -115 135 -239 235 -57 46 -117 108 -165 168 -160 205 -435 396 -754 523 l-108 44 58 18 c200 62 452 108 689 128 211 17 606 7 790 -21 514 -77 1016 -284 1550 -640 55 -36 106 -70 113 -74 8 -5 12 2 12 23 0 28 -11 38 -127 115 -514 339 -1008 540 -1518 619 l-149 23 -19 125 c-14 89 -20 180 -20 324 -1 173 2 212 21 287 27 111 68 191 130 259 l49 53 39 -32 c144 -115 348 -78 411 73 13 33 22 43 33 39 8 -3 45 -9 83 -11 76 -6 137 11 188 54 36 31 76 106 85 161 l6 40 72 4 c140 9 249 93 288 221 32 105 9 227 -54 294 -12 13 -20 24 -17 25 2 2 22 12 44 23 71 36 111 124 102 226 -9 102 -80 201 -189 264 -27 15 -48 29 -48 33 0 3 7 13 16 23 43 48 57 181 29 276 -20 68 -71 140 -130 185 -49 37 -155 78 -203 78 -27 0 -27 0 -24 62 3 53 -1 72 -25 118 -32 63 -93 114 -156 131 -23 6 -81 9 -128 7 l-87 -4 -6 46 c-13 95 -107 191 -221 226 -62 18 -102 18 -156 -1 l-43 -16 -39 46 c-47 55 -99 83 -178 96 -88 14 -175 -4 -249 -52 -33 -21 -60 -42 -60 -46 0 -5 -7 -16 -14 -26 -13 -17 -16 -17 -50 7 -49 33 -125 49 -205 44 -121 -9 -214 -78 -261 -194 -21 -50 -24 -53 -49 -46 -14 4 -62 7 -106 7 -101 -1 -154 -23 -234 -100 -85 -81 -115 -146 -119 -262 l-4 -93 -79 0 c-142 0 -244 -59 -308 -180 -53 -99 -60 -226 -17 -311 14 -28 14 -28 -37 -57 -141 -80 -230 -251 -207 -399 11 -67 29 -101 83 -150 38 -35 135 -83 168 -83 7 0 8 -7 4 -17 -27 -63 -34 -95 -35 -149 0 -115 46 -197 141 -249 43 -23 66 -29 123 -29 39 -1 83 2 99 7 25 7 27 5 27 -21 0 -16 7 -51 15 -78 49 -166 247 -226 399 -120 23 15 31 17 34 7 9 -27 76 -93 114 -112 121 -62 265 -13 349 120 l28 43 30 -47 c60 -94 91 -242 91 -430 0 -180 -35 -568 -61 -667 -10 -40 -9 -40 -184 -53 -204 -16 -483 -71 -682 -135 -72 -24 -97 -28 -118 -20 -14 5 -103 31 -198 56 -412 110 -633 203 -888 373 -75 50 -142 97 -148 105 -6 7 -18 39 -26 70 -8 32 -47 121 -86 199 -128 256 -130 260 -312 485 -21 26 -45 60 -53 75 -14 27 -14 29 5 34 25 6 26 16 7 32 -25 21 -64 135 -92 267 -14 71 -33 141 -41 157 -12 23 -12 27 1 27 25 0 28 18 10 72 -10 33 -19 113 -24 213 -5 88 -13 182 -20 209 -9 42 -9 51 4 58 11 6 13 15 7 31 -4 12 -8 110 -9 217 0 127 -6 228 -16 290 -9 52 -18 149 -20 215 -5 127 -22 258 -38 288 -7 15 -6 18 9 15 16 -3 18 4 15 72 -7 162 -50 368 -98 461 -25 50 -25 51 -5 56 22 6 27 18 12 27 -5 3 -12 54 -16 113 -10 150 -54 275 -131 370 l-34 41 53 7 c276 35 500 197 662 481 90 160 185 435 185 539 0 49 -4 60 -29 86 -35 34 -77 38 -156 13 -27 -8 -113 -20 -190 -25 -439 -30 -678 -138 -877 -400 -29 -38 -55 -69 -58 -69 -3 0 -40 29 -83 65 -43 36 -102 77 -130 91 -29 15 -53 27 -54 28 -4 4 79 260 92 287 8 14 41 42 74 63 77 47 106 86 127 165 37 147 -37 274 -183 317 -154 45 -284 -25 -336 -180 -20 -58 -21 -97 -6 -164 11 -47 10 -54 -20 -118 -39 -83 -112 -203 -139 -228 -19 -17 -22 -17 -62 4 -41 21 -55 21 -114 3 -17 -5 -18 2 -14 127 l4 132 37 31 c139 111 116 333 -41 404 -127 59 -301 -5 -363 -133 -29 -61 -23 -156 15 -231 14 -29 26 -63 26 -76 0 -54 -96 -327 -115 -327 -7 0 -27 40 -44 90 -41 113 -208 453 -267 542 -53 78 -108 127 -185 162 -61 28 -154 39 -216 26z m194 -94 c67 -32 130 -95 180 -182 43 -72 247 -493 257 -531 6 -17 -1 -25 -36 -45 -23 -12 -61 -46 -84 -75 l-43 -52 -25 77 c-13 42 -39 124 -56 182 -18 58 -43 126 -56 151 -33 66 -124 161 -200 209 -59 37 -188 98 -242 115 -28 8 -44 38 -36 69 22 90 222 137 341 82z m922 -31 c101 -52 117 -175 36 -263 -32 -34 -34 -35 -35 -14 0 12 -4 22 -10 22 -5 0 -10 -4 -10 -10 0 -17 -48 -42 -69 -35 -16 5 -19 12 -16 38 l5 32 -13 -35 c-11 -27 -20 -35 -38 -35 -17 0 -25 6 -27 23 -4 26 -17 29 -26 6 -10 -26 -38 -11 -52 26 -29 80 -8 182 44 215 75 49 154 60 211 30z m724 -18 c42 -18 103 -87 112 -127 15 -70 -32 -191 -86 -220 -20 -11 -21 -10 -14 22 3 18 9 41 12 52 3 11 1 16 -5 12 -5 -3 -12 -20 -16 -38 -3 -18 -26 -57 -50 -86 -95 -117 -180 -467 -146 -608 17 -71 26 -75 22 -11 -2 34 5 77 20 125 l23 72 109 -82 109 -83 -59 -5 c-74 -7 -99 -21 -123 -68 -49 -96 -65 -220 -37 -287 18 -42 40 -48 29 -7 -16 55 -7 184 16 244 28 73 50 88 123 88 l58 0 -48 -59 c-26 -33 -56 -74 -66 -93 -18 -30 -15 -29 44 22 35 30 132 123 215 205 151 151 231 219 316 268 110 63 315 108 569 126 74 5 155 17 179 25 60 22 80 20 93 -9 10 -21 5 -46 -32 -163 -56 -177 -97 -274 -164 -386 -99 -166 -216 -279 -361 -350 -198 -97 -386 -101 -705 -14 -63 17 -123 35 -133 40 -10 5 -21 7 -24 4 -7 -7 168 -91 210 -102 28 -6 28 -7 20 -58 -4 -28 -8 -80 -8 -115 l0 -63 76 -72 76 -72 22 -91 c27 -117 27 -127 1 -113 -33 18 -81 8 -102 -20 -11 -15 -26 -69 -37 -135 -11 -61 -31 -155 -46 -209 -38 -140 -33 -200 22 -281 71 -104 76 -107 186 -103 55 2 100 -1 106 -7 12 -13 58 -571 47 -582 -1 -1 -17 3 -34 9 -59 23 -87 -14 -127 -167 -39 -151 -55 -257 -55 -367 0 -124 21 -170 111 -251 82 -73 104 -85 129 -69 11 7 22 12 24 12 2 0 7 -33 11 -72 16 -170 79 -440 130 -561 7 -16 6 -16 -22 -1 -36 21 -75 13 -95 -18 -28 -44 -138 -398 -138 -444 0 -99 89 -279 190 -385 65 -67 104 -82 184 -69 133 21 187 50 226 120 23 41 25 56 25 157 l0 111 55 -52 c30 -28 73 -67 96 -86 39 -33 41 -38 47 -105 12 -151 82 -286 195 -380 109 -91 291 -175 348 -161 34 9 54 59 54 140 l0 65 73 -34 c39 -18 88 -40 108 -48 l36 -15 -23 -68 c-45 -131 -32 -168 103 -319 48 -53 108 -125 132 -159 107 -151 145 -172 316 -169 165 2 221 21 253 83 21 41 23 55 19 170 -2 82 -9 140 -20 170 -9 24 -14 46 -12 49 6 5 115 -40 207 -85 l67 -34 -30 -86 c-38 -113 -62 -253 -56 -329 6 -78 40 -145 117 -232 76 -84 115 -142 135 -199 8 -24 22 -64 31 -89 25 -72 58 -105 105 -105 57 0 97 20 152 76 68 68 100 126 109 198 6 54 -3 204 -17 276 -5 25 -5 25 20 -5 50 -60 162 -306 190 -417 6 -24 4 -28 -15 -28 -36 0 -84 -36 -130 -96 -80 -106 -86 -153 -40 -288 17 -48 40 -131 51 -184 20 -91 42 -147 71 -182 30 -35 72 -60 104 -60 39 0 39 0 27 -147 l-6 -83 -35 31 c-39 34 -71 49 -109 49 -35 0 -84 -54 -152 -164 -63 -105 -73 -162 -47 -266 21 -82 72 -193 100 -218 31 -28 81 -42 151 -42 l62 0 7 -102 c3 -55 5 -103 2 -105 -2 -2 -17 7 -33 21 -39 33 -75 46 -126 46 -56 0 -80 -18 -102 -77 -10 -26 -34 -79 -53 -117 -29 -59 -33 -77 -29 -119 4 -43 11 -55 58 -103 61 -62 102 -84 154 -84 71 0 106 33 164 155 l23 50 28 -80 c40 -119 81 -192 149 -268 33 -38 65 -85 72 -104 18 -55 5 -211 -29 -348 -55 -220 -72 -384 -72 -693 0 -384 26 -665 96 -1025 44 -230 45 -294 3 -373 -101 -189 -94 -169 -93 -284 0 -81 6 -118 22 -164 12 -33 22 -63 22 -68 0 -14 -81 -9 -180 13 -52 11 -146 31 -209 44 -62 13 -115 26 -117 27 -2 2 15 34 37 70 22 37 51 98 66 135 29 75 34 156 19 318 -7 77 -5 110 17 230 46 252 50 300 44 630 -5 315 -20 498 -58 720 -26 153 -51 251 -129 502 l-64 202 27 21 c23 18 27 29 27 74 0 106 -74 201 -187 241 -56 20 -61 25 -131 125 -69 98 -72 105 -50 108 132 14 156 33 233 185 40 79 50 109 53 161 6 88 -20 138 -128 248 -68 69 -94 88 -130 98 -54 14 -111 1 -144 -35 -11 -13 -43 -89 -70 -169 -27 -80 -52 -146 -56 -146 -3 0 -29 48 -59 106 l-53 106 46 67 c26 36 57 79 69 94 17 22 22 41 21 80 -3 112 -116 386 -180 436 -14 11 -52 26 -84 32 l-58 11 -6 82 c-7 101 -16 380 -17 546 -2 157 -13 196 -22 75 -4 -50 -12 -133 -17 -185 -5 -52 -10 -129 -10 -171 0 -49 -5 -80 -12 -86 -7 -6 -71 -13 -141 -16 -192 -10 -204 1 -232 208 -41 308 -40 288 -21 339 25 64 124 212 177 263 52 50 81 63 220 98 129 34 209 37 237 12 11 -11 47 -69 79 -130 32 -62 79 -135 105 -164 71 -79 81 -104 76 -190 -4 -55 -12 -87 -35 -130 -106 -206 -147 -275 -177 -298 -33 -25 -130 -55 -179 -55 -18 0 -26 -4 -21 -11 8 -14 114 -4 159 15 53 23 95 67 131 139 20 38 51 93 70 122 46 69 74 144 81 220 7 77 -14 130 -84 206 -27 30 -73 100 -102 154 -72 136 -94 158 -168 163 -61 4 -256 -40 -326 -73 -58 -27 -111 -80 -176 -174 -114 -167 -118 -189 -76 -468 29 -191 36 -213 78 -249 30 -26 32 -26 176 -22 l146 3 3 -94 c3 -86 1 -93 -15 -86 -10 4 -63 11 -119 17 -147 15 -195 0 -289 -95 -98 -98 -118 -150 -118 -307 0 -63 2 -124 4 -134 4 -21 -11 -26 -108 -41 l-42 -6 10 33 c15 55 11 130 -11 165 -36 60 -53 65 -233 68 -96 1 -171 -2 -185 -8 -32 -15 -132 -150 -162 -219 -20 -46 -30 -58 -47 -58 -13 0 -23 6 -23 13 0 7 18 90 40 183 22 93 47 210 55 259 18 107 19 294 4 436 l-11 101 30 31 c108 114 107 256 -3 453 -77 138 -124 167 -234 146 -201 -37 -286 -123 -342 -347 -29 -117 -33 -284 -7 -331 25 -46 212 -245 255 -272 48 -29 101 -26 193 11 35 15 66 24 69 21 7 -6 -16 -228 -30 -287 l-11 -47 -43 38 c-47 41 -100 62 -159 62 -61 0 -115 -60 -192 -214 -65 -129 -66 -132 -61 -196 3 -46 20 -108 60 -215 76 -201 102 -223 195 -169 l45 26 -6 -23 c-3 -13 -14 -65 -23 -115 l-17 -92 -39 5 c-50 7 -76 -11 -112 -78 -16 -30 -56 -94 -88 -142 -33 -49 -62 -103 -65 -122 -8 -51 35 -134 111 -211 62 -64 66 -67 104 -62 l39 6 18 -122 c27 -173 24 -219 -23 -374 -47 -152 -58 -221 -72 -457 -28 -473 1 -1008 76 -1424 37 -203 33 -245 -34 -353 -67 -109 -86 -184 -79 -298 3 -47 13 -105 21 -129 9 -24 16 -47 16 -52 0 -19 -125 -6 -327 34 l-213 42 51 75 c116 172 140 257 113 387 -19 92 -15 163 20 355 42 225 57 391 63 673 10 465 -25 834 -103 1077 -6 19 -5 19 28 2 48 -25 116 -24 155 4 73 52 131 184 119 273 -9 63 -72 227 -99 258 -34 37 -82 53 -135 45 -37 -5 -56 -16 -91 -50 -24 -24 -44 -44 -45 -44 0 0 -1 30 -1 68 -1 37 -5 106 -9 154 l-9 88 32 0 c73 0 146 51 187 133 14 26 41 72 60 103 69 107 79 174 43 290 -27 87 -63 161 -97 197 l-27 28 -105 -6 c-152 -9 -163 -11 -212 -54 l-44 -39 -58 176 c-64 196 -172 474 -219 567 -51 101 -67 161 -67 249 -1 113 -16 143 -135 251 -54 50 -131 132 -172 182 -40 51 -82 97 -93 103 -46 25 -124 -47 -140 -128 -11 -61 -27 -95 -42 -90 -6 2 -18 22 -27 45 -25 65 -30 60 -11 -11 42 -151 154 -394 245 -531 30 -44 83 -109 119 -144 l65 -64 -48 -22 c-110 -51 -167 -161 -159 -304 4 -75 6 -80 116 -217 133 -167 109 -149 198 -149 44 0 86 3 94 8 14 7 14 -4 4 -95 -7 -57 -13 -105 -13 -107 -1 -2 -39 -1 -85 3 -68 5 -87 3 -100 -9 -22 -22 -55 -118 -76 -220 -19 -89 -19 -91 0 -130 23 -48 146 -159 193 -174 34 -11 34 -13 67 -142 43 -171 40 -226 -23 -395 -54 -145 -71 -222 -91 -414 -30 -290 -40 -502 -40 -830 -1 -280 2 -360 19 -485 11 -82 20 -186 20 -230 -1 -91 -15 -126 -86 -210 -56 -66 -79 -121 -86 -203 -5 -62 8 -141 33 -206 7 -18 4 -19 -52 -12 -50 6 -324 64 -457 97 l-37 10 74 97 c118 155 119 157 126 362 7 166 9 181 44 290 93 288 127 574 127 1064 0 303 -11 447 -42 568 -25 100 -25 102 11 83 91 -47 172 4 253 160 65 124 33 294 -71 386 -40 35 -50 39 -99 39 -29 0 -69 -7 -88 -14 l-35 -15 0 48 c0 26 -3 75 -6 109 -7 61 -7 61 22 68 114 27 175 153 161 332 -9 107 -28 162 -94 272 -73 120 -104 139 -184 116 -28 -9 -55 -13 -60 -10 -9 5 -23 54 -34 115 -6 32 -4 37 17 42 36 10 92 61 143 132 52 74 75 130 75 188 0 51 -100 272 -149 329 -40 47 -131 93 -200 103 l-48 6 -44 91 c-30 63 -40 92 -32 95 34 12 56 47 89 137 19 55 58 149 86 210 47 101 52 119 56 197 7 140 -17 203 -135 356 l-64 82 45 140 c25 76 48 155 51 175 7 37 25 50 25 18 0 -26 62 -218 105 -327 28 -72 39 -121 55 -246 11 -86 27 -179 35 -207 13 -44 20 -52 39 -52 13 0 33 8 45 18 26 21 211 280 247 345 47 87 41 210 -21 413 -32 105 -55 134 -104 134 -82 0 -214 -98 -277 -205 -14 -25 -28 -44 -30 -43 -3 4 -93 442 -109 533 l-7 40 64 -61 c104 -100 143 -111 258 -72 44 14 76 34 104 62 89 90 246 459 246 579 0 56 -13 91 -66 172 -22 33 -63 115 -93 183 -60 138 -90 172 -149 172 -49 0 -116 -40 -226 -135 -82 -71 -136 -105 -167 -105 -9 0 -11 41 -6 168 9 210 18 322 27 322 4 0 35 -22 69 -50 56 -45 67 -50 112 -50 64 0 113 25 184 94 72 70 103 138 116 253 5 48 16 120 24 158 23 110 19 209 -11 301 -32 97 -40 112 -72 147 -44 47 -84 35 -231 -72 -81 -59 -101 -69 -101 -53 0 4 7 68 16 143 l17 137 50 5 c86 11 170 75 217 167 11 21 27 85 35 142 18 119 12 165 -35 258 -57 112 -112 156 -189 148 l-40 -3 -6 45 c-4 25 -10 67 -16 93 -12 66 -13 64 24 71 17 4 69 21 114 40 l82 33 6 -51 c11 -95 26 -133 78 -195 83 -99 116 -96 230 22 127 133 127 133 122 322 -3 163 -10 215 -27 215 -5 0 5 20 21 44 80 115 128 245 138 367 12 150 -15 212 -105 245 -83 31 -92 45 -92 143 -1 48 -6 96 -13 108 -10 18 -12 2 -11 -93 1 -77 6 -119 15 -130 15 -19 73 -49 112 -58 87 -21 90 -196 7 -375 -112 -239 -305 -417 -570 -525 -54 -22 -270 -86 -291 -86 -4 0 -10 16 -13 35 -9 44 -47 70 -116 79 -57 8 -103 -8 -139 -48 -26 -27 -31 -66 -18 -121 6 -29 4 -32 -54 -65 -83 -47 -139 -113 -195 -226 -49 -102 -99 -155 -180 -194 -82 -40 -241 -49 -310 -18 -23 11 -20 13 45 29 121 31 178 64 271 158 67 68 99 110 150 202 39 70 68 112 72 105 5 -7 8 -4 8 7 0 19 -51 77 -68 77 -5 0 -16 -8 -25 -18 -15 -17 -15 -18 10 -17 54 0 49 -24 -30 -145 -107 -165 -175 -228 -315 -293 -60 -27 -79 -31 -189 -35 -159 -6 -215 10 -290 83 -41 40 -55 62 -68 109 -23 80 -16 162 22 246 17 36 38 101 48 145 28 130 47 158 145 215 145 85 275 274 365 531 47 134 62 200 74 329 22 217 -34 344 -117 268 l-26 -23 24 35 c13 19 70 80 127 135 57 55 152 161 211 235 82 103 118 140 152 158 44 22 100 30 100 13 0 -14 -89 -178 -103 -188 -7 -5 -33 -17 -59 -27 -91 -34 -112 -83 -86 -207 10 -51 9 -65 -10 -130 -32 -107 -30 -163 7 -200 31 -31 52 -34 114 -20 72 17 107 69 131 194 20 102 37 133 83 148 78 25 218 90 241 112 23 21 24 26 17 110 -6 84 -5 90 16 113 17 18 24 40 27 86 6 76 26 97 92 98 77 0 80 -9 37 -90 -70 -129 -56 -221 44 -282 78 -49 204 -61 254 -24 15 11 10 12 -40 8 -111 -9 -225 36 -261 103 -38 71 -1 145 165 329 77 85 171 241 171 284 0 9 7 25 14 35 13 17 15 16 31 -16 23 -49 54 -63 93 -43 26 14 31 14 42 1 7 -8 17 -15 23 -15 5 0 3 8 -6 18 -10 10 -17 36 -18 58 -1 37 -1 38 -9 11 -12 -40 -29 -57 -56 -57 -34 0 -66 54 -58 95 l6 30 -30 -29 -30 -28 -7 57 c-14 106 27 179 118 214 62 24 106 26 150 8z m-1867 -167 c40 -23 100 -60 132 -84 58 -43 60 -46 71 -108 6 -36 11 -80 11 -99 1 -75 30 -196 64 -265 33 -66 99 -140 151 -170 19 -10 18 -12 -5 -42 -23 -29 -29 -32 -64 -27 -70 10 -167 64 -232 129 -104 104 -164 259 -184 475 -10 109 -22 177 -36 214 -10 26 12 21 92 -23z m1114 -170 c-14 -76 -12 -216 4 -278 14 -50 13 -53 -2 -47 -34 14 -107 16 -131 3 -14 -7 -39 -33 -56 -58 -29 -42 -35 -45 -86 -51 -30 -3 -55 -5 -57 -4 -1 1 15 40 37 86 54 118 92 242 98 327 4 49 10 72 19 72 7 0 16 -4 19 -10 7 -12 135 -4 149 10 16 16 17 6 6 -50z m-838 -58 c44 -68 47 -75 99 -250 22 -75 51 -157 65 -181 13 -24 22 -46 20 -49 -11 -11 -92 67 -128 122 -49 77 -74 159 -89 293 -6 59 -13 111 -16 116 -2 4 -1 7 4 7 4 0 25 -26 45 -58z m811 -283 l38 -10 -7 -62 c-4 -42 -14 -74 -32 -100 -25 -37 -25 -40 -13 -103 12 -57 11 -67 -3 -89 -19 -29 -102 -73 -197 -104 -97 -32 -119 -61 -139 -187 -13 -83 -42 -139 -80 -159 -38 -20 -114 -20 -130 0 -25 30 -23 97 5 180 l27 79 -18 73 c-17 68 -17 75 -1 108 10 21 28 40 44 45 88 32 105 44 130 94 46 92 69 116 113 116 58 0 86 15 120 62 28 38 67 66 95 67 6 1 27 -4 48 -10z m-836 -670 c14 -26 18 -219 6 -219 -5 0 -28 14 -53 30 -25 16 -51 30 -57 30 -32 0 4 138 44 170 31 24 44 22 60 -11z m1908 -309 c21 -69 42 -133 47 -142 14 -28 -5 -21 -49 17 -56 47 -77 95 -68 154 12 90 18 112 25 104 4 -4 25 -64 45 -133z m105 101 c25 -6 61 -11 81 -11 20 0 41 -6 47 -13 15 -18 111 -211 107 -215 -2 -2 -25 4 -52 13 -26 9 -79 22 -118 29 l-70 12 -31 84 c-17 47 -35 93 -39 104 -7 15 -5 17 11 13 10 -4 39 -11 64 -16z m-2022 -73 c18 -18 15 -43 -8 -63 -16 -15 -22 -15 -35 -5 -15 13 -21 61 -8 73 10 11 38 8 51 -5z m2142 -155 c69 -19 115 -53 129 -96 14 -42 40 -177 34 -177 -2 0 -30 18 -61 40 -31 22 -84 51 -117 65 -60 24 -60 24 -76 82 -33 121 -33 113 3 107 18 -3 58 -13 88 -21z m-9 -188 c95 -49 164 -145 208 -293 l20 -63 -41 46 c-22 25 -77 68 -123 96 l-82 50 -17 81 c-10 44 -20 86 -23 94 -7 19 0 18 58 -11z m-131 -130 c16 -8 31 -23 34 -32 17 -62 75 -426 91 -578 4 -33 8 -67 11 -75 3 -13 -13 -15 -100 -15 -115 0 -119 2 -166 72 -71 105 -74 140 -26 308 14 50 32 135 41 190 22 142 44 167 115 130z m183 -96 c93 -61 178 -186 197 -291 6 -29 13 -62 16 -73 4 -11 -10 1 -30 26 -33 42 -118 116 -192 167 -27 18 -32 29 -42 99 -19 121 -20 119 51 72z m3614 -174 c58 -17 110 -68 120 -116 7 -34 12 -35 62 -9 83 42 156 36 243 -19 26 -17 61 -49 78 -73 30 -41 31 -47 28 -121 -3 -66 -1 -76 12 -71 91 38 210 45 275 15 107 -48 152 -171 100 -271 l-14 -27 77 -5 c180 -10 314 -131 329 -296 9 -100 -25 -172 -105 -223 l-46 -29 40 0 c46 0 139 -42 194 -89 58 -47 91 -119 91 -195 0 -94 -25 -138 -101 -176 -33 -16 -67 -30 -76 -30 -11 0 -1 -15 29 -43 62 -57 87 -114 87 -200 0 -108 -49 -187 -148 -236 -61 -31 -129 -37 -187 -18 l-46 16 7 -45 c14 -94 -44 -196 -131 -230 -59 -22 -130 -14 -198 23 l-52 28 0 -61 c0 -54 -4 -67 -31 -101 -69 -86 -215 -90 -319 -10 -20 15 -19 16 16 54 80 83 251 336 309 455 21 42 45 106 55 142 l18 65 28 -14 c59 -31 141 -13 194 45 l30 32 -52 -27 c-70 -37 -128 -42 -170 -16 -28 18 -33 26 -33 61 0 23 6 53 14 68 22 43 29 90 21 140 l-7 47 -17 -61 c-10 -33 -26 -76 -37 -94 -27 -46 -84 -90 -126 -96 -48 -8 -118 24 -154 71 l-28 37 24 20 c27 22 60 67 60 82 0 6 -12 -2 -27 -16 -42 -39 -72 -51 -128 -51 -96 0 -160 59 -180 165 -6 33 -4 37 36 64 23 16 49 40 58 54 l16 25 -25 -17 c-52 -37 -100 -58 -131 -58 -83 0 -160 47 -185 115 l-15 40 5 -44 c5 -46 36 -88 89 -119 32 -19 35 -50 13 -165 -27 -139 -128 -389 -176 -432 -18 -17 -20 -15 -63 51 -59 92 -79 132 -116 237 l-30 87 35 0 c41 0 80 18 113 54 29 31 24 33 -21 7 -105 -60 -207 -7 -227 118 -10 64 -17 72 -25 29 -14 -74 -107 -147 -189 -148 -66 0 -140 51 -181 125 l-17 30 6 -30 c10 -49 53 -105 106 -138 46 -28 49 -33 43 -61 -18 -82 -84 -168 -141 -182 -68 -18 -208 19 -260 68 -13 12 -23 17 -23 11 0 -13 69 -76 102 -94 12 -7 45 -18 72 -24 48 -11 50 -13 67 -63 40 -117 90 -194 199 -302 58 -58 125 -121 150 -141 41 -33 44 -38 33 -61 -18 -41 -73 -98 -112 -117 -85 -43 -165 -34 -232 26 -41 37 -74 117 -62 151 4 9 -14 -6 -40 -34 -88 -97 -206 -120 -297 -60 -75 49 -110 168 -76 251 8 19 13 35 11 35 -2 0 -26 -11 -54 -25 -109 -55 -226 -40 -298 38 -51 55 -67 103 -60 177 5 62 32 122 76 173 l30 33 -57 -4 c-72 -5 -163 25 -209 70 -94 91 -81 264 31 394 39 45 131 99 189 109 l38 7 -34 32 c-56 52 -70 88 -65 176 7 119 63 205 171 262 34 18 59 22 127 23 47 0 104 -4 128 -8 l43 -9 -21 43 c-18 35 -21 55 -18 118 4 88 27 145 89 215 87 99 237 131 346 74 l50 -26 6 48 c15 126 108 223 227 237 100 12 221 -43 238 -109 l8 -32 23 57 c27 66 81 118 145 141 54 19 150 20 213 1z m-3538 -93 c82 -83 113 -128 131 -193 12 -42 -1 -35 -34 17 -31 49 -84 93 -153 127 -40 20 -43 23 -43 63 0 23 -3 49 -6 58 -14 36 23 11 105 -72z m-624 39 c13 -41 13 -315 1 -346 -16 -38 -150 -181 -187 -200 -43 -23 -59 -18 -105 30 -59 61 -75 96 -81 179 l-6 73 54 30 c78 44 165 112 239 187 35 36 68 66 72 66 3 0 9 -8 13 -19z m602 -136 c53 -36 102 -97 130 -163 19 -46 42 -171 43 -232 l0 -45 -102 100 -103 100 -15 138 c-8 75 -13 137 -10 137 3 0 29 -16 57 -35z m-1467 -108 c33 -17 54 -58 37 -74 -7 -7 -50 -24 -97 -38 -47 -14 -92 -28 -101 -31 -11 -4 -19 6 -28 37 -11 38 -11 45 7 68 10 14 30 32 43 38 31 16 107 16 139 0z m1601 -336 c33 -50 55 -114 64 -186 l6 -50 -36 60 c-59 97 -82 122 -134 147 -48 22 -50 25 -51 63 0 22 -3 65 -6 95 l-5 55 66 -70 c37 -38 80 -90 96 -114z m-1229 -8 c35 -21 94 -107 120 -175 20 -54 22 -110 8 -211 -21 -143 -113 -250 -234 -273 l-39 -7 7 84 c21 273 26 346 26 461 0 91 3 128 13 131 26 11 70 6 99 -10z m1183 -98 c72 -88 121 -217 130 -343 6 -76 6 -77 -12 -52 -30 42 -105 120 -148 153 -32 25 -26 16 28 -43 75 -83 111 -147 132 -236 20 -83 18 -87 -12 -24 -18 36 -56 84 -113 140 l-87 86 -7 198 -7 198 32 -19 c17 -10 46 -36 64 -58z m-172 -325 c24 -19 25 -25 31 -167 4 -82 12 -244 17 -361 9 -165 8 -220 -1 -243 -7 -16 -17 -29 -23 -29 -5 0 -44 30 -85 67 -105 94 -117 123 -109 273 9 163 68 418 108 467 16 18 32 16 62 -7z m244 -198 c32 -54 59 -168 68 -282 l6 -85 -31 55 c-34 61 -84 118 -144 165 l-39 31 -5 139 -4 140 62 -60 c34 -33 73 -80 87 -103z m-3 -290 c18 -31 41 -77 49 -102 22 -67 50 -200 43 -207 -3 -3 -35 22 -71 56 -36 33 -84 70 -105 81 l-40 20 0 84 c0 46 -3 112 -7 147 l-6 64 51 -43 c28 -24 67 -69 86 -100z m3493 74 c1 -1 5 -45 9 -96 7 -101 6 -106 -80 -426 -13 -50 -29 -131 -35 -180 -12 -97 -15 -326 -4 -387 l6 -38 26 24 c14 13 62 48 106 77 102 68 233 200 312 316 61 89 138 234 164 307 8 24 25 45 46 57 l33 19 0 -28 c0 -15 -9 -62 -19 -103 -46 -179 -216 -443 -411 -640 -168 -168 -204 -248 -230 -503 -14 -131 -9 -261 17 -452 9 -68 15 -124 12 -126 -9 -7 -439 6 -434 13 11 17 36 208 50 383 29 360 16 557 -48 709 -21 50 -83 116 -197 208 -112 91 -177 158 -223 232 -35 56 -102 197 -96 202 2 2 16 6 31 10 22 5 28 2 34 -16 20 -66 134 -194 254 -284 57 -43 197 -124 214 -124 14 0 4 66 -23 152 -16 51 -50 172 -74 269 -25 97 -56 204 -71 239 l-25 64 21 23 21 23 17 -28 c10 -16 30 -38 45 -49 21 -15 36 -44 61 -120 59 -181 156 -363 193 -363 77 0 241 413 241 605 0 44 1 45 28 39 15 -4 28 -8 29 -8z m-4614 -14 c23 -26 64 -118 82 -187 20 -77 19 -129 -4 -250 -10 -55 -22 -131 -26 -170 -3 -38 -17 -93 -30 -122 -27 -59 -110 -144 -171 -173 -74 -36 -113 -25 -207 61 l-49 44 37 275 c20 151 39 296 42 322 4 36 10 48 27 52 11 3 55 31 96 62 85 66 148 104 171 104 9 0 23 -8 32 -18z m-2344 -70 c58 -29 76 -64 74 -138 l-2 -64 29 15 c98 50 207 -18 227 -141 l6 -35 26 25 c38 37 98 59 138 51 41 -7 101 -59 119 -102 18 -43 18 -115 -1 -160 -8 -19 -15 -37 -15 -39 0 -2 16 -4 36 -4 57 0 111 -20 155 -59 56 -47 79 -100 79 -181 0 -77 -23 -134 -68 -172 l-31 -26 50 -12 c92 -22 148 -96 149 -195 0 -54 -33 -138 -66 -167 -26 -23 -87 -48 -118 -48 -23 0 -23 -1 -10 -37 49 -138 -50 -266 -195 -250 -25 2 -54 8 -63 12 -13 5 -15 2 -12 -13 9 -31 -22 -90 -58 -112 -25 -16 -45 -20 -85 -17 -29 2 -55 6 -58 9 -3 2 13 40 35 84 22 43 46 104 54 134 11 48 17 55 44 62 16 4 44 24 62 44 32 37 34 59 3 32 -56 -49 -126 -61 -161 -28 -26 25 -56 80 -43 80 13 0 71 50 71 60 0 5 -20 0 -45 -11 -59 -26 -100 -18 -126 24 -24 41 -24 73 1 120 20 37 14 51 -11 21 -38 -46 -143 -60 -179 -24 -22 22 -27 79 -8 98 7 7 8 12 4 12 -18 0 -35 -36 -36 -74 0 -29 6 -44 28 -64 l28 -25 -41 -82 c-50 -98 -82 -195 -99 -294 l-12 -73 -31 35 c-50 57 -110 165 -137 249 -14 42 -26 83 -26 90 0 8 14 22 31 32 40 24 69 72 69 116 l0 34 -22 -44 c-29 -57 -78 -90 -133 -90 -84 0 -159 42 -207 115 l-20 30 7 -30 c11 -51 53 -104 101 -127 47 -23 49 -27 59 -114 5 -51 5 -52 -26 -63 -50 -17 -120 -13 -157 9 l-33 20 11 -20 c29 -54 109 -73 171 -41 23 12 42 21 43 19 2 -2 11 -25 20 -53 10 -27 38 -87 62 -133 l43 -83 -27 -10 c-157 -60 -292 -6 -292 117 l0 41 -42 -20 c-105 -52 -238 -19 -285 72 -30 58 -30 121 1 186 l23 50 -37 0 c-102 0 -150 115 -96 230 24 52 78 108 116 120 21 7 20 9 -15 38 -21 17 -48 53 -61 81 -70 151 35 296 216 296 23 0 40 3 38 8 -34 64 -40 91 -35 147 5 74 25 115 74 152 48 37 126 39 172 5 l31 -23 0 58 c1 105 63 193 136 193 38 0 87 -21 120 -52 21 -19 21 -19 27 9 15 74 86 133 162 133 22 0 55 -8 74 -18z m6316 -165 c13 -45 36 -137 50 -203 14 -67 38 -166 55 -220 16 -54 27 -100 25 -102 -8 -9 -200 133 -260 192 -34 34 -79 87 -99 119 l-37 58 34 38 c44 49 71 120 64 166 -6 35 -5 35 31 35 20 1 51 7 67 14 37 16 38 15 70 -97z m764 38 c20 -10 57 -17 91 -17 l57 0 11 -37 c19 -61 90 -111 158 -111 13 0 24 -2 24 -5 0 -2 -17 -42 -39 -87 -90 -195 -260 -406 -406 -507 -40 -28 -76 -51 -79 -51 -10 0 -6 270 4 345 6 39 28 140 49 225 21 85 42 173 45 195 16 96 16 98 34 82 10 -8 32 -22 51 -32z m-3613 -130 c63 -70 102 -144 110 -212 l6 -48 -37 55 c-21 30 -73 89 -116 131 -76 74 -79 78 -79 123 l0 47 31 -18 c17 -10 56 -45 85 -78z m68 -240 c20 -33 48 -91 62 -130 14 -38 39 -99 55 -134 34 -73 31 -74 -73 -3 -40 27 -92 59 -114 70 -36 19 -43 28 -53 69 -14 63 -51 292 -51 318 1 27 127 -110 174 -190z m47 -303 c38 -35 84 -89 103 -121 19 -31 44 -65 56 -76 34 -31 23 -34 -37 -10 -32 12 -80 30 -108 40 -75 27 -108 67 -139 163 -14 46 -26 90 -26 98 0 24 71 -21 151 -94z m-148 -191 c16 -14 71 -89 122 -166 51 -77 120 -170 153 -208 66 -75 72 -95 72 -234 0 -160 -65 -222 -251 -239 l-67 -7 -47 44 c-103 95 -206 278 -213 379 -3 45 2 73 31 150 20 52 47 135 62 184 29 96 61 140 92 129 10 -3 31 -18 46 -32z m215 -25 c97 -33 120 -47 178 -108 51 -52 107 -129 100 -135 -2 -2 -20 6 -40 18 -19 11 -86 37 -148 58 l-113 36 -52 90 c-29 49 -53 93 -53 98 0 4 13 -1 30 -13 16 -11 60 -31 98 -44z m-1286 -46 c15 -11 44 -61 68 -117 58 -135 94 -205 129 -253 40 -55 47 -110 26 -194 -35 -140 -159 -407 -221 -476 -58 -64 -187 -100 -247 -68 -31 16 -105 81 -145 128 -32 38 -34 45 -48 172 -8 73 -17 234 -21 358 l-6 225 51 13 c40 11 72 31 149 98 99 85 179 134 219 134 12 0 33 -9 46 -20z m1496 -194 c26 -13 54 -32 64 -42 28 -33 118 -167 114 -172 -2 -2 -49 18 -103 45 -147 72 -146 66 8 -28 101 -61 123 -81 156 -137 61 -104 -29 -43 -214 144 -122 124 -233 251 -233 268 0 7 153 -50 208 -78z m-3730 -63 c-71 -147 -93 -211 -113 -322 -18 -106 -19 -287 -1 -319 12 -23 13 -22 77 45 96 102 155 183 196 268 31 66 38 75 57 69 30 -9 29 -8 16 -51 -25 -74 -72 -160 -129 -231 -71 -90 -115 -163 -149 -244 -23 -57 -26 -79 -30 -223 -3 -113 1 -194 12 -275 9 -63 16 -118 16 -122 0 -4 -61 -8 -135 -8 l-136 0 5 33 c17 101 38 456 34 565 -6 148 -16 182 -103 328 -82 137 -139 278 -159 392 -5 31 -4 32 28 32 32 0 34 -2 40 -47 14 -106 106 -283 188 -361 41 -39 65 -35 72 11 3 18 9 64 15 102 13 84 52 206 93 291 27 55 35 63 62 67 17 2 35 5 39 5 5 1 7 -1 5 -5z m32 -59 c0 -24 56 -74 82 -74 20 0 26 -8 37 -48 10 -43 10 -53 -7 -93 -37 -84 -198 -299 -226 -299 -16 0 1 239 23 321 32 126 91 249 91 193z m3952 -360 c96 -77 250 -182 371 -253 71 -43 85 -55 91 -82 10 -50 7 -87 -9 -126 -15 -35 -15 -36 -62 -29 -26 3 -90 27 -141 52 -125 60 -236 167 -283 269 -36 80 -72 235 -55 235 2 0 42 -30 88 -66z m893 -473 c88 -27 228 -68 310 -91 218 -61 220 -62 252 -128 26 -53 28 -65 28 -182 0 -203 -23 -224 -240 -225 -175 0 -203 13 -295 141 -36 50 -102 131 -147 181 -95 106 -113 137 -113 193 0 42 29 160 39 160 3 0 78 -22 166 -49z m-2591 -223 c35 -56 86 -271 86 -365 0 -72 -13 -99 -129 -271 -113 -166 -157 -215 -171 -192 -12 19 -34 126 -55 260 -9 58 -20 119 -25 135 -4 17 -18 69 -31 117 l-22 88 29 42 c42 63 143 162 189 186 55 29 110 29 129 0z m3556 -142 c110 -65 265 -191 336 -272 58 -67 63 -76 74 -145 7 -41 14 -132 14 -204 1 -148 -4 -164 -83 -248 -45 -49 -108 -86 -145 -87 -38 0 -75 50 -102 136 -28 93 -78 176 -158 263 -59 64 -100 136 -111 193 -7 39 8 162 31 248 20 71 54 160 63 160 3 0 40 -20 81 -44z m-4020 -388 c47 -71 80 -170 80 -242 0 -68 -19 -129 -79 -257 -26 -57 -59 -135 -71 -173 -21 -64 -56 -116 -78 -116 -4 0 -16 24 -25 53 -67 213 -63 436 14 717 17 63 34 126 37 140 5 24 6 23 44 -19 21 -24 56 -71 78 -103z m4888 -438 c129 -196 224 -434 262 -656 11 -65 32 -236 45 -379 27 -276 49 -407 88 -520 22 -65 83 -195 91 -195 1 0 -5 24 -15 53 -31 90 -27 92 60 27 99 -75 172 -155 204 -223 31 -65 57 -187 56 -264 l0 -58 -18 55 c-28 86 -55 132 -134 227 -84 101 -130 142 -74 68 183 -247 189 -267 185 -567 -2 -125 -7 -223 -11 -218 -19 18 -66 182 -83 289 -10 63 -20 109 -22 103 -10 -32 19 -253 44 -327 44 -132 129 -289 182 -336 l47 -42 -45 7 c-95 15 -195 84 -245 170 -34 60 -63 169 -75 282 -6 54 -15 126 -20 159 -10 62 -82 326 -88 320 -2 -1 13 -85 32 -186 19 -101 41 -246 50 -321 11 -101 23 -158 45 -214 l30 -77 -30 29 c-41 39 -135 232 -155 319 -9 39 -22 124 -30 190 l-13 120 5 -150 c2 -82 11 -177 18 -210 8 -33 13 -61 11 -63 -2 -2 -14 12 -28 30 -75 100 -125 284 -134 494 -5 128 -3 154 22 280 15 76 31 143 35 147 4 4 24 -26 44 -67 21 -42 39 -76 41 -76 2 0 -11 42 -29 93 -42 114 -66 233 -111 552 -44 309 -67 418 -115 565 -46 141 -99 249 -186 377 -46 67 -72 118 -85 163 -24 88 -72 217 -104 279 -14 28 -25 54 -25 58 1 22 224 -223 278 -307z m-2734 191 c77 -104 136 -250 136 -336 0 -42 -35 -128 -70 -172 l-20 -26 -1 49 c-2 84 -16 4 -19 -106 -1 -52 -5 -122 -9 -154 l-6 -60 -75 -27 c-84 -31 -138 -36 -178 -15 -32 17 -211 207 -241 257 -50 82 -5 391 74 511 47 71 141 120 264 137 75 10 104 -2 145 -58z m2534 -294 c19 -39 39 -145 51 -266 12 -110 13 -386 2 -436 -8 -41 -42 -44 -87 -10 -44 34 -69 84 -94 190 -11 47 -33 131 -50 186 -44 150 -41 178 31 275 42 57 93 96 119 91 8 -1 21 -15 28 -30z m-4234 -59 c30 -40 107 -125 171 -188 64 -63 123 -129 131 -147 9 -20 14 -68 14 -126 0 -89 3 -102 60 -262 33 -93 59 -170 57 -171 -8 -9 -165 70 -212 106 -84 65 -194 186 -264 290 -59 88 -181 317 -181 340 0 5 9 19 20 30 11 11 22 40 26 71 6 42 14 59 45 90 22 22 48 39 59 39 13 0 38 -25 74 -72z m4426 -238 c95 -189 143 -377 195 -753 19 -141 42 -289 51 -328 16 -70 16 -72 -10 -167 -46 -170 -57 -242 -57 -374 0 -70 3 -149 7 -174 7 -46 6 -47 -17 -41 -13 4 -58 12 -99 18 -41 6 -80 13 -86 14 -12 3 -58 152 -76 250 -20 106 -16 568 7 860 22 265 25 705 7 790 l-10 50 20 -25 c11 -14 42 -68 68 -120z m-4805 -215 c72 -31 127 -100 192 -235 48 -101 53 -120 49 -162 -8 -78 -78 -192 -156 -252 -61 -47 -70 -38 -101 104 -15 69 -42 220 -59 335 -17 116 -33 218 -36 227 -5 15 0 17 28 12 18 -4 56 -16 83 -29z m3330 -164 c36 -6 41 -10 47 -41 14 -76 38 -282 33 -290 -16 -26 -391 -160 -496 -176 -54 -9 -62 12 -57 150 3 93 8 120 29 166 29 62 107 153 150 176 64 32 160 38 294 15z m232 -76 c46 -19 114 -142 163 -292 43 -130 46 -156 27 -188 -16 -27 -119 -165 -122 -165 -11 0 -98 234 -120 318 -26 105 -55 274 -55 326 0 27 1 28 38 21 20 -4 51 -13 69 -20z m-1622 -75 c23 -11 54 -33 69 -49 l28 -29 -65 -269 c-36 -147 -69 -285 -72 -305 -6 -30 -15 -42 -50 -63 -55 -32 -88 -32 -113 -1 -28 36 -123 303 -129 361 -4 43 1 61 35 131 52 105 118 210 145 229 30 21 103 19 152 -5z m-1305 -129 c41 -21 96 -46 123 -56 57 -21 55 1 22 -296 -28 -243 -27 -243 -92 -255 -56 -10 -105 2 -133 34 -35 40 -160 196 -187 234 -48 65 -17 241 54 310 37 35 92 65 123 67 8 1 48 -16 90 -38z m3938 5 c15 -8 38 -26 51 -40 l24 -26 -12 -197 c-6 -109 -11 -233 -11 -275 l0 -78 -74 0 c-96 0 -129 21 -173 110 -39 78 -68 204 -59 253 8 41 95 189 139 235 34 36 70 41 115 18z m-1929 -60 c30 -27 44 -80 37 -139 -9 -70 -16 -78 -72 -88 -63 -11 -467 -24 -489 -16 -14 6 -10 19 30 96 28 55 63 105 89 129 l43 40 171 -2 c151 -1 172 -3 191 -20z m808 -123 c20 -71 21 -106 3 -203 -23 -122 -19 -422 8 -543 43 -192 87 -298 192 -457 32 -50 62 -107 66 -126 10 -52 -10 -113 -90 -284 -145 -306 -252 -623 -366 -1080 -91 -365 -115 -506 -129 -765 -9 -169 -20 -196 -115 -278 -89 -78 -121 -144 -121 -247 0 -41 4 -93 8 -114 l8 -39 -53 6 c-29 4 -123 26 -208 50 -85 25 -178 50 -206 57 l-52 13 66 86 c89 116 120 187 143 322 24 143 17 126 119 330 157 316 264 706 370 1349 45 274 57 446 40 575 -7 50 -13 102 -14 116 0 14 -6 32 -13 40 -6 8 -21 39 -33 69 -26 66 -88 182 -187 348 -40 68 -73 126 -73 128 0 2 6 4 13 4 24 0 142 62 184 97 50 40 83 98 83 145 0 28 -43 219 -64 285 -6 18 8 25 146 73 84 29 173 63 198 76 25 13 48 23 52 24 4 0 15 -26 25 -57z m-2543 -80 c37 -113 186 -616 183 -619 -1 -1 -71 -5 -156 -9 l-154 -8 7 69 c4 38 23 200 42 360 19 160 34 296 34 302 0 28 11 5 44 -95z m2108 -58 c61 -253 62 -258 54 -290 -8 -33 -79 -110 -129 -142 -52 -32 -131 -50 -151 -34 -42 35 -234 419 -213 426 7 2 53 8 102 15 50 6 137 22 195 34 58 13 112 23 120 22 8 -1 18 -15 22 -31z m-686 -49 l162 0 48 -105 c26 -57 90 -178 141 -268 51 -90 93 -164 93 -166 0 -1 -35 1 -77 4 -43 4 -239 13 -435 20 -197 7 -358 16 -358 20 0 16 61 333 81 419 l21 91 82 -8 c44 -4 154 -8 242 -7z m1723 -6 c46 -23 142 -126 182 -195 50 -86 35 -163 -59 -320 -54 -90 -75 -104 -162 -112 l-59 -6 -90 138 c-50 76 -91 142 -91 146 0 5 13 41 29 81 15 40 38 107 50 148 13 41 29 85 37 98 29 45 100 54 163 22z m-437 -198 c48 -97 129 -242 182 -322 52 -79 94 -146 93 -147 -2 -1 -226 29 -314 43 -29 4 -33 9 -42 57 -21 101 -31 193 -31 287 0 114 11 260 19 259 3 0 45 -80 93 -177z m-3411 138 c30 -17 130 -178 151 -245 23 -71 27 -227 9 -293 -16 -58 -73 -120 -117 -128 -19 -3 -37 -5 -39 -2 -2 2 -20 85 -40 183 -19 99 -51 244 -71 323 -19 79 -34 145 -32 146 4 4 89 23 106 25 7 0 22 -4 33 -9z m1249 -70 c29 -41 78 -162 88 -221 14 -72 -1 -129 -59 -233 -101 -178 -114 -192 -190 -206 -60 -11 -72 6 -98 132 -12 59 -44 187 -72 284 -55 197 -56 186 15 237 40 28 76 35 193 36 l102 1 21 -30z m3100 -325 c53 -28 87 -77 103 -148 14 -68 14 -70 -12 -135 -34 -86 -94 -152 -140 -152 -45 0 -100 31 -148 83 -61 66 -63 94 -15 197 22 47 47 102 56 123 8 20 25 42 38 47 27 11 81 4 118 -15z m-2730 -19 c9 -12 8 -36 -5 -113 -9 -54 -19 -174 -22 -266 -6 -165 -6 -169 -29 -178 -14 -5 -34 -5 -48 0 -31 12 -111 105 -137 159 -31 62 -22 102 45 205 31 48 65 105 76 128 38 73 89 101 120 65z m-1108 -14 c5 -5 4 -51 -2 -103 -5 -52 -11 -156 -12 -231 -2 -84 -7 -138 -13 -138 -31 1 -98 46 -152 103 -55 57 -63 70 -63 104 0 47 34 180 61 242 l19 44 77 -7 c42 -3 81 -10 85 -14z m3518 -451 c80 -48 140 -204 94 -242 -14 -12 -18 -12 -26 1 -57 98 -158 274 -158 277 0 9 47 -10 90 -36z m-3807 -70 c49 -45 81 -104 98 -179 11 -45 10 -60 -5 -110 -25 -78 -50 -126 -92 -172 -48 -53 -92 -67 -139 -44 -72 34 -106 108 -104 227 0 54 40 271 51 282 13 13 84 34 116 35 24 0 43 -10 75 -39z m1035 -62 c39 -13 51 -33 97 -154 32 -86 37 -108 32 -160 -9 -116 -89 -225 -165 -225 -110 0 -182 124 -182 315 0 87 2 93 36 148 51 82 103 104 182 76z m990 -2814 c1 -1 -18 -33 -43 -71 -57 -86 -100 -174 -117 -239 -6 -28 -13 -51 -14 -53 -1 -2 -20 5 -43 14 -37 14 -41 20 -41 50 0 37 80 201 135 276 l34 46 43 -10 c24 -6 44 -12 46 -13z m292 -76 c41 -10 99 -19 129 -19 l53 0 -6 -37 c-28 -159 -92 -215 -279 -244 -72 -11 -302 -8 -314 5 -17 16 54 192 123 308 l34 56 93 -24 c50 -14 126 -34 167 -45z m-2752 -104 c2 -2 -10 -24 -28 -49 -46 -68 -97 -182 -116 -259 -15 -61 -19 -67 -38 -61 -50 16 -67 25 -72 38 -14 36 50 193 122 301 l35 52 47 -9 c26 -6 49 -12 50 -13z m207 -46 c72 -17 165 -33 209 -36 l78 -6 -6 -56 c-4 -31 -19 -81 -34 -111 -23 -47 -35 -59 -83 -83 -84 -42 -208 -61 -358 -54 -68 3 -126 9 -129 12 -12 12 29 141 72 230 55 111 83 148 105 140 9 -4 75 -20 146 -36z m4257 15 c4 -3 -10 -28 -32 -56 -58 -72 -102 -169 -145 -315 -4 -12 -48 -4 -75 12 -33 21 22 192 109 333 l26 43 55 -6 c30 -4 58 -9 62 -11z m164 -35 c55 -11 139 -23 188 -26 l89 -6 -6 -77 c-10 -149 -68 -203 -255 -235 -91 -16 -289 -20 -310 -7 -34 22 134 372 179 372 9 0 61 -9 115 -21z m-3416 -109 c40 -1 41 -16 6 -74 -45 -75 -90 -185 -107 -258 -13 -63 -20 -67 -78 -47 -27 10 -31 15 -31 48 0 65 45 177 117 290 28 44 38 52 56 47 12 -3 29 -6 37 -6z m244 -45 c77 -14 171 -25 208 -25 l68 0 0 -53 c0 -78 -25 -151 -65 -191 -72 -73 -324 -118 -490 -88 -48 9 -48 13 -1 152 39 117 100 230 124 230 9 0 80 -11 156 -25z" id="area1" data-color="1"/>
<path d="M5455 13912 c-60 -36 -144 -64 -315 -108 -96 -24 -203 -58 -237 -74 -82 -41 -156 -110 -245 -228 -96 -129 -141 -177 -211 -224 -87 -59 -173 -96 -257 -109 -112 -19 -112 -32 0 -26 94 6 167 25 245 65 30 14 46 17 64 11 13 -5 70 -12 126 -16 93 -5 107 -4 148 16 25 12 65 40 89 62 l43 40 -92 -47 c-82 -42 -101 -48 -170 -51 -43 -3 -95 -1 -116 4 l-38 8 48 40 48 40 120 6 c166 8 224 27 290 93 54 54 86 119 67 138 -13 13 -204 16 -252 4 l-35 -8 30 32 c17 17 66 54 110 81 77 48 106 59 300 115 112 32 198 73 250 118 43 38 38 47 -10 18z m-407 -376 c8 -9 -47 -93 -82 -124 -44 -38 -107 -52 -237 -52 l-100 0 56 68 c64 75 92 100 133 113 27 9 220 4 230 -5z" id="area2" data-color="2"/>
<path d="M3387 13305 c-86 -32 -124 -78 -132 -162 -4 -34 -3 -41 3 -23 39 113 119 170 238 170 120 0 223 -38 295 -110 51 -51 55 -34 7 24 -41 49 -95 83 -165 101 -71 19 -195 18 -246 0z" id="area3" data-color="3"/>
<path d="M3469 13126 c-93 -33 -144 -88 -173 -186 -24 -80 -19 -119 5 -47 24 72 57 125 99 160 31 26 114 57 155 57 40 0 122 -30 166 -61 l44 -30 -46 44 c-69 68 -168 93 -250 63z" id="area4" data-color="4"/>
<path d="M3513 12955 c-94 -47 -139 -97 -194 -214 -28 -58 -54 -114 -60 -123 -5 -10 -6 -18 -2 -18 17 1 53 39 103 110 66 93 94 125 144 161 45 33 73 40 32 8 -38 -30 -56 -71 -56 -126 0 -60 16 -91 60 -121 25 -17 45 -23 72 -20 26 2 34 0 27 -7 -16 -16 -197 -10 -249 8 -54 20 -61 16 -22 -12 61 -43 215 -55 288 -22 83 38 135 136 116 219 l-9 42 50 0 c55 0 122 27 153 61 18 20 18 20 -10 10 -47 -18 -84 -12 -187 29 -122 49 -180 52 -256 15z m195 -127 c5 -62 -63 -115 -88 -69 -15 29 -12 50 11 83 16 22 28 28 48 26 22 -3 26 -8 29 -40z" id="area5" data-color="5"/>
<path d="M2815 12752 c-42 -26 -128 -123 -150 -167 -14 -31 -16 -52 -10 -120 5 -62 3 -95 -9 -135 -22 -73 -21 -143 2 -163 64 -57 155 17 217 178 20 51 57 127 82 169 63 106 71 188 23 236 -27 27 -113 27 -155 2z m140 -27 c33 -32 33 -87 0 -146 -56 -101 -86 -162 -110 -224 -43 -115 -107 -190 -157 -183 -35 5 -45 47 -28 116 8 31 15 104 15 162 0 94 3 109 25 145 84 136 194 192 255 130z" id="area6" data-color="6"/>
<path d="M3966 12669 c-49 -38 -70 -95 -71 -184 0 -68 4 -85 23 -112 43 -61 103 -56 169 13 50 51 67 104 61 188 -4 51 -9 63 -36 87 -41 37 -105 40 -146 8z m109 -11 c94 -43 60 -243 -50 -295 -31 -15 -36 -15 -60 1 -39 26 -58 80 -50 141 10 78 39 133 77 150 41 18 50 18 83 3z" id="area7" data-color="7"/>
<path d="M3155 12368 c-97 -34 -163 -138 -179 -283 -11 -95 29 -175 86 -175 55 0 178 89 240 174 23 32 28 49 28 95 -1 86 -47 169 -107 192 -29 11 -29 11 -68 -3z m88 -38 c34 -27 67 -98 67 -144 0 -53 -31 -106 -96 -164 -65 -59 -109 -82 -152 -82 -45 0 -62 31 -62 109 0 95 25 173 73 227 64 72 123 91 170 54z" id="area8" data-color="8"/>
<path d="M3675 12345 c-57 -28 -142 -103 -160 -140 -13 -29 -16 -53 -12 -97 10 -110 63 -161 167 -159 167 2 261 161 185 310 -46 91 -109 121 -180 86z m121 -40 c53 -53 78 -148 54 -209 -16 -42 -77 -102 -119 -116 -99 -32 -181 10 -202 105 -14 65 -8 94 33 141 85 96 183 130 234 79z" id="area9" data-color="9"/>
<path d="M2092 11977 c-6 -7 -16 -25 -22 -41 l-11 -29 30 32 c33 35 56 33 64 -5 3 -18 -4 -34 -24 -57 -21 -23 -29 -42 -29 -68 0 -21 -11 -56 -25 -80 -29 -51 -34 -83 -7 -48 55 72 96 153 103 206 10 73 -1 103 -40 103 -15 0 -33 -6 -39 -13z" id="area10" data-color="10"/>
<path d="M2421 11939 c-43 -26 -36 -32 17 -14 37 13 47 13 76 1 48 -20 70 -57 63 -104 -6 -34 -5 -35 8 -18 8 11 15 32 15 47 0 91 -97 138 -179 88z" id="area11" data-color="1"/>
<path d="M2420 11843 c-18 -14 -42 -43 -55 -63 -27 -42 -58 -140 -45 -140 18 0 112 83 145 128 37 50 42 71 23 90 -18 18 -33 15 -68 -15z" id="area12" data-color="2"/>
<path d="M4293 11545 c-12 -8 -38 -39 -58 -67 -21 -29 -81 -96 -135 -148 -115 -111 -124 -132 -141 -325 -16 -189 -1 -271 60 -314 41 -29 179 -83 227 -89 51 -5 79 18 130 108 101 182 150 370 142 555 -6 130 -31 207 -84 261 -29 28 -42 34 -77 34 -23 0 -52 -7 -64 -15z m111 -26 c129 -101 123 -440 -12 -722 -62 -130 -93 -167 -137 -167 -48 0 -189 58 -233 96 l-37 32 -3 108 c-4 109 12 276 30 323 5 14 57 76 116 138 59 61 128 134 153 162 51 57 79 64 123 30z" id="area13" data-color="3"/>
<path d="M4207 10346 c-97 -35 -129 -112 -187 -448 -35 -208 -36 -227 -11 -300 27 -77 169 -299 212 -331 53 -38 191 -18 266 39 47 36 76 92 129 249 40 118 48 155 52 235 l4 95 -93 180 c-100 196 -145 260 -195 281 -42 18 -127 17 -177 0z m157 -20 c57 -24 93 -75 191 -269 87 -173 95 -194 95 -246 0 -113 -91 -390 -149 -455 -62 -68 -186 -105 -248 -72 -40 20 -59 45 -148 190 -93 150 -102 183 -80 302 9 49 27 152 40 229 27 162 54 240 93 278 56 53 139 71 206 43z" id="area14" data-color="4"/>
<path d="M4420 9000 c-91 -25 -151 -95 -210 -247 -23 -59 -64 -156 -92 -216 -53 -114 -78 -191 -78 -242 0 -86 76 -282 131 -337 37 -38 37 -38 121 -38 96 0 162 17 260 66 76 39 128 81 158 129 33 53 120 319 120 367 0 79 -17 114 -84 179 -37 35 -79 88 -101 128 -20 38 -60 100 -89 137 -53 72 -83 88 -136 74z m87 -52 c36 -39 98 -131 139 -207 15 -29 52 -73 81 -98 92 -79 102 -146 44 -308 -16 -44 -40 -109 -52 -145 -29 -80 -79 -133 -171 -178 -86 -42 -147 -60 -228 -68 -119 -12 -158 22 -215 191 -52 150 -42 255 36 391 16 29 47 100 69 159 54 143 81 193 127 236 75 71 121 78 170 27z" id="area15" data-color="5"/>
<path d="M5172 8585 c-118 -56 -148 -78 -171 -123 -19 -39 -101 -357 -101 -394 0 -40 41 -107 109 -180 38 -40 82 -100 99 -134 62 -123 122 -156 242 -135 136 25 195 80 259 242 73 184 95 347 57 418 -10 19 -60 79 -112 132 -51 54 -102 116 -113 137 -50 98 -122 108 -269 37z m192 15 c15 -5 38 -32 57 -65 18 -31 73 -100 124 -154 107 -113 120 -142 112 -245 -6 -71 -66 -266 -108 -347 -50 -99 -138 -149 -261 -149 -50 0 -62 4 -92 31 -19 17 -49 60 -66 95 -19 41 -57 94 -104 144 -111 118 -113 131 -55 367 49 200 55 207 219 288 95 46 129 53 174 35z" id="area16" data-color="6"/>
<path d="M5893 8134 c-45 -22 -60 -50 -89 -162 -13 -53 -45 -148 -69 -210 -71 -177 -60 -250 60 -424 137 -196 157 -209 301 -190 46 6 103 20 127 30 76 34 155 134 230 290 36 75 42 96 42 152 -1 98 -29 141 -214 323 -172 169 -229 207 -310 207 -26 0 -60 -8 -78 -16z m176 -36 c58 -28 350 -316 377 -373 13 -28 19 -62 19 -110 0 -81 -30 -154 -111 -276 -86 -127 -137 -157 -284 -166 -93 -6 -96 -5 -128 22 -18 15 -64 71 -101 124 -147 207 -157 261 -79 451 26 63 57 155 69 203 29 119 55 147 135 147 39 0 73 -7 103 -22z" id="area17" data-color="7"/>
<path d="M4660 7860 c-19 -5 -76 -25 -127 -44 -51 -19 -127 -42 -170 -51 -148 -30 -185 -61 -287 -240 -66 -117 -98 -199 -104 -270 -6 -82 10 -110 105 -188 42 -34 126 -104 187 -156 122 -102 158 -123 221 -123 52 0 235 55 291 87 51 30 76 77 149 275 31 85 66 180 77 210 26 72 25 155 -2 213 -23 49 -233 287 -253 287 -7 0 -21 2 -32 4 -11 3 -36 1 -55 -4z m104 -42 c14 -13 66 -70 116 -128 129 -149 144 -208 89 -347 -17 -43 -55 -144 -84 -225 -57 -160 -80 -200 -127 -224 -48 -25 -240 -84 -273 -84 -49 0 -105 33 -200 116 -49 44 -119 103 -155 131 -120 94 -125 103 -125 193 0 78 1 81 68 212 80 156 125 221 167 243 17 9 71 25 119 35 48 11 137 37 197 59 128 47 172 51 208 19z" id="area18" data-color="8"/>
<path d="M5942 7010 c-45 -11 -65 -32 -96 -100 -34 -75 -91 -293 -106 -408 -10 -71 -10 -97 0 -128 38 -118 107 -145 314 -125 128 13 149 23 236 119 111 123 127 186 95 363 -30 160 -64 220 -139 249 -25 9 -249 42 -266 39 -3 -1 -20 -5 -38 -9z m185 -34 c118 -16 159 -35 190 -92 21 -38 63 -236 63 -299 0 -79 -130 -256 -212 -290 -30 -13 -80 -19 -168 -22 -107 -4 -130 -2 -159 14 -101 53 -105 166 -20 472 36 128 72 204 102 219 30 15 83 14 204 -2z" id="area19" data-color="9"/>
<path d="M7540 6862 c-39 -19 -90 -91 -181 -255 -93 -167 -104 -212 -73 -304 27 -80 119 -266 149 -302 71 -83 198 -82 271 1 45 51 144 214 162 266 25 73 12 174 -44 340 -57 172 -86 221 -146 251 -54 26 -92 27 -138 3z m138 -32 c44 -27 64 -63 116 -214 93 -269 89 -310 -49 -522 -62 -95 -100 -125 -165 -132 -56 -5 -98 14 -134 61 -29 37 -116 230 -142 312 -17 54 -17 56 6 113 54 131 182 346 227 382 33 26 98 26 141 0z" id="area20" data-color="10"/>
<path d="M4647 6660 c-113 -36 -167 -89 -208 -206 -27 -76 -35 -152 -20 -197 7 -19 37 -70 66 -111 30 -42 75 -115 100 -164 49 -97 69 -124 103 -142 51 -26 154 -6 225 43 19 13 49 60 88 141 33 66 77 154 99 194 33 60 40 83 40 128 0 97 -37 154 -156 239 -107 76 -150 95 -218 94 -34 0 -87 -8 -119 -19z m184 -12 c49 -16 205 -125 238 -165 65 -79 61 -175 -13 -302 -25 -42 -65 -120 -90 -173 -45 -93 -48 -98 -101 -123 -127 -63 -175 -44 -253 99 -29 55 -80 138 -112 184 -35 50 -61 99 -65 122 -9 54 35 195 78 252 69 90 219 140 318 106z" id="area21" data-color="1"/>
<path d="M8180 4729 c0 -31 23 -85 74 -168 50 -82 51 -87 54 -172 2 -48 -1 -109 -6 -136 -12 -55 -8 -68 9 -27 14 35 24 190 15 239 -4 19 -28 65 -53 103 -26 37 -57 92 -69 122 -13 30 -23 48 -24 39z" id="area22" data-color="2"/>
<path d="M6740 5393 c-36 -14 -145 -111 -172 -152 -54 -85 -33 -193 53 -280 129 -129 277 -100 325 66 20 69 13 107 -32 175 -20 29 -47 74 -60 99 -12 26 -37 58 -54 73 -33 27 -36 28 -60 19z m46 -31 c10 -6 81 -122 130 -212 21 -38 17 -99 -10 -157 -53 -114 -152 -122 -262 -21 -56 51 -83 106 -84 167 0 57 24 95 108 171 63 57 92 69 118 52z" id="area23" data-color="3"/>
<path d="M6986 4740 c3 -30 19 -88 36 -129 30 -71 30 -76 18 -125 -15 -61 -35 -102 -64 -136 l-21 -24 25 15 c33 20 82 119 88 178 3 38 -1 58 -24 101 -15 29 -36 80 -46 114 l-18 61 6 -55z" id="area24" data-color="4"/>
<path d="M8033 14646 c-239 -58 -413 -282 -413 -533 l0 -72 -36 15 c-19 8 -70 17 -112 21 -269 20 -476 -187 -443 -444 l7 -53 -72 0 c-125 0 -249 -51 -317 -130 -92 -108 -67 -264 51 -324 129 -65 350 -79 1297 -78 722 0 1219 12 1345 32 177 28 263 92 285 212 10 52 -17 135 -60 185 -48 56 -131 95 -217 101 -67 5 -68 5 -60 31 4 14 7 69 7 121 0 79 -4 102 -23 137 -91 174 -296 244 -500 173 -31 -11 -58 -20 -59 -20 -2 0 -3 42 -3 93 0 108 -15 171 -61 258 -40 77 -144 184 -216 222 -112 60 -280 82 -400 53z m238 -56 c116 -22 244 -108 308 -208 79 -124 101 -310 55 -465 -4 -14 6 -10 43 16 172 124 425 95 523 -60 60 -94 62 -189 5 -310 l-24 -52 32 7 c18 4 64 7 102 6 153 -2 264 -96 253 -214 -9 -91 -76 -147 -208 -174 -120 -24 -557 -36 -1382 -36 -1057 0 -1228 15 -1308 117 -32 41 -25 136 14 188 82 107 301 156 448 100 10 -4 5 14 -16 57 -53 107 -39 230 39 332 104 136 339 170 496 71 l37 -24 -10 42 c-5 23 -8 83 -5 132 8 160 78 298 192 383 121 90 255 120 406 92z" id="area25" data-color="5"/>
<path d="M1223 13315 c-135 -38 -233 -116 -290 -233 l-38 -76 0 -152 1 -151 -36 10 c-19 5 -60 7 -91 4 -237 -21 -357 -280 -193 -415 92 -76 236 -90 779 -74 406 12 471 19 555 62 160 82 221 269 139 426 -51 97 -136 144 -259 144 l-69 0 1 78 c1 97 -12 143 -61 220 -44 67 -112 123 -181 147 -64 23 -193 28 -257 10z m241 -63 c27 -9 69 -35 93 -56 114 -100 147 -235 92 -381 -11 -27 -19 -51 -19 -51 0 -1 21 9 47 22 64 33 161 33 223 2 84 -43 136 -142 128 -243 -11 -122 -88 -202 -235 -240 -81 -22 -492 -38 -798 -32 -275 5 -321 13 -389 68 -95 79 -59 235 69 299 66 33 174 34 254 2 30 -12 56 -20 57 -19 2 2 -6 32 -17 67 -30 95 -37 242 -14 311 24 71 52 115 108 166 110 102 260 133 401 85z" id="area26" data-color="6"/>
<path d="M9363 6725 c-162 -44 -273 -169 -290 -325 -6 -64 10 -167 33 -212 8 -16 13 -28 10 -28 -2 0 -28 12 -58 27 -54 27 -137 40 -182 29 -30 -7 -56 -52 -56 -94 0 -27 58 -158 66 -149 2 2 -3 23 -11 47 -19 53 -19 120 -2 145 33 44 197 -16 293 -107 l56 -53 -17 40 c-70 163 -79 197 -79 310 -1 104 1 113 28 163 36 65 82 107 156 141 48 23 68 26 156 26 96 0 103 -2 176 -38 98 -48 179 -134 242 -256 47 -91 106 -253 106 -291 0 -34 17 -14 24 28 15 95 128 264 196 292 22 9 30 19 30 37 0 21 -3 23 -22 18 -67 -21 -120 -71 -176 -168 l-39 -67 -18 47 c-124 334 -369 506 -622 438z" id="area27" data-color="7"/>
<path d="M1936 4448 c-87 -46 -182 -127 -211 -181 -17 -31 -28 -38 -109 -62 -133 -40 -305 -109 -440 -177 l-119 -60 28 49 c85 148 185 275 279 355 87 75 89 77 48 51 -127 -77 -267 -232 -348 -385 -47 -89 -48 -90 -141 -146 -52 -31 -148 -92 -215 -135 -66 -43 -122 -76 -124 -74 -2 2 12 67 30 144 32 128 57 206 100 306 29 66 7 39 -35 -44 -50 -100 -91 -224 -115 -349 l-18 -95 -71 -52 c-77 -56 -276 -232 -398 -352 -61 -60 -77 -82 -77 -105 0 -27 6 -23 108 75 59 57 133 126 165 153 l58 49 167 0 c92 0 225 -6 296 -12 70 -7 130 -10 133 -8 2 3 -61 15 -139 28 -103 16 -183 23 -287 23 l-144 0 29 24 c61 51 295 224 321 237 21 11 66 15 175 15 146 0 270 -12 507 -50 68 -11 126 -19 128 -16 2 2 -38 13 -89 25 -188 42 -347 64 -496 70 l-153 6 163 97 c90 53 198 113 241 134 l78 37 85 -12 c46 -6 175 -29 286 -51 112 -21 239 -41 283 -44 l80 -6 -95 19 c-52 10 -133 28 -180 39 -76 19 -317 66 -380 75 -22 3 -19 6 25 26 80 37 399 140 530 171 190 45 413 78 635 93 25 2 -1 4 -56 5 -166 3 -452 -32 -652 -79 -46 -11 -86 -18 -89 -15 -12 12 146 155 215 195 39 24 72 45 72 47 0 6 0 6 -84 -38z" id="area28" data-color="8"/>
<path d="M8803 3568 c77 -98 212 -301 308 -461 295 -498 376 -620 498 -749 40 -43 69 -78 65 -78 -5 0 -43 9 -84 20 -139 37 -299 52 -500 47 -102 -3 -195 -8 -208 -12 -21 -7 -7 -23 156 -184 143 -140 207 -213 315 -357 88 -116 171 -214 232 -273 l96 -91 -69 0 c-134 0 -308 -42 -432 -105 -162 -82 -320 -220 -414 -364 -47 -71 -117 -211 -131 -259 -6 -20 -4 -23 12 -18 61 20 188 36 275 36 118 0 232 -22 448 -85 198 -58 314 -77 470 -78 130 0 206 10 328 45 68 20 72 23 72 51 0 24 -3 28 -17 22 -66 -25 -195 -55 -277 -64 -172 -20 -338 4 -619 88 -203 61 -287 74 -459 69 -82 -2 -148 -3 -148 -1 0 2 14 32 31 66 102 201 287 376 493 465 121 53 207 72 346 79 116 5 134 3 253 -26 173 -41 253 -80 385 -184 9 -7 12 -1 12 24 0 31 -6 39 -62 76 -85 57 -153 87 -280 121 -95 26 -117 36 -181 85 -101 78 -186 169 -311 336 -143 190 -267 332 -359 411 -42 36 -76 69 -76 74 -1 5 86 6 197 3 356 -9 630 -81 840 -221 64 -43 163 -137 210 -201 l21 -30 1 43 c0 34 -7 52 -31 81 -65 82 -227 194 -348 242 -140 55 -362 334 -624 786 -129 222 -211 353 -288 460 -33 44 -59 84 -59 89 0 11 317 -4 440 -20 218 -30 407 -93 573 -193 83 -50 234 -184 299 -266 l38 -49 0 47 c0 46 -2 49 -92 139 -279 277 -639 396 -1202 396 l-169 0 26 -32z" id="area29" data-color="9"/>
<path d="M2894 3461 c-70 -46 -127 -104 -184 -189 -43 -64 -100 -189 -121 -264 l-11 -43 -27 75 c-71 194 -188 343 -324 412 -33 16 -61 28 -63 26 -2 -2 20 -48 48 -102 59 -115 102 -228 129 -341 10 -44 19 -84 19 -89 0 -5 -28 18 -63 51 -99 96 -201 155 -294 172 l-46 9 60 -53 c32 -29 78 -77 100 -107 39 -49 132 -213 133 -231 0 -4 -24 10 -53 32 -76 58 -160 92 -237 98 l-65 5 47 -31 c61 -41 137 -125 216 -235 34 -49 62 -82 62 -74 0 28 -69 155 -115 212 -53 64 -44 63 55 -5 56 -38 159 -138 178 -174 21 -37 12 3 -19 91 -46 130 -100 241 -153 312 -51 69 -42 68 49 -5 82 -66 165 -169 209 -256 20 -39 36 -67 36 -60 0 7 -14 70 -31 140 -17 70 -41 171 -54 223 -19 79 -46 160 -100 295 -13 32 71 -52 121 -121 89 -125 150 -287 171 -459 5 -41 8 -50 10 -30 12 109 69 307 115 400 36 72 104 169 147 209 35 34 37 32 16 -17 -24 -59 -53 -174 -80 -322 -14 -77 -39 -193 -56 -257 -16 -64 -29 -120 -29 -125 0 -4 23 37 51 92 62 122 114 192 188 250 51 41 159 105 176 105 4 0 -8 -17 -27 -38 -71 -79 -130 -181 -187 -325 -17 -41 -39 -90 -50 -108 -31 -51 -25 -57 17 -18 71 68 143 105 242 123 l35 6 -25 -16 c-63 -42 -150 -141 -150 -169 0 -4 30 21 67 55 44 40 99 77 156 105 94 46 94 46 -4 60 -55 8 -149 -8 -203 -35 -22 -11 -42 -17 -45 -15 -10 10 100 212 152 280 29 39 81 91 116 118 l62 47 -43 0 c-53 0 -162 -38 -236 -82 -31 -18 -84 -61 -119 -94 -35 -34 -63 -60 -63 -57 0 2 9 57 21 121 24 135 73 290 124 391 42 84 34 88 -51 32z" id="area30" data-color="10"/>
<path d="M9185 3408 c212 -114 522 -370 691 -572 46 -55 83 -101 81 -102 -1 -1 -33 8 -72 21 -91 31 -262 65 -317 64 -35 -1 -25 -4 51 -19 51 -11 156 -40 233 -66 l139 -46 57 -71 c31 -40 87 -117 124 -171 l68 -100 0 40 c0 32 -11 55 -53 116 l-54 77 -6 138 c-7 133 -22 240 -46 332 -19 68 -22 42 -5 -38 12 -62 37 -391 30 -399 -2 -1 -27 30 -57 70 -29 40 -87 112 -128 160 -66 78 -76 95 -93 160 -20 79 -102 258 -137 298 -17 20 -16 14 8 -30 30 -56 125 -300 119 -306 -2 -1 -39 30 -83 69 -202 181 -497 382 -605 411 -14 4 11 -12 55 -36z" id="area31" data-color="1"/>
<path d="M700 2983 c-108 -46 -246 -131 -289 -177 -24 -25 -29 -26 -135 -26 -61 0 -148 -3 -193 -7 -80 -6 -83 -7 -83 -31 0 -23 2 -24 43 -19 23 3 94 9 157 12 l115 6 85 -69 c103 -84 260 -246 329 -339 76 -103 85 -112 55 -58 -91 167 -232 324 -380 422 -30 20 -52 38 -50 41 3 2 74 -1 158 -7 199 -16 351 -45 401 -79 67 -45 272 -267 337 -364 73 -110 75 -111 60 -73 -40 105 -179 290 -288 382 -34 29 -57 53 -51 53 6 0 72 -23 147 -51 276 -103 555 -257 722 -399 l75 -63 -50 52 c-68 72 -191 167 -305 236 -125 76 -352 186 -465 225 -49 17 -97 33 -105 36 -31 11 175 110 304 145 l71 20 -63 -6 c-87 -8 -203 -48 -293 -100 l-76 -43 -65 18 c-86 24 -231 48 -341 56 -84 7 -87 8 -71 25 30 33 168 123 269 176 55 29 96 52 90 52 -5 0 -57 -21 -115 -46z" id="area32" data-color="2"/>
<path d="M10003 2341 c49 -11 122 -31 163 -45 57 -19 74 -22 74 -11 0 8 -4 16 -8 19 -24 14 -173 46 -240 50 l-77 6 88 -19z" id="area33" data-color="3"/>
<path d="M9350 2157 c155 -67 315 -164 465 -282 90 -71 301 -282 270 -270 -104 40 -235 65 -335 65 -89 0 -61 -17 38 -23 96 -6 233 -39 319 -77 23 -10 62 -40 87 -66 l46 -48 0 32 c0 26 -15 47 -79 115 -49 53 -83 98 -91 123 -25 76 -62 160 -107 236 -57 99 -75 111 -29 21 31 -64 106 -240 106 -252 0 -3 -19 13 -42 35 -104 98 -226 187 -383 277 -92 53 -246 123 -290 132 -17 3 -7 -4 25 -18z" id="area34" data-color="4"/>
<path d="M0 2079 c0 -14 30 -53 83 -108 95 -99 223 -266 287 -375 24 -41 46 -73 48 -71 6 6 -84 170 -143 260 -63 97 -94 135 -182 229 -82 87 -93 95 -93 65z" id="area35" data-color="5"/>
<path d="M6981 1665 c-21 -67 -25 -134 -11 -190 4 -20 9 -25 12 -15 8 21 29 262 24 267 -3 3 -14 -25 -25 -62z" id="area36" data-color="6"/>
<path d="M6780 1676 c0 -4 11 -28 23 -54 13 -26 34 -75 47 -109 12 -35 25 -63 28 -63 14 0 -10 107 -34 150 -25 46 -64 92 -64 76z" id="area37" data-color="7"/>
<path d="M7158 1623 c-45 -48 -66 -89 -73 -144 -5 -40 -2 -36 40 51 25 52 53 102 62 112 31 34 7 18 -29 -19z" id="area38" data-color="8"/>
<path d="M2119 1595 c-62 -32 -141 -106 -193 -179 -54 -76 -79 -125 -109 -215 l-24 -71 -18 47 c-43 118 -133 246 -227 324 -53 44 -156 105 -163 97 -1 -2 22 -46 51 -98 58 -102 104 -214 129 -313 9 -34 19 -71 22 -82 4 -12 -16 0 -55 35 -105 96 -237 163 -342 175 l-55 7 35 -29 c117 -94 182 -173 247 -301 24 -46 42 -86 40 -88 -2 -3 -25 7 -51 22 -64 36 -138 54 -221 54 -89 0 -111 -12 -53 -29 64 -19 153 -77 230 -149 37 -35 68 -60 68 -55 0 24 -80 121 -122 148 -26 17 -47 33 -47 37 -1 11 100 -22 154 -50 28 -15 74 -50 103 -79 28 -28 52 -50 52 -47 0 2 -29 68 -65 146 -64 140 -124 241 -184 306 -36 39 -31 40 34 6 68 -36 156 -105 200 -156 38 -45 115 -189 115 -216 0 -8 2 -13 5 -10 10 9 -15 151 -50 289 -36 143 -74 256 -107 324 l-20 40 52 -50 c110 -107 194 -266 225 -430 25 -128 28 -130 36 -34 10 106 55 249 109 345 36 66 137 190 147 181 2 -2 -5 -25 -16 -49 -11 -25 -29 -79 -40 -119 -20 -73 -69 -358 -77 -454 l-5 -50 19 46 c34 83 84 160 137 214 51 50 174 145 190 145 4 0 -7 -16 -23 -35 -48 -54 -80 -115 -138 -262 -30 -75 -54 -137 -54 -138 0 -2 33 30 73 69 46 46 98 85 143 109 40 20 75 37 78 37 3 0 -20 -33 -53 -72 -52 -65 -118 -175 -109 -183 2 -2 40 42 86 96 80 96 168 174 235 211 l32 17 -41 1 c-83 0 -263 -61 -318 -109 -18 -15 -18 -15 -11 9 23 79 152 265 217 313 99 73 -94 7 -210 -72 -33 -22 -87 -68 -121 -101 -33 -34 -61 -57 -61 -51 0 6 9 55 19 110 24 121 70 260 122 364 22 42 36 77 32 77 -5 -1 -28 -12 -54 -25z" id="area39" data-color="9"/>
<path d="M7260 1528 c-27 -14 -52 -37 -64 -58 l-20 -35 53 48 c29 26 59 47 66 47 8 0 17 5 20 10 10 16 -7 12 -55 -12z" id="area40" data-color="10"/>
<path d="M9606 1251 c51 -24 268 -167 286 -188 11 -14 10 -15 -17 -10 -16 4 -94 12 -173 19 -252 22 -459 -12 -659 -107 -62 -30 -113 -56 -113 -60 0 -3 17 2 38 11 217 94 302 114 507 120 157 5 159 4 115 -12 -63 -23 -196 -102 -240 -144 -20 -19 -29 -30 -21 -24 43 31 189 107 264 139 101 41 138 43 293 15 171 -31 325 -80 253 -80 -38 0 -208 -62 -280 -103 -100 -55 -125 -82 -36 -38 85 43 259 102 356 122 46 10 61 17 61 30 0 13 -30 27 -125 58 -70 23 -132 41 -138 41 -7 0 -47 26 -88 58 -86 65 -249 158 -294 167 -25 4 -24 2 11 -14z" id="area41" data-color="1"/>
<path d="M6064 933 c-19 -64 -23 -176 -10 -238 8 -38 9 -39 16 -14 10 34 24 309 16 309 -3 0 -13 -26 -22 -57z" id="area42" data-color="2"/>
<path d="M6245 879 c-41 -49 -66 -107 -72 -165 -3 -30 -3 -54 -1 -54 3 0 20 41 38 91 18 50 44 106 56 125 29 43 15 45 -21 3z" id="area43" data-color="3"/>
<path d="M5835 832 c25 -32 61 -87 81 -122 l35 -65 -6 43 c-8 63 -38 114 -92 161 -26 22 -51 41 -55 41 -5 0 12 -26 37 -58z" id="area44" data-color="4"/>
<path d="M6384 786 c-52 -24 -94 -66 -94 -94 0 -11 15 -2 43 25 23 23 60 53 81 67 48 32 37 33 -30 2z" id="area45" data-color="5"/>
</g>
</svg>