<?xml version="1.0" encoding="UTF-8"?>
<svg id="katman_2" data-name="katman 2" xmlns="http://www.w3.org/2000/svg" viewBox="0 0 241.8 427.41">
  <defs>
    <style>
      .cls-1 {
        fill: #ad501e;
      }

      .cls-2 {
        fill: #fbcac2;
      }

      .cls-3 {
        fill: #e2b009;
      }

      .cls-4 {
        fill: #78230c;
      }

      .cls-5 {
        fill: #fdebbc;
      }

      .cls-6 {
        fill: #fbe082;
      }

      .cls-7 {
        fill: #fefeff;
      }

      .cls-8 {
        fill: #bf6323;
      }

      .cls-9 {
        fill: #d1db7c;
      }

      .cls-10 {
        fill: #f5d337;
      }

      .cls-11 {
        fill: #333140;
      }

      .cls-12 {
        fill: #773004;
      }

      .cls-13 {
        fill: #f3a08b;
      }
    </style>
  </defs>
  <g id="katman_2-2" data-name="katman 2">
    <g id="_Üretken_Nesne" data-name="Üretken Nesne">
      <path class="cls-9" d="M139.24,394.78c.04,1.94.35,4.09.41,6.11.05,1.68-.34,8.75.41,9.57,2,1.25,16.12,1.04,16.69,0-.26-3.41-1.52-6.63-2.04-9.98-.21-1.38-.63-2.69-.81-4.07h2.85c.05.94.37,1.98.41,2.44.22,3.15-.16,6.4,0,9.57.77,1.77,14.47.87,16.9.61.7-.4-2-9.02-2.24-10.18,0-.04.6.1.41-.81,1.88,1.01,4.8-.12,6.11,0,1.45.14,4.03.62,6.11.81.33.03.49.34,1.22.41,1.75.17,3.58.23,5.29.41.82.08,1-.02,1.22,0,3.46.37,7.14.77,10.59,1.22,7.31.97,61.21,7.8,28.7,17.51-15.86,4.73-40.97,6.31-57.82,7.33-42.59,2.59-92.04,2.52-134.36-2.44-12.79-1.5-66.4-9.04-21.99-19.14,4.34-.99,9.03-1.34,13.44-2.04l-3.26-2.04c3.09.64,7.28,2.2,10.38.81.16-.07.47.04.41-.41,1.08.65,1.93-.01,2.04,0,2.08.25,1.02-.4,1.22-.41.34,0,.43.46,1.22.41,2.93-.18,5.8-.92,8.75-.81.94-.64.54-1.55.61-2.44h1.22c.08.95-.69,1.44.2,2.04.27-.24,1.2-.83,1.43-.81,3.54.18,6.68.08,10.18-.41.14,1.29.66,2.8.81,4.07s.07,7.94.61,8.55l17.1.41c.62-.34-3.22-8.55-3.46-9.36-.59-2.01-1.16-4.82-1.63-6.92l7.74-.41c.2,1.77.58,3.55.81,5.29.17,1.26-.01,7.69,1.02,8.14l16.69,1.22c.63-1.01-2.6-8.16-3.05-9.77-.42-1.47-.86-3-1.22-4.48h38.68Z"/>
      <g>
        <path class="cls-1" d="M52.52,287.7c-.71,1.43-1.82,4.14-2.44,5.7-7.62-2.1-3.36-9.66,2.44-5.7Z"/>
        <g>
          <path class="cls-3" d="M68.81,253.9c-.49.71-2.31,4.9-2.85,6.11s-3.66,5.64-1.63,6.11c.15.65-.7,1.64-.81,2.04-4.45-.19-7.36,10.91-8.14,11.6-.35.31-.97-.93-2.24-.61-3.43.86-2.31,5.97-.2,7.74-.12.22-.28.56-.41.81-5.8-3.96-10.07,3.6-2.44,5.7-4.56,11.45-6.43,24.38-6.51,36.64-.11,1.51.55,2.6.41,4.07-.64-.7-2.3-1.41-3.26-1.63.96-1.38.21-2.71,0-4.07-.22-1.44-.39-2.27-.81-3.66.88-1.24.41-3.16,0-4.48-2.17-19.62,3.77-38.31,15.47-53.74,2.34,4.17,5.33-1.17,2.85-3.66,1.05-1.19,1.77-1.79,2.85-2.85,1.06,2.54,5.32-1.57,2.44-2.44.04-.04.16-.2.41-.41.5-.42.63-1.07.81-1.22.65-.52,3.12-1.89,4.07-2.04Z"/>
          <g>
            <path class="cls-1" d="M55.37,266.53c1.01-1.34,1.71-2.37,2.85-3.66,2.48,2.5-.51,7.84-2.85,3.66Z"/>
            <path class="cls-1" d="M61.07,260.01c.85-.84,1.51-1.64,2.44-2.44,2.88.88-1.38,4.99-2.44,2.44Z"/>
            <path class="cls-1" d="M64.73,266.12s-.33.02-.41,0c-2.03-.46,1.11-4.96,1.63-6.11.73.97-.66,5.66-1.22,6.11Z"/>
            <path class="cls-1" d="M45.39,295.84c2.94-.2,2.93,3.21.81,3.66-2.99.65-4.32-3.42-.81-3.66Z"/>
            <path class="cls-1" d="M41.73,303.17c1-.16,3.65,3.39.81,3.66-2.25.22-2.51-3.39-.81-3.66Z"/>
          </g>
        </g>
      </g>
      <g>
        <g>
          <path class="cls-8" d="M167.74,200.57c-3.02,2.89-9.33,10.44-13.23,10.99-11.16,1.58-15.2-12.31-15.68-20.97,2.6-.49,7.39-7.88,8.35-8.35,1.62-.79,6.18-.51,8.55-1.22s5.9-3.43,8.35-4.48c1.2,8,2.94,15.95,3.66,24.02Z"/>
          <path class="cls-8" d="M173.44,227.44c-3.93,2.03-8.04,3.73-12.01,5.7-3.84,1.91-7.54,6.73-12.21,4.07-1.7-.97-1.97-3.19-2.65-3.87-1-1.01-6.87-6.04-6.92-6.51-.17-1.47,7.38-9.03,8.75-9.57,2.62-1.03,4.19.31,6.51,0,5.3-.71,10.01-7.93,14.05-10.99,1.39,7.08,3.36,14.01,4.48,21.17Z"/>
          <path class="cls-8" d="M119.7,216.85c1.84-5.18,2.67-10.84,3.26-16.29,2.65-.25,10.09-6.34,12.01-5.29.48.26,2.42,8.91,3.05,10.38,1.54,3.58,4.92,6.18,5.7,9.77-.19.82-12.4,10.26-13.23,10.38-2.69.38-9.21-6.43-10.79-8.96Z"/>
          <path class="cls-8" d="M160.82,157c.78,4.61,1.73,9.2,2.44,13.84-8.91,5.73-13.04,10.49-21.17.61-.87-1.05-5.16-8.05-5.29-8.96-.26-1.83,2.74-7.85,4.28-8.35,3.01-.98,15.4,4.57,19.75,2.85Z"/>
          <path class="cls-8" d="M103.82,235.99c.25-.56,7.78-6.13,9.36-7.94,1.19-1.37,3.65-4.75,4.48-6.31,8.89,4.72,8.83,13.57,7.74,22.6-5.78,2.61-11.06,3.15-15.27,8.35-2.12-4.98-8.8-11.08-6.31-16.69Z"/>
          <path class="cls-1" d="M160.01,152.12c-3.03.35-12.78-.4-15.27-1.63-2.86-1.42-3.35-12.5-4.28-15.47.17-.28-.17-1.58,0-1.83.18-.27,1.8.17,2.24-.2,1.63-1.41,5.64-7.22,6.11-7.33.37-.09,4.64,1.42,6.31-.81,1.66,9.11,3.32,18.14,4.89,27.28Z"/>
          <path class="cls-5" d="M175.89,280.37c-.83,4.97-2.57,9.19-3.26,13.44-2.07,1.88-4.44,8.03-6.72,9.36-2.05,1.2-5.77,1.39-7.94,4.48-.63-9.85,2.71-21.26,1.22-30.94,1.36.37,2.81-.32,4.07-.41,4.83-.33,9.1.6,12.62,4.07Z"/>
          <path class="cls-8" d="M123.36,194.87c.55-7.99.46-16.02.41-24.02l10.38-6.11c1.4,3.44,9.16,12.05,8.75,15.27s-15.37,14.93-19.54,14.86Z"/>
          <path class="cls-1" d="M137.61,139.5c.11.87.48,10.26.41,10.79-.56,3.87-9.9,15.32-14.66,15.68-.11-8.64-.1-17.46-.41-26.06,5.21,1.02,9.2-2.84,13.84-3.05.23.89.7,1.73.81,2.65Z"/>
          <path class="cls-3" d="M154.31,121.58c.19,1.05.61,2.15.81,3.26-1.67,2.23-5.94.72-6.31.81-.46.11-4.48,5.92-6.11,7.33-.44.38-2.06-.07-2.24.2-.17.25.17,1.55,0,1.83-.9,1.48-2.03,2.94-2.85,4.48-.12-.92-.59-1.76-.81-2.65-4.64.21-8.63,4.07-13.84,3.05-.06-1.69-.33-3.54-.41-5.29,4.36,1.12,8.77-.17,12.42-2.44.73-.46,8.48-6.63,8.75-7.13,1.16-2.12-.19-4.33-1.63-5.9,2.23-3.08,4.37-7.55,6.11-10.99,2.86,4.24-.18,8.64,0,13.23l6.11.2Z"/>
          <path class="cls-8" d="M177.11,258.79c-2.74-1.41-15.09-18.9-15.06-20.15.05-2.25,10.31-4.69,12.21-6.31,1.16,8.09,2.32,18.34,2.85,26.46Z"/>
          <path class="cls-8" d="M177.51,264.9c.06,5.59-.73,10.09-1.63,15.47-3.52-3.47-7.79-4.4-12.62-4.07l8.35-15.88,5.9,4.48Z"/>
          <path class="cls-8" d="M64.73,266.12c.56-.45,1.95-5.14,1.22-6.11.54-1.2,2.36-5.4,2.85-6.11,1.25-1.79,4.22-3.29,6.11-4.48l4.48,8.75c-6.13,1.9-8.8,6.24-10.79,12.01-2.04-.53-3.12-2.32-3.87-4.07Z"/>
          <path class="cls-1" d="M122.55,134.61c-.09-2.05-.53-4.04-.41-6.11,8.18.66,15.23-2.85,19.95-9.36,1.43,1.57,2.79,3.78,1.63,5.9-.27.49-8.02,6.67-8.75,7.13-3.65,2.27-8.06,3.56-12.42,2.44Z"/>
          <path class="cls-1" d="M151.05,103.26c.08,4.25,2.39,13.56,3.26,18.32l-6.11-.2c-.18-4.6,2.86-8.99,0-13.23.48-.95,1.3-3.96,1.63-4.48.07-.12.91-.52,1.22-.41Z"/>
          <path class="cls-12" d="M139.65,400.89l15.06-.41c.52,3.35,1.77,6.57,2.04,9.98-.58,1.04-14.69,1.25-16.69,0-.75-.82-.36-7.89-.41-9.57Z"/>
          <path class="cls-12" d="M171.81,398.85c.24,1.16,2.94,9.78,2.24,10.18-2.43.26-16.13,1.16-16.9-.61-.16-3.17.22-6.41,0-9.57h14.66Z"/>
          <path class="cls-12" d="M80.21,401.7c.24.82,4.08,9.02,3.46,9.36l-17.1-.41c-.54-.61-.45-7.23-.61-8.55l14.25-.41Z"/>
          <path class="cls-5" d="M105.04,282.81c-3.83,6.06-1.55,5.91,3.26,7.74,6.95,2.64,4.75.48,9.57.41,4.21-.07,7.83,1.06,12.01.81.32,5.31,1.58,11.01,2.44,16.29h-28.5l-6.72-4.07c-1.3,3.02-6.33,5.02-7.94,6.92l7.74-26.06c.1-.08.79-.76.81-.81,4.95,2.91,4.62-.07,7.33-1.22Z"/>
          <path class="cls-8" d="M157.97,272.23c-1.35-2.03-7.46-4.65-9.77-4.89-.72-2.14-2.24-7.52-1.63-9.57.34-1.13,11.88-11.56,13.23-14.05.8.08,7.46,13.25,7.53,14.05.04.44-1.73,7.89-2.04,8.55-.84,1.8-5.17,5.44-7.33,5.9Z"/>
          <path class="cls-8" d="M63.51,268.16c-1.91,6.74,3.83,2.72,5.7,6.72,1.28,2.72-2.92,10.42-4.28,10.79-.27.07-4.49-1.72-5.5-1.22-1.1-2.17-2.79-2.79-2.24-6.51-1.02,2.25-2.33,4.86-2.65,7.33-.3.17-1.57,1.52-1.63,1.63-2.1-1.76-3.23-6.88.2-7.74,1.27-.32,1.89.92,2.24.61.78-.69,3.69-11.79,8.14-11.6Z"/>
          <path class="cls-8" d="M135.17,272.23c-.85.91-4.08,7.22-4.48,8.55-1.11-1.51-9.09-2.65-9.36-3.05-.31-.44-.88-6.3-.41-7.33.85-1.85,8.23-4.44,9.98-3.87.74.24,3.01,5.03,4.28,5.7Z"/>
          <path class="cls-8" d="M97.71,284.03c-.02.05-.72.73-.81.81-2.59,2.21-7.23-1.06-8.55-3.26-1.64-2.72-.53-8.19,1.63-9.98,1.61-1.33,7.51-.52,8.96.81.32.79-.84,10.7-1.22,11.6Z"/>
          <path class="cls-8" d="M60.26,286.88c2.15-.6,6.14.74,8.14,1.83.34.72-1.2,6.88-1.63,7.94-.93,2.31-5.62,8.69-7.33,4.28-.5-1.3-.89-13.57.81-14.05Z"/>
          <path class="cls-8" d="M76.95,300.32c-2.86,6.22-8.84.49-8.55-2.85.07-.86,3.13-7.5,3.87-7.74,1.88-.59,6.48,2.06,6.72,3.87.05.35-1.77,6.14-2.04,6.72Z"/>
          <path class="cls-8" d="M142.91,264.9c-1.29.81-1.91,3.3-2.85,4.28s-2.35.92-2.44,1.02c-3.73-2.8-5.17-10.39-.2-13.03,5.57-2.96,5.33,4.64,5.5,7.74Z"/>
          <path class="cls-8" d="M87.94,290.55c-.09,2.85.4,12.82-4.28,11.4-.5-.15-1.71-2.3-1.83-2.85-1.19-5.37-.01-8.88,6.11-8.55Z"/>
          <path class="cls-8" d="M108.3,290.55c-4.81-1.82-7.09-1.67-3.26-7.74.66-.28,3.17-1.32,3.66-.61-.35,2.66,1.53,6.07-.41,8.35Z"/>
          <g>
            <path class="cls-6" d="M160.01,152.12c.28,1.63.54,3.25.81,4.89-4.35,1.72-16.74-3.83-19.75-2.85-1.54.5-4.53,6.52-4.28,8.35.13.91,4.43,7.91,5.29,8.96,8.14,9.88,12.26,5.12,21.17-.61.29,1.89.53,3.83.81,5.7-2.45,1.04-5.95,3.76-8.35,4.48s-6.93.43-8.55,1.22c-.96.47-5.75,7.86-8.35,8.35.48,8.66,4.51,22.55,15.68,20.97,3.9-.55,10.21-8.1,13.23-10.99,1.05,1.65.87,3.92,1.22,5.7-4.04,3.06-8.74,10.28-14.05,10.99-2.33.31-3.89-1.03-6.51,0-1.38.54-8.92,8.09-8.75,9.57.05.47,5.92,5.5,6.92,6.51.68.68.94,2.9,2.65,3.87,4.67,2.66,8.38-2.17,12.21-4.07,3.97-1.97,8.08-3.67,12.01-5.7.26,1.63.58,3.23.81,4.89-1.9,1.62-12.16,4.06-12.21,6.31-.03,1.26,12.33,18.74,15.06,20.15.13,2.06.38,4.03.41,6.11l-5.9-4.48-8.35,15.88c-1.26.09-2.71.77-4.07.41-.22-1.44-.39-3.24-1.22-4.48,2.16-.47,6.49-4.1,7.33-5.9.31-.66,2.08-8.11,2.04-8.55-.07-.8-6.74-13.97-7.53-14.05-1.35,2.48-12.89,12.92-13.23,14.05-.62,2.05.91,7.43,1.63,9.57-.52-.05-4.73,1.04-5.09.81.21-1.16-.16-2.34-.2-3.26-.16-3.1.08-10.69-5.5-7.74-4.96,2.63-3.53,10.23.2,13.03-.97.99-2.32,1.91-2.44,2.04-1.26-.67-3.53-5.46-4.28-5.7-1.75-.57-9.13,2.02-9.98,3.87-.47,1.03.1,6.88.41,7.33.28.41,8.25,1.54,9.36,3.05-1.21,4.05-1.06,6.93-.81,10.99-4.18.24-7.8-.88-12.01-.81-4.82.08-2.62,2.23-9.57-.41,1.94-2.27.06-5.68.41-8.35-.5-.71-3.01.33-3.66.61-2.71,1.15-2.38,4.13-7.33,1.22.39-.9,1.54-10.81,1.22-11.6-1.45-1.34-7.35-2.15-8.96-.81-2.16,1.79-3.26,7.26-1.63,9.98-.8,2.86-.32,6.02-.41,8.96-6.12-.33-7.3,3.18-6.11,8.55-2.25-.11-3.2-.26-4.89,1.22.26-.57,2.08-6.37,2.04-6.72-.24-1.81-4.84-4.46-6.72-3.87-.74.23-3.79,6.87-3.87,7.74l-1.63-.81c.42-1.06,1.97-7.22,1.63-7.94-2-1.1-5.99-2.44-8.14-1.83-1.39-.69-.51-1.85-.81-2.44,1-.5,5.23,1.3,5.5,1.22,1.36-.37,5.55-8.07,4.28-10.79-1.87-4-7.61.03-5.7-6.72.11-.39.96-1.39.81-2.04.08.02.37.03.41,0,.74,1.75,1.83,3.54,3.87,4.07,1.99-5.77,4.66-10.11,10.79-12.01l-4.48-8.75c1.51-.95,3.31-1.61,4.89-2.44,3.08-1.38,13.06-3.23,15.06-5.09.49-.46.77-1.55,0-1.83,2.96-1.35,5.82-3.15,8.96-4.07-2.48,5.61,4.19,11.71,6.31,16.69,4.21-5.2,9.49-5.74,15.27-8.35,1.09-9.03,1.15-17.88-7.74-22.6.76-1.43,1.49-3.35,2.04-4.89,1.58,2.53,8.1,9.34,10.79,8.96.83-.12,13.05-9.56,13.23-10.38-.78-3.59-4.16-6.19-5.7-9.77-.63-1.47-2.58-10.12-3.05-10.38-1.92-1.05-9.36,5.04-12.01,5.29.2-1.85.28-3.83.41-5.7,4.17.07,19.15-11.72,19.54-14.86s-7.35-11.82-8.75-15.27l-10.38,6.11c-.01-1.45-.39-3.17-.41-4.89,4.76-.36,14.1-11.8,14.66-15.68.08-.53-.3-9.92-.41-10.79.82-1.54,1.95-3,2.85-4.48.93,2.97,1.41,14.06,4.28,15.47,2.49,1.23,12.24,1.97,15.27,1.63Z"/>
            <g>
              <path class="cls-8" d="M79.8,246.98c4.94-2.6,10.01-4.61,15.06-6.92.77.28.49,1.38,0,1.83-2,1.86-11.98,3.71-15.06,5.09Z"/>
              <path class="cls-8" d="M100.36,244.13c3.18.26,9.09,15.05,8.35,17.3-.48,1.45-4.34,1.86-5.5,2.65-1.28.87-3.63,4.76-4.07,4.89-2.91.83-14.43-11.5-18.12-12.83-1.22-1.59-1.11-7.86,1.02-8.35.18-.04,2.71.97,3.66.81,3.27-.52,12.73-4.64,14.66-4.48Z"/>
              <path class="cls-8" d="M135.37,227.03c1.12-.02,9.87,12.98,12.62,14.66,1.9,1.16,4.24.82,5.9,2.24-2.92,9.2-10.83,7.04-18.12,9.98-.5-.1-5.78-7.46-5.9-7.94-.35-1.35.41-8.34.41-10.59,0-.75-1.06-3.25-.81-4.07.12-.41,5.13-3.66,5.9-4.28Z"/>
              <path class="cls-8" d="M124.38,249.02c6.41.06,12.51,8.57,5.7,13.44-.62.44-10.01,4.54-10.59,4.48-.5-.05-8.21-5.02-8.35-5.5-.08-.27-.08-5.43,0-5.7.96-3.19,10.14-6.75,13.23-6.72Z"/>
              <path class="cls-8" d="M82.85,261.64c4.33.25,5.05,7.32,4.28,10.79-.38,1.69-6.69,7.79-8.35,7.53-.81-.13-3.41-3.1-3.87-3.87-4.1-6.85-.55-14.94,7.94-14.45Z"/>
              <path class="cls-8" d="M110.13,264.9c1.99-.09,6.67,3.13,7.13,4.68.56,1.94-.69,5.59.41,7.74l-14.86,2.65c-.19-2.64-1.62-6.6-1.02-9.16.56-2.36,6.1-5.8,8.35-5.9Z"/>
              <path class="cls-8" d="M82.85,280.78c2.39-.28,4.7,4.14,4.28,6.31-.6,3.09-13.62,5.63-10.18-2.04.32-.71,5.36-4.21,5.9-4.28Z"/>
              <path class="cls-8" d="M115.02,282.41c1.95-.41,5.23.51,6.72,1.83-1.42,1.93-1.35,5.07-3.87,5.9-3.74,1.24-8.78-6.47-2.85-7.74Z"/>
              <path class="cls-8" d="M71.45,280.78c2.95-.32,5.55,11.09-2.65,4.68.3-.84,1.96-4.61,2.65-4.68Z"/>
            </g>
          </g>
          <g>
            <path class="cls-3" d="M172.63,293.81c-1.39,8.58-1.32,20.96-2.04,30.13-3.31-.45-4.53,4.92-1.22,5.7-.09,1.38.11,3.37,0,5.29-3.23-.4-4.23,4.21-.41,3.66-1.12,20.65-1.01,39.39,3.26,59.44.2.92-.42.77-.41.81h-14.66c-.03-.46-.35-1.5-.41-2.44-1.03-18.29-3.01-43.72-2.44-61.48.28-8.58,3.06-17.9,2.85-26.67.44-.27.48-.14.81-.61,2.17-3.09,5.89-3.28,7.94-4.48,2.28-1.34,4.64-7.48,6.72-9.36Z"/>
            <g>
              <path class="cls-8" d="M170.59,323.93c-.14,1.73-1.11,3.98-1.22,5.7-3.31-.78-2.09-6.15,1.22-5.7Z"/>
              <path class="cls-1" d="M169.37,334.93c-.08,1.26-.34,2.42-.41,3.66-3.83.54-2.82-4.06.41-3.66Z"/>
              <path class="cls-1" d="M165.1,314.16c1.27-.41,3.06.33,3.87,1.43-2.96,13.38-9.02.23-3.87-1.43Z"/>
              <path class="cls-1" d="M158.58,320.68c3.56-.95,4.44,4.81,2.04,5.7-3.44,1.27-4.54-5.03-2.04-5.7Z"/>
              <path class="cls-1" d="M162.25,328.82c3.24-.84,3.95,4.33,2.04,4.89-2.1.61-5.21-4.07-2.04-4.89Z"/>
              <path class="cls-1" d="M159.4,308.87c3.01-1.01,4.02,5.71,0,4.07-1.54-.63-1.12-3.7,0-4.07Z"/>
            </g>
          </g>
          <g>
            <path class="cls-10" d="M59.44,284.44c.3.59-.58,1.75.81,2.44-1.7.48-1.32,12.74-.81,14.05,1.71,4.42,6.4-1.97,7.33-4.28l1.63.81c-.29,3.34,5.69,9.07,8.55,2.85,1.68-1.48,2.64-1.33,4.89-1.22.12.55,1.33,2.7,1.83,2.85,4.67,1.42,4.19-8.55,4.28-11.4s-.39-6.1.41-8.96c1.32,2.2,5.96,5.47,8.55,3.26l-7.74,26.06c-1.69,2-7.28,12.5-9.36,15.88-9.75,15.84-5.27,49.69-1.22,67.99.46,2.1,1.04,4.91,1.63,6.92l-14.25.41c-.16-1.27-.68-2.78-.81-4.07-1.73-16.32-4.3-32.2-6.51-48.45-.65-4.76-1.85-8.58-2.04-13.84-.25-6.88.73-13.95.41-20.97-.41-8.88-3.52-21.14-2.44-29.52.32-2.46,1.62-5.08,2.65-7.33-.55,3.72,1.13,4.35,2.24,6.51Z"/>
            <g>
              <path class="cls-8" d="M66.97,303.58c7.57-1.39,2.53,14.85-5.09,7.94-.68-2.18,3.21-7.59,5.09-7.94Z"/>
              <path class="cls-8" d="M73.89,306.83c.94-.21,3.68,2.34,3.87,3.05,1.95,7.56-11.46,5.63-3.87-3.05Z"/>
              <path class="cls-8" d="M80.41,301.95c2.98.12,4.42,9.03-.41,6.92-3.9-1.71-2.63-7.04.41-6.92Z"/>
              <path class="cls-8" d="M60.46,335.33c.43-.16,1.47.11,2.04,0,4.38,10.85-6.73,1.8-2.04,0Z"/>
              <path class="cls-8" d="M64.12,328.01c2.72-.6,3.47,4.08,1.63,4.48-2.05.45-4.5-3.85-1.63-4.48Z"/>
              <path class="cls-8" d="M64.94,317.01c2.53-.85,3.75,2.78,2.04,3.26-2.42.68-4.18-2.54-2.04-3.26Z"/>
              <path class="cls-8" d="M72.67,319.05c3.78-.38.8,4.17-1.22,3.26-1.59-.71.02-3.13,1.22-3.26Z"/>
            </g>
          </g>
          <g>
            <path class="cls-10" d="M148.2,267.34c2.31.24,8.42,2.86,9.77,4.89.83,1.24,1,3.04,1.22,4.48,1.49,9.68-1.85,21.09-1.22,30.94-.33.47-.37.34-.81.61.21,8.77-2.57,18.09-2.85,26.67h-.41c.03-.72.16-3.81-.2-4.07-4.09-.52-5.23,6.01-.61,6.11-.81,19.38-1.7,40.2.81,59.44.18,1.38.6,2.69.81,4.07l-15.06.41c-.06-2.01-.37-4.17-.41-6.11-.35-16.99.9-35.92-.41-52.73-.84-10.79-4.73-23.13-6.51-34-.87-5.28-2.12-10.97-2.44-16.29-.24-4.06-.39-6.94.81-10.99.4-1.33,3.63-7.64,4.48-8.55.12-.13,1.47-1.05,2.44-2.04.09-.09,1.46,0,2.44-1.02s1.56-3.47,2.85-4.28c.05.92.41,2.09.2,3.26.36.22,4.56-.87,5.09-.81Z"/>
            <g>
              <path class="cls-8" d="M157.56,279.56c2.08,8.14-3.22,9.63-10.18,9.77-2.79.06-7.69.2-8.96-3.05-.12-.31-.88-6.19-.81-6.51.12-.56,4.81-5.96,5.5-6.31,5.27-2.66,12.93.14,14.45,6.11Z"/>
              <path class="cls-6" d="M157.56,279.56c-1.52-5.97-9.19-8.77-14.45-6.11-.69.35-5.38,5.75-5.5,6.31-.07.32.7,6.21.81,6.51,1.27,3.26,6.17,3.11,8.96,3.05l.41,3.26c-1.81.04-4.58-2.34-6.92.81-.41-.49-1.45-.9-2.04-1.22.13-4.49-3.84-8.12-4.48-.41-1.34-3.28,1.09-6.91,2.04-9.98s-.37-6.1,4.28-8.75,19.23-1.6,16.9,6.51Z"/>
              <path class="cls-8" d="M147.79,292.58c1.65-.04,3.25-1.41,5.09-.81,4.57,1.47-2.68,11.61-7.33,8.55-1.76-1.15-.23-3.94-.61-4.68-.16-.3-1.84.5-3.05-.2s-.93-1.93-1.02-2.04c2.34-3.16,5.12-.77,6.92-.81Z"/>
              <path class="cls-8" d="M143.52,306.02c4.51.03,4.6,11.3-2.44,8.96-2.86-2.05-1.85-8.99,2.44-8.96Z"/>
              <path class="cls-8" d="M143.52,317.01c1.03-.37,5.01.96,5.5,1.83,2.37,4.31-6.19,5.63-6.92,3.66-.38-1.02.14-5.04,1.43-5.5Z"/>
              <path class="cls-8" d="M144.33,326.78c3.56-.46,5.6,6.48,1.22,7.33-5.12,1-3.79-7-1.22-7.33Z"/>
              <path class="cls-8" d="M150.03,310.09c1.23-.24,5.5,3.92,5.5,4.28,0,1.89-7.42,2.61-8.14.81-.38-.94,1.83-4.93,2.65-5.09Z"/>
              <path class="cls-8" d="M138.83,292.18c-.07,2.25-.52,4.69-3.46,3.66-1.97-.68-1.13-2.69-1.02-4.07.63-7.71,4.61-4.09,4.48.41Z"/>
              <path class="cls-8" d="M137.41,298.28c2.98-1.14,6.46.73,5.5,4.28-3.36,4.17-9.66-2.68-5.5-4.28Z"/>
              <path class="cls-8" d="M146.77,336.15c2.35-.52,4.03,3.92,3.46,5.9-1.4,4.86-9.46-4.59-3.46-5.9Z"/>
              <path class="cls-8" d="M152.88,301.54c6.26-2.18,4.27,7.39-.41,6.11-2.2-.61-1.21-5.54.41-6.11Z"/>
              <path class="cls-8" d="M153.9,334.93c0,.11-.8,1.7-.81,2.04-4.62-.09-3.48-6.63.61-6.11.36.27.23,3.36.2,4.07Z"/>
              <path class="cls-8" d="M152.07,322.71c2.7-.64,3.98,4.07.81,4.48s-2.5-4.08-.81-4.48Z"/>
            </g>
          </g>
          <g>
            <path class="cls-12" d="M101.78,399.26c.46,1.61,3.68,8.76,3.05,9.77l-16.69-1.22c-1.03-.46-.85-6.88-1.02-8.14l14.66-.41Z"/>
            <g>
              <path class="cls-3" d="M103.82,308.06c-.62,7.77-6.8,14.71-8.55,21.78-3.38,13.68,1.74,50.47,5.29,64.94.36,1.48.81,3.01,1.22,4.48l-14.66.41c-.23-1.75-.62-3.52-.81-5.29-.57-5.18-.53-10.53-1.22-15.68-2.29-17.05-7.76-34.64-5.29-51.91,2.08-3.38,7.68-13.88,9.36-15.88s6.64-3.9,7.94-6.92l6.72,4.07Z"/>
              <path class="cls-1" d="M90.18,311.72c2.57-.9,4.82,2.76,2.85,4.48-2.37,2.07-5.44-3.57-2.85-4.48Z"/>
              <path class="cls-1" d="M83.26,327.6c2.78-.9,2.87,3.99.81,4.48-2.76.65-2.17-4.04-.81-4.48Z"/>
              <path class="cls-1" d="M87.33,322.31c1.33-.14,3.45,3.25,1.63,4.07-2.49,1.12-4.41-3.79-1.63-4.07Z"/>
              <path class="cls-1" d="M92.62,319.46c2.16-.86,3.79,1.44,2.04,2.85s-4.82-1.74-2.04-2.85Z"/>
            </g>
          </g>
        </g>
        <g>
          <path class="cls-12" d="M144.13,14.91c-.99.03-3.95-.49-4.89-.81-10.69-3.7-2.31-20.03,8.75-11.81,5.09,3.79,1.56,12.47-3.87,12.62Z"/>
          <path class="cls-12" d="M113.59,14.09c-.65.21-5.24.85-5.7.81-8.05-.61-8.45-13.2.2-14.25,11.96-1.45,11.79,11.42,5.5,13.44Z"/>
          <path class="cls-2" d="M94.46,92.27c-.22-.79-.61-1.6-.81-2.44,11.44-6.58,14.97,10.3.81,2.44Z"/>
          <path class="cls-2" d="M155.53,91.45c-.37.76-1.02,2.43-1.63,2.85-2.41,1.66-10.38,1.59-8.14-3.05,1.58-3.27,7.45-1.7,9.77.2Z"/>
          <g>
            <path class="cls-5" d="M149.83,103.67c-.33.52-1.15,3.53-1.63,4.48-1.74,3.44-3.88,7.91-6.11,10.99-4.72,6.51-11.77,10.03-19.95,9.36-12.54-1.02-20.73-17.43-24.84-27.69,15.48-9.38,38.78-9.73,52.52,2.85Z"/>
            <path class="cls-4" d="M137.82,113.85l-.2,2.24c-5.79,7.49-19.26,7.65-25.65.81-.22-1.72,3.49,2.06,3.87,2.24,7.33,3.48,18.06,2.87,21.99-5.29Z"/>
            <path class="cls-12" d="M129.67,102.85c4.92-.87,1.64,5.72-1.63,4.48-2.44-.92.13-4.21,1.63-4.48Z"/>
            <path class="cls-12" d="M116.24,102.04c5.86-.94,3.36,11.12-1.43,1.02.06-.2,1.33-1,1.43-1.02Z"/>
          </g>
          <g>
            <path class="cls-3" d="M96.08,43c-.67,1.01-2.75,5.61-3.26,6.92-5.7-5.95-11.23-15.16-20.15-16.29-3.98-.5-8.43.13-12.42.41-.16.01-2.99-1.29-3.26.2,4.82,9.61,14.61,26.74,27.48,25.04.26-.03,2.18-.48,1.83-1.22,1.6-.08,2.92-.64,4.48-.81-.03,1.68-.41,3.18-.41,4.07-20.54,6.44-31.18-12.5-36.24-29.11,15.23-7.08,31.99-3.09,41.94,10.79Z"/>
            <path class="cls-5" d="M92.83,49.92c-.41,1.06-.2,2.46-1.22,3.26-.65-2.52-9.52-11.8-12.42-12.62-13.05-3.69-5.71,12.49,3.66,13.84,2.84.41,5.92-.33,8.75-.41.25,1.81-.8,2.61-.81,3.26-1.55.18-2.88.74-4.48.81-16.41.8-19.34-12.34-26.06-24.02,3.98-.28,8.44-.91,12.42-.41,8.92,1.13,14.45,10.33,20.15,16.29Z"/>
            <path class="cls-13" d="M91.61,53.18c.06.22-.04.56,0,.81-2.83.08-5.91.82-8.75.41-9.37-1.36-16.72-17.53-3.66-13.84,2.9.82,11.77,10.1,12.42,12.62Z"/>
            <path class="cls-10" d="M60.26,34.04c6.71,11.68,9.65,24.82,26.06,24.02.35.74-1.57,1.19-1.83,1.22-12.87,1.7-22.66-15.43-27.48-25.04.26-1.49,3.09-.19,3.26-.2Z"/>
          </g>
          <g>
            <path class="cls-3" d="M161.23,59.69c-.04-.88-1.35-3.96,0-3.66.93.57,6.41.89,7.74.81.3,1.01,1.05.82,1.83.81,14.29-.05,19.85-18.48,23.41-29.52-.14-.94-2.99.12-3.66.2-5.53.65-14.3,1.91-18.53,5.7-2.69,2.41-10.43,14.85-11.2,18.32-1.85-2.43-1.92-6.19-3.26-8.96,6.94-15.33,22.79-21.66,38.68-17.71-.99,19.94-11.58,40.82-35.01,34Z"/>
            <path class="cls-10" d="M168.96,56.84c15.9-.94,18.36-15.95,21.58-28.5.68-.08,3.52-1.14,3.66-.2-3.56,11.04-9.12,29.47-23.41,29.52-.78,0-1.53.19-1.83-.81Z"/>
            <g>
              <path class="cls-5" d="M190.54,28.34c-3.22,12.56-5.68,27.56-21.58,28.5-1.33.08-6.81-.25-7.74-.81-1.5-.92-.72-2.26-.41-3.66.76-3.47,8.51-15.91,11.2-18.32,4.22-3.79,13-5.05,18.53-5.7Z"/>
              <path class="cls-13" d="M176.5,37.3c7.8-1.43,5.72,6.55,2.65,10.38s-9.33,5.86-14.05,5.5c.91-4.4,6.96-15.06,11.4-15.88Z"/>
            </g>
          </g>
          <g>
            <path class="cls-10" d="M113.59,14.09c2.28,5.47,2.27,14.65,9.57,15.88,12.53,2.11,12.24-7.07,16.08-15.88.93.32,3.9.84,4.89.81.21,3.97-2.66,15.55.2,17.91,4.66,3.84,9.04,1.91,13.23,10.59,1.34,2.76,1.41,6.53,3.26,8.96-.31,1.4-1.09,2.75.41,3.66-1.35-.3-.04,2.78,0,3.66.38,8.03-2.17,24.52-5.7,31.76-2.32-1.91-8.2-3.47-9.77-.2-2.24,4.64,5.73,4.72,8.14,3.05-.35,3.46-2.91,5.81-2.85,8.96-.31-.12-1.15.29-1.22.41-13.74-12.58-37.04-12.23-52.52-2.85-1.15-2.87-2.02-5.57-2.85-8.55,14.16,7.85,10.62-9.02-.81-2.44-2.27-9.28-3.21-18.93-3.26-28.5,0-.9.37-2.39.41-4.07.01-.65,1.06-1.45.81-3.26-.04-.26.06-.59,0-.81,1.02-.8.81-2.19,1.22-3.26.51-1.31,2.58-5.91,3.26-6.92,2.56-3.82,11.76-9.41,12.62-12.01,1.32-3.99-.78-11.74-.81-16.08.46.03,5.06-.61,5.7-.81Z"/>
            <g>
              <path class="cls-8" d="M125.6,31.6c2.86-.35,11.1,2.77,11.6,5.5.32,1.7-4,7.23-4.89,9.36-.64,1.55-.13,4.49-1.22,6.11-1.82,2.69-8.12,2.55-9.77-.41-.29-.53-2.38-10.84-2.44-11.81-.3-4.58,1.96-8.17,6.72-8.75Z"/>
              <path class="cls-8" d="M130.9,61.73c5.38-.97,6.44,6.57.81,5.7-3.34-.52-4.18-5.1-.81-5.7Z"/>
              <path class="cls-8" d="M114.2,55.22c4.08-.98,4.74,5.91,1.22,6.51-4.39.75-4.02-5.84-1.22-6.51Z"/>
              <path class="cls-8" d="M140.26,50.74c9.58-2.35.97,9.93-2.65,2.24.06-.3,2.23-2.14,2.65-2.24Z"/>
              <path class="cls-8" d="M99.95,60.92c2.61-.46,5.21,1.2,6.31,3.46-3.39.47-5.75-1.54-9.16.2l-.2-1.43c.2-.51,2.57-2.15,3.05-2.24Z"/>
              <path class="cls-8" d="M148,61.73c3.31-.78,5.37,1.62,6.72,4.28l-8.35-1.43c-1.56-.63.75-2.64,1.63-2.85Z"/>
              <g>
                <path class="cls-7" d="M105.04,85.35c6.4-4.42,3.95-17.3-4.48-16.69-.13-1.28,3.44-.91,3.87-.81,7.6,1.67,8.75,14.58.61,17.51Z"/>
                <g>
                  <path class="cls-11" d="M100.56,68.65c8.43-.61,10.88,12.27,4.48,16.69-7.94,2.86-10.93-1.48-11.4-8.75-.15-2.32,2.34-1.93-2.04-4.48.63-1.38,1.8.94,3.05.61,2.71-.72-1.49-2.96,0-4.07,1.6,3.64,2.68.23,5.9,0Z"/>
                  <path class="cls-7" d="M98.73,71.91c3.87-1.06,3.06,4.91,0,4.07-1.49-.41-1.86-3.56,0-4.07Z"/>
                </g>
              </g>
              <g>
                <path class="cls-7" d="M147.79,69.47c-7.11,1.85-9.19,10.46-4.48,15.88-7.74-4.39-5.21-17.01,4.48-15.88Z"/>
                <g>
                  <path class="cls-11" d="M143.31,85.35c-4.71-5.42-2.63-14.03,4.48-15.88,3.73.43,5.19,2.91,7.94.81l-1.43,3.05h4.07c-4.34,2.35-2.17,4.63-3.26,8.55-1.62,5.86-7.28,6.03-11.81,3.46Z"/>
                  <path class="cls-7" d="M150.03,73.54c3.11-1.01,4,3.75,1.22,4.07-2.18.25-3.15-3.44-1.22-4.07Z"/>
                </g>
              </g>
            </g>
          </g>
        </g>
      </g>
    </g>
  </g>
</svg>