<?xml version="1.0" encoding="UTF-8"?>
<svg id="katman_2" data-name="katman 2" xmlns="http://www.w3.org/2000/svg" viewBox="0 0 144.36 174.74">
  <defs>
    <style>
      .cls-1 {
        fill: #f7a316;
      }

      .cls-2 {
        fill: #a3500a;
      }

      .cls-3 {
        fill: #fdc12f;
      }

      .cls-4 {
        fill: #fff;
      }

      .cls-5 {
        fill: #c45913;
      }

      .cls-6 {
        fill: #ffe497;
      }

      .cls-7 {
        fill: #f7a18e;
      }

      .cls-8 {
        fill: #623200;
      }

      .cls-9 {
        fill: #f68e0d;
      }
    </style>
  </defs>
  <g id="katman_2-2" data-name="katman 2">
    <g id="_Üretken_Nesne" data-name="Üretken Nesne">
      <g>
        <path class="cls-6" d="M89.87,100.57c-.25,3.41-2.14,7.17-2.39,10.28-1.4,1.03-1.97,3.08-3.11,4.42-6.36,7.48-19.15,6.97-25.1-.72-1.23-1.59-1.78-3.7-3.11-5.14-.14-3.08-1.5-6.19-1.67-9.32-1.69-30.72,37.59-30.1,35.37.48Z"/>
        <path class="cls-8" d="M62.98,107.26c.46-.09,2.98,3.64,3.82,4.3,2.97,2.33,6.64,2.63,9.8.48,1.15-.78,3.53-4.48,3.82-4.54,3.23-.72-2.12,5.21-2.87,5.74-5.85,4.12-12.72.7-15.18-5.38.18-.11.48-.58.6-.6Z"/>
        <path class="cls-8" d="M78.03,87.43c3.9-.81,3.12,6.58.72,7.17-3.85.94-3.46-6.6-.72-7.17Z"/>
        <path class="cls-8" d="M64.89,87.43c4.09-.67,4.07,9.54-.24,6.69-1.7-1.12-2.27-6.28.24-6.69Z"/>
      </g>
      <g>
        <path class="cls-5" d="M67.64,174.43c-1.6.44-5.31.4-6.93,0-7.22-1.79-1.62-10.92,2.27-11.71,2.48-.51,8.83,1.34,9.44,4.18s-2.04,6.78-4.78,7.53Z"/>
        <path class="cls-5" d="M88.91,135.95c-3.13-.37-6.66-2.18-8.37-4.9-4.27-6.8,2.28-11.06,7.17-14.7.19,6.5.83,13.09,1.2,19.6Z"/>
        <path class="cls-5" d="M90.1,153.39c.28,4.77.49,9.56.72,14.34-6.09-.12-14.19-1.54-9.8-9.44,1.88-3.38,5.27-5.07,9.08-4.9Z"/>
        <path class="cls-5" d="M88.91,137.38c.24,4.21.47,8.46.72,12.67-6.09,3.48-9.51.16-8.84-6.33.53-5.21,2.81-7.41,8.13-6.33Z"/>
        <path class="cls-5" d="M52.34,166.78c.44-7.07.72-14.19,1.2-21.27,8.07,4.89,9.25,17.93-1.2,21.27Z"/>
        <path class="cls-5" d="M53.78,143.59c.3-4.46.68-8.93.96-13.38,9.14.81,10.01,15.85-.96,13.38Z"/>
        <path class="cls-5" d="M87,174.66c-4.83.16-9.74,0-14.58,0,.71-2.38,3-5.82,5.62-6.21,2.98-.45,10.8,1.98,8.96,6.21Z"/>
        <path class="cls-9" d="M87.48,110.85c-.03.31.01.64,0,.96-1.31,1.14-1.57,3.19-2.63,4.66-5.81,8.05-21.14,7.53-26.29-.96-.95-1.57-1.06-3.83-2.39-5.14,0-.32.01-.64,0-.96,1.33,1.44,1.88,3.55,3.11,5.14,5.95,7.69,18.74,8.2,25.1.72,1.14-1.34,1.7-3.39,3.11-4.42Z"/>
        <path class="cls-5" d="M54.97,127.82c.23-3.74.54-7.5.72-11.23,5.85,3.01,8.7,11.8-.72,11.23Z"/>
        <g>
          <path class="cls-3" d="M87.48,111.81c-.06,1.34.2,3.09.24,4.54-4.89,3.64-11.44,7.89-7.17,14.7,1.71,2.72,5.24,4.52,8.37,4.9.03.46-.02,1.05,0,1.43-5.31-1.08-7.59,1.12-8.13,6.33-.66,6.49,2.75,9.81,8.84,6.33.06.96.4,2.11.48,3.35-3.81-.17-7.2,1.52-9.08,4.9-4.39,7.9,3.71,9.32,9.8,9.44.11,2.25.7,4.52.48,6.81-.17.24-3.66.1-4.3.12,1.84-4.24-5.98-6.66-8.96-6.21-2.62.39-4.9,3.83-5.62,6.21-1.53,0-3.31.2-4.78-.24,2.74-.75,5.39-4.68,4.78-7.53s-6.96-4.69-9.44-4.18c-3.89.8-9.49,9.92-2.27,11.71l-8.96.24c-.57-.4.53-6.86.6-7.89,10.45-3.34,9.27-16.38,1.2-21.27.04-.64.19-1.24.24-1.91,10.96,2.46,10.09-12.57.96-13.38.05-.8.19-1.63.24-2.39,9.42.57,6.57-8.22.72-11.23.1-1.98.49-4.32.48-6.21,1.33,1.31,1.44,3.56,2.39,5.14,5.15,8.48,20.48,9.01,26.29.96,1.06-1.47,1.31-3.52,2.63-4.66Z"/>
          <path class="cls-5" d="M67.52,143.35c2.39-.17,3.82.53,5.38,2.27,3.12,3.48,5.67,9.26,3.35,13.62-5.57,10.45-17.67-7.36-14.34-13.38.66-1.2,4.32-2.42,5.62-2.51Z"/>
          <path class="cls-5" d="M66.56,124.47c4.77-1.19,12.09,5.47,11.35,10.16-.51,3.27-6.24,6.88-9.44,6.33-5.17-.88-6.29-15.4-1.91-16.49Z"/>
        </g>
      </g>
      <g>
        <path class="cls-1" d="M81.5,30.31c3.02.9,9.22,4.61,11.23,7.05.17.21.32,1.64,1.43,1.55,1.32,2.29,3.94,4.81,5.14,7.41,10.44-4.22,12.63-15.35,24.86-16.49,2.33-.22,19.67.39,20.2,1.79-5.5,18.58-20.3,31.36-40.39,24.02-.09-.29-.22-.91-.24-.96,12.57,2.35,27.85-4.12,33.46-15.89,1.74-3.65.9-3.99-2.99-4.42-12.47-1.4-16.8,4.67-24.62,12.67l-8.25,3.82c-11.11-9.77-25.02,8.93-17.69,21.87,2.92,5.15,11.32,8.43,16.01,3.7-1.66,4.16-2.45,9.08-4.3,13.5-1.54,3.68-3.64,7.12-5.5,10.64,2.22-30.58-37.07-31.19-35.37-.48-4.83-7.25-7.82-15.52-10.04-23.9,5.91,6.37,16.67-.1,17.69-7.53,1.22-8.97-4.19-22.69-15.42-19.72-.33.09-3.8,1.74-3.94,1.91-2.68-1.45-5.74-2.25-8.25-4.06-4.65-3.37-6.86-8.94-12.91-11.23-2.41-.91-14.7-2.29-15.42.12-.42,1.42,3.5,7.11,4.54,8.37,7.3,8.86,18.94,12.08,30.11,10.87-.22.22-.44.55-.72.72-.92.53-5.38,1.52-6.57,1.67C14.99,59.66,5.44,47.65,0,31.62c.52-1.39,18.13-2.02,20.43-1.79,11.86,1.16,14.38,12.41,24.62,16.49,1.78-2.79,3.36-5.43,5.62-7.89,3.13-3.42,7.71-6.54,12.19-7.89,5.09-1.54,13.55-1.76,18.64-.24Z"/>
        <path class="cls-6" d="M101.34,50.86c.91.8,1.94,2.69,2.39,3.82.02.05.15.66.24.96.59,1.94.99,4.16.96,6.21-5.6-.01-17.48-5.09-18.4,4.9-1.16,12.53,18.68,9.84,13.74-2.75,1.4,1.06,2.41,1.92,4.18,2.39-1.11,1.3-1.21,3.31-1.91,4.9-.77,1.75-2.22,3.5-2.87,5.14-4.69,4.73-13.1,1.44-16.01-3.7-7.34-12.94,6.58-31.64,17.69-21.87Z"/>
        <path class="cls-6" d="M44.45,76.19c-2.23-2.41-3.04-6.95-4.54-9.8,1.88-.53,3.38-1.67,4.66-3.11-1.96,3.24-1.68,7.79,1.43,10.28,6.5,5.2,15.28-3.27,10.4-10.4-4.14-6.04-11.11-1.36-16.97-1.31-.1-1.81.48-3.44.96-5.14.08-.28.49-1.23-.24-1.08.28-.16.5-.5.72-.72.76-.76,1.45-2.47,2.15-3.47.02-.03-.44-.35-.24-.6.14-.17,3.61-1.82,3.94-1.91,11.22-2.98,16.64,10.74,15.42,19.72-1.01,7.43-11.78,13.9-17.69,7.53Z"/>
        <g>
          <path class="cls-2" d="M91.78,17.16c-1.93.21-4.74-.25-6.45-1.2-9.36-5.15-2.69-21.05,9.92-14.34,7.64,4.06,4.33,14.68-3.47,15.54Z"/>
          <path class="cls-2" d="M59.03,15.97c-1.73.99-4.49,1.4-6.45,1.2-8.38-.9-11.2-12.46-2.51-16.01,12.44-5.08,17.69,9.81,8.96,14.82Z"/>
          <path class="cls-9" d="M59.03,15.97l3.82,14.58c-4.48,1.35-9.06,4.47-12.19,7.89,1.92-6.88,2.55-14.13,1.91-21.27,1.96.21,4.72-.2,6.45-1.2Z"/>
          <path class="cls-9" d="M91.78,17.16c-.27,6.12-.68,16.42,2.39,21.75-1.12.09-1.26-1.35-1.43-1.55-2.01-2.44-8.21-6.15-11.23-7.05l3.82-14.34c1.71.94,4.53,1.41,6.45,1.2Z"/>
          <path class="cls-7" d="M42.78,50.86c-.2.24.26.57.24.6-.7,1-1.39,2.71-2.15,3.47-11.18,1.21-22.81-2.01-30.11-10.87-1.04-1.26-4.96-6.94-4.54-8.37.71-2.4,13-1.03,15.42-.12,6.05,2.29,8.26,7.86,12.91,11.23,2.51,1.82,5.56,2.61,8.25,4.06Z"/>
          <path class="cls-7" d="M103.73,54.68c-.45-1.13-1.48-3.02-2.39-3.82l8.25-3.82c7.82-8,12.14-14.06,24.62-12.67,3.89.44,4.73.77,2.99,4.42-5.61,11.78-20.89,18.25-33.46,15.89Z"/>
        </g>
        <g>
          <path class="cls-8" d="M39.91,66.4c-1.18.33-3.49,1.08-4.3-.12,2.08-.55,4.53-.85,5.86-2.75-2.36-.03-5.19-.46-7.05-2.03,1.74-.08,3.22.37,5.02.36,5.86-.04,12.83-4.73,16.97,1.31,4.89,7.13-3.9,15.6-10.4,10.4-3.11-2.49-3.4-7.03-1.43-10.28-1.28,1.44-2.78,2.58-4.66,3.11Z"/>
          <path class="cls-4" d="M51.27,62.09c3.89-1.09,3.91,5.56-.24,4.3-1.79-.54-1.34-3.86.24-4.3Z"/>
        </g>
        <g>
          <path class="cls-8" d="M104.92,61.85c.69,0,4.81-.67,4.78-.12-2.07,1.18-4.39,1.88-6.81,1.79,1.34,1.89,3.84,2.13,5.86,2.75-.94,1.11-3.05.45-4.3.12-1.77-.47-2.78-1.33-4.18-2.39,4.94,12.59-14.9,15.28-13.74,2.75.92-9.99,12.8-4.91,18.4-4.9Z"/>
          <path class="cls-4" d="M96.68,62.81c2.86-.59,3.99,3.7,1.43,4.3-3.37.79-3.85-3.8-1.43-4.3Z"/>
        </g>
      </g>
    </g>
</g>
</svg>