<?xml version="1.0" encoding="UTF-8"?>
<svg id="katman_2" data-name="katman 2" xmlns="http://www.w3.org/2000/svg" viewBox="0 0 512 434.74">
  <defs>
    <style>
      .cls-1 {
        fill: #130c10;
      }

      .cls-2 {
        fill: #db8b43;
      }

      .cls-3 {
        fill: #b9c208;
      }

      .cls-4 {
        fill: #5d3516;
      }

      .cls-5 {
        fill: #b58d61;
      }

      .cls-6 {
        fill: #303140;
      }

      .cls-7 {
        fill: #709f2e;
      }

      .cls-8 {
        fill: #f8e950;
      }

      .cls-9 {
        fill: #f7ae73;
      }

      .cls-10 {
        fill: #a55f26;
      }

      .cls-11 {
        fill: #f8c583;
      }

      .cls-12 {
        fill: #fff;
      }

      .cls-13 {
        fill: #90b024;
      }

      .cls-14 {
        fill: #d4e9df;
      }

      .cls-15 {
        fill: #79441f;
      }

      .cls-16 {
        fill: #d37931;
      }

      .cls-17 {
        fill: #fed504;
      }

      .cls-18 {
        fill: #20170f;
      }

      .cls-19 {
        fill: #f9cdc9;
      }

      .cls-20 {
        fill: #e9e8e4;
      }

      .cls-21 {
        fill: #fee0bc;
      }

      .cls-22 {
        fill: #bc9f70;
      }

      .cls-23 {
        fill: #a1a61d;
      }

      .cls-24 {
        fill: #d1d535;
      }

      .cls-25 {
        fill: #4d2c22;
      }
    </style>
  </defs>
  <g id="Layer_1" data-name="Layer 1">
    <g id="_Üretken_Nesne" data-name="Üretken Nesne">
      <g>
        <g>
          <path class="cls-7" d="M121.2,345.75c-4.76,2.72-12.57,2.23-18.41,3.07,4.73-13.42-3.35-7.97-8.29-9.82-1.77-.67,1.3-6.01-1.84-7.98-2.53-1.58-6.15.18-6.75,0-.52-.15-4.29-4.07-6.14-4.3-3.47-.42-5.38,2.37-6.14,2.45-1.82.21-5.32-2.41-8.59-1.84s-8.02,8.01-11.35,9.51c.01,5.18-3,3.18-4.3,5.52s1.46,7.06,1.23,7.36c-.82,1.07-9.34-.57-1.84,8.9-5.08,1.13-13.91,1.98-17.8,3.07-11.64-3.97-6.28-13.08,3.07-15.04-10.53-6.79-1.59-15.29,7.98-14.12-4.39-4.57-4.39-13.84,3.07-14.42,2.64-.21,4.26.63,6.44,1.84-1.81-17.62,16.99-12.92,21.48-1.23,2.54-7.85,9.82-11.13,17.8-8.59,7.64,2.43,6.73,12.44,7.36,12.89.82.58,15.37-5.7,10.43,9.82,9.42-2.99,16.63,3.37,12.58,12.89Z"/>
          <path class="cls-13" d="M102.79,348.82c-18.01,2.6-36.25,5.88-54.01,9.82-7.5-9.47,1.02-7.83,1.84-8.9.24-.31-2.58-4.91-1.23-7.36s4.31-.34,4.3-5.52c3.33-1.5,8.23-8.97,11.35-9.51s6.78,2.05,8.59,1.84c.76-.09,2.67-2.88,6.14-2.45,1.85.23,5.62,4.14,6.14,4.3.6.18,4.22-1.58,6.75,0,3.14,1.96.07,7.31,1.84,7.98,4.93,1.85,13.02-3.6,8.29,9.82Z"/>
        </g>
        <g>
          <path class="cls-7" d="M470.4,313.83c.67,1.35.35,7.55.92,7.98,8.56-6.61,15.43,3.9,8.9,11.35,9.3-.35,17.55,7.52,7.36,14.12,15.98,4.47,9.7,16.53-4.91,14.42-1.46-.53-5.16-.74-6.75-1.23,8.29-10.57-2.03-10.62-2.45-11.97-.06-.21,1.15-2.53.61-4.3-.63-2.07-2.92-2.3-3.68-3.68-.31-.57.31-3.06,0-3.68-.47-.93-11.49-7.57-12.58-7.67-2.97-.27-6.54,2.43-7.36,2.45-1.77.06-4.71-2.72-8.59-1.84-1.47.33-3.72,3.59-4.3,3.68-3.47.56-9.47-5.86-7.06,7.06-.55,1.93-4.4-.82-6.44-.31-3.45.87-2.95,6.58-1.53,9.21-6.12-.99-12.27-2.23-18.41-3.07-2.73-10.15,1.86-14.58,11.97-13.5-5.2-12.44,9.12-8.63,9.82-9.21.28-.23.43-5,1.53-7.06,4.28-7.97,20.88-6.98,21.79,3.38,2.11-6.69,17.41-13.67,21.17-6.14Z"/>
          <path class="cls-13" d="M475.92,360.48c-17.34-5.33-35.48-8.14-53.39-11.05-1.42-2.63-1.91-8.33,1.53-9.21,2.04-.52,5.89,2.24,6.44.31-2.41-12.92,3.58-6.49,7.06-7.06.57-.09,2.82-3.35,4.3-3.68,3.89-.88,6.82,1.9,8.59,1.84.83-.03,4.4-2.73,7.36-2.45,1.1.1,12.11,6.74,12.58,7.67.31.63-.31,3.11,0,3.68.76,1.38,3.05,1.61,3.68,3.68.54,1.76-.68,4.09-.61,4.3.42,1.34,10.75,1.4,2.45,11.97Z"/>
        </g>
      </g>
      <g>
        <g>
          <path class="cls-14" d="M470.4,313.83c-3.76-7.54-19.06-.55-21.17,6.14-.9-10.36-17.51-11.35-21.79-3.38-1.11,2.06-1.26,6.83-1.53,7.06-.7.58-15.02-3.23-9.82,9.21-10.1-1.08-14.69,3.35-11.97,13.5-5.88-.8-11.86-1.52-17.8-1.84,3.46-9.99,7.44-19.57,11.05-29.46.48-1.32,3.36-6.62,3.07-7.67-8.2-6.56-17.77-15.2-22.71-24.55-13.65-25.81,10.93-59.32-6.14-94.21,11.41-7.09,24.78-4.46,32.53,6.44,12.87,18.11-3.74,56.71,14.73,81.01,13.52,17.79,38.36,19.13,51.55.61-41.32-2.31-18.45-52.5-19.64-78.56-2.46-54.14-62.29-68.84-87.76-22.4-15.61-19.67-36.86-20.97-60.14-19.03-11.86.99-31.77,5.99-42.65,4.3-7.01-1.09-6.1-4.42-8.9-9.21,12.59-51.83-16.84-125.22-76.71-127.04-.58-1.1-4.02-5.47-4.91-6.14,80.44-38.44,177.3-14.55,240.27,45.41,66.52,63.35,92.52,162.47,60.45,249.78Z"/>
          <g>
            <path class="cls-12" d="M335.69,82.46c12.04-.52,8.86,10.93,9.82,11.66,2.8-5.08,11.75-4.07,13.81.92,1.31,3.18-.25,8.24,0,8.59,1.24,1.73,8.56-1.69,6.75,10.43-1.38,9.28-12.12,8.29-19.33,8.9-8.19.7-42.31,2.17-48.48.61-7.25-1.83-12.44-29.33,3.38-21.79-2.15-5.07.53-11.55,5.83-13.19,1.56-.48,4.11.73,4.3.61.33-.22.75-5.35,4.3-6.14,5.28-1.17,10.2,4.39,11.05,4.3.51-.05,4.16-4.72,8.59-4.91Z"/>
            <g>
              <path class="cls-17" d="M401.97,90.44c25.09-4.51,25.68,35.35.61,31.3-16.44-2.65-15.74-28.58-.61-31.3Z"/>
              <path class="cls-8" d="M389.7,112.54c1.58.2.48,3.8-1.23,3.68-2.64-.18-.66-3.92,1.23-3.68Z"/>
              <path class="cls-8" d="M400.74,122.35c4.08-1.82.36,6.11-.92,2.76-.22-.56.62-2.63.92-2.76Z"/>
              <path class="cls-8" d="M387.24,106.4c3.94.18-.83,4.69-2.15,2.15-.42-.8,2-2.16,2.15-2.15Z"/>
              <path class="cls-8" d="M393.99,119.29c4.21.38.93,2.79-.61,4.3l.61-4.3Z"/>
              <path class="cls-8" d="M389.7,92.9l2.76,2.15c-1.16,2.84-4.18-.03-2.76-2.15Z"/>
              <path class="cls-8" d="M387.24,99.65c2.31-1.45,2.95,2.76,1.23,3.07-1.07.19-2.06-2.55-1.23-3.07Z"/>
              <path class="cls-8" d="M408.11,122.97c1.06,0,1.5,3.68,0,4.3-.47-.65-1.53-4.28,0-4.3Z"/>
              <path class="cls-8" d="M411.18,86.15c1.82.17.14,4.18-1.23,3.07-1.19-.97.36-3.15,1.23-3.07Z"/>
              <path class="cls-8" d="M414.25,121.13c1.71-.33,2.03,3.19,1.23,3.68l-2.15-2.76.92-.92Z"/>
              <path class="cls-8" d="M395.83,88.6c.6.04,1.48,3.67,0,3.68-1.25,0-1.16-3.75,0-3.68Z"/>
              <path class="cls-8" d="M403.2,85.53c.62-.09,2.48,2.8.61,3.07-1.65.24-1.37-2.96-.61-3.07Z"/>
              <path class="cls-8" d="M422.22,96.58c2.33-.31,1,2.71-.61,2.45-1.53-.24-.12-2.36.61-2.45Z"/>
              <path class="cls-8" d="M419.16,117.45c.56-.32,2.76.2,2.76.92.01,1.98-4.69.18-2.76-.92Z"/>
            </g>
          </g>
        </g>
        <path class="cls-14" d="M372.82,313.83c.31,9.85-3.92,19-6.14,28.23l-26.39-1.84c4.14-10.35,8.72-20.74,12.27-31.3.31-.91,3.09-6.09,3.07-6.44-.12-2.11-5.5-3.78-5.52-6.44,7.63,5.84,15.38,11.57,22.71,17.8Z"/>
        <g>
          <path class="cls-14" d="M120.58,72.03c-3.5,8.13-2.72,22.5-7.98,30.99.51,1.02,1.34.71,1.84.92,9.57,4.02,20.35,5.45,27.62,14.73-4.75-3.72-17.63-10.75-24.86-11.66-3.17-.4-5.87,1.95-7.98,0-19.63,19.81-5.65,48.78,22.71,45.41,1.84-.22,5.48-1.87,7.67-2.45,12.75-3.4,7.28-2.97,14.73-9.21,6.94-5.81,14.48-10.55,20.25-17.8-5.67,14.92-17.61,63.93-16.57,78.86.38,5.49,2.29,13.57,4.3,18.72-5,16.19-19.88,27.53-29.46,40.81-1.5,2.07-5.7,7.42-6.14,9.51-1.08,5.15,17.97,36.88,22.09,42.96,2.83,4.17,5.28,8.68,8.9,12.27,1.29.1,14.84-12.15,15.04-13.19.55-2.98-10.25-9.21-12.27-11.35-6.71-7.11-9.8-19.4-11.05-28.84l38.66-22.09c2.29,23.9,5.13,47.83,6.75,71.8.4,5.98,1,11.76,1.23,17.8l-74.87,5.52c4.05-9.52-3.16-15.88-12.58-12.89,4.94-15.52-9.61-9.24-10.43-9.82-.64-.45.27-10.46-7.36-12.89-7.98-2.54-15.26.74-17.8,8.59-4.49-11.69-23.29-16.39-21.48,1.23-2.18-1.21-3.81-2.05-6.44-1.84-30.07-79.18-12.94-172.35,42.35-235.97,7.56-8.7,19.3-17.04,25.78-24.86-1.52,6.52-3.02,19.15,7.36,14.73Z"/>
          <path class="cls-12" d="M89.59,187.41c7.1-2.1,10.36,6.65,11.05,6.75.15.02,1.84-1.8,2.45-1.84,10.97-.65,6.28,7.2,8.59,7.98.29.1,4.26-1.18,6.14-.61,4.96,1.51,5.95,19.12-7.36,20.25-4.34.37-43.25.06-45.41-.61-4.03-1.25-6.51-14.26-2.45-17.18,1.17-.85,3.97-.08,4.6-1.53.31-.71-.31-3.14,0-3.68,1.64-2.84,4.76-2.99,5.52-3.68.21-.19-.24-3.8,2.76-4.6,4.89-1.3,9.28,3.78,9.82,3.68.32-.06,3.15-4.57,4.3-4.91Z"/>
        </g>
        <path class="cls-14" d="M280.15,268.42l49.1,42.35c-1.08,1.04-7.18,24.69-8.59,28.84h-104.33c.72-5.74,1.55-11.47,2.45-17.18,3.14-19.88,6.81-40.03,13.81-58.92,15.29,3.4,31.86,5.46,47.56,4.91Z"/>
      </g>
      <g>
        <path class="cls-23" d="M26.07,364.16c-.45,18.02,33.23,24.96,47.56,28.23,95.48,21.79,269.83,22.24,365.16,0,15.26-3.56,45.1-9.95,48.18-27.62,57.53,24.6,1.93,43.46-27.92,50.94-72.26,18.11-166.51,20.47-241.19,18.41-45.66-1.26-174.5-9.31-209.28-35.6-21.29-16.09,1.84-29.03,17.49-34.37Z"/>
        <path class="cls-23" d="M314.52,357.41c-.86,2.09-1.58,5.43-2.45,7.36-1.13,2.5-10.79,14.95-7.67,16.57,1.34.7,18.38,1.61,19.64.61s3.06-11.77,3.99-14.12c1.38-3.48,3.47-6.91,4.91-10.43l29.46,3.07c-.68,1.98-1.38,6.2-1.84,7.36-.95,2.42-9.59,13.73-7.67,15.96,7.08,1.78,14.76,2.67,22.09,1.23,1.22-1.27,1.56-12.54,2.15-14.73s2.94-6.12,3.68-8.59c8.93,1.84,19.22,2.37,27.92,4.91,40.53,11.84-11.51,22.92-24.55,25.16-55.05,9.46-191.14,12.42-243.03-4.3-4.97-1.6-20.42-6.2-16.88-13.19,4.37-8.64,61.39-14.28,72.42-15.04-.14,3.04-.21,6.87-.61,9.82-.73,5.43-2.6,10.5-4.3,15.65.87,2.36,16.41,1.29,19.33,1.53l1.53-.92c1.06-2.03-.23-13.75,0-16.26s2.19-8.44,2.45-11.05l99.42-.61Z"/>
        <g>
          <path class="cls-24" d="M196.07,340.22c.24,6.36.9,12.61.61,19.03-11.03.75-68.04,6.4-72.42,15.04-3.54,7,11.91,11.6,16.88,13.19,51.9,16.71,187.98,13.75,243.03,4.3,13.04-2.24,65.08-13.32,24.55-25.16-8.71-2.54-19-3.07-27.92-4.91,1.86-6.22,3.4-11.05,5.52-17.18,5.94.32,11.92,1.04,17.8,1.84s12.29,2.08,18.41,3.07c17.91,2.9,36.05,5.72,53.39,11.05,1.59.49,5.29.69,6.75,1.23,1.17.43,3.31,2.65,4.3,3.07-3.08,17.66-32.92,24.06-48.18,27.62-95.33,22.24-269.68,21.79-365.16,0-14.34-3.27-48.02-10.21-47.56-28.23,1.4-.48,3.15-1.96,4.91-2.45,3.89-1.09,12.71-1.94,17.8-3.07,17.76-3.94,36-7.22,54.01-9.82,5.85-.84,13.65-.34,18.41-3.07l74.87-5.52Z"/>
          <g>
            <path class="cls-24" d="M73.63,364.16c9.3-2.76,10.91,11.25.61,8.59-4.21-1.09-4.24-7.52-.61-8.59Z"/>
            <path class="cls-24" d="M449.84,361.7c6.25-1.06,6.97,9.45,2.45,10.43-6.51,1.41-7.73-9.54-2.45-10.43Z"/>
            <path class="cls-3" d="M165.69,346.36c5.58-.6,6.83,6.64,3.07,9.82-4.96,1.04-6.5-4.4-5.22-8.29l2.15-1.53Z"/>
            <path class="cls-24" d="M95.11,355.57c4.83-1.2,7.05,6.67,2.45,9.21h-1.84c-2.06-1.75-2.86-4.56-2.76-7.06.59-.37,1.74-2.05,2.15-2.15Z"/>
            <path class="cls-3" d="M430.82,359.25c6.62-2.28,6.78,10.74,1.23,9.21-2.11-.58-4.37-8.12-1.23-9.21Z"/>
          </g>
        </g>
        <path class="cls-24" d="M366.68,342.06c-1.38,5.74-2.16,12.16-4.3,18.41l-29.46-3.07c2.35-5.74,5.07-11.45,7.36-17.18l26.39,1.84Z"/>
        <path class="cls-24" d="M320.65,339.61c-2.03,5.97-3.73,11.95-6.14,17.8l-99.42.61c.61-6.06.45-12.22,1.23-18.41h104.33Z"/>
      </g>
      <g>
        <path class="cls-15" d="M151.88,28.46c1.76.15,5.87-2.37,7.98-2.45-1.67,3.35-4.51,12.04-4.91,15.65-.43,3.91,1.11,13.81.61,15.96-.14.6-8.67,7.55-9.51,7.67-3.5.49-4.44-2.84-5.52-2.45-1.48.52-8.34,20.39-16.26,12.89.36-2.9-.29-6,.61-8.9-1.03,1.33-3.72,3.88-4.3,5.22-10.38,4.43-8.88-8.21-7.36-14.73,1.93-2.33,2.62-5.55,4.91-7.67-.53-1.93-14.49,1.76-9.82-9.21,2.19-5.15,13.09-5.85,17.8-6.44,1.78-.22,8.59.74,9.21-.92l-7.98-16.26c2.87-1.48,22.11,11.45,24.55,11.66Z"/>
        <path class="cls-10" d="M126.11,33.98l1.23-17.18,7.98,16.26c-.61,1.66-7.43.7-9.21.92Z"/>
        <path class="cls-15" d="M371.59,188.64c-1.38-2.82-4.15-3.74-4.3-3.99-1.02-1.72-1.71-5.64-4.3-8.9,25.47-46.43,85.3-31.73,87.76,22.4,1.19,26.06-21.68,76.24,19.64,78.56-13.19,18.52-38.03,17.18-51.55-.61-18.47-24.3-1.86-62.9-14.73-81.01-7.75-10.9-21.12-13.53-32.53-6.44Z"/>
        <path class="cls-4" d="M251.3,151.81c-18.88-32.21-19.62-63.56-50.63-90.83-5.91-5.19-13.23-8.47-18.72-12.89-4.49-3.62-2.23-6.83-3.68-11.97-.89-3.16-2.22-8.62-3.68-11.35,59.88,1.82,89.31,75.21,76.71,127.04Z"/>
        <path class="cls-21" d="M397.37,315.06c-3.61,9.89-7.58,19.47-11.05,29.46-2.13,6.13-3.66,10.96-5.52,17.18-.74,2.47-3.1,6.42-3.68,8.59l-16.57-2.45c.46-1.17,1.16-5.38,1.84-7.36,2.14-6.25,2.92-12.67,4.3-18.41,2.22-9.23,6.45-18.38,6.14-28.23l24.55,1.23Z"/>
        <path class="cls-2" d="M251.3,151.81c2.8,4.78,1.89,8.11,8.9,9.21,10.89,1.7,30.79-3.31,42.65-4.3l-36.52,8.59c-25.99,2.23-31.65-38.56-39.58-57.38-7.64-18.13-17.94-35.17-32.83-48.18-3.65-3.19-13.47-6.56-11.97-11.66,5.49,4.42,12.81,7.69,18.72,12.89,31.02,27.27,31.75,58.62,50.63,90.83Z"/>
        <path class="cls-10" d="M313.29,263.51c10.24,15.6,22.6,21.65,36.82,32.53.02,2.67,5.4,4.34,5.52,6.44.02.36-2.76,5.54-3.07,6.44-2.95-.32-22.22.78-23.32,1.84l-49.1-42.35c10.97-.39,22.35-2.95,33.14-4.91Z"/>
        <path class="cls-10" d="M163.54,221.78c4.26,9.68,8.76,14.36,16.26,21.48,2.48,2.35,7.9,3.99,8.29,7.36l-38.66,22.09-22.71-1.84c.44-2.09,4.64-7.44,6.14-9.51,9.57-13.28,24.46-24.62,29.46-40.81.03.08,1.19,1.15,1.23,1.23Z"/>
        <path class="cls-16" d="M163.54,221.78c-.03-.08-1.2-1.15-1.23-1.23-2.01-5.15-3.92-13.23-4.3-18.72-1.04-14.93,10.9-63.95,16.57-78.86,2.99-7.86,12.66-16.71,15.04-25.78,12.59,45.06-31.89,79.7-26.08,124.58Z"/>
        <path class="cls-21" d="M217.55,321.81c.24.24-.58,1.88,1.23.61-.9,5.71-1.73,11.44-2.45,17.18-.78,6.19-.62,12.35-1.23,18.41-.26,2.6-2.23,8.56-2.45,11.05h-16.57c.4-2.95.48-6.78.61-9.82.29-6.41-.37-12.67-.61-19.03-.23-6.03-.82-11.82-1.23-17.8,1.7-.23,2-3.5,3.07-4.6,5.88-6.1,14.69-.87,19.64,3.99Z"/>
        <path class="cls-16" d="M313.29,263.51c-10.79,1.96-22.17,4.52-33.14,4.91-15.7.55-32.27-1.51-47.56-4.91-7,18.88-10.66,39.03-13.81,58.92-1.8,1.27-.99-.38-1.23-.61,5.21-22.55,6.59-47.82,19.33-67.51,23.59,2.22,47.78,4.17,71.19-.61,1.99,2.9,3.95,5.93,5.83,8.9.03.05-.83.59-.61.92Z"/>
        <path class="cls-11" d="M154.34,140.77c-7.45,6.23-1.98,5.81-14.73,9.21,8.34-8.82,10.15-20.14,3.68-30.69,6.65,5.54,10.55,12.85,11.05,21.48Z"/>
        <path class="cls-11" d="M124.27,75.71c-1.19,9.49-5.5,19.8-9.82,28.23-.5-.21-1.33.1-1.84-.92,5.26-8.49,4.48-22.86,7.98-30.99.57-1.33,3.27-3.88,4.3-5.22-.91,2.9-.25,6-.61,8.9Z"/>
        <g>
          <path class="cls-2" d="M169.68,18.64c.89.66,4.33,5.04,4.91,6.14,1.46,2.74,2.79,8.19,3.68,11.35,1.45,5.14-.81,8.35,3.68,11.97-1.51,5.1,8.32,8.47,11.97,11.66,14.89,13.01,25.19,30.05,32.83,48.18,7.93,18.83,13.59,59.61,39.58,57.38l36.52-8.59c23.28-1.94,44.54-.65,60.14,19.03,2.58,3.26,3.28,7.18,4.3,8.9.15.25,2.92,1.17,4.3,3.99,17.07,34.88-7.51,68.39,6.14,94.21,4.94,9.35,14.5,17.99,22.71,24.55.29,1.05-2.59,6.35-3.07,7.67l-24.55-1.23c-7.33-6.23-15.07-11.96-22.71-17.8-14.22-10.88-26.58-16.93-36.82-32.53-.22-.33.65-.87.61-.92-1.88-2.96-3.84-6-5.83-8.9-23.41,4.78-47.61,2.84-71.19.61-12.74,19.68-14.12,44.96-19.33,67.51-4.95-4.86-13.76-10.09-19.64-3.99-1.07,1.11-1.37,4.37-3.07,4.6-1.62-23.97-4.46-47.9-6.75-71.8-.38-3.37-5.81-5.01-8.29-7.36-7.5-7.12-12-11.8-16.26-21.48-5.81-44.89,38.67-79.53,26.08-124.58-2.38,9.07-12.05,17.92-15.04,25.78-5.77,7.25-13.31,11.99-20.25,17.8-.49-8.63-4.4-15.94-11.05-21.48-.17-.14-1.04-.47-1.23-.61-7.27-9.28-18.04-10.71-27.62-14.73,4.32-8.43,8.63-18.74,9.82-28.23,7.92,7.5,14.78-12.37,16.26-12.89,1.09-.38,2.02,2.95,5.52,2.45.84-.12,9.38-7.07,9.51-7.67.49-2.15-1.05-12.05-.61-15.96.4-3.61,3.24-12.3,4.91-15.65.5-1,1.87-3.51,2.45-4.3,1.11-1.48,3.34-3.4,4.6-4.91.89.65,1.88,1.18,2.76,1.84Z"/>
          <g>
            <path class="cls-9" d="M309.3,184.95c14.34-1.12,17.48,14.76,6.75,17.8-17.8,5.04-21.99-16.61-6.75-17.8Z"/>
            <path class="cls-9" d="M314.82,161.63c6.02-1.17,22.52,1.06,21.79,9.51-.89,10.28-26.97,3.06-28.23-1.84-.87-3.39,3.39-7.08,6.44-7.67Z"/>
            <path class="cls-19" d="M167.53,27.84c3.67.02,5.78,23.15,4.6,26.08-.94,2.33-10.22,1.96-11.05,0-1.7-4.02,2.21-22.51,6.44-26.08Z"/>
            <path class="cls-9" d="M344.9,173.91c11.66-1.72,14.41,15.56-1.23,13.5-11.51-1.52-6.69-12.34,1.23-13.5Z"/>
            <path class="cls-9" d="M290.28,164.09c12.15-2.22,15.16,14.98.61,13.5-11.78-1.2-8.96-11.98-.61-13.5Z"/>
            <path class="cls-6" d="M152.5,83.69c2.37,5.12,1.87,13.07-4.91,14.12-2.5-.85-2.54-1.63-3.68-3.68-2.63-5.34,1.98-6.52,2.45-11.05,3.06-1.03,3.61-.98,6.14.61Z"/>
            <path class="cls-9" d="M329.55,188.64c3.88-1.56,8.4,1.23,5.22,5.83-4.7,6.79-9.55-4.09-5.22-5.83Z"/>
            <path class="cls-1" d="M147.59,97.81c6.78-1.05,7.28-9,4.91-14.12,6,3.78,3.31,16.91-4.91,14.12Z"/>
            <path class="cls-20" d="M146.36,83.08c-.48,4.53-5.08,5.7-2.45,11.05-.08-.14-1.64-.87-1.84-2.76-.36-3.32.87-7.13,4.3-8.29Z"/>
          </g>
        </g>
        <path class="cls-5" d="M149.43,272.72c1.25,9.45,4.33,21.73,11.05,28.84l-11.66,12.27c-4.12-6.08-23.18-37.81-22.09-42.96l22.71,1.84Z"/>
        <path class="cls-25" d="M148.81,313.83l11.66-12.27c2.03,2.15,12.82,8.37,12.27,11.35-.19,1.04-13.74,13.29-15.04,13.19-3.62-3.59-6.07-8.1-8.9-12.27Z"/>
        <path class="cls-25" d="M377.12,370.3c-.59,2.19-.93,13.45-2.15,14.73-7.33,1.45-15.02.55-22.09-1.23-1.92-2.23,6.72-13.54,7.67-15.96l16.57,2.45Z"/>
        <g>
          <path class="cls-21" d="M142.06,118.67c.19.15,1.06.48,1.23.61,6.47,10.55,4.66,21.86-3.68,30.69-2.19.58-5.83,2.24-7.67,2.45-28.36,3.36-42.34-25.61-22.71-45.41,2.11,1.95,4.8-.4,7.98,0,7.23.91,20.11,7.94,24.86,11.66Z"/>
          <path class="cls-4" d="M115.37,117.45c4.91-1.16,2.87,8-1.23,8.59l-1.53-1.53c-.65-1.84.86-6.61,2.76-7.06Z"/>
          <path class="cls-18" d="M136.23,136.47c4.82,5.1-2.45,15.54-9.21,12.89-.42-2.13,3.27-.89,4.91-1.84,4.38-2.54,3.96-6.63,4.3-11.05Z"/>
        </g>
        <path class="cls-22" d="M352.57,308.92c-3.55,10.56-8.14,20.95-12.27,31.3-2.29,5.73-5.01,11.44-7.36,17.18-1.44,3.52-3.53,6.95-4.91,10.43l-15.96-3.07c.88-1.94,1.6-5.28,2.45-7.36,2.41-5.85,4.1-11.83,6.14-17.8,1.42-4.16,7.51-27.8,8.59-28.84s20.37-2.16,23.32-1.84Z"/>
        <path class="cls-25" d="M212.64,369.07c-.23,2.52,1.06,14.24,0,16.26l-1.53.92c-2.92-.25-18.46.83-19.33-1.53,1.7-5.15,3.56-10.22,4.3-15.65h16.57Z"/>
        <path class="cls-25" d="M328.02,367.84c-.93,2.35-2.77,13.15-3.99,14.12s-18.3.08-19.64-.61c-3.12-1.62,6.55-14.07,7.67-16.57l15.96,3.07Z"/>
      </g>
    </g>
  </g>
</svg>