<svg version="1.1" id="Layer_1" xmlns="http://www.w3.org/2000/svg" xmlns:xlink="http://www.w3.org/1999/xlink" x="0px" y="0px"
	 width="100%" viewBox="0 0 672 1024" enable-background="new 0 0 672 1024" xml:space="preserve">
<path fill="#3a24" opacity="1.000000" stroke="none" 
	d="
M592.302551,334.047241 
	C592.051636,343.298004 591.791992,352.063690 588.839294,361.650696 
	C583.877380,356.411835 579.613953,351.910461 574.705017,346.727539 
	C581.576050,383.828644 587.996887,420.076599 564.717224,453.571930 
	C560.840332,442.394226 559.948486,430.567078 554.736633,419.774750 
	C556.312134,461.156494 542.954590,496.555328 513.913025,525.865295 
	C511.825806,527.971802 510.856598,530.141357 511.398010,532.992615 
	C516.702637,560.929382 521.378723,589.024048 531.968506,615.643494 
	C532.890686,617.961548 534.024414,620.194458 535.004700,622.490540 
	C538.587524,630.882507 543.057861,636.959961 553.014160,640.369995 
	C571.388733,646.663330 582.051941,662.109436 589.381836,679.454407 
	C598.375549,700.736267 600.740417,722.891479 597.767761,745.909790 
	C596.299744,757.277222 593.528564,768.331726 591.507141,779.612305 
	C594.035889,780.285034 595.534241,778.718506 597.160767,777.737366 
	C614.722717,767.144043 623.356262,750.788757 626.617737,731.211731 
	C630.318115,709.000549 625.924500,688.195312 614.933228,668.664734 
	C606.846619,654.295288 598.736267,639.942505 592.215942,624.753967 
	C584.947144,607.822021 581.159119,590.287231 582.630249,571.804199 
	C582.851990,569.018066 581.838867,567.251160 579.769958,565.403564 
	C564.982422,552.198120 556.824768,535.847961 556.978821,515.765808 
	C557.038574,507.970184 558.678284,500.311890 562.750183,493.772247 
	C571.271057,480.087402 579.793579,466.292389 591.444153,454.921112 
	C604.669434,442.012878 620.886963,435.894806 639.147644,434.762421 
	C639.805786,434.721649 640.480225,434.786926 641.133179,434.890289 
	C641.433044,434.937744 641.699280,435.197449 642.080383,435.418732 
	C642.252075,438.408173 639.962341,440.515961 639.112915,443.169342 
	C635.136658,455.590118 637.191833,467.483337 641.806335,479.228607 
	C645.272278,488.050323 648.782593,496.804565 649.621826,506.447723 
	C651.697327,530.295959 642.082581,559.235168 616.596436,571.158691 
	C611.648865,573.473511 610.935059,576.179810 611.815796,581.241394 
	C615.173950,600.540466 625.823669,616.347778 635.627563,632.557922 
	C644.862427,647.827271 654.173462,663.067261 659.566895,680.206421 
	C670.943665,716.359192 670.143005,751.688599 649.149292,784.342102 
	C631.320435,812.073120 604.497009,826.395325 572.299744,831.099976 
	C569.033264,831.577271 566.642517,832.697510 564.789185,835.264832 
	C564.399292,835.805054 564.077515,836.414490 563.609741,836.875732 
	C555.755310,844.619751 552.762390,853.140137 553.185852,864.939453 
	C554.220154,893.762268 525.374084,905.415222 505.777710,901.718933 
	C502.285004,901.060120 498.936981,901.075745 495.416595,901.850525 
	C484.325348,904.291321 473.294464,904.920227 462.842712,899.175964 
	C460.973938,898.148926 458.949402,898.057800 457.002289,898.457947 
	C450.783875,899.736084 444.702606,899.131470 438.775818,897.164917 
	C435.782471,896.171753 433.958557,896.675537 432.102600,899.406738 
	C423.361664,912.269836 410.656616,916.526855 395.713013,915.550720 
	C393.558197,915.409912 391.557159,915.377136 389.367737,916.080383 
	C377.866364,919.774536 366.173096,920.649841 354.602905,916.590881 
	C350.963440,915.314148 347.522461,915.004639 343.864410,915.585999 
	C334.606567,917.057373 325.958527,915.390930 318.043243,910.382629 
	C315.434998,908.732300 312.682434,907.728271 309.678040,907.395386 
	C295.866058,905.864807 287.012695,897.500793 284.519531,883.805298 
	C284.050476,881.228516 284.420929,878.466125 282.929504,875.746765 
	C276.911224,876.623657 270.845703,877.776794 264.702118,876.490173 
	C262.985168,876.130615 261.848358,877.153076 261.234222,878.707458 
	C253.914383,897.235779 238.456207,903.258362 220.411713,904.846436 
	C211.472076,905.633240 202.442001,905.764709 193.678680,902.994324 
	C189.653091,901.721802 185.790390,903.409058 181.885208,903.852661 
	C171.680649,905.011536 161.970734,903.614685 152.913788,898.730591 
	C150.643982,897.506592 148.321198,896.742310 145.870911,896.387390 
	C121.366203,892.838379 112.878098,870.759766 118.043289,850.846252 
	C122.919853,832.045471 138.724930,818.706421 158.000977,816.766418 
	C163.003128,816.263000 166.238647,814.018005 168.119720,809.262329 
	C171.834671,799.870300 173.253189,789.956177 174.492279,780.103943 
	C176.275970,765.921753 177.010803,751.635315 176.660934,737.293640 
	C176.112518,714.813843 173.809097,692.502075 171.341522,670.173828 
	C167.730576,637.499512 160.520996,605.143433 162.589767,571.935547 
	C162.935242,566.390259 163.907166,561.048889 165.239807,555.743164 
	C165.910095,553.074341 165.683243,550.910706 163.991974,548.742615 
	C157.585281,540.529541 152.855270,531.377014 149.133316,521.686951 
	C147.416916,517.218384 143.239426,514.976013 140.148163,511.813477 
	C124.282257,495.581360 115.577461,476.075287 112.633835,453.764069 
	C111.136971,442.418549 109.870422,431.080841 111.941879,419.645508 
	C109.428551,427.870026 106.631577,436.008698 107.089401,444.736725 
	C104.203247,445.044739 103.987724,443.045166 103.345764,441.665741 
	C93.356880,420.201569 90.794365,397.824005 94.342010,374.451752 
	C96.619720,359.446045 100.578690,344.936249 105.515106,330.145813 
	C100.221344,334.760010 96.976578,340.337952 93.038063,345.948853 
	C89.798080,342.415405 90.021538,338.394196 89.832863,334.875580 
	C88.106476,302.680206 98.347008,274.635498 119.913628,250.761734 
	C123.130165,247.201080 126.960548,244.151764 130.737885,241.157196 
	C132.988525,239.372925 133.728622,237.770035 132.943176,234.817184 
	C126.106323,209.114594 132.583710,187.384995 153.146744,170.325714 
	C161.960938,163.013382 172.359634,159.153244 183.901321,158.638931 
	C186.812149,158.509216 189.718399,158.276321 193.606628,158.028351 
	C188.101196,155.363861 183.289337,154.517700 178.257004,154.361389 
	C173.488037,154.213303 168.804382,156.070984 163.702118,154.373016 
	C188.441849,131.916183 214.756042,112.752632 250.687195,112.113228 
	C247.989670,108.517410 243.159363,109.602097 240.307373,105.841690 
	C259.526184,96.312958 278.954254,89.852371 300.698730,92.405830 
	C322.273041,94.939301 340.573334,103.381340 354.829742,121.209015 
	C364.405975,104.978569 378.088593,96.315933 396.121399,94.915047 
	C409.483673,93.876991 428.114075,97.674927 435.680969,103.120132 
	C428.207001,105.980782 421.190735,109.050690 416.395599,116.146233 
	C417.650330,116.290062 418.166962,116.498497 418.587280,116.376083 
	C440.257660,110.064255 460.002808,115.677010 478.950012,126.129372 
	C487.275543,130.722214 495.193573,135.982391 502.945221,141.465057 
	C508.954712,145.715485 515.443481,148.905441 523.196533,151.145111 
	C517.283752,158.826111 509.102875,159.146973 501.200562,160.719284 
	C501.719543,162.971725 503.547607,162.718109 505.030548,162.964722 
	C531.963745,167.443954 552.055725,190.190460 553.503052,217.518265 
	C553.868103,224.412033 553.671692,231.178040 551.753235,237.798889 
	C550.835938,240.964508 551.681030,243.253815 554.055359,245.329865 
	C575.713806,264.267456 585.656311,289.295074 590.797791,316.704590 
	C591.833130,322.223938 591.827332,327.938599 592.302551,334.047241 
M590.968140,561.091431 
	C590.504272,544.372559 598.102112,516.526001 604.006714,513.751587 
	C599.493591,531.486511 600.673889,549.094849 602.459656,566.577637 
	C604.474915,567.083496 605.676575,566.460754 606.924805,566.006714 
	C632.836670,556.581421 643.944397,529.055664 641.148743,506.086273 
	C639.458923,492.202423 631.739502,480.231415 628.790955,466.659668 
	C625.131409,475.946716 623.416199,485.549042 621.790222,495.243347 
	C615.471313,478.186096 620.152771,462.063965 626.555481,445.255249 
	C606.903809,450.011993 593.714844,461.728882 584.347656,477.760712 
	C575.113464,493.564880 571.694519,510.978912 573.014099,529.450195 
	C568.858459,522.388306 567.808533,514.604980 566.965088,506.109314 
	C564.826233,514.533936 565.241150,522.318542 567.463440,529.840149 
	C571.437744,543.291626 578.377319,554.779175 591.087463,562.933472 
	C591.103821,566.760010 591.071106,570.587463 591.147644,574.412781 
	C591.274109,580.733582 590.807922,587.155884 591.770752,593.352234 
	C594.061829,608.096558 599.380188,621.926147 606.287109,635.118835 
	C613.003235,647.947205 620.488647,660.410828 626.549988,673.536194 
	C640.208191,703.112061 640.538208,732.719116 624.374084,761.657837 
	C618.219177,772.677063 609.537598,781.704407 597.983276,786.673645 
	C590.068298,790.077576 585.366577,794.854980 582.787537,802.869202 
	C580.784485,809.093628 577.622681,814.945129 574.961487,820.995178 
	C575.725464,821.270325 576.054077,821.519470 576.325195,821.467712 
	C604.053650,816.173401 627.036987,803.205627 642.330139,778.923523 
	C659.184631,752.162170 661.312927,723.100098 654.109741,692.880249 
	C648.650085,669.975281 636.724243,650.171631 624.578491,630.421082 
	C614.972778,614.800964 605.450562,599.006897 603.126282,580.329468 
	C602.262573,573.389160 600.323059,567.102783 596.579773,561.297852 
	C596.354309,560.948120 595.891052,560.751770 595.604370,560.534180 
	C594.097656,561.374084 594.899353,563.685730 593.044739,564.042786 
	C591.702515,563.955811 591.742004,562.597778 590.968140,561.091431 
M413.028351,105.312271 
	C411.960693,103.358597 410.022278,103.474335 408.244690,103.418106 
	C402.588074,103.239159 396.927307,103.135437 391.349365,104.385117 
	C377.389496,107.512650 367.427063,115.580475 361.517731,128.607162 
	C360.471466,130.913528 359.917603,133.296555 360.807770,135.868515 
	C362.839935,141.740402 363.410583,147.903549 363.650970,154.024414 
	C363.850800,159.113663 363.198700,164.236343 362.923950,169.344223 
	C362.341919,169.478409 361.759888,169.612595 361.177856,169.746765 
	C357.244049,146.484161 352.056519,124.040993 329.828400,110.706444 
	C310.538513,99.134537 274.702942,96.290298 263.146881,106.081139 
	C276.284302,115.070854 289.055054,124.397377 296.602722,139.262421 
	C279.643280,127.029434 261.612274,119.031334 240.170700,120.750610 
	C218.839371,122.461037 202.617981,134.287216 184.904221,146.798523 
	C199.482117,149.941528 211.709259,154.987000 223.713104,162.797653 
	C220.037155,164.444595 216.899689,162.268005 213.944580,164.401443 
	C220.190964,168.640060 225.936508,173.048828 229.840225,179.117752 
	C233.819061,185.303513 238.419632,189.502548 246.360168,187.897568 
	C246.704849,187.827911 247.156754,188.288834 247.593369,188.521027 
	C247.219849,190.844315 245.227463,191.356522 243.758743,192.195312 
	C226.056900,202.305145 213.636063,217.676849 202.159668,233.950668 
	C193.799576,245.805557 188.991364,259.786346 179.958420,271.271912 
	C175.553650,276.872681 170.606522,281.681427 163.792389,284.181244 
	C162.706467,284.579620 161.355896,285.641357 160.259323,283.589111 
	C164.218979,280.203857 168.962250,277.482758 170.962402,271.885590 
	C168.630737,271.007568 166.333313,270.152161 164.042999,269.278168 
	C155.788040,266.128021 148.650497,261.293304 142.978714,254.537308 
	C137.199005,247.652802 137.324860,247.537979 130.338394,253.398895 
	C129.446472,254.147156 128.624298,254.979462 127.780815,255.784363 
	C113.165062,269.731750 105.214691,287.320068 100.405380,306.520905 
	C99.108650,311.697998 97.800400,317.024872 98.710312,323.357147 
	C106.251961,315.489624 114.128304,309.130615 120.957382,301.627533 
	C126.926079,295.069733 133.807114,289.508881 141.571457,285.168732 
	C143.506027,284.087311 145.468796,282.164032 148.808868,283.575592 
	C127.272736,298.606567 118.598190,321.250153 110.456863,344.024261 
	C102.259842,366.954254 99.175674,390.559723 103.564545,415.846313 
	C109.139091,402.968262 115.033226,391.428619 121.875328,380.364868 
	C130.890076,365.787964 142.170242,351.969238 146.448471,350.703857 
	C146.862976,352.665375 145.246490,353.684845 144.417038,355.026001 
	C128.536011,380.704865 117.910713,407.967468 119.309143,438.804535 
	C120.176201,457.924042 124.853340,475.949493 135.434357,492.129700 
	C137.261642,494.923920 139.180923,497.803986 142.514236,499.890594 
	C143.033234,479.247803 140.076935,458.506958 152.867081,440.519257 
	C149.295959,456.224182 149.911194,472.097931 150.581192,487.943481 
	C151.269135,504.213318 155.687897,519.428284 164.485001,533.245239 
	C173.089706,546.760010 183.260681,558.670532 198.007339,566.017395 
	C193.808090,552.103821 189.939804,538.441833 190.557785,523.831909 
	C191.252960,507.397217 197.041855,487.162292 202.902542,483.556976 
	C197.888504,509.005219 193.917969,534.182922 205.315674,559.010864 
	C217.076218,584.629089 238.720535,606.315918 258.977325,611.743347 
	C251.970413,600.353882 245.509674,588.918457 240.971466,576.500977 
	C234.227264,558.047363 232.285614,539.339722 237.840408,520.221497 
	C238.639725,517.470459 239.465485,514.646973 241.759995,512.651306 
	C243.209259,513.844727 242.510086,514.839111 242.419342,515.763245 
	C241.381424,526.335022 239.571594,536.841248 241.478333,547.547241 
	C246.613312,576.378906 260.516571,601.016235 278.289886,623.610779 
	C286.444214,633.977173 295.657806,643.459290 297.884674,657.182434 
	C297.921021,657.406616 298.368195,657.564026 298.993408,658.025513 
	C308.955994,649.121521 319.231354,640.418945 328.955322,631.138611 
	C344.903564,615.918030 354.076569,596.503174 361.636810,576.219543 
	C364.013336,569.843506 366.141296,563.374878 368.382996,556.948669 
	C368.836548,557.123901 369.290070,557.299194 369.743622,557.474487 
	C369.091461,585.248108 358.512939,609.128174 340.400543,630.069214 
	C384.924377,600.570129 407.741638,559.880005 404.246490,505.493103 
	C408.773041,522.175049 409.812592,538.647705 406.880890,555.259705 
	C404.636017,567.980103 398.834564,579.552368 394.841492,591.710205 
	C392.193268,599.773438 390.404449,607.955566 391.766235,617.712402 
	C401.398376,604.032227 414.043701,595.114441 426.415161,585.901672 
	C441.943512,574.338013 457.375305,562.657715 468.550903,546.478210 
	C481.747192,527.373352 490.498718,506.609375 491.529968,483.078247 
	C492.378815,463.709625 489.085724,444.994507 482.592743,426.786285 
	C482.229858,425.768646 481.335968,424.693634 482.647308,423.437561 
	C483.138580,423.766754 483.899414,423.996155 484.153595,424.487610 
	C492.079773,439.811432 498.450409,455.590973 499.353271,473.153564 
	C500.276733,491.116180 496.038361,508.162018 490.725220,525.046875 
	C489.015686,530.479675 487.828827,535.972839 487.235474,542.281372 
	C493.830139,535.286560 499.898621,528.878784 505.935638,522.441650 
	C533.530273,493.018066 549.948669,459.196228 546.639648,417.799286 
	C545.139038,399.026459 540.668762,381.058289 530.651245,364.803131 
	C529.939697,363.648560 528.428589,362.626465 530.021973,359.970703 
	C546.979614,381.419006 559.510864,404.646942 568.260315,430.188354 
	C578.181458,384.301544 570.065918,341.789764 544.929443,302.385468 
	C546.614563,302.360687 547.740784,303.707275 549.072571,304.660400 
	C555.995117,309.614532 561.258301,316.130005 565.167419,323.515167 
	C569.400146,331.511658 576.792847,336.009338 582.965820,342.155701 
	C591.849915,323.185883 566.654968,260.424561 547.108643,252.747543 
	C539.260010,268.069153 527.113953,278.910675 510.527893,284.894440 
	C514.101257,294.013580 519.300842,301.423309 525.013489,308.693390 
	C522.506409,309.725647 521.499451,307.964050 520.289917,307.058807 
	C507.817383,297.724304 499.295929,285.320038 493.074615,271.259308 
	C488.631561,261.217560 485.482758,250.639664 480.459351,240.820740 
	C470.596313,221.542236 458.653168,204.160904 438.798798,193.717010 
	C437.674011,193.125336 435.774841,192.858826 436.057526,190.094803 
	C444.327728,192.883362 449.565521,188.431732 455.086365,183.022583 
	C462.748962,175.514999 472.020508,170.136154 482.277069,166.633606 
	C483.774902,166.122131 485.496796,165.836563 486.523071,164.295044 
	C481.820526,159.126038 475.464417,163.669052 469.046661,161.394531 
	C479.909241,155.270447 491.184448,154.107056 502.856781,151.087585 
	C489.037384,142.191452 476.797729,132.816635 462.301147,127.442795 
	C440.897125,119.508369 420.511169,121.059425 401.770782,135.044632 
	C400.870178,135.716721 400.061920,136.731201 397.846039,135.864410 
	C400.241669,124.612587 404.938782,114.506660 413.028351,105.312271 
M163.467651,836.896912 
	C151.284653,846.728577 147.789505,859.931335 149.140244,874.796692 
	C150.601059,890.873413 168.349655,900.700256 183.447388,893.633118 
	C179.411407,885.586426 178.285919,876.955017 178.676529,868.022339 
	C179.376358,852.018433 192.178787,836.467896 207.203278,833.402893 
	C211.396973,832.547363 215.076721,833.298950 219.825348,835.944153 
	C215.035553,837.616821 211.285141,837.034851 207.886826,838.616028 
	C192.213242,845.908813 183.713455,864.033630 188.012817,881.292236 
	C190.116699,889.737793 194.716049,894.844543 203.903488,896.049988 
	C213.881470,897.359131 223.540695,896.358582 232.986130,893.618896 
	C248.255356,889.189941 255.011795,879.520508 254.866333,863.694763 
	C254.787994,855.172607 253.814468,846.767700 252.188126,838.412720 
	C251.806076,836.449951 251.007233,834.323181 252.608459,831.907959 
	C257.525024,838.024048 258.598206,845.470520 261.768982,852.129639 
	C265.842346,847.731018 267.700562,842.501648 267.638733,835.662842 
	C267.329681,801.465271 269.800690,767.506409 276.951843,734.017090 
	C278.134155,728.480347 276.784485,725.119751 272.618988,721.580872 
	C257.172333,708.458191 244.887802,692.822571 236.987411,674.025818 
	C233.863205,666.592773 231.355728,658.924316 231.115005,650.703247 
	C232.865326,650.568909 233.077530,651.604614 233.469498,652.528137 
	C243.708481,676.653259 258.832001,697.252869 277.540283,715.565979 
	C286.809906,724.639832 297.442810,732.294800 305.485657,742.663208 
	C313.068207,752.438293 320.581848,762.192627 323.703400,774.485046 
	C324.276794,776.742981 324.970459,779.058167 323.636322,782.281189 
	C313.410675,763.643555 301.032745,747.797119 285.857330,733.489197 
	C285.184845,734.954895 284.671631,735.654602 284.541718,736.419373 
	C282.454895,748.704590 280.720764,761.058716 278.284973,773.273254 
	C275.681793,786.327332 280.063324,796.661499 289.010498,805.831055 
	C294.996307,811.965637 301.950806,816.825623 308.791656,821.837769 
	C316.778015,827.689270 317.590607,827.471680 322.659729,818.872864 
	C329.316772,807.580444 332.855225,795.040649 336.812347,782.682068 
	C344.687134,758.088013 350.549896,733.053345 353.866669,707.404053 
	C355.921570,691.512939 355.445038,675.514648 356.708862,659.601929 
	C356.895782,657.248047 356.051636,654.604980 358.275177,652.481750 
	C358.684692,653.018860 359.102600,653.349060 359.222717,653.765198 
	C359.591553,655.042908 359.911865,656.342346 360.135559,657.653015 
	C364.245941,681.736694 362.651703,705.785522 358.886963,729.677490 
	C355.333099,752.231445 349.109192,774.150330 341.326630,795.646790 
	C334.245300,815.206360 326.537811,833.765930 308.197662,846.443970 
	C298.084991,853.434509 292.104492,864.736450 292.433533,877.906616 
	C292.660828,887.003601 298.304718,898.260498 308.402649,897.848755 
	C305.969971,886.355347 306.568329,875.144653 311.479889,864.325195 
	C316.539429,853.179749 328.639465,843.033997 336.521210,843.626038 
	C336.516571,844.602295 335.813385,845.067810 335.109161,845.515747 
	C319.648376,855.349670 314.469666,870.104675 315.393585,887.532410 
	C316.145844,901.721985 328.814026,910.322937 342.022522,905.958557 
	C342.091858,905.642944 342.245850,905.317627 342.211304,905.013855 
	C342.155701,904.524902 342.025543,904.029907 341.840942,903.572205 
	C336.310333,889.860840 337.884064,876.436890 343.925171,863.408813 
	C347.803253,855.045349 353.281891,847.990967 362.814087,845.408142 
	C366.235901,844.480957 369.441833,844.690063 372.450806,847.535339 
	C363.129486,849.685669 360.544861,850.730835 356.141144,856.815430 
	C348.882599,866.844482 345.279846,878.300232 346.566315,890.654297 
	C347.963257,904.069214 355.864685,910.551514 369.490936,910.614807 
	C372.305634,910.627869 375.143921,910.399475 377.933563,910.011108 
	C384.373016,909.114502 384.874969,908.175415 382.702667,901.947266 
	C377.829315,887.974976 378.731659,874.103149 383.623169,860.371887 
	C385.354004,855.513184 388.329132,851.530090 393.395233,849.645996 
	C395.307983,848.934509 397.398926,848.126526 399.269684,850.347961 
	C396.687561,852.554382 393.383148,853.494568 392.080811,856.683228 
	C386.187195,871.113159 384.984650,885.685913 391.052734,900.351685 
	C392.329468,903.437317 394.474518,906.198181 398.107330,906.869324 
	C410.254761,909.113464 424.217346,900.083557 427.635010,888.184204 
	C430.028198,879.851685 430.445740,871.310242 429.417175,862.938293 
	C427.840973,850.109131 429.720093,837.681946 432.573273,825.422729 
	C441.903839,785.331970 456.542511,746.828430 468.455597,707.505676 
	C472.604736,693.810242 476.830750,680.097534 479.380280,666.040405 
	C483.622955,642.648010 486.468506,619.048706 486.673889,595.210815 
	C486.693298,592.958313 486.768860,590.752502 488.557953,588.992310 
	C490.343811,590.492188 490.681641,592.428467 490.945953,594.133728 
	C494.434509,616.639648 493.617340,639.096008 489.803345,661.725342 
	C501.576172,649.676514 514.429871,639.729919 532.004089,636.352966 
	C515.534668,605.337463 510.015167,571.987305 503.288605,538.317627 
	C492.695496,548.432861 484.728638,559.342590 477.290955,572.471375 
	C475.982391,563.826721 476.855865,556.776306 477.617950,549.015503 
	C471.061493,556.662842 465.727722,564.074036 458.892822,570.303223 
	C451.975739,576.607422 444.543793,582.203735 437.301453,588.073792 
	C426.328949,596.967224 414.494751,604.844666 405.069244,615.589111 
	C399.808136,621.586426 395.630585,628.214294 392.360565,636.234131 
	C384.198700,626.393066 381.462769,615.934998 383.510101,603.862488 
	C382.469788,604.281067 381.967773,604.367432 381.620270,604.646301 
	C380.843475,605.269653 380.047333,605.911316 379.426971,606.680908 
	C368.669464,620.026062 354.712799,629.416809 340.199554,638.000427 
	C328.134857,645.135864 316.189728,652.341858 305.794617,661.881165 
	C301.908051,665.447693 297.590424,668.544495 293.565796,671.778015 
	C291.627533,670.721008 291.876770,669.077209 291.781250,667.649841 
	C290.425964,647.389832 280.379578,632.995544 262.400146,623.896973 
	C256.159973,620.739075 249.803604,617.765747 243.785355,614.223816 
	C231.639755,607.075745 221.436005,597.783997 211.991501,587.186279 
	C201.223373,575.103271 184.001846,571.505920 173.748291,559.219421 
	C171.617096,560.296204 171.482178,561.283142 171.279175,562.275024 
	C168.888657,573.954407 169.091415,585.653320 170.098175,597.504333 
	C171.970993,619.550049 175.931900,641.290161 178.884811,663.175659 
	C181.219040,680.475769 183.649429,697.801758 184.075867,715.247620 
	C184.592255,736.373718 185.387085,757.554565 183.235901,778.643188 
	C182.003601,790.723755 179.894363,802.652954 175.137909,814.001404 
	C172.235947,820.924927 167.330185,824.539734 159.958176,825.034790 
	C154.886780,825.375366 150.189743,827.045959 145.638519,829.156982 
	C127.746674,837.455872 119.782547,861.734924 129.672058,877.941345 
	C132.327682,882.293335 136.165024,885.076233 141.091629,886.400696 
	C142.043564,884.213440 141.523148,882.764038 141.307632,881.299438 
	C139.727417,870.560608 140.192596,859.977661 144.622528,849.931702 
	C150.262314,837.141968 159.670883,828.960938 173.958771,827.309021 
	C177.283218,826.924683 180.606125,827.107910 184.780533,829.357788 
	C177.186905,832.099609 170.030197,832.697083 163.467651,836.896912 
M535.179260,885.697815 
	C541.610779,880.124512 544.571838,873.014954 544.791199,864.573486 
	C544.900330,860.369934 544.572266,856.220276 543.405090,852.230225 
	C542.487305,849.092590 543.329041,847.093201 545.543823,844.748962 
	C556.721069,832.918579 566.021606,819.564636 572.641235,804.813782 
	C584.984863,777.307739 591.600647,748.422424 589.728516,718.002258 
	C588.319946,695.113464 580.561279,674.865295 564.635254,658.042297 
	C552.996704,645.748230 537.974854,641.913269 523.313171,648.050476 
	C504.048187,656.114868 490.140350,669.913696 483.404449,689.688171 
	C473.589172,718.502563 465.002502,747.733765 455.345581,776.604553 
	C450.862915,790.006104 452.393127,802.334839 458.372864,814.724487 
	C460.435486,818.998169 462.655579,820.055603 467.271515,818.635742 
	C486.971191,812.576294 505.009247,816.557556 521.501282,828.522827 
	C522.236145,829.056091 523.310364,829.538757 522.684143,831.120728 
	C519.303406,831.634338 516.372192,829.737915 513.314392,828.755798 
	C488.046570,820.639954 464.406982,822.315796 442.226501,838.480164 
	C438.024567,841.542419 437.321075,844.295410 437.357422,848.270386 
	C437.456329,859.087830 437.916138,869.903931 437.889252,880.719727 
	C437.871826,887.739685 438.557312,888.883850 445.542053,889.696350 
	C447.962921,889.977966 450.392670,890.183105 453.918823,890.532104 
	C449.158081,882.604004 449.058563,874.646912 449.743744,866.693787 
	C450.707214,855.511108 455.182220,846.195679 465.144562,840.139343 
	C469.311951,837.605957 473.257416,836.872070 476.388092,838.121277 
	C459.998169,850.799500 456.749237,856.796387 457.215179,873.510498 
	C457.498413,883.670959 462.499451,890.484314 472.083252,893.683289 
	C477.434601,895.469482 482.942261,895.128296 488.407745,894.547485 
	C491.720520,894.195374 492.644287,892.646606 491.505707,889.041077 
	C486.826569,874.223877 489.357361,860.399902 498.672821,848.024048 
	C502.514771,842.919922 507.386261,838.846008 514.095581,836.837708 
	C514.070129,839.516357 512.499084,840.109863 511.419983,841.050171 
	C498.552734,852.261597 494.648743,866.573975 497.364136,882.914307 
	C498.574951,890.200684 503.317932,893.709412 510.806091,893.663696 
	C519.487671,893.610657 527.662964,891.768005 535.179260,885.697815 
M526.337280,182.148636 
	C505.681122,164.105331 478.311493,172.577621 463.215210,187.527802 
	C456.810242,193.870789 456.999756,194.017044 462.832947,200.514465 
	C465.501160,203.486511 468.025482,206.587418 470.675232,209.576508 
	C471.850586,210.902344 472.710052,212.663376 474.868530,213.019867 
	C477.376740,211.188904 479.770569,209.063583 482.494019,207.519791 
	C493.373413,201.352676 504.591003,200.512573 515.850464,206.391052 
	C522.710815,209.972763 527.326538,220.243805 525.443848,226.865112 
	C524.136292,226.864258 523.834473,225.815689 523.536194,224.898849 
	C522.155701,220.655228 519.675964,217.230698 516.242737,214.382599 
	C505.501556,205.471970 488.320557,211.543182 481.500366,218.456558 
	C479.656189,220.325928 480.297852,222.392715 481.512054,224.405945 
	C484.089844,228.680267 486.558838,232.993942 488.691315,237.537903 
	C493.932556,248.706314 498.056030,260.324005 502.804871,271.687744 
	C504.258453,275.166046 506.208496,276.105774 509.798706,274.936279 
	C515.913452,272.944397 521.549255,270.045624 526.315674,265.841858 
	C551.079407,244.001663 551.283081,204.594894 526.337280,182.148636 
M151.525208,250.972626 
	C156.910263,256.131989 163.292618,259.533508 170.223923,262.207275 
	C174.485474,263.851135 177.150879,263.130432 178.991394,258.907990 
	C180.785614,254.791809 182.962845,250.839905 184.696472,246.700500 
	C189.524185,235.173416 197.302048,225.591812 204.787109,215.810654 
	C206.036743,214.177719 207.328247,212.737747 205.607361,210.557800 
	C194.280273,196.209274 169.895630,198.085022 161.941330,212.813400 
	C161.333694,213.938553 161.582581,216.028488 159.325211,215.780807 
	C158.404465,209.491898 161.454376,202.614700 168.599487,198.395248 
	C185.200424,188.591858 200.112122,193.186493 213.498474,205.327667 
	C217.548477,201.592743 221.029724,197.997665 224.918915,194.917709 
	C228.018967,192.462677 227.897934,190.488571 225.761475,187.430771 
	C213.573074,169.986176 194.976837,162.964081 174.615524,169.363647 
	C141.063797,179.908951 125.976547,221.237137 151.525208,250.972626 
M275.165680,824.516785 
	C275.148560,828.844482 275.273743,833.178406 275.083435,837.498474 
	C274.733612,845.439941 273.496948,853.276550 267.296112,858.925781 
	C264.807983,861.192627 262.035889,862.955872 263.601562,866.549561 
	C265.020477,869.806458 268.539581,868.532654 271.197418,868.845764 
	C272.987854,869.056641 274.900116,868.956604 276.659882,868.560425 
	C280.831635,867.621277 284.671021,865.891602 286.375092,861.597717 
	C288.696625,855.748291 292.412476,850.956116 296.752808,846.505554 
	C301.132568,842.014587 305.321991,837.337952 309.881989,832.433838 
	C298.275909,825.024353 287.169342,816.056519 276.938965,804.827576 
	C275.170105,811.908936 275.267670,817.728149 275.165680,824.516785 
M441.888550,829.213623 
	C445.059418,825.995911 449.465363,824.609680 453.220886,821.851440 
	C450.840881,816.872986 448.546814,812.074280 445.738800,806.200500 
	C444.568146,814.827515 441.113647,821.796875 441.888550,829.213623 
z"/>
<path fill="#12a553" opacity="1.000000" stroke="none" 
	d="
M181.102966,427.281738 
	C175.029465,427.957764 169.572433,430.020905 163.694672,429.455017 
	C168.429108,425.200165 174.344986,423.744904 180.209030,422.275208 
	C186.001205,420.823547 191.853851,419.613098 198.461044,418.120361 
	C195.734589,413.456573 193.182709,408.915894 190.440720,404.493073 
	C189.437256,402.874512 187.485031,403.118469 185.847702,403.144836 
	C177.695236,403.276154 169.521927,402.853729 161.405090,404.054871 
	C160.191360,404.234497 158.775269,404.789368 157.642502,403.045990 
	C159.236832,401.025482 161.719864,401.186951 163.824768,400.832153 
	C170.380356,399.727112 176.964706,398.770630 183.560776,397.937683 
	C186.541046,397.561340 187.623718,396.437256 186.822311,393.341766 
	C184.860977,385.765808 183.993744,378.013672 183.092987,370.241180 
	C182.479065,364.943634 184.733139,359.741394 183.012680,353.785431 
	C175.075256,359.000824 167.453415,364.008881 158.966263,369.585510 
	C159.505905,365.074677 161.830139,363.211792 163.896637,361.187225 
	C174.126877,351.164551 184.639023,341.426422 192.297668,329.087708 
	C201.000168,315.067261 205.016403,299.618591 206.976242,283.233063 
	C196.646179,289.801636 187.282700,297.907349 174.968445,301.268402 
	C174.948410,298.466125 176.888611,298.048187 178.131302,297.169159 
	C191.748093,287.537262 203.105896,275.717896 212.628113,262.058105 
	C215.125336,258.475769 217.053391,254.657745 218.800858,250.673416 
	C228.445267,228.683395 243.266434,211.890472 266.641541,204.008942 
	C274.434570,201.381317 282.529388,200.438141 290.774475,201.072189 
	C292.217834,201.183197 293.712219,201.939331 295.973969,200.329651 
	C290.404022,187.927887 283.965576,176.007919 273.829559,166.362106 
	C263.616974,156.643417 251.227631,151.119751 237.580887,147.758820 
	C244.418167,146.291565 250.730301,147.948593 256.947052,149.889740 
	C274.448090,155.354340 286.851440,166.956711 295.393707,182.815796 
	C303.627960,198.103073 313.598694,211.812286 327.703827,222.316254 
	C330.483246,224.386108 331.973206,224.251282 334.463531,222.259262 
	C343.198608,215.272018 352.692230,209.604614 362.919373,204.889954 
	C370.163239,201.550537 375.921265,195.737335 380.779907,189.213440 
	C393.190277,172.549515 408.697540,160.263138 429.333679,155.364410 
	C432.691101,154.567429 436.047272,154.304703 439.597321,155.419861 
	C427.366547,159.095474 416.114349,164.502991 406.408966,172.715393 
	C396.834076,180.817383 389.197998,190.613541 381.876770,201.387268 
	C384.454590,201.812790 386.523346,202.317352 388.618256,202.475494 
	C417.167511,204.630341 435.265198,220.648575 446.267822,245.986130 
	C449.184174,252.701981 451.897980,259.516388 454.426544,266.387970 
	C460.453339,282.766083 470.921570,295.497040 485.380707,305.136993 
	C489.314178,307.759460 493.615692,310.063202 496.427948,314.347137 
	C489.904358,315.486938 484.666046,312.738922 461.564972,296.205933 
	C460.837891,300.272888 462.192444,303.907196 462.730133,307.548584 
	C465.474243,326.132874 475.388947,341.319061 485.988068,356.176788 
	C494.114166,367.567963 502.742767,378.612823 510.085815,390.546387 
	C513.188721,395.589050 516.020935,400.809082 516.305664,407.190521 
	C506.752869,392.294495 494.817047,379.443054 483.588074,366.110199 
	C482.121033,366.993561 482.332153,367.935089 482.386963,368.689240 
	C483.743500,387.357269 476.668365,403.183411 465.967926,417.826630 
	C462.323517,422.813904 458.543823,427.678284 454.014801,431.893494 
	C452.223633,433.560577 450.926483,435.262878 451.734100,436.979034 
	C442.201782,440.100555 436.683167,448.647430 426.890869,452.301300 
	C440.873077,461.731934 448.509613,474.048401 451.878174,489.051971 
	C452.877258,493.501892 453.206055,498.073425 451.614716,502.669464 
	C449.635834,501.660217 450.082031,499.976532 449.872101,498.589233 
	C447.280029,481.461060 438.586304,468.284668 424.263153,458.658752 
	C421.116333,456.543976 418.291412,456.384369 415.050812,458.466919 
	C410.432037,461.435150 405.502625,463.926422 400.932312,466.962250 
	C393.020355,472.217804 386.279938,478.002045 382.541809,487.672546 
	C376.455261,503.418304 363.540344,512.942139 348.212463,519.292969 
	C338.804382,523.190979 329.080994,526.765320 323.875092,536.499268 
	C321.400818,541.125671 319.438782,546.026001 317.208649,550.880737 
	C315.070007,549.945862 314.994690,548.093628 314.309174,546.704590 
	C313.047852,544.148743 311.914612,541.420654 309.612183,539.708801 
	C301.741455,533.856873 293.743439,528.175720 285.769501,522.463623 
	C285.250122,522.091553 284.539459,521.936707 283.892548,521.799561 
	C260.995758,516.943420 251.461487,499.925537 245.665421,479.622070 
	C243.998688,473.783508 244.205627,467.729736 245.220901,461.796356 
	C245.599991,459.580963 244.981705,458.378662 243.329666,457.191040 
	C238.023392,453.376495 233.289413,448.916321 229.305054,443.746735 
	C227.706421,441.672485 226.183914,441.432861 223.743271,442.051239 
	C210.541260,445.396179 198.110519,450.357605 187.143997,458.610779 
	C186.125900,459.376984 185.289398,460.614075 182.669144,459.945496 
	C191.874649,447.731689 205.213928,442.970520 218.740845,437.301605 
	C214.019104,433.172546 210.146759,428.958923 205.495789,425.948181 
	C200.700562,422.844116 195.105881,425.511536 189.878296,425.759949 
	C187.080490,425.892914 184.315842,426.723480 181.102966,427.281738 
M253.191299,410.933044 
	C247.721985,408.847870 241.993576,407.796143 236.288651,406.624695 
	C232.688202,405.885345 231.236862,407.549500 231.320908,410.864380 
	C231.393509,413.728546 229.700867,417.576263 235.106873,417.732452 
	C238.915543,417.842529 242.733322,418.285431 246.502487,418.867981 
	C248.738525,419.213593 251.292206,419.359955 253.208862,422.196564 
	C245.926117,423.201263 239.139496,420.906433 232.631760,422.900970 
	C234.303665,432.896118 235.045700,433.424835 244.289551,433.014313 
	C246.944763,432.896423 249.860809,432.192780 252.528946,434.460663 
	C248.267303,437.520050 242.881348,436.342621 238.821884,438.921783 
	C243.851761,450.243622 256.134583,456.979736 268.819458,455.595306 
	C282.720062,454.078217 297.517456,442.637634 299.526184,431.854370 
	C300.941010,424.259308 299.449097,420.990448 292.698517,417.001678 
	C286.527954,413.355713 280.557800,409.426758 274.780853,405.168121 
	C253.208023,389.265198 250.270950,367.605988 267.262146,348.612823 
	C276.952057,337.781219 281.494141,324.879089 283.857208,310.785217 
	C285.504669,300.959259 285.866455,291.023163 287.040833,281.032654 
	C289.096802,281.833191 289.098267,283.377747 289.316528,284.845703 
	C290.250946,291.129730 290.163361,297.452209 290.059204,303.774292 
	C289.768005,321.453766 285.222137,337.598328 273.237701,351.162354 
	C270.152710,354.653992 267.503296,358.530182 265.625732,362.850800 
	C264.212280,366.103394 263.532349,369.420807 265.010529,373.416046 
	C271.821808,370.451935 278.782654,370.444061 285.691467,371.766235 
	C292.320099,373.034790 298.956848,372.616486 305.602631,372.684662 
	C312.264771,372.753021 318.895081,372.171356 325.537415,371.846771 
	C335.885162,371.341187 346.474274,370.012573 356.130585,375.764374 
	C360.361572,367.764862 358.737457,360.451721 356.303772,352.920502 
	C360.961487,355.553619 363.670807,359.232788 364.205566,364.528412 
	C365.582581,378.164307 359.166931,388.277405 349.505005,396.791138 
	C338.391144,406.584290 325.690704,413.798920 311.888123,419.116577 
	C309.742981,419.943024 307.572632,420.548615 307.245575,423.598755 
	C306.236847,433.006775 308.897339,440.654327 316.981720,446.117462 
	C322.120544,449.590057 327.740723,452.084473 333.279053,454.791595 
	C351.115204,463.509766 367.242950,459.071991 382.589355,448.583038 
	C385.298309,446.731506 387.857239,444.528015 388.459381,440.584015 
	C382.265839,437.385254 375.081665,437.051025 368.729034,433.610138 
	C370.868256,432.105225 372.733887,432.700287 374.489136,432.704285 
	C379.200043,432.714966 383.704041,434.094788 388.216675,435.193390 
	C391.032928,435.879028 392.672058,435.044098 393.945587,432.682343 
	C395.263916,430.237396 396.814331,427.892151 397.170715,424.851715 
	C387.152435,423.184540 377.293610,423.581421 366.146637,422.561615 
	C369.901337,420.054993 372.691040,419.873230 375.405365,419.811829 
	C381.731903,419.668701 388.064331,419.645996 394.391846,419.741638 
	C397.573883,419.789703 400.035919,418.882568 399.198456,415.324677 
	C398.434082,412.077362 399.697266,406.661102 393.398102,407.496979 
	C388.623474,408.130554 383.916077,409.264069 379.144653,409.931244 
	C376.467316,410.305603 373.863281,411.954407 370.354340,410.624786 
	C377.984863,404.707703 387.035767,404.506775 395.384277,402.070984 
	C395.188995,395.880951 390.445496,392.066254 388.556885,386.841309 
	C394.252136,388.439484 397.889404,392.394867 400.612366,397.106873 
	C402.619537,400.580200 405.109406,402.038879 409.103302,401.759918 
	C417.412292,401.179474 425.710083,401.597870 433.963165,402.769257 
	C439.935028,403.616821 445.783508,404.921539 451.904938,406.729065 
	C450.345490,408.756622 448.931061,408.345947 447.723053,408.178223 
	C437.152008,406.710327 426.521912,406.200684 415.866669,406.210571 
	C405.989685,406.219757 406.184723,406.288116 406.237366,415.980988 
	C406.257935,419.765625 407.638947,421.297119 411.201080,421.973694 
	C419.375671,423.526367 427.457642,425.514435 435.266724,428.461639 
	C436.520447,428.934845 438.247589,428.905701 438.354523,431.169434 
	C434.444366,431.554443 431.096832,429.726990 427.530121,429.263031 
	C423.743256,428.770477 420.005493,427.912567 416.227600,427.336609 
	C402.873505,425.300751 406.841431,425.387665 402.076569,436.048553 
	C400.949341,438.570587 401.871185,439.724548 404.102905,440.594757 
	C408.133820,442.166412 412.237152,443.603882 416.118134,445.492279 
	C419.200928,446.992310 421.747589,446.697906 424.513611,444.868195 
	C443.467499,432.330566 459.489624,417.046906 468.678528,395.858551 
	C473.765717,384.128143 476.222015,371.737305 473.551361,358.850952 
	C471.707794,349.955414 467.863922,341.823883 463.737030,333.813538 
	C457.193054,321.111572 453.093689,307.754089 451.678375,293.446503 
	C449.400696,270.421143 441.719482,249.133316 427.055786,231.201279 
	C414.118530,215.380463 396.874603,208.392441 376.036255,211.005981 
	C359.130646,213.126297 345.868286,221.842728 333.856018,233.030930 
	C331.064331,235.631134 329.109741,236.054413 326.518158,232.911331 
	C319.967285,224.966446 311.606110,219.167786 302.952637,213.793427 
	C298.498993,211.027420 293.535980,209.623169 288.303070,209.329712 
	C267.060730,208.138397 251.199936,218.262299 238.315063,233.844757 
	C225.092606,249.835480 219.039154,269.083038 215.395035,289.067932 
	C212.352798,305.751923 208.560287,321.954620 197.797562,335.686554 
	C196.097931,337.855072 194.980835,340.632477 194.144745,343.300812 
	C188.748962,360.520996 190.788666,377.478088 196.248901,394.278046 
	C196.933441,396.384216 198.515244,396.908081 200.490082,397.065094 
	C207.779312,397.644623 215.082458,398.127930 222.339951,398.988342 
	C225.183823,399.325500 226.567520,398.567078 227.585037,395.927277 
	C229.887070,389.955017 233.164215,384.534180 238.158142,380.393585 
	C240.203476,378.697754 242.191605,376.552612 245.343735,376.797729 
	C245.526474,378.726837 244.151566,379.393494 243.318054,380.329254 
	C239.025162,385.148712 236.246216,390.749329 234.266632,396.852692 
	C233.345825,399.691650 233.812149,401.107361 236.926788,401.836975 
	C241.624207,402.937317 246.272385,404.355377 250.530258,406.711304 
	C252.184097,407.626404 254.444473,408.221924 253.998917,410.990540 
	C253.998917,410.990540 253.922073,411.056030 253.191299,410.933044 
M311.212860,455.272980 
	C304.494568,453.395905 298.137390,454.333893 291.779846,457.136230 
	C280.750671,461.997772 269.497650,466.035126 257.056946,463.469879 
	C255.635452,463.176758 253.752609,463.116760 253.488312,465.171326 
	C253.130859,467.949860 252.064026,470.624207 252.618958,473.553741 
	C254.873184,485.454102 259.835236,496.023804 268.027466,504.965149 
	C270.728851,507.913574 273.671967,510.727905 277.883179,512.055786 
	C277.654449,508.018311 275.142456,504.638123 277.088623,499.410889 
	C286.167633,516.109802 302.458740,522.704651 315.955444,533.560608 
	C322.510101,520.125244 333.031860,511.521118 346.370514,504.838898 
	C346.277649,509.071747 343.343323,510.908905 341.804779,513.709961 
	C366.832367,505.850891 381.570740,483.058044 381.096039,460.230927 
	C380.263733,460.439117 379.444458,460.528046 378.722778,460.841583 
	C362.210114,468.014984 345.663025,468.747681 328.950195,461.426025 
	C323.471893,459.026062 317.931152,456.702515 311.212860,455.272980 
M212.963959,416.990906 
	C214.958466,416.965942 216.960922,416.816864 218.945709,416.943817 
	C222.279785,417.157043 223.958939,415.934235 223.700653,412.379547 
	C223.581390,410.738251 223.854675,409.064240 223.999268,407.409332 
	C224.110199,406.139679 223.916016,404.878296 222.544724,404.612366 
	C215.473999,403.241211 208.372726,402.626801 200.980957,403.640228 
	C203.925064,411.093140 207.804138,415.608398 212.963959,416.990906 
M404.548157,456.004211 
	C407.045624,454.518066 409.543091,453.031891 412.334869,451.370605 
	C408.460754,447.687653 404.126221,446.409241 400.039673,444.681824 
	C399.243103,444.345123 398.466248,444.441010 397.672668,444.897461 
	C391.441833,448.481445 388.174805,457.282349 390.263550,465.438263 
	C394.870972,462.385651 399.401001,459.384308 404.548157,456.004211 
M223.280914,423.202698 
	C220.953491,421.827148 218.747467,421.699310 216.406448,423.831512 
	C218.274841,427.823669 221.817993,429.584503 225.851608,432.647095 
	C224.895477,428.936981 224.244339,426.410370 223.280914,423.202698 
z"/>
<path fill="#3a24" opacity="1.000000" stroke="none" 
	d="
M339.309692,189.962189 
	C339.388641,200.235825 337.927582,209.670639 333.277710,219.691467 
	C331.401093,215.969330 332.052246,213.397690 332.215973,210.825104 
	C333.232391,194.853195 333.415375,178.835739 329.203186,163.291458 
	C324.897156,147.400848 315.224487,134.759003 302.854675,124.103592 
	C301.728333,123.133369 300.626007,122.132530 299.564026,121.093292 
	C299.399017,120.931824 299.511627,120.486664 299.476776,119.793198 
	C303.865845,120.378036 307.046875,123.064445 310.237640,125.513634 
	C329.763367,140.501282 339.496735,160.325150 339.307831,184.976257 
	C339.296356,186.474319 339.308258,187.972565 339.309692,189.962189 
z"/>
<path fill="#12a553" opacity="1.000000" stroke="none" 
	d="
M299.355896,620.997803 
	C300.764160,627.782715 300.894287,634.093201 298.162811,640.437439 
	C297.808380,638.155640 297.433868,635.876770 297.102753,633.591553 
	C295.065155,619.529053 287.693542,607.385193 282.977570,594.286438 
	C278.574127,582.055725 276.634338,569.535950 278.587189,556.564026 
	C278.921783,554.341492 279.254425,552.120300 281.023834,550.419861 
	C282.670685,551.664246 282.191345,553.090515 282.046997,554.292419 
	C280.429749,567.760620 284.117706,580.226440 288.912872,592.562805 
	C292.519012,601.840149 297.106476,610.763611 299.355896,620.997803 
z"/>
<path fill="#3a24" opacity="1.000000" stroke="none" 
	d="
M230.715393,313.266998 
	C231.376801,307.458771 232.840515,302.402435 235.976532,297.929474 
	C243.593933,287.064514 257.143372,285.738525 266.641266,294.936615 
	C277.139923,305.103882 277.604675,328.941406 267.508545,339.419922 
	C257.236450,350.081055 240.157578,347.195374 233.889130,333.705872 
	C230.941483,327.362640 230.330093,320.616364 230.715393,313.266998 
M243.553452,298.999847 
	C234.640076,308.721832 233.852478,325.008911 241.729523,335.409149 
	C246.269623,341.403564 256.388641,345.756866 263.702454,338.204071 
	C256.021332,340.918091 250.632492,339.627197 246.811218,333.767639 
	C242.151047,326.621735 240.898544,318.658081 244.328766,310.909973 
	C247.277328,304.249786 252.147675,298.916962 260.882050,299.523987 
	C256.146393,293.716644 251.159363,293.538513 243.553452,298.999847 
M259.444550,308.075684 
	C257.552734,310.736725 257.953064,313.398071 259.747040,315.828369 
	C261.527435,318.240265 263.357880,317.803345 264.681885,315.309174 
	C266.557770,311.775391 264.160645,307.903137 259.444550,308.075684 
z"/>
<path fill="#3a24" opacity="1.000000" stroke="none" 
	d="
M381.381042,348.979797 
	C369.469116,342.263092 365.855133,331.821686 366.697968,319.258972 
	C367.457520,307.937836 373.267456,299.864655 383.222107,294.886566 
	C397.052582,287.970306 415.057770,298.276794 418.315338,314.221252 
	C422.575714,335.073669 407.500397,348.688385 390.968109,350.858002 
	C387.688049,351.288452 384.771973,349.930420 381.381042,348.979797 
M382.830383,303.114410 
	C380.743286,304.405670 378.876556,305.908813 377.359833,308.608154 
	C373.269623,313.972229 371.382874,320.144775 371.413177,326.771515 
	C371.471893,339.619751 380.968658,347.702850 392.398071,345.114899 
	C397.665863,343.922089 401.766815,340.977783 405.603424,337.448547 
	C416.525146,327.401733 415.547455,308.772949 399.154510,300.438232 
	C393.940430,297.787231 388.137299,298.190674 382.830383,303.114410 Z"/>
<path fill="#3a241d" opacity="1.000000" stroke="none" 
	d="
M401.704651,257.065857 
	C408.698395,260.831146 414.619537,265.058014 416.447052,272.771698 
	C414.804474,274.429108 413.626434,273.688812 412.723083,273.193176 
	C401.782013,267.189941 390.056793,266.156982 377.886963,267.256378 
	C375.450958,267.476440 371.710388,268.787109 370.695343,265.897736 
	C369.612305,262.814880 372.841644,260.595917 375.153809,258.787018 
	C383.423431,252.317322 392.255676,252.382919 401.704651,257.065857 
Z"/>
<path fill="#3a241d" opacity="1.000000" stroke="none" 
	d="
M235.734222,270.070129 
	C240.133408,253.973755 260.095276,247.843704 272.135925,258.515167 
	C273.119141,259.386566 274.112122,260.362885 274.741943,261.490692 
	C275.769684,263.331146 277.264099,265.455414 275.580078,267.457397 
	C274.099884,269.217041 272.109406,267.760315 270.501526,267.176788 
	C259.836914,263.306396 250.018478,263.977753 241.252762,271.947571 
	C239.045319,273.954559 236.243073,275.878296 235.734222,270.070129 
z"/>
<path fill="#3a24" opacity="1.000000" stroke="none" 
	d="
M254.035812,410.956085 
	C254.401703,410.888214 254.732452,410.813812 255.059387,410.828003 
	C257.200623,410.920685 260.163818,409.718964 260.311615,413.407410 
	C260.402161,415.667297 258.817810,417.310883 256.538635,417.128326 
	C253.133896,416.855652 252.757584,414.527191 253.818024,411.390686 
	C253.922073,411.056030 253.998917,410.990540 254.035812,410.956085 
z"/>
<path fill="#12a553" opacity="1.000000" stroke="none" 
	d="
M355.898956,429.549347 
	C357.523651,427.134705 359.287140,426.985870 360.741455,429.045837 
	C361.791870,430.533722 360.901978,431.905823 359.379852,432.592987 
	C356.692719,433.806122 355.825836,432.373077 355.898956,429.549347 
z"/>
<path fill="#12a553" opacity="1.000000" stroke="none" 
	d="
M264.562988,430.587158 
	C264.284393,427.643219 265.629181,426.564606 268.023468,427.153320 
	C269.420624,427.496857 270.246826,428.797455 269.343048,430.181915 
	C268.179382,431.964539 266.636749,433.152222 264.562988,430.587158 
z"/>
<path fill="#12a553" opacity="1.000000" stroke="none" 
	d="
M354.636169,412.186096 
	C356.530334,410.237457 358.345428,409.968567 359.583710,412.210175 
	C360.459106,413.794769 359.257538,415.187683 357.851135,415.659454 
	C355.148407,416.566101 354.480011,414.797882 354.636169,412.186096 
z"/>
<path fill="#12a553" opacity="1.000000" stroke="12a553" 
	d="
M377.887024,308.255432 
	C378.876556,305.908813 380.743286,304.405670 383.474152,302.842621 
	C391.307526,299.496063 396.699677,300.801025 400.954254,307.307312 
	C406.219055,315.358429 406.969147,324.102966 403.239197,332.981628 
	C400.807281,338.770538 395.043762,342.195618 389.381897,341.809998 
	C382.626038,341.349915 377.867096,337.644562 375.960602,331.012817 
	C373.720062,323.219238 373.930969,315.560242 377.887024,308.255432 
M388.624908,313.992157 
	C390.684753,316.051300 392.913147,316.555389 395.159973,314.399567 
	C396.824371,312.802551 397.012817,310.903198 395.447998,309.082275 
	C394.149445,307.571136 392.688721,305.689758 390.467133,306.827698 
	C387.849731,308.168365 386.546021,310.387207 388.624908,313.992157 
z"/>
</svg>