<?xml version="1.0" encoding="UTF-8"?>
<svg id="katman_2" data-name="katman 2" xmlns="http://www.w3.org/2000/svg" viewBox="0 0 110.64 141.4">
  <defs>
    <style>
      .cls-1 {
        fill: #d7e0f1;
      }

      .cls-2 {
        fill: #daf2e8;
      }

      .cls-3 {
        fill: #258c8e;
      }

      .cls-4 {
        fill: #fde077;
      }

      .cls-5 {
        fill: #2a1e15;
      }

      .cls-6 {
        fill: #fff;
      }

      .cls-7 {
        fill: #32b3af;
      }

      .cls-8 {
        fill: #c6c24d;
      }

      .cls-9 {
        fill: #fc9225;
      }
    </style>
  </defs>
  <g id="katman_2-2" data-name="katman 2">
    <g id="_Üretken_Nesne" data-name="Üretken Nesne">
      <path class="cls-3" d="M102.45,55.25c-.2,3.57-.64,7.18-1.19,10.71-1.37-.85-4.83-1.91-6.43-1.9l7.62-8.8Z"/>
      <g>
        <path class="cls-9" d="M76.51,129.74c3.77,3.14.48,17.83-3.45,8.57-.99,3.88-4.02,4.11-4.76,0-3.53,7.62-6.06-1.1-5.12-5.24.85-3.76,3.83-4.29,4.88-.48,1.82-5.45,4.42-.95,4.76-.95.18,0,1.54-1.74,1.9-1.9.33-.15,1.45.14,1.78,0Z"/>
        <g>
          <path class="cls-9" d="M37.48,131.64c.22.34.2.63.36.95.26-.04.03-.79.12-.95,1.41-2.66,3.77-1.95,4.64.71,1.3-3.82,4.1-2.69,4.88.71.93,4.06-1.3,12.86-4.88,5.47-1.14,3.84-3.94,3.52-4.76-.24-4.15,9.41-7.56-5.72-3.45-8.57,1.64.73,1.45-.57,3.09,1.9Z"/>
          <path class="cls-2" d="M37.96,131.64c-.09.16.14.91-.12.95-.16-.33-.13-.61-.36-.95h.48Z"/>
        </g>
      </g>
      <g>
        <path class="cls-3" d="M96.98,112.6c-4.99,7.62-12.12,13.51-20.47,17.13-.33.14-1.46-.15-1.78,0-.37.16-1.72,1.9-1.9,1.9-.34,0-2.94-4.49-4.76.95-1.05-3.81-4.02-3.28-4.88.48h-15.71c-.78-3.41-3.58-4.53-4.88-.71-.87-2.66-3.24-3.37-4.64-.71h-.48c-1.64-2.48-1.45-1.18-3.09-1.9-8.62-3.81-15.54-9.15-20.7-17.13,5.67-5.99,8.92-12.05,13.33-18.8,7.46,32,49.39,31.88,56.64-.24,4.52,7.09,7.34,12.72,13.33,19.04Z"/>
        <g>
          <path class="cls-8" d="M101.26,65.96c14.16,8.8,9.5,40.86,4.05,53.9-.48.41-7.62-6.51-8.33-7.26-5.99-6.32-8.81-11.95-13.33-19.04-.28-.44-.59-1.34-.95-1.9-2.76-6.51-3.68-13.88,0-20.23,2.27-3.91,7.56-7.37,12.14-7.38,1.6,0,5.05,1.05,6.43,1.9Z"/>
          <path class="cls-8" d="M16.07,64.06c2.51.03,6.46,1.79,8.45,3.33.99.77,2.98,3.53,3.69,3.81,2.92,7.24,2.88,14.17-.71,21.18-.18.28-.43,1.36-.48,1.43-4.4,6.75-7.65,12.81-13.33,18.8-2.47,2.62-5.4,4.86-7.97,7.38-6-12.96-10.46-44.73,3.69-53.78,1.97-1.26,4.28-2.17,6.66-2.14Z"/>
        </g>
        <path class="cls-3" d="M58.9,61.68c5.78,7.01,14.77,10.38,23.8,9.76-3.68,6.35-2.76,13.72,0,20.23-16.6-25.41-38.95-24.1-55.21.71,3.6-7.01,3.63-13.94.71-21.18,6.1,2.34,19.94-3.97,23.56-9.52,2.97,4.17,4.07,4.21,7.14,0Z"/>
        <g>
          <path class="cls-1" d="M82.7,91.66c.37.56.67,1.47.95,1.9-7.25,32.11-49.17,32.24-56.64.24.04-.06.29-1.15.48-1.43,16.25-24.81,38.61-26.12,55.21-.71Z"/>
          <path class="cls-3" d="M49.26,93.8c.91-.26,2.33,3.83,4.76,4.28,3.61.67,5.13-1.65,6.9-4.28.55-.08,2.09,2.94,2.86,3.57,3.43,2.81,7.66,1.05,9.52-2.62,2.48-.19-.34,3.13-1.19,3.81-3.73,2.97-8.72,1.75-10.95-2.38-3.3,4.5-8.4,4.71-11.66,0-3.44,5.84-10.36,4.97-13.45-.59,1.1-2.24,2.76,1.99,4.64,2.74,3.96,1.57,6.98-1.14,8.57-4.52Z"/>
          <path class="cls-3" d="M39.74,84.04c.3,0,1.65,2.24,2.14,2.62,3.21,2.49,6.32.67,7.85-2.62,1.21-.34,2.39,5.76,7.62,3.33,1.42-.66,1.88-2.28,2.86-3.33,1-.19,2.59,5.8,7.62,3.09,1.61-.86,1.76-2.79,3.33-2.86,1.63.68-2.88,4.77-4.76,5-3.74.46-5.6-2.85-5.95-2.86-.27,0-1.44,1.61-1.9,1.9-2.97,1.86-6.46,1.14-8.33-1.9-2.28,2.44-4.84,3.76-8.09,2.14-1.1-.55-4.56-4.52-2.38-4.52Z"/>
          <path class="cls-3" d="M49.26,104.27c.21,0,1.96,2.62,2.62,3.09,1.98,1.43,4.32,1.54,6.43.24.67-.41,3.75-5.25,3.69-2.26-.06,2.65-5.55,4.99-7.97,4.64-2.66-.39-7.27-5.71-4.76-5.71Z"/>
        </g>
      </g>
      <g>
        <path class="cls-7" d="M95.07,24.31c7.24,7.88,7.95,20.84,7.38,30.94l-7.62,8.8c-4.57,0-9.87,3.47-12.14,7.38-9.03.62-18.02-2.74-23.8-9.76.85-1.16,2.4-4.32,2.86-5.71,15.41,14.73,39.98-2.96,29.27-22.01-9.65-17.18-36.24-7.6-34.74,11.54-.35-.22-1.23-.26-1.67-.24.47-2.48-1.89-9.27-3.33-11.54-8.72-13.73-30.96-10.41-33.79,5.71-3.23,18.36,17.97,29.09,31.17,16.54.22.68,2.6,5.02,3.09,5.71-3.62,5.54-17.46,11.86-23.56,9.52-.71-.27-2.7-3.04-3.69-3.81-1.98-1.54-5.94-3.3-8.45-3.33l-7.85-8.57c-.61-10.08.17-23.3,7.38-31.17,10.56-11.53,35.36-6.19,39.86,9.04,4.12-15.42,29.14-20.46,39.62-9.04Z"/>
        <path class="cls-3" d="M95.07,24.31c-10.49-11.42-35.5-6.37-39.62,9.04-4.5-15.23-29.3-20.57-39.86-9.04-4.26-5.21-6.84-12.63-6.19-19.39.83-8.61,3-3.76,7.02-1.55,14.87,8.17,63.45,7.99,78.29-.24,3.84-2.13,5.79-6.57,6.54,2.02.59,6.74-1.88,14.02-6.19,19.16Z"/>
        <path class="cls-3" d="M16.07,64.06c-2.39-.03-4.69.88-6.66,2.14-.36-3.55-.97-7.14-1.19-10.71l7.85,8.57Z"/>
        <path class="cls-9" d="M56.28,45.49c.41.26,6.07,7.02,6.19,7.5.26,1.07-.4,2.03-.71,2.97-.46,1.39-2.01,4.55-2.86,5.71-3.07,4.21-4.17,4.17-7.14,0-.5-.7-2.88-5.03-3.09-5.71-.19-.59-.62-2.45-.48-2.97.25-.95,6.18-6.42,6.43-7.73.44-.02,1.32.02,1.67.24Z"/>
        <g>
          <path class="cls-4" d="M54.62,45.26c-.25,1.32-6.17,6.79-6.43,7.73-.14.53.29,2.39.48,2.97-13.2,12.55-34.4,1.82-31.17-16.54,2.84-16.12,25.07-19.44,33.79-5.71,1.45,2.28,3.8,9.06,3.33,11.54Z"/>
          <g>
            <path class="cls-6" d="M36.89,30.74c17.06-1.1,17.56,24.38,1.19,24.75s-16.93-23.74-1.19-24.75Z"/>
            <path class="cls-5" d="M36.89,35.5c.57-.09,3.75-.07,4.05.24.28.29.03,1.15.36,1.55,2.18,2.68,4.23-.62,4.76,4.05,1.34,11.78-17.9,11.55-14.75-.95.47-.81,1.13.71,1.78.83,1.68.3,2.88-1.41,2.5-2.97-.21-.85-3.25-2.02,1.31-2.74Z"/>
          </g>
        </g>
        <g>
          <path class="cls-4" d="M61.76,55.96c.31-.94.98-1.9.71-2.97-.12-.47-5.78-7.23-6.19-7.5-1.49-19.14,25.09-28.72,34.74-11.54,10.71,19.05-13.86,36.75-29.27,22.01Z"/>
          <g>
            <path class="cls-6" d="M71.39,30.74c16.85-1.31,18.86,22.62,3.81,24.51-18.23,2.29-19.27-23.31-3.81-24.51Z"/>
            <path class="cls-5" d="M70.2,35.5c1.89-.33,4.77.03,6.31,1.31-3.18.93-2.13,5.31,1.07,4.64.68-.14,1.29-1.62,1.78-.83,1.77,6.3-3.84,11.14-9.88,9.16-6.85-2.24-6.06-13.08.71-14.28Z"/>
          </g>
        </g>
      </g>
    </g>
  </g>
</svg>