<?xml version="1.0" encoding="UTF-8"?>
<svg id="katman_2" data-name="katman 2" xmlns="http://www.w3.org/2000/svg" viewBox="0 0 340.62 286.74">
  <defs>
    <style>
      .cls-1 {
        fill: #f59c16;
      }

      .cls-2 {
        fill: #283a47;
      }

      .cls-3 {
        fill: #e5e5e7;
      }

      .cls-4 {
        fill: #a9d2d6;
      }

      .cls-5 {
        fill: #040607;
      }

      .cls-6 {
        fill: #c3d132;
      }

      .cls-7 {
        fill: #93b02f;
      }

      .cls-8 {
        fill: #e4f3f7;
      }

      .cls-9 {
        fill: #abc02f;
      }

      .cls-10 {
        fill: #d83d1d;
      }

      .cls-11 {
        fill: #b66819;
      }

      .cls-12 {
        fill: #fff;
      }

      .cls-13 {
        fill: #f9af1d;
      }

      .cls-14 {
        fill: #f39c8d;
      }

      .cls-15 {
        fill: #70942d;
      }

      .cls-16 {
        fill: #a85917;
      }

      .cls-17 {
        fill: #e2e14b;
      }

      .cls-18 {
        fill: #5f882e;
      }
    </style>
  </defs>
  <g id="Layer_1" data-name="Layer 1">
    <g id="_Üretken_Nesne" data-name="Üretken Nesne">
      <g>
        <g>
          <path class="cls-4" d="M340.62,223.87v62.87H0v-62.87c22.08,9.81,46.18,15.45,70.35,17.3,33.27,2.54,66.33-3.76,99.79-3.33,27.24.35,54.19,4.72,81.5,3.99,29.91-.8,61.67-5.75,88.98-17.96Z"/>
          <g>
            <path class="cls-12" d="M232.35,254.14c6.79-1.3,6.92,9.77-.33,7.98-3.42-.84-3.39-7.27.33-7.98Z"/>
            <path class="cls-12" d="M271.6,256.13c6.11-1.33,6.82,7.12,2.33,7.98-5.7,1.1-6.72-7.03-2.33-7.98Z"/>
            <path class="cls-12" d="M151.85,255.47c5.46-.48,5.92,7.62,1.33,8.32-5.67.86-6.37-7.87-1.33-8.32Z"/>
            <path class="cls-12" d="M309.85,254.8c6.97-1.28,6.47,9.62-.33,7.98-3.35-.81-3.52-7.27.33-7.98Z"/>
            <path class="cls-12" d="M190.43,256.13c5.52-.48,6.01,7.87,1,8.32-5.46.48-5.86-7.89-1-8.32Z"/>
            <path class="cls-12" d="M111.93,255.13c5.99-1.44,7.1,7.13,2.33,7.98-5.75,1.02-6.47-6.99-2.33-7.98Z"/>
            <path class="cls-12" d="M64.36,255.8c6.41-.77,6.29,9.7-.67,7.98-3.63-.89-3.23-7.52.67-7.98Z"/>
            <path class="cls-12" d="M22.79,254.8c6.43-1.55,7.07,7.45,2,7.98-5.36.57-5.83-7.06-2-7.98Z"/>
          </g>
        </g>
        <g>
          <path class="cls-1" d="M184.61,207.9c6.99-.75,14.02-2.28,20.62-4.66,2.6,3.18,13.56,10.16,12.31,14.8-3.14,3.98-7.5-.64-11.14-1.5-1.08,2.13-.84,4.5-2.99,5.99-3.46-.9-5.06-4.51-7.98-6.32-1.78.15-5.4,16.42-10.81-8.32Z"/>
          <path class="cls-1" d="M156.34,207.9c-.48,2.42-3.58,13.48-5.82,13.97-2.8.61-3.5-5.75-5.65-5.32-.69.14-5.15,5.89-6.99,5.99-2.61-.85-2.47-3.87-3.33-5.99-.92-.49-9.68,6.07-11.14,1.5s9.61-11.74,12.31-14.8c6.64,2.38,13.6,3.91,20.62,4.66Z"/>
        </g>
        <g>
          <path class="cls-8" d="M273.09,193.26c5.21.93,10.46,1.87,15.63,2.99,17.71,3.86,35.15,9.09,51.89,15.97v11.64c-27.31,12.21-59.07,17.17-88.98,17.96-27.31.73-54.26-3.64-81.5-3.99-33.46-.43-66.52,5.86-99.79,3.33-24.17-1.84-48.27-7.49-70.35-17.3v-11.64c18.71-7.99,38.54-13.14,58.54-16.96,2.87-.55,5.77-1.18,8.65-1.66,9.93-1.67,33.75-6.03,42.74-5.32,2.23.18,4.86,2.98,6.82,4.32,6.57,4.51,11.27,7.88,18.96,10.64-2.69,3.07-13.75,10.31-12.31,14.8s10.22-1.99,11.14-1.5c.86,2.12.72,5.14,3.33,5.99,1.84-.1,6.3-5.85,6.99-5.99,2.15-.43,2.86,5.94,5.65,5.32,2.24-.49,5.34-11.55,5.82-13.97,9.28.99,18.97.99,28.27,0,5.41,24.74,9.03,8.46,10.81,8.32,2.93,1.81,4.52,5.42,7.98,6.32,2.16-1.49,1.92-3.86,2.99-5.99,3.65.85,8,5.48,11.14,1.5,1.25-4.64-9.71-11.62-12.31-14.8,8.16-2.94,16.44-7.84,22.29-14.3,1.59-.86,1.6-1.24,3.49-1.33,10.09-.47,31.41,3.76,42.08,5.65Z"/>
          <g>
            <path class="cls-12" d="M231.35,213.89c6.3-1.25,7.33,8.01,2.33,8.98-6.79,1.32-7.42-7.97-2.33-8.98Z"/>
            <path class="cls-12" d="M46.74,212.89c6.44-1.61,7.43,7.25,2.99,8.32-6.31,1.52-7.53-7.18-2.99-8.32Z"/>
            <path class="cls-12" d="M267.27,208.9c5.79-1.47,6.86,6.67,2.66,7.65-5.8,1.35-6.51-6.67-2.66-7.65Z"/>
            <path class="cls-12" d="M67.36,206.57c4.9-.68,5.88,6.68,2,7.65-6.03,1.5-6.69-7-2-7.65Z"/>
            <path class="cls-12" d="M303.86,209.23c6.47-1.89,4.47,9.04-.67,5.32-1.92-1.39-1.11-4.8.67-5.32Z"/>
          </g>
        </g>
      </g>
      <g>
        <g>
          <path class="cls-9" d="M63.2,22.96c-.54-.28-.97,1-1,1.16-1.44,10.26,0,27.99,0,39.08-4.34-.04-8.67.29-12.97.33-1.24.01-8.72.32-8.98-.5l21.79-42.08,1.16,2Z"/>
          <path class="cls-7" d="M63.2,22.96l20.29,39.75-.17.83-8.48.33c-.16-.12-.67.25-.83-.67-3.94-.03-7.88.04-11.81,0,0-11.1-1.44-28.83,0-39.08.02-.17.45-1.44,1-1.16Z"/>
          <path class="cls-7" d="M79.83,87.15c-5.89-.19-11.72-.35-17.63-.33,0-6.75-.28-13.56.33-20.29,4.52,0,9.15.28,13.64-.33,5.05,6.25,8.76,14.32,13.64,20.79-.33,1.18-8.72.21-9.98.17Z"/>
          <path class="cls-1" d="M62.04,0c1.14-.18,3.45,6.75,4.66,7.32.87.41,8.02.56,8.15,1.5-.83,1.33-5.76,4.87-5.99,5.99-.12.61,1.88,7.99.83,8.15-1.23-.49-6.51-3.63-7.32-3.66-1.32-.05-5.94,3.35-7.65,3.66-.79-.14,1.02-7.15.83-8.15-.27-1.43-5.07-4.47-5.99-5.99.13-.93,7.28-1.08,8.15-1.5,1.17-.56,2.99-6.19,4.32-7.32Z"/>
          <path class="cls-18" d="M62.2,115.76c6.8,0,13.81.37,20.62.67l3.33,4.32c-.07.14-.16.63-.33,1l-1.16-2c-7.46.61-14.98.33-22.45.33s-14.55.25-21.79-.33l-1.16.67,2.66-3.99c6.76-.18,13.53-.67,20.29-.67Z"/>
          <path class="cls-16" d="M67.19,179.29v14.3c-2.88.48-5.78,1.12-8.65,1.66l-.67-15.97c.22,0,.45,0,.67,0,.64,2.86-.85,12.8,0,14.8.33.77,3.07.25,3.33-.33.85-1.95-.64-11.97,0-14.8.11,0,.22,0,.33,0,1.65,0,3.43.34,4.99.33Z"/>
          <path class="cls-7" d="M62.2,86.82c0,1.22,0,2.44,0,3.66l-19.63-.33c.2-.3.89-2.55,1-2.66.16-.15.67-.34.83-.67,5.93-.01,11.87.01,17.8,0Z"/>
          <path class="cls-15" d="M79.83,87.15c.5.97,1.08,2.08,1.66,2.99l-19.29.67c0-.11,0-.22,0-.33,0-1.22,0-2.44,0-3.66,5.91-.01,11.74.14,17.63.33Z"/>
          <path class="cls-7" d="M62.2,63.2v3.33c-4.74,0-9.59.28-14.3-.33.4-.57,1.02-1.95,1.33-2.66,4.3-.04,8.63-.38,12.97-.33Z"/>
          <path class="cls-15" d="M74.84,63.87c.23.17,1,1.92,1.33,2.33-4.49.61-9.12.33-13.64.33h-.33v-3.33c3.93.04,7.87-.03,11.81,0,.17.92.67.55.83.67Z"/>
          <path class="cls-11" d="M61.87,178.96c-.64,2.83.85,12.85,0,14.8-.25.58-3,1.1-3.33.33-.85-2,.64-11.94,0-14.8.97,0,2.23-.33,3.33-.33Z"/>
          <g>
            <path class="cls-15" d="M62.2,120.08c0,3.21,0,6.44,0,9.65-3.98-1.44-2.95,3.96,0,2,0,7.65,0,15.31,0,22.95l-3.33.5c.83,2.68,1.73,2.82,3.33.5v23.28c-.11,0-.22,0-.33,0-1.1,0-2.36.33-3.33.33-.22,0-.45,0-.67,0-14.74.01-29.5,0-44.24-.5l23.28-30.6-16.96-1,19.29-26.78,1.16-.67c7.24.59,14.53.33,21.79.33Z"/>
            <g>
              <path class="cls-9" d="M52.06,139.05c4.8,1.98-.68,8.62-3.16,3.49-1.47-3.04,1.82-2.05,3.16-3.49Z"/>
              <path class="cls-7" d="M47.07,168.32c3.28.32.42,4.32-.33,4.32-1.09,0-3.98-4.75.33-4.32Z"/>
              <path class="cls-9" d="M56.71,123.08c.11-.05,1.83.37,2.33,0,1.83.78-.2,3.91-1,3.99-.92.09-3.41-3.02-1.33-3.99Z"/>
              <path class="cls-7" d="M62.2,154.68c0,.33,0,.67,0,1-1.6,2.32-2.5,2.18-3.33-.5l3.33-.5Z"/>
              <path class="cls-7" d="M62.2,129.73c0,.66,0,1.33,0,2-2.95,1.97-3.98-3.44,0-2Z"/>
              <path class="cls-7" d="M56.71,169.32c2.91.47-.95,6.09-1.83.83l1.83-.83Z"/>
            </g>
          </g>
          <g>
            <path class="cls-7" d="M62.2,90.48c0,.11,0,.22,0,.33,0,8.31,0,16.64,0,24.95-6.76,0-13.53.49-20.29.67-1.56.04-15.41.66-15.63-.17,5.54-8.63,10.63-17.56,16.3-26.11l19.63.33Z"/>
            <path class="cls-6" d="M56.38,99.79c.22-.1,2.9.03,3.16.83s-1.4,3.12-1.83,3.16c-.68.06-3.41-3.02-1.33-3.99Z"/>
          </g>
          <g>
            <path class="cls-7" d="M93.47,109.11c-1.73,2.3-3.53,4.84-4.99,7.32-1.88-.06-3.78.08-5.65,0-6.81-.29-13.83-.66-20.62-.67,0-8.31,0-16.64,0-24.95l19.29-.67c4.02,6.3,7.75,12.79,11.97,18.96Z"/>
            <path class="cls-9" d="M68.02,99.46c3.32.53.31,4.09-.67,3.99-.41-.04-1.92-2.38-1.83-2.83.08-.36,2.36-1.19,2.49-1.16Z"/>
          </g>
          <g>
            <path class="cls-7" d="M62.2,66.53h.33c-.61,6.73-.33,13.54-.33,20.29-5.93.01-11.86-.01-17.8,0-.16.32-.68.51-.83.67l-9.65-.5c4.48-7.06,9.21-13.92,13.97-20.79,4.71.61,9.56.33,14.3.33Z"/>
            <path class="cls-6" d="M55.38,74.51c2.88-.15.63,3.33,0,3.33-.78,0-2.81-3.18,0-3.33Z"/>
            <path class="cls-17" d="M59.38,78.51c2.13.5-.58,5.75-2.49,1.16l2.49-1.16Z"/>
          </g>
          <g>
            <path class="cls-15" d="M85.82,121.75c-4.34,8.89-8.27,20.51-8.98,30.44-.13,1.79-.33,15.44,1.83,15.47,3.61-5.67,8.01-10.65,12.47-15.63l11.31,14.97c.75,4.13,2.15,8.22,3.99,11.97-13.08-.3-26.19.26-39.25.33-1.56,0-3.34-.34-4.99-.33v-23.28c0-.33,0-.67,0-1,0-7.65,0-15.31,0-22.95,0-.66,0-1.33,0-2,0-3.21,0-6.44,0-9.65,7.47,0,15,.27,22.45-.33l1.16,2Z"/>
            <path class="cls-7" d="M81.66,171.31c.11-.05,1.83.37,2.33,0l.83.83c-.42,7.06-6.58.61-3.16-.83Z"/>
            <path class="cls-7" d="M72.68,126.07c3.37.53-.58,7.71-2.83,1.5.03-.8,2.64-1.53,2.83-1.5Z"/>
            <path class="cls-7" d="M70.02,171.31c1.66-.5,2.97.75,2.16,2.49-1.61,3.45-5.88-1.37-2.16-2.49Z"/>
            <path class="cls-7" d="M71.68,161.66c.95.05.86,2,0,2-.72,0-1.28-2.06,0-2Z"/>
          </g>
        </g>
        <g>
          <g>
            <path class="cls-11" d="M281.41,178.96c.04,5.04-.03,10.09,0,15.13,1.14.05,7.3,2.11,7.65,1l.33-15.8c-.11,5.15.15,10.32,0,15.47-.02.61.33,1.64-.67,1.5-5.17-1.13-10.42-2.07-15.63-2.99v-13.97c2.7,0,5.56-.33,8.32-.33Z"/>
            <path class="cls-16" d="M289.39,179.29l-.33,15.8c-.35,1.11-6.51-.94-7.65-1-.03-5.04.04-10.1,0-15.13,2.65,0,5.39.34,7.98.33Z"/>
          </g>
          <g>
            <path class="cls-15" d="M307.36,149.36l19.63,29.44c-12.49.92-25.09.48-37.59.5-2.59,0-5.34-.33-7.98-.33-.09-9.75,0-19.52,0-29.27l25.95-.33Z"/>
            <path class="cls-7" d="M305.19,168.32c.21-.06,3.7.62,3.83,1.16.39,2.48-1.04,2.85-2.83,3.83-1.31-.08-2.57-4.57-1-4.99Z"/>
            <path class="cls-7" d="M283.9,162c1.71.38.67,3.04-.67,2.66-1.04-.3-1.54-3.15.67-2.66Z"/>
          </g>
          <path class="cls-7" d="M281.08,116.09c.57,1.19.32,2.69.33,3.99l-20.29-.33c.52-1.12,1.13-2.21,1.66-3.33,6.11-.14,12.17-.36,18.29-.33Z"/>
          <g>
            <path class="cls-7" d="M300.7,116.76c.48.48,3.05,6.44,3.99,7.82,5.27,7.67,12.29,14.9,17.63,22.62-.56.75-11.82-.41-13.47.17-.42.15-.95,1.73-1.5,2l-25.95.33v-.33c0-9.75.09-19.52,0-29.27-.01-1.3.24-2.8-.33-3.99.11,0,.22,0,.33,0,6.15.03,12.31-.02,18.46,0,.16.32.68.51.83.67Z"/>
            <path class="cls-6" d="M295.88,123.08c.15-.03,2.73.79,2.83,1.16.28,1.06-1.87,2.89-2.49,2.83-.92-.1-2.54-3.57-.33-3.99Z"/>
            <path class="cls-6" d="M300.2,142.04c.84-.3,1.94,1.01,2.83,1.16-1.51,6.48-5.43-.22-2.83-1.16Z"/>
            <path class="cls-9" d="M285.57,136.38c.68-.31,3.25.35,3.16,1.83-.03.49-1.99,2.17-2.16,2.16-.71-.03-2.79-3.18-1-3.99Z"/>
            <path class="cls-9" d="M286.23,120.75c.56-.06.58,1.26,2,.33,1.36,4.22-4.55,3.25-2-.33Z"/>
          </g>
          <g>
            <path class="cls-7" d="M288.06,88.15c2.88-.02,7.67.71,9.98.67.5.82.85,1.85,1.33,2.66-6.93.25-14.04.67-20.96.67-5.02,0-10.27-.41-15.3-.67.4-.69.74-1.94,1.33-2.66,7.8.13,15.81-.62,23.62-.67Z"/>
            <g>
              <path class="cls-9" d="M300.7,116.76c-.15-.15-.67-.34-.83-.67-6.15-.02-12.31.03-18.46,0v-23.45c-1.34,2.57-3.26,2.97-2.99-.5,6.91,0,14.03-.41,20.96-.67,4.85,8.16,9.88,16.23,14.64,24.45l-13.31.83Z"/>
              <path class="cls-17" d="M291.89,107.44c1.05-.33,1.57.66,1.66.67.15,0,1.74-1.7,2.49.17.81,2-1.2,3.47-2.49,4.49-.79.06-3.95-4.61-1.66-5.32Z"/>
            </g>
            <g>
              <path class="cls-6" d="M278.42,92.14c-.26,3.47,1.65,3.07,2.99.5v23.45c-.11,0-.22,0-.33,0-6.12-.02-12.19.19-18.29.33-3.54.08-7.1-.06-10.64,0-.62-1.06-1.33-2.31-2-3.33,4.25-7.24,8.75-14.38,12.97-21.62,5.03.25,10.28.66,15.3.67Z"/>
              <path class="cls-17" d="M267.94,108.11c.09-.04,1.34.51,2,0,1.89.69-1.13,6.71-3.16,1.5-.02-.6.64-1.29,1.16-1.5Z"/>
            </g>
            <g>
              <path class="cls-6" d="M283.07,45.57l-1.66-1.5v43.58c.14.2,4.31.3,4.49.17.76-.54-1.23-3.72,2.83-1.83.41,1.28.03,1.18-.67,2.16-7.8.05-15.82.8-23.62.67-.97-.02-8.17-.37-8.32-.83l24.95-45.24c.99.12,1.55,2.09,2,2.83Z"/>
              <path class="cls-17" d="M277.25,79.5l1.16.83c.05,2.64-2.92,2.94-2.99,0l1.83-.83Z"/>
              <path class="cls-17" d="M276.25,66.2c2.16.27.6,3.27-.67,2.99s-1.81-3.3.67-2.99Z"/>
            </g>
            <g>
              <path class="cls-9" d="M283.07,45.57c8.26,13.7,15.05,28.35,23.28,42.08-.06,1-6.79,1.13-8.32,1.16-2.31.05-7.1-.68-9.98-.67.69-.99,1.08-.88.67-2.16-4.05-1.89-2.07,1.29-2.83,1.83-.18.13-4.35.03-4.49-.17v-43.58l1.66,1.5Z"/>
              <path class="cls-17" d="M283.57,65.2c1.83.54,5.44-.6,3.83,3.16-1.8,4.2-6.56-.83-3.83-3.16Z"/>
            </g>
          </g>
          <g>
            <path class="cls-7" d="M281.41,149.36v.33c0,9.75-.09,19.52,0,29.27-2.76,0-5.61.33-8.32.33-12.74,0-25.51.14-38.25-.17l15.63-26.44c4.21,4.79,8.02,9.84,11.81,14.97,2.85-5.51,1.87-12.04,1.16-17.96l17.96-.33Z"/>
            <path class="cls-9" d="M268.6,162.66c1.5.23,2.96-.28,3.83,1.16-2.16,6.93-5.88-.14-3.83-1.16Z"/>
            <path class="cls-9" d="M256.96,173.64c6.21-.66,2.24,5.17.17,3.83-.43-.28-1.48-3.42-.17-3.83Z"/>
          </g>
          <g>
            <path class="cls-9" d="M281.41,120.08c.09,9.75,0,19.52,0,29.27l-17.96.33c-.91-7.61-3.32-16.58-6.32-23.62,2.15-1.62,2.91-4.01,3.99-6.32l20.29.33Z"/>
            <path class="cls-17" d="M268.27,139.38c2.72.55-.59,6.67-2.49,1.16.05-.28,2.36-1.19,2.49-1.16Z"/>
            <path class="cls-17" d="M276.92,135.72c1.35.28.74,3.09-.67,2.66-1.23-.37-.88-2.98.67-2.66Z"/>
            <path class="cls-7" d="M268.6,121.42c1.54.28.63,2.73-.33,2.66-1.25-.1-1.6-3.01.33-2.66Z"/>
          </g>
        </g>
        <g>
          <path class="cls-2" d="M250.14,113.1c.66,1.02,1.38,2.27,2,3.33,1.5,2.56,3.85,6.97,4.99,9.65,3,7.04,5.41,16.01,6.32,23.62.71,5.93,1.69,12.46-1.16,17.96-3.79-5.13-7.6-10.18-11.81-14.97-1.6-1.83-3.29-3.59-4.99-5.32-1.01-1.03-1.94-2-2.99-2.99-1.68-1.58-3.38-3.16-4.99-4.82l-.67.33c4.82,17.04,2.81,35.66-9.31,49.06-5.84,6.46-14.13,11.37-22.29,14.3-6.6,2.38-13.64,3.91-20.62,4.66-9.3.99-19,.99-28.27,0-7.03-.75-13.99-2.27-20.62-4.66-7.69-2.76-12.39-6.13-18.96-10.64-4.02-4.06-7.77-8.45-10.31-13.64-1.84-3.75-3.24-7.84-3.99-11.97-1.37-7.53-.03-12.21-.33-18.96-.02-.51.1-1.26,0-1.66l1.66-6.82c-1.49.91-2.7,2.33-3.99,3.49-1.66,1.5-3.09,3.07-4.66,4.66-1.44,1.46-2.64,2.81-3.99,4.32-4.46,4.98-8.86,9.96-12.47,15.63-2.16-.02-1.96-13.67-1.83-15.47.71-9.93,4.64-21.54,8.98-30.44.18-.36.26-.85.33-1,.69-1.36,1.56-3.01,2.33-4.32,1.46-2.48,3.26-5.01,4.99-7.32,6.02-8.02,13.62-14.75,21.29-21.12-.89-20.54-.35-38.89,13.97-54.88,23.07-25.78,64.66-24.27,85.82,2.99,12.16,15.67,12.33,32.8,11.64,51.89,8.55,7.58,17.65,15.46,23.95,25.11Z"/>
          <g>
            <path class="cls-12" d="M102.12,146.36c-.3-1.15-2.14-2.1-2.33-3.33,1.29-1.17,2.5-2.58,3.99-3.49l-1.66,6.82Z"/>
            <g>
              <path class="cls-3" d="M121.74,130.06c-4.87,63.08,100.79,64.3,97.13,1.16l-8.65-19.46c9.39,19.27,23.32,40.56,8.65,61.37-24.69,35.02-112.5,24.94-102.45-28.61.97-5.15,3.36-9.73,5.32-14.47Z"/>
              <g>
                <path class="cls-13" d="M175.63,79.17c.66,1.64,3.87,2.31,5.32,3.66.05,1.19-2.97,2.11-3.83,2.33-3.73.93-13.07,1.1-16.3-1-.43-.28-.86-1.09-.5-1.66.82-.72,3.94-2.52,4.99-2.99,4.71-2.11,5.35-1.75,10.31-.33Z"/>
                <path class="cls-10" d="M180.62,85.16c-1.47,2.99-7.22,11.71-10.81,11.31-2.06-.23-9.27-9.59-10.15-11.64,3.73,1.99,8.03,6.77,12.47,5.65,1.24-.31,7.53-4.3,8.48-5.32Z"/>
                <path class="cls-1" d="M180.95,82.83c.17.15,1,.62,1,.83-.43.53-.87,1-1.33,1.5-.95,1.02-7.24,5.01-8.48,5.32-4.44,1.12-8.74-3.66-12.47-5.65-.2-.48-.75-.71-.67-1.16.35-.49.9-.78,1.33-1.16-.36.57.07,1.39.5,1.66,3.23,2.09,12.57,1.93,16.3,1,.86-.21,3.87-1.14,3.83-2.33Z"/>
              </g>
              <g>
                <path class="cls-12" d="M165.32,79.5c-1.05.47-4.17,2.28-4.99,2.99-.43.38-.98.68-1.33,1.16-.09.45.46.69.67,1.16.87,2.06,8.09,11.41,10.15,11.64,3.59.4,9.34-8.32,10.81-11.31.46-.49.9-.97,1.33-1.5,0-.21-.83-.68-1-.83-1.45-1.35-4.67-2.02-5.32-3.66-1.08-2.71-.09-15.51.67-18.79,3.11-13.46,17.18-17.31,27.78-9.15,15.05,11.59,8.77,37.84,2.49,52.72-.08,1.39,2.87,6.21,3.66,7.82l8.65,19.46c3.66,63.14-102,61.92-97.13-1.16,3.63-8.73,8-17.17,12.64-25.45-5.75-14.33-12.06-37.7-.67-50.56,4.89-5.51,12.19-8.33,19.46-6.49,13.82,3.5,12.18,20.95,12.14,31.93Z"/>
                <path class="cls-14" d="M198.08,76.84c9.19-1.04,10.76,12.4,2.99,13.97-10.59,2.14-11.92-12.96-2.99-13.97Z"/>
                <path class="cls-14" d="M140.54,76.84c9.63-1.17,10.61,12.53,2.99,13.97-10.41,1.97-11.66-12.92-2.99-13.97Z"/>
                <g>
                  <path class="cls-5" d="M147.52,61.21c10.78-1.02,9.38,16.36-1.33,13.31-6.59-1.88-5.41-12.67,1.33-13.31Z"/>
                  <path class="cls-12" d="M151.85,63.2c2.77.06,2.01,5.62-1,3.66-1.67-1.09-.41-3.69,1-3.66Z"/>
                </g>
                <g>
                  <path class="cls-5" d="M191.76,61.21c9.02-.47,9.35,12.74,1.66,13.64-9.66,1.13-10.31-13.19-1.66-13.64Z"/>
                  <path class="cls-12" d="M194.76,63.2c3.57-.88,2.91,5.78-.33,3.66-1.27-.83-.94-3.34.33-3.66Z"/>
                </g>
              </g>
            </g>
          </g>
        </g>
      </g>
    </g>
  </g>
</svg>