<?xml version="1.0" encoding="UTF-8"?>
<svg id="katman_2" data-name="katman 2" xmlns="http://www.w3.org/2000/svg" viewBox="0 0 340.62 370.82">
  <defs>
    <style>
      .cls-1 {
        fill: #f8beaf;
      }

      .cls-2 {
        fill: #1a1a18;
      }

      .cls-3 {
        fill: #4d7280;
      }

      .cls-4 {
        fill: #fff;
      }

      .cls-5 {
        fill: #f18914;
      }

      .cls-6 {
        fill: #f6ab23;
      }

      .cls-7 {
        fill: #e7e8f2;
      }
    </style>
  </defs>
  <g id="Layer_1" data-name="Layer 1">
    <g id="_Üretken_Nesne" data-name="Üretken Nesne">
      <path class="cls-6" d="M92.5,325.64c15.44,10.63,36.7,18.33,55.32,20.56,3.33,8.84-1.53,16.13-11.02,15.67-2.43-.12-12.08-3.56-12.73-3.43-1.32.26-10.32,10.03-13.22,11.26-9.52,4.04-12.9-9.17-17.13-15.18-33.73,3.69-22.37-21.1-1.22-28.88Z"/>
      <path class="cls-6" d="M248.67,325.64c9.88,2.36,31.43,22.91,12.97,28.39-3.55,1.06-13.28.37-14.69.98-.91.39-6.98,14.55-11.75,15.67-6.84,1.6-15.42-11.78-18.6-12.24-.96-.14-10.35,3.37-13.22,3.43-9.4.18-13.25-7.29-10.04-15.67,17.98-2.18,40.46-10.19,55.32-20.56Z"/>
      <g>
        <path class="cls-3" d="M248.67,325.64c-14.86,10.38-37.34,18.38-55.32,20.56-13.69,1.66-31.81,1.64-45.53,0-18.63-2.23-39.88-9.93-55.32-20.56-34.58-23.81-50.95-67.22-44.06-108.44l-.98-.49c-7.87,3.91-38.96,48.34-42.35,49.2-3.75.95-4.38-6.8-4.65-9.55-5.16-52.95,34.13-104.3,77.35-130.22C51.69,46.25,133.49-24.91,210.24,8.41c44.51,19.32,68.98,71.35,52.63,117.74,37.87,22.85,72.85,64.21,77.35,109.66.43,4.32,1.35,29-2.69,30.11-.48-.04-1,.07-1.47,0-3.25-.46-34.99-45.97-43.33-49.2,5.98,41.75-9.09,84.52-44.06,108.93Z"/>
        <path class="cls-7" d="M269.23,259.55c-15.31,54.89-81.26,69.13-130.96,58.26-49.12-10.74-76-50.71-71.72-100.36l1.22-.98c1.07-.09,3.95,9.95,4.65,11.5,39.09,86.89,172.83,79.96,199.99-11.5.31,0,1.2,5.81,1.22,6.12.85,10.39-1.47,26.45-4.41,36.96Z"/>
        <path class="cls-6" d="M183.55,110.24c2.35,1.37,13.85,9.16,8.32,11.26.02-.06-.82-.47.49-1.22-7.53-.8-15.63,4.62-23.74,4.16-1.98-.11-16.83-3.98-18.6-4.9-.1-.05-1.35-1.55-1.22-1.96,2.17-2.82,5.31-5.05,8.32-6.85,10.13-6.08,16.06-6.51,26.44-.49Z"/>
        <path class="cls-5" d="M191.88,121.5c-1.42,4.34-13.4,13.71-17.87,14.69-11.4,2.49-20.72-9.07-27.17-16.89,0-.36,1.75-1.45,1.96-1.71-.13.41,1.12,1.91,1.22,1.96,1.77.91,16.63,4.78,18.6,4.9,8.11.46,16.21-4.96,23.74-4.16-1.31.75-.47,1.16-.49,1.22Z"/>
        <g>
          <path class="cls-4" d="M269.23,259.55c2.93-10.51,5.26-26.58,4.41-36.96-.03-.31-.91-6.12-1.22-6.12-27.16,91.47-160.9,98.39-199.99,11.5-.7-1.56-3.58-11.59-4.65-11.5l-1.22.98c2.36-27.44,15-55.31,31.33-77.11-9.4-20.96-17.15-45.7-4.41-67.07,9.2-15.43,32.31-24.8,48.22-13.95,14.01,9.55,16.49,35.92,15.42,51.4-3.01,1.81-6.15,4.04-8.32,6.85-.21.27-1.96,1.36-1.96,1.71,6.45,7.82,15.77,19.38,27.17,16.89,4.47-.98,16.45-10.35,17.87-14.69,5.53-2.1-5.97-9.89-8.32-11.26-1.54-26.81,7.31-65.03,42.84-53.85s31.23,58.42,16.4,83.96c23.9,31.12,39.52,76.5,28.39,115.54-.21.72-.99,3.69-1.96,3.67Z"/>
          <path class="cls-1" d="M116.73,119.05c13.44-.65,17.55,12.21,4.9,14.2-16.94,2.66-20.28-13.45-4.9-14.2Z"/>
          <path class="cls-1" d="M222.47,119.05c16.72-.28,14.62,17.29-3.43,14.2-11.48-1.97-9.05-13.99,3.43-14.2Z"/>
          <g>
            <path class="cls-2" d="M212.68,80.86c21.2-2.38,21.42,31.41-.98,27.91-14.57-2.28-14.45-26.18.98-27.91Z"/>
            <path class="cls-4" d="M218.07,85.27c7.81-1.98,7.92,9.11,1.96,9.3-5.4.18-6.32-8.2-1.96-9.3Z"/>
            <path class="cls-4" d="M206.81,98.49c1.98-.77,4.39.73,3.43,2.94-1.73,3.95-6.91-1.58-3.43-2.94Z"/>
          </g>
          <g>
            <path class="cls-2" d="M124.56,80.86c18.97-1.62,20.22,25.61,4.41,27.91-20.6,2.99-22.14-26.39-4.41-27.91Z"/>
            <path class="cls-4" d="M129.46,85.27c7.91-1.94,8.46,10.95,0,8.81-3.68-.93-3.66-7.92,0-8.81Z"/>
            <path class="cls-4" d="M118.69,98c2.61-.53,4.17,3.54,1.96,4.41-3.79,1.48-4.62-3.86-1.96-4.41Z"/>
          </g>
        </g>
      </g>
    </g>
  </g>
</svg>