<?xml version="1.0" encoding="UTF-8"?>
<svg id="katman_2" data-name="katman 2" xmlns="http://www.w3.org/2000/svg" viewBox="0 0 99.34 75.7">
  <defs>
    <style>
      .cls-1 {
        fill: #6a2f12;
      }

      .cls-2 {
        fill: #c2c549;
      }

      .cls-3 {
        fill: #957734;
      }

      .cls-4 {
        fill: #a7bb48;
      }

      .cls-5 {
        fill: #fefefe;
      }

      .cls-6 {
        fill: #78c8bd;
      }

      .cls-7 {
        fill: #e6dad0;
      }

      .cls-8 {
        fill: #4d2b1c;
      }

      .cls-9 {
        fill: #9a8439;
      }

      .cls-10 {
        fill: #c7e8e5;
      }

      .cls-11 {
        fill: #fd958d;
      }

      .cls-12 {
        fill: #fb8c65;
      }

      .cls-13 {
        fill: #dde067;
      }
    </style>
  </defs>
  <g id="katman_2-2" data-name="katman 2">
    <g id="_Üretken_Nesne" data-name="Üretken Nesne">
      <g>
        <path class="cls-9" d="M91.29,47.26l-1.36,3.31,2.41-.68c.04.33.1.6.1.94-1.51.15-3-.14-3.46,1.63l3.36-.68c-.02.27-.06.48-.1.73-1.54.46-3.69-.08-4.09,1.84l3.88-.58c-.06.2-.14.43-.21.63-.81.16-3.23.16-3.83.42-.16.07-.54,1.07-.58,1.26-.05.28-.27.19.21.42-.76.36-.72.71-1.05,1.47-.03-.01-.07.01-.1,0-.07-.03-.25-.28-.42-.21.01-.03-.01-.07,0-.1.08-.2.64-.99.63-1.21-.02-.42-2.08-2.2-2.31-2.78.04-.21.23-.7.31-.94l2.15,3.25c.07-.02.6-1.15.58-1.31-.04-.31-1.89-2.66-2.1-3.2.11-.2.19-.43.31-.63l2.1,3.41c1.21-1.72-.69-2.86-1.26-4.46.1-.12.2-.3.31-.42l1.73,3.15c1.14-1.48-.25-2.59-.68-4.09.17-.13.35-.21.52-.31l1.1,2.52,1.42-3.46c.21.02.23.02.42.1Z"/>
        <path class="cls-4" d="M90.87,56.18c-.18.27-.27.58-.52.84-.67.68-1.45,1.09-2.41,1.15-.52.04-.88-.04-1.36-.21.33-.76.29-1.11,1.05-1.47,1-.47,2.18-.27,3.25-.31Z"/>
        <path class="cls-4" d="M92.23,52.51c-.07.42-.1.85-.21,1.26l-3.88.58c.4-1.92,2.56-1.38,4.09-1.84Z"/>
        <path class="cls-4" d="M91.6,47.47c.45.49.65,1.77.73,2.41l-2.41.68,1.36-3.31c.07.03.28.17.31.21Z"/>
        <path class="cls-4" d="M91.81,54.39c-.1.29-.29.57-.42.84l-3.99.84c.03-.19.42-1.19.58-1.26.6-.26,3.02-.26,3.83-.42Z"/>
        <path class="cls-4" d="M92.44,50.83c0,.35-.08.62-.1.94l-3.36.68c.46-1.76,1.96-1.48,3.46-1.63Z"/>
        <path class="cls-9" d="M91.39,55.23c-.21.44-.25.54-.52.94-1.08.04-2.26-.16-3.25.31-.48-.23-.26-.14-.21-.42l3.99-.84Z"/>
        <path class="cls-1" d="M86.46,57.96l-.94,2.52c-.11-.05-.33-.12-.52-.21.29-.86.72-1.67,1.05-2.52.17-.07.35.18.42.21Z"/>
        <path class="cls-4" d="M90.87,47.15l-1.42,3.46-1.1-2.52c.87-.54,1.33-1.05,2.52-.94Z"/>
        <path class="cls-4" d="M86.78,49.36c.24-.25.7-.75.94-.94.02-.02.08.02.1,0,.43,1.5,1.83,2.61.68,4.09l-1.73-3.15Z"/>
        <path class="cls-4" d="M84.68,52.72c.16-.47.4-.83.63-1.26.21.54,2.06,2.89,2.1,3.2.02.16-.51,1.3-.58,1.31l-2.15-3.25Z"/>
        <path class="cls-4" d="M85.62,50.83c.25-.39.54-.7.84-1.05.57,1.6,2.47,2.74,1.26,4.46l-2.1-3.41Z"/>
        <path class="cls-4" d="M86.04,57.65c-1.51-.7-1.94-2.46-1.68-3.99.23.58,2.28,2.36,2.31,2.78.01.22-.55,1-.63,1.21Z"/>
      </g>
      <g>
        <path class="cls-10" d="M91.6,47.47s-.24-.18-.31-.21c-.19-.08-.21-.09-.42-.1-1.19-.11-1.65.41-2.52.94-.18.11-.35.18-.52.31-.02.02-.08-.02-.1,0,.81-12.05-1.72-23.18-9.97-32.16C59.97-3.11,28.47.83,16.05,23.91c-4.37,8.12-4.8,16.14-4.62,25.24-.11-.11-.3-.21-.42-.31s-.29-.21-.42-.31c-.53-.41-.76-.61-1.36-.94-.51-.28-1.11-.69-1.68-.84-.41-10.95,1.88-21.16,8.5-29.96,16.33-21.72,48.7-22.49,66.01-1.47,7.58,9.21,10.24,20.31,9.55,32.16Z"/>
        <path class="cls-10" d="M11.54,58.59c.43.79.91,1.54,1.15,2.41-1.24.64-2.7,1.63-3.88,2.41v-4.93c.92.28,1.78.25,2.73.1Z"/>
        <path class="cls-10" d="M90.34,63.31c-.8-.52-1.69-1.11-2.52-1.57l.1-3.57c.96-.06,1.74-.48,2.41-1.15v6.3Z"/>
        <path class="cls-6" d="M57.6,49.46c.56.77,1.56,1.36,2.52,1.47-.01,1.12-.04,2.25-.21,3.36-.33-.02-.87-.07-1.15.1-.88-1.43-1.96-2.75-2.73-4.25.05-.25,1.34-.55,1.57-.68Z"/>
        <path class="cls-6" d="M40.5,54.29c-.4.19-.89-.11-.94-.1-.03-1.05-.26-2.1-.31-3.15.94-.35,1.93-.7,2.52-1.57.44.25,1.06.34,1.47.68.05.27-2.4,3.62-2.73,4.15Z"/>
        <path class="cls-6" d="M87.93,58.17l-.1,3.57c-.72-.41-1.57-.9-2.31-1.26l.94-2.52s.07-.01.1,0c.49.17.84.25,1.36.21Z"/>
        <g>
          <path class="cls-6" d="M87.72,48.41c-.25.19-.71.69-.94.94-.11.12-.21.3-.31.42-.3.35-.59.65-.84,1.05-.12.19-.21.43-.31.63-.23.43-.47.79-.63,1.26-.08.25-.28.73-.31.94-.26,1.53.17,3.28,1.68,3.99-.01.03.01.07,0,.1-.33.85-.76,1.65-1.05,2.52-2.22-1.04-4.69-1.9-7.03-2.62.2-1.11.66-2.11,1.05-3.15,1.78.36,3.16-.56,4.09-1.99.23-.36.36-.66.52-1.05.24-.56.49-1.08.63-1.68.08-.33.06-.72.1-1.05.05-.38.2-.76.21-1.15,0-.17,0-.35,0-.52,0-.51-.11-1.18-.21-1.68-.03-.14-.07-.28-.1-.42-.21-.81-.79-2.26-1.47-2.73-.44-.3-.2-.11-.52-.1-1.17,0-1.87.58-2.73,1.26-.13.11-.2.22-.31.31-.38.34-.73.65-1.05,1.05-.16.2-.28.42-.42.63-.24.35-.31.46-.52.84-.17.3-.28.53-.42.84-.21.49-.49.92-.63,1.47-.07.29-.18.77-.21,1.05-.23,2.29.63,3.41,2.31,4.83-.31,1.02-.61,2.04-.94,3.04-2.51-.74-5.09-1.3-7.66-1.78l.42-3.25c.16,0,.04-.17.21-.21.32-.08.76,0,1.1-.1,1.37-.42,2.47-1.65,2.99-2.94.1-.25.25-.59.31-.84.15-.57.26-1.29.31-1.89.03-.37,0-.78,0-1.15s.04-.77,0-1.15c-.02-.19-.07-.43-.1-.63-.09-.53-.24-1.07-.42-1.57-.04-.12-.2-.29-.21-.31-.33-.81-.99-2.45-1.99-2.62-.3-.05-.45.07-.63.1-1.23.22-1.65.85-2.41,1.68-.18.2-.26.32-.42.52-.41.53-.61.74-.94,1.36-.1.18-.14.37-.21.52-.16.35-.4.68-.52,1.05-.11.33-.24.71-.31,1.05-.19.79-.31,1.48-.31,2.31,0,.14,0,.28,0,.42.14,2.45,1.05,3.12,3.04,4.09-.15,1.12-.39,2.23-.52,3.36-2.75-.49-5.61-.8-8.4-1.05.1-1.14,0-2.33.1-3.46,1.8-.07,3.33-1.35,3.88-3.04.13-.41.15-.83.21-1.26.08-.65.12-1.23.1-1.89,0-.38-.06-.69-.1-1.05-.06-.49-.13-.65-.21-1.05-.04-.2-.05-.4-.1-.63-.16-.6-.37-1.11-.63-1.68-.07-.16-.13-.27-.21-.42-.51-.96-1.06-2.07-2.2-2.31-.4-.08-.56-.06-.94,0-.66-1.94-1.81-3.66-3.15-5.19,3.48-4.08,7.38-9.23,8.5-14.59,2.03-9.74-3.55-7.43-7.45-1.89-2.97,4.22-4.52,9.26-5.3,14.32-2.29-.59-4.74-.59-7.03,0-.83-5.27-2.5-10.54-5.72-14.85-2.95-3.95-8.33-7.62-7.35.84.69,5.88,5.05,11.8,8.81,16.16-1.59,1.69-2.69,3.6-3.36,5.82-.34-.34-.41-.16-.73-.1-.91.17-1.66,1.32-2.1,2.1-.07.12-.08.26-.1.31-.27.53-.46.88-.63,1.47-.06.22-.17.53-.21.73-.06.33-.07.62-.1.94-.03.29-.09.5-.1.84-.03.72.02,1.38.1,2.1.04.31.02.74.1,1.05.43,1.62,2.12,3.31,3.88,3.25l.1.1.1,3.25s.03.2-.05.21c-2.73.29-5.54.47-8.24.94l-.52-3.36c1.62-.44,2.89-2.39,3.04-3.99.04-.36.02-.89,0-1.26-.04-.78-.3-1.57-.52-2.31-.11-.36-.18-.51-.31-.84-.19-.47-.38-.83-.63-1.26-.1-.18-.2-.35-.31-.52-.3-.45-.57-.76-.94-1.15-.07-.08-.14-.14-.21-.21-.7-.7-1.47-1.51-2.52-1.68-.42-.07-.24-.04-.63.1-1,.39-1.74,1.67-2.1,2.62-.11.3-.13.64-.21.94-.12.48-.25.86-.31,1.36-.02.17.01.35,0,.52-.03.39-.11.74-.1,1.15,0,.24-.02.49,0,.73.04.6.16,1.2.31,1.78.08.32.19.63.31.94.77,1.91,2.37,3.29,4.51,3.15.22,1.11.31,2.25.52,3.36-2.67.5-5.57,1.22-8.19,1.99-.41-.99-.74-2.01-1.05-3.04,1.73-.87,2.44-2.42,2.41-4.3,0-.35-.04-.81-.1-1.15-.14-.79-.51-1.49-.84-2.2-.11-.23-.19-.4-.31-.63-.26-.48-.51-.83-.84-1.26-.13-.17-.27-.36-.42-.52-.41-.46-.6-.58-1.05-.94,0,0-.02-.04-.1-.1-.96-.74-1.73-1.4-3.04-1.36-.28,0-.35-.03-.63.1-.6.29-1.23,2.2-1.36,2.83-.03.14-.09.32-.1.42-.08.52-.1,1.05-.1,1.57,0,.21,0,.42,0,.63.02.42.05.84.1,1.26.04.26.15.67.21.94.16.72.34,1.12.63,1.78.17.39.29.69.52,1.05,1.02,1.56,2.46,2.57,4.41,2.1.06.14.1.1.1.1.35.93.53,1.99.84,2.94-2.48.77-5.33,1.8-7.66,2.94l-1.15-2.41c1.97-1.15,2.11-3.41,1.57-5.35-.13-.47-.22-.63-.42-1.05-.33-.72-.58-1.06-1.05-1.68-.07-.1-.15-.14-.21-.21-.2-.25-.37-.58-.63-.84-.19-9.09.25-17.12,4.62-25.24C28.47.83,59.97-3.11,77.75,16.25c8.25,8.98,10.78,20.12,9.97,32.16Z"/>
          <g>
            <path class="cls-1" d="M29.9,52.09s.07,0,.1,0l.52,3.36c-.2.04-.43.07-.63.1-.22-1.11-.3-2.25-.52-3.36.06,0,.43-.08.52-.1Z"/>
            <path class="cls-1" d="M70.09,52.4l-.42,3.25c-.15-.03-.5-.19-.63-.21.14-1.13.37-2.23.52-3.36.16.08.58.03.52.31Z"/>
            <path class="cls-1" d="M20.67,54.5c.3,1.03.64,2.05,1.05,3.04-.24.07-.5.14-.73.21-.31-.95-.49-2.01-.84-2.94.09-.18.38-.24.52-.31Z"/>
            <path class="cls-1" d="M79.01,54.39s.01.07,0,.1c-.39,1.04-.85,2.04-1.05,3.15-.21-.07-.41-.14-.63-.21.34-1.01.64-2.03.94-3.04,0,0,.06.04.1-.1l.63.1Z"/>
            <g>
              <path class="cls-5" d="M72.35,19.56c2.39-.37,3.75,1.09,4.3,3.25,1.75-.75,3.04.73,3.04,2.41,2.73-.87,3.58,3.51.63,3.99-1.68.27-10.35.25-12.07,0-3.9-.58-2.33-6.13,1.36-5.35-.43-1.71.97-4.03,2.73-4.3Z"/>
              <path class="cls-5" d="M21.03,25.43c1.32-.2,2.81.34,3.52,1.52.2.33.51,1.58.58,1.63.12.08,1.74-.45,2.57.79.22.33.42,1.58.58,1.63.04.01.54-.2.84-.1,2.04.66,1.93,3.71-.42,4.09-1.63.26-10.08.24-11.75,0-3.75-.55-2.33-5.91,1.26-5.25-.21-1.74.97-4.02,2.83-4.3Z"/>
              <path class="cls-5" d="M50.52,5.81c1.11-.23,2.11.24,2.78,1.1.15.2.19.83.37.89.08.03.79-.47,1.57,0,.48.29.72,1.43.84,1.47.03,0,.37-.21.63-.1,1.15.48,1.43,2.27.1,2.73-.75.26-7.92.37-8.81.21-1.71-.31-1.84-2.83-.21-3.36.23-.08.85.08,1.05,0s-.02-.94.05-1.21c.16-.62.98-1.6,1.63-1.73Z"/>
            </g>
          </g>
        </g>
      </g>
      <g>
        <path class="cls-9" d="M72.29,38.97l-.52,3.83,2.52-1.21s.17.19.21.31c-1.48.83-3.17,1.14-3.04,3.2l3.46-1.63c.03.2.08.44.1.63-1.6.81-4.19,1.21-3.99,3.41l3.99-2.26c0,.38.03.78,0,1.15-.67.14-3.72,1.3-4.04,1.68-.15.17-.56,1.7-.1,1.68.63-.02,2.9-1.64,3.83-1.47-.07.25-.21.59-.31.84-1.89.16-4.5.57-4.09,3.04-.17.04-.05.2-.21.21.05-.29-.37-.24-.52-.31.04-.32.38-1.53.31-1.73s-2.91-2.17-3.36-2.36c0-.14,0-.28,0-.42l3.31,2.31c.22-.02.49-1.44.47-1.52-.05-.23-3-2.79-3.46-3.1.08-.34.2-.72.31-1.05l3.25,3.52c-.04-.4.38-1.49.31-1.78-.09-.38-2.72-2.22-3.04-2.78.07-.15.11-.34.21-.52l2.94,2.68c.78-1.83-.96-2.78-1.99-4.04.16-.2.24-.33.42-.52l1.94,2.2.47-3.88c.18-.03.33-.16.63-.1Z"/>
        <path class="cls-4" d="M66.52,47.57c0-.83.13-1.51.31-2.31.46.31,3.41,2.87,3.46,3.1.02.08-.25,1.51-.47,1.52l-3.31-2.31Z"/>
        <path class="cls-4" d="M74.39,49.15c-.52,1.29-1.63,2.52-2.99,2.94-.34.11-.78.03-1.1.1-.41-2.47,2.21-2.89,4.09-3.04Z"/>
        <path class="cls-4" d="M75.02,46.42c-.05.59-.17,1.32-.31,1.89-.93-.17-3.2,1.45-3.83,1.47-.45.02-.04-1.51.1-1.68.32-.38,3.37-1.54,4.04-1.68Z"/>
        <path class="cls-4" d="M69.57,52.09c-1.99-.97-2.91-1.65-3.04-4.09.45.19,3.3,2.17,3.36,2.36s-.27,1.41-.31,1.73Z"/>
        <path class="cls-4" d="M67.15,44.22c.13-.37.36-.7.52-1.05.32.57,2.96,2.4,3.04,2.78.07.3-.35,1.38-.31,1.78l-3.25-3.52Z"/>
        <path class="cls-4" d="M67.89,42.64c.34-.63.53-.83.94-1.36,1.03,1.26,2.78,2.21,1.99,4.04l-2.94-2.68Z"/>
        <path class="cls-4" d="M75.02,44.11c.04.39,0,.77,0,1.15l-3.99,2.26c-.21-2.2,2.39-2.6,3.99-3.41Z"/>
        <path class="cls-4" d="M74.29,41.59l-2.52,1.21.52-3.83c1.01.17,1.66,1.82,1.99,2.62Z"/>
        <path class="cls-4" d="M74.92,43.48l-3.46,1.63c-.13-2.06,1.56-2.37,3.04-3.2.18.5.33,1.05.42,1.57Z"/>
        <path class="cls-4" d="M71.67,39.07l-.47,3.88-1.94-2.2c.77-.83,1.19-1.46,2.41-1.68Z"/>
      </g>
      <g>
        <g>
          <path class="cls-9" d="M5.97,46.52l1.94,3.46c.15-.04.72-2.47,1.31-2.41.14.15-1.05,2.64-1.05,2.89,0,.16.76,1.37.89,1.63l1.52-3.57c.13.1.3.21.42.31-.45,1.66-2.5,3.96-.73,5.3l1.78-4.15c.06.07.14.11.21.21l-1.78,4.46.68,1.52,2.15-4.3c.2.42.29.58.42,1.05-1.15,1.56-3.06,3.42-1.68,5.35-.13.06-.38.08-.52.21-.17-.3-.34-.97-.52-1.21-.75-.94-3.28-.72-4.41-.58-.31-.41-.4-.63-.63-1.05l4.35.94c.63.09-.44-1.63-.52-1.68-.65-.35-3.57-.41-4.46-.63-.09-.23-.14-.4-.21-.63l4.35.84c-.1-2.38-2.95-1.61-4.67-1.89-.05-.23-.18-.62-.21-.84l3.99.58c-.19-.19-.67-1.34-.79-1.42-.47-.31-2.65-.28-3.31-.42,0-.17,0-.35,0-.52l3.04.37-2.1-3.41c.13-.14.01-.36.52-.42Z"/>
          <path class="cls-4" d="M11.54,58.49s-.01.08,0,.1c-.95.14-1.8.17-2.73-.1-.98-.29-1.61-1.01-2.2-1.78,1.13-.14,3.66-.36,4.41.58.19.24.36.91.52,1.21Z"/>
          <path class="cls-4" d="M5.97,55.65c-.29-.54-.41-.79-.63-1.36.89.22,3.81.28,4.46.63.09.05,1.15,1.77.52,1.68l-4.35-.94Z"/>
          <path class="cls-4" d="M4.51,49.99c.04-.95.28-2.35.94-3.04l2.1,3.41-3.04-.37Z"/>
          <path class="cls-4" d="M5.13,53.66c-.12-.41-.22-.58-.31-1.05,1.72.28,4.57-.49,4.67,1.89l-4.35-.84Z"/>
          <path class="cls-4" d="M4.61,51.77c-.04-.36-.1-.9-.1-1.26.66.14,2.83.11,3.31.42.12.08.59,1.23.79,1.42l-3.99-.58Z"/>
          <path class="cls-4" d="M7.55,46.73c.57.15,1.16.56,1.68.84-.59-.06-1.17,2.38-1.31,2.41l-1.94-3.46c.32-.04,1.24.12,1.57.21Z"/>
          <path class="cls-1" d="M12.06,58.28s.08.01.1,0l1.15,2.41c-.2.1-.43.21-.63.31-.25-.87-.73-1.63-1.15-2.41-.01-.03.01-.08,0-.1.14-.13.4-.15.52-.21Z"/>
          <path class="cls-4" d="M11.43,49.15c.26.26.43.59.63.84l-1.78,4.15c-1.76-1.34.28-3.64.73-5.3.12.11.31.2.42.31Z"/>
          <path class="cls-4" d="M10.59,48.52l-1.52,3.57c-.14-.26-.89-1.47-.89-1.63,0-.25,1.19-2.74,1.05-2.89.61.33.84.53,1.36.94Z"/>
          <path class="cls-4" d="M12.17,58.28s-.08-.01-.1,0c-1.38-1.94.53-3.79,1.68-5.35.53,1.94.39,4.2-1.57,5.35Z"/>
          <path class="cls-4" d="M13.32,51.88l-2.15,4.3-.68-1.52,1.78-4.46c.47.62.72.96,1.05,1.68Z"/>
        </g>
        <g>
          <path class="cls-9" d="M16.36,42.01l1.21,3.78,1.84-2.41c.08.06.1.1.1.1-.64,1.54-2.44,2.84-1.1,4.51l2.15-3.57c.14.16.29.35.42.52-.1.93-2.17,3.01-2.31,3.62-.09.42.34,1.14.42,1.57l.16.16c.24-.01,2.08-3.74,2.57-4.09.13.23.21.4.31.63-.33.6-2.69,3.68-2.73,4.04,0,.09.49,1.62.58,1.63.97-1.15,1.84-2.52,2.99-3.46.06.35.1.8.1,1.15-.59.39-2.85,2.18-2.94,2.78-.05.31.42,1.18.52,1.52-.14.07-.43.13-.52.31,0,0-.05.04-.1-.1-.12-.31-.48-1.55-.68-1.68-.5-.31-3.02-.37-3.73-.42-.23-.36-.36-.66-.52-1.05l4.15,1.05c.02-2.34-3.09-2.19-4.77-2.83-.06-.28-.17-.69-.21-.94l4.3,1.52c-.38-2.2-2.7-2.02-4.41-2.78,0-.21,0-.42,0-.63.5.06,3.45,1.52,3.57,1.1-.27-2.01-1.85-2.09-3.46-2.68.02-.1.07-.28.1-.42.43-.03,2.41,1.21,2.62.89l-1.26-3.73c.28-.13.35-.1.63-.1Z"/>
          <path class="cls-4" d="M22.97,49.04c-1.15.94-2.02,2.31-2.99,3.46-.09-.01-.59-1.54-.58-1.63.04-.36,2.4-3.44,2.73-4.04.33.71.7,1.42.84,2.2Z"/>
          <path class="cls-4" d="M15.1,51.56c-.29-.66-.47-1.07-.63-1.78,1.69.65,4.8.49,4.77,2.83l-4.15-1.05Z"/>
          <path class="cls-4" d="M21.82,46.21c-.49.35-2.33,4.08-2.57,4.09l-.16-.16c-.08-.43-.51-1.15-.42-1.57.14-.61,2.21-2.69,2.31-3.62.33.43.57.78.84,1.26Z"/>
          <path class="cls-4" d="M20.04,54.71c-1.95.47-3.39-.54-4.41-2.1.71.05,3.22.11,3.73.42.2.13.56,1.37.68,1.68Z"/>
          <path class="cls-4" d="M20.67,54.5c-.1-.34-.57-1.21-.52-1.52.09-.6,2.35-2.4,2.94-2.78.03,1.88-.69,3.44-2.41,4.3Z"/>
          <path class="cls-4" d="M14.26,48.83c-.06-.42-.09-.84-.1-1.26,1.71.76,4.03.59,4.41,2.78l-4.3-1.52Z"/>
          <path class="cls-4" d="M19.41,43.38l-1.84,2.41-1.21-3.78c1.31-.04,2.08.63,3.04,1.36Z"/>
          <path class="cls-4" d="M14.16,46.94c0-.53.02-1.05.1-1.57,1.61.58,3.19.67,3.46,2.68-.12.42-3.07-1.04-3.57-1.1Z"/>
          <path class="cls-4" d="M20.56,44.43l-2.15,3.57c-1.34-1.67.46-2.97,1.1-4.51.45.37.64.49,1.05.94Z"/>
          <path class="cls-4" d="M14.37,44.95c.14-.64.76-2.55,1.36-2.83l1.26,3.73c-.21.32-2.19-.93-2.62-.89Z"/>
        </g>
      </g>
      <g>
        <path class="cls-9" d="M27.59,38.86l.58,3.67,1.94-1.99c.07.07.14.13.21.21-.95,1.51-2.57,2.27-1.68,4.25l2.62-3.1c.12.17.21.35.31.52-.8,1.82-3.55,2.85-2.41,5.09l3.04-3.83c.13.33.21.48.31.84-.42.48-3.18,3.3-3.25,3.62-.03.14.28,1.71.37,1.73l3.41-3.04c.02.37.04.9,0,1.26-.65.27-3.22,1.66-3.36,2.26-.08.36.34,1.28.21,1.73-.1.02-.47.1-.52.1-.06-.31-.12-1.21-.21-1.42-.44-1.02-3.28-1.43-4.3-1.73-.13-.31-.23-.62-.31-.94l4.41,1.84c-.1-.39-.12-1.48-.37-1.73-.38-.39-3.65-1.49-4.35-1.89-.02-.24,0-.49,0-.73l4.3,2.15c-.09-.45-.15-1.77-.47-2.05-.39-.34-3.07-.94-3.73-1.26.01-.17-.02-.36,0-.52l3.78,1.21c.04-2.21-1.88-1.94-3.46-2.57.08-.3.1-.65.21-.94.72.12,1.86,1.02,2.47,1.15.2.04.21.17.37-.05l-.73-3.73c.39-.15.21-.17.63-.1Z"/>
        <path class="cls-4" d="M33.05,46.84l-3.41,3.04c-.09-.03-.4-1.59-.37-1.73.07-.32,2.83-3.14,3.25-3.62.22.74.48,1.53.52,2.31Z"/>
        <path class="cls-4" d="M29.38,52.19c-2.14.14-3.74-1.24-4.51-3.15,1.02.3,3.86.71,4.3,1.73.09.2.15,1.11.21,1.42Z"/>
        <path class="cls-4" d="M24.55,48.1c-.15-.58-.27-1.18-.31-1.78.7.4,3.98,1.49,4.35,1.89.24.25.26,1.34.37,1.73l-4.41-1.84Z"/>
        <path class="cls-4" d="M24.23,45.58c0-.41.07-.76.1-1.15.65.32,3.33.92,3.73,1.26.32.28.38,1.59.47,2.05l-4.3-2.15Z"/>
        <path class="cls-4" d="M33.05,48.1c-.15,1.59-1.42,3.55-3.04,3.99-.03,0-.07,0-.1,0,.13-.45-.29-1.37-.21-1.73.14-.59,2.71-1.98,3.36-2.26Z"/>
        <path class="cls-4" d="M32.21,43.69l-3.04,3.83c-1.14-2.24,1.61-3.27,2.41-5.09.25.43.44.79.63,1.26Z"/>
        <path class="cls-4" d="M26.96,38.97l.73,3.73c-.16.22-.17.1-.37.05-.61-.14-1.74-1.04-2.47-1.15.36-.95,1.09-2.24,2.1-2.62Z"/>
        <path class="cls-4" d="M24.34,43.9c.06-.5.19-.89.31-1.36,1.58.63,3.5.36,3.46,2.57l-3.78-1.21Z"/>
        <path class="cls-4" d="M31.26,41.91l-2.62,3.1c-.89-1.98.73-2.74,1.68-4.25.37.4.64.7.94,1.15Z"/>
        <path class="cls-4" d="M30.11,40.54l-1.94,1.99-.58-3.67c1.05.16,1.81.98,2.52,1.68Z"/>
      </g>
      <g>
        <path class="cls-9" d="M82.79,42.22l-1.05,3.52c.05.35,2.24-.75,2.52-.79.04.14.08.28.1.42-1.51.66-3.25.72-3.25,2.78l3.46-1.1c0,.17,0,.35,0,.52-1.52.52-3.91.59-4.2,2.47.17.53,3.47-1.25,3.99-1.31-.05.33-.03.72-.1,1.05-1.89.49-4.38.13-4.51,2.62,0,.14-.33.21.21.42-.98.39-.6.68-.94,1.57l-.63-.1c.15-.51.57-1.28.42-1.73-.78-1.25-1.68-2.09-2.83-2.99.03-.28.14-.76.21-1.05l2.78,3.67c.15,0,.61-1.32.58-1.52-.05-.34-2.41-3.06-2.73-3.62.14-.31.25-.54.42-.84l2.62,3.83c-.02-.36.48-1.18.42-1.47-.06-.27-2.24-2.71-2.52-3.2.14-.21.26-.43.42-.63l2.2,3.2.21-.1c1.03-1.82-.47-2.72-1.36-4.15.11-.1.18-.21.31-.31l1.73,2.2,1-3.46c.32,0,.08-.2.52.1Z"/>
        <path class="cls-4" d="M78.38,54.29c-.04.15-.1.1-.1.1-1.68-1.42-2.54-2.54-2.31-4.83,1.15.9,2.05,1.74,2.83,2.99.15.45-.27,1.22-.42,1.73Z"/>
        <path class="cls-4" d="M84.26,49.78c-.14.6-.39,1.12-.63,1.68l-3.88.94c.13-2.5,2.62-2.14,4.51-2.62Z"/>
        <path class="cls-4" d="M76.18,48.52c.14-.55.42-.98.63-1.47.32.56,2.68,3.28,2.73,3.62.03.2-.42,1.52-.58,1.52l-2.78-3.67Z"/>
        <path class="cls-4" d="M83.1,52.51c-.93,1.43-2.32,2.35-4.09,1.99.01-.03-.01-.07,0-.1.35-.89-.04-1.19.94-1.57s2.07-.32,3.15-.31Z"/>
        <path class="cls-4" d="M77.23,46.21c.21-.38.28-.49.52-.84.28.49,2.46,2.93,2.52,3.2.06.29-.44,1.11-.42,1.47l-2.62-3.83Z"/>
        <path class="cls-4" d="M84.36,45.37c.1.5.2,1.17.21,1.68l-3.46,1.1c0-2.06,1.74-2.12,3.25-2.78Z"/>
        <path class="cls-4" d="M78.17,44.74c.32-.4.67-.71,1.05-1.05.9,1.43,2.4,2.33,1.36,4.15l-.21.1-2.2-3.2Z"/>
        <path class="cls-4" d="M84.57,47.57c-.01.4-.16.77-.21,1.15-.51.06-3.82,1.84-3.99,1.31.28-1.88,2.68-1.94,4.2-2.47Z"/>
        <path class="cls-4" d="M84.26,44.95c-.27.04-2.47,1.13-2.52.79l1.05-3.52c.68.46,1.25,1.92,1.47,2.73Z"/>
        <path class="cls-4" d="M82.26,42.12l-1,3.46-1.73-2.2c.86-.68,1.56-1.26,2.73-1.26Z"/>
        <path class="cls-9" d="M83.63,51.46c-.17.39-.29.69-.52,1.05-1.08,0-2.13-.09-3.15.31-.54-.21-.22-.28-.21-.42l3.88-.94Z"/>
      </g>
      <g>
        <path class="cls-2" d="M42.28,66.36c.09.82.03,1.7.52,2.41-.54-.51-.58-1.31-.68-1.36-.27-.16-6.84.66-4.62,2.1s22.89,1.41,24.56-.21c.16-.15.29-.21.26-.47-.09-.88-4.64-1.58-5.46-1.31.08-.38.06-.78.1-1.15,2.73.28,5.56.34,8.24.94,1.04.23,3.6.75,3.62,1.94-.33,1.09-7.24,1.74-8.45,1.84-5.3.44-24.93.86-29.07-1.26-1.99-1.02-.05-1.72,1.15-2.1,3-.95,6.69-1,9.81-1.36Z"/>
        <g>
          <path class="cls-13" d="M40.5,54.29c-1.31,2.11-3.82,5.02-1.89,7.5,1.06,1.36,2.3.89,3.15-.42l.21.1c-.02,1.64.13,3.26.31,4.88-3.12.37-6.81.41-9.81,1.36-1.21.38-3.14,1.08-1.15,2.1,4.14,2.12,23.77,1.7,29.07,1.26,1.21-.1,8.12-.75,8.45-1.84-.02-1.19-2.58-1.71-3.62-1.94-2.68-.6-5.51-.67-8.24-.94.22-1.68.31-3.39.31-5.09.85,1.1,1.93,2.01,3.15.73,2.27-2.38-.39-5.52-1.68-7.61.28-.18.83-.12,1.15-.1.3.02.5.08.73.1,2.78.24,5.65.56,8.4,1.05.13.02.48.18.63.21,2.57.48,5.15,1.04,7.66,1.78.22.07.42.14.63.21,2.34.72,4.81,1.59,7.03,2.62.2.09.41.16.52.21.74.36,1.59.85,2.31,1.26.83.47,1.71,1.05,2.52,1.57,3.48,2.27,14.93,10.45,5.09,12.38l-92.35-.1c-5.7-1.9-2.29-5.56.52-8.19,1.55-1.45,3.43-2.82,5.19-3.99,1.18-.78,2.64-1.78,3.88-2.41.2-.1.43-.22.63-.31,2.33-1.14,5.18-2.17,7.66-2.94.24-.07.49-.14.73-.21,2.61-.77,5.51-1.49,8.19-1.99.19-.04.43-.07.63-.1,2.7-.47,5.51-.66,8.24-.94.09,0,.04-.21.05-.21.05,0,.4.14.68.1.09,0,.04-.21.05-.21.05,0,.54.3.94.1Z"/>
          <path class="cls-4" d="M81.69,65.31c.45,1.26.29,1.81,1.84,2.05-.91.79-1.58,1.07-1.84,2.36-.66-1.08-1.14-1.18-2.36-1.1.94-1.02.36-1.69-.31-2.62,1.28.24,1.9.64,2.68-.68Z"/>
          <path class="cls-12" d="M26.91,60.38c.37,0,.32.86.47,1.1.17.26.7.33.73.52s-.56.56-.63.84c-.06.24.14,1.28-.05,1.31-.88-.51-1.42-.77-2.47-.79.23-.95.61-1.22-.1-2.1,1.03-.15,1.36.06,2.05-.89Z"/>
          <path class="cls-4" d="M71.51,59.64c.5,1.15.45.95,1.63,1.21-.99.59-.81.83-.68,1.84-.71-.58-1.59.25-1.68.21-.05-.02-.18-.54-.79-.58,1.14-.58-.16-1.39,0-1.57.07-.08,1.36-.18,1.52-1.1Z"/>
        </g>
        <path class="cls-4" d="M56.87,67.51c.81-.27,5.37.43,5.46,1.31.03.26-.1.32-.26.47-1.67,1.62-22.41,1.61-24.56.21s4.34-2.25,4.62-2.1c.1.06.14.86.68,1.36.84.79,2.81.82,3.83.42,1.09-.42.71-1.09.79-1.99.54-.1,3.97.13,4.15,0,.12-.09.02-.66.05-.84.65.24-.74,2.41,1.31,2.94s3.48.27,3.94-1.78Z"/>
        <path class="cls-2" d="M51.62,66.36c-.03.18.07.75-.05.84-.18.13-3.61-.1-4.15,0,.02-.22-.09-.73.16-.84h4.04Z"/>
      </g>
      <g>
        <g>
          <path class="cls-1" d="M60.75,50.93c-.1,1.13,0,2.33-.1,3.46-.24-.02-.44-.09-.73-.1.17-1.11.2-2.24.21-3.36.19.02.43,0,.63,0Z"/>
          <path class="cls-4" d="M64.84,46.63l-3.88,2.2c-.04-.3.03-.64,0-.94.04-.21-.06-.63,0-.79.15-.39,3.43-2,3.99-2.36.02.66-.02,1.24-.1,1.89Z"/>
          <path class="cls-4" d="M64.63,47.89c-.55,1.69-2.09,2.97-3.88,3.04.06-.63.02-1.49.42-1.89.52-.52,2.68-.98,3.46-1.15Z"/>
          <path class="cls-4" d="M64.53,42.01l-3.15,1.78c.06-.74.04-1.06,0-1.78l2.52-1.68c.26.56.47,1.08.63,1.68Z"/>
          <path class="cls-4" d="M64.63,42.64c.08.4.15.56.21,1.05-1.28.93-2.43,2.15-3.88,2.78v-.47c.15-.41.36-1.05.42-1.47l3.25-1.89Z"/>
          <path class="cls-4" d="M63.69,39.91l-2.31,1.57c-.03-.31-.06-.64-.1-.94l.21-2.94c1.15.24,1.7,1.35,2.2,2.31Z"/>
          <path class="cls-9" d="M64.84,43.69c.04.36.1.67.1,1.05-.56.36-3.84,1.97-3.99,2.36-.06.16.04.58,0,.79-.03-.35-.19-.72-.1-1.1l-.31.16c.09-.16.35-.75.42-.94v.47c1.45-.63,2.6-1.85,3.88-2.78Z"/>
          <path class="cls-9" d="M64.84,46.63c-.06.43-.08.85-.21,1.26-.78.18-2.94.64-3.46,1.15-.24.03-.19-.03-.21-.21l3.88-2.2Z"/>
          <path class="cls-9" d="M64.53,42.01c.06.23.07.43.1.63l-3.25,1.89c.03-.22-.02-.5,0-.73l3.15-1.78Z"/>
          <path class="cls-9" d="M63.9,40.33l-2.52,1.68c0-.17.02-.35,0-.52l2.31-1.57c.08.15.14.26.21.42Z"/>
          <path class="cls-3" d="M61.49,37.6l-.21,2.94c-.13-.9-.44-2.08-.73-2.94.39-.06.55-.08.94,0Z"/>
          <path class="cls-4" d="M60.12,50.93c-.96-.11-1.95-.7-2.52-1.47.83-.47,2.19-1.44,2.73-2.2v1.52l-.94-.21c1.13,1.04.75,1.06.73,2.36Z"/>
          <path class="cls-3" d="M60.96,47.89c.03.3-.04.65,0,.94.02.18-.03.24.21.21-.4.4-.36,1.26-.42,1.89-.2,0-.44.02-.63,0,.01-1.3.39-1.32-.73-2.36l.94.21v-1.52c.04-.05.19-.28.21-.31l.31-.16c-.09.38.07.75.1,1.1Z"/>
        </g>
        <g>
          <path class="cls-1" d="M39.24,50.93s0,.07,0,.1c.05,1.04.28,2.1.31,3.15-.01,0,.04.2-.05.21-.28.03-.63-.11-.68-.1l-.1-3.25.52-.1Z"/>
          <path class="cls-4" d="M38.09,48.62c-.81-.26-2.41-1.8-3.46-1.99-.09-.72-.13-1.38-.1-2.1.46.35,3.81,2.35,3.88,2.57.1.3-.05,1.17.1,1.57-.16.15-.28,0-.42-.05Z"/>
          <path class="cls-4" d="M37.98,48.83c.7.66.64,1.11.63,2.1-1.76.06-3.45-1.63-3.88-3.25,1.12,0,2.43.37,3.25,1.15Z"/>
          <path class="cls-9" d="M38.29,46.1c.11.36.62.82.73,1.26.05.18-.07,1.09,0,1.31l.21.1.73-.47c.05.05.1.1.1.1-1.11,1.17-.91.99-.84,2.52l-.52.1-.1-.1c0-.98.07-1.44-.63-2.1-.1-.19-.17-.22.1-.21.13.04.26.21.42.05-.15-.41,0-1.27-.1-1.57-.07-.22-3.43-2.22-3.88-2.57.01-.34.07-.55.1-.84,1,.52,2.45,2.24,3.41,2.62.31.12.27.13.26-.21Z"/>
          <path class="cls-4" d="M37.88,44.43c.09.58.25,1.13.42,1.68,0,.34.05.33-.26.21-.96-.38-2.41-2.11-3.41-2.62.04-.32.04-.62.1-.94l3.15,1.68Z"/>
          <path class="cls-4" d="M37.77,41.91c-.03.56-.04,1.33,0,1.89l-2.83-1.78c.17-.59.36-.94.63-1.47l2.2,1.36Z"/>
          <path class="cls-4" d="M37.77,38.13l.21,2.31c-.05.36-.07.69-.1,1.05l-2.2-1.26c.44-.78,1.19-1.93,2.1-2.1Z"/>
          <path class="cls-9" d="M37.77,43.8c.02.22.07.41.1.63l-3.15-1.68c.04-.21.15-.51.21-.73l2.83,1.78Z"/>
          <path class="cls-9" d="M38.09,48.62c-.28-.01-.21.02-.1.21-.83-.78-2.13-1.15-3.25-1.15-.08-.31-.07-.74-.1-1.05,1.05.19,2.65,1.74,3.46,1.99Z"/>
          <path class="cls-9" d="M37.88,41.49c-.02.18-.1.24-.1.42l-2.2-1.36c.03-.05.04-.19.1-.31l2.2,1.26Z"/>
          <path class="cls-9" d="M38.5,38.23c-.22.74-.41,1.44-.52,2.2l-.21-2.31c.32-.06.39-.23.73.1Z"/>
          <path class="cls-4" d="M41.76,49.46c-.59.87-1.58,1.22-2.52,1.57,0-.03,0-.07,0-.1-.07-1.53-.27-1.35.84-2.52.47.39,1.14.75,1.68,1.05Z"/>
          <path class="cls-4" d="M39.97,48.31l-.73.47-.21-.1c-.07-.22.05-1.14,0-1.31.4.22.62.66.94.94Z"/>
        </g>
      </g>
      <g>
        <path class="cls-5" d="M60.54,37.6c.3.86.6,2.04.73,2.94.04.3.08.64.1.94.02.17,0,.35,0,.52.04.72.06,1.04,0,1.78-.02.24.03.51,0,.73-.06.42-.27,1.06-.42,1.47-.07.2-.33.78-.42.94-.02.04-.17.26-.21.31-.54.76-1.9,1.73-2.73,2.2-.23.13-1.52.44-1.57.68.77,1.5,1.85,2.82,2.73,4.25,1.28,2.09,3.95,5.23,1.68,7.61-1.22,1.28-2.29.37-3.15-.73,0,1.7-.09,3.41-.31,5.09-.05.37-.02.78-.1,1.15-.45,2.05-1.96,2.29-3.94,1.78s-.66-2.69-1.31-2.94h-4.04c-.25.11-.14.62-.16.84-.08.9.3,1.57-.79,1.99-1.02.4-2.99.37-3.83-.42-.49-.71-.43-1.6-.52-2.41-.19-1.62-.33-3.24-.31-4.88l-.21-.1c-.84,1.31-2.09,1.78-3.15.42-1.93-2.48.58-5.4,1.89-7.5.32-.52,2.78-3.87,2.73-4.15-.4-.34-1.03-.43-1.47-.68-.53-.3-1.21-.66-1.68-1.05,0,0-.05-.06-.1-.1-.32-.28-.55-.73-.94-.94-.12-.44-.62-.9-.73-1.26-.17-.55-.33-1.1-.42-1.68-.03-.22-.09-.41-.1-.63-.04-.56-.03-1.32,0-1.89,0-.18.09-.24.1-.42.03-.36.05-.69.1-1.05.12-.76.3-1.47.52-2.2.66-2.23,1.77-4.14,3.36-5.82-3.76-4.36-8.13-10.28-8.81-16.16-.99-8.45,4.39-4.79,7.35-.84,3.21,4.31,4.89,9.58,5.72,14.85,2.29-.59,4.74-.59,7.03,0,.78-5.06,2.33-10.11,5.3-14.32,3.9-5.54,9.48-7.85,7.45,1.89-1.12,5.36-5.02,10.51-8.5,14.59,1.34,1.53,2.48,3.26,3.15,5.19Z"/>
        <g>
          <path class="cls-11" d="M61.33,16.83c.87-.04,1.41.85,1.52,1.63.37,2.56-1.61,6.53-2.94,8.71-.38.63-3.11,4.61-3.62,4.56-.12-.01-2.02-1.09-2.05-1.21-.15-.57,1.07-5.25,1.36-6.09.66-1.89,3.45-7.51,5.72-7.61Z"/>
          <path class="cls-11" d="M37.61,16.83c2.4-.22,5.25,5.53,5.93,7.4.29.81,1.71,5.95,1.47,6.4-.06.11-1.98.77-2.15,1.21-2.62-2.92-7.1-9.47-6.45-13.48.09-.56.57-1.46,1.21-1.52Z"/>
          <g>
            <path class="cls-11" d="M52.15,52.82c4.58,1.63,5.63,11.74-.89,12.49-6.01.69-8.81-2.14-7.5-8.13.49-2.25,1.63-4.01,3.99-4.56,1.55-.36,2.9-.33,4.41.21Z"/>
            <path class="cls-7" d="M52.15,52.82c-1.51-.54-2.86-.57-4.41-.21l-3.41-.63c-.45-.34-.56-1.22-.31-1.68,3.37.8,6.98.89,10.39.21.21-.04.74-.18.84-.42.97,2.82-2.06,1.88-3.15,2.41-.31.15.13,0,.05.31Z"/>
            <path class="cls-11" d="M55.87,43.17c2.07-.4,2.47,2.8.73,3.15-2.42.48-2.66-2.78-.73-3.15Z"/>
            <path class="cls-11" d="M42.86,43.17c1.88-.23,2.55,2.66.84,3.04-3.01.68-2.56-2.83-.84-3.04Z"/>
            <path class="cls-1" d="M49.73,44.95s-.21.09-.21.1c-.69-.54-1.54-.91-1.47-1.94.18-.81,4.09-1.18,2.94.94-.28.52-.99.63-1.26.89Z"/>
            <path class="cls-8" d="M49.52,45.06s.19-.08.21-.1c-.19,1.18.09,2.67,1.63,1.99.64-.28.55-1.28,1-1.63.05.95-.7,2.1-1.73,2.05-.36-.02-.96-.53-1.05-.52-.17.02-.61.66-1.57.42-.5-.12-1.36-1.46-.94-1.99.17,1,.85,2.33,2.1,1.68.7-.36.18-1.4.37-1.89Z"/>
            <g>
              <path class="cls-8" d="M54.09,38.86c2.27-.51,1.97,4.42-.1,3.46-1.02-.47-1-3.22.1-3.46Z"/>
              <path class="cls-5" d="M54.3,39.49c.55-.12.89.98.31,1.15-.73.22-.86-1.03-.31-1.15Z"/>
            </g>
            <g>
              <path class="cls-8" d="M44.54,38.86c1.96-.43,1.89,3.3.52,3.57-1.78.34-1.8-3.29-.52-3.57Z"/>
              <path class="cls-5" d="M44.75,39.49c.64-.12.76,1.05.21,1.15-.64.12-.76-1.05-.21-1.15Z"/>
            </g>
          </g>
        </g>
      </g>
    </g>
  </g>
</svg>