<?xml version="1.0" encoding="UTF-8"?>
<svg id="katman_2" data-name="katman 2" xmlns="http://www.w3.org/2000/svg" xmlns:xlink="http://www.w3.org/1999/xlink" viewBox="0 0 447.25 285.47">
  <defs>
    <style>
      .cls-1 {
        fill: url(#Adsız_degrade_82);
      }

      .cls-2 {
        fill: #42292a;
      }

      .cls-3 {
        fill: #f9ea84;
      }

      .cls-4 {
        fill: #503543;
      }

      .cls-5 {
        fill: #c1df87;
      }

      .cls-6 {
        fill: #341721;
      }

      .cls-7 {
        fill: #e1e8ef;
      }

      .cls-8 {
        fill: #83b1c3;
      }

      .cls-9 {
        fill: #f89a0e;
      }

      .cls-10 {
        fill: #fdf3cd;
      }

      .cls-11 {
        fill: #e97f18;
      }

      .cls-12 {
        fill: #fbd8cb;
      }

      .cls-13 {
        fill: #bbdce6;
      }

      .cls-14 {
        fill: #c2d666;
      }

      .cls-15 {
        fill: #9e4d01;
      }

      .cls-16 {
        fill: #fff;
      }

      .cls-17 {
        fill: #cdbdc3;
      }

      .cls-18 {
        fill: #98bf2e;
      }

      .cls-19 {
        fill: #684f51;
      }

      .cls-20 {
        fill: #fdcb2b;
      }

      .cls-21 {
        fill: #fbad93;
      }

      .cls-22 {
        fill: #84b046;
      }

      .cls-23 {
        fill: #210b10;
      }

      .cls-24 {
        fill: #8db7bb;
      }

      .cls-25 {
        fill: #8ea635;
      }

      .cls-26 {
        fill: #634434;
      }

      .cls-27 {
        fill: #ffc2ae;
      }

      .cls-28 {
        fill: #fff2ea;
      }

      .cls-29 {
        fill: #6da228;
      }

      .cls-30 {
        fill: #fdb82a;
      }
    </style>
    <linearGradient id="Adsız_degrade_82" data-name="Adsız degrade 82" x1="78.63" y1="124.17" x2="134.34" y2="204.08" gradientUnits="userSpaceOnUse">
      <stop offset="0" stop-color="#83b125"/>
      <stop offset="1" stop-color="#659d28"/>
    </linearGradient>
  </defs>
  <g id="katman_2-2" data-name="katman 2">
    <g id="_Üretken_Nesne" data-name="Üretken Nesne">
      <path class="cls-13" d="M23.12,108.8c7.29-1.78,7.23,4.37,8.51,5.2.37.24,2.47-.26,3.31.47,2.27,1.96,4.06,5.9,7.33,7.33l-1.18,2.13-38.54-.24c2.58-3.04,3.12-9.24,8.28-8.28.8.15,2.24,1.98,2.36,1.89.47-.33-.18-5.04,4.26-4.73.21.01,1.28,1.46,1.42,1.42.33-.09,1.56-4.54,4.26-5.2Z"/>
      <g>
        <path class="cls-13" d="M365.96,1.93c4.48-.86,7.69.98,10.17,4.49.31.44.34,2.85.71,3.07.39.24,3.15-.25,4.73.47.62.29,5.99,7.37,7.09,8.51.22.22,5.26.43,2.36,4.26l-55.09-.24c-.26-2.1,3.52-2.78,3.78-3.31.21-.42-.09-3.1.47-4.26,2.22-4.58,8.15-4.7,11.11-.71.47-10.99,7.43-4.48,8.04-4.73.49-.2,1.49-6.58,6.62-7.57Z"/>
        <path class="cls-30" d="M400.72,91.3c2.01,2.08,5.33,2,7.09,4.49-1.7,2.57-4.8,1.61-6.86,2.6-2.36,1.14-2.45,5.73-8.75,1.89-.54-4.55,3.51-9.07,8.51-8.98Z"/>
        <g>
          <path class="cls-30" d="M400.72,55.84c-.91-.27-5.11,1.01-5.44.95-1.3-.25-3.05-2.39-4.26-2.84-3.15-1.16-7.32-.22-9.22-4.97.08-.36,6.26-3.02,6.62-3.07,6.26-.88,10.81,4.59,12.29,9.93Z"/>
          <path class="cls-9" d="M400.72,55.84c-1.49-5.34-6.04-10.81-12.29-9.93,1.11-6.28,2.25-5.64,6.15-1.89.89.85,5.05,7.32,5.91,7.09l2.6-10.4c4.84,7.89-4.88,11.28,0,17.73l-2.36-2.6Z"/>
          <path class="cls-9" d="M403.08,40.7l-2.6,10.4c-.86.23-5.02-6.24-5.91-7.09,2.65-.85,6.47-6.64,8.51-3.31Z"/>
        </g>
        <path class="cls-9" d="M395.04,89.88c4.61-5,4.99.71,5.67,1.42-5-.08-9.05,4.43-8.51,8.98l-2.84,2.13c4.01-5.51-4.38-8.97-1.42-15.37l3.55,8.98c1.58-.84,3.3-5.88,3.55-6.15Z"/>
        <path class="cls-30" d="M395.04,89.88c-.25.27-1.96,5.31-3.55,6.15l-3.55-8.98c.28-.61.88-1.44,1.66-1.42l5.44,4.26Z"/>
        <g>
          <path class="cls-9" d="M51.26,73.33c5.59,5.72,8.36,11.75,8.51,19.86-2.01.37-10.29-5.86-11.35-7.8-2.02-3.72-1.47-8.42.47-12.06.69.15,1.65-.13,2.36,0Z"/>
          <path class="cls-30" d="M71.12,77.12c-1.14.64-4.72,1.74-5.44,2.36-2.39,2.09-1.09,4.43-3.07,6.15,0-.16-.01-.32,0-.47.3-4.56.59-11.76,1.89-15.6,3.61-10.66,12.25-8.6,8.98,4.02-.05.21-1.93,2.65-2.36,3.55Z"/>
          <path class="cls-30" d="M58.83,74.28c3.59,3.04,3.25,6.24,3.31,10.4-2.4,1.31.56,7.98-2.36,8.51-.15-8.12-2.92-14.15-8.51-19.86,2.34.43,5.14-.05,7.57.95Z"/>
          <path class="cls-30" d="M58.83,71.91c.41.47.43,1.36.47,1.42l-.95.47c-3.26-2.18-9.81-2.47-13.71-2.84-.85-.67-1.66-1.3-2.36-2.13,5.48-4.72,12.24-1.85,16.55,3.07Z"/>
          <path class="cls-9" d="M64.5,69.55c-1.3,3.85-1.6,11.05-1.89,15.6h-.47c0-.16,0-.32,0-.47-.06-4.16.28-7.36-3.31-10.4-.3-.26-.45-.45-.47-.47l.95-.47c.42.51,1.51.77,1.66,1.89l.24-1.18-1.89-12.06c.04-.43.14-4.57,1.42-3.55l3.78,11.11Z"/>
          <path class="cls-3" d="M71.12,77.12c-.71,1.46-6.14,11.56-6.62,12.06-1.37,1.42-.42-.44-1.89-.24.13-1.07-.07-2.23,0-3.31,1.98-1.72.68-4.06,3.07-6.15.71-.62,4.3-1.72,5.44-2.36Z"/>
          <path class="cls-3" d="M58.35,73.81s.17.22.47.47c-2.43-1-5.23-.51-7.57-.95-.71-.13-1.68.15-2.36,0-1.42-.3-3.08-1.44-4.26-2.36,3.9.37,10.46.65,13.71,2.84Z"/>
          <path class="cls-20" d="M59.3,73.33c-.05-.06-.06-.95-.47-1.42,1.06-3.15.21-6.7.47-9.93l1.89,12.06-.24,1.18c-.14-1.12-1.23-1.38-1.66-1.89Z"/>
          <path class="cls-15" d="M62.61,85.63c-.07,1.08.13,2.24,0,3.31-.08.69.44,2.43-.95,1.66-.47-1.75.47-4.01.47-5.44h.47c-.01.16,0,.32,0,.47Z"/>
        </g>
        <g>
          <path class="cls-13" d="M320.33,36.92c-1.45,3.71-1.48,10.31-4.26,13.95-3.57,4.68-15.21,4.96-10.4,12.06.38.56.57.58.95.95,5.54,5.49,22.49,6.59,26.01-2.36,1.59.29,5.98.05,7.57-.47,7.05,9.18,16.53,22.68,20.33,33.57l-39.72,27.9c-2.56-5.69-10.12-7.19-10.4-7.8-.15-.32,1.29-4.73.95-7.09-.76-5.28-6.63-9.22-11.82-9.22l.47-2.36c.54-.4,1.1-.76,1.42-1.42,5.63-17.58-18.67-29.39-33.34-29.79,3.13-7.42,3.04-12.49-3.31-17.97-.42-.36-3.42-1.3-3.55-1.66-.82-2.34,2.41-6.78-2.6-11.11-4.86-4.21-11.14-1.09-11.82-1.42-.36-.17-1.71-5.64-3.07-7.33-3.27-4.06-9.63-5.37-14.42-4.02-2.53.71-6.2,5.2-6.62,5.2s-4.09-4.49-6.62-5.2c-9.19-2.58-15.7,2.75-17.97,11.35-8.25-3.11-13.59,1.54-14.42,9.69-.01.13.97,2.24.95,2.36-.22.95-3.61,1.78-4.49,2.6-5.25,4.84-5.91,11.09-2.6,17.26-11.68.38-31.15,9.02-34.05,21.52-.84,3.63-.97,7.48,2.36,9.93l.47,2.36c-6.24-.26-10.74,5.35-11.35,11.11-.1.98,1.14,4.67.95,5.2-.24.65-7.87,3.52-9.46,9.46-1.8,6.72,1.56,8.48,1.89,13-13.49-10.81-28.17-20.37-44.45-26.48-.04-1.11-.84-4.06-1.42-5.2,8.74-23.59,22.13-45.16,39.72-63.13l-62.66-.24c-2.12-5.91,3.94-7.82,5.91-10.17.45-.53-1.1-4.44,3.55-3.55,1.24.24,2.26,2.44,3.55,2.6-.21-11.01,4.19-12.4,13.95-12.06.14,0,2.12,1.12,2.36.95.49-.35-.02-10.59,6.62-3.78.79-10.02,13.05-13.51,19.62-6.38.85.92,3.21,5.84,3.55,5.91.57.11,2.8-5.68,9.93-1.89,3.84,2.04,5.57,6.26,5.67,10.4,8.34-5.43,15.6,2.07,19.86,8.98,1.34-5.2-3.27-8.13-6.86-10.64,53.43-35.63,125.64-27.55,173.07,14.42Z"/>
          <path class="cls-16" d="M159.31,30.3c3.27-.34,5.97,5.82,3.78,8.51l-6.38-6.38c-.02-.2,2.22-2.09,2.6-2.13Z"/>
          <polygon class="cls-16" points="153.64 41.65 169.95 42.36 152.22 42.6 153.64 41.65"/>
        </g>
        <g>
          <path class="cls-14" d="M125.5,226.07l-30.97,6.15c-14.73,5.9-27.8,15.73-43.74,18.44,1.54-1.62,3.33-3.09,5.2-4.26,4.82-3,15.09-7.42,20.57-9.46,2.89-1.07,15.14-3.61,16.08-4.26,1.11-.76-.13-3,.95-2.84.53.08.89,1.81,1.42,1.89.19.03,1.11-.94,1.18-.95.16,0,.32,0,.47,0,1.23-.08,2.15-.3,3.31-.47,8.6-1.28,16.9-3.06,25.54-4.26Z"/>
          <g>
            <path class="cls-14" d="M342.08,226.07c1.94.87,4.17,1.2,6.15,1.89,1.57.55,2.7.6,3.78.95,1.89.6,3.83,1.67,6.15,2.36,14.28,4.26,31.46,7.28,44.45,15.13,21.19,12.81-2.52,21-14.9,24.59-49.41,14.34-127.67,15.17-179.69,14.19-34.19-.65-124.88-4.24-152.74-20.33-6.68-3.86-10.58-7.79-4.49-14.19,15.94-2.71,29.01-12.54,43.74-18.44l30.97-6.15c5.5-.76,11.02-1.79,16.55-2.36,1.4-.15,2.88-.34,4.26-.47,9.1-.9,18.3-1.24,27.43-1.89.68,15.32.04,30.49.47,45.87.05,1.95-.22,13.71,1.18,14.19,5.45-1.75,11.21-1.01,16.55.47,1.18-.42.72-14.43.71-16.55-.1-13.5-.99-27.16-.95-40.67,0-1.08-.38-3.03.47-3.78.52.25,3.33,1.32,3.78,1.42-.15,1.42.49,3.54.47,4.73-.12,10.36-1.11,19.04-.47,29.79.11,1.81-.2,12.16,1.18,12.77l14.66.47c.8-.28.23-11.12.24-12.77.05-9.94.55-20.91,0-30.74-.07-1.28.23-3.17,0-4.26,8.37,7.99,13.56,7.03,21.75,0,1.53-.22.91,2.87.95,4.26.23,10.35.1,20.87,0,31.21-.02,1.68-1.21,11.58-.24,12.29l14.66-.47c1.71-.82,1.58-11.26,1.66-13.24.38-9.94-.43-19.89-.47-29.79,0-1.41,0-2.84,0-4.26,1.39-.28,3.45-1.21,4.73-1.89l-.47,46.11c.13.42.9.17.95.24l.24,14.66h16.08c1.38-.47.64-12.65.71-14.66.5-15.1.73-30.47.95-45.4,10.05.68,20.23.65,30.26,1.42.1,0,.93.4,1.89.47,10.19.8,20.32,1.97,30.5,2.84-1.67-3.46-1.95-6.03-1.66-9.93.82,6.88,2.13,7.51,7.57,9.93Z"/>
            <g>
              <path class="cls-22" d="M345.15,251.13c3.06-.22,7.11,1.44,9.69,3.07-5.24,1.2-12,3.29-16.55-.47.09-.36,6.18-2.55,6.86-2.6Z"/>
              <path class="cls-22" d="M92.64,258.7c3.39-.55,7.7.33,10.64,2.13-4.77,3.64-11.18,1.87-16.55.95,1.41-.87,4.42-2.83,5.91-3.07Z"/>
              <path class="cls-25" d="M292.19,250.66c3.2-.4,5.8.59,8.75,1.66-3.98,3.11-9.32,1.11-13.95,1.18.54-1.33,4.06-2.69,5.2-2.84Z"/>
              <path class="cls-18" d="M330.49,262.96c.56-.42,9.78,8.81,3.07,8.28-2.08-2.12-4.15-5.01-3.07-8.28Z"/>
              <path class="cls-22" d="M112.02,265.32c1.53,1.76-2.21,9.92-4.26,8.98-3.34-1.52,2.65-7.97,4.26-8.98Z"/>
              <path class="cls-18" d="M157.89,253.03c2.9-1.2,3.01,8.97,2.36,8.98-.48-.91-.64-5.9-1.42-6.15-2.29-.73-.81,5.41-2.6,4.97-.18-1.39.69-7.41,1.66-7.8Z"/>
              <path class="cls-18" d="M303.07,236c2.95-1.12,3.86,3.7,3.31,5.67-2.92-7.76-3.32.75-4.49-.24-.95-1.81-.08-3.95,1.18-5.44Z"/>
              <path class="cls-18" d="M321.98,239.78c.99-.42,3.06,1.71,2.6,2.6-.08.15-2.94,1.28-3.07,1.18-.49-.37-.48-3.38.47-3.78Z"/>
              <path class="cls-18" d="M135.67,260.59c2.42-.04,1.02,4.58-1.42,3.78-1.82-.6,1.02-3.78,1.42-3.78Z"/>
              <path class="cls-18" d="M307.8,255.39c.98-.35,3.03,3.38,2.36,3.78-1.5.92-4.54-2.19-2.36-3.78Z"/>
              <path class="cls-18" d="M336.64,238.37c1.03,0,4.03,3.89,2.36,4.26-1.8.4-3.25-2.81-2.36-4.26Z"/>
              <path class="cls-22" d="M103.51,245.46c2.25-.59-.14,4.66-1.42,4.26-1.76-.56.44-4,1.42-4.26Z"/>
              <path class="cls-18" d="M358.39,239.31c.36-.25,2.7,1.39,2.84,1.89.9,3.25-4.6-.64-2.84-1.89Z"/>
              <path class="cls-25" d="M119.59,243.1c.95.53,2.81,1.68,1.42,2.84l-3.55-.71,2.13-2.13Z"/>
              <path class="cls-18" d="M162.62,261.54c2.12-.61.7,2.5-.47,2.36-1.03-.12-.23-2.16.47-2.36Z"/>
            </g>
          </g>
        </g>
        <g>
          <path class="cls-30" d="M341.61,41.65l-6.62,5.91c.19,1.44,4.35.39,5.44.71,4.23,1.23,6.75,10.48-.24,12.77-1.59.52-5.97.76-7.57.47-3.58-.65-10.96-6.14-13.95-8.51l-12.06,10.88c-.37-.37-.57-.39-.95-.95.05-.22.41-.88.47-.95,1.34-1.37,4.52-3.9,6.15-5.2,2.17-1.74,3.92-3.26,6.38-4.73l22.93-10.4Z"/>
          <path class="cls-30" d="M330.26,42.12c-3.38,1.03-8.23,6.18-11.35,8.51l3.78-18.44c9.22-17.7,16.01.61,7.57,9.93Z"/>
          <path class="cls-11" d="M341.61,41.65l-22.93,10.4c-2.46,1.47-4.21,2.99-6.38,4.73-.61.09-1.31.28-1.89.47,2.84-2.32,5.58-4.43,8.51-6.62,3.12-2.34,7.97-7.49,11.35-8.51,3.17-.96,8.68-1.06,12.06-1.42l-.71.95Z"/>
          <path class="cls-3" d="M318.91,50.63c-2.93,2.19-5.68,4.3-8.51,6.62-1.5.49-5.13,2.07-5.2,3.78-.04.88,0,1.06.95.95-.06.07-.42.73-.47.95-4.81-7.09,6.83-7.38,10.4-12.06,2.78-3.64,2.81-10.24,4.26-13.95.5-1.28,1.68-3.42,2.36-4.73l-3.78,18.44Z"/>
          <path class="cls-9" d="M332.62,61.51c-3.52,8.95-20.47,7.85-26.01,2.36l12.06-10.88c2.99,2.37,10.37,7.86,13.95,8.51Z"/>
          <path class="cls-10" d="M312.29,56.78c-1.63,1.3-4.81,3.83-6.15,5.2-.94.12-.98-.07-.95-.95,1.87-1.1,3.52-2.41,5.2-3.78.58-.19,1.28-.39,1.89-.47Z"/>
          <path class="cls-15" d="M310.4,57.25c-1.68,1.37-3.33,2.68-5.2,3.78.07-1.72,3.7-3.29,5.2-3.78Z"/>
        </g>
        <g>
          <g>
            <path class="cls-13" d="M393.15,133.39c-.11-.59-1.16-3.75-1.42-4.26,1.81-4.17,7.39-2.24,10.17-3.78.92-.51.64-11.75,8.98-1.89,1.1-6.81,11.82-5.57,14.9-1.18.63.9,1.43,4.82,2.13,4.97.32.07,2.2-3.35,5.67-2.36,2.04.58,4.39,7.78,2.84,8.51h-43.27Z"/>
            <path class="cls-8" d="M375.18,142.37c.02.12-.66,1.02-.47,2.36-1.65,2.63-1.46,12.29.95,14.19v6.62c-1.33,1.79-2.37,3.78-3.55,5.67-1.45.03-.21-2.49-.24-3.31-.19-6.52-.57-11.81-8.04-13.24-.17-.32-.39-.6-.47-.95-.03-.15.02-.32,0-.47,1.03-3.96,1.93-8.95,2.36-13,.66-6.16,2.46-20.33,1.89-25.77,3.15,9.03,6.08,18.41,7.57,27.9Z"/>
            <path class="cls-13" d="M367.61,114.47c.56,5.44-1.23,19.61-1.89,25.77-.44,4.06-1.33,9.04-2.36,13-.62-3.88.54-9.26,0-13.24l-1.42-40.67c1.81,4.13,5.22,10.76,5.67,15.13Z"/>
            <path class="cls-29" d="M371.87,167.91h-.95c-.06-9.63-4.45-8.22-7.09-13.24,7.47,1.43,7.85,6.73,8.04,13.24Z"/>
            <g>
              <path class="cls-18" d="M405.44,218.98c2.43.73,8.75,2.19,8.04,5.44-10.64,10.29-18.22,1.66-28.37-2.6l-4.97-3.78c7.07-1.84,15.57,2.46,21.75,2.36.81-.01,2.46-1.19,3.55-1.42Z"/>
              <path class="cls-18" d="M391.73,129.13c.26.5,1.31,3.67,1.42,4.26,1.38,7.29-.56,11.42-4.26,17.5-2.04,1.6-3.1,4.06-5.67,2.36-1.39-10.37-.92-18.57,6.86-26.48.83.61,1.21,1.5,1.66,2.36Z"/>
              <path class="cls-18" d="M401.9,177.84c1.53-.18,3.17-.22,4.02,1.18,2.71,4.48-7.33,21.65-11.59,24.83l.71-20.1c.66-1.98,4.78-5.67,6.86-5.91Z"/>
              <path class="cls-14" d="M375.65,228.91c-1.28-1.17-3.36-.6-4.97-.47-1.05.08-5.13.23-5.44,1.42-.31,0-.63,0-.95,0h-9.22c-.44-.25,1.48-3.08,1.66-3.31.95-1.25,3.48-2.77,4.49-4.26l14.42-2.36c5.72.27,2.69,6.15,0,8.98Z"/>
              <path class="cls-18" d="M418.92,171.69c11.44-1.77-4.73,21.89-9.46,23.17,1.54-5.84,1.63-21.96,9.46-23.17Z"/>
              <path class="cls-18" d="M392.68,148.99l-.47-.47c2.69-3.26,1.87-6.82,6.86-9.93s17.87-3.95,8.51,2.84c-3.97,2.88-11.69,5.43-14.9,7.57Z"/>
              <path class="cls-14" d="M376.6,176.42c-.23-.65-.45-.45-.47-.47.53-2.51-2.32-3.57,0-5.67,3.4-3.09,11.47-.29,15.13,1.66-3.71,4.69-8.95,5.78-14.66,4.49Z"/>
              <path class="cls-29" d="M377.55,143.79c3.08,4.84,2.85,10.01.71,15.13-3.77-3.04-2.9-9.56-3.55-14.19-.19-1.34.49-2.25.47-2.36.98-.01,1.69.85,2.36,1.42Z"/>
              <path class="cls-18" d="M374.71,219.45c-.01.65.49.45.95.47l-14.42,2.36c-1.01,1.49-3.54,3-4.49,4.26-1.87,1.25-1.47-.58-1.42-1.66.06-1.21.92-6.92,2.13-7.33,1.83-.05,5.05,2.53,4.73,4.26,3.67-1.38,8.65-2.04,12.53-2.36Z"/>
              <path class="cls-22" d="M347.28,217.09c.46,3.63,1.45,7.11.95,10.88-1.97-.7-4.21-1.03-6.15-1.89,1.45-4.94-3.22-11.74-5.67-16.08l4.49,1.89,6.38,5.2Z"/>
              <path class="cls-24" d="M352.01,228.91c-1.08-.34-2.22-.39-3.78-.95.51-3.76-.49-7.25-.95-10.88-.1-.76.06-1.59,0-2.36,1.33.36,6.92-.63,7.57.71.45.94-3.68,11.22-2.84,13.48Z"/>
              <path class="cls-29" d="M342.08,226.07c-5.44-2.42-6.74-3.05-7.57-9.93.08-1.1.87-5.81,1.89-6.15,2.45,4.34,7.12,11.14,5.67,16.08Z"/>
              <path class="cls-29" d="M363.83,154.67c2.64,5.02,7.04,3.61,7.09,13.24,0,.88.2,4.34-.24,4.73-7.39-.95-11.48-13.22-7.33-18.92.08.35.31.63.47.95Z"/>
              <path class="cls-29" d="M344.44,193.92c.17,3.37,2.79,6.37,3.78,9.69.69,2.3.42,5.86.95,7.8-2.85.01-4.94-1.37-6.62-3.55-1.73-2.25-1.28-5.79-2.84-7.8.04-1.37.16-2.03.47-3.31.07-.27-.08-.73,0-.95,1.31-3.63,1.36-3.01,4.26-1.89Z"/>
              <path class="cls-22" d="M353.43,202.9c-.25,1.08-1.27,8.29-.95,8.98-.03,1.47-1.35,2.14-2.6,1.89-.12-.86-.52-1.65-.71-2.36-.52-1.94-.26-5.5-.95-7.8-.99-3.32-3.61-6.32-3.78-9.69,1.46.56,5.17,2.89,6.15,4.02,1.19,1.37,1.38,4.09,2.84,4.97Z"/>
              <path class="cls-24" d="M352.48,211.89c-.32-.69.7-7.91.95-8.98.96-4.17,1.75-5.51,6.62-4.02l-4.73,15.13c-.26.22-2.76-1.97-2.84-2.13Z"/>
              <g>
                <path class="cls-14" d="M389.84,186.35c-2.08,4.68-4.67,9.13-8.98,12.06l3.78-.24s.93.58-.24.95c-3.68,1.14-10.94,1.49-14.9,1.42-.68-.01-3.27-1.34-4.26-1.42-1.03-.33-.39-1.2.47-.95,4.21,1.92,15.33-.6,12.06-7.57-3.44.53-7.9,1.39-10.64-.95.07-.12-.07-.36,0-.47,6.76-.39,16.1.24,20.81-5.2.34.17,1.47-.29,1.89.71.05.54-.08,1.13,0,1.66Z"/>
                <path class="cls-14" d="M384.17,209.05c-.53.55-1.34,1.44-1.89,1.89-.32.26-6.71,4.09-7.09,4.26-5.26,2.23-11.68,3.13-16.55,0,8.1-1.45,21.42-5.64,27.43-11.35,2.16.96-1.09,4.36-1.89,5.2Z"/>
                <path class="cls-14" d="M384.17,182.57c1.3.62,2.54.81,3.78,1.42-4.7,5.44-14.04,4.81-20.81,5.2.4-.67.89-2.9,1.42-3.55,4.19-5.2,10.08-2.94,15.6-3.07Z"/>
                <path class="cls-18" d="M384.17,209.05c.8-.84,4.06-4.24,1.89-5.2,2.17-2.06.95-2.59,2.36-5.44-.13-.39-1.67-1.03-2.13-1.18-1.25-.41-1.57.91-1.66.95l-3.78.24c4.32-2.93,6.9-7.38,8.98-12.06.87,5.96.24,19.46-5.67,22.7Z"/>
                <path class="cls-14" d="M386.06,203.85c-6.01,5.71-19.32,9.9-27.43,11.35-.3-.19-1.59.3-1.89-.24.8-1.54,1.45-3.3,1.89-4.97l4.26-4.73,6.62-4.73c3.95.08,11.22-.28,14.9-1.42,1.16-.36.19-.93.24-.95.09-.03.4-1.36,1.66-.95.46.15,2,.79,2.13,1.18-1.41,2.85-.19,3.38-2.36,5.44Z"/>
                <path class="cls-14" d="M365.72,198.17c-4.66-2.12.03-6.03,1.42-8.51,2.74,2.33,7.2,1.48,10.64.95,3.28,6.96-7.85,9.48-12.06,7.57Z"/>
                <path class="cls-18" d="M365.25,199.12c.99.08,3.57,1.41,4.26,1.42l-6.62,4.73-.47-5.67c.57,0,2.69-.48,2.84-.47Z"/>
                <path class="cls-24" d="M362.41,199.59l.47,5.67-4.26,4.73c.93-3.55,2.13-7.02,2.84-10.64l.95.24Z"/>
              </g>
              <g>
                <path class="cls-18" d="M377.07,217.09c-.73-.03-.33-.91-.71-.95-.17-.01-1.88,1.74-3.31.95l2.13-1.89c.38-.16,6.77-3.99,7.09-4.26,3.57-1.55,7.25-3.29,10.64-5.2,6.93-3.9,19.28-10.73,25.06-15.6,7.67-6.45,11.8-18.61,24.12-17.5,11.93,1.08.37,13.78-6.62,15.6-4.74,1.24-11.1-.01-15.13.95-1.91.45-24.17,16.8-28.37,19.39-4.84,2.98-10.22,5.24-14.9,8.51Z"/>
                <path class="cls-14" d="M436.89,174.53c.13-.03,2.69,0,2.6.71l-6.38,4.02-.24-1.18c.14-.3,3.76-3.48,4.02-3.55Z"/>
              </g>
              <g>
                <path class="cls-18" d="M402.61,246.41c-12.99-7.85-30.17-10.88-44.45-15.13-.02-2.21,4.29-1.4,6.15-1.42.31,0,.63,0,.95,0,2.87.06,4.29-.07,7.09.95,3.66,1.33,5.91,5.19,11.35,2.13-1.88-2.86-6.47-.88-8.98-3.07.74-.25.89-.47.95-.47,4.24-.44,14.85,1.75,18.68,3.78,2.9,1.54,12.27,10.39,8.28,13.24Z"/>
                <path class="cls-5" d="M375.65,228.91v.47c-.05,0-.2.22-.95.47-.79.27-1.45,1-2.36.95-2.8-1.02-4.23-.88-7.09-.95.31-1.19,4.39-1.34,5.44-1.42,1.61-.13,3.68-.7,4.97.47Z"/>
                <path class="cls-14" d="M372.34,230.8c.91.06,1.58-.68,2.36-.95,2.51,2.2,7.1.21,8.98,3.07-5.44,3.06-7.69-.8-11.35-2.13Z"/>
              </g>
              <g>
                <path class="cls-18" d="M408.52,204.79c5.11-.07,24.81,4.1,11.82,8.98-4.92,1.85-21.64-2.38-25.54-5.2-.36-.26-.82-.67-.71-1.18.47-.96,12.71-2.58,14.42-2.6Z"/>
                <path class="cls-14" d="M406.63,206.21c1.05-.13,10.87.25,10.64,1.66-3.67,1.61-8.73,2.16-11.82-.95l1.18-.71Z"/>
              </g>
              <g>
                <path class="cls-18" d="M424.12,192.5c7.61-.65,16.57,2.81,6.62,8.98-6.53,4.05-15.1,1.16-20.1-4.02-.02-1.43,11.8-4.82,13.48-4.97Z"/>
                <path class="cls-14" d="M425.07,194.86c.38.02,3.53.72,3.55,1.18-3.05,2.46-7.58,3.04-10.88.95-.29-1.17,6.5-2.17,7.33-2.13Z"/>
              </g>
            </g>
          </g>
          <g>
            <g>
              <path class="cls-8" d="M83.89,110.69c.46,14.56-2.15,29.38-.47,43.98-.12-.04-.33,0-.47,0-.22,0-3.75,1.7-4.02,1.89-3.98,2.88-4.83,7.71-4.02,12.29.16.92.07,1.91.47,2.84-2.31-2.13-2.24-3.04-3.78-5.2.21-2.57-.3-5.54,0-8.04.63-5.36,2.58-6.84.47-13.24,2-13.57,5.65-26.88,10.4-39.72.58,1.14,1.38,4.09,1.42,5.2Z"/>
              <path class="cls-1" d="M128.34,137.17c.12,1.72-2.84,4.44-3.78,6.86-.41,1.04-.62,2.81-.95,4.02-.21.79-1.4,2.45-1.42,2.6-.36,2.38.22,20.12-.71,20.57-1.76-5.08-10.67-15.63-11.59-20.1-1.09-5.28.81-14.17,0-19.86-2.16,5.32-.46,11.24-1.66,17.26l-15.13-24.59-.24,2.13,2.36,4.73c-.59,1.29-5.1-2.07-6.62-.95,10.23,2.31,12.89,9.35,17.97,17.5l-19.86-6.62,20.57,8.28,11.59,20.57c-.04.78-2.18.32-2.6.24-2.58-.48-18.57-7.41-20.81-8.98-2.66-1.87-5.6-5.87-7.57-8.51,4.59,11.72,20.89,15.47,31.68,18.92l11.59,21.99-27.43-11.82,28.14,14.9,8.28,20.1-28.37-9.69c-1.57-.46-3.14-1.04-4.73-1.42.22-1.17.18-5.85,0-7.09-.48-3.29-.5-5.37-3.78-4.73-5.3,1.04-7.69,5.37-10.4,9.46-.16-1.43.18-2.85-.47-4.26.85-.14,6.39-3.91,7.09-4.97,1.87-2.82,2.26-7.43,1.42-10.64-.32-1.22-.74-2.4-1.66-3.31-.31.12-1.11.93-1.18.95-4.02.99-6.53,2.86-8.98,6.15.02-.28-.74-2.72-.95-3.31.38-.16,5.42-5.15,5.67-5.91.8-2.4.02-6.11-1.18-8.28-.96-.35-1.12.47-1.18.47-2.67.22-4.98,2.07-7.57,1.89.05-.14-.04-.33,0-.47,1.2-4.04,2.43-9.05,1.42-13.24-.21-.88-1.27-3.11-1.89-3.31-1.68-14.59.93-29.42.47-43.98,16.28,6.11,30.96,15.67,44.45,26.48Z"/>
              <path class="cls-29" d="M173.74,211.89c.68,1.13.56,2.54.47,3.78-.13,1.92-.56,3.65-.47,5.67-9.12.65-18.33.99-27.43,1.89-3.33-3.01-1.92-7.2-.47-10.64l3.78-21.04c1.12.25,4.15-.59,4.73.71-.84,11.87,7.61,20.34,19.39,19.62Z"/>
              <path class="cls-29" d="M111.79,206.68c10.05,2.91,18.55,8.96,28.61,11.82l1.66,5.2c-5.53.58-11.05,1.6-16.55,2.36-8.63,1.19-16.93,2.97-25.54,4.26,1.88-1.52,4.52-1.15,6.86-2.36,5.42-2.82,6.07-8.76,4.97-14.19-.23-1.11-.15-1.87-.95-2.84-.22-.27.57-1.04-1.18-.95-2.1.11-9.22,5.27-10.17,7.57l-.47-3.31c2.76-.5,7.52-6.23,8.04-8.98,1.59.38,3.16.96,4.73,1.42Z"/>
              <path class="cls-18" d="M123.61,148.05c-.08,1.08.11,2.23,0,3.31-.44,4.16-1.22,18.86-.47,22.46.55,2.65,6.32,9.71,7.33,13l3.07-11.82c.06.69.34,2.79.47,3.31l-1.89,12.06,10.64,24.35,5.44-23.17c.4.11.99-.09,1.42,0l-3.78,21.04c-1.44,3.43-2.86,7.63.47,10.64-1.38.14-2.85.33-4.26.47l-1.66-5.2c-10.06-2.86-18.56-8.91-28.61-11.82l28.37,9.69-8.28-20.1-28.14-14.9,27.43,11.82-11.59-21.99c-10.8-3.45-27.09-7.2-31.68-18.92,1.97,2.65,4.91,6.64,7.57,8.51,2.23,1.58,18.23,8.5,20.81,8.98.42.08,2.56.54,2.6-.24l-11.59-20.57-20.57-8.28,19.86,6.62c-5.08-8.14-7.74-15.19-17.97-17.5,1.52-1.13,6.03,2.24,6.62.95l-2.36-4.73.24-2.13,15.13,24.59c1.2-6.02-.5-11.94,1.66-17.26.81,5.69-1.09,14.58,0,19.86.92,4.46,9.83,15.02,11.59,20.1.93-.45.35-18.19.71-20.57.02-.15,1.21-1.81,1.42-2.6Z"/>
              <path class="cls-29" d="M148.2,191.55l-5.44,23.17-10.64-24.35,1.89-12.06c1.48,5.79,8.55,11.72,14.19,13.24Z"/>
              <path class="cls-29" d="M133.54,175l-3.07,11.82c-1.01-3.29-6.78-10.36-7.33-13-.75-3.6.03-18.3.47-22.46,1.09,5.3,3.44,8.02,7.8,10.88.63.41,3.39.89,3.55,1.18.28.52-1.69,8.53-1.42,11.59Z"/>
            </g>
            <g>
              <path class="cls-29" d="M361.94,99.34l1.42,40.67c-.14-1.06-1.18-2.75-.95-4.02-.15-.19-1.09.18-1.42.24-1.99.37-5.26,4.11-7.33,5.2-6.34,3.33-14.37,5.05-20.57,9.22,2.47-5,5.02-14.64,8.04-18.92,3.39-4.81,12.61-8.74,17.02-12.77-5.19,1.93-9.68,5.28-14.19,8.51l7.8-17.26-12.77,24.12c-1.02.29-.93.02-1.18-.71-1.14-3.3,1.83-13.24-1.89-15.6.67,3.26,1.05,5.72.95,9.46-.07,2.31-.14,8.88-.47,11.82-.15,1.37-10.36,24.1-11.35,25.06-.26.25-.64.94-.95.47l-1.42-13c.95-8.23-4.16-11.56-4.26-13-.03-.4,3.48-4.85,3.78-7.09.36-2.68-.3-6.74-1.42-9.22l39.72-27.9c.52,1.48,1.34,2.94,1.42,4.73Z"/>
              <path class="cls-29" d="M297.16,191.55l8.04,23.41-1.42,7.8c-10.04-.77-20.21-.74-30.26-1.42.04-2.85-1.4-6.1,0-8.98,8.31.15,15.62-5.27,18.44-13,.58-1.58.58-6.28.95-7.09.58-1.31,3.22-.43,4.26-.71Z"/>
              <path class="cls-18" d="M360.99,136.22c-7.84,9.14-20.66,10.47-29.79,17.73l-11.59,27.66c10.24-4.32,20.55-9.29,29.79-15.6,2.08-1.42,5.06-5.1,7.33-4.97-5.57,4.39-11.2,8.82-17.26,12.53-4.07,2.49-18.97,8.81-20.81,10.4s-10.12,26.64-10.64,30.03c-.06.41-.54,2.63.24,2.6l31.92-20.81c-.08.22.07.67,0,.95l-32.86,23.17-1.66,3.31c-.97-.08-1.79-.47-1.89-.47l1.42-7.8-8.04-23.41c.56-.15.92-.32,1.42-.47l7.8,21.28c1.69-10.48,8.79-20.02,4.97-30.74.08-.14.29-.98.47-1.42l2.6,6.62c4.47-10.71,10.49-20.38,7.8-32.63.15-.52.41-1.8.47-2.36l1.42,13c.3.47.68-.22.95-.47.99-.96,11.2-23.7,11.35-25.06.33-2.94.41-9.51.47-11.82.11-3.74-.27-6.2-.95-9.46,3.72,2.37.75,12.31,1.89,15.6.25.73.16,1,1.18.71l12.77-24.12-7.8,17.26c4.51-3.23,9-6.58,14.19-8.51-4.41,4.03-13.63,7.96-17.02,12.77-3.02,4.27-5.57,13.92-8.04,18.92,6.2-4.17,14.23-5.89,20.57-9.22,2.07-1.09,5.34-4.83,7.33-5.2Z"/>
              <path class="cls-29" d="M340.19,196.75c-.31,1.28-.44,1.94-.47,3.31-.09,3.14-.04,5.89,1.42,8.75.51.99,5.56,5.75,6.15,5.91.06.77-.1,1.6,0,2.36l-6.38-5.2-4.49-1.89c-1.02.34-1.81,5.05-1.89,6.15-.3,3.9-.02,6.47,1.66,9.93-10.18-.86-20.31-2.04-30.5-2.84l1.66-3.31,32.86-23.17Z"/>
              <g>
                <path class="cls-29" d="M363.36,140.01c.54,3.98-.62,9.36,0,13.24.02.15-.03.32,0,.47-4.15,5.7-.06,17.96,7.33,18.92.44-.39.24-3.85.24-4.73h.95c.02.82-1.21,3.34.24,3.31,1.17-1.89,2.22-3.89,3.55-5.67.48-.64,4.3-4.64,4.26-4.97-.8-1-3.41-.99-4.26-1.66-2.4-1.89-2.6-11.56-.95-14.19.65,4.63-.23,11.15,3.55,14.19,2.14-5.12,2.37-10.3-.71-15.13,6.46,5.45,1.27,11.69,2.36,14.9.57,1.67,4.19-3.01,4.26-3.31.28-1.26-.85-1.43-.95-2.13,2.57,1.7,3.64-.77,5.67-2.36.96-.75,2.56-1.46,3.31-2.36l.47.47c-.99.66-12.28,10.9-11.82,11.59,6.06-.82,14.01-1.91,17.97,3.78-3.4,2.79-7.86,5.42-12.53,4.49-3.98-.79-2.97-4.9-6.15-7.09-1.28,2.6-5.58,5.19-4.02,8.51-2.32,2.11.53,3.16,0,5.67-.38-.52-3.05-1.39-3.55-2.36l-4.02,7.33c3.25-.86,4.4-1.98,8.04-1.66,2.91.26,5.09,2.12,7.57,3.31-5.53.14-11.41-2.13-15.6,3.07-.52.65-1.01,2.88-1.42,3.55-.07.11.07.35,0,.47-1.38,2.48-6.08,6.39-1.42,8.51-.86-.26-1.5.61-.47.95-.14-.01-2.27.48-2.84.47l-.95-.24c-.71,3.62-1.9,7.09-2.84,10.64-.44,1.67-1.09,3.42-1.89,4.97.3.54,1.6.05,1.89.24,4.87,3.13,11.29,2.23,16.55,0l-2.13,1.89c1.43.8,3.14-.96,3.31-.95.38.03-.03.92.71.95,9.6.38,19-.94,28.37,1.89-1.09.23-2.74,1.41-3.55,1.42-6.18.1-14.68-4.2-21.75-2.36l4.97,3.78c-4.85-2.04-5.45-2.78-10.4-2.36-3.88.33-8.86.99-12.53,2.36.32-1.72-2.9-4.31-4.73-4.26-1.21.41-2.07,6.12-2.13,7.33-.05,1.08-.45,2.91,1.42,1.66-.17.23-2.1,3.06-1.66,3.31h9.22c-1.85.02-6.17-.8-6.15,1.42-2.31-.69-4.26-1.77-6.15-2.36-.84-2.26,3.29-12.54,2.84-13.48-.64-1.34-6.24-.35-7.57-.71-.59-.16-5.64-4.92-6.15-5.91-1.46-2.86-1.5-5.61-1.42-8.75,1.56,2.01,1.11,5.55,2.84,7.8,1.68,2.18,3.77,3.56,6.62,3.55.19.72.59,1.5.71,2.36,1.25.25,2.57-.42,2.6-1.89.07.16,2.58,2.35,2.84,2.13l4.73-15.13c-4.87-1.49-5.66-.15-6.62,4.02-1.46-.88-1.65-3.6-2.84-4.97-.98-1.13-4.69-3.46-6.15-4.02-2.9-1.12-2.95-1.74-4.26,1.89l-31.92,20.81c-.78.03-.3-2.2-.24-2.6.52-3.39,8.88-28.5,10.64-30.03s16.74-7.91,20.81-10.4c6.06-3.71,11.69-8.14,17.26-12.53-2.27-.13-5.25,3.54-7.33,4.97-9.24,6.32-19.55,11.28-29.79,15.6l11.59-27.66c9.13-7.26,21.95-8.59,29.79-17.73.33-.06,1.26-.43,1.42-.24-.23,1.27.8,2.96.95,4.02Z"/>
                <g>
                  <path class="cls-8" d="M376.13,175.95s.24-.18.47.47c.22.62-.15,2.05,0,2.84-3.64-.32-4.79.79-8.04,1.66l4.02-7.33c.5.98,3.16,1.85,3.55,2.36Z"/>
                  <path class="cls-29" d="M349.65,180.2c.31,3.76,11.37,14.6,2.84,15.6-4.09-3.43-8.41-10.4-5.67-14.9.93-1.53,1.49-1.04,2.84-.71Z"/>
                  <path class="cls-22" d="M362.89,171.69c3.57,2.56,1.95,5.27,1.89,8.51l-2.84,3.31c-1.22-.23-1.77.15-3.31-.47-3.62-1.46-6.24-5.87-5.67-9.93,6.07,13.01,14.56,4.62,2.84-3.31,1.12.05,6.39,1.39,7.09,1.89Z"/>
                  <path class="cls-14" d="M384.4,160.81c4-.68,9.88.41,13,3.07-3.61,4.09-13.61,3.8-15.6-1.89.15-.43,2.19-1.11,2.6-1.18Z"/>
                  <path class="cls-24" d="M361.94,183.51c.64.12,2.35-.18,2.6,0,.5.35-2.6,10.47-3.07,11.59-.44,1.03-.33,1.81-1.66,1.66-1.99-.24-1.51-11.28-1.18-13.71,1.54.62,2.09.25,3.31.47Z"/>
                  <path class="cls-22" d="M352.48,195.81c8.53-1.01-2.53-11.85-2.84-15.6,3.64.88,8.15,5.54,8.51,8.75.49,4.34-.44,11.93-6.15,7.57-.03-.03.69-.53.47-.71Z"/>
                  <path class="cls-29" d="M355.79,169.8c11.72,7.93,3.23,16.32-2.84,3.31.34-2.48.51-3.42,2.84-3.31Z"/>
                  <path class="cls-24" d="M364.78,180.2c.06-3.24,1.68-5.96-1.89-8.51l.71-1.42c1.79,4.07,4.22,1.95,7.33,3.55-2.14,1.36-6.29,14.36-6.15,6.38Z"/>
                  <path class="cls-16" d="M375.65,165.54v-6.62c.85.67,3.46.65,4.26,1.66.04.32-3.78,4.32-4.26,4.97Z"/>
                </g>
              </g>
              <path class="cls-29" d="M298.57,191.08c5.03-1.57,10.24-4.65,12.77-9.46,3.83,10.71-3.27,20.25-4.97,30.74l-7.8-21.28Z"/>
              <path class="cls-29" d="M311.82,180.2c.67-1.63,1.79-4.73,1.89-6.38.17-2.79-2.09-9.92-1.89-10.4.27-.66,8.56-2.82,10.4-9.22,2.69,12.24-3.33,21.92-7.8,32.63l-2.6-6.62Z"/>
            </g>
          </g>
          <g>
            <path class="cls-18" d="M62.61,156.56c-.14-.13-.99-.76-.95,0-2.1-1.8-3.95-4.07-6.15-5.67l.47-.47c.94,1.01,2.55,2.39,3.78,3.07-6.32-7.04-9.85-18.31-2.13-25.77,7.26,7.97,8.41,18.77,4.97,28.85Z"/>
            <path class="cls-18" d="M35.42,204.32c4.65-.3,13.31.76,17.26,3.55-8.06,2.37-20.66,10.82-28.61,4.49-5.67-4.52,8.32-7.84,11.35-8.04Z"/>
            <path class="cls-18" d="M42.51,177.84c13.94,1.1,8.33,16.47,10.4,26.01-1.34,1.08-18.72-22.58-10.4-26.01Z"/>
            <path class="cls-14" d="M89.09,230.8c-5.66-1.52-11.72-1.89-17.5-2.84-3.52-3.55-5.2-7.56,1.42-8.04,7.95-.57,17.13,2.78,18.68,10.88h-2.6Z"/>
            <path class="cls-18" d="M25.49,171.69c2.45-.73,7.23,2.88,8.28,4.97.72,1.43,3.07,13.04,3.31,15.13.1.87.54,2.48-.24,3.07-3.52-1.97-18.5-21.05-11.35-23.17Z"/>
            <path class="cls-14" d="M65.92,162.23c.12.23.36.81.47.95l-3.78,7.09c-1.32-.11-1.79.48-1.89.47-5.23-.62-8.98-1.25-12.77-5.44,4.53-4.96,11.96-5.59,17.97-3.07Z"/>
            <path class="cls-18" d="M55.99,150.41l-.47.47c-2.63-1.92-20.27-10.23-19.86-12.53.59-3.34,9.56-.93,11.59.24,4.97,2.86,5.11,7.9,8.75,11.82Z"/>
            <path class="cls-22" d="M72.07,145.21c2.11,6.4.16,7.89-.47,13.24-1.47.36-2.27,1.39-3.78,1.89-.11.04-2.26.05-2.36,0-1.62-.81-2.49-2.68-3.78-3.78-.04-.76.81-.13.95,0,.87.83,2.31,2.84,3.78,2.6-.93-6.73-2.34-12.72,4.49-16.79.96.07.92,2.04,1.18,2.84Z"/>
            <path class="cls-5" d="M89.09,230.8c.94.25,3.09.23,3.31,1.18-5.61,1.53-10.16,1.87-15.6-.24-1.44-.56-3.99-2.56-5.2-3.78,5.78.95,11.84,1.32,17.5,2.84Z"/>
            <path class="cls-22" d="M110.84,210.94c-1.33-.68-3.37,3.26-3.78,4.02-1.95,3.56-3.18,7.6-4.73,11.35,7.34.67,9.04-6.68,9.46-12.53,1.1,5.43.46,11.37-4.97,14.19-2.34,1.21-4.97.84-6.86,2.36-1.16.17-2.08.39-3.31.47,1.75-1.73,2.75-3.65,1.42-6.15.79-2.26.51-4.89,1.42-7.09s8.07-7.45,10.17-7.57c1.75-.09.96.68,1.18.95Z"/>
            <path class="cls-22" d="M103.28,193.44c-3.89,5.2-6.43,11.53-6.15,18.21,7.25.65,8.63-8.11,9.93-13.48.18,1.25.22,5.93,0,7.09-.51,2.76-5.28,8.49-8.04,8.98-2.36.43-3.54-.77-5.67-1.42.63-3.3-.12-6.66-.47-9.93,2.71-4.09,5.11-8.42,10.4-9.46Z"/>
            <path class="cls-29" d="M85.31,157.98c-1.65,6.2-2.15,12.16-8.28,15.6-1.22.09-1.16-1.44-1.66-1.89-.4-.93-.31-1.92-.47-2.84.55-6.57,3.85-9.77,8.04-14.19.14,0,.35-.04.47,0,.62.2,1.68,2.43,1.89,3.31Z"/>
            <path class="cls-29" d="M88.14,183.51c-1.29.54-4.33.71-5.67.47-.07-.01-.87-.9-.95-.95.23-.58.51-.64.47-1.42,3.96,1.78,1.85-3.01,2.84-5.44.63-1.55,5.53-4.72,6.62-6.38.06,0,.22-.83,1.18-.47,1.2,2.16,1.98,5.87,1.18,8.28-.25.76-5.3,5.75-5.67,5.91Z"/>
            <path class="cls-29" d="M100.91,183.04l-1.89,8.28c-1.77,3.08-3.39,3.57-6.15,4.97-5.07-6.08,3.38-10.29,5.2-15.6.07-.02.87-.82,1.18-.95.91.91,1.34,2.09,1.66,3.31Z"/>
            <g>
              <path class="cls-14" d="M62.61,198.64c2.99,1.15,3.29,1.53,7.09,1.89-.27.55-.76,1.24-.47,1.89.89,2.04,9.65,1.69,12.29.95,1.82.42,3.18,1.93,4.26,3.31.67.86,1.31,1.3,1.89,2.36.73,1.34.68,3.76,2.36,4.49l-2.36,1.18c-9.03-2.91-15.41-4.9-24.12-8.98-1.93-.91-1.82.78-2.36.24-.91-.92-2.52-6.98-.24-8.28.81-.46,1.57.91,1.66.95Z"/>
              <path class="cls-14" d="M63.55,205.74c8.7,4.08,15.09,6.07,24.12,8.98.33.1,1.89.41,1.89.71-7.81,4.36-18.89-.05-24.83-5.91-.66-.65-4.02-3.69-1.18-3.78Z"/>
              <g>
                <path class="cls-14" d="M72.07,190.13c2.44.22,5.64.48,8.04,0-1.09,3.45-10.74,3.51-13.48,1.89-2.33.57,1.96,3.76,2.84,4.26,3.79,2.17,10.48,2.67,14.42.95-.88,4.43-10.59,3.66-14.19,3.31-3.8-.37-4.11-.74-7.09-1.89l5.67.71c-4.94-1.94-6.16-7.14-9.46-10.64.13-.6-.09-1.46,0-2.13.37-.53.93-.81,1.42-1.18,2.14,4.07,7.78,4.36,11.82,4.73Z"/>
                <path class="cls-14" d="M72.07,190.13c-4.04-.37-9.68-.66-11.82-4.73,1.22-.93,2.49-.79,3.78-1.42,5.07,2.17,13.92-3.26,15.13,5.44l-7.09.71Z"/>
                <path class="cls-14" d="M83.89,195.33c.28.62.12,1.28,0,1.89-3.94,1.73-10.63,1.22-14.42-.95-.87-.5-5.16-3.69-2.84-4.26,2.74,1.61,12.38,1.56,13.48-1.89.04-.14-.04-.32,0-.47.26,1.89,3.37,4.75,3.78,5.67Z"/>
              </g>
            </g>
            <path class="cls-22" d="M98.07,180.68c-1.83,5.32-10.27,9.53-5.2,15.6-.26.13.8.74.24.95-3.73,1.34-2.26-.55-4.49-1.89.12-.59-.51-4.86-.47-6.38,0-.12.94-2.01.95-2.13,2.46-3.28,4.96-5.16,8.98-6.15Z"/>
            <path class="cls-24" d="M88.14,183.51c.2.59.96,3.03.95,3.31,0,.12-.94,2.01-.95,2.13-.04,1.52.59,5.79.47,6.38-1.2,5.92-6.14-7.96-6.62-9.22-.29-.76-1.19-2.25.47-2.13,1.34.24,4.38.07,5.67-.47Z"/>
            <path class="cls-24" d="M92.4,198.64c.65,1.41.32,2.83.47,4.26.36,3.27,1.1,6.63.47,9.93-.58-.18-.35,1.31-1.18.95-.78-.34-3.39-11.09-4.02-13-.15-.44-2.32-2.27-1.18-3.07,2.07.06,3.13,1.31,5.44.95Z"/>
            <path class="cls-16" d="M62.61,170.27l3.78-7.09c1.88,2.22,5.21,3.49,5.67,7.8-.13.83-8.41-.62-9.46-.71Z"/>
            <path class="cls-16" d="M71.59,158.45c-.3,2.5.21,5.47,0,8.04-1.09-1.53-4.52-4.3-3.78-6.15,1.51-.5,2.32-1.53,3.78-1.89Z"/>
            <g>
              <path class="cls-18" d="M83.89,171.22c-2.36,2.56-4.57,2.38-7.57,3.55,2.55,1.46,2.99,7.03,4.26,8.51.43.5.59-.43.95-.24.08.04.88.93.95.95-1.67-.12-.76,1.37-.47,2.13.48,1.26,5.42,15.14,6.62,9.22,2.23,1.34.76,3.23,4.49,1.89.57-.2-.49-.82-.24-.95,2.76-1.4,4.38-1.89,6.15-4.97l1.89-8.28c.84,3.21.46,7.82-1.42,10.64-.7,1.05-6.24,4.83-7.09,4.97-2.31.37-3.36-.89-5.44-.95-1.14.8,1.04,2.63,1.18,3.07.63,1.92,3.24,12.66,4.02,13,.84.37.6-1.12,1.18-.95,2.14.65,3.31,1.85,5.67,1.42l.47,3.31c-.91,2.2-.63,4.83-1.42,7.09s-4.22,3.27-1.89,6.15c-.08,0-.99.97-1.18.95-.53-.08-.89-1.81-1.42-1.89-1.08-.16.16,2.08-.95,2.84-.94.64-13.19,3.18-16.08,4.26-5.48,2.04-15.75,6.46-20.57,9.46-22.52-.36-3.31-13.04,6.86-14.66,4.6-.73,9.35-.31,13.95,0,5.44,2.11,9.99,1.77,15.6.24-.22-.95-2.37-.93-3.31-1.18h2.6c-1.55-8.1-10.73-11.45-18.68-10.88-12.75-3.89-24.87,14.73-37.59,5.67-1.98-1.41-2.71-2.37-.95-4.26,1.16-1.24,13.53-5.8,15.6-6.15,7.49-1.25,13.51.49,20.57,2.6-4.99-1.13-31.37-21.16-33.34-21.04-.66.04-6.94,6.01-11.35,6.62-9.35,1.28-20.67-8.95-9.93-10.88,7.09-1.27,13.92,2.3,20.57,4.02-2.37-1.23-8.15-6.75-10.17-7.33-5.08-1.46-11.1.61-17.5-1.89-8.97-3.5-14.54-17.12,0-14.66,9.1,1.54,13.26,12.06,19.86,17.5,10.08,8.3,24.85,13.88,35.47,21.75-6.11-6.56-7.35-14.45-5.44-23.17,3.3,3.5,4.51,8.7,9.46,10.64l-5.67-.71c-.09-.03-.85-1.41-1.66-.95-2.28,1.3-.67,7.35.24,8.28.54.55.43-1.14,2.36-.24-2.84.09.52,3.13,1.18,3.78,5.94,5.86,17.01,10.27,24.83,5.91,0-.3-1.57-.6-1.89-.71l2.36-1.18c-1.69-.74-1.64-3.15-2.36-4.49l-1.89-9.22h-1.42l1.42,6.86c-1.07-1.38-2.44-2.89-4.26-3.31-4.09-.95-8.22.01-12.29-.95-.28-.65.2-1.34.47-1.89,3.6.35,13.31,1.12,14.19-3.31.12-.62.28-1.27,0-1.89-.21-.56-3.44-9.85-4.26-7.8.13.78.7,1.2.47,2.13-.04.15.04.33,0,.47-2.4.48-5.59.22-8.04,0l7.09-.71c-1.21-8.7-10.06-3.27-15.13-5.44,1.63-.8,7.29-3.13,7.57-3.78l7.09,2.6c-1.79-3.32-3.71-11.83-7.09-5.44-6.61,2.81-11.6,1.24-16.08-4.02.2-.45,3.43-.99,4.02-1.18.21-.07,3.37-1.25,1.18-1.42.1.01.57-.58,1.89-.47,1.05.09,9.33,1.54,9.46.71-.47-4.32-3.79-5.58-5.67-7.8-.11-.14-.35-.72-.47-.95-.15-.28.15-1.28-.47-1.89.11.05,2.25.04,2.36,0-.74,1.85,2.69,4.62,3.78,6.15,1.54,2.16,1.47,3.08,3.78,5.2.49.45.44,1.98,1.66,1.89,6.13-3.44,6.62-9.4,8.28-15.6,1.01,4.19-.22,9.2-1.42,13.24Z"/>
              <g>
                <path class="cls-8" d="M71.59,180.2c.06-.13-.6-1.7,0-2.84,3.38-6.4,5.31,2.12,7.09,5.44l-7.09-2.6Z"/>
                <path class="cls-24" d="M83.89,171.22c-.04.14.05.33,0,.47-.58,1.84-2.61,2.83-2.84,4.02-.29,1.51.85,4.17.95,5.91.04.78-.24.84-.47,1.42-.35-.19-.52.73-.95.24-1.27-1.48-1.7-7.05-4.26-8.51,3-1.17,5.2-.99,7.57-3.55Z"/>
                <path class="cls-14" d="M19.34,194.86c1.3-.3,9.42.75,9.69,1.66-1.81,4.94-15.56-.32-9.69-1.66Z"/>
                <path class="cls-14" d="M67.1,234.58c.94-.15,6.72,0,6.86.71-2.82,1.76-6.14,1.29-8.98,0,.66.01,1.9-.67,2.13-.71Z"/>
                <path class="cls-7" d="M96.66,230.8c-.16,0-.32,0-.47,0-2.33-2.87,1.08-3.8,1.89-6.15,1.33,2.5.33,4.42-1.42,6.15Z"/>
                <g>
                  <path class="cls-8" d="M87.67,209.05c-.58-1.07-1.22-1.51-1.89-2.36l-1.42-6.86h1.42l1.89,9.22Z"/>
                  <path class="cls-14" d="M81.52,203.37c-2.64.75-11.41,1.09-12.29-.95,4.07.96,8.21,0,12.29.95Z"/>
                  <path class="cls-8" d="M83.89,195.33c-.41-.92-3.52-3.78-3.78-5.67.23-.93-.35-1.35-.47-2.13.82-2.05,4.05,7.24,4.26,7.8Z"/>
                </g>
              </g>
            </g>
            <path class="cls-29" d="M74.9,168.85c-.81-4.59.04-9.42,4.02-12.29.27-.2,3.8-1.89,4.02-1.89-4.19,4.42-7.49,7.61-8.04,14.19Z"/>
            <path class="cls-29" d="M107.06,198.17c-1.3,5.37-2.68,14.13-9.93,13.48-.29-6.68,2.26-13.01,6.15-18.21,3.29-.64,3.31,1.44,3.78,4.73Z"/>
            <path class="cls-22" d="M91.45,169.8c-1.09,1.66-5.99,4.84-6.62,6.38-.99,2.43,1.12,7.22-2.84,5.44-.09-1.74-1.24-4.4-.95-5.91.23-1.19,2.26-2.18,2.84-4.02,2.59.17,4.9-1.67,7.57-1.89Z"/>
            <path class="cls-29" d="M110.84,210.94c.79.97.72,1.73.95,2.84-.42,5.85-2.11,13.2-9.46,12.53,1.55-3.74,2.78-7.79,4.73-11.35.42-.76,2.46-4.69,3.78-4.02Z"/>
          </g>
        </g>
        <g>
          <path class="cls-16" d="M301.41,94.61c.83-1.69.49-8.4-.47-10.17-4.66-8.55-23.62-19.43-33.81-18.21-2.84.34-2.65,2.78-2.84,2.84-.97.3-6.86-1.11-7.8,0-.25.29-1.21,3.68-1.89,4.49-3.24,3.85-8.41,5.8-13.48,4.97-2.29-.38-6.69-4.36-7.09-4.26-.31.08-3.03,3.98-4.26,4.73-4.27,2.61-9.9,2.62-14.19,0-1.23-.75-3.95-4.65-4.26-4.73-.59-.16-3.89,2.99-4.73,3.31-7.12,2.74-11.67.09-16.31-4.97-.47-.51-1.33-4.63-2.36-3.07-9.55-1.52-32.76,5.98-37.36,15.13-1.7.26.37-3.4.47-3.55,6.43-8.63,20.09-11.39,30.03-13-1.51-2.68-5.19-1.77-8.04-1.42-6.22.76-15.46,5.04-20.33,8.98-3.66,2.96-6.11,6.97-9.22,10.4,2.9-12.49,22.36-21.14,34.05-21.52-3.3-6.17-2.65-12.42,2.6-17.26.89-.82,4.27-1.65,4.49-2.6.03-.12-.96-2.24-.95-2.36.83-8.16,6.17-12.8,14.42-9.69,2.26-8.6,8.78-13.93,17.97-11.35,2.53.71,6.2,5.2,6.62,5.2s4.09-4.49,6.62-5.2c4.79-1.35,11.16-.04,14.42,4.02,1.36,1.69,2.72,7.16,3.07,7.33.68.32,6.96-2.79,11.82,1.42,5.01,4.34,1.78,8.77,2.6,11.11.12.36,3.13,1.29,3.55,1.66,6.35,5.48,6.44,10.55,3.31,17.97,14.67.4,38.97,12.21,33.34,29.79Z"/>
          <path class="cls-12" d="M273.51,212.36c-1.4,2.88.04,6.14,0,8.98-.22,14.93-.44,30.3-.95,45.4-2.86,4.2-14.43,3.62-17.02,0-.05-.07-.81.19-.95-.24l.47-46.11c4.09-2.18,8.99-10.27,9.69-10.4.45-.08,6.71,2.33,8.75,2.36Z"/>
          <path class="cls-26" d="M174.21,267.21c5.04,4.34,14.07,2.74,18.44-1.89.02,2.12.47,16.13-.71,16.55-5.34-1.48-11.1-2.22-16.55-.47-1.4-.47-1.13-12.24-1.18-14.19Z"/>
          <path class="cls-26" d="M272.57,266.74c-.07,2.01.68,14.19-.71,14.66h-16.08l-.24-14.66c2.6,3.62,14.16,4.2,17.02,0Z"/>
          <g>
            <path class="cls-12" d="M191.7,224.65c-.04,13.5.85,27.17.95,40.67-4.37,4.64-13.4,6.23-18.44,1.89-.43-15.38.21-30.55-.47-45.87-.09-2.02.34-3.76.47-5.67,8.68-.72,4.53-.2,8.04,4.02,1.95,2.35,6.21,6.22,9.46,4.97Z"/>
            <path class="cls-12" d="M192.18,220.87c-.85.76-.47,2.7-.47,3.78-3.25,1.26-7.51-2.62-9.46-4.97-3.51-4.22.64-4.74-8.04-4.02.08-1.24.21-2.65-.47-3.78,2.66-.16,7.85-2.46,8.28-2.36.75.18,5.13,8.97,10.17,11.35Z"/>
          </g>
          <g>
            <path class="cls-26" d="M212.04,257.28c0,1.65.57,12.49-.24,12.77l-14.66-.47c-1.38-.61-1.08-10.96-1.18-12.77,4.76,3.72,11.47,4.71,16.08.47Z"/>
            <g>
              <path class="cls-12" d="M212.04,226.54c.55,9.83.05,20.79,0,30.74-4.61,4.24-11.32,3.24-16.08-.47-.63-10.75.36-19.44.47-29.79,5.2,1.7,10.52.98,15.6-.47Z"/>
              <path class="cls-27" d="M212.04,222.29c.23,1.09-.07,2.98,0,4.26-5.09,1.45-10.4,2.17-15.6.47.01-1.19-.63-3.31-.47-4.73,4.67,1.01,10.67.52,14.9-1.89.81.65.96.88,1.18,1.89Z"/>
            </g>
          </g>
          <g>
            <path class="cls-26" d="M234.74,257.75c5.21,2.97,11.4,2.49,16.08-1.42-.08,1.98.06,12.43-1.66,13.24l-14.66.47c-.97-.71.22-10.61.24-12.29Z"/>
            <g>
              <path class="cls-12" d="M250.34,226.54c.04,9.9.85,19.85.47,29.79-4.68,3.91-10.86,4.38-16.08,1.42.1-10.34.23-20.86,0-31.21,5.31,2.12,10.25,1.68,15.6,0Z"/>
              <path class="cls-27" d="M250.34,222.29c0,1.41,0,2.84,0,4.26-5.35,1.68-10.29,2.12-15.6,0-.03-1.38.58-4.48-.95-4.26,3.72-3.19,3.55-.02,8.28.47,2.25.24,6.04-.02,8.28-.47Z"/>
            </g>
          </g>
          <g>
            <path class="cls-16" d="M301.41,94.61c-.32.66-.87,1.02-1.42,1.42-9.43,6.85-25.04-1.91-32.16-8.75,3.34,7.85,16.45,13.84,24.83,13,2.39-.24,4.37-1.89,6.86-1.89,5.19,0,11.06,3.94,11.82,9.22.34,2.36-1.1,6.77-.95,7.09.28.61,7.84,2.11,10.4,7.8,1.12,2.49,1.78,6.54,1.42,9.22-.31,2.24-3.81,6.69-3.78,7.09.1,1.45,5.2,4.78,4.26,13-.06.56-.32,1.85-.47,2.36-1.84,6.4-10.13,8.56-10.4,9.22-.2.49,2.06,7.62,1.89,10.4-.1,1.65-1.22,4.76-1.89,6.38-.18.44-.4,1.27-.47,1.42-2.53,4.81-7.74,7.89-12.77,9.46-.49.15-.86.32-1.42.47-1.03.28-3.67-.6-4.26.71-.36.82-.37,5.52-.95,7.09-2.83,7.74-10.13,13.16-18.44,13-2.04-.04-8.3-2.45-8.75-2.36-.71.13-5.6,8.22-9.69,10.4-1.28.68-3.33,1.61-4.73,1.89-2.24.46-6.02.71-8.28.47-4.72-.49-4.56-3.66-8.28-.47-8.19,7.03-13.38,7.99-21.75,0-.22-1.01-.37-1.24-1.18-1.89-4.23,2.41-10.22,2.9-14.9,1.89-.45-.1-3.26-1.17-3.78-1.42-5.04-2.38-9.41-11.17-10.17-11.35-.43-.1-5.62,2.2-8.28,2.36-11.77.72-20.23-7.75-19.39-19.62-.58-1.3-3.61-.46-4.73-.71-.42-.09-1.02.11-1.42,0-5.63-1.52-12.71-7.45-14.19-13.24-.13-.52-.41-2.62-.47-3.31-.27-3.05,1.7-11.07,1.42-11.59-.16-.29-2.91-.77-3.55-1.18-4.36-2.86-6.71-5.58-7.8-10.88.11-1.08-.08-2.23,0-3.31.32-1.21.54-2.98.95-4.02.94-2.42,3.91-5.14,3.78-6.86-.33-4.53-3.69-6.29-1.89-13,1.59-5.94,9.22-8.81,9.46-9.46.2-.53-1.05-4.22-.95-5.2.61-5.77,5.11-11.37,11.35-11.11,3.33.14,6.29,2.16,10.64,1.89,12.1-.75,25.28-13.45,29.08-24.35.06-.17-1.31.38,0-3.07.26-.69,1.55-2.03,1.89-2.84-1.36,17.04-1.64,36.42.95,53.44,7.89,51.98,64.63,44.45,67.62-.24.03-.45.55-4.07-.95-3.31-1.4,4.18-1.48,9.71-4.73,13,.02-.07-1.17-.33-.95-1.18,4.9-18.37,10.42-32.57,8.98-52.49-.1-1.41-2.19-8.46-1.42-9.22.71,1.42,1.95,2.51,2.84,3.78,5.5,7.89,10.45,16.66,20.1,20.33,6.38,2.43,17.12,3.36,15.84-6.62-1.61-12.57-28.41-17.3-38.3-17.97-.71-.05-.84-.16-1.42-.47.95-1.11,6.83.3,7.8,0,.19-.06,0-2.5,2.84-2.84,10.19-1.23,29.15,9.66,33.81,18.21.97,1.77,1.3,8.48.47,10.17Z"/>
            <path class="cls-28" d="M188.87,123.46c2.98.11,3.18,5.15,4.26,7.33,8.7,17.63,25.49,29.57,44.69,18.21,4.94-2.92,11.69-10.66,13-16.08,3.25-3.3,3.32-8.83,4.73-13,1.49-.76.98,2.86.95,3.31-2.99,44.69-59.73,52.22-67.62.24Z"/>
            <g>
              <path class="cls-27" d="M186.03,72.86c-1.31,3.45.06,2.9,0,3.07-3.81,10.91-16.98,23.6-29.08,24.35-4.35.27-7.31-1.75-10.64-1.89l-.47-2.36c9.63,7.07,27.76-2.79,33.57-11.59-.38-.83-8.44,6.6-9.69,7.33-5.37,3.12-20.19,7.7-20.57-2.36,10.32-8.24,23.44-15.42,36.88-16.55Z"/>
              <path class="cls-28" d="M150.56,84.68c-.54,1.08-1.46,3.57-1.42,4.73.38,10.07,15.2,5.49,20.57,2.36,1.25-.73,9.31-8.16,9.69-7.33-5.81,8.79-23.95,18.66-33.57,11.59-3.34-2.45-3.21-6.3-2.36-9.93,3.11-3.43,5.56-7.44,9.22-10.4,4.87-3.94,14.12-8.23,20.33-8.98,2.84-.35,6.53-1.26,8.04,1.42-9.94,1.62-23.59,4.37-30.03,13-.11.14-2.17,3.81-.47,3.55Z"/>
              <path class="cls-21" d="M187.92,69.55v.47c-.34.81-1.63,2.15-1.89,2.84-13.44,1.13-26.57,8.31-36.88,16.55-.04-1.16.88-3.65,1.42-4.73,4.59-9.15,27.81-16.66,37.36-15.13Z"/>
            </g>
            <g>
              <path class="cls-12" d="M299.99,96.03l-.47,2.36c-2.49,0-4.46,1.65-6.86,1.89-8.38.84-21.49-5.15-24.83-13,7.11,6.84,22.72,15.6,32.16,8.75Z"/>
              <path class="cls-27" d="M296.21,87.52c1.27,9.98-9.46,9.05-15.84,6.62-9.65-3.67-14.6-12.44-20.1-20.33,12.81-1.21,24.02,7.86,34.52,13.95,1.16.67.28,1.02,1.42-.24Z"/>
              <path class="cls-21" d="M296.21,87.52c-1.14,1.25-.26.91-1.42.24-10.5-6.09-21.71-15.16-34.52-13.95-.89-1.28-2.13-2.36-2.84-3.78.03-.03.56.06.47-.47,9.89.67,36.7,5.4,38.3,17.97Z"/>
            </g>
            <g>
              <path class="cls-12" d="M256.49,69.08c.58.31.7.42,1.42.47.09.54-.45.45-.47.47-.77.76,1.32,7.81,1.42,9.22,1.44,19.92-4.08,34.12-8.98,52.49-.23.86.96,1.11.95,1.18-1.31,5.42-8.07,13.16-13,16.08-19.2,11.36-35.99-.58-44.69-18.21-1.07-2.18-1.28-7.22-4.26-7.33-2.58-17.01-2.31-36.4-.95-53.44v-.47c1.03-1.56,1.89,2.56,2.36,3.07,4.64,5.05,9.2,7.7,16.31,4.97.84-.32,4.14-3.47,4.73-3.31.31.08,3.03,3.98,4.26,4.73,4.29,2.62,9.92,2.61,14.19,0,1.23-.75,3.95-4.65,4.26-4.73.4-.11,4.8,3.88,7.09,4.26,5.07.84,10.24-1.11,13.48-4.97.69-.82,1.64-4.2,1.89-4.49Z"/>
              <path class="cls-23" d="M223.39,132.44c-3.96,11.41,10.31,14.35,13.95,3.31.53,6.21-6.75,9.33-11.82,7.57-.48-.17-2.08-2.37-2.36-2.36-.18,0-2.29,2.2-2.84,2.36-5.4,1.6-10.78-1.46-12.06-6.86,2.93,2.71,5.27,7.18,10.17,6.38,4.14-.67,5.07-7.38,4.02-10.4-.21-1.28,1.09-1.42.95,0Z"/>
              <path class="cls-17" d="M223.39,132.44c.15-1.42-1.15-1.28-.95,0-.42-1.21-9.1-3.61-9.93-7.33-.22-1,.93-.65.95-.71h.47c5.74,8.68,13.74,7.18,18.92-.95,2.44,4.45-8.95,7.54-9.46,8.98Z"/>
              <path class="cls-2" d="M232.84,123.46c-.48-.72-15.38-.72-17.26-.47-1.02.13-1.73.05-1.66,1.42h-.47c.03-.14-1.08-1.76.71-2.36,1.96-.66,17.72-.33,18.68,1.42Z"/>
              <path class="cls-19" d="M232.84,123.46c-5.17,8.13-13.18,9.62-18.92.95-.08-1.37.64-1.29,1.66-1.42,1.88-.24,16.78-.24,17.26.47Z"/>
              <g>
                <path class="cls-16" d="M204,86.1c10.23,3.49,5.71,25.19-5.44,19.39-3.84-2-4.96-8.33-4.49-12.29.62-5.32,4.65-7.79,9.93-7.09Z"/>
                <path class="cls-23" d="M204,86.1c-5.28-.7-9.31,1.77-9.93,7.09-1.26.28-.54-3.38-.47-3.55,1.79-4.48,6.69-4.81,10.4-3.55Z"/>
                <g>
                  <path class="cls-4" d="M202.34,88.94c9.01.13,6.13,19.79-3.31,13.71-4.52-2.91-2.64-13.8,3.31-13.71Z"/>
                  <path class="cls-16" d="M200.45,92.72c2.06-.2,2.94,2.71.95,3.31-2.61.79-3.61-3.06-.95-3.31Z"/>
                </g>
              </g>
              <g>
                <path class="cls-16" d="M241.83,86.1c5.5-.65,9.64,1.53,10.4,7.09.63,4.6-2.03,13.13-7.8,13.24-8.57.16-11.35-17.2-2.6-20.33Z"/>
                <path class="cls-6" d="M252.23,93.19c-.77-5.56-4.9-7.74-10.4-7.09,5.59-2,12.32.49,10.4,7.09Z"/>
                <g>
                  <path class="cls-4" d="M243.01,88.94c7.98-.93,8.5,13.68,1.89,14.66-8.19,1.21-9.04-13.83-1.89-14.66Z"/>
                  <path class="cls-16" d="M246.32,92.72c2.7-.8,2.64,2.81.95,3.31-2.7.8-2.64-2.81-.95-3.31Z"/>
                </g>
              </g>
            </g>
          </g>
        </g>
      </g>
    </g>
  </g>
</svg>