<?xml version="1.0" encoding="UTF-8"?>
<svg id="katman_2" data-name="katman 2" xmlns="http://www.w3.org/2000/svg" viewBox="0 0 403.33 272.97">
  <defs>
    <style>
      .cls-1 {
        fill: #e8e8e3;
      }

      .cls-2 {
        fill: #191e27;
      }

      .cls-3 {
        fill: #feaa29;
      }

      .cls-4 {
        fill: #a56006;
      }

      .cls-5 {
        fill: #f78a1e;
      }

      .cls-6 {
        fill: #ea7e94;
      }

      .cls-7 {
        fill: #feae6a;
      }

      .cls-8 {
        fill: #f1d1c2;
      }

      .cls-9 {
        fill: #fbd6dd;
      }

      .cls-10 {
        fill: #e66154;
      }

      .cls-11 {
        fill: #7faa3b;
      }

      .cls-12 {
        fill: #fff;
      }

      .cls-13 {
        fill: #f3867e;
      }

      .cls-14 {
        fill: #cfd950;
      }

      .cls-15 {
        fill: #568953;
      }

      .cls-16 {
        fill: #fdf0ed;
      }

      .cls-17 {
        fill: #689b42;
      }

      .cls-18 {
        fill: #95bb44;
      }

      .cls-19 {
        fill: #fcc244;
      }

      .cls-20 {
        fill: #f5deb1;
      }
    </style>
  </defs>
  <g id="katman_2-2" data-name="katman 2">
    <g id="_Üretken_Nesne" data-name="Üretken Nesne">
      <path class="cls-11" d="M286.29,124.88c-.87-.13-1.31.72-1.69,1.27l-10.56-11.83c.03-.42-.02-.85,0-1.27.08-1.95.14-4.42,0-6.34,5.83,2.53,11.06,9.92,11.41,16.27,2.27-2.85,3.16-6.67,2.11-10.56s-6.53-6.31-7.18-9.29c-1.47-6.68-.19-12.51,4.65-3.38,2.51,4.74,2.58,9.75,5.07,14.36.05-1.58,3.73-6.4,3.8-7.18.06-.63-3.45-5-3.8-7.6-1.05-7.78,3.46-19.33,7.39-25.98,6.15,5.72,4.63,15.79,2.32,23.03-1.4,4.38-6.37,10.79-7.18,13.94-.1.37-.83.28.21,1.06,4.11-.33,30.96-14.5,32.74-10.77-2.02,15.42-22.65,10.46-33.59,11.62-.87.34-5.09,11-5.7,12.67Z"/>
      <path class="cls-11" d="M324.1,60.66c9.22,4.24,2.97,9.07-1.06,14.15,5.05-.72,10.88-.98,15.21,2.11-5.42,6.18-11.83,10.43-20.49,9.08-5.44-.84-4.72-5.61-9.72.84-.67-1.6,2.64-3.39,2.75-4.01.13-.76-1.92-3.33-2.11-4.65-.38-2.59,1.4-10.54,2.96-12.67,3.88-5.31,6.51,9,6.55,11.62,7.06-1.83,3.46-10.98,5.91-16.48Z"/>
      <path class="cls-3" d="M44.41,84.74c1.89-.16,1.75,3.94,2.11,4.22.21.16,2.59-2.41,4.65-2.53,5.97-.36,3.36,5.17-.21,6.97,9.2,4.24-1.8,5.03-2.11,5.49-.18.26,2.17,5.29.21,6.13-1.52.65-3.74-3.05-4.22-2.96-.46.08-5.23,8.03-6.55,2.75-.44-1.75,1.01-5.27.84-5.49-.29-.41-10.13-.87-.42-3.8-2.05-1.98-3.93-3.7-4.22-6.76,1.31-2.91,7.07,1.29,7.39,1.06.24-.17.97-4.93,2.53-5.07Z"/>
      <path class="cls-19" d="M295.79,53.9c3.23-.44,1.59,8.29,5.91,3.8,1.72.8-.75,3.42-.63,3.59.13.2,3.92.8,4.22,2.11.5,2.15-4.13,3.05-4.22,3.38-.07.25,2.59,1.9,1.69,4.65-1.3,3.99-6.4-1.77-7.39-3.59l-4.22,4.22c-2.01-.81.06-4.39-.42-4.65-1.42-.76-5.48.34-5.7-1.06-.02-2.49,4.95-4.31,5.07-4.65.08-.21-2.37-2.9-1.69-4.22,1.19-1.24,4.22,1.17,4.44,1.06.24-.13,1.49-4.45,2.96-4.65Z"/>
      <path class="cls-11" d="M332.55,59.39c2.23-.32,11.86,1.61,12.46,4.01.46,1.81-3.17,6.57-4.86,6.97-4.5,1.07-6.3-2.13-8.87-4.22-.37-.3-.84.68-1.27.42s.71-1.31.63-1.9c-.3-2.18-2.58-4.65,1.9-5.28Z"/>
      <path class="cls-11" d="M311,88.12c4.2-.18,8.9,1.03,12.04,4.01-5.23,5.65-14.68,5.13-20.28.42,1.21-3.53,4.81-4.29,8.24-4.44Z"/>
      <path class="cls-11" d="M350.72,44.18c8.41-.66.75,12.46-4.65,11.83-.77-.09-5.57-3-5.7-3.59-.58-2.59,8.05-8.06,10.35-8.24Z"/>
      <path class="cls-6" d="M117.71,15.45c3.34,2.24,4.81-2.51,7.39.84-1.65-3.14.31-4.13,1.06-6.34,3.02-.6,6.68,5.01,5.91,7.39-1.37,3.24-6.84,1.07-7.82,1.48-.5.21-3.31,9.21-6.97,2.75-2.02-3.56.2-4.22.42-6.13Z"/>
      <path class="cls-7" d="M274.88,9.54c.49.29.4.41.42.42-2.22,1.37-1.9,5.41-1.06,7.18-3.22-4.84-3.94-.63-5.07-.42-1.57.29-6.93-5.42-6.13-7.39.38-.39,3.31,2.41,6.34-1.9.17-.25.82-1.19.84-1.27,1.72.1,2.37,2.9,3.17,3.38.25.15,1.23-.15,1.48,0Z"/>
      <path class="cls-6" d="M121.09,7.43c-2.59,4.7-6.23,1.47-6.55,1.69-.48.33-.05,1.46-.21,1.69-.25-.26-1.95-.84-2.53-1.9-2.42-4.42,1.16-8.74,6.13-6.55,1.99.88,2.63,4.69,3.17,5.07Z"/>
      <path class="cls-7" d="M126.16,9.54c-.04.13.04.3,0,.42-.75,2.2-2.7,3.2-1.06,6.34-2.58-3.36-4.05,1.4-7.39-.84.02-.13,0-.29,0-.42-.05-2.64-2.15-2.94-3.38-4.22.16-.23-.27-1.36.21-1.69.32-.22,3.96,3.01,6.55-1.69.24.17,1.69-.17,1.9,0,1.56,1.25.64,3.2,3.17,2.11Z"/>
      <path class="cls-6" d="M126.16,9.54c-2.53,1.09-1.6-.86-3.17-2.11-.21-.17-1.66.17-1.9,0,1.42-2.57-.93-8.72,4.01-7.18s1.91,6.83,1.06,9.29Z"/>
      <g>
        <path class="cls-5" d="M258.82,70.8c-1.04-1.49-2.29-3.15-3.38-4.65,15.07-1.91,15.09-26.96-.63-25.35-5.63.58-8.68,11.04-7.82,15.63-3.24-1.1-5.52-4.91-8.03-6.76,1.23-15.22,9.37-21.68,24.29-16.48,20.86,7.27,17.57,35.63-4.44,37.6Z"/>
        <path class="cls-9" d="M255.44,66.15c-1.44-1.98-8.08-7.76-8.45-9.72-.87-4.59,2.18-15.05,7.82-15.63,15.72-1.61,15.71,23.44.63,25.35Z"/>
      </g>
      <path class="cls-12" d="M284.6,126.14c-3.23,4.68-.35,3.87-5.91,8.45-.24-4.03-2.91-8.83-6.34-10.98.24-.79.22-2.52.42-3.38.51-2.2,1.09-3.39,1.27-5.91l10.56,11.83Z"/>
      <g>
        <path class="cls-5" d="M168.41,50.1c-2.58,1.92-4.87,5.19-8.03,6.34,1.51-9.09-5.34-20.24-15.42-13.52-9.09,6.05-3.36,22.44,7.39,23.24-1.19,1.57-2.71,3.13-3.8,4.65-21.56-1.7-25.37-29.28-5.28-37.18,15.31-6.02,24.18.61,25.14,16.48Z"/>
        <path class="cls-9" d="M160.39,56.43c-.35,2.13-6.19,7.28-8.03,9.72-10.75-.8-16.48-17.18-7.39-23.24,10.08-6.72,16.93,4.43,15.42,13.52Z"/>
      </g>
      <g>
        <path class="cls-11" d="M133.77,101.64c-.75,3.94-.57,7.43-.42,11.41,0,.09-.53.52-.42,1.69l-8.03,6.55,4.01,10.77c1.62-3.21,3.13-6.74,6.13-8.87.59,1.7,1.65,3.91,2.53,5.49-1.43.8-2.31,2.44-3.59,3.38-3.08,2.27-6.69,1.9-2.75,7.18-1.33.17-2.7-2.5-4.22-3.8-.1-.09-1.43-2.46-.84,0-.59-.05-8.86-6-9.29-7.18.85.4,8.95,4.21,9.29,3.59l-9.51-23.87c-6,.54-17.9,2.52-22.81-1.27-1.67-1.29-3.38-4.2-.84-5.49,4.06-2.07,18.41,3.1,22.81,5.07l-5.91-11.83c-6.41,1.41-16.21,2.5-21.97-1.27-8.79-5.76,3.92-4.67,7.6-4.22,4.52.55,8.85,2.3,13.1,3.8l-6.13-11.41c.08-.04.66-.85,1.27-1.27l6.97,10.56c2.49-5.39,3.08-12.43,6.13-17.53,6.05-10.13,6.28,2.96,4.65,8.03-1.36,4.22-6.36,8.63-9.72,11.41l6.13,11.62c3.27-7,5.14-18.69,13.73-20.49.78,9.19-4.73,18.45-12.67,22.81l4.86,12.46c2.18-6.28,5.07-12.65,9.93-17.32Z"/>
        <path class="cls-11" d="M103.77,80.09c-.6.42-1.19,1.23-1.27,1.27-5.92,2.96-19.84,2.34-25.35-1.9-1.02-3.63,10.65-2.93,12.46-2.75,3.61.37,7.37,1.99,10.98,2.53-.67-1.23-5.62-9.25-6.13-9.51-1.62-.81-6.06,1.68-8.24,1.9-2.5.26-17.3-.93-17.53-3.59-.14-1.63,8.09-2.71,9.51-2.75,5.31-.13,9.5,1.85,14.58,2.32-1.46-1.67-5.4-8.79-6.97-9.51-2.25-1.03-8.46-.37-12.25-1.69-1.3-.45-9.82-5.3-7.18-6.34,1.91-1.35,15.5,4.33,15.84,3.59-2.75-1.18-14.32-16.71-10.35-18.38,2.89-1.22,13.31,13.02,14.58,15.84.84,1.88.6,4.91,1.27,6.34.84,1.8,5.23,5.41,6.13,7.82.36-5.12.39-10.44,1.9-15.42,4.32-14.2,7.61-2.61,6.76,5.07-.46,4.17-6.45,13.18-6.34,13.94.09.58,5.63,7.24,6.13,8.66,1.6.04,1.88-22.5,7.6-22.81,6.31,7.24,1.06,20.35-6.13,25.35Z"/>
        <path class="cls-12" d="M138.84,130.79c.29.43.41.4.42.42.67.93,1.83,2.62,2.53,3.38l-7.18,7.18c-.63-.5-3.16-2.24-3.38-2.53-3.95-5.28-.33-4.92,2.75-7.18,1.28-.94,2.16-2.58,3.59-3.38.37.66.85,1.49,1.27,2.11Z"/>
        <path class="cls-11" d="M146.44,138.82c-2.61,1.23-4.39,4.65-7.18,5.49-2.21.67-2.93-1.17-4.65-2.53l7.18-7.18c.89.96,3.61,3.4,4.65,4.22Z"/>
        <g>
          <path class="cls-11" d="M76.31,138.82c.88,1.78,2.04,3.33,2.96,5.07.55,5.18.19,10.91-1.69,15.84-.56,1.47-3.52,4.68-3.38,5.49.11.62,7.94,7.44,8.66,9.08-.01-3.86.1-7.79.63-11.62.27-1.93,1.96-5.26,2.11-6.55,2.6,2.77,3.69,6.48,5.49,9.72-.15,2.15-6.76,9.73-6.76,10.35,0,.29,3.57,4.26,3.8,4.44-.64,1.17-2.49,0-2.96,0l-3.17-4.22c-.3-.06-3.68,3.38-4.86,3.8-.73.26-.88.3-1.69.42-4.59.7-11.71-.18-16.48-.42.14-.04,1.51-1.49,2.32-1.69,6.46-1.59,12.79-2.13,19.43-2.53l-7.6-8.87c-2.55,3.21-25.19,13.5-24.72,5.28.26-4.51,19.47-7.44,23.24-6.34-1.19-1.06-8.87-8.58-9.51-8.66-.84-.1-11.14,7.26-14.79,8.03-10.93,2.3-14.99-2.03-2.11-6.34,5.02-1.68,10.18-2.26,15.42-2.75l-11.2-7.82c-6.46,6.02-15.01,10.54-24.08,9.72-3.43-1.64,5.1-6.22,6.34-6.76,4.76-2.08,10.32-2.84,15.42-3.59-.84-1.29-9.3-6.51-9.93-6.55-.67-.04-8.59,6.6-10.98,7.6s-18.4,5.34-12.25-.42c5.08-4.76,14.27-6.72,20.91-7.82-2.2-1.34-8.98-5.61-11.2-5.7-2.33-.09-6.97,3.02-9.72,3.38-1.68.22-11.58-.08-11.62-1.9,1-2.94,15.9-3.39,16.05-4.22-5.39-1.95-12.8-4.75-16.48-9.29-2.65-3.27-3.13-4.93,1.9-4.01,6.75,1.23,14.72,6.57,19.65,11.2.6.56,1.47,3.25,1.9,3.59,1.2.95,7.61,2.5,9.29,4.22.53-.3-2.93-7.68-3.17-8.66-1.14-4.75-3.88-19.82,3.8-10.14,4.58,5.77,4.76,13.83,2.96,20.7l9.08,5.28c1.28-.89-5.62-17.55-3.17-22.18,1.46-2.75,5.65,2.6,6.34,3.8,3.22,5.63,2.83,14.31-.42,19.86l9.93,6.97c.73-5.37-1.26-10.92-1.06-16.27.06-1.48.12-7.35,2.32-6.97,5.31,4.36,6.04,11.13,4.44,17.53-.39,1.55-3.44,6.79-3.38,7.18.1.65,9.13,6.93,9.93,8.66.42-8.32-2.3-18.18,4.01-24.93Z"/>
          <path class="cls-11" d="M106.73,122.76c-2.86-1.46-5.52-3.21-8.45-4.65-.45-1.04-2.21-1.67-1.69-3.17,1.35-3.89,20.49,3.51,23.87,4.44,2.5,2.6-12.95,3.18-13.73,3.38Z"/>
          <path class="cls-12" d="M85.61,156.14c-.15,1.29-1.84,4.62-2.11,6.55-.54,3.83-.65,7.76-.63,11.62-.72-1.65-8.56-8.46-8.66-9.08-.14-.81,2.82-4.03,3.38-5.49,1.88-4.93,2.24-10.66,1.69-15.84,1.51,2.84,6.65,9.63,6.34,12.25Z"/>
          <path class="cls-12" d="M94.9,172.2c1.09,3.22-2.46,6.03-2.53,9.29-.54-.18-2.03.74-4.22-.84-.24-.17-3.8-4.14-3.8-4.44,0-.62,6.61-8.2,6.76-10.35,1.31,2.36,2.36,4.07,3.8,6.34Z"/>
          <path class="cls-11" d="M99.55,179.38l-3.38,3.38c-1.45-.41-2.46-.83-3.8-1.27.08-3.26,3.62-6.07,2.53-9.29,1.48,2.32,3.54,5.78,4.65,7.18Z"/>
          <path class="cls-12" d="M104.62,185.29c-2.84-.27-5.65-1.74-8.45-2.53l3.38-3.38c1.22,1.54,3.71,4.78,5.07,5.91Z"/>
          <g>
            <path class="cls-15" d="M71.66,107.13c9.14,2.9,18.01,6.78,26.62,10.98,2.93,1.43,5.59,3.19,8.45,4.65,3.47,1.77,6.6,3.81,10.14,5.49.43,1.19,8.7,7.13,9.29,7.18.28.02.57-.01.84,0,1.52,1.3,2.9,3.97,4.22,3.8.22.3,2.75,2.03,3.38,2.53,1.72,1.37,2.43,3.2,4.65,2.53-.24.84-.99.46-.42,1.48,2.12,3.77,6.88,7.48,9.29,12.25,2.06,4.07,2.77,8.37,4.65,12.46-.16.53-.27,1.16-.42,1.69-1.23,4.36-1.56,6.36-2.11,10.56-.21,1.58-2.1,5.67-.84,7.18-1.87,1.91-4.55,1.3-6.97,2.53-1.75.89-4.89,3.69-6.55,5.07-3.03,2.51-2.41,1.59-5.07,5.07-4.49-2.24-7.94-6.48-12.04-9.29-2.58-1.77-5.87-3.09-8.24-4.65-.87-.57-2.02-.93-2.53-1.27-1.14-.74-2.32-1.22-3.38-2.11-1.36-1.14-3.85-4.37-5.07-5.91-1.11-1.4-3.17-4.86-4.65-7.18s-2.49-3.98-3.8-6.34c-1.8-3.24-2.9-6.95-5.49-9.72.31-2.62-4.83-9.41-6.34-12.25-.92-1.74-2.08-3.29-2.96-5.07-4.98-10.1-7.87-20.98-8.03-32.32.27-.28.44-.53.84-.63l78.37,83.65.63-2.32-76.47-80.06Z"/>
            <path class="cls-11" d="M71.66,107.13l76.47,80.06-.63,2.32-78.37-83.65c.2-.05,2.13,1.14,2.53,1.27Z"/>
            <path class="cls-1" d="M127.01,135.44c-.28-.01-.57.02-.84,0-.59-2.46.74-.09.84,0Z"/>
          </g>
        </g>
        <path class="cls-12" d="M134.19,120.23c.25.97.52,2.01.84,2.96-2.99,2.14-4.51,5.67-6.13,8.87l-4.01-10.77,8.03-6.55c.14,1.55.86,3.91,1.27,5.49Z"/>
      </g>
      <path class="cls-11" d="M278.68,134.59c-.66.54-4.71,3.66-5.07,3.8-1.04-1.36-5.1-6.13-5.07-7.6,0-.47,3.4-5.86,3.8-7.18,3.42,2.15,6.1,6.95,6.34,10.98Z"/>
      <path class="cls-12" d="M85.18,180.65c-2.48-.03-5.08.3-7.6,0-.32-.04-.47-.06-.42-.42,1.18-.42,4.56-3.86,4.86-3.8l3.17,4.22Z"/>
      <g>
        <path class="cls-11" d="M339.94,156.99c-1.92-3.76-.07-1.48.42-2.75.03-.07-.53-.32-.42-.63.02-.05.86-.35.84-.63-.03-.59-1.97-4.77-2.11-6.34-.65-7.4.68-13.5,6.97-17.96,2.91-.24.6,11,.21,12.89-.65,3.16-2.32,7.03-3.38,10.14l11.83-5.07c-2.17-6.63-2.05-15.07,2.53-20.7s7.68-5.42,6.34,2.53c-.38,2.25-6.74,16.01-5.7,16.69,1.07-.64,8.45-3.17,8.66-3.59.29-.6.6-9.93,1.69-13.1.64-1.88,7.14-13.9,8.45-8.87,1.51,5.78-3.5,15.24-5.7,20.49,1.9-1.68,7.72-2.11,9.29-3.38,1-.8,3.26-5.56,5.91-7.6,2.37-1.83,18.06-9.13,17.53-3.59-.32,3.31-13.87,9.8-17.32,10.14,5.06,1.89,11.58,1.28,15.63,5.07l-1.06,1.06c-7.28,3.54-16.53-3.18-21.12-2.96-2.3.11-7.58,3.45-10.35,3.59,8.09,1.81,15.21,4.97,20.7,11.41.33,2.83-7.03.33-8.66-.21-5.75-1.91-10.61-5.87-14.79-10.14l-9.51,4.01c4.97,2.37,11.46,3.96,15.84,7.39,8.91,6.99,2.21,6.62-4.65,4.65-5.67-1.63-11.77-5.78-15.21-10.56l-10.77,6.13c2.72,1.03,22.15,8.1,22.39,9.29.5,2.5-6.57,1.28-8.24,1.06-5.41-.72-13.63-3.3-16.27-8.45Z"/>
        <path class="cls-11" d="M329.8,159.94c-.58.39-1.26,1.93-1.9,2.11s-1.4-.89-1.48-.84l-2.11-8.87c2.64-3.27,5.41-6.42,8.03-9.72l-2.53,17.32Z"/>
        <path class="cls-12" d="M326.42,161.21c-2.47,1.33-4.65,3.23-7.18,4.44,1.09-1.71.14-7.42.42-8.45.07-.25,1.7-1.71,2.11-2.32.79-1.19,1.88-1.72,2.53-2.53l2.11,8.87Z"/>
        <path class="cls-12" d="M380.08,208.95c-.6,1.58-1.73,3.52-2.53,5.07-1.78,3.43-4.24,7.66-6.76,10.56-.77.88-2.91,3.02-3.8,3.8-2.44,2.16-6.76,4.91-9.72,6.34-1.58.76-3.42,1.56-5.07,2.11-2.39.81-7.35,2.25-9.72,2.53-1.34.16-4.14.37-5.49.42-3.74.14-9.59-.53-13.52-.84-1.74-.14-3.79-.19-5.49-.42-1.49-.21-5.81-.51-6.76-.84-1.63-.57-2.53-2.86-4.22-3.8,2.84-.32,5.41-1.51,8.03-2.53,2.88-1.13,5.63-2.59,8.45-3.8,1-.43,1.96-.83,2.96-1.27,3.53-1.56,7.08-2.97,10.56-4.65,1.02-.49,1.98-1.2,2.96-1.69,4.48-2.23,8.72-4.3,13.1-6.76,1.06-.59,1.81-1.27,2.53-1.69,3-1.74,5.92-3.16,8.87-5.07.88-.57,1.67-1.1,2.53-1.69,2.49-1.68,4.81-3.2,7.18-5.07.74-.59,1.38-1.07,2.11-1.69,2.25-1.9,4.79-3.71,6.76-5.91.85,5.6-.98,11.7-2.96,16.9Z"/>
        <g>
          <g>
            <path class="cls-15" d="M344.17,110.51c-26.14,22.99-54.51,43.36-81.33,65.49,0,2.89,2.62.32,3.8-.42,17.75-11.22,35.11-29.84,52.81-41.83,2.68.23,5.95-.78,8.03,1.27,3.35-2.52-4.69-2.97-4.86-3.59l24.93-20.49c.19.12,1.09-.08,1.48,0-1.94,12.8-8.89,21.87-16.69,31.69-2.62,3.3-5.38,6.45-8.03,9.72-.66.82-1.74,1.34-2.53,2.53-1.13.25-7.32,7.98-7.6,8.66-.73,1.72-.23,2.37,0,4.01-1.17.02-2.91-.44-3.38-.42-.09-4.74-.74-10.91-4.01-14.36-4.88-1.31-2.3,12.75-1.48,15.21-17.76,1.7-32.83,8.41-43.09,23.24-.2-.02-2.01-.03-2.11,0,1.17-1.77-.91-1.88-2.11-1.69.09-2.29-.48-4.53-.84-6.76-.62-3.77-1.61-6.69-2.53-10.14-.75-2.83-1.02-5.06-2.11-8.03-.41-1.11-.81-2.29-1.27-3.38,5.22-7.38,10.85-13.59,17.74-19.43,1.01-.86,2.82-1.32,2.96-2.96.5-.15.95-.14,1.69-.42.36-.14,4.41-3.26,5.07-3.8,5.57-4.58,2.69-3.77,5.91-8.45.38-.55.82-1.4,1.69-1.27-.33.89-2.72,5.82-1.9,6.34,3.43-2.17,7.32-4.62,10.98-6.34,15.6-7.32,31.37-13.17,48.8-14.36Z"/>
            <path class="cls-11" d="M347.55,110.94l-24.93,20.49c.17.62,8.21,1.08,4.86,3.59-2.08-2.05-5.35-1.04-8.03-1.27-17.7,11.99-35.07,30.6-52.81,41.83-1.18.75-3.79,3.31-3.8.42,26.82-22.12,55.19-42.49,81.33-65.49.46-.03,1.83-.9,2.32-.84.31.03.97,1.21,1.06,1.27Z"/>
          </g>
          <path class="cls-17" d="M339.94,156.99l-8.87,5.7,19.86,7.39c-1.29-.2-2.86-.24-4.22-.42-.68-.09-1.43.08-2.11,0-7.03-.87-13.2-1.43-20.28-1.69-.5-.02-1.47-.4-2.53-.42-2.52-.06-5.09-.05-7.6,0-.23-1.64-.73-2.29,0-4.01.29-.68,6.48-8.41,7.6-8.66-.41.61-2.04,2.07-2.11,2.32-.29,1.03.67,6.74-.42,8.45,2.53-1.21,4.72-3.1,7.18-4.44.07-.04.83,1.03,1.48.84s1.32-1.73,1.9-2.11c3.33-2.19,6.43-4.75,10.14-6.34-.11.31.45.56.42.63-.49,1.26-2.35-1.01-.42,2.75Z"/>
          <path class="cls-11" d="M310.79,167.13c-1.65.08-3.75.68-5.49.84-.82-2.46-3.4-16.52,1.48-15.21,3.27,3.46,3.92,9.62,4.01,14.36Z"/>
          <g>
            <path class="cls-14" d="M324.31,167.97c-4.99,8.35-11.02,17.46-14.79,26.41-.36.86-3.48,8.08-2.32,8.24l21.97-7.18c4.88-8.69,8.05-18.71,15.42-25.77.68.08,1.43-.09,2.11,0-2.02,1.61-15.68,24.05-13.73,24.93,3.93-2.21,13.58-2.31,16.9-4.22,3.49-2.01,10.2-14.05,12.89-17.74.74.16,1.66.21,2.53.42l-11.62,16.48c6.24,0,7.42-6.36,12.67-8.87,3.05.45-6.71,6.39-6.34,7.6l28.52-6.76c.07.07.76.31.84.63.21.77-.31,1-.42,1.48l-29.57,7.39,16.9,6.97c-.74.62-1.37,1.1-2.11,1.69l-18.38-8.03-11.41,2.53,22.6,10.56c-.87.59-1.65,1.12-2.53,1.69l-23.87-11.41-13.52,3.38-.42.84c9.43,4.53,18.96,8.98,28.94,12.25-.73.42-1.48,1.1-2.53,1.69-6.85-2.76-13.71-5.52-20.49-8.45-1.62-.7-8.37-4.97-8.87-5.07-2.72-.53-12.43,4.34-15.63,5.07l31.9,15.21c-.98.49-1.94,1.2-2.96,1.69l-20.49-9.29c-2.01-.39-10.51-6.22-11.41-6.34-1.44-.19-8.91,4.23-10.98,4.65l.42,1.27,31.9,14.36c-1,.44-1.96.84-2.96,1.27-6.2-2.81-12.58-5.26-18.8-8.03-2.06-.92-12.76-7.12-13.52-7.18-.65-.05-6.65,2.82-7.39,3.38-.09.07-.34-.07-.42,0-.13-.88-.48-1.73-.84-2.53,2.71-1.19,20.78-8.42,21.55-9.51.5-.71,3.2-9.72,4.22-11.83,4.06-8.32,8.76-16.37,13.52-24.29,1.06.02,2.04.4,2.53.42Z"/>
            <path class="cls-18" d="M350.93,170.08c3.9.6,7.96,1.67,11.83,2.53-2.68,3.69-9.4,15.73-12.89,17.74s-12.97,2.01-16.9,4.22c-1.95-.87,11.72-23.32,13.73-24.93,1.37.18,2.93.22,4.22.42Z"/>
            <path class="cls-18" d="M372.9,174.73c2.37.72,14.34,5.41,15.63,6.76l-28.52,6.76c-.38-1.21,9.39-7.16,6.34-7.6-5.26,2.51-6.43,8.87-12.67,8.87l11.62-16.48c2.43.58,5.28.98,7.6,1.69Z"/>
            <path class="cls-18" d="M314.17,167.55c2.52-.05,5.09-.06,7.6,0-4.76,7.92-9.46,15.97-13.52,24.29-1.03,2.11-3.73,11.12-4.22,11.83-.76,1.09-18.83,8.31-21.55,9.51-3.31-7.41-10.71-19.87-19.43-21.12-.06-.2-.79-.84-.84-.84,10.26-14.83,25.34-21.54,43.09-23.24,1.75-.17,3.84-.77,5.49-.84.47-.02,2.21.45,3.38.42Z"/>
            <path class="cls-14" d="M315.02,231.34c-2.61,1.02-5.19,2.21-8.03,2.53-1.95-1.09-3.67-1.49-5.91-1.27-1.49-5.55-7.98-.15-10.56,1.69-.49.35-2.38,1.13-2.53,1.27l-2.11.63c-.23-2.98.32-6.37,0-9.29-.02-.18-.84-1.39-.84-1.48-.05-.41.21-1.26,0-2.53l30,8.45Z"/>
            <path class="cls-18" d="M344.59,169.66c-7.37,7.06-10.54,17.08-15.42,25.77l-21.97,7.18c-1.16-.16,1.96-7.38,2.32-8.24,3.77-8.95,9.8-18.06,14.79-26.41,7.08.26,13.25.82,20.28,1.69Z"/>
            <path class="cls-18" d="M353.04,213.18c-4.38,2.46-8.61,4.53-13.1,6.76l-31.9-15.21c3.2-.73,12.91-5.6,15.63-5.07.5.1,7.26,4.37,8.87,5.07,6.78,2.93,13.64,5.69,20.49,8.45Z"/>
            <path class="cls-18" d="M323.47,227.54c-2.82,1.21-5.57,2.68-8.45,3.8l-30-8.45c-.4-2.4-1-4.76-1.27-7.18.74-.56,6.75-3.43,7.39-3.38.76.06,11.46,6.26,13.52,7.18,6.22,2.77,12.6,5.22,18.8,8.03Z"/>
            <path class="cls-18" d="M336.98,221.63c-3.48,1.68-7.03,3.09-10.56,4.65l-31.9-14.36-.42-1.27c2.08-.42,9.54-4.84,10.98-4.65.9.12,9.4,5.95,11.41,6.34l20.49,9.29Z"/>
            <path class="cls-18" d="M364.45,206.42c-2.95,1.91-5.87,3.33-8.87,5.07-9.98-3.27-19.51-7.72-28.94-12.25l.42-.84,13.52-3.38,23.87,11.41Z"/>
            <path class="cls-18" d="M388.95,183.6c-.56,2.42-4.19,6.53-5.91,8.45-1.97,2.2-4.51,4.01-6.76,5.91l-16.9-6.97,29.57-7.39Z"/>
            <path class="cls-18" d="M374.16,199.66c-2.37,1.87-4.7,3.39-7.18,5.07l-22.6-10.56,11.41-2.53,18.38,8.03Z"/>
          </g>
        </g>
      </g>
      <g>
        <g>
          <path class="cls-5" d="M402.47,190.78c-2.99-6.55-18.77-3.52-18.59,2.75.12,4.17,8.37.31,9.93.21,2.67-.17,5.8,2.16,8.24,0-.69,9.49-1.68,11.45-5.49,19.86-4.22-4.32-10.69-4.81-16.48-4.65,1.98-5.2,3.81-11.3,2.96-16.9,1.72-1.92,5.35-6.03,5.91-8.45.11-.48.63-.71.42-1.48-.09-.32-.78-.56-.84-.63-1.29-1.35-13.26-6.04-15.63-6.76-1.77-10.89,10.99-11.5,18.38-7.6,8.74,4.61,11.18,14.69,11.2,23.66Z"/>
          <path class="cls-5" d="M394.87,217.4c-3.36,6.46-6.24,10.6-10.98,16.05-2.23-5.08-8.32-7.19-13.1-8.87,2.52-2.9,4.98-7.13,6.76-10.56l17.32,3.38Z"/>
          <path class="cls-5" d="M380.92,236.84c-5.72,5.72-8.91,7.77-16.05,11.41.51-5.7-4.47-9.39-7.6-13.52,2.96-1.42,7.28-4.18,9.72-6.34l13.94,8.45Z"/>
          <path class="cls-5" d="M336.98,239.79l3.8,16.05c-5.15.59-10.06.42-15.21.42,1.47-6.07-.5-11.62-2.11-17.32,3.93.32,9.78.98,13.52.84Z"/>
          <path class="cls-5" d="M360.64,250.36c-5.37,2.22-8.95,3.6-14.79,4.65.47-5.66-.56-10.69-3.38-15.63,2.36-.29,7.33-1.73,9.72-2.53l8.45,13.52Z"/>
          <path class="cls-5" d="M317.97,238.53l2.53,17.74c-3.64-.1-7.35-.24-10.98-.42,2.74-5.92,3.95-11.84,1.69-18.17.95.33,5.27.64,6.76.84Z"/>
          <path class="cls-2" d="M402.47,190.78c0,1.27-.36,2.14-.42,2.96-2.44,2.16-5.57-.17-8.24,0-1.56.1-9.81,3.96-9.93-.21-.18-6.27,15.6-9.3,18.59-2.75Z"/>
          <path class="cls-2" d="M396.56,213.6c-.58,1.27-1.04,2.55-1.69,3.8l-17.32-3.38c.8-1.55,1.93-3.49,2.53-5.07,5.79-.17,12.25.33,16.48,4.65Z"/>
          <path class="cls-2" d="M323.47,238.95c1.61,5.71,3.59,11.25,2.11,17.32-1.68,0-3.39.05-5.07,0l-2.53-17.74c1.7.23,3.75.28,5.49.42Z"/>
          <path class="cls-2" d="M383.88,233.46c-1.08,1.24-1.72,2.14-2.96,3.38l-13.94-8.45c.89-.79,3.04-2.92,3.8-3.8,4.78,1.68,10.87,3.79,13.1,8.87Z"/>
          <path class="cls-2" d="M342.48,239.37c2.82,4.94,3.85,9.97,3.38,15.63-1.63.29-3.44.66-5.07.84l-3.8-16.05c1.35-.05,4.15-.26,5.49-.42Z"/>
          <path class="cls-2" d="M364.87,248.24c-1.49.76-2.63,1.45-4.22,2.11l-8.45-13.52c1.65-.56,3.49-1.35,5.07-2.11,3.13,4.13,8.12,7.82,7.6,13.52Z"/>
        </g>
        <g>
          <path class="cls-14" d="M77.58,180.65c6.84,8.96,12.32,18.76,16.69,29.15l28.1,11.83c-.14.72-.3,1.37-.42,2.11-2.35-.04-9.15-4.85-10.77-4.65-.53.07-7.35,5.11-8.87,5.91-6.38,3.4-13.12,6.24-19.22,10.14-1.07-.46-2.31-.81-3.38-1.27,2.06-.98,30.08-14.66,28.94-16.05-2.13-.25-8.1-4.05-9.72-3.8-.41.06-5.58,4.01-6.76,4.65-1.92,1.04-14.36,8.15-15.21,8.03-.22-.03-1.1-1.24-1.48-1.48l21.12-11.83-12.04-4.44-28.52,14.79c-.88-.41-1.7-.87-2.53-1.27l27.67-14.79c-2.93.16-10.83-3.44-13.1-2.96-.4.08-5.55,4.03-6.76,4.65-5.79,2.93-11.78,5.46-17.53,8.45-.82-.43-1.99-.74-2.96-1.27l23.87-11.83c.39-1.08-9.39-2.81-10.98-2.53-3.71.64-14.61,9.25-19.22,10.56-.93-.57-1.66-1.12-2.53-1.69l17.96-9.72c-8.67-3.84-15.12,3.26-22.6,6.76-.75-.55-1.4-1.12-2.11-1.69l13.52-6.97-23.24-3.59c-.01-.07-.74-.78-.84-1.06.48-.87,1.54-1,2.11-1.48l23.03,3.8.42-.84c-7.98-7.46,3.9,2.02,6.76,2.11l-10.77-14.36c.68-.2,1.48-.26,2.11-.42,2.68,2.25,10.75,14.7,12.89,15.63.73.32,14.94,2.91,15.63,2.53-2.59-8.05-8.6-14.25-13.73-20.7.9-.14,2.09.16,2.96,0,5.84,6.71,10.4,14.14,14.58,21.97l19.86,5.49c.86-.14-.08-2.37-.21-2.75-3.19-9.05-10.24-16.8-14.79-25.14.81-.12.96-.16,1.69-.42-.04.37.11.39.42.42Z"/>
          <path class="cls-18" d="M79.69,233.88c-7.88-3.37-15.87-6.55-23.66-10.14l28.52-14.79,12.04,4.44-21.12,11.83c.37.24,1.26,1.45,1.48,1.48.85.12,13.29-6.99,15.21-8.03,1.18-.64,6.35-4.59,6.76-4.65,1.61-.25,7.59,3.55,9.72,3.8,1.14,1.4-26.88,15.07-28.94,16.05Z"/>
          <path class="cls-18" d="M75.47,180.65c4.54,8.34,11.6,16.08,14.79,25.14.13.38,1.07,2.61.21,2.75l-19.86-5.49c-4.17-7.83-8.74-15.26-14.58-21.97,1.58-.3,1.83-.53,2.96-.84,4.77.24,11.89,1.12,16.48.42Z"/>
          <path class="cls-18" d="M121.94,223.74c-.07.45-.31.9-.42,1.69-.29,2.1-.25,4.58-.42,6.76-5.66,3.76-6.97-3.19-12.46-2.11-.91.18-1.78,1.65-1.9,1.69-4.79,1.53-10.05,3.03-11.41,8.87-4.16-1.65-8.15-3.71-12.25-5.49,6.1-3.9,12.84-6.74,19.22-10.14,1.52-.81,8.34-5.85,8.87-5.91,1.63-.21,8.43,4.61,10.77,4.65Z"/>
          <path class="cls-18" d="M53.07,181.07c5.13,6.45,11.14,12.65,13.73,20.7-.7.38-14.91-2.22-15.63-2.53-2.14-.94-10.21-13.38-12.89-15.63,5.3-1.37,9.52-1.7,14.79-2.53Z"/>
          <path class="cls-18" d="M53.5,222.47c-3.3-1.54-6.48-2.96-9.72-4.65,5.75-2.99,11.75-5.52,17.53-8.45,1.21-.61,6.36-4.56,6.76-4.65,2.27-.48,10.16,3.12,13.1,2.96l-27.67,14.79Z"/>
          <path class="cls-18" d="M40.82,216.56c-2.17-1.18-4.24-2.52-6.34-3.8,4.61-1.31,15.51-9.93,19.22-10.56,1.59-.27,11.38,1.46,10.98,2.53l-23.87,11.83Z"/>
          <path class="cls-18" d="M25.19,206.42c-3.59-2.89-8.67-5.83-9.72-10.56l23.24,3.59-13.52,6.97Z"/>
          <path class="cls-18" d="M31.95,211.06c-1.57-1.02-3.11-1.83-4.65-2.96,7.48-3.5,13.93-10.6,22.6-6.76l-17.96,9.72Z"/>
          <path class="cls-18" d="M85.18,180.65c.47,0,2.32,1.17,2.96,0,2.2,1.59,3.68.67,4.22.84,1.34.44,2.35.86,3.8,1.27,2.8.8,5.61,2.27,8.45,2.53,1.06.89,2.24,1.37,3.38,2.11l5.28,28.73c.42-.07,1.2.21,1.48-.21.96-1.45-3.62-23.82-4.22-27.25,2.37,1.56,5.66,2.88,8.24,4.65,4.1,2.81,7.55,7.05,12.04,9.29-3.65,4.78-4.87,7.43-6.76,13.1-.75,2.26-1.22,3.46-1.69,5.91l-28.1-11.83c-4.37-10.39-9.85-20.2-16.69-29.15,2.52.3,5.12-.03,7.6,0Z"/>
          <path class="cls-14" d="M110.53,188.67c.6,3.43,5.19,25.8,4.22,27.25-.28.42-1.06.14-1.48.21l-5.28-28.73c.52.34,1.67.7,2.53,1.27Z"/>
          <g>
            <path class="cls-18" d="M16.74,193.32c4.21-3.54,14.11-7.74,19.43-9.29l10.77,14.36c-2.86-.1-14.74-9.57-6.76-2.11l-.42.84-23.03-3.8Z"/>
            <path class="cls-14" d="M34.27,190.78c.45-.31,1.61.28,1.48,1.06-1.08.88-2.44-.4-1.48-1.06Z"/>
          </g>
        </g>
      </g>
      <g>
        <g>
          <path class="cls-8" d="M225.45,237.26c-.3,1.5-2.09,9.6-2.53,10.35-2.44,4.12-9.04,1.99-8.87,12.89h-20.7c.19-10.18-6.05-8.41-8.87-12.89-1.85-2.93-3.76-18.03-4.22-22.18,3.58,1.14,8.7,1.53,12.46,1.69,11.13.46,22.28-.37,33.38-.84l-.63,10.98Z"/>
          <path class="cls-8" d="M227.98,213.18c-.27,7.58-1.04,16.67-2.53,24.08l.63-10.98c-11.1.47-22.24,1.31-33.38.84-3.76-.16-8.88-.55-12.46-1.69-.48-4.26-.69-7.97-.84-12.25h48.59Z"/>
          <g>
            <path class="cls-16" d="M222.91,162.48c3.75,17.17,5.7,32.99,5.07,50.7h-48.59c-.62-17.1.87-34.12,5.07-50.7,12.67,2.24,25.79,2.44,38.45,0Z"/>
            <path class="cls-8" d="M220.8,154.45c.07,2.15,1.61,5.74,2.11,8.03-12.66,2.44-25.78,2.24-38.45,0,.79-3.11,1.85-6.16,2.53-9.29,7.23.87,16.13,1.03,23.45.84,3.16-.08,8.12-1.85,10.35.42Z"/>
          </g>
          <path class="cls-2" d="M152.36,172.2c.15-.53.26-1.16.42-1.69.6-1.96,1.4-3.62,2.11-5.49,2.61.86,17.86,7.22,17.32,9.93-.74,3.73-16.98-1.51-19.86-2.75Z"/>
          <path class="cls-2" d="M149.4,189.94c-1.25-1.51.64-5.6.84-7.18l16.9,11.2c-5.35,3.2-12.39-2.28-17.74-4.01Z"/>
          <path class="cls-2" d="M166.3,148.96c.3,2.43,9.21,10.47,9.29,11.2s-.06,1.03-.63,1.48c-2.15.79-12.38-7.27-14.15-9.29.46-.71,2.24-4.5,2.75-4.65.71-.14,2.6,1.24,2.75,1.27Z"/>
          <path class="cls-2" d="M159.54,252.47c.07-.49-.41-.4-.42-.42-.38-.74-2.59-6.05-2.32-6.34,2.29.41,13.66-5.79,14.36-5.49,3.52,1.49-10.32,10.35-11.62,12.25Z"/>
          <g>
            <g>
              <path class="cls-7" d="M106.73,231.77l-.42,3.38c-15.36-.35-8.52,18.47-2.53,25.77-5.76-3.48-9.95-13.79-8.45-20.28,1.35-5.84,6.61-7.34,11.41-8.87Z"/>
              <path class="cls-3" d="M121.09,232.19c-.01.14.01.28,0,.42-.08.9-.23,2.45.42,3.17l-1.69.21c-2.14-1.59-5.52-3.01-5.91.84-1.19-.58-6.15-1.66-7.6-1.69l.42-3.38c.12-.04.99-1.51,1.9-1.69,5.49-1.08,6.8,5.87,12.46,2.11Z"/>
              <path class="cls-12" d="M119.83,235.99c.1.07,1.63,1.59,1.69,1.69.58.9,1.74,3.41,1.27,4.44-1.36,2.94-7.39-4.56-8.87-5.28.4-3.85,3.78-2.43,5.91-.84Z"/>
            </g>
            <g>
              <path class="cls-5" d="M159.12,252.05s.5-.07.42.42c-1.05,1.53-3.42,8.1-3.38,9.72-11.67.45-23.42-.42-35.07-.42,11.41-6.43,24.84-10.15,38.02-9.72Z"/>
              <path class="cls-2" d="M135.88,197.54c.5,2.88,10.42,21.98,7.39,23.24-2.78,1.15-12.35-15.03-11.62-18.38.25-1.14,3.61-3.6,4.22-4.86Z"/>
              <path class="cls-2" d="M121.52,225.43c.11-.79.35-1.24.42-1.69.12-.74.28-1.39.42-2.11.47-2.45.94-3.65,1.69-5.91.71,4.06,12.19,12.69,10.98,16.27-1.28,3.8-11.66-5.19-13.52-6.55Z"/>
              <path class="cls-5" d="M121.52,237.68c-.06-.1-1.59-1.62-1.69-1.69l1.69-.21c-.65-.72-.51-2.27-.42-3.17,1.38-.14,1.05,3.94.42,5.07Z"/>
            </g>
          </g>
          <g>
            <path class="cls-3" d="M187,153.18c-.69,3.13-1.75,6.19-2.53,9.29-4.2,16.58-5.69,33.6-5.07,50.7.16,4.28.36,7.99.84,12.25s2.38,19.25,4.22,22.18c2.82,4.48,9.07,2.71,8.87,12.89-.14,7.54-3.35,11.47-10.77,12.25-7.53.8-26.16-.06-26.41-10.56-.04-1.61,2.33-8.19,3.38-9.72,1.3-1.9,15.14-10.76,11.62-12.25-.71-.3-12.07,5.9-14.36,5.49-.27.29,1.94,5.6,2.32,6.34-13.18-.44-26.61,3.28-38.02,9.72-6.83,0-10.92,3.02-17.32-.84-5.98-7.3-12.82-26.12,2.53-25.77,1.45.03,6.41,1.11,7.6,1.69,1.48.72,7.51,8.22,8.87,5.28.48-1.03-.69-3.54-1.27-4.44.63-1.13.96-5.21-.42-5.07.01-.14-.01-.28,0-.42.17-2.18.14-4.66.42-6.76,1.86,1.36,12.23,10.35,13.52,6.55,1.21-3.58-10.28-12.21-10.98-16.27,1.89-5.66,3.1-8.31,6.76-13.1,2.66-3.48,2.04-2.56,5.07-5.07-.62,1.26-3.98,3.72-4.22,4.86-.73,3.35,8.84,19.53,11.62,18.38,3.02-1.25-6.89-20.36-7.39-23.24,1.66-1.38,4.8-4.18,6.55-5.07,2.42-1.24,5.1-.62,6.97-2.53,5.35,1.73,12.4,7.22,17.74,4.01l-16.9-11.2c.55-4.2.88-6.2,2.11-10.56,2.87,1.23,19.12,6.48,19.86,2.75.54-2.71-14.72-9.07-17.32-9.93,1.89-4.99,2.92-8.07,5.91-12.67,1.78,2.02,12,10.09,14.15,9.29.58-.44.72-.73.63-1.48s-8.99-8.77-9.29-11.2c6.83,1.29,13.83,3.4,20.7,4.22Z"/>
            <g>
              <path class="cls-2" d="M154.68,223.32c1.67-.17,12.12.26,13.1.84,6.87,4.06-13.7,8.08-15.63,8.45l-1.9-8.66c1.46-.04,3.03-.49,4.44-.63Z"/>
              <path class="cls-2" d="M149.19,203.46c14.46,4.06,21.58,10.64.42,10.98-.52-1.59-1.27-10.76-.42-10.98Z"/>
              <g>
                <path class="cls-2" d="M180.88,259.65c1.36-.64,3.64,10.22,1.69,11.41-.97,0-1.71-10.13-1.69-11.41Z"/>
                <path class="cls-2" d="M171.16,260.07c.53,1.17-1.25,10.77-2.11,10.56-1.07-3.31-.07-7.9,2.11-10.56Z"/>
              </g>
              <g>
                <g>
                  <path class="cls-2" d="M113.28,247.82c.68-.09,1.42.06,2.11,0-2.32,1.65-5.45,3.47-8.24,4.86-.8-1.43,5.03-4.71,6.13-4.86Z"/>
                  <path class="cls-2" d="M108.21,241.48c.39-.05,2.86-.39,2.11.84l-8.24,2.32c-.13-.37,5.43-3.08,6.13-3.17Z"/>
                </g>
                <path class="cls-5" d="M148.34,192.05c1.17,1.3.62,3.91.42,5.49-1.28-1-.54-4.1-.42-5.49Z"/>
              </g>
            </g>
          </g>
          <path class="cls-2" d="M254.6,172.62c-4.43.9-11.04,3.77-15.42,3.8-13.78.09,11.05-11.04,13.31-11.83,1.09,2.97,1.36,5.2,2.11,8.03Z"/>
          <path class="cls-2" d="M257.13,182.76c.37,2.23.93,4.47.84,6.76-1.39.22-16.67,9.26-17.74,4.44l16.9-11.2Z"/>
          <path class="cls-2" d="M246.57,152.34c-2.01,1.68-12.11,10.54-14.58,8.87-1.65-1.11,2.9-3.99,3.59-4.86,1.78-2.24,3.31-4.72,5.07-6.97.49-.09,2.44-1.78,3.59-1.27.58.19,1.87,3.49,2.32,4.22Z"/>
          <path class="cls-2" d="M247.84,252.05c-.02.14,0,.28,0,.42-.45-1.38-18.09-12.39-10.77-12.25,1.27.02,10.32,5.84,13.1,5.49.84,1.14-2.18,5.19-2.32,6.34Z"/>
          <g>
            <g>
              <path class="cls-5" d="M285.86,261.76c-11.65-.03-23.39.89-35.07.42.07-3.45-2.96-7.42-2.96-9.72,0-.14-.02-.29,0-.42,12.81-.41,27.28,2.67,38.02,9.72Z"/>
              <path class="cls-2" d="M283.75,215.71c.26,2.42.87,4.78,1.27,7.18.21,1.27-.05,2.13,0,2.53-2.31,3.6-17.77,13-11.41,2.32.45-.76,9.12-11.55,9.72-12.04.08-.07.33.07.42,0Z"/>
            </g>
            <g>
              <path class="cls-7" d="M306.99,233.88c1.7.95,2.59,3.23,4.22,3.8,2.26,6.33,1.05,12.25-1.69,18.17-.28-.01-.57.02-.84,0-.51-.04-.74-.02-1.06.42l-.21-1.06c4.6-7.54,5.57-20.2-6.34-20.07-.12-.76.18-1.88,0-2.53,2.25-.22,3.97.18,5.91,1.27Z"/>
              <path class="cls-3" d="M301.07,232.61c.18.66-.12,1.78,0,2.53-1.39.02-6.47,1.13-7.6,1.69.29-2.21-1.09-2.8-2.96-2.53,2.58-1.84,9.07-7.24,10.56-1.69Z"/>
              <path class="cls-12" d="M293.47,236.84c-1.32.65-9.99,10.67-8.87,3.17.08-.53,2.8-3.92,3.38-4.44.15-.14,2.05-.92,2.53-1.27,1.87-.27,3.25.33,2.96,2.53Z"/>
            </g>
          </g>
          <g>
            <path class="cls-3" d="M240.66,149.38c-1.76,2.26-3.29,4.73-5.07,6.97-.69.87-5.24,3.75-3.59,4.86,2.46,1.66,12.57-7.2,14.58-8.87,1.68,2.72,3.42,5.93,4.65,8.87.46,1.09.86,2.27,1.27,3.38-2.26.79-27.08,11.92-13.31,11.83,4.38-.03,10.99-2.91,15.42-3.8.92,3.45,1.92,6.37,2.53,10.14l-16.9,11.2c1.08,4.82,16.36-4.22,17.74-4.44,1.2-.19,3.28-.08,2.11,1.69-1.08.32-1.26.25-1.69,1.27-.61,1.45-.5,5.12-.21,6.76l1.06-6.76c1.32-.4,2.43-.62,3.8-.42,8.73,1.25,16.13,13.72,19.43,21.12.36.81.71,1.65.84,2.53-.6.49-9.27,11.28-9.72,12.04-6.37,10.68,9.1,1.27,11.41-2.32,0,.08.83,1.29.84,1.48.32,2.92-.23,6.31,0,9.29l2.11-.63c-.58.52-3.3,3.91-3.38,4.44-1.12,7.5,7.56-2.52,8.87-3.17,1.13-.56,6.21-1.67,7.6-1.69,11.91-.13,10.93,12.53,6.34,20.07l.21,1.06c.31-.45.54-.46,1.06-.42-.55,1.35-2.9,3.93-4.01,4.65-6.71,4.32-11.66,1.29-18.8,1.27-10.75-7.04-25.22-10.13-38.02-9.72.14-1.15,3.16-5.2,2.32-6.34-2.78.34-11.83-5.47-13.1-5.49-7.31-.14,10.32,10.87,10.77,12.25,0,2.3,3.02,6.26,2.96,9.72-.17,8.6-10.84,10.13-17.53,10.56-10.4.67-19.02.36-19.22-12.25-.17-10.9,6.43-8.77,8.87-12.89.44-.75,2.23-8.85,2.53-10.35,1.49-7.41,2.27-16.5,2.53-24.08.63-17.71-1.32-33.53-5.07-50.7-.5-2.29-2.04-5.87-2.11-8.03-.02-.51-1.02-.85.21-1.69,6.69-.3,13.13-2.2,19.65-3.38Z"/>
            <g>
              <path class="cls-2" d="M245.94,223.32c3.55-.24,7.03.34,10.56.42l-1.06,8.24-1.06.63c-6.16-.64-27.44-8.02-8.45-9.29Z"/>
              <path class="cls-2" d="M257.35,203.88c.35.03.84-.16,1.06.21l-.63,10.35c-3.26.68-18.87-.94-11.83-6.34.57-.44,10.8-4.28,11.41-4.22Z"/>
              <g>
                <path class="cls-2" d="M226.08,259.65c.71,1.11-.77,11.42-1.69,11.41-1.52-3.48-.07-8.23,1.69-11.41Z"/>
                <path class="cls-2" d="M235.8,260.07c1.68-.9,3.66,9.4,2.53,10.56-2.32-2.55-1.78-7.28-2.53-10.56Z"/>
              </g>
              <path class="cls-5" d="M259.25,192.47l-1.06,6.76c-.28-1.64-.4-5.31.21-6.76.27-.03.63.06.84,0Z"/>
              <g>
                <g>
                  <path class="cls-2" d="M291.99,247.82c3.33-.32,6.62,1.56,8.24,4.44l-8.24-4.44Z"/>
                  <path class="cls-2" d="M297.06,241.48c3.27-.08,6.26,1.54,8.66,3.59-.21.43-8.49-2.45-8.66-3.59Z"/>
                </g>
                <g>
                  <path class="cls-2" d="M271.29,197.54c1.56,1.93,4.55,3.4,4.44,6.13-.1,2.44-8.19,15.7-10.35,16.69-2.51,1.15-2.56-.63-2.32-2.75.51-4.48,7.4-14.72,8.24-20.07Z"/>
                  <path class="cls-20" d="M262.2,191.21c.06,0,.79.65.84.84-1.38-.2-2.48.03-3.8.42-.21.06-.57-.03-.84,0,.43-1.02.61-.94,1.69-1.27.1-.03,1.91-.02,2.11,0Z"/>
                </g>
              </g>
            </g>
          </g>
        </g>
        <g>
          <path class="cls-2" d="M210.24,38.69c-.61,7.97-1.23,16.03-3.8,23.66-.68,2.01-1.12,4.38-2.75,5.91-1.35.09-2.4-4.14-2.75-5.07-2.76-7.35-3.77-16.24-3.8-24.08,5.24-.58,7.44-.99,13.1-.42Z"/>
          <path class="cls-2" d="M274.03,106.71c.14,1.92.08,4.39,0,6.34-5.29,1.84-11.01,3.97-16.69,4.22-1.77.08-16.52-.2-11.41-3.8,1.47-1.04,13.11-3.57,16.48-5.07,3.84-1.71,7.48-4.17,10.77-6.76.28,1.53.73,3.6.84,5.07Z"/>
          <path class="cls-2" d="M191.65,39.96c-1.63,2.81-1.92,22.18-3.59,22.81-2.68,1.02-7.95-17.09-6.97-19.86,3.73-1.52,6.67-2.13,10.56-2.96Z"/>
          <path class="cls-2" d="M226.29,42.91c.32,2.79-4.29,20.37-6.97,19.86l-3.59-23.24c3.65.73,7.14,1.97,10.56,3.38Z"/>
          <path class="cls-2" d="M263.47,78.83c.99,1.7,1.65,3.35,2.53,5.07-12.41,16.11-14.65,2.37-2.53-5.07Z"/>
          <path class="cls-2" d="M140.95,84.32c1-1.94,1.83-3.61,2.96-5.49,3.28,1.66,8.95,8.18,7.6,12.04-1.42,4.09-8.39-6.22-10.56-6.55Z"/>
          <path class="cls-5" d="M216.15,109.25c-7.47-2.24-6.62.04-12.04,0s-6.33-2.35-12.89-.42l9.72-45.63c.35.93,1.39,5.16,2.75,5.07,1.63-1.53,2.07-3.91,2.75-5.91l9.72,46.9Z"/>
          <path class="cls-2" d="M272.34,123.61c-.4,1.32-3.79,6.72-3.8,7.18h-.42c-2.58.76-18.55-.92-18.17-4.44l22.81-6.13c-.2.86-.18,2.59-.42,3.38Z"/>
          <path class="cls-2" d="M133.35,113.05c-.15-3.97-.32-7.47.42-11.41,3.3,2.07,6.38,4.67,9.93,6.34s16.17,4.38,17.74,5.49c.62.44.56,1.03,1.06,1.48-8.72,4.61-20.38,1.42-29.15-1.9Z"/>
          <path class="cls-2" d="M140.11,130.79h-1.27c-.42-.62-.9-1.45-1.27-2.11-.89-1.58-1.95-3.79-2.53-5.49-.33-.95-.6-1.98-.84-2.96l22.81,6.13c-3.4,4.63-11.55,4.44-16.9,4.44Z"/>
          <path class="cls-4" d="M140.11,130.79l-.84.42s-.14,0-.42-.42h1.27Z"/>
          <g>
            <path class="cls-2" d="M216.15,109.25s-.16.22.42.42c3.57,7.26-11.87,12.4-12.25,13.31-2.52,6.03,5.3,11.13,10.77,9.93,2.26-.5,3.71-3.71,4.44-4.01,3.15-1.31-.62,5.45-4.65,6.13-5.85.97-10.98-4.64-11.62-4.65-.61,0-7.49,6.45-10.77,5.07-.79-.89-7.25-3.57-6.34-6.13.83-2.33,3.57,3.12,5.7,3.59,2.52.55,9.55-1.36,10.35-4.01.11-.38.15-6.06,0-6.34s-4.7-1.65-5.7-2.32c-3.5-2.37-6.74-6.1-6.13-10.56.75-.26.79-.83.84-.84,6.55-1.93,7.73.38,12.89.42,5.42.04,4.57-2.24,12.04,0Z"/>
            <path class="cls-13" d="M212.35,140.09c-5.54,7.54-12.51,6.38-17.74-.42,5.57-4.98,12.37-4.79,17.74.42Z"/>
            <path class="cls-10" d="M214.89,135.02c-.67,1.8-1.38,3.5-2.53,5.07-5.38-5.22-12.17-5.4-17.74-.42-.89-1.16-1.75-3.82-2.11-4.22,3.28,1.38,10.16-5.07,10.77-5.07.64,0,5.77,5.62,11.62,4.65Z"/>
            <g>
              <path class="cls-12" d="M190.38,109.67c-.62,4.46,2.63,8.19,6.13,10.56,1,.68,5.56,2.05,5.7,2.32s.11,5.96,0,6.34c-.81,2.65-7.83,4.57-10.35,4.01-2.13-.47-4.87-5.92-5.7-3.59-.91,2.55,5.55,5.23,6.34,6.13.36.4,1.22,3.06,2.11,4.22,5.23,6.81,12.21,7.96,17.74.42,1.15-1.57,1.87-3.27,2.53-5.07,4.03-.67,7.79-7.44,4.65-6.13-.73.3-2.18,3.52-4.44,4.01-5.47,1.2-13.3-3.9-10.77-9.93.38-.91,15.83-6.05,12.25-13.31,16.81,5.67,22.28,22.73,30.63,36.76,8.01-3.08,16.5-8.21,20.91-15.63h.42c-.03,1.48,4.03,6.25,5.07,7.6-.74.28-1.19.27-1.69.42-1.67.51-7.43-.53-2.96,2.96-6.89,5.84-12.52,12.05-17.74,19.43-1.23-2.94-2.97-6.15-4.65-8.87-.46-.74-1.74-4.04-2.32-4.22-1.15-.51-3.1,1.18-3.59,1.27-6.51,1.18-12.95,3.08-19.65,3.38-1.23.84-.23,1.18-.21,1.69-2.23-2.27-7.19-.5-10.35-.42-7.32.19-16.22.02-23.45-.84s-13.87-2.93-20.7-4.22c-.15-.03-2.04-1.41-2.75-1.27-.51.14-2.29,3.94-2.75,4.65-2.99,4.61-4.02,7.69-5.91,12.67-.71,1.87-1.51,3.53-2.11,5.49-1.87-4.09-2.59-8.4-4.65-12.46-2.42-4.77-7.17-8.48-9.29-12.25-.57-1.02.18-.64.42-1.48,2.79-.84,4.57-4.26,7.18-5.49,4.1,3.23,8.93,5.63,13.73,7.6,7.95-13.85,13.88-31.01,30.21-36.76Z"/>
              <g>
                <path class="cls-11" d="M271.92,138.82c-.14,1.64-1.95,2.1-2.96,2.96-4.47-3.49,1.29-2.44,2.96-2.96Z"/>
                <g>
                  <path class="cls-2" d="M183.41,125.72c1.61-1.2,2.87,1.89,1.27,2.53-1.45.59-1.97-2.01-1.27-2.53Z"/>
                  <path class="cls-2" d="M221.43,121.07c2.11-.44,1.55,2.35.42,2.53-1.36.22-1.94-2.22-.42-2.53Z"/>
                  <path class="cls-2" d="M221.86,125.72c1.55-.68,2.74,1.47,1.27,2.11-1.55.68-2.74-1.47-1.27-2.11Z"/>
                  <path class="cls-2" d="M185.1,121.07c.59.03,1.76,2.02.42,2.53-1.78.69-1.98-2.61-.42-2.53Z"/>
                  <path class="cls-2" d="M187.21,125.3c2.09-.81,2.27,1.87.84,2.11s-1.91-1.7-.84-2.11Z"/>
                  <path class="cls-2" d="M218.48,125.3c1.91-.68,1.89,1.73.84,2.11-.91.33-2.36-1.57-.84-2.11Z"/>
                </g>
              </g>
            </g>
          </g>
          <g>
            <path class="cls-3" d="M215.73,39.53l3.59,23.24c2.68.51,7.29-17.07,6.97-19.86,3.78,1.55,9.45,4.39,12.67,6.76,2.51,1.85,4.79,5.66,8.03,6.76.37,1.95,7.01,7.74,8.45,9.72,1.09,1.49,2.34,3.16,3.38,4.65,1.65,2.37,3.17,5.49,4.65,8.03-12.11,7.44-9.88,21.18,2.53,5.07,3.12,6.09,5.92,10.78,7.18,17.74-3.29,2.59-6.93,5.05-10.77,6.76-3.37,1.5-15,4.03-16.48,5.07-5.12,3.6,9.64,3.88,11.41,3.8,5.68-.26,11.39-2.38,16.69-4.22-.02.42.03.85,0,1.27-.18,2.52-.76,3.72-1.27,5.91l-22.81,6.13c-.38,3.52,15.58,5.2,18.17,4.44-4.42,7.42-12.91,12.55-20.91,15.63-8.35-14.03-13.82-31.09-30.63-36.76-.59-.2-.39-.41-.42-.42l-9.72-46.9c2.57-7.63,3.19-15.69,3.8-23.66,2.17.22,3.4.43,5.49.84Z"/>
            <g>
              <path class="cls-12" d="M229.88,84.32c17.18-2.51,17.12,24.45-.42,21.55-11.28-1.87-10.4-19.96.42-21.55Z"/>
              <g>
                <path class="cls-2" d="M229.88,87.7c11.44-1.85,12.37,14.51,3.38,16.05-11.06,1.9-12.29-14.62-3.38-16.05Z"/>
                <path class="cls-12" d="M228.62,88.97c4.08-.95,4.36,4.31,2.11,5.07-4.07,1.38-5.38-4.31-2.11-5.07Z"/>
              </g>
            </g>
          </g>
          <g>
            <path class="cls-3" d="M197.14,39.11c.03,7.84,1.04,16.73,3.8,24.08l-9.72,45.63c-.06.02-.09.58-.84.84-16.33,5.74-22.26,22.9-30.21,36.76-4.8-1.98-9.64-4.38-13.73-7.6-1.04-.82-3.76-3.27-4.65-4.22-.71-.76-1.86-2.45-2.53-3.38l.84-.42c5.35,0,13.5.19,16.9-4.44l-22.81-6.13c-.4-1.59-1.13-3.94-1.27-5.49-.11-1.17.43-1.6.42-1.69,8.77,3.32,20.43,6.51,29.15,1.9-.5-.45-.43-1.04-1.06-1.48-1.57-1.12-14.04-3.75-17.74-5.49s-6.63-4.26-9.93-6.34c1.25-6.6,4.21-11.56,7.18-17.32,2.17.33,9.14,10.64,10.56,6.55,1.34-3.86-4.32-10.38-7.6-12.04,1.52-2.55,2.94-5.64,4.65-8.03,1.09-1.52,2.61-3.07,3.8-4.65,1.84-2.43,7.67-7.59,8.03-9.72,3.16-1.14,5.45-4.42,8.03-6.34,3.83-2.85,8.24-5.37,12.67-7.18-.98,2.77,4.29,20.88,6.97,19.86,1.67-.64,1.97-20.01,3.59-22.81,2.57-.55,3.11-.58,5.49-.84Z"/>
            <g>
              <path class="cls-12" d="M172.43,84.32c17.22-3.19,18.17,24.7,0,21.55-10.71-1.86-10-19.7,0-21.55Z"/>
              <g>
                <path class="cls-2" d="M174.12,88.12c10.46-1.21,11.74,13.97,3.38,15.63-11.92,2.37-12.79-14.54-3.38-15.63Z"/>
                <path class="cls-12" d="M171.58,89.81c5.19-1.52,4.39,7.63-.42,5.07-2.14-1.14-1.37-4.54.42-5.07Z"/>
              </g>
            </g>
          </g>
        </g>
      </g>
    </g>
  </g>
</svg>