<?xml version="1.0" encoding="UTF-8"?>
<svg id="katman_2" data-name="katman 2" xmlns="http://www.w3.org/2000/svg" xmlns:xlink="http://www.w3.org/1999/xlink" viewBox="0 0 350.43 229.15">
  <defs>
    <style>
      .cls-1 {
        fill: #dcdbdc;
      }

      .cls-2 {
        fill: #e9bf68;
      }

      .cls-3 {
        fill: url(#Adsız_degrade_801);
      }

      .cls-4 {
        fill: url(#Adsız_degrade_802);
      }

      .cls-5 {
        fill: url(#Adsız_degrade_800);
      }

      .cls-6 {
        fill: url(#Adsız_degrade_799);
      }

      .cls-7 {
        fill: url(#Adsız_degrade_771);
      }

      .cls-8 {
        fill: url(#Adsız_degrade_762);
      }

      .cls-9 {
        fill: #5b655f;
      }

      .cls-10 {
        fill: #aab8b1;
      }

      .cls-11 {
        fill: #151515;
      }

      .cls-12 {
        fill: #71a640;
      }

      .cls-13 {
        fill: #597067;
      }

      .cls-14 {
        fill: #7c582e;
      }

      .cls-15 {
        fill: #785a42;
      }

      .cls-16 {
        fill: #677c74;
      }

      .cls-17 {
        fill: #9ec93d;
      }

      .cls-18 {
        fill: #669541;
      }

      .cls-19 {
        fill: #92a099;
      }

      .cls-20 {
        fill: #fff;
      }

      .cls-21 {
        fill: #8aa50b;
      }

      .cls-22 {
        fill: #55813a;
      }

      .cls-23 {
        fill: #a5b809;
      }

      .cls-24 {
        fill: #d0cc00;
      }

      .cls-25 {
        fill: #2c3734;
      }

      .cls-26 {
        fill: #728a80;
      }

      .cls-27 {
        fill: #694b33;
      }

      .cls-28 {
        fill: #84b52c;
      }

      .cls-29 {
        fill: #394841;
      }

      .cls-30 {
        fill: #c1d2c9;
      }

      .cls-31 {
        fill: #3b5e2d;
      }

      .cls-32 {
        fill: #4b6159;
      }
    </style>
    <linearGradient id="Adsız_degrade_800" data-name="Adsız degrade 800" x1="193.98" y1="105.91" x2="188.63" y2="126.62" gradientUnits="userSpaceOnUse">
      <stop offset="0" stop-color="#758e84"/>
      <stop offset="1" stop-color="#647a70"/>
    </linearGradient>
    <linearGradient id="Adsız_degrade_801" data-name="Adsız degrade 801" x1="117.05" y1="109.6" x2="107.85" y2="134.11" gradientUnits="userSpaceOnUse">
      <stop offset="0" stop-color="#566962"/>
      <stop offset="1" stop-color="#42504c"/>
    </linearGradient>
    <linearGradient id="Adsız_degrade_771" data-name="Adsız degrade 771" x1="152.65" y1="125.21" x2="144.05" y2="146" gradientUnits="userSpaceOnUse">
      <stop offset="0" stop-color="#556761"/>
      <stop offset="1" stop-color="#43514d"/>
    </linearGradient>
    <linearGradient id="Adsız_degrade_799" data-name="Adsız degrade 799" x1="156.4" y1="102.66" x2="147.66" y2="127.73" gradientUnits="userSpaceOnUse">
      <stop offset="0" stop-color="#70877d"/>
      <stop offset="1" stop-color="#596c65"/>
    </linearGradient>
    <linearGradient id="Adsız_degrade_802" data-name="Adsız degrade 802" x1="136.63" y1="137.84" x2="125.69" y2="158.76" gradientUnits="userSpaceOnUse">
      <stop offset="0" stop-color="#50605a"/>
      <stop offset="1" stop-color="#3c4946"/>
    </linearGradient>
    <linearGradient id="Adsız_degrade_762" data-name="Adsız degrade 762" x1="301.37" y1="114.22" x2="250.9" y2="171.99" gradientUnits="userSpaceOnUse">
      <stop offset="0" stop-color="#75a745"/>
      <stop offset="1" stop-color="#5c8a37"/>
    </linearGradient>
  </defs>
  <g id="katman_2-2" data-name="katman 2">
    <g id="_Üretken_Nesne" data-name="Üretken Nesne">
      <g>
        <path class="cls-17" d="M64.57,150.85c.17.04.69.32.74.37,2,1.98,3.9,3.64,6.27,5.16-7.03,3.03-11.51,9.53-15.12,16.04-1.05,1.9-3.01,5.42-2.58,7.56-1.81,6.95-1.87,16.35-2.58,23.6-2.31,5.93-1.79,1.4-4.06,0,.3-13.12.62-26.37.37-39.46l.74,2.03c-.02-17.88-2.01-35.88.74-53.66.21-1.35,1.01-4.78,1.48-6.64,2.62-10.57,7.62-20.87,16.23-27.84-13.62,19.74-15.73,44.63-14.57,68.04,6.33-19.95,20.44-41.38,41.86-46.65-22.92,13.47-34.18,39.72-38.91,64.72,1.44-4.22,4.96-11.24,9.4-13.28Z"/>
        <path class="cls-17" d="M43.18,195.11c-.06,1.62-.84,5.28-.37,6.64-.28.65-1.06.69-1.11.74.4-11.38-1.36-22.64-4.43-33.56.13-3.72-.74-8.51-1.48-12.35-4.63-24.05-13.81-46.93-22.49-69.7,2.8,2.63,5.31,7.22,7.38,10.69,13.59,22.85,20.26,42.44,22.13,69.33l.37,28.21Z"/>
        <path class="cls-17" d="M37.28,168.92c3.07,10.91,4.83,22.18,4.43,33.56-.04.05.02.9-.55,1.11-.72-1.45-.61-3.14-.92-4.79-4.53-23.8-10.06-40.7-24.71-60.29-.81-1.08-6.81-7.56-6.08-7.93,14.95,9.26,23.14,21.61,27.84,38.35Z"/>
        <path class="cls-28" d="M34.7,92.59c11.19,24.52,12.4,44.95,12.91,71.54.25,13.09-.07,26.34-.37,39.46-.68-.42-3.98-.55-4.43-1.84s.31-5.02.37-6.64c.7-17.98,1.99-35.38.37-53.47.42-.4,2.16-.82,2.21-.92,1.51-2.86-4.06-27.11-5.53-32.82l-5.53-15.3Z"/>
        <g>
          <path class="cls-15" d="M24.01,20.68c2.63,4.22,5.22,9.83,7.38,14.38l6.64,16.04c-.5,2.44-3.17,2.25-4.98,1.29-2.39-1.27-6.05-12.25-7.56-15.3s-8.88-15.7-9.22-17.7c-.29-1.67.55-2.95.37-4.43,4.29-.76,4.63,4.5,7.38,5.72Z"/>
          <path class="cls-27" d="M24.01,20.68c-2.75-1.22-3.09-6.48-7.38-5.72.19,1.48-.66,2.75-.37,4.43.34,2,7.7,14.62,9.22,17.7s5.17,14.03,7.56,15.3c1.8.96,4.48,1.14,4.98-1.29l-6.64-16.04c2.11,4.46,11.12,19.79,5.16,23.23-.07.04-1.4.36-1.48.37-6.88.64-9.62-12.65-12.17-17.89-1.73-3.55-9.93-17.54-10.33-19.91-.87-5.22,2.5-8.79,7.56-5.72,1.66,1.01,2.84,3.88,3.87,5.53Z"/>
        </g>
        <path class="cls-17" d="M34.7,92.59l5.53,15.3c1.47,5.71,7.04,29.96,5.53,32.82-.06.11-1.79.53-2.21.92-2.49-27.74-11.93-56.65-30.61-77.63,10.42,6.57,16.77,17.64,21.76,28.58Z"/>
        <path class="cls-12" d="M36.55,58.29l7.74,20.84,6.27,26.74c-.46,1.86-1.27,5.29-1.48,6.64-1.54-18.51-6.44-36.96-14.01-53.84.08,0,1.41-.33,1.48-.37Z"/>
        <path class="cls-18" d="M81.9,161.92c-17.23,7.38-23.1,19.11-28.76,35.77-.66,1.93-1.14,4.09-1.84,5.9.71-7.25.77-16.65,2.58-23.6,2.8-10.75,11.4-17.39,21.02-21.76,2.03,1.14,4.91,2.85,7.01,3.69Z"/>
        <path class="cls-20" d="M74.9,158.23c-9.62,4.37-18.22,11.01-21.02,21.76-.43-2.14,1.53-5.66,2.58-7.56,3.61-6.51,8.09-13.01,15.12-16.04,1,.65,2.26,1.25,3.32,1.84Z"/>
      </g>
      <g>
        <path class="cls-17" d="M29.54,200.27c-2.43,1.75-.33,1.63-.92,2.58-.79,1.26-10.88,2.41-4.43,6.64,8.03,5.26,53,8.26,64.53,8.85,42.8,2.21,87.17,3.37,129.99,1.84,29.33-1.05,70.48-1.88,98.65-7.74,2.28-.47,13-2.85,11.25-6.45-.86-1.76-3.37-.73-1.84-4.98,7.06,1.29,37.7,6,16.04,14.01-14.19,5.25-42.14,7.57-57.9,9.22-41.64,4.35-85.3,5.29-127.23,4.79s-100.36-1.33-141.61-11.8c-3.01-.76-16.89-4.38-16.04-8.3.95-4.36,24.98-7.93,29.5-8.67Z"/>
        <path class="cls-17" d="M62.36,196.21c-.34,2.34-1.08,7.05,2.21,7.38.3,2.67,3.64,2.37,4.79,2.95,2.37,1.2,2.81,2.39,5.53,2.21,1.45-.09,2.14.42,2.95-1.11h1.48c.42.82,3.02,1.94,3.87,1.48.99-1.25.32-2.77.55-4.06,1.02-.34.94-.27,1.84,0,32.67,9.86,72.33,5.26,106.39,6.64,1.56,1.27,1.93,2.62,3.5,4.06s5.6,5.05,7.38,2.21l2.58.37c2.8,1.79,3.99-.06,5.16,0,1.32.07,2.4.2,3.69.37.57.07,2.27.27,2.58.37.1.03.7,1.12,1.84,1.11-42.82,1.53-87.19.36-129.99-1.84-11.54-.59-56.51-3.59-64.53-8.85-6.46-4.23,3.63-5.38,4.43-6.64.6-.95-1.51-.83.92-2.58,3.54-.57,7.09-1.3,10.69-1.48.32,1.66.2,3.35.92,4.79.57-.21.51-1.06.55-1.11.04-.05.82-.09,1.11-.74.45,1.29,3.75,1.43,4.43,1.84,2.27,1.4,1.74,5.93,4.06,0,.71-1.81,1.19-3.97,1.84-5.9l9.22-1.48Z"/>
        <path class="cls-17" d="M287.68,197.32c.3.57,1.67,3.23,2.03,3.32,2.98.73.54-5.63.18-7.01,1.96,1.61,1.7,5.59,2.58,7.56,1.57,3.5,6.03,6.89,6.27.55,1.88-.44,2.99-1.86,3.32-3.69,8.35.09,16.54,1.46,24.71,2.95-1.53,4.25.99,3.22,1.84,4.98,1.76,3.6-8.97,5.98-11.25,6.45-28.17,5.87-69.31,6.7-98.65,7.74-1.14.02-1.74-1.07-1.84-1.11,2.09-1.28.92-5.32-1.11-6.27l.92-1.48c17.81-.63,35.87-.77,52.73-7.01-.76-2.32-4.04-1.72-5.9-2.58l-28.58-1.84c0-1.05-1.1-2.35-1.11-2.58-.03-1.25.27-2.51.37-3.69l53.47,3.69Z"/>
        <path class="cls-17" d="M106.98,193.63c.06.7,1.15,4.77,1.48,5.53l-9.77,2.21c-3.85.39-11.19-.2-13.09,3.69-.91-.27-.83-.34-1.84,0,.04-.23-.04-.51,0-.74.61-3.45,1.52-6.75,2.95-9.96l20.28-.74Z"/>
        <path class="cls-17" d="M217.61,193.26c.21,1.61,1.97,5.62,3.32,6.64-2.38,1.27-6.53-.13-9.4.37-.89-.42-1.46-6.16-1.66-7.38l7.74.37Z"/>
        <path class="cls-17" d="M184.42,193.63c.2.89,2.18,5.97,1.66,6.27l-62.88.74c.6-1.96.75-4.37,1.48-6.64l59.74-.37Z"/>
        <g>
          <path class="cls-18" d="M213.92,168.92c-1.7,5.31-4.38,8.32-4.79,14.75-.2,3.15.24,6.13.74,9.22.19,1.22.77,6.95,1.66,7.38,2.87-.5,7.03.9,9.4-.37,1.52,1.15,2.73.59,3.32.74,1.81.46,3.95,2.54,5.9,0,1.55,1.9,1.53,2.64,3.69,1.11.9-.64,1.1-.62,1.11-1.84l28.58,1.84c1.86.86,5.14.26,5.9,2.58-16.86,6.24-34.92,6.38-52.73,7.01l-.92,1.48c-.26-.12-.46-.32-.74-.37,1.03-2.73-2.72-6.89-5.35-5.53s-.51,8.54,2.77,7.38c-1.26,2.22-.18,3.14,1.84,4.43-1.29-.17-2.37-.3-3.69-.37,1.45-9.64-11.28-3.91-5.16,0l-2.58-.37c2.82-4.52-6.73-10.16-7.38-2.21-1.57-1.44-1.95-2.79-3.5-4.06-34.06-1.37-73.72,3.22-106.39-6.64,1.9-3.89,9.24-3.3,13.09-3.69l9.77-2.21c1.14,2.67,2.19,2.34,2.95,2.95,1.69,1.37,5.99,5.13,5.16-.74h.37c-.78,2.55,1.49,5.67,4.24,4.06,1.13-.67,1-2.52,1.29-3.32.11-.31.5-.7.74-1.48l62.88-.74c.52-.3-1.45-5.38-1.66-6.27-.61-2.66-1.34-5.37-1.48-8.11-.17-3.59-.02-6.55,1.11-9.96,2.84-.49,7.12.24,9.77,0,.15-.01.37-.66,1.11-.74.15-.02.55.89,1.11.74.89-.25,1.36-1.41,1.66-1.48-3.37,7.46,10.78,10.33,8.11,2.03-.04-.13-1.36-2.32-1.48-2.4,1.4-2.61,4.38-2.23,6.82-2.21.27,0,.1.76.37.74.7-.06,1.16-3.34,2.4-3.32Z"/>
          <path class="cls-24" d="M190.51,192.16c10.72,4.53-.6,9.69-2.77,6.08-.9-1.49,1.13-5.33,2.77-6.08Z"/>
          <path class="cls-24" d="M193.46,202.85c5.66-.93,5.31,6.17,1.11,7.01s-4.49-6.45-1.11-7.01Z"/>
          <path class="cls-24" d="M186.45,184.04c3.71-.38,4.14,5.01,1.11,5.53-3.53.6-4.54-5.18-1.11-5.53Z"/>
        </g>
      </g>
      <g>
        <g>
          <path class="cls-18" d="M302.06,198.06c-.33,1.83-1.44,3.24-3.32,3.69.18-4.65-4.16-14.62-4.79-20.65-2.83-27.06,7.11-67.44,25.08-88.32,4.31-5.01,11.08-11.52,17.7-12.54-23.51,17.01-31.43,49.48-34.85,76.89,4.97-15.48,18.1-30.85,34.48-34.48-15.5,13.01-30.58,34.98-33.56,55.32-.93,6.32.24,14.67-.74,20.1Z"/>
          <path class="cls-17" d="M275.88,126.88l7.01,20.28c.81,4.24,1.66,9,4.06,12.72-.02-1.29.03-2.59,0-3.87h.37c.24,6.36,2.25,19.66,5.9,24.34.12.15-.27.96.74.74.63,6.03,4.97,16,4.79,20.65-.24,6.34-4.7,2.94-6.27-.55-.88-1.97-.62-5.95-2.58-7.56-1.27-4.94-3.47-10.8-5.53-15.49l-17.7-49.05c2.22-.73,4.75-.9,7.01-1.48.39-.1,1.31-.69,1.48-.74.2-.06.54.06.74,0Z"/>
          <path class="cls-17" d="M303.53,96.28c-.67-.15-1.3,1.22-1.48,1.66-4.08,10.34-6.72,21.47-8.48,32.45-7.21,1.65-.31-8.98-1.48-13.09,4.78-18.68,13.31-40.52,30.24-51.07-8.28,8.46-14.33,19.15-18.81,30.05Z"/>
          <path class="cls-28" d="M303.53,96.28c-10.7,26.05-13.96,56.16-10.33,84.08-3.65-4.68-5.66-17.98-5.9-24.34-.51-13.35,1.52-25.91,4.79-38.72,1.17,4.11-5.74,14.74,1.48,13.09,1.76-10.98,4.4-22.11,8.48-32.45.17-.44.81-1.81,1.48-1.66Z"/>
          <g>
            <path class="cls-15" d="M324.92,1.5c.32.22.26.24.37.37l-.37,6.08c-5.8,10.29-11.51,20.68-15.86,31.71-1.36,1.76-5.54-2.13-4.79-5.53,1.14-5.14,10.73-20.3,13.64-26.18.42-.84.37-3.26,1.11-4.43,1.16-1.85,3.93-3.36,5.9-2.03Z"/>
            <path class="cls-27" d="M324.92,1.5c-1.97-1.33-4.74.18-5.9,2.03-.73,1.17-.69,3.58-1.11,4.43-2.92,5.88-12.51,21.04-13.64,26.18-.75,3.4,3.43,7.29,4.79,5.53,4.34-11.03,10.06-21.42,15.86-31.71l.37-6.08c.45.52,1.07,1.86,1.11,2.4.28,4.11-7.35,15.53-9.59,19.91-1.58,3.1-6.87,16.6-8.67,17.89-1.2.86-3.16,1.27-4.61,1.11-.68-.08-.82.01-1.48-.37-1.6-.92-2.45-4.66-2.21-6.45.45-3.38,16.5-33.7,18.99-35.22,1.53-.94,5.54-2.16,6.08.37Z"/>
          </g>
          <path class="cls-28" d="M284.73,121.35c-.39,11.51,1.93,23.27,2.21,34.66.03,1.29-.02,2.58,0,3.87-2.4-3.72-3.24-8.48-4.06-12.72-1.37-7.13-1.78-14.37-2.58-21.57l-.74-.37c-1.22.6-2.36,1.28-3.69,1.66-.2.06-.53-.06-.74,0,2.77-1.3,7.24-3.66,9.59-5.53Z"/>
          <path class="cls-17" d="M283.99,91.48c-1.9-.45-4.4-1.3-6.27-1.48-3.69-9.23-9.7-17.45-17.7-23.42,10.68,3.72,19.96,14.12,23.97,24.89Z"/>
          <path class="cls-20" d="M282.88,147.17l-7.01-20.28c1.33-.38,2.46-1.05,3.69-1.66l.74.37c.81,7.2,1.22,14.45,2.58,21.57Z"/>
        </g>
        <path class="cls-2" d="M97.39,165.6c.12.02.25-.02.37,0,.35.06.76-.06,1.11,0,9.51,1.61,19.51,3.45,29.13,4.06.93,5.75,3.7,10.34,7.38,14.75-2.01-.29-5.3-.38-7.01-.74-6.64-1.38-14.3-3.82-20.28-7.01-1.05-.56-2.15-1.2-3.32-1.48l-12.17-9.96c1.23.25,3.36.11,4.79.37Z"/>
        <path class="cls-2" d="M170.04,168.19v.74c0,6.44,3.56,12.36,8.11,16.59-6.09.25-11.91.79-18.07.74-3.77-4.85-6.44-10.46-7.38-16.59,3.91-.17,13.94-.71,17.33-1.48Z"/>
        <path class="cls-2" d="M147.91,169.66c2.08,6.09,3.64,12.29,9.22,16.23-6.25-.13-11.69,0-18.07-.74-2.43-3.99-6.85-10.79-7.01-15.49,0-.03.44.06.37-.37,1.89.83,12.67.43,15.49.37Z"/>
        <path class="cls-2" d="M184.05,175.56c-1.13,3.41-1.28,6.37-1.11,9.96-1.06.2-2.3-.04-3.32,0-.17-2.78-3.04-5.55-4.06-8.3-1.08-2.92-1.11-6.46-2.21-9.03-.07-.17.07-.62,0-.74,9.88-1.74,19.66-3.69,29.13-7.01-6.16,4.24-15.9,7.47-18.44,15.12Z"/>
        <path class="cls-14" d="M173.36,168.19c1.1,2.58,1.13,6.11,2.21,9.03,1.01,2.74,3.88,5.52,4.06,8.3-.49.02-.99-.02-1.48,0-4.56-4.23-8.11-10.15-8.11-16.59l3.32-.74Z"/>
        <path class="cls-14" d="M131.32,169.29c.37.05.41.38.74.37.16,4.7,4.57,11.5,7.01,15.49-1.17-.14-2.48-.56-3.69-.74-3.67-4.41-6.44-9-7.38-14.75.55.03,2.09-.54,3.32-.37Z"/>
        <g>
          <path class="cls-31" d="M128.37,183.67c-.51,3.59-2.63,6.99-3.69,10.33-.72,2.27-.88,4.68-1.48,6.64-.24.78-.62,1.17-.74,1.48-.46-2.61-4.84-2.99-5.53-.74h-.37c-.45-3.23-5.45-2.82-5.16.74-.76-.61-1.81-.28-2.95-2.95-.32-.76-1.41-4.83-1.48-5.53-.44-4.83,1.23-11.9,1.11-16.96,5.99,3.19,13.64,5.63,20.28,7.01Z"/>
          <path class="cls-1" d="M122.47,202.11c-.29.8-.16,2.65-1.29,3.32-2.75,1.62-5.02-1.51-4.24-4.06.69-2.25,5.07-1.87,5.53.74Z"/>
          <path class="cls-1" d="M116.57,201.38c.82,5.87-3.47,2.11-5.16.74-.29-3.55,4.71-3.97,5.16-.74Z"/>
        </g>
        <g>
          <path class="cls-20" d="M77.85,207.64c-.81,1.53-1.5,1.01-2.95,1.11-5.14-1.07-4.08-8.67.92-7.38,1.98.51,2.99,4.45,2.03,6.27Z"/>
          <path class="cls-20" d="M69.37,206.54c-1.15-.58-4.49-.28-4.79-2.95-.71-6.26,10.77-2.66,4.79,2.95Z"/>
          <path class="cls-20" d="M83.75,204.33c-.04.23.04.51,0,.74-.23,1.29.43,2.81-.55,4.06-.85.46-3.45-.66-3.87-1.48-1.88-3.61,1.95-7.46,4.43-3.32Z"/>
          <path class="cls-22" d="M92.6,165.24l12.17,9.96c-1.24,1.53-3.3,2.17-4.79,3.32-.8-3.56-5.59-3.94-6.82-7.74-1.81-.13-2.15,2.43-2.58,2.58-.86.31-3.68-2.19-4.98-1.48-.13-2.31-3.25-3.22-5.16-3.32-2.51-2.89-.81-1.82.37-4.43.74-.6,1.49-1.23,2.21-1.84,2.65.99,6.89,2.4,9.59,2.95Z"/>
          <path class="cls-23" d="M80.43,168.56c1.92.1,5.03,1.01,5.16,3.32.05.81-.33,1.47-.55,2.21-1.97-3.67-4.83-2.27-3.32,1.48-5.99,2.3-6.68-7.28-1.29-7.01Z"/>
          <g>
            <path class="cls-18" d="M80.43,168.56c-5.39-.27-4.7,9.31,1.29,7.01-1.52-3.75,1.35-5.15,3.32-1.48.23-.74.6-1.41.55-2.21,1.3-.71,4.12,1.78,4.98,1.48.43-.15.77-2.71,2.58-2.58,1.23,3.8,6.03,4.18,6.82,7.74-4.94,3.8-10.72,10.15-13.28,15.86-1.43,3.2-2.34,6.51-2.95,9.96-2.48-4.14-6.3-.29-4.43,3.32h-1.48c.96-1.81-.05-5.76-2.03-6.27-5-1.29-6.06,6.3-.92,7.38-2.72.17-3.16-1.02-5.53-2.21,5.97-5.61-5.5-9.21-4.79-2.95-3.29-.33-2.56-5.04-2.21-7.38,1.38-9.34,11.03-26.17,18.44-32.08-1.18,2.61-2.88,1.54-.37,4.43Z"/>
            <path class="cls-24" d="M71.39,186.99c3.81-.46,6.11,9.58-1.11,6.64-4.99-2.04-1.56-6.32,1.11-6.64Z"/>
            <path class="cls-24" d="M72.5,178.51c4.94-1.41,5.14,6.49,0,5.16-2.45-.63-1.9-4.62,0-5.16Z"/>
          </g>
        </g>
        <g>
          <path class="cls-25" d="M112.88,141.27c-.59.31-2.92,2.17-3.13,2.21-3.81.81-19.69-6.65-24.71-7.01l23.97,8.85c.26-.78.63-1.06,1.29-1.48l-5.16,12.91c-.05-.02-.63.47-1.11-.18l3.5-8.67-4.43,8.85-27.47-8.67c8.29,5.12,18.01,7.46,27.47,9.4.96.86-4.54,7.2-5.35,8.11-.12-.02-.25.02-.37,0l4.98-7.38c-4.81-.91-9.7-1.88-14.38-3.32-2.43-.75-8.27-4.2-9.96-4.43-2.97-.4-9.31,1.04-12.72.74-.05-.05-.57-.33-.74-.37,2.69-1.23,7.67-1.24,10.14-2.58,2.15-1.17,9.32-11.06,11.25-13.64l21.94,7.01c1.88.29,3-.37,4.43-1.48l.55,1.11Z"/>
          <path class="cls-26" d="M227.94,117.66c-1.36.22-5.35,4.99-7.19,5.9-2.03,1-1.4.14-2.03,0-.88-1.4-2.13-1.99-3.32-2.95-4.05-4.48-8.12-9.15-12.54-13.28-1.01-.95-3.06-2.31-4.43-3.5-.31-.27.76-.48-.18-1.29-.23-.2-3.74-1.97-4.98-2.95-.77-.61-2.19-1.4-1.48-2.21,13.16,4.53,25.14,11.78,36.14,20.28Z"/>
          <path class="cls-29" d="M112.88,106.97c1.67-.33,7.29.1,8.48,1.48-1.66-.09-6.8-.7-7.93-.37s-10.44,10.85-11.98,12.54c-1.97,1.95-4.22,3.74-5.53,6.27-1.43,1.65-3.77,3.51-4.79,5.53-.03.06-.63.68-.74.92.2.59,10.14,3.8,11.62,4.24,1.74.52,6.99,2.64,7.56.74,1-.18,17.13-9.11,17.7-9.96.91-.01,1.47-.21.74.92-1.51,2.32-15.79,9.13-18.62,11.98l-21.76-6.64c-.26-.32,1.04-3.17,1.29-3.69,1.86-3.76,20.51-23.28,23.97-23.97Z"/>
          <path class="cls-26" d="M185.53,95.17c-.46,1-.22.96-1.29,1.11-3.11.42-9.3-.7-11.8,0-.91.25-.15.72-.18.74-1.39.57-.13.8-2.58.74-.42-.01-2.4-.69-2.95-.74s-.29.77-.55.74c-1.54-.17-.86-.66-1.66-.74-1.57-.16-3.22-.55-4.79-.74-.24-.03-.5.02-.74,0-2.46-.22-4.89-.54-7.38-.37-.53-1.53.24-2.21,1.11-3.32,11.03-.89,22.11-.09,32.82,2.58Z"/>
          <path class="cls-16" d="M230.89,119.51c1.78.8,3.3,2.17,5.53,2.21-.29,1.7-7.4,10.05-8.3,9.96-.63-.52-4.61-4.28-4.61-4.61,0-.53,6.38-6.76,7.38-7.56Z"/>
          <path class="cls-16" d="M202.86,107.34l2.95,4.24c3.1,3.19,6.11,6.24,9.59,9.03,1.53,1.69.91,2.42,3.32,2.95.62.14,0,1,2.03,0,1.84-.91,5.83-5.68,7.19-5.9.11-.02.26,0,.37,0-.07,1.35-5.98,7.24-6.45,7.38-1.22.36-2.87-.22-4.06-.37-.1-.01-.65.76-.74.74-1.68-.51-21.5-22.55-23.79-25.81,1.24.98,4.74,2.75,4.98,2.95.94.81-.12,1.02.18,1.29,1.37,1.2,3.41,2.56,4.43,3.5Z"/>
          <path class="cls-16" d="M239,120.98c1.91,3-1.42,9.62-2.95,12.91-2.29,1.1-5.27.25-7.38-1.29l8.48-10.88c.1-.01,1.77-.67,1.84-.74Z"/>
          <path class="cls-29" d="M235.31,135.73c-1.32,2.34-3.77,5.74-5.53,7.74-2.01,2.29-4.41,4.79-6.82,6.64-1.54,1.18-9.55,5.37-9.77,5.9-3.73-1.51-7.34-3.38-10.33-6.08,4.23-2.76,9.7-4.68,14.2-7.56,2.16-1.38,10.01-8.75,10.69-8.85.42-.06,6.42,2.12,7.56,2.21Z"/>
          <path class="cls-5" d="M189.58,101.07c.12.01.25-.02.37,0,1.66,2.6,4.22,4.42,6.27,6.64.03.03-.1.22.37.74.25.27.51.5.74.74,2.43,2.62,4.66,5.39,7.38,7.74.04.04.15.18.37.37.25,1.18,1.21,1.53,1.84,2.21.4.42.67.71,1.11,1.11.53.48.83,1,1.48,1.48.45.76.68,1.48,1.48,2.03l-18.99,9.4c-2.09-1.79-15.46-10.15-16.04-11.62s-1.2-10.7-1.48-13.09c-.06-.48.06-1,0-1.48-.05-.38-.62-.79-.37-1.48,0-.24,0-.49,0-.74-.02-.64-.73-3.96-.55-4.06,5.08.43,11.09-.58,16.04,0Z"/>
          <path class="cls-3" d="M127.26,120.25c0,.21,1.73,2.17.18,3.69l-.92-.92c-.14,1.8,2.29,3.04.74,5.35-.57.84-16.7,9.78-17.7,9.96-2.23,1.45-3.72-1.16-4.98-1.48-3.01-.74-8.34-1.45-11.8-2.95-1.06-.46-1.12-.4-1.66-1.48,1.02-2.02,3.36-3.88,4.79-5.53,1.79-2.06,3.7-4.26,5.53-6.27,1.54-1.52,11.53-11.59,12.35-11.8,3.57-.91,10.07,1.12,14.01.37.82.58-.56,9.59-.55,11.06Z"/>
          <path class="cls-32" d="M173.73,108.81c1.15,3.08.56,11.34,1.84,13.83.92,1.78,13.58,8.9,15.67,11.25l20.1-10.33c2.18.2-.1-2.21-.37-3.32,1.91,2.06,3.91,4.09,5.9,6.08.06.92-1.77,1.21-2.58,1.66-.47-.43-.29-1.36-.37-1.48-.07-.1.16-.57-.18-.74-1.08-.51-18.71,9.42-21.39,10.33-.87.06-4.19-2.32-5.35-2.95-2.91-2.12-5.53-4.72-8.85-6.27-.77-.73-3.49-2.69-3.69-3.13-.36-.82-.18-3.33-.37-4.24-.2-.99-.22-1.72-.37-2.58-.23-1.34-.53-2.7-.74-4.06-.18-1.23-.16-2.89-.37-4.06h1.11Z"/>
          <path class="cls-25" d="M197.33,149.01l1.11.92-.55.55c-10.23,3.02-20.72,5.73-31.35,7.01-.31.04-.65-1.12-.74-1.11-.13.01-1.3,1.39-2.21,1.48-3.15.3-6.48.01-9.59.74l-.55-16.59c.36.18,1.53-.26,1.84.18.46.65-.48,14.09.92,14.57,13.42-1.71,27-3.24,39.83-7.74.59-.08,1.08,1.77,1.29,0Z"/>
          <path class="cls-19" d="M174.47,108.81c.28,2.4.88,11.61,1.48,13.09s13.95,9.83,16.04,11.62l18.99-9.4c-.79-.55-1.03-1.27-1.48-2.03.39.29,1.67.49,1.84,1.48l-20.1,10.33c-2.09-2.34-14.76-9.47-15.67-11.25-1.28-2.48-.69-10.74-1.84-13.83h.74Z"/>
          <path class="cls-19" d="M121.36,108.45c1.09.06,7.09-.21,7.38.18-.49,3.59.49,8.64-1.48,11.62,0-1.48,1.37-10.48.55-11.06-3.94.75-10.44-1.28-14.01-.37-.83.21-10.81,10.28-12.35,11.8,1.54-1.69,10.84-12.2,11.98-12.54s6.27.28,7.93.37Z"/>
          <g>
            <path class="cls-7" d="M152.71,92.59c-.87,1.11-1.63,1.78-1.11,3.32s5.07,1.13,6.45,1.11c.47,0,1.07,1.19.92-.74.24.02.5-.03.74,0-.64,1.64,4.38,1.84,4.79.74.8.08.12.57,1.66.74.26.03.02-.79.55-.74-.42,1.65,1.83,1.28,2.95.74,2.45.07,1.19-.17,2.58-.74,5.25.02,10.44-.19,15.67.37.13.01.41-1.7,1.48.74-1.04.03-2.1-.05-3.13,0-2.41.11-15.43-.65-15.86.92-.08.28.56,5.21,1.29,5.72v-5.53c4.86.39,9.73-.62,14.57-.37,1,.05,3.17-.22,3.87,0,1.42.45,18.4,18.76,20.84,21.39.27,1.11,2.55,3.52.37,3.32-.17-.98-1.46-1.19-1.84-1.48-.37-.63-.72-1.39-1.11-2.03l-.37.55c-.44-.39-.71-.68-1.11-1.11,1.2-.87-1.43-1.87-1.84-2.21-.22-.19-.33-.33-.37-.37-1.06-2.33-3.13-4.19-4.79-6.08-.34-.38-1.9-2.46-2.58-1.66-.22-.24-.49-.47-.74-.74.78-1.07-.31-.64-.37-.74-.67-1.13-4.83-6.49-5.53-6.82-.89-.42-.7.19-.74.18-.12-.02-.25.01-.37,0l-16.41-.74c-.33.24-.19,2.2-.18,2.77,0,.12.52,2.67,1.11,2.03,0,.24,0,.49,0,.74,0,.15-1.74,2.07.37,1.48.06.48-.06,1,0,1.48h-1.84c-1.72-9.77-1.39,1.95.37,4.06.2,1.36.5,2.71.74,4.06-1.43-.19-.36,3.75.37,2.58.19.91.01,3.42.37,4.24.2.45,2.92,2.4,3.69,3.13,2.91,2.76,5.34,4.35,8.85,6.27,1.13.82,3.78,3.72,5.35,3.69,2.98-.06,17.35-9.47,21.57-10.33.08.11-.1,1.04.37,1.48-5.76,3.21-15.45,6.37-20.28,9.96-.13.1-.85-.11-.92,0-.53.77.77,3.46,2.03,2.95,1.39,2.75,3.48,6.5,5.9,8.3-1.48,1.85-2.63-.22-4.06-1.11l.37.92c-.21,1.77-.7-.08-1.29,0-12.82,4.51-26.4,6.03-39.83,7.74-1.4-.48-.46-13.91-.92-14.57-.32-.45-1.48,0-1.84-.18-.04-.02.03-.68,0-.92h-.74c.23.95.37,1.78.37,2.77l-.74,14.75c-.63.06-.16-.91-.55-1.11-.23-.11.06,1.88-.92.55l.18-20.84-21.76-5.9c-5.63,3.01-10.76,6.99-16.41,9.96l-.55-1.11c-1.43,1.1-2.54,1.77-4.43,1.48l-21.94-7.01c.92-1.22,1.38-2.94,2.95-3.69-.25.51-1.55,3.37-1.29,3.69l21.76,6.64c2.83-2.85,17.11-9.67,18.62-11.98.74-1.13.18-.94-.74-.92,1.56-2.31-.88-3.55-.74-5.35l.92.92c1.55-1.52-.18-3.48-.18-3.69,1.96-2.97.99-8.03,1.48-11.62-.28-.4-6.28-.13-7.38-.18-1.19-1.37-6.82-1.81-8.48-1.48,11.02-8.74,25.86-13.25,39.83-14.38Z"/>
            <g>
              <path class="cls-6" d="M165.98,101.81l2.4,21.76c-4.53.6-14.57,8.01-18.07,8.48s-13.19-3.94-16.78-4.06l1.84-20.28c3.95-3.41,10.05-4.3,14.01-7.74,1.22-.11,15.91,1.37,16.59,1.84Z"/>
              <path class="cls-26" d="M133.53,127.99c3.59.11,13.39,4.52,16.78,4.06s13.54-7.88,18.07-8.48l-2.4-21.76,3.5,21.76-19.18,9.22-17.89-4.61c.09-1.18.73-.2,1.11-.18Z"/>
              <path class="cls-10" d="M213.92,126.52c-4.23.86-18.59,10.27-21.57,10.33-1.56.03-4.22-2.87-5.35-3.69,1.15.63,4.48,3.01,5.35,2.95,2.68-.91,20.31-10.83,21.39-10.33.35.16.11.64.18.74Z"/>
              <path class="cls-30" d="M186.27,98.12v.74c-4.84-.25-9.71.76-14.57.37v5.53c-.73-.51-1.37-5.43-1.29-5.72.42-1.57,13.45-.81,15.86-.92Z"/>
              <path class="cls-19" d="M149.39,99.96c-3.97,3.44-10.07,4.33-14.01,7.74-.06.05-1.3.23-1.48.55l-.92,8.3c-.49-1.37-.02-8.26.55-9.03.52-.71,14.82-7.46,15.86-7.56Z"/>
              <path class="cls-10" d="M189.58,101.07c-4.95-.58-10.96.43-16.04,0-.18.1.53,3.42.55,4.06-.59.64-1.1-1.91-1.11-2.03,0-.57-.15-2.53.18-2.77l16.41.74Z"/>
              <path class="cls-10" d="M139.25,102.55c-1.02,2.38-6.16,2.62-7.19,4.61-.87,1.68-.28,7.03-.74,9.22l-.92,1.29c.46-2,.03-9.98.92-11.25.4-.57,6.86-3.27,7.93-3.87Z"/>
              <path class="cls-16" d="M174.65,129.83c-2.42,2.48-6.46,3.75-9.59,5.16-3.41,1.55-6.83,3.41-10.51,4.24,6.57-3.39,13.55-5.96,20.1-9.4Z"/>
              <path class="cls-10" d="M152.52,98.49c4.58.6,9.42.06,13.83,1.66l-7.01-.37-6.82-1.29Z"/>
              <path class="cls-19" d="M119.7,104.39c1.48-.48,8.3-.07,10.14.55l-10.51.18c-.36-.18.26-.7.37-.74Z"/>
              <path class="cls-10" d="M204.7,116.93c-2.71-2.36-4.95-5.12-7.38-7.74.68-.8,2.25,1.28,2.58,1.66,1.66,1.89,3.74,3.76,4.79,6.08Z"/>
              <path class="cls-10" d="M158.98,96.28c.15,1.92-.45.73-.92.74-1.38.03-5.92.45-6.45-1.11,2.48-.17,4.92.14,7.38.37Z"/>
              <path class="cls-10" d="M173.54,126.15c.56-.07,4.26,2.73,4.43,3.69l-3.69-2.58-6.08,2.03c1-.25,5.04-3.09,5.35-3.13Z"/>
              <path class="cls-19" d="M138.88,131.68c3.6,1.02,7.52,1.36,10.88,3.13-1.82-.23-3.74-.67-5.53-1.11-1.45-.35-4.45-.78-5.35-2.03Z"/>
              <path class="cls-10" d="M196.22,107.71c-2.05-2.22-4.61-4.04-6.27-6.64.04,0-.15-.61.74-.18.7.34,4.86,5.69,5.53,6.82Z"/>
              <path class="cls-10" d="M187,133.15c-3.51-1.92-5.94-3.51-8.85-6.27,3.32,1.55,5.94,4.15,8.85,6.27Z"/>
              <path class="cls-26" d="M132.61,116.93c.91,2.97,0,7.18-.37,10.33l.37-10.33Z"/>
              <path class="cls-19" d="M130.4,118.4c1.14,1.72.31,5.55-.37,7.38l.37-7.38Z"/>
              <path class="cls-10" d="M172.62,108.81c.2,1.16.18,2.83.37,4.06-1.76-2.11-2.09-13.83-.37-4.06Z"/>
              <path class="cls-30" d="M166.91,99.6c2.61-.14,2.13,4.12,2.21,5.9-1.23-1.04-.47-3.55-.92-4.61-.19-.44-2.14.35-1.29-1.29Z"/>
              <polygon class="cls-19" points="156.95 131.68 157.32 132.42 151.6 134.81 156.95 131.68"/>
              <path class="cls-10" d="M164.51,97.01c-.41,1.11-5.43.9-4.79-.74,1.58.19,3.22.58,4.79.74Z"/>
              <path class="cls-19" d="M178.71,129.83l6.08,4.61c-1.98-.76-5.21-2.64-6.08-4.61Z"/>
              <path class="cls-10" d="M141.64,101.81c1.08-.69,3.75-3.58,5.9-2.77-1.97.93-3.82,2.07-5.9,2.77Z"/>
              <path class="cls-19" d="M155.29,135.73c1.32-1.07,3.71-3.4,5.53-2.4-1.79.93-3.59,1.82-5.53,2.4Z"/>
              <path class="cls-29" d="M194.01,137.95c.16,1.06.63,2.01,1.11,2.95-1.26.51-2.56-2.18-2.03-2.95.07-.11.79.1.92,0Z"/>
              <path class="cls-19" d="M130.03,127.62c.06,2.09,1.18,1.81,2.77,2.4.24.9-5.33.24-2.77-2.4Z"/>
              <path class="cls-19" d="M165.06,127.62c.38-.03,1.05.32.74.74-1.17.07-2.81,2.19-3.87.92.7-.13,2.76-1.63,3.13-1.66Z"/>
              <path class="cls-10" d="M166.91,129.47c.65-.1,1.34.13.74.74l-4.24,1.29c-.07-.19,3.3-2,3.5-2.03Z"/>
              <path class="cls-10" d="M149.2,98.12c.49-.16,2.76-.3,2.77.92-.71.4-4.46-.36-2.77-.92Z"/>
              <path class="cls-19" d="M169.12,125.78c.32-.03.71-.1.92.18.07.19-3.01,2.05-3.69,1.48-.12-.24,2.61-1.64,2.77-1.66Z"/>
              <path class="cls-19" d="M160.64,129.83c1.55.64-2.58,2.25-2.77,1.66l2.77-1.66Z"/>
              <path class="cls-10" d="M169.67,97.75c-1.12.54-3.37.91-2.95-.74.55.05,2.53.73,2.95.74Z"/>
              <path class="cls-10" d="M206.92,119.51c-.64-.68-1.6-1.03-1.84-2.21.41.34,3.04,1.35,1.84,2.21Z"/>
              <path class="cls-10" d="M173.73,116.93c.15.87.17,1.59.37,2.58-.72,1.17-1.8-2.78-.37-2.58Z"/>
              <path class="cls-19" d="M185.34,134.63c.61.56,1.69.88,2.03,1.66-.5.33-2.61-.88-2.03-1.66Z"/>
              <path class="cls-19" d="M209.5,122.09c-.65-.48-.94-.99-1.48-1.48l.37-.55c.39.64.74,1.4,1.11,2.03Z"/>
              <path class="cls-19" d="M131.5,103.65c.12.01.36.43.55.55l-1.66.92c-.68-.62,1.01-1.48,1.11-1.48Z"/>
              <path class="cls-10" d="M141.64,101.81c-.54.18-1.01,1.43-1.84.18.61-.85,1.77-.13,1.84-.18Z"/>
              <path class="cls-10" d="M174.1,105.86c-.25.69.32,1.09.37,1.48-2.11.6-.37-1.33-.37-1.48Z"/>
              <path class="cls-19" d="M133.35,130.2c.27-.2,1.19.03.92.55-.29.57-1.71.02-.92-.55Z"/>
              <path class="cls-19" d="M136.3,130.94c.92-.13.4.73-.37.74-.37-.19.31-.73.37-.74Z"/>
              <path class="cls-19" d="M187.93,136.47c.56-.2.81.54.37.74-.54.24-.81-.58-.37-.74Z"/>
              <path class="cls-19" d="M130.03,126.15c.56-.2.81.54.37.74-.54.24-.81-.58-.37-.74Z"/>
              <path class="cls-19" d="M155.29,135.73c-.11.03-.75,1-.74-.18.24-.43.53.36.74.18Z"/>
              <polygon class="cls-19" points="134.82 130.57 135.38 130.76 134.82 131.31 134.64 131.13 134.82 130.57"/>
              <path class="cls-10" d="M196.59,108.45c-.47-.51-.34-.71-.37-.74.06.1,1.15-.33.37.74Z"/>
            </g>
          </g>
          <path class="cls-25" d="M97.39,165.6c-1.44-.26-3.56-.12-4.79-.37-2.7-.55-6.94-1.96-9.59-2.95-.38-.14-.78-.24-1.11-.37-2.09-.84-4.97-2.55-7.01-3.69-1.06-.59-2.32-1.2-3.32-1.84-2.37-1.53-4.27-3.18-6.27-5.16,3.42.3,9.75-1.14,12.72-.74,1.69.23,7.52,3.68,9.96,4.43,4.68,1.44,9.57,2.41,14.38,3.32l-4.98,7.38Z"/>
          <path class="cls-25" d="M211.71,156.39c-2.61.86-5.99,2.92-9.22,4.06-9.47,3.32-19.25,5.27-29.13,7.01-1.16-1.87-6.93-4.94-7.38-8.67l.55-.92c5.63-.7,11.43-1.33,16.96-2.58,3.49-.79,15.24-5.11,17.33-5.16s8.01,6.12,10.88,6.27Z"/>
          <path class="cls-25" d="M170.04,168.19c-3.39.76-13.42,1.3-17.33,1.48-1.59.07-3.2-.03-4.79,0-2.82.06-13.6.46-15.49-.37-1.23-.54-6.85-8.98-5.72-9.59,8.96-.07,17.97,0,26.92-.37,1.68-.07,10.88-1.48,11.62-.92.45.34,3.75,8.62,6.64,8.85,0,.25-1.61.87-1.84.92Z"/>
          <path class="cls-25" d="M131.32,169.29c-1.23-.17-2.77.4-3.32.37-9.62-.61-19.62-2.44-29.13-4.06,1.32-.71,4.92-7.55,5.35-7.74,1.45-.67,18.23,2.84,21.39,1.84,1.23,3.66,2.97,6.84,5.72,9.59Z"/>
          <g>
            <path class="cls-19" d="M191.8,97.38c-.72.81.7,1.6,1.48,2.21,2.28,3.27,22.1,25.31,23.79,25.81.09.03.64-.75.74-.74,1.19.15,2.83.73,4.06.37.47-.14,6.39-6.02,6.45-7.38.57.05.69.72.74.74-.68,1.4-6.25,7.13-7.19,7.38-1.46.38-4.87-1.46-4.06.74.15.19,4.56.8,4.79.74.54-.13,6.91-7.26,6.82-8.48.47.23,1.03.54,1.48.74-1,.8-7.38,7.03-7.38,7.56,0,.33,3.98,4.09,4.61,4.61.9.09,8.01-8.26,8.3-9.96.24,0,.5.03.74,0l-8.48,10.88c2.11,1.54,5.09,2.39,7.38,1.29-.26.56-.11.72-.74,1.84-1.14-.09-7.14-2.27-7.56-2.21-.69.1-8.53,7.47-10.69,8.85-4.5,2.88-9.97,4.79-14.2,7.56,2.98,2.71,6.59,4.58,10.33,6.08-.04.1.03.26,0,.37-.44.08-1.12-.12-1.48,0-2.87-.15-8.86-6.32-10.88-6.27s-13.84,4.37-17.33,5.16c-5.53,1.25-11.33,1.88-16.96,2.58l-.55.92c.45,3.72,6.22,6.8,7.38,8.67.07.12-.07.57,0,.74l-3.32.74v-.74c.23-.05,1.85-.67,1.84-.92-2.89-.23-6.19-8.51-6.64-8.85-.74-.56-9.94.85-11.62.92-8.95.36-17.96.3-26.92.37-1.13.61,4.48,9.05,5.72,9.59.07.43-.37.34-.37.37-.32.02-.37-.32-.74-.37-2.75-2.75-4.48-5.92-5.72-9.59-3.16,1-19.94-2.51-21.39-1.84-.43.2-4.03,7.03-5.35,7.74-.35-.06-.76.06-1.11,0,.81-.91,6.31-7.25,5.35-8.11-9.46-1.94-19.18-4.28-27.47-9.4l27.47,8.67,4.43-8.85-3.5,8.67c.47.65,1.05.16,1.11.18,4.3,1.71,16.51,2.07,21.57,2.21,7.8.23,15.64,0,23.42-.55l-.18-20.84-20.65-5.53c-6.52,3.63-12.69,7.84-18.99,11.8-.66.41-1.04.7-1.29,1.48l-23.97-8.85c5.01.36,20.9,7.81,24.71,7.01.21-.05,2.55-1.9,3.13-2.21,5.65-2.97,10.78-6.94,16.41-9.96l21.76,5.9-.18,20.84c.98,1.33.69-.67.92-.55.39.19-.08,1.17.55,1.11.74-.07.74-13.55.74-14.75,0-.99-.14-1.82-.37-2.77h.74c.03.24-.04.9,0,.92l.55,16.59c3.11-.73,6.44-.44,9.59-.74.91-.09,2.08-1.46,2.21-1.48.09,0,.43,1.14.74,1.11,10.63-1.27,21.11-3.98,31.35-7.01l.55-.55-1.11-.92-.37-.92c1.42.89,2.57,2.96,4.06,1.11-2.42-1.8-4.51-5.55-5.9-8.3-.47-.94-.94-1.89-1.11-2.95,4.83-3.58,14.53-6.75,20.28-9.96.81-.45,2.64-.74,2.58-1.66-1.99-2-3.99-4.02-5.9-6.08-2.43-2.63-19.41-20.94-20.84-21.39-.7-.22-2.87.05-3.87,0v-.74c1.04-.05,2.09.03,3.13,0-1.07-2.44-1.34-.72-1.48-.74-5.24-.55-10.43-.35-15.67-.37.04-.01-.72-.48.18-.74,2.5-.7,8.69.42,11.8,0,1.07-.14.83-.11,1.29-1.11,2.21.55,4.16,1.49,6.27,2.21Z"/>
            <g>
              <path class="cls-13" d="M229.41,118.77c.09,1.23-6.28,8.35-6.82,8.48-.24.06-4.64-.55-4.79-.74-.81-2.2,2.6-.36,4.06-.74.94-.25,6.51-5.97,7.19-7.38.5.2.35.36.37.37Z"/>
              <path class="cls-25" d="M153.08,143.85c0,1.2,0,14.68-.74,14.75l.74-14.75Z"/>
              <path class="cls-32" d="M226.09,132.42c-1.76,3.18-6.24,6.6-9.4,8.48-1.54.92-13.38,6.29-14.38,6.27-.6-.01-1.2-.2-1.66-.55-1.41-1.09-2.56-7.31-5.16-6.45-.23-.64-1.12-1.53-.55-2.21l22.49-10.69c3.95-.3,6.43,2.13,8.67,5.16Z"/>
              <path class="cls-29" d="M195.48,140.16c2.6-.86,3.76,5.37,5.16,6.45.46.36,1.06.54,1.66.55,1,.02,12.84-5.35,14.38-6.27,3.16-1.88,7.65-5.3,9.4-8.48.07.09,1.13.71,1.11.92-4.53,4.02-9.23,7.94-14.57,10.88-1.19.65-9.76,4.8-10.33,4.79-1.85,0-6.2-7.13-6.82-8.85Z"/>
              <path class="cls-16" d="M222.96,127.62c.76-.01,1.29.89.37.74-.07-.01-.74-.55-.37-.74Z"/>
            </g>
          </g>
          <path class="cls-10" d="M202.86,107.34c4.42,4.12,8.48,8.79,12.54,13.28-3.48-2.8-6.49-5.85-9.59-9.03l-2.95-4.24Z"/>
          <path class="cls-10" d="M218.72,123.57c-2.41-.53-1.79-1.26-3.32-2.95,1.19.96,2.44,1.55,3.32,2.95Z"/>
          <path class="cls-9" d="M109.56,138.32c-.57,1.91-5.82-.22-7.56-.74-1.48-.44-11.42-3.65-11.62-4.24.11-.24.71-.87.74-.92.54,1.08.6,1.02,1.66,1.48,3.46,1.5,8.79,2.21,11.8,2.95,1.26.31,2.75,2.92,4.98,1.48Z"/>
          <path class="cls-19" d="M95.92,126.88c1.31-2.53,3.56-4.32,5.53-6.27-1.83,2.01-3.74,4.21-5.53,6.27Z"/>
          <g>
            <path class="cls-25" d="M105.14,156.75l5.16-12.91c6.31-3.96,12.47-8.17,18.99-11.8l20.65,5.53.18,20.84c-7.77.56-15.62.78-23.42.55-5.06-.15-17.27-.5-21.57-2.21Z"/>
            <path class="cls-4" d="M128.92,133.89l19.73,4.98-.37,17.7c-4.42,1.08-39.45.66-40.75-.92,1.29-2.34,2.58-8.69,3.87-10.51,2.13-3,14.49-7.77,17.52-11.25Z"/>
          </g>
        </g>
        <path class="cls-14" d="M152.71,169.66c.93,6.14,3.6,11.75,7.38,16.59-.6,0-1.91-.35-2.95-.37-5.58-3.94-7.14-10.14-9.22-16.23,1.59-.03,3.21.07,4.79,0Z"/>
        <g>
          <path class="cls-2" d="M237.89,167.82c-.19,2.38-5.02,6.22-7.19,7.74-3.86,2.71-8.16,4.26-12.35,6.27l-9.22,1.84c.41-6.43,3.09-9.44,4.79-14.75,1.48-4.63,1.58-8.05-.74-12.54.03-.11-.04-.27,0-.37.22-.53,8.23-4.72,9.77-5.9,2.42-1.85,4.81-4.35,6.82-6.64,2.16,5.11,1.33,15.61,4.79,19.73,2.05,2.45,3.64.56,3.32,4.61Z"/>
          <g>
            <path class="cls-31" d="M240.47,170.4c-1.44,2.61-6,19.91-6.27,23.23-.1,1.18-.39,2.44-.37,3.69-3.26.5-3.69,4.41,0,4.43-2.16,1.53-2.14.8-3.69-1.11-2.29-2.82-4.59-7.13-5.9,0-.59-.15-1.8.41-3.32-.74-1.35-1.02-3.11-5.03-3.32-6.64-.44-3.43.51-7.93.74-11.43,4.2-2.01,8.5-3.56,12.35-6.27,2.17-1.53,7-5.37,7.19-7.74l2.58,2.58Z"/>
            <path class="cls-1" d="M233.84,197.32c0,.23,1.11,1.53,1.11,2.58,0,1.22-.21,1.2-1.11,1.84-3.69-.02-3.26-3.93,0-4.43Z"/>
            <path class="cls-1" d="M230.15,200.64c-1.95,2.54-4.09.46-5.9,0,1.31-7.13,3.61-2.82,5.9,0Z"/>
          </g>
          <g>
            <path class="cls-8" d="M303.53,43.17c-5.23,11.65-9.67,24.85-12.17,37.43-.33,1.64-2.36,12.27-2.21,12.91.07.29,3.11,3.33,3.69,4.79,3.04,7.67-.27,14.98-5.53,20.47-5.26.21-13.91,3.34-18.62-.37-2.51-1.98-.33-2.92-1.48-5.16-5.83,5.99,6.82,8.37,11.06,8.11,3-.18,6.17-1.77,9.03-2.58-.89.93-1.54,1.76-2.58,2.58-2.35,1.87-6.82,4.23-9.59,5.53-.51.24-1.73-.49-1.48.74-2.25.58-4.78.74-7.01,1.48-9.26,3.06-10.72,7.67-14.01,16.41,15.44,6.23,25.14,17.67,31.71,32.64,2.06,4.69,4.26,10.55,5.53,15.49.36,1.38,2.8,7.74-.18,7.01-.36-.09-1.73-2.75-2.03-3.32-2.59-4.93-4.45-10.62-7.38-15.67-7.25-12.52-17.05-23.08-29.32-30.79-.3.09-2.27,4.77-2.77,5.53-2.98,4.58-6.95,7.63-7.38,13.64-.01.02-.12-.08-.37.37l-2.58-2.58c.32-4.05-1.27-2.16-3.32-4.61-3.46-4.12-2.63-14.62-4.79-19.73,1.76-2,4.21-5.4,5.53-7.74.63-1.12.48-1.28.74-1.84,1.54-3.29,4.86-9.91,2.95-12.91,1.14-1.04,3.71-11.81,5.53-14.94,6.88-11.82,19.84-17.26,33.19-16.04,1.87.17,4.37,1.03,6.27,1.48,1.25.29,2.46.69,3.5,1.48,3.19-17.04,7.06-34.36,14.57-50.15.66.38.8.29,1.48.37Z"/>
            <g>
              <path class="cls-21" d="M242.87,144.95c5.73,2.47,6.45,10.69-1.84,7.74-4.62-1.64.44-5.59,1.84-7.74Z"/>
              <path class="cls-24" d="M249.14,107.34c4.34-.38,5.82,12.88-4.24,4.98-.69-1.49,3.35-4.9,4.24-4.98Z"/>
              <path class="cls-31" d="M287.31,118.77c-2.86.81-6.03,2.4-9.03,2.58-4.24.26-16.89-2.12-11.06-8.11,1.15,2.24-1.03,3.19,1.48,5.16,4.71,3.71,13.36.58,18.62.37Z"/>
              <path class="cls-24" d="M252.83,98.86c3.41-1.11,4.78,4.2,1.48,4.79-3.53.63-3.28-4.21-1.48-4.79Z"/>
              <path class="cls-31" d="M282.33,96.28c3.63-.78,7.03,2.46,6.82,6.08-2.8-4.05-6.07-6.08-7.56.18-3.16-4.05,5.86-5.5.74-6.27Z"/>
              <path class="cls-22" d="M242.5,128.73c2.79-.53,2.53,5.44-1.11,4.06-2.12-.8.18-3.88,1.11-4.06Z"/>
              <path class="cls-22" d="M238.45,138.68c2.11-.2,2.74,3.42.74,4.06-3.58,1.14-2.68-3.87-.74-4.06Z"/>
              <path class="cls-17" d="M243.24,121.72c.28-.03,1.38,1.39.37,1.48-1.12.09-1.06-1.4-.37-1.48Z"/>
              <path class="cls-28" d="M275.14,126.88c-.17.05-1.09.64-1.48.74-.26-1.22.97-.5,1.48-.74Z"/>
              <g>
                <path class="cls-11" d="M268.32,96.28c7.85-1.63,8.31,9.54,2.58,10.69-7.32,1.48-8.54-9.46-2.58-10.69Z"/>
                <path class="cls-20" d="M267.58,97.38c5.92-1.63,9.15,6.19,3.32,8.85-.41-.93,1.81-1.61,2.03-2.77.93-4.81-5.8-6.37-8.11-2.21-.1-1.18,1.87-3.63,2.77-3.87Z"/>
              </g>
            </g>
          </g>
          <g>
            <path class="cls-20" d="M202.86,217.97c-1.77,2.84-5.8-.77-7.38-2.21.64-7.95,10.2-2.31,7.38,2.21Z"/>
            <path class="cls-20" d="M210.6,218.34c-1.17-.06-2.36,1.79-5.16,0-6.12-3.91,6.62-9.64,5.16,0Z"/>
            <path class="cls-20" d="M215.03,212.44c.28.05.48.25.74.37,2.02.95,3.2,4.99,1.11,6.27-.31-.09-2.01-.29-2.58-.37-2.02-1.29-3.11-2.2-1.84-4.43.49-.87,1.53-1.84,2.58-1.84Z"/>
            <path class="cls-24" d="M215.03,212.44c-1.05,0-2.09.98-2.58,1.84-3.28,1.17-5.34-6.05-2.77-7.38s6.38,2.8,5.35,5.53Z"/>
            <g>
              <path class="cls-18" d="M213.19,156.39c2.32,4.49,2.22,7.91.74,12.54-1.23-.02-1.7,3.26-2.4,3.32-.27.02-.1-.74-.37-.74-2.44-.02-5.43-.4-6.82,2.21-1.21-.75-5.21.05-6.64.37-.3.07-.77,1.23-1.66,1.48-.55.15-.96-.75-1.11-.74-.74.08-.95.72-1.11.74-2.65.24-6.93-.49-9.77,0,2.54-7.65,12.28-10.88,18.44-15.12,3.23-1.13,6.61-3.19,9.22-4.06.35-.12,1.03.08,1.48,0Z"/>
              <path class="cls-12" d="M205.99,164.87c1.08-.3,1.67,3.07,0,2.95-1.4-.1-.43-2.83,0-2.95Z"/>
            </g>
            <g>
              <path class="cls-23" d="M204.34,173.72c.12.07,1.43,2.26,1.48,2.4,2.66,8.3-11.48,5.44-8.11-2.03,1.43-.32,5.43-1.12,6.64-.37Z"/>
              <path class="cls-18" d="M201.94,176.67c1.51-.72,3.32,1.34,1.84,2.58-1.84,1.56-3.4-1.84-1.84-2.58Z"/>
            </g>
          </g>
        </g>
      </g>
    </g>
  </g>
</svg>